mtllib material.mtl
usemtl material_0
v -0.00300000 0.01600000 -0.00050000
v -0.00300000 0.01600000 -0.00050000
v -0.00300000 0.01600000 -0.00050000
v 0.00000000 0.01600000 -0.00050000
v 0.00000000 0.01600000 -0.00050000
v 0.00000000 0.01600000 -0.00050000
v -0.00300000 0.01600000 -0.01014100
v -0.00300000 0.01600000 -0.01014100
v -0.00300000 0.01600000 -0.01014100
v 0.00000000 0.01600000 -0.01014100
v 0.00000000 0.01600000 -0.01014100
v 0.00000000 0.01600000 -0.01014100
v -0.00300000 0.01599500 -0.01038000
v -0.00300000 0.01599500 -0.01038000
v 0.00000000 0.01599500 -0.01038000
v 0.00000000 0.01599500 -0.01038000
v -0.00300000 0.01598100 -0.01061800
v -0.00300000 0.01598100 -0.01061800
v 0.00000000 0.01598100 -0.01061800
v 0.00000000 0.01598100 -0.01061800
v -0.00300000 0.01595700 -0.01085600
v -0.00300000 0.01595700 -0.01085600
v -0.00300000 0.01595700 -0.01085600
v 0.00000000 0.01595700 -0.01085600
v 0.00000000 0.01595700 -0.01085600
v 0.00000000 0.01595700 -0.01085600
v -0.00300000 0.01021100 -0.05873800
v -0.00300000 0.01021100 -0.05873800
v -0.00300000 0.01021100 -0.05873800
v 0.00000000 0.01021100 -0.05873800
v 0.00000000 0.01021100 -0.05873800
v 0.00000000 0.01021100 -0.05873800
v -0.00300000 0.00999800 -0.05942800
v -0.00300000 0.00999800 -0.05942800
v 0.00000000 0.00999800 -0.05942800
v 0.00000000 0.00999800 -0.05942800
v -0.00300000 0.00955300 -0.05999600
v -0.00300000 0.00955300 -0.05999600
v 0.00000000 0.00955300 -0.05999600
v 0.00000000 0.00955300 -0.05999600
v -0.00300000 0.00893600 -0.06037000
v -0.00300000 0.00893600 -0.06037000
v 0.00000000 0.00893600 -0.06037000
v 0.00000000 0.00893600 -0.06037000
v -0.00300000 0.00822600 -0.06050000
v -0.00300000 0.00822600 -0.06050000
v -0.00300000 0.00822600 -0.06050000
v 0.00000000 0.00822600 -0.06050000
v 0.00000000 0.00822600 -0.06050000
v 0.00000000 0.00822600 -0.06050000
v -0.00300000 -0.00822600 -0.06050000
v -0.00300000 -0.00822600 -0.06050000
v -0.00300000 -0.00822600 -0.06050000
v 0.00000000 -0.00822600 -0.06050000
v 0.00000000 -0.00822600 -0.06050000
v 0.00000000 -0.00822600 -0.06050000
v -0.00300000 -0.00893600 -0.06037000
v -0.00300000 -0.00893600 -0.06037000
v 0.00000000 -0.00893600 -0.06037000
v 0.00000000 -0.00893600 -0.06037000
v -0.00300000 -0.00955300 -0.05999600
v -0.00300000 -0.00955300 -0.05999600
v 0.00000000 -0.00955300 -0.05999600
v 0.00000000 -0.00955300 -0.05999600
v -0.00300000 -0.00999800 -0.05942800
v -0.00300000 -0.00999800 -0.05942800
v 0.00000000 -0.00999800 -0.05942800
v 0.00000000 -0.00999800 -0.05942800
v -0.00300000 -0.01021100 -0.05873800
v -0.00300000 -0.01021100 -0.05873800
v -0.00300000 -0.01021100 -0.05873800
v 0.00000000 -0.01021100 -0.05873800
v 0.00000000 -0.01021100 -0.05873800
v 0.00000000 -0.01021100 -0.05873800
v -0.00300000 -0.01595700 -0.01085600
v -0.00300000 -0.01595700 -0.01085600
v -0.00300000 -0.01595700 -0.01085600
v 0.00000000 -0.01595700 -0.01085600
v 0.00000000 -0.01595700 -0.01085600
v 0.00000000 -0.01595700 -0.01085600
v -0.00300000 -0.01598100 -0.01061800
v -0.00300000 -0.01598100 -0.01061800
v 0.00000000 -0.01598100 -0.01061800
v 0.00000000 -0.01598100 -0.01061800
v -0.00300000 -0.01599500 -0.01038000
v -0.00300000 -0.01599500 -0.01038000
v 0.00000000 -0.01599500 -0.01038000
v 0.00000000 -0.01599500 -0.01038000
v -0.00300000 -0.01600000 -0.00050000
v -0.00300000 -0.01600000 -0.00050000
v -0.00300000 -0.01600000 -0.00050000
v 0.00000000 -0.01600000 -0.00050000
v 0.00000000 -0.01600000 -0.00050000
v 0.00000000 -0.01600000 -0.00050000
v -0.00300000 -0.01600000 -0.01014100
v -0.00300000 -0.01600000 -0.01014100
v -0.00300000 -0.01600000 -0.01014100
v 0.00000000 -0.01600000 -0.01014100
v 0.00000000 -0.01600000 -0.01014100
v 0.00000000 -0.01600000 -0.01014100
vn 0.00000000 0.00000000 100.00000000
vn -100.00000000 0.00000000 0.00000000
vn 0.00000000 100.00000000 0.00000000
vn 0.00000000 0.00000000 100.00000000
vn 100.00000000 0.00000000 0.00000000
vn 0.00000000 100.00000000 0.00000000
vn 0.00000000 100.00000000 0.00000000
vn 0.00000000 100.00000000 0.00000000
vn -100.00000000 0.00000000 0.00000000
vn 100.00000000 0.00000000 0.00000000
vn 0.00000000 100.00000000 0.00000000
vn 0.00000000 100.00000000 0.00000000
vn 0.00000000 99.92076800 -3.97991300
vn -100.00000000 0.00000000 0.00000000
vn 0.00000000 99.92076800 -3.97991300
vn 100.00000000 0.00000000 0.00000000
vn -100.00000000 0.00000000 0.00000000
vn 0.00000000 99.68320700 -7.95351900
vn 0.00000000 99.68320700 -7.95351900
vn 100.00000000 0.00000000 0.00000000
vn 0.00000000 99.28768300 -11.91452200
vn 0.00000000 99.28768300 -11.91452200
vn -100.00000000 0.00000000 0.00000000
vn 0.00000000 99.28768300 -11.91452200
vn 100.00000000 0.00000000 0.00000000
vn 0.00000000 99.28768300 -11.91452200
vn 0.00000000 99.28768300 -11.91452200
vn 0.00000000 99.28768300 -11.91452200
vn -100.00000000 0.00000000 0.00000000
vn 100.00000000 0.00000000 0.00000000
vn 0.00000000 99.28768300 -11.91452200
vn 0.00000000 99.28768300 -11.91452200
vn 0.00000000 88.59440700 -46.37921500
vn -100.00000000 0.00000000 0.00000000
vn 0.00000000 88.59440700 -46.37921500
vn 100.00000000 0.00000000 0.00000000
vn 0.00000000 66.36470600 -74.80458600
vn -100.00000000 0.00000000 0.00000000
vn 0.00000000 66.36470600 -74.80458600
vn 100.00000000 0.00000000 0.00000000
vn -100.00000000 0.00000000 0.00000000
vn 0.00000000 35.49324900 -93.48919400
vn 100.00000000 0.00000000 0.00000000
vn 0.00000000 35.49324900 -93.48919400
vn 0.00000000 0.00000000 -100.00000000
vn -100.00000000 0.00000000 0.00000000
vn 0.00000000 0.00000000 -100.00000000
vn 100.00000000 0.00000000 0.00000000
vn 0.00000000 0.00000000 -100.00000000
vn 0.00000000 0.00000000 -100.00000000
vn 0.00000000 0.00000000 -100.00000000
vn -100.00000000 0.00000000 0.00000000
vn 0.00000000 0.00000000 -100.00000000
vn 100.00000000 0.00000000 0.00000000
vn 0.00000000 0.00000000 -100.00000000
vn 0.00000000 0.00000000 -100.00000000
vn 0.00000000 -35.49324900 -93.48919400
vn -100.00000000 0.00000000 0.00000000
vn 0.00000000 -35.49324900 -93.48919400
vn 100.00000000 0.00000000 0.00000000
vn -100.00000000 0.00000000 0.00000000
vn 0.00000000 -66.36470600 -74.80458600
vn 0.00000000 -66.36470600 -74.80458600
vn 100.00000000 0.00000000 0.00000000
vn 0.00000000 -88.59440700 -46.37921500
vn -100.00000000 0.00000000 0.00000000
vn 0.00000000 -88.59440700 -46.37921500
vn 100.00000000 0.00000000 0.00000000
vn -100.00000000 0.00000000 0.00000000
vn 0.00000000 -99.28768300 -11.91452200
vn 0.00000000 -99.28768300 -11.91452200
vn 0.00000000 -99.28768300 -11.91452200
vn 100.00000000 0.00000000 0.00000000
vn 0.00000000 -99.28768300 -11.91452200
vn 0.00000000 -99.28768300 -11.91452200
vn -100.00000000 0.00000000 0.00000000
vn 0.00000000 -99.28768300 -11.91452200
vn 0.00000000 -99.28768300 -11.91452200
vn 100.00000000 0.00000000 0.00000000
vn 0.00000000 -99.28768300 -11.91452200
vn -100.00000000 0.00000000 0.00000000
vn 0.00000000 -99.68320700 -7.95351900
vn 100.00000000 0.00000000 0.00000000
vn 0.00000000 -99.68320700 -7.95351900
vn 0.00000000 -99.92076800 -3.97991300
vn -100.00000000 0.00000000 0.00000000
vn 100.00000000 0.00000000 0.00000000
vn 0.00000000 -99.92076800 -3.97991300
vn -100.00000000 0.00000000 0.00000000
vn 0.00000000 -100.00000000 0.00000000
vn 0.00000000 0.00000000 100.00000000
vn 0.00000000 -100.00000000 0.00000000
vn 100.00000000 0.00000000 0.00000000
vn 0.00000000 0.00000000 100.00000000
vn 0.00000000 -100.00000000 0.00000000
vn -100.00000000 0.00000000 0.00000000
vn 0.00000000 -100.00000000 0.00000000
vn 0.00000000 -100.00000000 0.00000000
vn 0.00000000 -100.00000000 0.00000000
vn 100.00000000 0.00000000 0.00000000
vt 0.00000000 0.00000000
vt 1.60000000 -3.00000000
vt 1.00000000 0.00000000
vt 0.00000000 0.30000000
vt -1.60000000 -3.00000000
vt 1.00000000 0.30000000
vt -0.00000000 0.03582900
vt 0.03587100 0.00000000
vt 1.60000000 -2.03587100
vt -1.60000000 -2.03587100
vt 0.03587100 0.30000000
vt -0.30000000 0.03582900
vt -0.00000000 0.01194300
vt 1.59952500 -2.01199200
vt -0.30000000 0.01194300
vt -1.59952500 -2.01199200
vt 1.59809900 -1.98815000
vt -0.00000000 -0.01194300
vt -0.30000000 -0.01194300
vt -1.59809900 -1.98815000
vt -0.00000000 -0.03582900
vt 5.00000000 0.00000000
vt 1.59572600 -1.96438400
vt 5.00000000 0.30000000
vt -1.59572600 -1.96438400
vt -0.30000000 -0.03582900
vt 0.17743500 0.00000000
vt -0.00000000 0.14513700
vt 1.02114000 2.82382900
vt -1.02114000 2.82382900
vt -0.30000000 0.14513700
vt 0.17743500 0.30000000
vt -0.00000000 0.07256800
vt 0.99975400 2.89275800
vt -0.30000000 0.07256800
vt -0.99975400 2.89275800
vt -0.00000000 0.00000000
vt 0.95529500 2.94960900
vt -0.30000000 0.00000000
vt -0.95529500 2.94960900
vt 0.89355200 2.98697800
vt -0.00000000 -0.07256800
vt -0.89355200 2.98697800
vt -0.30000000 -0.07256800
vt 1.82256500 0.00000000
vt 0.82256500 3.00000000
vt -0.00000000 -0.14513700
vt -0.82256500 3.00000000
vt 1.82256500 0.30000000
vt -0.30000000 -0.14513700
vt -0.00000000 0.14513700
vt -0.82256500 3.00000000
vt 0.17743500 0.00000000
vt 0.82256500 3.00000000
vt 0.17743500 0.30000000
vt -0.30000000 0.14513700
vt -0.00000000 0.07256800
vt -0.89355200 2.98697800
vt -0.30000000 0.07256800
vt 0.89355200 2.98697800
vt -0.95529500 2.94960900
vt -0.00000000 0.00000000
vt -0.30000000 0.00000000
vt 0.95529500 2.94960900
vt -0.00000000 -0.07256800
vt -0.99975400 2.89275800
vt -0.30000000 -0.07256800
vt 0.99975400 2.89275800
vt -1.02114000 2.82382900
vt 4.85843700 0.00000000
vt -0.00000000 -0.14513700
vt 4.85843700 0.30000000
vt 1.02114000 2.82382900
vt -0.30000000 -0.14513700
vt -0.00000000 0.03582900
vt -1.59572600 -1.96438400
vt 0.03587100 0.00000000
vt 0.03587100 0.30000000
vt 1.59572600 -1.96438400
vt -0.30000000 0.03582900
vt -1.59809900 -1.98815000
vt -0.00000000 0.01194300
vt 1.59809900 -1.98815000
vt -0.30000000 0.01194300
vt -0.00000000 -0.01194300
vt -1.59952500 -2.01199200
vt 1.59952500 -2.01199200
vt -0.30000000 -0.01194300
vt -1.60000000 -3.00000000
vt 0.00000000 0.00000000
vt 3.20000000 0.00000000
vt 0.00000000 0.30000000
vt 1.60000000 -3.00000000
vt 3.20000000 0.30000000
vt -0.00000000 -0.03582900
vt -1.60000000 -2.03587100
vt 0.96412900 0.00000000
vt -0.30000000 -0.03582900
vt 0.96412900 0.30000000
vt 1.60000000 -2.03587100
f 1/1/1 91/91/91 4/4/4
f 4/4/4 91/91/91 94/94/94
f 99/99/99 92/92/92 97/97/97
f 97/97/97 92/92/92 90/90/90
f 49/49/49 55/55/55 45/45/45
f 45/45/45 55/55/55 53/53/53
f 87/87/87 83/83/83 100/100/100
f 100/100/100 83/83/83 79/79/79
f 100/100/100 79/79/79 25/25/25
f 25/25/25 79/79/79 48/48/48
f 25/25/25 48/48/48 30/30/30
f 30/30/30 48/48/48 43/43/43
f 30/30/30 43/43/43 40/40/40
f 48/48/48 79/79/79 54/54/54
f 54/54/54 79/79/79 73/73/73
f 54/54/54 73/73/73 60/60/60
f 60/60/60 73/73/73 64/64/64
f 64/64/64 73/73/73 68/68/68
f 40/40/40 36/36/36 30/30/30
f 100/100/100 25/25/25 10/10/10
f 10/10/10 25/25/25 20/20/20
f 10/10/10 20/20/20 16/16/16
f 5/5/5 93/93/93 10/10/10
f 10/10/10 93/93/93 100/100/100
f 8/8/8 3/3/3 11/11/11
f 11/11/11 3/3/3 6/6/6
f 77/77/77 70/70/70 78/78/78
f 78/78/78 70/70/70 72/72/72
f 81/81/81 96/96/96 76/76/76
f 76/76/76 96/96/96 9/9/9
f 76/76/76 9/9/9 23/23/23
f 23/23/23 9/9/9 17/17/17
f 17/17/17 9/9/9 14/14/14
f 81/81/81 86/86/86 96/96/96
f 89/89/89 2/2/2 96/96/96
f 96/96/96 2/2/2 9/9/9
f 29/29/29 46/46/46 23/23/23
f 23/23/23 46/46/46 52/52/52
f 23/23/23 52/52/52 76/76/76
f 76/76/76 52/52/52 69/69/69
f 69/69/69 52/52/52 58/58/58
f 69/69/69 58/58/58 61/61/61
f 34/34/34 38/38/38 29/29/29
f 29/29/29 38/38/38 41/41/41
f 29/29/29 41/41/41 46/46/46
f 61/61/61 66/66/66 69/69/69
f 28/28/28 31/31/31 33/33/33
f 33/33/33 31/31/31 35/35/35
f 33/33/33 35/35/35 37/37/37
f 37/37/37 35/35/35 39/39/39
f 37/37/37 39/39/39 42/42/42
f 42/42/42 39/39/39 44/44/44
f 42/42/42 44/44/44 47/47/47
f 47/47/47 44/44/44 50/50/50
f 51/51/51 56/56/56 57/57/57
f 57/57/57 56/56/56 59/59/59
f 57/57/57 59/59/59 62/62/62
f 62/62/62 59/59/59 63/63/63
f 62/62/62 63/63/63 65/65/65
f 65/65/65 63/63/63 67/67/67
f 65/65/65 67/67/67 71/71/71
f 71/71/71 67/67/67 74/74/74
f 75/75/75 80/80/80 82/82/82
f 82/82/82 80/80/80 84/84/84
f 82/82/82 84/84/84 85/85/85
f 85/85/85 84/84/84 88/88/88
f 85/85/85 88/88/88 95/95/95
f 95/95/95 88/88/88 98/98/98
f 7/7/7 12/12/12 13/13/13
f 13/13/13 12/12/12 15/15/15
f 13/13/13 15/15/15 18/18/18
f 18/18/18 15/15/15 19/19/19
f 18/18/18 19/19/19 21/21/21
f 21/21/21 19/19/19 26/26/26
f 24/24/24 32/32/32 22/22/22
f 22/22/22 32/32/32 27/27/27

