# Blender v2.91.0 OBJ File: 'Rib10R_modify.blend'
# www.blender.org
mtllib Rib10R.mtl
o Original_Rib10R_Rib%20Cage%20For%20Blender.023
v 0.04424615291 -0.1050131277 0.1356521448
v 0.04312085789 -0.1036207096 0.1323201674
v 0.06007240007 -0.1131912137 0.1355323696
v 0.05895108834 -0.1153207884 0.1379865765
v 0.03346086496 -0.08675359831 0.1365760192
v 0.03092400888 -0.09424124512 0.1337012728
v 0.04761045497 -0.09769008539 0.1396826318
v 0.02892837981 -0.09288155926 0.1293484636
v 0.05996161348 -0.1107716224 0.1361276844
v 0.04374030245 -0.101190847 0.1338015025
v 0.07168242815 -0.1205642342 0.138265029
v 0.0718414561 -0.117285378 0.1390513276
v 0.06397628444 -0.1085454637 0.1425798896
v 0.0708478075 -0.1225129683 0.14114281
v 0.02084647453 -0.07581155316 0.1308145185
v 0.02020374679 -0.07310106492 0.1282750216
v 0.03329658699 -0.0841195544 0.1340373663
v 0.01848839464 -0.08337918182 0.1280705725
v 0.04759407629 -0.09526845418 0.1379243295
v 0.01480663726 -0.08261403485 0.1239269363
v 0.0306225026 -0.09063292782 0.1300863274
v 0.062315687 -0.1064418754 0.1386178844
v 0.07377531501 -0.1133590641 0.1413596292
v 0.0463276807 -0.09539715863 0.1369160405
v 0.07282564431 -0.1126670159 0.142765956
v 0.07245297637 -0.1146483176 0.1443440327
v 0.06387005411 -0.1068242842 0.1409409235
v 0.008377498994 -0.0654737936 0.1228269676
v 0.008140254247 -0.06209971736 0.1199265244
v 0.02052506028 -0.07369473203 0.1285453963
v 0.008315961902 -0.06286484869 0.1207069531
v 0.03243377627 -0.08536866951 0.1328250849
v 0.006661328113 -0.07392105108 0.1196021849
v 0.002627107296 -0.07288893663 0.1145762751
v 0.01806387149 -0.08012660209 0.1254191443
v -0.002316762383 -0.05537293272 0.113786252
v -0.003405893438 -0.05227515107 0.1106427186
v -0.002855244805 -0.05451319093 0.1101169155
v 0.006338661418 -0.0705350798 0.1175772616
v -0.004333253918 -0.06120386338 0.1083373037
v -0.004050709909 -0.06484813353 0.1106943547
v -0.008295739535 -0.06302514349 0.1050968033
v -0.01251178543 -0.04480535658 0.1033898294
v -0.01407728287 -0.0422893799 0.09969371399
v -0.01354845913 -0.04564547815 0.1000996424
v -0.01436734083 -0.05253077532 0.09795556435
v -0.01875503399 -0.05442858412 0.09294511726
v -0.01456002408 -0.05616148156 0.1006613398
v -0.02180006869 -0.03578847629 0.09099706002
v -0.0225101718 -0.0335932314 0.08624473545
v -0.02094577532 -0.0361421219 0.0880761043
v -0.02224484417 -0.0448160022 0.08591297291
v -0.02625192852 -0.04605568804 0.07992843814
v -0.02281319836 -0.04780199017 0.08834333236
v -0.02847639884 -0.02827396657 0.07758860478
v -0.02823861578 -0.02593958246 0.07233360113
v -0.02789679203 -0.02997656485 0.07476889576
v -0.02822593443 -0.03855611367 0.07288742919
v -0.03099656189 -0.03800276678 0.06600826372
v -0.02988648274 -0.04143734656 0.07545206558
v -0.03361784716 -0.02114297931 0.06373587912
v -0.03128152513 -0.01932892302 0.06026810125
v -0.031476403 -0.02375879199 0.06062053476
v -0.03154670327 -0.03129150501 0.05935506721
v -0.03214469296 -0.03026627189 0.05223935158
v -0.03392796888 -0.03463723884 0.06151609109
v -0.03394082377 -0.01463307776 0.05065244949
v -0.02901318128 -0.01156845772 0.04649016611
v -0.02934569994 -0.01734518358 0.04708472098
v -0.0309669168 -0.02404699041 0.04855621893
v -0.03359142202 -0.02751487502 0.04848667715
v -0.02824886744 -0.02240752127 0.03974143715
v -0.03041287388 -0.01096543625 0.03698819163
v -0.02384482715 -0.003578755389 0.03271075786
v -0.02402981112 -0.01242715099 0.03551117743
v -0.02317784599 -0.01888618659 0.03491870209
v -0.02406267848 -0.01746308516 0.03286368776
v -0.03072730631 -0.0207047388 0.03748335779
v -0.02613636454 -0.005478740687 0.02396323878
v -0.01652434538 0.0006368271826 0.02095921174
v -0.01634093286 -0.00692502982 0.02455101523
v -0.01568919306 -0.01564859194 0.0246435247
v -0.01734014744 -0.01185417671 0.0157021372
v -0.02652512868 -0.01393974697 0.02603807187
v -0.01964511928 -0.004937125813 0.01175873179
v -0.006334186966 -0.001237065287 0.009530991689
v -0.004954483659 -0.007309069941 0.01402332582
v -0.005060650848 -0.0135683999 0.01543471395
v -0.007501909785 -0.01324875313 0.01101352695
v -0.01954105822 -0.009180984281 0.0138898745
v -0.00500415791 -0.00710534017 0.005492521106
v 0.007748797085 -0.008282649149 0.00650061496
v 0.0068033146 -0.01531473968 0.007097991506
v 0.009003781508 -0.01118865388 0.007618181631
v -0.006807096108 -0.009496606447 0.006283826863
vn -0.3142 -0.9252 -0.2126
vn -0.4107 -0.6210 -0.6676
vn 0.0415 -0.4006 0.9153
vn -0.0428 -0.4614 0.8862
vn -0.4028 -0.9135 0.0568
vn -0.4456 -0.8942 -0.0441
vn -0.4529 -0.8893 -0.0633
vn 0.0137 -0.4793 0.8775
vn -0.3956 -0.9155 0.0730
vn -0.0600 0.3974 -0.9157
vn 0.0830 0.5526 -0.8293
vn -0.0156 0.5709 -0.8209
vn -0.3361 -0.6380 -0.6928
vn -0.0145 0.4046 -0.9144
vn -0.0196 0.3692 -0.9292
vn -0.0136 -0.4727 0.8811
vn -0.0149 -0.4718 0.8816
vn -0.0350 -0.4613 0.8866
vn 0.0080 -0.4835 0.8753
vn -0.3191 -0.7359 -0.5972
vn -0.1723 -0.3514 0.9202
vn 0.3536 0.6717 0.6510
vn 0.3381 0.6506 0.6800
vn 0.4218 0.6577 0.6241
vn -0.1690 -0.3489 0.9218
vn -0.4551 -0.8774 0.1519
vn 0.3652 0.5319 0.7640
vn 0.3586 0.5310 0.7678
vn -0.3151 -0.8086 0.4968
vn -0.0231 0.2357 -0.9715
vn 0.0427 0.2207 -0.9744
vn 0.0415 0.2149 -0.9757
vn 0.0384 0.2037 -0.9783
vn -0.0541 0.4930 -0.8683
vn -0.0547 0.4799 -0.8756
vn -0.0544 0.4871 -0.8717
vn 0.0140 0.4857 -0.8740
vn 0.0148 0.4622 -0.8867
vn -0.0545 0.4857 -0.8724
vn 0.0872 0.4421 -0.8927
vn 0.9088 -0.4155 -0.0381
vn 0.9628 0.0421 -0.2670
vn 0.9777 0.0186 -0.2094
vn 0.8598 0.3344 -0.3858
vn 0.8686 0.2152 -0.4463
vn 0.6849 -0.6394 0.3495
vn -0.0142 -0.4493 0.8933
vn 0.3992 0.6519 0.6447
vn 0.4062 0.6524 0.6398
vn -0.2714 -0.3214 0.9072
vn 0.2278 0.6362 0.7371
vn 0.1709 0.5700 0.8037
vn -0.1391 -0.2407 -0.9606
vn -0.1390 -0.2407 -0.9606
vn -0.1389 -0.2408 -0.9606
vn -0.2578 -0.6786 -0.6878
vn 0.1242 0.0077 -0.9922
vn 0.1243 0.0082 -0.9922
vn 0.1241 0.0082 -0.9922
vn 0.1476 0.5747 -0.8049
vn 0.2332 0.5240 -0.8191
vn -0.3320 -0.3759 0.8652
vn -0.4052 -0.6096 0.6813
vn 0.1693 0.6252 -0.7619
vn 0.1333 0.6920 -0.7095
vn -0.4342 -0.6563 0.6171
vn 0.0455 0.2315 -0.9718
vn 0.2333 0.0452 -0.9714
vn 0.0886 0.4662 -0.8802
vn 0.1592 0.4459 -0.8808
vn 0.3003 0.9513 -0.0694
vn 0.2864 0.9204 -0.2661
vn 0.2896 0.9180 -0.2708
vn 0.3442 0.5378 0.7696
vn -0.4016 -0.3571 0.8433
vn 0.0654 0.5370 0.8410
vn 0.1833 0.6628 0.7260
vn 0.4344 0.5464 -0.7161
vn 0.0518 -0.5538 -0.8310
vn 0.1560 0.4089 -0.8992
vn 0.2996 0.3717 -0.8787
vn 0.3009 0.3562 -0.8847
vn 0.4097 0.2721 -0.8707
vn 0.3995 0.3407 -0.8511
vn -0.4554 -0.5956 0.6617
vn -0.3816 -0.3406 0.8593
vn -0.4906 -0.6480 0.5826
vn 0.2770 0.2964 -0.9140
vn 0.3475 0.2008 -0.9159
vn -0.4645 -0.3194 0.8259
vn 0.0204 0.5818 0.8131
vn 0.4019 0.8597 0.3153
vn 0.4470 0.2741 -0.8515
vn 0.4768 0.5480 -0.6873
vn 0.4330 0.3599 -0.8264
vn 0.4457 0.2633 -0.8556
vn 0.3478 0.2029 -0.9153
vn 0.4561 0.2975 -0.8387
vn 0.4271 0.0469 -0.9030
vn -0.4168 -0.2799 0.8648
vn -0.4934 -0.6386 0.5905
vn -0.5291 -0.7247 0.4414
vn -0.5447 -0.2512 0.8001
vn 0.2938 0.8881 0.3536
vn -0.0847 0.6744 0.7335
vn 0.6413 0.5104 -0.5729
vn 0.6396 0.3350 -0.6919
vn 0.6077 0.3142 -0.7294
vn 0.6179 0.2589 -0.7424
vn 0.5923 0.2399 -0.7691
vn 0.5676 0.0251 -0.8230
vn -0.6624 -0.5743 0.4811
vn -0.6236 -0.4863 0.6121
vn -0.5978 -0.3006 0.7432
vn -0.6859 -0.2789 0.6722
vn 0.2195 0.8881 0.4039
vn 0.1333 0.8689 0.4766
vn 0.6821 0.0492 -0.7296
vn 0.6592 0.5539 -0.5086
vn 0.6736 0.3184 -0.6670
vn 0.7014 0.2317 -0.6740
vn 0.7107 0.3830 -0.5901
vn 0.6641 -0.0864 -0.7427
vn -0.5494 -0.8311 -0.0861
vn -0.6310 -0.6434 0.4335
vn -0.6524 -0.2437 0.7176
vn -0.7784 -0.2545 0.5739
vn -0.7713 -0.2466 0.5867
vn -0.7487 -0.2205 0.6251
vn -0.0314 0.8104 0.5850
vn 0.2386 0.8695 0.4324
vn 0.8091 0.1955 -0.5542
vn 0.8099 0.1717 -0.5609
vn 0.8174 0.2853 -0.5005
vn 0.8216 0.2694 -0.5023
vn 0.7731 0.5912 -0.2300
vn 0.7063 -0.2769 -0.6515
vn -0.2386 -0.8401 -0.4871
vn -0.4437 -0.8792 -0.1735
vn -0.7989 -0.2790 0.5329
vn -0.9168 -0.2263 0.3292
vn -0.0589 0.7905 0.6096
vn -0.1531 0.7731 0.6155
vn -0.1897 0.7644 0.6162
vn 0.0552 0.8019 0.5949
vn 0.9686 0.1825 -0.1686
vn 0.9673 0.1924 -0.1654
vn 0.9595 0.0116 -0.2815
vn 0.9410 0.2196 -0.2574
vn 0.8999 -0.0005 -0.4361
vn -0.1329 -0.7688 -0.6255
vn -0.3283 -0.8276 -0.4553
vn 0.9811 0.1933 -0.0074
vn -0.9320 -0.2563 0.2562
vn -0.9794 -0.1937 0.0569
vn -0.1847 0.7639 0.6184
vn -0.8307 0.4574 0.3173
vn 0.9502 0.2831 0.1302
vn 0.9787 0.1676 0.1188
vn 0.9786 0.1678 0.1188
vn 0.9787 0.1675 0.1187
vn 0.9551 0.2452 0.1662
vn 0.9863 0.0579 0.1544
vn -0.2315 -0.8306 -0.5065
vn 0.9453 -0.2781 -0.1708
vn -0.9796 -0.1907 0.0631
vn -0.0884 -0.7754 -0.6252
vn -0.0490 -0.7250 -0.6870
vn -0.9830 -0.1836 -0.0046
vn -0.9358 0.3504 0.0376
vn -0.5460 0.6892 0.4762
vn 0.8703 0.2961 0.3936
vn 0.8343 0.4087 0.3699
vn 0.9215 0.1974 0.3346
vn 0.9243 0.1816 0.3357
vn -0.0415 -0.8803 -0.4726
vn -0.3138 -0.8499 -0.4233
vn 0.0971 -0.7724 -0.6276
vn -0.1566 -0.8822 -0.4441
vn -0.9692 -0.2325 -0.0813
vn -0.9515 -0.2369 -0.1962
vn -0.8218 0.4885 -0.2933
vn -0.4843 0.8631 0.1433
vn 0.7519 0.4161 0.5114
vn 0.6850 0.6252 0.3741
vn 0.8288 0.2367 0.5071
vn 0.8351 0.1349 0.5333
vn -0.1935 -0.9051 -0.3785
vn 0.2374 -0.9215 -0.3073
vn -0.4042 -0.7219 -0.5617
vn -0.4368 -0.7503 -0.4963
vn -0.8368 -0.4201 -0.3512
vn -0.6213 0.4989 -0.6042
vn -0.5604 -0.4212 -0.7131
vn -0.2679 0.6688 -0.6935
vn 0.5101 0.6157 0.6005
vn 0.6558 -0.2893 0.6973
vn 0.7648 0.2249 0.6038
vn 0.5805 0.5108 0.6341
vn 0.0661 -0.9905 -0.1202
vn -0.3138 -0.7124 -0.6277
vn -0.4132 -0.7037 -0.5779
vn -0.7683 0.0591 -0.6374
vn -0.1988 -0.2282 -0.9531
vn -0.1988 -0.2280 -0.9531
vn -0.2532 0.1938 -0.9478
usemtl None.012
s 1
f 1//1 2//1 3//1
f 1//2 3//2 4//2
f 5//3 6//3 1//3
f 5//4 1//4 7//4
f 6//5 2//6 1//7
f 7//8 1//8 4//8
f 6//5 8//9 2//6
f 2//10 9//10 3//10
f 8//11 10//11 2//11
f 2//12 10//12 9//12
f 4//13 3//13 11//13
f 3//14 9//14 12//14
f 3//15 12//15 11//15
f 13//16 4//17 14//18
f 7//19 4//17 13//16
f 4//20 11//20 14//20
f 15//21 6//21 5//21
f 5//22 16//22 15//22
f 5//23 17//23 16//23
f 7//24 17//24 5//24
f 15//25 18//25 6//25
f 18//26 8//26 6//26
f 13//27 19//27 7//27
f 7//28 19//28 17//28
f 18//29 20//29 8//29
f 8//30 21//30 10//30
f 20//31 21//32 8//33
f 10//34 22//35 9//36
f 9//37 23//37 12//37
f 9//38 22//38 23//38
f 10//34 24//39 22//35
f 21//40 24//40 10//40
f 25//41 26//42 14//43 11//44 12//45 23//46
f 13//47 14//47 26//47
f 26//48 27//48 13//48
f 13//49 27//49 19//49
f 28//50 18//50 15//50
f 15//51 16//51 29//51
f 15//52 29//52 28//52
f 30//53 16//54 17//55
f 31//56 29//56 16//56
f 31//57 16//58 30//59
f 32//60 17//60 19//60
f 30//61 17//61 32//61
f 28//62 33//62 18//62
f 33//63 20//63 18//63
f 32//64 19//64 24//64
f 24//65 19//65 27//65
f 33//66 34//66 20//66
f 20//31 35//67 21//32
f 34//68 35//68 20//68
f 21//69 32//69 24//69
f 35//70 32//70 21//70
f 22//71 25//71 23//71
f 22//72 27//72 25//72
f 24//73 27//73 22//73
f 26//74 25//74 27//74
f 36//75 33//75 28//75
f 28//76 29//76 37//76
f 28//77 37//77 36//77
f 38//78 37//78 29//78
f 38//79 29//79 31//79
f 35//80 30//80 32//80
f 39//81 31//81 30//81
f 39//82 30//82 35//82
f 40//83 38//83 31//83
f 40//84 31//84 39//84
f 41//85 34//85 33//85
f 36//86 41//86 33//86
f 41//87 42//87 34//87
f 34//88 39//88 35//88
f 42//89 39//89 34//89
f 43//90 41//90 36//90
f 36//91 37//91 44//91
f 36//92 44//92 43//92
f 45//93 44//93 37//93
f 45//94 37//94 38//94
f 46//95 45//95 38//95
f 46//96 38//96 40//96
f 42//97 40//97 39//97
f 47//98 46//98 40//98
f 47//99 40//99 42//99
f 43//100 48//100 41//100
f 48//101 42//101 41//101
f 48//102 47//102 42//102
f 49//103 48//103 43//103
f 43//104 50//104 49//104
f 43//105 44//105 50//105
f 51//106 50//106 44//106
f 51//107 44//107 45//107
f 52//108 45//108 46//108
f 52//109 51//109 45//109
f 53//110 52//110 46//110
f 53//111 46//111 47//111
f 54//112 53//112 47//112
f 54//113 47//113 48//113
f 49//114 54//114 48//114
f 55//115 54//115 49//115
f 49//116 50//116 56//116
f 49//117 56//117 55//117
f 57//118 56//118 50//118
f 57//119 50//119 51//119
f 58//120 57//120 51//120
f 58//121 51//121 52//121
f 59//122 58//122 52//122
f 59//123 52//123 53//123
f 60//124 59//124 53//124
f 60//125 53//125 54//125
f 55//126 60//126 54//126
f 61//127 60//128 55//129
f 55//130 62//130 61//130
f 55//131 56//131 62//131
f 63//132 62//132 56//132
f 63//133 56//133 57//133
f 64//134 63//134 57//134
f 64//135 57//135 58//135
f 65//136 64//136 58//136
f 65//137 58//137 59//137
f 66//138 65//138 59//138
f 66//139 59//139 60//139
f 61//127 66//140 60//128
f 67//141 66//141 61//141
f 61//142 68//143 67//144
f 68//143 61//142 62//145
f 69//146 68//146 62//146
f 69//147 62//147 63//147
f 70//148 69//148 63//148
f 70//149 63//149 64//149
f 65//150 70//150 64//150
f 71//151 72//151 65//151
f 71//152 65//152 66//152
f 65//153 72//153 70//153
f 67//154 71//154 66//154
f 73//155 71//155 67//155
f 67//156 68//156 74//156
f 67//157 74//157 73//157
f 75//158 74//158 68//158
f 75//159 68//160 69//161
f 76//162 75//162 69//162
f 76//163 69//163 70//163
f 77//164 76//164 70//164
f 77//165 70//165 72//165
f 73//166 78//166 71//166
f 78//167 72//167 71//167
f 78//168 77//168 72//168
f 79//169 78//169 73//169
f 73//170 74//170 80//170
f 73//171 80//171 79//171
f 81//172 74//172 75//172
f 81//173 80//173 74//173
f 82//174 81//174 75//174
f 82//175 75//175 76//175
f 83//176 82//176 76//176
f 83//177 76//177 77//177
f 84//178 77//178 78//178
f 84//179 83//179 77//179
f 79//180 84//180 78//180
f 85//181 84//181 79//181
f 79//182 80//182 86//182
f 79//183 86//183 85//183
f 87//184 80//184 81//184
f 87//185 86//185 80//185
f 88//186 87//186 81//186
f 81//187 82//187 88//187
f 89//188 82//188 83//188
f 89//189 88//189 82//189
f 90//190 89//190 83//190
f 90//191 83//191 84//191
f 85//192 90//192 84//192
f 85//193 86//193 91//193
f 91//194 90//194 85//194
f 86//195 92//195 91//195
f 86//196 87//196 92//196
f 93//197 94//197 87//197
f 87//198 88//198 93//198
f 94//199 92//199 87//199
f 93//200 88//200 89//200
f 93//201 89//201 95//201
f 95//202 89//202 90//202
f 91//203 95//203 90//203
f 95//204 91//204 92//204
f 95//205 92//205 94//205
f 93//206 95//206 94//206
