# Blender v2.91.0 OBJ File: 'Rib12R_modify.blend'
# www.blender.org
mtllib Rib12R.mtl
o Original_Rib12R_Rib%20Cage%20For%20Blender.009
v -0.01653939086 -0.0551560084 0.06099033235
v -0.01626546998 -0.05608095334 0.06719077348
v -0.008263873848 -0.06366558393 0.07444734154
v -0.01170778108 -0.06331609055 0.06802279527
v -0.013874726 -0.064949417 0.06415534614
v -0.01918755756 -0.04508529931 0.05171867417
v -0.01932912688 -0.05503616282 0.05571302135
v -0.01989598184 -0.04430082462 0.06054518557
v -0.01567375291 -0.05650016591 0.07040878054
v -0.01170453604 -0.06481133312 0.07607069312
v -0.005954752605 -0.06774994044 0.07467832402
v -0.008054569059 -0.07363366628 0.07407035717
v -0.01786489593 -0.05997729354 0.07083762135
v -0.02275532078 -0.04959285673 0.061695269
v -0.01916047373 -0.03699396088 0.04523061055
v -0.02131977105 -0.04760740404 0.04831310195
v -0.02472978242 -0.04240055561 0.05411004662
v -0.02250490153 -0.04583291942 0.06125134862
v -0.02067868971 -0.03613509301 0.05270880199
v -0.02387773202 -0.0367793793 0.05348462828
v -0.01927505733 -0.03034213338 0.03844714771
v -0.0225213442 -0.03847544725 0.03874809663
v -0.02662070787 -0.03380352324 0.04573078144
v -0.02419424364 -0.02839574548 0.04478657657
v -0.02086577727 -0.0279351281 0.04452323424
v -0.01937589836 -0.02570475262 0.03183741101
v -0.02172608773 -0.03011103371 0.02956172582
v -0.02591467823 -0.02587526435 0.03669660489
v -0.022051604 -0.01945605521 0.0361382971
v -0.0191566627 -0.02042587258 0.03577626192
v -0.01604256973 -0.01976170773 0.02593309223
v -0.02045200463 -0.02481643486 0.02355590667
v -0.02473629434 -0.02019670284 0.03029213257
v -0.02014738115 -0.01348501752 0.029611846
v -0.01685823775 -0.01389154831 0.02929289518
v -0.01367865865 -0.01629012844 0.01895918604
v -0.01917719428 -0.01927568774 0.01917196625
v -0.01994919372 -0.01319250773 0.02232216822
v -0.01586310999 -0.008404529106 0.02256155798
v -0.01396432726 -0.009791664472 0.02287419246
v -0.009234996004 -0.01313340181 0.01371443703
v -0.01338059667 -0.01436927437 0.01246439702
v -0.0128326728 -0.006674989024 0.01490140071
v -0.009573368959 -0.003364831421 0.01576941757
v -0.007766909074 -0.00700279775 0.01646379858
v 0.008410676264 -0.006372312472 0.005017634115
v 0.008162137197 -0.008178066144 0.004812753056
v 0.00603968561 -0.006315256818 0.003037923704
v 0.004412469284 0.006019678025 0.001344116115
v 0.009047845106 0.003295578792 0.004617960181
vn 0.4285 0.7296 -0.5330
vn 0.3682 0.7745 -0.5143
vn 0.5043 0.6721 -0.5422
vn 0.4347 -0.0599 -0.8986
vn 0.4180 0.2249 -0.8802
vn 0.4257 0.0729 -0.9019
vn 0.7868 -0.2590 -0.5602
vn 0.7787 -0.2583 -0.5718
vn 0.7719 -0.2573 -0.5814
vn 0.7760 0.1228 -0.6187
vn 0.6936 0.3856 -0.6085
vn 0.7603 0.1705 -0.6268
vn 0.6599 -0.4772 -0.5804
vn 0.6683 -0.4839 -0.5650
vn 0.6498 -0.4678 -0.5991
vn 0.7091 -0.2377 -0.6638
vn 0.7616 -0.2714 -0.5884
vn 0.7338 -0.2563 -0.6291
vn 0.8059 0.1739 -0.5659
vn 0.8205 0.1375 -0.5549
vn 0.7924 0.2079 -0.5735
vn 0.8249 0.5652 0.0085
vn 0.8132 0.5815 -0.0228
vn 0.8104 0.5851 -0.0310
vn 0.5366 0.8438 0.0089
vn 0.5285 0.8488 -0.0141
vn 0.5304 0.8477 -0.0081
vn 0.2239 0.5695 0.7909
vn 0.2303 0.5760 0.7843
vn 0.2362 0.6010 0.7635
vn 0.2471 0.5386 -0.8055
vn 0.7645 -0.2036 -0.6116
vn 0.7660 -0.2001 -0.6110
vn 0.7378 -0.2508 -0.6267
vn 0.4943 -0.6620 -0.5634
vn 0.6953 -0.6692 -0.2623
vn 0.5476 -0.6813 -0.4857
vn -0.6689 -0.7427 0.0320
vn -0.6682 -0.7436 0.0257
vn -0.6678 -0.7440 0.0222
vn -0.7362 -0.6746 0.0538
vn -0.7322 -0.6758 0.0848
vn -0.7440 -0.6661 0.0528
vn -0.7424 -0.6697 0.0197
vn 0.8775 -0.1617 -0.4515
vn 0.8818 -0.2031 -0.4256
vn 0.8791 -0.1772 -0.4425
vn 0.4939 -0.6582 -0.5681
vn 0.4789 -0.6213 -0.6202
vn 0.5010 -0.6718 -0.5455
vn 0.5601 -0.5353 -0.6322
vn 0.5793 -0.5610 -0.5913
vn 0.5528 -0.5234 -0.6484
vn -0.8399 -0.5336 -0.0996
vn -0.8481 -0.5249 -0.0723
vn -0.8386 -0.5400 -0.0724
vn -0.8321 -0.5524 -0.0494
vn -0.8412 -0.5404 -0.0219
vn -0.8432 -0.5373 -0.0170
vn -0.2396 0.6627 0.7095
vn -0.2510 0.6517 0.7157
vn -0.2833 0.6035 0.7453
vn 0.9400 0.1478 -0.3076
vn 0.9282 0.1896 -0.3200
vn 0.9510 0.1065 -0.2902
vn -0.2808 0.6890 0.6682
vn -0.2741 0.6957 0.6640
vn -0.2779 0.6920 0.6663
vn -0.1478 0.3258 0.9338
vn -0.1482 0.3226 0.9349
vn -0.1464 0.3542 0.9236
vn -0.1871 0.3424 0.9208
vn -0.2069 0.2748 0.9390
vn -0.2016 0.2879 0.9362
vn -0.5689 -0.5519 0.6098
vn -0.5760 -0.4954 0.6502
vn -0.5771 -0.4919 0.6519
vn -0.5832 0.0937 0.8069
vn -0.5832 0.0786 0.8085
vn -0.5831 0.0885 0.8076
vn -0.7916 0.1189 0.5994
vn -0.7928 0.1104 0.5994
vn -0.7927 0.1113 0.5994
vn -0.8600 0.0385 0.5089
vn -0.8596 0.0543 0.5081
vn -0.8596 0.0485 0.5086
vn 0.9739 -0.0502 -0.2215
vn 0.9585 0.0388 -0.2824
vn 0.9708 -0.0304 -0.2380
vn 0.5915 -0.5301 -0.6076
vn 0.5884 -0.5065 -0.6303
vn 0.5960 -0.5519 -0.5833
vn 0.4990 -0.6160 -0.6095
vn 0.5055 -0.6286 -0.5911
vn 0.4996 -0.6165 -0.6085
vn -0.8388 -0.5201 -0.1609
vn -0.8456 -0.5136 -0.1455
vn -0.8418 -0.5175 -0.1538
vn -0.8516 -0.5162 -0.0913
vn -0.5941 0.3641 0.7173
vn -0.5949 0.3615 0.7179
vn -0.5933 0.3669 0.7165
vn -0.9280 0.0951 0.3601
vn -0.9253 0.1164 0.3609
vn -0.9261 0.1095 0.3611
vn 0.0432 0.6979 0.7148
vn 0.0426 0.6978 0.7150
vn 0.0477 0.6989 0.7137
vn 0.9717 0.1716 -0.1624
vn 0.9706 0.1767 -0.1637
vn 0.9746 0.1581 -0.1583
vn 0.0103 0.7441 0.6680
vn 0.0108 0.7442 0.6679
vn 0.0102 0.7440 0.6680
vn -0.0432 0.7359 0.6758
vn -0.0431 0.7359 0.6757
vn -0.0393 0.7364 0.6754
vn 0.9894 -0.1233 -0.0765
vn 0.9926 0.0268 -0.1185
vn 0.9869 0.1526 -0.0523
vn 0.8983 -0.2944 -0.3263
vn 0.5924 -0.7024 -0.3947
vn 0.5711 -0.6424 -0.5111
vn 0.5719 -0.6467 -0.5047
vn -0.9475 -0.2814 0.1519
vn -0.9821 -0.1530 0.1096
vn -0.9401 -0.3037 0.1549
vn -0.8856 -0.3954 -0.2437
vn -0.8873 -0.3939 -0.2400
vn -0.8899 -0.3911 -0.2348
vn -0.8506 0.3830 0.3603
vn -0.8507 0.3827 0.3604
vn -0.8508 0.3824 0.3604
vn -0.7485 0.4471 0.4897
vn -0.7490 0.4463 0.4898
vn -0.7483 0.4477 0.4896
vn 0.3200 0.6638 0.6760
vn 0.3215 0.6633 0.6757
vn 0.3245 0.6623 0.6753
vn -0.0609 0.7891 0.6112
vn -0.0612 0.7891 0.6113
vn -0.0615 0.7890 0.6113
vn 0.9674 -0.2192 -0.1269
vn 0.9369 -0.3465 0.0474
vn 0.9265 -0.3690 0.0733
vn 0.9334 -0.3544 0.0555
vn 0.7974 -0.5571 -0.2320
vn 0.9092 -0.3471 -0.2301
vn -0.9789 -0.1589 -0.1287
vn -0.9803 -0.1182 -0.1582
vn -0.9777 -0.1712 -0.1217
vn -0.9950 -0.0484 0.0871
vn -0.9977 -0.0154 0.0656
vn -0.9986 0.0019 0.0528
vn -0.7236 0.4931 0.4830
vn -0.7236 0.4930 0.4830
vn -0.7237 0.4930 0.4830
vn -0.7926 0.4700 0.3884
vn -0.7973 0.4605 0.3901
vn -0.7955 0.4640 0.3896
vn 0.1654 0.7359 0.6566
vn 0.1680 0.7355 0.6563
vn 0.1785 0.7330 0.6564
vn 0.3207 0.6572 0.6821
vn 0.3189 0.6578 0.6824
vn 0.3233 0.6564 0.6817
vn 0.9952 -0.0371 0.0907
vn 0.9944 -0.0472 0.0942
vn 0.9957 -0.0276 0.0882
vn 0.9797 -0.0941 0.1768
vn 0.9830 -0.0842 0.1630
vn 0.9799 -0.0937 0.1762
vn 0.3760 -0.8453 -0.3797
vn 0.3783 -0.8421 -0.3844
vn 0.3722 -0.8513 -0.3698
vn 0.7324 -0.4373 -0.5218
vn 0.7279 -0.4485 -0.5187
vn 0.7417 -0.4198 -0.5231
vn -0.9525 0.0521 -0.3000
vn -0.9528 0.0535 -0.2990
vn -0.9603 0.0834 -0.2661
vn -0.9482 0.1227 -0.2931
vn -0.9592 0.0889 -0.2683
vn -0.9487 0.1213 -0.2919
vn -0.8586 0.5126 -0.0015
vn -0.8576 0.5142 -0.0017
vn -0.8581 0.5135 -0.0016
vn -0.7736 0.5958 0.2156
vn -0.7783 0.5897 0.2155
vn -0.7753 0.5936 0.2157
vn 0.3664 0.6432 0.6724
vn 0.3656 0.6438 0.6723
vn 0.3660 0.6435 0.6723
vn 0.1482 0.7864 0.5996
vn 0.1539 0.7853 0.5996
vn 0.1526 0.7855 0.5998
vn 0.9712 -0.1730 0.1639
vn 0.9710 -0.1737 0.1643
vn 0.9708 -0.1742 0.1647
vn 0.8558 -0.3256 0.4021
vn 0.8544 -0.3268 0.4040
vn 0.8552 -0.3261 0.4028
vn 0.3044 -0.8755 -0.3753
vn 0.2986 -0.8797 -0.3701
vn 0.3063 -0.8742 -0.3768
vn 0.4166 -0.8399 -0.3480
vn 0.4128 -0.8437 -0.3431
vn 0.4104 -0.8463 -0.3395
vn -0.8371 0.1682 -0.5205
vn -0.8591 0.1931 -0.4740
vn -0.7840 0.6039 -0.1439
vn -0.7424 0.6698 0.0096
vn 0.5376 0.4109 0.7363
vn 0.3848 0.6683 0.6367
vn 0.7868 -0.4397 0.4332
vn 0.7799 -0.4435 0.4417
vn 0.7913 -0.4363 0.4284
vn 0.6627 -0.4622 0.5892
vn 0.6704 -0.4478 0.5916
vn 0.6539 -0.4754 0.5886
vn 0.5031 -0.0540 0.8625
vn 0.5260 -0.0412 0.8495
vn 0.5217 -0.0431 0.8521
vn 0.1229 -0.9787 0.1643
vn 0.1623 -0.9658 0.2020
vn 0.1792 -0.9602 0.2142
vn -0.9325 0.1021 -0.3464
vn -0.9329 0.1283 -0.3366
vn -0.9327 0.1379 -0.3332
vn -0.5978 -0.6723 -0.4368
vn -0.5744 -0.7179 -0.3932
vn -0.5956 -0.6773 -0.4319
vn -0.7426 -0.0700 -0.6661
vn -0.7417 -0.0675 -0.6673
vn -0.7289 -0.0384 -0.6835
vn -0.7265 0.6827 0.0780
vn -0.7349 0.6737 0.0776
vn -0.7405 0.6677 0.0769
vn 0.0167 0.9593 0.2819
vn -0.0039 0.9585 0.2850
vn -0.0309 0.9563 0.2906
vn 0.5177 0.4265 0.7416
vn 0.5130 0.4324 0.7415
vn 0.5234 0.4186 0.7421
vn 0.7970 0.0105 0.6039
vn 0.7968 0.0010 0.6042
vn 0.7951 0.0428 0.6049
vn 0.3928 -0.4638 0.7941
vn 0.4210 -0.7201 0.5515
vn 0.1513 0.4095 0.8997
vn 0.4065 0.6404 0.6517
vn 0.7580 0.0036 -0.6523
vn 0.4116 0.0716 -0.9086
vn 0.4110 0.0810 -0.9080
vn 0.2226 -0.0588 -0.9731
vn 0.2215 -0.1122 -0.9687
usemtl None
s 1
f 1//1 2//2 3//3
f 1//4 3//5 4//6
f 5//7 1//8 4//9
f 6//10 2//11 1//12
f 7//13 6//14 1//15
f 7//16 1//17 5//18
f 6//19 8//20 2//21
f 8//22 9//23 2//24
f 3//25 2//26 9//27
f 10//28 3//29 9//30
f 3//5 11//31 4//6
f 11//32 12//33 4//34
f 5//35 4//36 12//37
f 13//38 5//39 12//40
f 14//41 7//42 5//43
f 14//41 5//43 13//44
f 15//45 8//46 6//47
f 16//48 15//49 6//50
f 16//51 6//52 7//53
f 17//54 16//55 7//56
f 17//57 7//58 14//59
f 8//60 18//61 9//62
f 15//63 19//64 8//65
f 19//66 18//67 8//68
f 9//69 13//70 10//71
f 18//72 13//73 9//74
f 13//75 12//76 10//77
f 18//78 14//79 13//80
f 20//81 17//82 14//83
f 20//84 14//85 18//86
f 21//87 19//88 15//89
f 22//90 21//91 15//92
f 22//93 15//94 16//95
f 23//96 22//97 16//98
f 23//99 16//55 17//54
f 24//100 23//101 17//102
f 24//103 17//104 20//105
f 19//106 20//107 18//108
f 21//109 25//110 19//111
f 25//112 20//113 19//114
f 25//115 24//116 20//117
f 26//118 25//119 21//120
f 27//121 26//121 21//121
f 27//122 21//123 22//124
f 28//125 27//126 22//127
f 28//128 22//129 23//130
f 29//131 23//132 24//133
f 29//134 28//135 23//136
f 30//137 29//138 24//139
f 30//140 24//141 25//142
f 26//118 30//143 25//119
f 31//144 30//145 26//146
f 32//147 31//147 26//147
f 32//148 26//148 27//148
f 33//149 32//150 27//151
f 33//152 27//153 28//154
f 34//155 33//156 28//157
f 34//158 28//159 29//160
f 35//161 34//162 29//163
f 35//164 29//165 30//166
f 31//167 35//168 30//169
f 36//170 35//171 31//172
f 37//173 36//174 31//175
f 37//176 31//177 32//178
f 38//179 37//180 32//181
f 38//182 32//183 33//184
f 39//185 33//186 34//187
f 39//188 38//189 33//190
f 40//191 39//192 34//193
f 40//194 34//195 35//196
f 36//197 40//198 35//199
f 41//200 40//201 36//202
f 42//203 41//204 36//205
f 42//206 36//207 37//208
f 43//209 37//209 38//209
f 43//210 42//210 37//210
f 44//211 38//211 39//211
f 44//212 43//212 38//212
f 45//213 44//213 39//213
f 45//214 39//214 40//214
f 41//215 45//216 40//217
f 46//218 45//219 41//220
f 47//221 46//222 41//223
f 47//224 41//225 42//226
f 48//227 42//228 43//229
f 48//230 47//231 42//232
f 49//233 48//234 43//235
f 49//236 43//237 44//238
f 50//239 49//240 44//241
f 50//242 44//243 45//244
f 46//245 50//246 45//247
f 10//248 12//249 11//250 3//251
f 49//252 50//253 46//254 47//255 48//256
