# Blender 4.4.1
# www.blender.org
o Original_Rib2L_Rib%20Cage%20For%20Blender.004
v 0.087036 -0.062539 -0.055345
v 0.085353 -0.061807 -0.053088
v 0.080668 -0.070770 -0.055449
v 0.086461 -0.071583 -0.057255
v 0.077112 -0.059709 -0.063149
v 0.075103 -0.058638 -0.060553
v 0.067676 -0.064753 -0.063877
v 0.074777 -0.068266 -0.067250
v 0.064532 -0.054882 -0.070148
v 0.063656 -0.055018 -0.066792
v 0.053703 -0.059699 -0.071973
v 0.060286 -0.063084 -0.076127
v 0.049832 -0.048903 -0.076650
v 0.050445 -0.049088 -0.072612
v 0.040760 -0.053407 -0.077638
v 0.045649 -0.055695 -0.082696
v 0.037518 -0.043293 -0.081044
v 0.039285 -0.044644 -0.076652
v 0.029045 -0.048126 -0.082863
v 0.031891 -0.048907 -0.088171
v 0.025507 -0.035516 -0.079571
v 0.025735 -0.035523 -0.076365
v 0.013191 -0.038923 -0.084720
v 0.019557 -0.040588 -0.089192
v 0.012098 -0.027613 -0.076987
v 0.015895 -0.029486 -0.073882
v 0.007455 -0.035615 -0.085194
v 0.007560 -0.031046 -0.086861
v 0.001344 -0.019129 -0.072035
v 0.005050 -0.021873 -0.070061
v -0.004484 -0.026840 -0.079849
v -0.003946 -0.021929 -0.079918
v -0.007822 -0.009481 -0.066345
v -0.003188 -0.012849 -0.064936
v -0.014487 -0.016205 -0.073441
v -0.014142 -0.011727 -0.073359
v -0.014287 -0.002595 -0.058430
v -0.010359 -0.006463 -0.058874
v -0.021945 -0.007913 -0.065364
v -0.020992 -0.002855 -0.064727
v -0.015545 -0.000622 -0.050220
v -0.017901 0.003926 -0.047878
v -0.026135 -0.000588 -0.054348
v -0.025278 0.004310 -0.052971
v -0.028041 0.004358 -0.042124
v -0.016481 0.004463 -0.038788
v -0.020315 0.010505 -0.036983
v -0.026803 0.010582 -0.041228
v -0.027651 0.010820 -0.028915
v -0.027368 0.005812 -0.029528
v -0.016124 0.006653 -0.029900
v -0.021051 0.011980 -0.026446
v -0.018451 0.008051 -0.018348
v -0.022659 0.004607 -0.017144
v -0.021223 0.001885 -0.018654
v -0.013959 0.007210 -0.019406
v -0.013574 0.004842 -0.007875
v -0.006818 0.004444 -0.010305
v -0.017107 -0.001786 -0.007320
vn 0.7326 0.1782 -0.6569
vn -0.6403 -0.0112 0.7681
vn -0.6456 0.0660 0.7608
vn -0.6440 0.0356 0.7642
vn -0.6470 0.1423 0.7491
vn -0.1394 -0.9680 -0.2089
vn -0.4173 -0.9037 -0.0963
vn 0.7593 0.2204 -0.6123
vn 0.6433 0.2983 -0.7051
vn 0.3492 0.9370 0.0037
vn 0.2632 0.9392 0.2204
vn -0.5913 0.0333 0.8058
vn -0.5912 0.0333 0.8058
vn -0.5902 -0.0373 0.8064
vn -0.3925 -0.9198 -0.0033
vn -0.3924 -0.9198 -0.0033
vn -0.3924 -0.9198 -0.0034
vn 0.6688 0.3267 -0.6678
vn 0.5927 0.3911 -0.7041
vn 0.3199 0.9162 0.2414
vn 0.3652 0.9255 0.1002
vn 0.3609 0.9272 0.1005
vn -0.5508 -0.1432 0.8223
vn -0.5515 -0.1419 0.8220
vn -0.5508 -0.1436 0.8222
vn -0.5519 -0.1412 0.8219
vn -0.4346 -0.8931 -0.1158
vn -0.4119 -0.9016 -0.1321
vn -0.4136 -0.9004 -0.1348
vn 0.6229 0.4166 -0.6621
vn 0.5639 0.4670 -0.6812
vn 0.3567 0.9288 0.1007
vn 0.3330 0.9104 0.2455
vn -0.5530 -0.1384 0.8216
vn -0.5350 -0.3466 0.7705
vn -0.4153 -0.8993 -0.1374
vn -0.3542 -0.9167 -0.1851
vn -0.4276 -0.8711 -0.2417
vn -0.4293 -0.8695 -0.2445
vn 0.6005 0.4873 -0.6340
vn 0.3957 0.6649 -0.6335
vn 0.5346 0.8291 0.1638
vn 0.5252 0.8456 0.0959
vn -0.4466 -0.6039 0.6602
vn -0.4558 -0.4982 0.7376
vn -0.4984 -0.8140 -0.2983
vn -0.3822 -0.8130 -0.4392
vn 0.5438 0.6697 -0.5058
vn 0.3888 0.7817 -0.4876
vn 0.4858 0.8729 0.0460
vn 0.4858 0.8728 0.0460
vn 0.5012 0.8601 0.0952
vn -0.3636 -0.7745 0.5176
vn -0.4613 -0.5817 0.6700
vn -0.4690 -0.5295 -0.7069
vn 0.0194 -0.2734 -0.9617
vn 0.5371 0.7653 -0.3548
vn 0.4553 0.8205 -0.3457
vn 0.4566 0.8196 -0.3460
vn 0.5935 0.7985 0.1001
vn 0.5335 0.8456 -0.0163
vn -0.3533 -0.7627 0.5417
vn -0.3439 -0.7868 0.5125
vn -0.5261 -0.2048 -0.8254
vn -0.2587 0.0904 -0.9617
vn 0.3816 0.8341 -0.3983
vn 0.4842 0.7632 -0.4279
vn 0.6356 0.7624 -0.1215
vn 0.6300 0.7717 -0.0878
vn 0.6110 0.7916 -0.0058
vn 0.6659 0.7418 -0.0794
vn -0.3890 -0.7345 0.5560
vn -0.3903 -0.7153 0.5797
vn -0.3853 0.0991 -0.9174
vn -0.3727 0.1100 -0.9214
vn 0.4325 0.7753 -0.4603
vn 0.3167 0.8587 -0.4030
vn 0.6023 0.7978 0.0271
vn 0.6857 0.7217 0.0947
vn 0.6861 0.7226 0.0839
vn 0.6858 0.7220 0.0921
vn -0.2845 -0.8152 0.5045
vn -0.2847 -0.8297 0.4801
vn -0.6469 0.1095 -0.7547
vn -0.4915 0.2584 -0.8316
vn 0.4615 0.8125 -0.3562
vn 0.6863 0.7228 0.0814
vn 0.8730 0.4516 0.1843
vn 0.3850 0.8749 -0.2938
vn 0.3700 0.8809 -0.2952
vn 0.3754 0.8788 -0.2947
vn -0.2262 -0.8829 0.4114
vn -0.2349 -0.8943 0.3808
vn -0.7985 0.2435 -0.5506
vn -0.7456 0.3111 -0.5893
vn 0.3616 0.8841 -0.2959
vn -0.1720 -0.9484 0.2662
vn 0.8450 0.5348 -0.0075
vn -0.1446 -0.9377 0.3158
vn 0.3823 0.8667 -0.3205
vn 0.8157 0.5784 -0.0066
vn 0.8140 0.5806 -0.0170
vn 0.8154 0.5789 -0.0077
vn -0.9007 0.2432 -0.3600
vn -0.9007 0.2432 -0.3599
vn -0.9071 0.2308 -0.3519
vn 0.3273 0.8895 -0.3190
vn -0.9603 0.2013 -0.1933
vn -0.9936 -0.0755 -0.0838
vn -0.0231 -0.9988 0.0443
vn -0.0231 -0.9987 0.0443
vn 0.8140 0.5805 -0.0183
vn 0.0634 -0.9819 0.1785
vn 0.0977 0.9940 -0.0497
vn 0.7054 0.7016 0.1008
vn -0.1734 0.9848 0.0138
vn -0.4066 0.7660 0.4979
vn -0.5105 0.6702 0.5387
vn -0.9707 -0.1260 0.2045
vn -0.8105 -0.5778 0.0961
vn 0.1239 -0.9002 -0.4175
vn 0.6032 -0.7961 -0.0493
vn 0.6688 0.7428 -0.0315
vn 0.1848 0.8751 0.4473
vn -0.5543 0.7118 0.4314
vn 0.0897 0.9460 0.3116
vn 0.1750 0.9593 0.2218
vn -0.8444 -0.5355 -0.0174
vn -0.7473 0.3540 0.5623
vn 0.5729 -0.7148 -0.4011
vn 0.4159 -0.7561 -0.5053
vn 0.1997 -0.1604 0.9666
vn 0.7225 0.2560 -0.6423
vn -0.1343 -0.9909 0.0044
vn -0.6252 0.0221 0.7801
vn 0.1991 0.9644 -0.1740
vn 0.5372 0.8101 -0.2350
vn 0.5497 0.7553 -0.3568
vn -0.2201 0.9642 0.1480
vn -0.2986 0.8547 0.4247
s 1
f 1//1 4//1 5//1
f 3//2 2//4 7//3
f 2//4 6//5 7//3
f 4//6 3//6 8//6
f 3//7 7//7 8//7
f 4//8 8//8 5//8
f 5//9 8//9 9//9
f 6//10 5//10 10//10
f 5//11 9//11 10//11
f 7//12 6//13 11//12
f 6//14 10//14 11//14
f 8//15 7//16 12//16
f 7//16 11//17 12//16
f 8//18 12//18 9//18
f 9//19 12//19 13//19
f 10//20 9//20 14//20
f 9//21 13//22 14//22
f 11//23 10//25 15//24
f 10//25 14//26 15//24
f 12//27 11//27 16//27
f 11//28 15//29 16//29
f 12//30 16//30 13//30
f 13//31 16//31 17//31
f 14//22 13//22 18//32
f 13//33 17//33 18//33
f 15//24 14//26 19//34
f 14//35 18//35 19//35
f 16//29 15//29 20//36
f 15//37 19//39 20//38
f 16//40 20//40 17//40
f 17//41 20//41 21//41
f 18//42 17//42 22//42
f 17//43 21//43 22//43
f 18//44 22//44 23//44
f 19//45 18//45 23//45
f 20//38 19//39 24//46
f 19//47 23//47 24//47
f 20//48 24//48 21//48
f 21//49 24//49 25//49
f 21//50 25//51 26//51
f 22//52 21//52 26//52
f 22//53 26//53 27//53
f 23//54 22//54 27//54
f 24//55 23//55 28//55
f 23//56 27//56 28//56
f 24//57 28//57 25//57
f 25//58 28//59 29//58
f 25//60 29//60 30//60
f 26//61 25//61 30//61
f 26//62 30//62 31//62
f 27//63 26//63 31//63
f 28//64 27//64 32//64
f 27//65 31//65 32//65
f 28//66 32//66 29//66
f 29//67 32//67 33//67
f 29//68 33//70 34//69
f 30//71 29//71 34//71
f 31//72 30//72 35//72
f 30//73 34//73 35//73
f 32//74 31//74 36//74
f 31//75 35//75 36//75
f 32//76 36//76 33//76
f 33//77 36//77 37//77
f 34//69 33//70 38//78
f 33//79 37//81 38//80
f 35//82 34//82 39//82
f 34//83 38//83 39//83
f 36//84 35//84 40//84
f 35//85 39//85 40//85
f 36//86 40//86 37//86
f 38//80 37//81 41//87
f 37//88 42//88 41//88
f 37//89 40//91 42//90
f 39//92 38//92 43//92
f 38//93 41//93 43//93
f 40//94 39//94 44//94
f 39//95 43//95 44//95
f 40//91 44//96 42//90
f 43//97 41//97 45//97
f 41//98 42//98 46//98
f 41//99 46//99 45//99
f 42//100 44//100 47//100
f 42//101 47//103 46//102
f 44//104 43//105 48//105
f 43//106 45//106 48//106
f 44//107 48//107 47//107
f 48//108 45//108 49//108
f 45//109 50//109 49//109
f 45//110 46//111 50//111
f 46//102 47//103 51//112
f 46//113 51//113 50//113
f 47//114 48//114 52//114
f 47//115 52//115 51//115
f 48//116 49//116 52//116
f 52//117 49//117 53//117
f 49//118 54//118 53//118
f 49//119 50//119 54//119
f 55//120 54//120 50//120
f 50//121 51//121 55//121
f 51//122 56//122 55//122
f 51//123 52//123 56//123
f 52//124 53//124 56//124
f 53//125 54//125 57//125
f 53//126 57//126 58//126
f 56//127 53//127 58//127
f 54//128 55//128 59//128
f 54//129 59//129 57//129
f 55//130 56//130 59//130
f 56//131 58//131 59//131
f 59//132 58//132 57//132
f 1//133 2//136 3//135 4//134
f 6//137 2//140 1//139 5//138
