# Blender v2.91.0 OBJ File: 'Rib3R_modify.blend'
# www.blender.org
mtllib Rib3R.mtl
o Original_Rib3L_Rib%20Cage%20For%20Blender.006
v 0.01522857269 -0.03609025893 0.1021187946
v 0.0138049092 -0.04339517148 0.1052849274
v 0.02849428001 -0.05019107344 0.1096437953
v 0.001304377205 -0.02885258963 0.09555319523
v 0.00664247814 -0.02886186164 0.09329307365
v 0.01964272287 -0.0358904695 0.09959805489
v 0.02930510653 -0.04347994824 0.1066309521
v 0.02451171925 -0.05246857086 0.1045651131
v 0.0001156987585 -0.03494638517 0.09844792943
v 0.04071973842 -0.0611939706 0.1028722462
v 0.04566016487 -0.06269259497 0.1115707952
v -0.006074057239 -0.02117965168 0.0852183743
v -0.01123373509 -0.02019018641 0.08592194831
v 0.004714335065 -0.03139395179 0.09133538675
v -0.006982969595 -0.02253369691 0.08359676864
v 0.01727155463 -0.03824533953 0.09667899474
v 0.03313827397 -0.0429882321 0.1026746618
v 0.04652790299 -0.05466386926 0.108607823
v 0.02468625154 -0.05332089218 0.1035111154
v 0.04025597324 -0.05596951873 0.1011056086
v -0.01307597044 -0.02668816628 0.08899162041
v 0.05690846607 -0.06212481415 0.09925247753
v 0.05597400037 -0.06559240595 0.09879230396
v 0.06184081873 -0.07216570348 0.107413374
v -0.01614749464 -0.01414005426 0.07318671986
v -0.01559003559 -0.01218613438 0.07517030419
v -0.02070447347 -0.01172364488 0.07366932273
v -0.002843416314 -0.0385058465 0.0952727919
v -0.01469592117 -0.0301156429 0.08753008045
v -0.02481822953 -0.02151614417 0.07756333895
v 0.03116163889 -0.04242446955 0.09910522247
v 0.04942426825 -0.05330931598 0.1037081171
v 0.06286208448 -0.06416584809 0.1054914664
v 0.04748393668 -0.05211943372 0.1013082483
v 0.06278231311 -0.06064047708 0.09933295496
v -0.02278419847 -0.01677310996 0.0777946986
v 0.07710937683 -0.06699696659 0.09272611252
v 0.07274062451 -0.06935328135 0.09213291945
v 0.07065523279 -0.07239377132 0.09095089514
v 0.0763582542 -0.07821062659 0.09926679137
v -0.02313025914 -0.007629227417 0.06100691777
v -0.03248262136 -0.01226686106 0.0655248987
v -0.0230048645 -0.005070344515 0.06301044027
v -0.02857074831 -0.003310609757 0.061428755
v -0.02594113381 -0.01901449143 0.07624457265
v -0.03329694091 -0.01074809564 0.06273792667
v 0.06532271271 -0.06191788258 0.1018145481
v 0.07757768596 -0.07084524726 0.09788580215
v 0.07931050376 -0.0680206843 0.09462024153
v -0.03134922028 -0.00857292585 0.06551710454
v 0.09728780016 -0.07830609543 0.08208319921
v 0.09458287051 -0.07682529671 0.08229789526
v 0.08892978571 -0.07917630155 0.08180516764
v 0.08758188667 -0.08165873928 0.08076733619
v 0.09573365279 -0.08787074921 0.08588086892
v -0.03172344723 -0.005314169126 0.05014204557
v -0.02635891274 -0.002928203729 0.04637247046
v -0.03488488422 -0.003884340641 0.04656624205
v -0.02609985658 0.00138675339 0.04868278915
v -0.03033173269 0.003600285346 0.04643077211
v -0.03375933005 -0.00129059274 0.04980166869
v 0.09713350332 -0.08041263794 0.08506253604
v 0.1096818552 -0.08587006439 0.06645050036
v 0.1095709229 -0.0868689439 0.06783172437
v 0.1064356364 -0.08434473254 0.06622062419
v 0.1009465532 -0.08486142838 0.06817213751
v 0.099776574 -0.08677174743 0.06722699649
v 0.1092874875 -0.09638199842 0.06983091842
v -0.02769444566 -0.002810216474 0.03422237002
v -0.03151096745 0.004238572365 0.0313989205
v -0.02327591314 0.0004001318695 0.03149512791
v -0.03104927258 0.004421949013 0.03338369676
v -0.02412240664 0.006596316191 0.03342775411
v -0.02821463542 0.007564156263 0.03186718846
v 0.1167710502 -0.09008410348 0.04893084689
v 0.117549718 -0.09880354776 0.05102977455
v 0.1130113912 -0.08727157128 0.04796791741
v 0.1112753095 -0.08673800596 0.04836091475
v 0.1144693291 -0.09983458042 0.0481570133
v -0.02101174506 -0.005204670718 0.01881564757
v -0.02580412693 -0.002712346096 0.02073428241
v -0.0236584621 0.002584274214 0.02165339246
v -0.01662195154 -0.002098337866 0.0176098048
v -0.02148849446 0.004531447378 0.02223132593
v -0.01784129284 0.004585655007 0.01919947373
v -0.01820445879 -0.008005919985 0.005821379992
v -0.0129271299 -0.01112696017 0.005327012495
v -0.01569010335 -0.002861032223 0.007310303311
v -0.0143366841 -0.001277362191 0.008245181565
v -0.005772212886 -0.006566478491 0.008678834875
v -0.009891103017 -0.001156159318 0.00707598356
vn -0.0534 0.4413 0.8958
vn -0.0609 0.4345 0.8986
vn -0.0613 0.4343 0.8987
vn -0.1801 0.4382 0.8806
vn 0.1748 0.8751 0.4512
vn 0.1956 0.8804 0.4320
vn 0.2298 0.8468 0.4796
vn -0.0536 0.4412 0.8958
vn -0.3932 -0.6142 0.6843
vn -0.1464 0.4673 0.8719
vn -0.5241 -0.8118 0.2574
vn 0.1986 0.4275 0.8819
vn -0.2503 -0.7344 0.6309
vn 0.1717 0.8788 0.4452
vn -0.3088 0.4625 0.8311
vn 0.1920 0.8819 0.4305
vn 0.4626 0.2406 -0.8533
vn 0.5834 0.3866 -0.7143
vn 0.5626 0.1470 -0.8135
vn 0.3572 0.4983 -0.7900
vn 0.3034 0.8703 0.3879
vn 0.4645 0.4012 -0.7895
vn 0.4004 0.7927 0.4596
vn 0.1346 0.3728 0.9181
vn -0.1657 -0.4083 0.8977
vn -0.1301 -0.2152 0.9679
vn -0.3420 0.0210 0.9395
vn -0.3040 0.1027 0.9471
vn 0.0975 -0.6658 -0.7397
vn 0.0510 -0.7584 0.6498
vn -0.2953 -0.3789 -0.8771
vn -0.2849 0.4827 0.8281
vn -0.2668 0.1348 -0.9543
vn -0.2482 -0.3762 -0.8927
vn -0.2112 -0.9767 0.0380
vn -0.4911 -0.8490 -0.1950
vn 0.4148 0.3376 0.8450
vn 0.7607 0.3235 -0.5628
vn 0.7607 0.3239 -0.5625
vn 0.1977 0.8542 0.4808
vn 0.7562 0.1897 -0.6263
vn -0.4942 0.4714 0.7304
vn -0.1336 0.7864 0.6031
vn 0.0588 -0.5592 -0.8270
vn 0.1180 -0.5941 -0.7957
vn 0.1199 -0.5727 -0.8110
vn 0.2231 -0.6261 -0.7472
vn 0.2127 -0.6753 -0.7062
vn 0.2213 0.9737 -0.0549
vn 0.4670 0.8564 -0.2203
vn 0.4198 0.8015 0.4258
vn 0.4803 0.7566 0.4437
vn 0.3237 0.2404 0.9151
vn -0.0985 -0.3730 -0.9226
vn -0.1736 0.2085 -0.9625
vn -0.1012 0.1595 -0.9820
vn -0.1097 0.1045 -0.9885
vn -0.5340 0.2308 0.8134
vn -0.5410 0.2158 0.8129
vn -0.7880 -0.3397 0.5135
vn -0.1712 0.6761 0.7166
vn -0.2113 0.5195 -0.8280
vn -0.3819 0.1543 -0.9112
vn -0.2332 0.4592 -0.8571
vn -0.4741 -0.8545 -0.2123
vn -0.3042 0.4378 -0.8461
vn -0.4413 -0.8755 -0.1967
vn 0.5595 0.1990 0.8046
vn 0.8542 0.2169 -0.4726
vn 0.1842 -0.8373 -0.5148
vn 0.2528 -0.6946 -0.6736
vn -0.1126 0.8480 0.5179
vn 0.8428 0.3057 -0.4429
vn 0.0927 0.8772 0.4710
vn -0.3249 0.6757 0.6617
vn -0.3184 0.6792 0.6613
vn -0.3268 0.6747 0.6618
vn -0.7234 -0.4444 0.5284
vn -0.3546 0.3768 0.8557
vn -0.7161 -0.5362 0.4468
vn -0.3709 0.2498 0.8945
vn -0.6174 0.0847 0.7821
vn -0.6175 0.0845 0.7820
vn -0.6175 0.0846 0.7820
vn -0.8695 -0.2649 0.4169
vn 0.4783 0.8471 0.2317
vn 0.4480 0.8931 -0.0396
vn 0.4194 0.9078 -0.0072
vn 0.4062 0.6739 0.6171
vn 0.5644 0.5402 0.6242
vn 0.5248 0.1455 0.8387
vn 0.4169 0.9039 -0.0963
vn 0.3469 0.9372 -0.0361
vn 0.3543 0.9351 -0.0107
vn -0.6022 0.3698 0.7075
vn -0.3168 0.6800 0.6612
vn 0.3969 0.9108 -0.1134
vn -0.2624 0.5020 -0.8241
vn 0.4140 0.9068 -0.0794
vn -0.2482 0.5293 -0.8113
vn -0.3153 0.4425 -0.8395
vn -0.5066 -0.8523 -0.1300
vn -0.3186 0.4359 -0.8417
vn -0.4783 -0.8711 -0.1111
vn 0.6221 0.1224 0.7733
vn 0.2217 -0.9225 -0.3161
vn 0.2925 -0.8803 -0.3736
vn 0.9579 0.1564 -0.2408
vn 0.0927 -0.9192 -0.3828
vn -0.4612 -0.8538 -0.2416
vn 0.1378 0.9332 0.3319
vn 0.9636 0.1037 -0.2465
vn -0.6903 0.6092 0.3904
vn -0.6899 0.6095 0.3905
vn 0.2200 0.9160 0.3353
vn -0.8248 0.0553 0.5627
vn -0.9649 0.1365 0.2242
vn -0.8773 0.3330 0.3456
vn 0.5586 0.5197 0.6464
vn 0.6363 0.4543 0.6235
vn 0.5874 0.0560 0.8074
vn 0.6396 0.6560 0.4008
vn -0.6121 0.6686 0.4222
vn 0.4112 0.9060 -0.1002
vn 0.7747 0.5320 0.3419
vn 0.7681 0.5514 0.3256
vn -0.3568 0.7371 -0.5739
vn 0.3592 0.9203 -0.1548
vn -0.3571 0.7367 -0.5742
vn -0.5705 0.4915 -0.6580
vn -0.5703 0.4918 -0.6579
vn -0.5704 0.4915 -0.6580
vn -0.4794 -0.8708 -0.1088
vn -0.5390 0.5487 -0.6391
vn 0.7811 0.0070 0.6243
vn -0.6296 -0.7663 -0.1285
vn 0.4365 -0.8987 -0.0419
vn 0.1464 -0.8919 -0.4278
vn -0.7645 -0.6042 -0.2247
vn 0.6099 -0.7891 -0.0739
vn 0.9899 -0.0763 0.1197
vn -0.9386 0.3440 0.0282
vn -0.8330 0.5300 0.1584
vn 0.2403 0.9237 0.2985
vn 0.9824 0.1575 0.1000
vn 0.0675 0.9684 0.2401
vn -0.8393 0.5392 0.0701
vn -0.7448 0.6518 0.1427
vn 0.8432 0.1682 0.5106
vn 0.1977 0.9802 -0.0103
vn 0.8624 0.4815 0.1564
vn -0.1302 -0.4313 -0.8928
vn 0.0566 0.9918 -0.1143
vn 0.8967 0.3758 0.2338
vn 0.9333 0.2360 0.2706
vn 0.9300 0.1317 0.3431
vn -0.2444 0.9408 -0.2348
vn -0.7354 0.5534 -0.3911
vn 0.2437 0.9696 0.0238
vn -0.6530 -0.7574 0.0058
vn -0.8470 -0.2702 -0.4577
vn 0.2248 -0.9511 0.2118
vn 0.7474 -0.5494 0.3737
vn -0.8189 -0.5708 -0.0604
vn -0.4246 -0.9052 -0.0203
vn -0.0012 0.9897 -0.1435
vn -0.7422 0.3158 -0.5911
vn 0.6662 -0.6302 0.3987
vn 0.9210 0.0641 0.3842
vn -0.7664 0.2792 -0.5785
vn -0.6005 0.6683 -0.4390
vn 0.9282 0.1491 0.3410
vn 0.1710 0.9825 -0.0740
vn -0.5374 0.6489 -0.5387
vn -0.5378 0.6485 -0.5387
vn 0.4999 0.0534 -0.8644
vn -0.0697 0.0490 -0.9964
vn 0.1662 0.2300 -0.9589
vn 0.1924 0.0635 -0.9793
vn 0.1896 -0.1405 -0.9717
vn -0.4362 -0.8902 0.1313
vn 0.6363 -0.5117 0.5773
vn -0.3572 -0.9215 0.1527
vn -0.7860 0.3229 -0.5272
vn -0.7522 0.4245 -0.5040
vn -0.5556 0.6415 -0.5289
vn -0.5411 0.6578 -0.5239
vn 0.6592 -0.0050 0.7519
vn 0.2802 -0.7242 0.6302
vn -0.5953 0.5247 -0.6085
vn -0.2242 0.8596 -0.4591
vn 0.7152 0.6860 0.1336
vn -0.0551 0.1360 -0.9892
vn -0.2085 0.2940 -0.9328
vn 0.3525 0.0327 -0.9353
vn -0.2963 0.5833 -0.7562
vn -0.0452 -0.5514 -0.8330
vn -0.1358 -0.3315 -0.9336
usemtl None.004
s 1
f 1//1 2//2 3//3
f 4//4 2//4 1//4
f 5//5 4//5 1//5
f 5//6 1//6 6//6
f 6//7 1//7 7//7
f 1//1 3//3 7//8
f 2//9 8//9 3//9
f 4//10 9//10 2//10
f 3//11 10//11 11//11
f 7//12 3//12 11//12
f 3//13 8//13 10//13
f 12//14 4//14 5//14
f 13//15 9//15 4//15
f 12//16 13//16 4//16
f 14//17 5//17 6//17
f 15//18 12//18 5//18
f 15//19 5//19 14//19
f 16//20 6//20 17//20
f 6//21 7//21 17//21
f 14//22 6//22 16//22
f 17//23 7//23 18//23
f 7//24 11//24 18//24
f 19//25 8//26 2//27 9//28 28//29
f 8//30 19//30 20//30
f 8//31 20//31 10//31
f 13//32 21//32 9//32
f 10//33 22//33 23//33
f 10//34 20//34 22//34
f 11//35 10//35 23//35
f 11//36 23//36 24//36
f 18//37 11//37 24//37
f 25//38 26//39 12//38
f 26//40 13//40 12//40
f 25//41 12//41 15//41
f 27//42 21//42 13//42
f 26//43 27//43 13//43
f 28//44 14//44 16//44
f 29//45 14//45 28//45
f 29//46 15//46 14//46
f 30//47 15//47 29//47
f 30//48 25//48 15//48
f 16//49 17//49 31//49
f 31//50 17//50 32//50
f 17//51 18//51 32//51
f 32//52 18//52 33//52
f 18//53 24//53 33//53
f 19//54 31//54 34//54
f 19//55 34//55 20//55
f 20//56 35//56 22//56
f 20//57 34//57 35//57
f 36//58 45//59 29//59 21//60
f 27//61 36//61 21//61
f 22//62 35//62 37//62
f 23//63 22//63 38//63
f 22//64 37//64 38//64
f 24//65 23//65 39//65
f 23//66 38//66 39//66
f 24//67 39//67 40//67
f 33//68 24//68 40//68
f 41//69 26//69 25//69
f 42//70 41//70 25//70
f 42//71 25//71 30//71
f 43//72 27//72 26//72
f 41//73 43//73 26//73
f 43//74 44//74 27//74
f 44//75 36//76 27//77
f 28//78 9//79 21//80 29//81
f 45//82 30//83 29//84
f 46//85 30//85 45//85
f 46//86 42//86 30//86
f 31//87 32//87 34//87
f 34//88 32//88 47//88
f 32//89 33//89 47//89
f 47//90 33//90 48//90
f 33//91 40//91 48//91
f 34//92 47//92 35//92
f 35//93 49//93 37//93
f 35//94 47//94 49//94
f 50//95 45//95 36//95
f 44//75 50//96 36//76
f 37//97 49//97 51//97
f 38//98 37//98 52//98
f 37//99 51//99 52//99
f 38//100 52//100 53//100
f 39//101 38//101 53//101
f 40//102 39//102 54//102
f 39//103 53//103 54//103
f 40//104 54//104 55//104
f 48//105 40//105 55//105
f 56//106 57//106 41//106
f 56//107 41//107 42//107
f 57//108 43//108 41//108
f 58//109 56//109 42//109
f 58//110 42//110 46//110
f 59//111 44//111 43//111
f 57//112 59//112 43//112
f 60//113 50//114 44//114
f 59//115 60//115 44//115
f 50//116 46//116 45//116
f 61//117 58//117 46//117
f 61//118 46//118 50//118
f 47//119 48//119 49//119
f 49//120 48//120 62//120
f 48//121 55//121 62//121
f 49//122 62//122 51//122
f 60//123 61//123 50//123
f 52//124 51//124 63//124
f 51//125 64//125 63//125
f 51//126 62//126 64//126
f 53//127 52//127 65//127
f 52//128 63//128 65//128
f 53//129 65//129 66//129
f 54//130 53//131 66//132
f 55//133 54//133 67//133
f 54//134 66//134 67//134
f 62//135 55//135 68//135
f 55//136 67//136 68//136
f 69//137 57//137 56//137
f 70//138 56//138 58//138
f 70//139 69//139 56//139
f 69//140 71//140 57//140
f 71//141 59//141 57//141
f 72//142 58//142 61//142
f 72//143 70//143 58//143
f 73//144 60//144 59//144
f 71//145 73//145 59//145
f 73//146 74//146 60//146
f 74//147 61//147 60//147
f 74//148 72//148 61//148
f 62//149 68//149 64//149
f 65//150 63//151 75//152 77//153
f 63//154 64//154 75//154
f 64//155 76//155 75//155
f 64//156 68//156 76//156
f 66//157 65//157 77//157
f 67//158 66//158 78//158
f 66//159 77//159 78//159
f 68//160 67//160 79//160
f 67//161 78//161 79//161
f 68//162 79//162 76//162
f 80//163 71//163 69//163
f 81//164 69//164 70//164
f 81//165 80//165 69//165
f 82//166 70//166 72//166
f 82//167 81//167 70//167
f 80//168 83//168 71//168
f 83//169 73//169 71//169
f 84//170 72//170 74//170
f 84//171 82//171 72//171
f 83//172 85//172 73//172
f 85//173 74//173 73//173
f 85//174 84//174 74//175
f 76//176 79//177 78//178 77//179 75//180
f 86//181 87//181 80//181
f 87//182 83//182 80//182
f 86//183 80//183 81//183
f 88//184 81//184 82//184
f 88//185 86//185 81//185
f 89//186 82//186 84//186
f 89//187 88//187 82//187
f 90//188 85//188 83//188
f 87//189 90//189 83//189
f 91//190 84//190 85//190
f 91//191 89//191 84//191
f 90//192 91//192 85//192
f 91//193 87//193 86//193
f 91//194 86//194 88//194
f 91//195 90//195 87//195
f 91//196 88//196 89//196
f 16//197 31//198 19//25 28//29
