# Blender v2.91.0 OBJ File: 'Rib4R_modify.blend'
# www.blender.org
mtllib Rib4R.mtl
o Original_RIb4L_Rib%20Cage%20For%20Blender.007
v 0.05843077319 -0.06025209775 0.1226293576
v 0.07261124918 -0.07722391555 0.1202643795
v 0.07461083917 -0.07038222159 0.116971111
v 0.04166878354 -0.0491778934 0.1225775311
v 0.05697234632 -0.067528401 0.1244918978
v 0.04003320466 -0.04647841096 0.1200258151
v 0.05671370995 -0.05757346783 0.1193212865
v 0.08804650525 -0.091863289 0.1131960428
v 0.08987706405 -0.08743336049 0.114918423
v 0.07012279816 -0.07978084766 0.1177169816
v 0.07301070775 -0.0672672375 0.1144071125
v 0.0913819958 -0.07988914592 0.1110367112
v 0.03883375989 -0.05625317338 0.1240210583
v 0.0220028871 -0.03632967624 0.1126066031
v 0.02096574262 -0.03967506335 0.1175282845
v 0.05309755135 -0.07021699628 0.1213150564
v 0.04200506756 -0.0479022583 0.1163989363
v 0.02457291389 -0.03825579831 0.110155127
v 0.05768496312 -0.05767523036 0.1166005881
v 0.1043587705 -0.100865573 0.1017272292
v 0.08809790812 -0.07686747545 0.1081536288
v 0.1043160422 -0.0892137051 0.09992671873
v 0.1060925265 -0.09931822165 0.1044838435
v 0.071357757 -0.0671729897 0.1144049906
v 0.07318321075 -0.06702937699 0.1116274015
v 0.08928145503 -0.07723292903 0.1081000486
v 0.1073425967 -0.09121782299 0.1006749158
v 0.0335466486 -0.05712141017 0.1187939711
v 0.01868731291 -0.04510336143 0.1160014811
v 0.009039283101 -0.0310956617 0.1033816066
v 0.005881791062 -0.02816901135 0.1058960618
v 0.007413377957 -0.03135634671 0.1080497112
v 0.05556392909 -0.05939800072 0.1160321607
v 0.02145495861 -0.04447135768 0.1115946569
v 0.04009889272 -0.0523983231 0.1169369064
v 0.00546786533 -0.03975518423 0.1074454247
v 0.1192522221 -0.101476879 0.08759029341
v 0.1202085907 -0.1097714353 0.08716901333
v 0.08899014072 -0.07659856537 0.1061714652
v 0.1055982426 -0.08779361738 0.09836665839
v 0.1222969873 -0.1106368944 0.08779322368
v 0.1056909848 -0.08878667928 0.09859281577
v 0.1240673277 -0.1018612106 0.08628510462
v 0.01702802541 -0.04806189812 0.1135761685
v 0.004837488541 -0.03749397368 0.1091606518
v -0.00703121318 -0.03141557302 0.09826838792
v -0.004426262281 -0.02425300873 0.0953776975
v -0.00755582871 -0.0204076513 0.09666901446
v -0.005832512859 -0.02290998531 0.09928663594
v 0.002498916133 -0.03952005853 0.1082487763
v -0.01108629051 -0.03110221231 0.09909511063
v 0.1351155696 -0.1101466419 0.06353628233
v 0.137539552 -0.1185695978 0.06381316481
v 0.122727929 -0.09845676441 0.08402183471
v 0.1403824143 -0.1179072391 0.06708443153
v 0.1407028508 -0.1072306795 0.06390110293
v -0.009359691324 -0.02990120515 0.1002752772
v -0.01837225214 -0.02292432458 0.08783661802
v -0.02273369153 -0.02218234664 0.08682179189
v -0.01448737013 -0.01499847912 0.08432468485
v -0.01854422691 -0.01272066298 0.08413692903
v -0.01794992455 -0.0157487677 0.08748734283
v -0.02072776763 -0.02159114975 0.08792633584
v -0.02642498734 -0.01397086183 0.07476261306
v -0.02991841861 -0.01322199959 0.07413979735
v -0.02396062845 -0.007986889041 0.07056094637
v -0.02758197971 -0.003639609773 0.0697787689
v -0.0284272027 -0.007160722633 0.07392232083
v -0.0286307961 -0.006066183245 0.05797687771
v -0.03203623353 -0.007651959173 0.05415526083
v -0.03247194208 -0.003678524552 0.0568236231
v -0.02751231733 -0.001071408467 0.05454062278
v -0.029955581 0.003539918484 0.05409300685
v -0.02569148466 -0.003678530377 0.03995302864
v -0.02997651593 0.0023385465 0.03893931227
v -0.03073446725 -0.002507569625 0.03902494889
v -0.02579483133 0.005460307917 0.03858351239
v -0.02259596275 0.0008343600217 0.03736149821
v -0.019141301 -0.007016167215 0.02511757739
v -0.01768415394 -0.006666846679 0.02407070555
v -0.02022937307 0.004042169825 0.02705010892
v -0.02205718705 0.002365378614 0.0271625032
v -0.02235368525 -0.003081858247 0.02538247785
v -0.01453256481 -0.003647476155 0.02283289284
v -0.01442463211 -0.008883859127 0.009118340511
v -0.01120931379 -0.0128128285 0.008776536227
v -0.008870387781 -0.01123223971 0.009296555786
v -0.009518225432 -0.0006052781454 0.01218863853
v -0.005791422041 -0.006771625276 0.009497202288
v -0.01469035253 -0.004623096579 0.01131415918
vn 0.4535 0.3097 0.8357
vn 0.1388 0.2303 0.9632
vn 0.4279 0.7771 0.4615
vn 0.4655 0.8158 0.3431
vn 0.3519 0.1955 0.9154
vn 0.5174 0.8013 0.3002
vn 0.1084 -0.3761 0.9202
vn -0.1329 -0.6030 0.7866
vn 0.4216 0.3216 0.8478
vn -0.1007 -0.6212 0.7771
vn 0.5019 0.7256 0.4708
vn 0.4582 0.3662 0.8099
vn 0.4975 0.7260 0.4747
vn 0.0815 0.1749 0.9812
vn 0.0735 0.7286 0.6810
vn 0.1596 0.8009 0.5771
vn -0.1262 0.2336 0.9641
vn -0.1215 -0.6374 0.7609
vn -0.2668 -0.5152 0.8145
vn 0.4776 0.8779 -0.0347
vn 0.4228 0.9032 -0.0736
vn 0.4453 0.8869 -0.1234
vn 0.4688 0.8698 0.1537
vn 0.4487 0.8816 0.1468
vn 0.3818 -0.4266 0.8199
vn -0.5744 -0.3061 -0.7592
vn -0.5742 -0.3066 -0.7591
vn -0.6157 -0.1757 -0.7681
vn -0.4009 -0.3239 -0.8569
vn -0.1292 -0.8058 0.5780
vn 0.6337 0.2992 0.7133
vn -0.4346 -0.2256 -0.8719
vn -0.3111 -0.2388 -0.9199
vn 0.4761 0.8741 0.0967
vn 0.5138 0.8139 0.2711
vn 0.4652 0.8799 0.0968
vn 0.5892 0.7826 0.2010
vn 0.5868 0.7874 0.1887
vn 0.5972 0.7573 0.2641
vn 0.6324 0.2974 0.7153
vn -0.4287 -0.6643 0.6123
vn -0.4906 -0.5765 0.6534
vn -0.3836 -0.1195 0.9157
vn 0.3951 0.8996 -0.1859
vn 0.4466 0.8474 -0.2871
vn 0.1037 0.8106 0.5764
vn -0.3612 0.3765 0.8531
vn -0.5539 -0.0417 0.8315
vn -0.2561 -0.3933 -0.8830
vn -0.1347 -0.4167 -0.8990
vn 0.1916 -0.1790 -0.9650
vn 0.1782 -0.2861 -0.9415
vn -0.0572 -0.1022 -0.9931
vn 0.1657 -0.2820 -0.9450
vn 0.1855 -0.4569 -0.8700
vn -0.1576 0.2662 -0.9509
vn -0.1136 0.3760 -0.9196
vn -0.3884 -0.7926 -0.4700
vn 0.0175 0.2534 -0.9672
vn -0.6882 -0.1607 -0.7075
vn -0.6931 -0.1176 -0.7112
vn -0.6949 -0.1026 -0.7117
vn 0.0591 -0.8636 0.5006
vn -0.6864 -0.1729 -0.7064
vn -0.5781 -0.7289 -0.3667
vn -0.5831 -0.3358 -0.7398
vn -0.5141 -0.7588 -0.3999
vn -0.5042 -0.7892 -0.3506
vn -0.5033 -0.7916 -0.3465
vn -0.3416 -0.9193 0.1953
vn 0.7556 0.2407 0.6092
vn -0.3754 -0.8669 -0.3279
vn -0.5148 -0.7565 -0.4033
vn 0.4849 0.8569 0.1748
vn 0.5613 0.8146 0.1463
vn 0.5995 0.7499 0.2797
vn 0.6140 0.7450 0.2608
vn 0.6625 0.0557 0.7470
vn 0.0726 -0.4202 -0.9045
vn -0.4153 -0.4294 0.8019
vn -0.1414 -0.1979 -0.9700
vn -0.3003 0.2612 0.9174
vn -0.5113 -0.3659 0.7776
vn 0.2998 -0.4728 -0.8286
vn 0.3024 -0.4190 -0.8562
vn 0.4736 0.8448 -0.2491
vn -0.3664 0.3726 0.8526
vn -0.3662 0.3730 0.8525
vn 0.5797 0.7104 -0.3991
vn -0.0445 0.7229 0.6896
vn -0.3867 0.2811 0.8783
vn -0.3878 0.2800 0.8782
vn -0.3863 0.2814 0.8784
vn 0.0498 -0.4992 -0.8650
vn -0.0991 -0.9239 -0.3696
vn 0.0586 -0.5060 -0.8606
vn -0.1327 -0.8647 -0.4845
vn -0.1072 -0.8458 -0.5226
vn -0.8440 -0.1437 -0.5167
vn -0.8038 -0.3234 -0.4993
vn -0.3133 -0.9479 0.0573
vn 0.5300 0.2806 0.8002
vn -0.0670 0.9016 -0.4273
vn 0.1704 -0.9282 0.3308
vn -0.4573 0.7779 -0.4309
vn -0.2559 -0.9652 0.0545
vn -0.1118 -0.9757 0.1884
vn 0.4387 0.7549 0.4876
vn 0.6930 0.2801 0.6643
vn 0.0066 -0.9641 0.2655
vn 0.7582 0.0289 0.6514
vn 0.6528 0.6249 0.4281
vn 0.6815 0.6165 0.3943
vn 0.8045 0.2150 0.5536
vn -0.3329 -0.0456 0.9418
vn -0.4629 0.1055 0.8801
vn -0.3882 0.2796 0.8782
vn 0.4120 -0.4272 -0.8048
vn -0.0957 -0.8763 -0.4721
vn 0.0751 -0.7602 -0.6454
vn 0.3975 -0.4873 -0.7775
vn 0.6842 0.7147 -0.1453
vn 0.4071 0.9076 0.1026
vn -0.5929 0.3157 0.7408
vn -0.5931 0.3154 0.7408
vn -0.2918 0.6737 0.6789
vn -0.5418 0.3258 0.7748
vn -0.5441 -0.0549 0.8372
vn -0.6489 0.1504 0.7459
vn -0.5455 0.3161 0.7762
vn 0.1765 -0.0638 -0.9822
vn 0.4789 0.0222 -0.8776
vn 0.6493 0.0611 -0.7581
vn 0.6889 -0.1306 -0.7130
vn -0.5872 0.2779 0.7602
vn 0.5294 -0.4980 -0.6868
vn -0.0228 -0.8507 -0.5252
vn 0.0559 -0.8155 -0.5761
vn -0.5560 0.4794 0.6790
vn 0.4940 -0.5879 -0.6406
vn 0.4070 0.9076 0.1033
vn -0.4324 0.6117 0.6624
vn 0.7138 0.6929 -0.1020
vn -0.6378 0.2929 0.7124
vn -0.2262 0.7498 0.6218
vn -0.7554 0.1410 0.6399
vn 0.7843 -0.4937 -0.3757
vn 0.7465 -0.5395 -0.3895
vn -0.0808 -0.9654 -0.2478
vn -0.9453 0.1569 0.2859
vn -0.9686 -0.2357 0.0796
vn 0.6959 0.7110 0.1006
vn 0.8472 -0.3654 -0.3856
vn -0.7279 0.5573 0.3996
vn 0.8339 0.5476 0.0692
vn -0.8924 0.3337 0.3038
vn 0.5352 -0.8431 -0.0517
vn 0.9913 -0.0347 0.1268
vn -0.9872 -0.0991 -0.1252
vn -0.9976 0.0671 -0.0153
vn -0.0794 -0.9411 -0.3286
vn -0.6411 0.7414 0.1981
vn -0.9651 0.1616 -0.2060
vn 0.7943 0.5408 0.2768
vn 0.8989 -0.4011 0.1767
vn 0.7810 0.5640 0.2682
vn -0.1569 -0.9812 0.1119
vn 0.5413 -0.7521 0.3760
vn 0.5418 -0.7517 0.3761
vn 0.8600 -0.2232 0.4589
vn -0.6893 0.5984 -0.4084
vn -0.6439 0.6769 -0.3567
vn -0.8408 0.0467 -0.5393
vn -0.6733 -0.6182 -0.4056
vn -0.8527 0.1413 -0.5030
vn 0.7999 0.4971 0.3363
vn 0.7789 0.5555 0.2912
vn 0.7348 -0.4348 0.5206
vn -0.7168 -0.6825 -0.1427
vn -0.7169 -0.6824 -0.1427
vn -0.7162 -0.6832 -0.1425
vn 0.5908 -0.6418 0.4889
vn -0.7161 -0.6833 -0.1424
vn 0.4872 -0.7320 0.4763
vn 0.7280 -0.4207 0.5413
vn -0.6243 0.5259 -0.5776
vn 0.8003 0.3451 0.4903
vn 0.7907 0.4275 0.4382
vn -0.5325 0.6681 -0.5197
vn -0.8732 0.1282 -0.4702
vn -0.8737 0.1242 -0.4703
vn -0.8729 0.1300 -0.4703
vn -0.8740 0.1221 -0.4704
vn 0.7225 -0.4283 0.5427
vn -0.0076 0.1031 -0.9946
vn -0.1267 0.4454 -0.8863
vn 0.3330 -0.1593 -0.9294
vn 0.3329 -0.1594 -0.9294
vn 0.3328 -0.1596 -0.9294
vn -0.1542 0.3313 -0.9308
vn -0.1542 0.3314 -0.9308
vn -0.1537 0.3314 -0.9309
usemtl None.006
s 1
f 1//1 2//1 3//1
f 4//2 5//2 1//2
f 6//3 4//3 1//3
f 6//4 1//4 7//4
f 1//5 5//5 2//5
f 7//6 1//6 3//6
f 2//7 8//7 9//7
f 2//8 10//8 8//8
f 3//9 2//9 9//9
f 5//10 10//10 2//10
f 11//11 3//11 12//11
f 3//12 9//12 12//12
f 7//13 3//13 11//13
f 4//14 13//14 5//14
f 14//15 4//15 6//15
f 14//16 15//16 4//16
f 15//17 13//17 4//17
f 5//18 16//18 10//18
f 13//19 16//19 5//19
f 17//20 6//20 7//20
f 18//21 6//21 17//21
f 18//22 14//22 6//22
f 19//23 7//23 11//23
f 17//24 7//24 19//24
f 9//25 8//25 20//25
f 8//26 21//27 22//27
f 8//28 22//28 20//28
f 10//29 21//29 8//29
f 9//30 20//30 23//30
f 12//31 9//31 23//31
f 10//32 24//32 21//32
f 16//33 24//33 10//33
f 25//34 11//34 26//34
f 11//35 12//35 26//35
f 19//36 11//36 25//36
f 26//37 12//38 27//39
f 12//40 23//40 27//40
f 13//41 28//41 16//41
f 29//42 28//42 13//42
f 15//43 29//43 13//43
f 30//44 14//44 18//44
f 30//45 31//45 14//45
f 31//46 15//46 14//46
f 31//47 32//47 15//47
f 32//48 29//48 15//48
f 16//49 33//49 24//49
f 28//50 33//50 16//50
f 34//51 17//51 35//51
f 34//52 18//52 17//52
f 35//53 17//53 19//53
f 36//54 18//54 34//54
f 36//55 30//55 18//55
f 33//56 19//57 25//58
f 35//59 19//59 33//59
f 20//60 37//61 38//62
f 23//63 20//63 38//63
f 20//60 22//64 37//61
f 21//65 39//65 40//65
f 21//66 40//66 22//66
f 24//67 39//68 21//69
f 23//70 38//70 41//70
f 27//71 23//71 41//71
f 33//56 25//58 24//72
f 24//67 25//73 39//68
f 25//74 26//74 39//74
f 39//75 26//75 42//75
f 26//37 27//39 42//76
f 42//77 27//77 43//77
f 27//78 41//78 43//78
f 44//79 35//79 28//79
f 29//80 44//80 28//80
f 28//81 35//81 33//81
f 32//82 45//82 29//82
f 45//83 44//83 29//83
f 46//84 30//84 36//84
f 46//85 47//85 30//85
f 47//86 31//86 30//86
f 48//87 32//87 31//88
f 47//89 48//89 31//89
f 48//90 49//90 32//90
f 49//91 45//92 32//93
f 50//94 34//94 44//94
f 50//95 36//95 34//95
f 44//96 34//96 35//96
f 51//97 36//97 50//97
f 51//98 46//98 36//98
f 38//99 37//99 52//99
f 38//100 52//100 53//100
f 41//101 38//101 53//101
f 39//102 42//102 40//102
f 54//103 56//104 52//105 37//106 22//107 40//108
f 40//109 42//109 54//109
f 41//110 53//110 55//110
f 43//111 41//111 55//111
f 42//112 43//112 54//112
f 54//113 43//113 56//113
f 43//114 55//114 56//114
f 45//115 50//115 44//115
f 57//116 50//116 45//116
f 49//91 57//117 45//92
f 58//118 47//118 46//118
f 59//119 46//119 51//119
f 59//120 58//120 46//120
f 58//121 60//121 47//121
f 60//122 48//122 47//122
f 60//123 61//123 48//123
f 61//124 49//124 48//125
f 61//126 62//126 49//126
f 62//127 57//127 49//127
f 57//128 51//128 50//128
f 63//129 51//129 57//129
f 63//130 59//130 51//130
f 52//131 56//132 55//133 53//134
f 62//135 63//135 57//135
f 64//136 60//136 58//136
f 64//137 58//137 65//137
f 58//138 59//138 65//138
f 65//139 59//139 63//139
f 64//140 66//140 60//140
f 66//141 61//141 60//141
f 67//142 62//142 61//142
f 66//143 67//143 61//143
f 68//144 63//144 62//144
f 67//145 68//145 62//145
f 68//146 65//146 63//146
f 69//147 66//147 64//147
f 70//148 69//148 64//148
f 70//149 64//149 65//149
f 71//150 65//150 68//150
f 71//151 70//151 65//151
f 72//152 67//152 66//152
f 69//153 72//153 66//153
f 73//154 68//154 67//154
f 72//155 73//155 67//155
f 73//156 71//156 68//156
f 74//157 69//157 70//157
f 74//158 72//158 69//158
f 75//159 70//159 71//159
f 75//160 76//160 70//160
f 74//161 70//161 76//161
f 77//162 75//162 71//162
f 77//163 71//163 73//163
f 78//164 73//164 72//164
f 74//165 78//165 72//165
f 78//166 77//166 73//166
f 79//167 74//167 76//167
f 79//168 80//168 74//169
f 80//170 78//170 74//170
f 81//171 82//171 75//171
f 81//172 75//172 77//172
f 82//173 76//173 75//173
f 83//174 79//174 76//174
f 82//175 83//175 76//175
f 84//176 81//176 77//176
f 77//177 78//177 84//177
f 80//178 84//178 78//178
f 85//179 86//180 79//181
f 86//182 80//182 79//182
f 85//179 79//181 83//183
f 86//184 87//184 80//184
f 87//185 84//185 80//185
f 88//186 82//186 81//186
f 89//187 88//187 81//187
f 89//188 81//188 84//188
f 88//189 90//189 82//189
f 90//190 83//191 82//192
f 90//190 85//193 83//191
f 87//194 89//194 84//194
f 89//195 86//195 85//195
f 89//196 85//196 90//196
f 89//197 87//198 86//199
f 89//200 90//201 88//202
