# Blender 4.4.1
# www.blender.org
o Original_RIb4L_Rib%20Cage%20For%20Blender.007
v 0.058431 -0.060252 -0.122629
v 0.072611 -0.077224 -0.120264
v 0.074611 -0.070382 -0.116971
v 0.041669 -0.049178 -0.122578
v 0.056972 -0.067528 -0.124492
v 0.040033 -0.046478 -0.120026
v 0.056714 -0.057573 -0.119321
v 0.088047 -0.091863 -0.113196
v 0.089877 -0.087433 -0.114918
v 0.070123 -0.079781 -0.117717
v 0.073011 -0.067267 -0.114407
v 0.091382 -0.079889 -0.111037
v 0.038834 -0.056253 -0.124021
v 0.022003 -0.036330 -0.112607
v 0.020966 -0.039675 -0.117528
v 0.053098 -0.070217 -0.121315
v 0.042005 -0.047902 -0.116399
v 0.024573 -0.038256 -0.110155
v 0.057685 -0.057675 -0.116601
v 0.104359 -0.100866 -0.101727
v 0.088098 -0.076867 -0.108154
v 0.104316 -0.089214 -0.099927
v 0.106093 -0.099318 -0.104484
v 0.071358 -0.067173 -0.114405
v 0.073183 -0.067029 -0.111627
v 0.089281 -0.077233 -0.108100
v 0.107343 -0.091218 -0.100675
v 0.033547 -0.057121 -0.118794
v 0.018687 -0.045103 -0.116001
v 0.009039 -0.031096 -0.103382
v 0.005882 -0.028169 -0.105896
v 0.007413 -0.031356 -0.108050
v 0.055564 -0.059398 -0.116032
v 0.021455 -0.044471 -0.111595
v 0.040099 -0.052398 -0.116937
v 0.005468 -0.039755 -0.107445
v 0.119252 -0.101477 -0.087590
v 0.120209 -0.109771 -0.087169
v 0.088990 -0.076599 -0.106171
v 0.105598 -0.087794 -0.098367
v 0.122297 -0.110637 -0.087793
v 0.105691 -0.088787 -0.098593
v 0.124067 -0.101861 -0.086285
v 0.017028 -0.048062 -0.113576
v 0.004837 -0.037494 -0.109161
v -0.007031 -0.031416 -0.098268
v -0.004426 -0.024253 -0.095378
v -0.007556 -0.020408 -0.096669
v -0.005833 -0.022910 -0.099287
v 0.002499 -0.039520 -0.108249
v -0.011086 -0.031102 -0.099095
v 0.135116 -0.110147 -0.063536
v 0.137540 -0.118570 -0.063813
v 0.122728 -0.098457 -0.084022
v 0.140382 -0.117907 -0.067084
v 0.140703 -0.107231 -0.063901
v -0.009360 -0.029901 -0.100275
v -0.018372 -0.022924 -0.087837
v -0.022734 -0.022182 -0.086822
v -0.014487 -0.014998 -0.084325
v -0.018544 -0.012721 -0.084137
v -0.017950 -0.015749 -0.087487
v -0.020728 -0.021591 -0.087926
v -0.026425 -0.013971 -0.074763
v -0.029918 -0.013222 -0.074140
v -0.023961 -0.007987 -0.070561
v -0.027582 -0.003640 -0.069779
v -0.028427 -0.007161 -0.073922
v -0.028631 -0.006066 -0.057977
v -0.032036 -0.007652 -0.054155
v -0.032472 -0.003679 -0.056824
v -0.027512 -0.001071 -0.054541
v -0.029956 0.003540 -0.054093
v -0.025691 -0.003679 -0.039953
v -0.029977 0.002339 -0.038939
v -0.030734 -0.002508 -0.039025
v -0.025795 0.005460 -0.038584
v -0.022596 0.000834 -0.037361
v -0.019141 -0.007016 -0.025118
v -0.017684 -0.006667 -0.024071
v -0.020229 0.004042 -0.027050
v -0.022057 0.002365 -0.027163
v -0.022354 -0.003082 -0.025382
v -0.014533 -0.003647 -0.022833
v -0.014425 -0.008884 -0.009118
v -0.011209 -0.012813 -0.008777
v -0.008870 -0.011232 -0.009297
v -0.009518 -0.000605 -0.012189
v -0.005791 -0.006772 -0.009497
v -0.014690 -0.004623 -0.011314
vn 0.4535 0.3097 -0.8357
vn 0.1388 0.2303 -0.9632
vn 0.4279 0.7771 -0.4615
vn 0.4655 0.8158 -0.3431
vn 0.3519 0.1955 -0.9154
vn 0.5174 0.8013 -0.3002
vn 0.1084 -0.3761 -0.9202
vn -0.1329 -0.6030 -0.7866
vn 0.4216 0.3216 -0.8478
vn -0.1007 -0.6212 -0.7771
vn 0.4997 0.7258 -0.4728
vn 0.5019 0.7256 -0.4708
vn 0.4582 0.3662 -0.8099
vn 0.4975 0.7260 -0.4747
vn 0.0815 0.1749 -0.9812
vn 0.0735 0.7286 -0.6810
vn 0.1596 0.8009 -0.5771
vn -0.1262 0.2336 -0.9641
vn -0.1215 -0.6374 -0.7609
vn -0.2668 -0.5152 -0.8145
vn 0.4776 0.8779 0.0347
vn 0.4228 0.9032 0.0736
vn 0.4453 0.8868 0.1234
vn 0.4688 0.8698 -0.1537
vn 0.4487 0.8815 -0.1468
vn 0.3818 -0.4266 -0.8199
vn -0.5744 -0.3061 0.7592
vn -0.5742 -0.3066 0.7591
vn -0.6157 -0.1757 0.7681
vn -0.4009 -0.3239 0.8569
vn -0.1292 -0.8058 -0.5780
vn 0.6331 0.2983 -0.7143
vn 0.6337 0.2992 -0.7133
vn -0.4346 -0.2256 0.8719
vn -0.3111 -0.2388 0.9199
vn 0.4705 0.8771 -0.0967
vn 0.4761 0.8741 -0.0967
vn 0.5138 0.8139 -0.2711
vn 0.5139 0.8139 -0.2711
vn 0.4652 0.8799 -0.0968
vn 0.5892 0.7826 -0.2010
vn 0.5868 0.7874 -0.1887
vn 0.5972 0.7573 -0.2641
vn 0.6324 0.2974 -0.7153
vn -0.4287 -0.6643 -0.6123
vn -0.4905 -0.5762 -0.6538
vn -0.4906 -0.5765 -0.6534
vn -0.3836 -0.1195 -0.9157
vn 0.3951 0.8996 0.1859
vn 0.4466 0.8474 0.2871
vn 0.1037 0.8106 -0.5764
vn -0.3638 0.3747 -0.8528
vn -0.3639 0.3745 -0.8529
vn -0.3612 0.3765 -0.8531
vn -0.5539 -0.0417 -0.8315
vn -0.2561 -0.3933 0.8830
vn -0.1347 -0.4167 0.8990
vn 0.1916 -0.1790 0.9650
vn 0.1726 -0.2830 0.9434
vn 0.1725 -0.2830 0.9435
vn 0.1782 -0.2861 0.9415
vn -0.0572 -0.1022 0.9931
vn 0.1657 -0.2820 0.9450
vn 0.1855 -0.4569 0.8700
vn -0.1576 0.2662 0.9509
vn -0.1136 0.3760 0.9196
vn -0.3884 -0.7926 0.4700
vn 0.0175 0.2534 0.9672
vn -0.6882 -0.1607 0.7075
vn -0.6931 -0.1176 0.7112
vn -0.6949 -0.1026 0.7117
vn 0.0591 -0.8636 -0.5006
vn -0.6864 -0.1729 0.7064
vn -0.5781 -0.7289 0.3667
vn -0.5831 -0.3358 0.7398
vn -0.5141 -0.7588 0.3999
vn -0.5042 -0.7892 0.3506
vn -0.5033 -0.7916 0.3465
vn -0.3416 -0.9193 -0.1953
vn 0.7556 0.2407 -0.6092
vn -0.3754 -0.8669 0.3279
vn -0.5148 -0.7565 0.4033
vn 0.4849 0.8569 -0.1748
vn 0.5613 0.8146 -0.1463
vn 0.5995 0.7499 -0.2797
vn 0.6140 0.7450 -0.2608
vn 0.6625 0.0557 -0.7470
vn 0.6621 0.0558 -0.7473
vn 0.0726 -0.4202 0.9045
vn -0.4153 -0.4294 -0.8019
vn -0.1414 -0.1979 0.9700
vn -0.3003 0.2612 -0.9174
vn -0.5113 -0.3659 -0.7776
vn 0.2998 -0.4728 0.8286
vn 0.3024 -0.4190 0.8562
vn 0.4736 0.8448 0.2491
vn -0.3664 0.3726 -0.8526
vn 0.5797 0.7104 0.3991
vn -0.0445 0.7229 -0.6896
vn -0.3867 0.2811 -0.8783
vn -0.3878 0.2800 -0.8782
vn -0.3863 0.2814 -0.8784
vn 0.0498 -0.4992 0.8650
vn 0.0548 -0.5025 0.8628
vn -0.0991 -0.9239 0.3696
vn 0.0586 -0.5060 0.8606
vn -0.1327 -0.8647 0.4845
vn -0.1072 -0.8458 0.5226
vn -0.8440 -0.1437 0.5167
vn -0.8038 -0.3234 0.4993
vn -0.3133 -0.9479 -0.0573
vn 0.5300 0.2806 -0.8002
vn -0.0670 0.9016 0.4273
vn 0.1704 -0.9282 -0.3308
vn -0.4573 0.7779 0.4309
vn -0.2559 -0.9652 -0.0545
vn -0.1118 -0.9757 -0.1883
vn 0.4386 0.7549 -0.4876
vn 0.6930 0.2801 -0.6643
vn 0.0066 -0.9641 -0.2655
vn 0.7582 0.0289 -0.6514
vn 0.6529 0.6249 -0.4281
vn 0.6815 0.6165 -0.3943
vn 0.8045 0.2150 -0.5536
vn -0.3329 -0.0456 -0.9418
vn -0.4629 0.1055 -0.8801
vn -0.3882 0.2796 -0.8782
vn 0.4120 -0.4272 0.8048
vn -0.0957 -0.8763 0.4721
vn 0.0751 -0.7602 0.6454
vn 0.3975 -0.4873 0.7775
vn 0.6842 0.7147 0.1453
vn 0.4071 0.9076 -0.1030
vn 0.4071 0.9076 -0.1026
vn -0.5929 0.3157 -0.7408
vn -0.5931 0.3154 -0.7408
vn -0.2918 0.6737 -0.6789
vn -0.5418 0.3258 -0.7748
vn -0.5441 -0.0549 -0.8372
vn -0.6489 0.1504 -0.7459
vn -0.5455 0.3161 -0.7762
vn 0.1765 -0.0638 0.9822
vn 0.4789 0.0222 0.8776
vn 0.6493 0.0611 0.7581
vn 0.6889 -0.1306 0.7130
vn -0.5872 0.2779 -0.7602
vn 0.5294 -0.4980 0.6868
vn -0.0228 -0.8507 0.5252
vn 0.0559 -0.8155 0.5761
vn -0.5560 0.4794 -0.6790
vn 0.4940 -0.5879 0.6406
vn 0.4070 0.9076 -0.1033
vn -0.4324 0.6117 -0.6624
vn 0.7138 0.6930 0.1013
vn 0.7138 0.6929 0.1020
vn -0.6378 0.2929 -0.7124
vn -0.2262 0.7498 -0.6218
vn -0.7554 0.1410 -0.6399
vn 0.7843 -0.4937 0.3757
vn 0.7465 -0.5395 0.3895
vn -0.0808 -0.9654 0.2478
vn -0.9453 0.1569 -0.2859
vn -0.9686 -0.2357 -0.0796
vn 0.6959 0.7110 -0.1006
vn 0.8472 -0.3654 0.3856
vn -0.7279 0.5573 -0.3996
vn -0.7278 0.5573 -0.3996
vn 0.8339 0.5476 -0.0692
vn -0.8924 0.3337 -0.3038
vn 0.5352 -0.8431 0.0517
vn 0.9913 -0.0347 -0.1268
vn -0.9872 -0.0991 0.1252
vn -0.9976 0.0671 0.0153
vn -0.0794 -0.9411 0.3286
vn -0.6411 0.7414 -0.1981
vn -0.9651 0.1616 0.2060
vn 0.7943 0.5408 -0.2768
vn 0.8988 -0.4011 -0.1767
vn 0.7810 0.5640 -0.2682
vn -0.1569 -0.9812 -0.1119
vn 0.5413 -0.7521 -0.3760
vn 0.5418 -0.7517 -0.3761
vn 0.8600 -0.2232 -0.4589
vn -0.6893 0.5984 0.4084
vn -0.6439 0.6769 0.3567
vn -0.8408 0.0467 0.5393
vn -0.6733 -0.6182 0.4056
vn -0.8527 0.1413 0.5030
vn 0.7999 0.4971 -0.3363
vn 0.7789 0.5555 -0.2912
vn 0.7348 -0.4348 -0.5206
vn -0.7168 -0.6825 0.1427
vn -0.7169 -0.6824 0.1427
vn -0.7162 -0.6832 0.1425
vn 0.5908 -0.6418 -0.4889
vn -0.7161 -0.6833 0.1424
vn 0.4872 -0.7320 -0.4763
vn 0.7253 -0.4244 -0.5420
vn 0.7280 -0.4207 -0.5413
vn -0.6243 0.5259 0.5776
vn 0.8003 0.3451 -0.4903
vn 0.7907 0.4275 -0.4382
vn -0.5325 0.6681 0.5197
vn -0.8732 0.1282 0.4702
vn -0.8737 0.1242 0.4703
vn -0.8729 0.1300 0.4703
vn -0.8740 0.1221 0.4704
vn 0.7225 -0.4283 -0.5427
vn -0.0076 0.1031 0.9946
vn -0.1267 0.4454 0.8863
vn 0.3330 -0.1593 0.9294
vn 0.3329 -0.1594 0.9294
vn 0.3328 -0.1596 0.9294
vn -0.1542 0.3313 0.9308
vn -0.1542 0.3314 0.9308
vn -0.1537 0.3314 0.9309
s 1
f 1//1 3//1 2//1
f 4//2 1//2 5//2
f 6//3 1//3 4//3
f 6//4 7//4 1//4
f 1//5 2//5 5//5
f 7//6 3//6 1//6
f 2//7 9//7 8//7
f 2//8 8//8 10//8
f 3//9 9//9 2//9
f 5//10 2//10 10//10
f 11//11 12//12 3//11
f 3//13 12//13 9//13
f 7//14 11//11 3//11
f 4//15 5//15 13//15
f 14//16 6//16 4//16
f 14//17 4//17 15//17
f 15//18 4//18 13//18
f 5//19 10//19 16//19
f 13//20 5//20 16//20
f 17//21 7//21 6//21
f 18//22 17//22 6//22
f 18//23 6//23 14//23
f 19//24 11//24 7//24
f 17//25 19//25 7//25
f 9//26 20//26 8//26
f 8//27 22//28 21//28
f 8//29 20//29 22//29
f 10//30 8//30 21//30
f 9//31 23//31 20//31
f 12//32 23//32 9//33
f 10//34 21//34 24//34
f 16//35 10//35 24//35
f 25//36 26//37 11//36
f 11//38 26//39 12//39
f 19//40 25//36 11//36
f 26//41 27//43 12//42
f 12//32 27//44 23//32
f 13//45 16//45 28//45
f 29//46 13//47 28//47
f 15//48 13//48 29//48
f 30//49 18//49 14//49
f 30//50 14//50 31//50
f 31//51 14//51 15//51
f 31//52 15//54 32//53
f 32//55 15//55 29//55
f 16//56 24//56 33//56
f 28//57 16//57 33//57
f 34//58 35//58 17//58
f 34//59 17//61 18//60
f 35//62 19//62 17//62
f 36//63 34//59 18//60
f 36//64 18//64 30//64
f 33//65 25//67 19//66
f 35//68 33//68 19//68
f 20//69 38//71 37//70
f 23//72 38//72 20//72
f 20//69 37//70 22//73
f 21//74 40//74 39//74
f 21//75 22//75 40//75
f 24//76 21//78 39//77
f 23//79 41//79 38//79
f 27//80 41//80 23//80
f 33//65 24//81 25//67
f 24//76 39//77 25//82
f 25//83 39//83 26//83
f 39//84 42//84 26//84
f 26//41 42//85 27//43
f 42//86 43//86 27//86
f 27//87 43//87 41//88
f 44//89 28//89 35//89
f 29//90 28//90 44//90
f 28//91 33//91 35//91
f 32//92 29//92 45//92
f 45//93 29//93 44//93
f 46//94 36//94 30//94
f 46//95 30//95 47//95
f 47//96 30//96 31//96
f 48//97 31//52 32//53
f 47//98 31//98 48//98
f 48//99 32//99 49//99
f 49//100 32//102 45//101
f 50//103 44//104 34//104
f 50//105 34//105 36//105
f 44//104 35//106 34//104
f 51//107 50//107 36//107
f 51//108 36//108 46//108
f 38//109 52//109 37//109
f 38//110 53//110 52//110
f 41//111 53//111 38//111
f 39//112 40//112 42//112
f 54//113 40//118 22//117 37//116 52//115 56//114
f 40//119 54//119 42//119
f 41//120 55//120 53//120
f 43//121 55//121 41//121
f 42//122 54//122 43//122
f 54//123 56//123 43//123
f 43//124 56//124 55//124
f 45//125 44//125 50//125
f 57//126 45//126 50//126
f 49//100 45//101 57//127
f 58//128 46//128 47//128
f 59//129 51//129 46//129
f 59//130 46//130 58//130
f 58//131 47//131 60//131
f 60//132 47//132 48//132
f 60//133 48//134 61//133
f 61//135 48//136 49//135
f 61//137 49//137 62//137
f 62//138 49//138 57//138
f 57//139 50//139 51//139
f 63//140 57//140 51//140
f 63//141 51//141 59//141
f 52//142 53//145 55//144 56//143
f 62//146 57//146 63//146
f 64//147 58//147 60//147
f 64//148 65//148 58//148
f 58//149 65//149 59//149
f 65//150 63//150 59//150
f 64//151 60//151 66//151
f 66//152 60//133 61//133
f 67//153 61//153 62//153
f 66//154 61//155 67//155
f 68//156 62//156 63//156
f 67//157 62//157 68//157
f 68//158 63//158 65//158
f 69//159 64//159 66//159
f 70//160 64//160 69//160
f 70//161 65//161 64//161
f 71//162 68//162 65//162
f 71//163 65//163 70//163
f 72//164 66//164 67//164
f 69//165 66//165 72//165
f 73//166 67//167 68//166
f 72//168 67//168 73//168
f 73//169 68//169 71//169
f 74//170 70//170 69//170
f 74//171 69//171 72//171
f 75//172 71//172 70//172
f 75//173 70//173 76//173
f 74//174 76//174 70//174
f 77//175 71//175 75//175
f 77//176 73//176 71//176
f 78//177 72//177 73//177
f 74//178 72//178 78//178
f 78//179 73//179 77//179
f 79//180 76//180 74//180
f 79//181 74//182 80//181
f 80//183 74//183 78//183
f 81//184 75//184 82//184
f 81//185 77//185 75//185
f 82//186 75//186 76//186
f 83//187 76//187 79//187
f 82//188 76//188 83//188
f 84//189 77//189 81//189
f 77//190 84//190 78//190
f 80//191 78//191 84//191
f 85//192 79//194 86//193
f 86//195 79//195 80//195
f 85//192 83//196 79//194
f 86//197 80//197 87//197
f 87//198 80//199 84//198
f 88//200 81//200 82//200
f 89//201 81//201 88//201
f 89//202 84//202 81//202
f 88//203 82//203 90//203
f 90//204 82//206 83//205
f 90//204 83//205 85//207
f 87//198 84//198 89//208
f 89//209 85//209 86//209
f 89//210 90//210 85//210
f 89//211 86//213 87//212
f 89//214 88//216 90//215
