# Blender v2.91.0 OBJ File: 'Rib5R_modify.blend'
# www.blender.org
mtllib Rib5R.mtl
o Original_Rib5R_Rib%20Cage%20For%20Blender.011
v -0.01765453907 -0.02138404984 0.09294504953
v -0.009906677762 -0.0319279838 0.1053028654
v -0.006935845702 -0.02815929404 0.1047909919
v -0.01666340483 -0.02108706342 0.09049634846
v -0.0277015034 -0.01437662145 0.07829165477
v -0.02204425466 -0.02334062108 0.0927784703
v -0.02578732886 -0.01382944989 0.07703464036
v -0.009307635898 -0.03897202537 0.1003531596
v 0.004377197873 -0.03904544406 0.1136659562
v -0.004918735162 -0.02831161284 0.101914936
v 0.010282821 -0.03660991596 0.1143998327
v -0.02871504443 -0.0216727988 0.07323791146
v -0.02133781636 -0.02785774934 0.08537198063
v -0.03117511273 -0.01594066089 0.07745823249
v -0.02770795239 -0.009853058319 0.0570780794
v -0.02987823237 -0.00597315803 0.05690793033
v -0.0226575794 -0.03038993458 0.09176526753
v -0.02851684739 -0.01983889372 0.05505721758
v -0.008564105243 -0.04018504513 0.0985763515
v 0.003493674169 -0.04622288576 0.1096138204
v 0.0222355317 -0.05672647335 0.1188172835
v 0.01328244255 -0.05174110883 0.1159035349
v 0.02565826798 -0.0470153317 0.1229011435
v -0.006149917703 -0.03632932326 0.1011536862
v 0.01192361601 -0.03686030149 0.1112041605
v 0.02751014883 -0.04515965766 0.1222833009
v -0.02875465016 -0.0177488324 0.04972617456
v -0.02895284092 -0.02482209161 0.07084116457
v -0.02356341723 -0.03065980526 0.08245258411
v -0.03129755966 -0.02274572561 0.07702648855
v -0.03064296631 -0.006870814132 0.05537617089
v -0.0248156068 -0.009325086759 0.03796113333
v -0.02430542762 -0.01514659482 0.0358522594
v -0.0263104472 -0.003886861911 0.03981449024
v -0.0255239161 -0.01288314456 0.03097966125
v 0.01147885294 -0.04338864806 0.1109180678
v 0.02573072625 -0.04963710939 0.1181012971
v 0.046209101 -0.06088892199 0.1244141038
v 0.04006488929 -0.06635550029 0.1247533156
v 0.04626027148 -0.05624877989 0.1232837497
v 0.04697634911 -0.05891378212 0.1297873029
v 0.02819351918 -0.04490728322 0.1186987065
v 0.04858205063 -0.05658658951 0.1265766207
v -0.02985484175 -0.01124002814 0.03625562563
v -0.03309136082 -0.01480219547 0.05444549238
v -0.02739869123 -0.004797702508 0.03637544772
v -0.01334611883 -0.01430889268 0.01919202857
v -0.0161842645 -0.011525908 0.02116897714
v -0.01916968545 -0.01194692833 0.01676904512
v -0.01661998238 -0.002891368718 0.0224990841
v -0.02102849475 -0.00660083691 0.0208937833
v 0.04895342355 -0.05619590023 0.1239842623
v 0.06766892613 -0.0672114468 0.1242410927
v 0.06714349739 -0.06965688441 0.1239608948
v 0.05736732247 -0.07688250704 0.1253840866
v 0.06859534746 -0.0680532939 0.1254318053
v 0.06842432803 -0.07235233694 0.1301541594
v 0.06899227521 -0.0691585548 0.1285564223
v -0.01819486884 -0.002782058002 0.02110757412
v -0.00836931106 -0.01925691502 0.003070905158
v -0.004196453896 -0.02022818686 0.006754037678
v -0.003803546104 -0.009771813139 0.008245962322
v -0.009496790915 -0.01311507559 0.006763798612
v -0.00600172601 -0.005958393009 0.008249486121
v -0.00781843979 -0.008111681467 0.006181542263
v 0.08879527573 -0.08094524146 0.1236479227
v 0.08476235996 -0.07993519963 0.1226466444
v 0.07699048063 -0.08934005455 0.1259548996
v 0.09104306104 -0.08285390569 0.1272021771
v 0.08891227998 -0.08866543417 0.1285920628
v 0.1116787369 -0.0934519265 0.1140463339
v 0.1132310461 -0.09469031986 0.1161305889
v 0.1081700039 -0.09121572469 0.1153904798
v 0.1059788716 -0.09008133666 0.1144886471
v 0.1127744665 -0.1069827091 0.117614328
v 0.1126000884 -0.09905650584 0.1186976511
v 0.1323627316 -0.104820105 0.09960762624
v 0.1347163959 -0.1062569504 0.1018200854
v 0.1348467267 -0.1093946005 0.1040368772
v 0.1276687466 -0.1020924923 0.1006388426
v 0.1337572979 -0.1180281092 0.1034305489
v 0.146132821 -0.1118725369 0.08259611161
v 0.1488945589 -0.1137362772 0.08448817446
v 0.1494415105 -0.1171960403 0.08669988959
v 0.1456890505 -0.1257918583 0.08525289028
v 0.1425972801 -0.1097568805 0.08409216057
v 0.1563206777 -0.1176394802 0.06514797307
v 0.1580976864 -0.1194962831 0.0676419362
v 0.1576158816 -0.1221058855 0.06902564123
v 0.1521039907 -0.1325685288 0.06883660469
v 0.152755193 -0.1168788709 0.06364599839
vn -0.5360 0.2270 0.8131
vn -0.5168 0.2189 0.8276
vn -0.4876 0.2145 0.8463
vn 0.2732 0.9265 0.2589
vn 0.2676 0.9249 0.2700
vn 0.2590 0.9242 0.2807
vn -0.7329 0.3414 0.5884
vn -0.7284 0.3356 0.5973
vn -0.7202 0.3268 0.6120
vn 0.3164 0.9089 0.2716
vn 0.2831 0.9180 0.2776
vn 0.3147 0.8988 0.3051
vn -0.0647 0.8968 0.4376
vn -0.0637 0.8972 0.4370
vn -0.6062 0.1155 0.7869
vn -0.6074 0.1147 0.7861
vn -0.6085 0.1140 0.7853
vn -0.3315 0.1051 0.9376
vn -0.3582 0.1102 0.9271
vn -0.3813 0.1182 0.9169
vn 0.2998 0.9212 0.2481
vn 0.3015 0.9213 0.2454
vn 0.2982 0.9223 0.2457
vn -0.4079 0.1093 0.9064
vn -0.4137 0.1121 0.9035
vn -0.4149 0.1143 0.9026
vn 0.2798 0.9299 0.2387
vn 0.2848 0.9286 0.2377
vn 0.2821 0.9298 0.2365
vn -0.4809 0.6111 0.6287
vn -0.4807 0.6112 0.6288
vn -0.2047 0.9437 0.2599
vn 0.8315 0.5428 0.1181
vn 0.9921 0.0182 -0.1241
vn 0.9922 0.0171 -0.1238
vn -0.8908 -0.4250 0.1606
vn -0.8884 -0.4336 0.1507
vn -0.8960 -0.4012 0.1902
vn -0.5615 -0.4647 0.6847
vn -0.5168 -0.5140 0.6846
vn -0.5994 -0.4289 0.6758
vn -0.5479 -0.5030 0.6684
vn -0.5963 -0.4778 0.6451
vn -0.5833 -0.6715 0.4570
vn -0.6436 -0.4414 0.6252
vn -0.8322 -0.4775 0.2818
vn -0.6902 -0.3624 0.6263
vn -0.6863 -0.3731 0.6243
vn -0.4355 -0.6431 0.6298
vn -0.5127 -0.4508 0.7307
vn -0.5235 -0.4412 0.7289
vn -0.5319 -0.4315 0.7286
vn -0.4261 0.0782 0.9013
vn -0.4155 0.0693 0.9069
vn -0.4041 0.0613 0.9126
vn 0.3288 0.9285 0.1725
vn -0.1868 0.4007 0.8970
vn 0.3301 0.9279 0.1732
vn -0.5976 -0.2418 0.7645
vn -0.5964 -0.2346 0.7676
vn -0.5974 -0.2416 0.7647
vn 0.8272 0.5393 0.1578
vn 0.9859 0.0939 0.1383
vn 0.9845 -0.0570 0.1656
vn 0.9451 0.2424 0.2191
vn -0.5737 -0.4189 0.7039
vn -0.5547 -0.4453 0.7028
vn -0.5385 -0.4639 0.7035
vn -0.0917 0.3314 0.9390
vn -0.3769 -0.2940 0.8783
vn 0.3250 0.9282 0.1813
vn 0.2174 0.6985 0.6818
vn 0.3879 0.9022 0.1884
vn 0.8478 -0.0922 0.5222
vn 0.8894 0.1323 0.4375
vn 0.7327 0.5891 0.3406
vn 0.8814 0.0053 0.4724
vn -0.2141 -0.4307 0.8767
vn 0.3420 0.6397 0.6884
vn 0.3420 0.6397 0.6883
vn 0.3419 0.6396 0.6885
vn -0.3553 -0.5047 0.7868
vn -0.3665 -0.4874 0.7925
vn -0.3763 -0.4679 0.7997
vn 0.3707 0.8984 0.2353
vn 0.4434 0.8646 0.2365
vn 0.2522 0.5600 0.7892
vn 0.2367 0.5672 0.7888
vn 0.2488 0.5617 0.7891
vn 0.7285 0.6112 0.3094
vn -0.2949 -0.9473 0.1250
vn 0.7435 -0.1077 0.6600
vn 0.7399 -0.0534 0.6706
vn 0.7387 0.4666 0.4864
vn 0.0832 0.9955 -0.0463
vn 0.4339 0.8587 0.2727
vn -0.1185 -0.0085 -0.9929
vn 0.2740 0.7128 -0.6457
vn -0.1190 -0.1247 -0.9850
vn -0.0950 -0.1307 -0.9869
vn -0.0636 -0.1570 -0.9855
vn -0.2950 -0.5596 0.7745
vn -0.2666 -0.5734 0.7747
vn -0.2590 -0.5763 0.7751
vn 0.4693 0.8437 0.2605
vn 0.4113 0.5025 0.7605
vn 0.4067 0.5049 0.7613
vn 0.4177 0.4988 0.7594
vn -0.3120 -0.5853 0.7484
vn -0.3432 -0.5602 0.7539
vn -0.3666 -0.5365 0.7601
vn 0.2270 0.2496 0.9414
vn 0.2376 0.2436 0.9403
vn 0.2320 0.2469 0.9408
vn -0.3721 0.0612 -0.9262
vn -0.3940 0.0623 -0.9170
vn -0.4192 0.0533 -0.9063
vn -0.3462 -0.4543 -0.8208
vn -0.3585 -0.4531 -0.8162
vn -0.3503 -0.4548 -0.8188
vn -0.2984 -0.7636 0.5726
vn -0.2631 -0.7939 0.5481
vn -0.2311 -0.8141 0.5327
vn 0.5373 0.3590 0.7632
vn 0.5373 0.3594 0.7630
vn 0.4733 0.1645 0.8654
vn 0.4868 0.1547 0.8597
vn 0.4659 0.1689 0.8686
vn 0.4672 0.0355 0.8834
vn 0.4437 0.0481 0.8949
vn 0.4574 0.0407 0.8883
vn 0.4212 0.8116 0.4049
vn 0.4825 0.8400 0.2481
vn 0.4080 0.8909 -0.1996
vn 0.5380 0.7609 0.3627
vn 0.5546 0.7647 0.3280
vn 0.3901 0.8336 0.3912
vn 0.3790 0.9196 -0.1033
vn 0.4340 0.8976 0.0769
vn 0.4338 0.8977 0.0767
vn 0.4138 0.9104 0.0024
vn 0.4236 0.9058 -0.0021
vn 0.4087 0.9126 0.0050
vn 0.6048 0.4736 0.6402
vn 0.6049 0.4734 0.6404
vn 0.6047 0.4744 0.6398
vn 0.5800 0.3441 0.7383
vn 0.5801 0.3447 0.7381
vn 0.5800 0.3437 0.7385
vn -0.6654 -0.5516 -0.5030
vn -0.6722 -0.5458 -0.5003
vn -0.6517 -0.5627 -0.5087
vn -0.6114 -0.5980 -0.5182
vn -0.6369 -0.5856 -0.5014
vn -0.6227 -0.5929 -0.5105
vn 0.5819 0.0728 0.8100
vn 0.5754 0.0747 0.8144
vn 0.5881 0.0706 0.8057
vn 0.4803 -0.1370 0.8663
vn 0.4803 -0.1371 0.8663
vn 0.4803 -0.1355 0.8666
vn 0.4650 0.8668 0.1799
vn 0.2932 0.9450 -0.1445
vn 0.4789 -0.2018 0.8544
vn 0.3887 -0.2696 0.8810
vn -0.9703 0.0327 0.2396
vn 0.4046 0.9124 -0.0620
vn 0.4024 0.9134 -0.0610
vn 0.4057 0.9119 -0.0625
vn 0.4608 0.8868 0.0351
vn 0.4616 0.8864 0.0358
vn 0.4610 0.8867 0.0353
vn 0.6938 0.6647 0.2773
vn 0.7164 0.6493 0.2555
vn 0.7034 0.6585 0.2677
vn 0.7650 0.4071 0.4990
vn 0.6511 -0.3754 0.6596
vn 0.6514 -0.3742 0.6600
vn 0.6520 -0.3766 0.6580
vn 0.8167 -0.1155 0.5654
vn -0.7893 -0.5387 0.2947
vn -0.7061 -0.4210 0.5693
vn -0.9540 -0.2593 0.1507
vn -0.6827 -0.5705 -0.4565
vn -0.6899 -0.5689 -0.4476
vn -0.6757 -0.5716 -0.4655
vn -0.8284 -0.3782 -0.4132
vn -0.8384 -0.3720 -0.3984
vn -0.8319 -0.3763 -0.4080
vn 0.5619 0.7596 0.3275
vn 0.5476 0.7700 0.3275
vn 0.5221 0.7894 0.3230
vn 0.3490 0.9349 0.0648
vn 0.3491 0.9358 0.0484
vn 0.3499 0.9337 0.0764
vn 0.7862 0.4395 0.4344
vn 0.8733 0.4046 0.2713
vn 0.8134 0.4400 0.3804
vn 0.6863 0.6535 0.3192
vn 0.6954 0.6576 0.2898
vn 0.6796 0.6478 0.3442
vn 0.6639 -0.5330 0.5245
vn 0.6647 -0.5362 0.5202
vn 0.6645 -0.5355 0.5213
vn 0.8111 -0.3856 0.4399
vn 0.8103 -0.3867 0.4402
vn 0.8114 -0.3865 0.4386
vn -0.8915 -0.3963 -0.2197
vn -0.9152 -0.3692 -0.1617
vn -0.8951 -0.3931 -0.2104
vn -0.9182 -0.3629 -0.1588
vn -0.9064 -0.3858 -0.1721
vn -0.9271 -0.3436 -0.1500
vn 0.9265 -0.2761 -0.2558
vn 0.7140 -0.6479 -0.2654
vn 0.8965 -0.1199 -0.4264
vn 0.9764 -0.1430 -0.1616
vn 0.9285 -0.2494 -0.2751
vn -0.4464 -0.0837 0.8909
vn -0.4689 -0.2536 0.8461
vn -0.4739 -0.2655 0.8396
vn -0.1804 0.1010 0.9784
vn 0.4797 -0.1967 -0.8551
vn 0.4712 -0.2179 -0.8547
vn 0.4736 0.5165 -0.7133
vn 0.5417 0.4000 -0.7393
vn 0.8120 -0.0479 -0.5817
vn 0.6927 0.1289 -0.7097
vn 0.8100 0.0584 -0.5836
vn -0.3196 0.3933 0.8621
vn -0.2713 0.6569 0.7034
vn -0.4810 0.6627 0.5740
vn -0.2995 0.5320 0.7920
vn 0.9614 -0.2697 -0.0542
vn 0.9611 -0.2705 -0.0550
vn 0.4691 0.0884 -0.8787
vn 0.6974 0.0452 -0.7153
vn -0.6547 -0.7422 -0.1435
vn -0.9668 -0.2542 -0.0261
vn 0.9994 -0.0089 -0.0333
vn 0.9995 0.0058 -0.0298
vn 0.8523 0.3278 -0.4076
vn 0.7227 0.1861 -0.6657
vn 0.8582 -0.0882 -0.5057
vn -0.9987 -0.0507 -0.0015
vn -0.4443 -0.8315 -0.3335
vn -0.3490 -0.8733 -0.3400
vn 0.7178 0.0849 -0.6910
vn 0.5074 0.1600 -0.8467
vn 0.5009 0.3285 -0.8007
vn 0.5413 -0.1716 -0.8231
vn 0.5245 -0.4121 -0.7451
vn 0.0815 -0.4731 -0.8772
vn 0.0965 -0.4777 -0.8732
vn 0.0600 -0.4536 -0.8892
vn 0.0985 -0.3019 -0.9482
vn 0.0790 -0.2790 -0.9570
vn 0.1109 -0.3073 -0.9451
vn 0.4309 0.0328 -0.9018
vn 0.3316 0.1509 -0.9313
vn 0.2599 0.1837 -0.9480
vn 0.2739 0.1458 -0.9507
vn 0.2721 0.1478 -0.9509
vn 0.2634 0.1526 -0.9525
vn 0.4693 0.0851 -0.8790
vn 0.4051 0.0880 -0.9100
vn -0.6750 -0.6830 -0.2791
vn -0.5851 -0.7434 -0.3241
vn -0.6616 -0.7046 -0.2566
vn -0.7867 -0.5998 -0.1459
vn -0.6540 -0.7543 -0.0574
vn -0.9605 0.1954 0.1983
vn -0.9645 0.2451 -0.0981
vn -0.2196 -0.9353 -0.2773
vn -0.4231 -0.8526 -0.3065
vn -0.4083 0.9090 -0.0834
vn -0.9174 -0.0455 -0.3953
vn -0.7653 -0.3383 -0.5476
vn 0.4025 -0.0235 -0.9151
vn 0.2271 0.0632 -0.9718
vn 0.2322 0.0899 -0.9685
vn 0.0624 0.1415 -0.9880
vn 0.0635 0.1452 -0.9874
vn 0.0644 0.1493 -0.9867
vn 0.0353 0.1064 -0.9937
vn 0.0412 0.1041 -0.9937
vn 0.0500 0.1004 -0.9937
vn -0.0490 -0.1233 -0.9912
vn -0.0935 -0.1093 -0.9896
vn -0.0554 -0.1143 -0.9919
vn -0.0531 -0.0845 -0.9950
vn 0.2004 0.3426 -0.9179
vn 0.3721 0.8732 0.3149
vn -0.8569 0.2884 -0.4273
vn -0.9536 0.2941 -0.0638
vn -0.8106 0.5418 -0.2222
vn -0.0978 0.9813 0.1659
vn -0.3568 -0.9286 0.1018
vn -0.7019 0.2744 -0.6573
vn -0.7007 0.2803 -0.6561
vn -0.6642 0.4809 -0.5723
vn -0.7466 0.1488 -0.6484
vn 0.0155 0.1593 -0.9871
vn -0.4041 0.7847 -0.4700
vn -0.8158 0.1728 -0.5520
vn 0.4961 0.3854 -0.7781
vn 0.4961 0.3858 -0.7778
vn 0.4651 0.1846 -0.8658
vn 0.6480 0.2521 -0.7187
vn 0.2237 0.9395 -0.2595
vn 0.2185 0.9401 -0.2615
vn 0.1973 0.9408 -0.2756
vn 0.3411 0.9280 0.1501
vn 0.3436 0.9268 0.1517
vn 0.3446 0.9263 0.1523
vn 0.4794 0.7816 0.3991
vn -0.2861 0.8814 -0.3759
vn 0.4191 0.8377 0.3501
vn 0.6413 0.6658 0.3813
vn 0.5840 -0.4954 0.6431
vn 0.7935 -0.3232 0.5157
vn -0.7715 0.6360 -0.0189
vn -0.7764 0.6297 -0.0257
vn 0.8093 0.5627 -0.1687
vn -0.0233 -0.5043 -0.8632
vn -0.8984 0.3795 0.2210
vn -0.8967 0.3877 0.2136
vn -0.5096 0.7577 0.4077
vn -0.5104 0.7556 0.4106
usemtl None.007
s off
f 1//1 2//2 3//3
f 4//4 1//5 3//6
f 5//7 6//8 1//9
f 7//10 1//11 4//12
f 7//13 5//13 1//14
f 1//15 6//16 2//17
f 3//18 2//19 9//20
f 4//21 3//22 10//23
f 3//24 9//25 11//26
f 10//27 3//28 11//29
f 5//30 14//30 6//31
f 15//32 5//32 7//32
f 15//33 16//33 5//33
f 18//34 15//35 7//35
f 17//36 19//37 8//38
f 8//39 19//40 20//41
f 9//42 2//43 8//44 20//45
f 17//46 8//47 2//48 6//49
f 9//50 21//51 23//52
f 11//53 9//54 23//55
f 10//56 11//56 25//56
f 11//57 23//57 26//57
f 25//58 11//58 26//58
f 14//59 30//60 17//61
f 32//62 16//62 15//62
f 33//63 32//63 15//63
f 33//64 15//64 18//64
f 32//65 34//65 16//65
f 23//66 21//67 39//68
f 26//69 23//69 41//69
f 23//70 39//70 41//70
f 25//71 26//71 42//71
f 26//72 41//72 43//72
f 42//73 26//73 43//73
f 47//74 32//74 33//74
f 48//75 34//75 32//75
f 47//76 48//76 32//76
f 48//77 50//77 34//77
f 41//78 39//78 55//78
f 43//79 41//80 57//81
f 41//82 55//83 57//84
f 42//85 43//85 52//85
f 52//86 43//86 58//86
f 43//87 57//88 58//89
f 61//90 48//90 47//90
f 60//91 61//91 47//91
f 61//92 62//92 48//92
f 62//93 50//93 48//93
f 62//94 64//94 50//94
f 64//95 59//95 50//95
f 52//96 58//96 56//96
f 55//97 54//97 67//97
f 54//98 66//98 67//98
f 55//99 67//100 68//101
f 57//102 55//103 68//104
f 56//105 58//105 69//105
f 58//106 57//107 70//108
f 57//109 68//110 70//111
f 58//112 70//113 69//114
f 68//115 67//116 74//117
f 68//118 74//119 75//120
f 70//121 68//122 75//123
f 69//124 76//124 72//125
f 69//126 70//127 76//128
f 70//129 75//130 76//131
f 56//132 69//133 72//134 71//135 73//136 66//137 53//138
f 71//139 78//139 77//140
f 71//141 72//142 78//143
f 72//144 79//145 78//146
f 72//147 76//148 79//149
f 75//150 74//151 80//152
f 75//153 80//154 81//155
f 76//156 75//157 81//158
f 76//159 81//160 79//161
f 80//162 74//163 73//164 71//165 77//166
f 77//167 83//168 82//169
f 77//170 78//171 83//172
f 78//173 84//174 83//175
f 78//176 79//176 84//176
f 79//177 85//178 84//179
f 79//180 81//180 85//180
f 14//181 17//182 6//183
f 81//184 80//185 86//186
f 81//187 86//188 85//189
f 82//190 88//191 87//192
f 82//193 83//194 88//195
f 83//196 89//197 88//198
f 83//199 84//200 89//201
f 84//202 90//203 89//204
f 84//205 85//206 90//207
f 85//208 91//209 90//210
f 85//211 86//212 91//213
f 90//214 91//215 87//216 88//217 89//218
f 21//219 9//220 20//221 22//222
s 1
f 19//223 24//224 36//225 20//226
f 12//227 4//227 13//227
f 13//228 4//228 10//228
f 12//229 7//229 4//229
f 30//230 29//231 19//232 17//233
f 18//234 7//235 12//235
f 24//236 10//236 25//236
f 13//237 10//237 24//237
f 27//238 18//239 12//240
f 27//238 12//240 28//241
f 28//242 12//242 13//242
f 29//243 13//243 24//243
f 28//244 13//244 29//244
f 31//245 30//245 14//245
f 35//246 18//246 27//246
f 35//247 33//247 18//247
f 29//248 24//248 19//248
f 20//249 36//250 37//251
f 20//249 37//251 22//252
f 21//253 22//254 38//255
f 21//256 38//257 39//258
f 22//259 37//260 40//261
f 22//262 40//263 38//264
f 24//265 25//265 36//265
f 36//266 25//266 42//266
f 44//267 27//267 45//267
f 44//268 35//268 27//268
f 45//269 27//269 28//269
f 45//270 28//270 30//270
f 30//271 28//271 29//271
f 31//272 45//272 30//272
f 46//273 45//273 31//273
f 49//274 47//274 33//274
f 49//275 33//275 35//275
f 50//276 46//276 34//276
f 51//277 49//277 35//277
f 51//278 35//278 44//278
f 36//279 42//279 37//279
f 37//280 42//280 52//280
f 37//281 52//281 40//281
f 38//282 53//283 54//284
f 38//285 40//286 53//287
f 39//288 38//289 54//290
f 39//291 54//291 55//291
f 40//292 52//292 56//292
f 40//293 56//293 53//293
f 59//294 44//294 46//294
f 46//295 44//295 45//295
f 59//296 51//296 44//296
f 50//297 59//297 46//297
f 60//298 47//298 49//298
f 63//299 60//299 49//299
f 63//300 49//300 51//300
f 65//301 51//301 59//301
f 65//302 63//302 51//302
f 54//303 53//303 66//303
f 64//304 65//304 59//304
f 65//305 60//305 63//305
f 65//306 64//307 62//308 61//309 60//309
f 67//310 66//311 73//312
f 67//313 73//314 74//315
f 87//316 91//317 86//318 80//319 77//320 82//321
f 34//322 46//323 31//324 16//325
f 16//326 31//327 14//328 5//329
