# Blender v2.91.0 OBJ File: 'Rib6R_modify.blend'
# www.blender.org
mtllib Rib6R.mtl
o Original_Rib6R_Rib%20Cage%20For%20Blender.013
v 0.132358966 -0.114159155 0.1090562654
v 0.1410872798 -0.1215579797 0.1042117985
v 0.1407137639 -0.1212941758 0.1033421544
v 0.1306490313 -0.1125499459 0.1116635977
v 0.1189117349 -0.11920398 0.1238796249
v 0.1314166842 -0.1243349514 0.1106086829
v 0.1173951991 -0.1024952507 0.1201555585
v 0.1420127061 -0.1356139333 0.1018476914
v 0.1417953367 -0.1226536732 0.1059296743
v 0.1410299656 -0.130565405 0.09953769769
v 0.1322128916 -0.1140757724 0.1134277522
v 0.1027729429 -0.1058664376 0.1316770012
v 0.1179028798 -0.1181242906 0.1256198754
v 0.1027972646 -0.1076966308 0.1303108564
v 0.1314765587 -0.1279205788 0.114765172
v 0.1032133596 -0.09323142284 0.1261067454
v 0.1325691138 -0.1151590237 0.1150158636
v 0.1429517712 -0.125453739 0.1061967688
v 0.1180488357 -0.1028210495 0.1222060217
v 0.08556125799 -0.0946316412 0.1363338329
v 0.08650268179 -0.08433548585 0.1349179822
v 0.1030659069 -0.09517774357 0.1303783873
v 0.1177578018 -0.104142583 0.1249596064
v 0.08616691591 -0.09568075096 0.1343305913
v 0.08892109767 -0.08020956655 0.129786079
v 0.1042849446 -0.09172075702 0.1278131034
v 0.08553320865 -0.07879442824 0.1310305794
v 0.0676753096 -0.08291223045 0.1378569722
v 0.06975474034 -0.07149315061 0.136021066
v 0.07247173062 -0.06946309803 0.1333528987
v 0.08854089892 -0.08154764117 0.1326468383
v 0.06960945273 -0.08216147404 0.1360621589
v 0.0726971952 -0.06876957453 0.1312820935
v 0.06962351521 -0.06798230044 0.1319241894
v 0.04756398795 -0.06922017971 0.1358396766
v 0.05002969286 -0.05896202988 0.1346103254
v 0.05342913125 -0.05835056342 0.1330726538
v 0.05124510557 -0.05600440684 0.1302525042
v 0.05258299142 -0.05852770637 0.1297400883
v 0.0524829111 -0.05577185823 0.1285084617
v 0.02995061182 -0.05921931313 0.1314386843
v 0.03278447508 -0.04866034127 0.1295678823
v 0.03705501477 -0.04861605116 0.1285852302
v 0.03493052384 -0.04548879079 0.1248223825
v 0.03784660026 -0.04708706114 0.1246876321
v 0.03578510213 -0.04981983352 0.1263538805
v 0.01836860603 -0.03933081599 0.121572085
v 0.01132867297 -0.04786773927 0.1207102716
v 0.02237517889 -0.03911192471 0.1227022296
v 0.02017369484 -0.03583849931 0.117740182
v 0.02261103312 -0.03733129845 0.1181095609
v 0.02148491619 -0.04363005761 0.1188905998
v 0.009592990561 -0.03059542252 0.1116637675
v 0.002168064645 -0.03029167663 0.1083302655
v -0.001745762129 -0.03936178684 0.1088529383
v 0.006862407817 -0.0285708827 0.1062278887
v 0.008301513677 -0.03162586026 0.1069287473
v 0.007895930164 -0.03867683849 0.1074788214
v -0.007249152129 -0.02105545923 0.09262252159
v -0.004834819266 -0.02353891715 0.09898719096
v -0.010072971 -0.02306136678 0.09624046439
v -0.0151045654 -0.03357005081 0.09514010067
v -0.003839443682 -0.02572711523 0.0948721168
v -0.005708685397 -0.03554707786 0.09511749973
v -0.0168066275 -0.01778661643 0.07904610539
v -0.01707643929 -0.02187321468 0.07903973149
v -0.01565771771 -0.01705709437 0.08526295608
v -0.02205828423 -0.02023985732 0.08203088763
v -0.02504305698 -0.02739444588 0.07890285779
v -0.0179467432 -0.02789900747 0.07880285185
v -0.02622044454 -0.01122576372 0.05561848776
v -0.02464694793 -0.0125792389 0.05591122551
v -0.02348295476 -0.01604759909 0.05395350161
v -0.02884581734 -0.0084454507 0.05921306121
v -0.03220222544 -0.01013307729 0.05833457392
v -0.03478182396 -0.01809145457 0.05280947989
v -0.01853866203 -0.005063634048 0.03949861771
v -0.01909791073 -0.01068855014 0.04090067984
v -0.01880689851 -0.01265484085 0.04123981272
v -0.0269637258 -0.01338468236 0.03409245158
v -0.02501694024 -0.005331625854 0.04389174382
v -0.02795828413 -0.006644308186 0.03922231251
v -0.01333033246 -0.008138671212 0.02690100405
v -0.0147876457 0.0001022544138 0.02825418779
v -0.01055312206 -0.0119227434 0.02341441189
v -0.01476259619 -0.01238130986 0.02567615007
v -0.01716410227 -0.003661482273 0.02421396981
v 0.001195447283 -0.01480364525 0.006688380673
v 0.002003426968 -0.01192119396 0.006662783315
v -0.005380818766 -0.002581583638 0.009113023945
v 0.0003194205028 -0.01663993886 0.007634673271
v -0.003938601736 -0.0137784775 0.005752302785
vn 0.4845 0.8694 -0.0968
vn 0.4755 0.8782 -0.0514
vn 0.4798 0.8736 -0.0819
vn 0.0734 0.6571 -0.7502
vn 0.1521 0.6000 -0.7854
vn 0.0145 0.7008 -0.7132
vn -0.7615 -0.1094 -0.6389
vn -0.7640 -0.1074 -0.6362
vn -0.7606 -0.1100 -0.6398
vn -0.6148 -0.1337 -0.7773
vn -0.6104 -0.1324 -0.7809
vn -0.6161 -0.1340 -0.7762
vn -0.1175 0.6888 -0.7154
vn 0.0013 0.6115 -0.7912
vn -0.0534 0.6461 -0.7613
vn -0.7080 -0.2578 -0.6575
vn -0.7077 -0.2584 -0.6575
vn -0.7086 -0.2556 -0.6576
vn 0.6979 0.7127 0.0703
vn 0.7077 0.7018 0.0819
vn 0.7071 0.7024 0.0811
vn -0.6959 0.2893 -0.6573
vn -0.7010 0.2859 -0.6534
vn -0.7072 0.2805 -0.6490
vn 0.7142 0.3933 -0.5790
vn 0.9558 0.1418 -0.2577
vn 0.9710 0.1013 -0.2164
vn 0.8223 0.2516 -0.5104
vn 0.8285 0.2226 -0.5138
vn 0.8582 0.2142 -0.4665
vn 0.6705 0.7411 -0.0364
vn 0.6711 0.7405 -0.0356
vn 0.6714 0.7403 -0.0352
vn -0.5202 -0.8388 0.1606
vn -0.0379 -0.6154 0.7873
vn 0.4874 -0.6216 0.6132
vn 0.4874 -0.6215 0.6133
vn 0.4875 -0.6219 0.6128
vn -0.5129 -0.2583 -0.8187
vn -0.5126 -0.2585 -0.8188
vn -0.5245 -0.8469 -0.0875
vn -0.3528 -0.8724 -0.3384
vn -0.4348 -0.8797 -0.1927
vn -0.6294 -0.7381 -0.2430
vn -0.6151 -0.7427 -0.2647
vn -0.6577 -0.7245 -0.2065
vn -0.5195 -0.2473 -0.8179
vn -0.5195 -0.2474 -0.8179
vn -0.5195 -0.2470 -0.8180
vn 0.8092 -0.0206 0.5872
vn 0.8094 -0.0226 0.5868
vn 0.8093 -0.0214 0.5870
vn 0.4381 -0.3792 0.8150
vn 0.4370 -0.3679 0.8208
vn 0.4378 -0.3721 0.8185
vn -0.5284 -0.8476 -0.0477
vn -0.3875 -0.8771 -0.2839
vn -0.4698 -0.8726 -0.1338
vn 0.7940 0.3863 0.4694
vn 0.7862 0.4114 0.4611
vn 0.7876 0.4078 0.4618
vn 0.7815 0.5968 0.1819
vn 0.7816 0.5965 0.1825
vn 0.7816 0.5966 0.1823
vn 0.5987 0.7339 0.3209
vn 0.5988 0.7338 0.3211
vn 0.5987 0.7340 0.3208
vn -0.0650 -0.6134 0.7871
vn -0.0648 -0.6147 0.7861
vn 0.3473 0.1110 0.9312
vn 0.3423 0.1063 0.9335
vn 0.3425 0.1067 0.9334
vn 0.4596 0.1116 0.8811
vn 0.3474 0.1115 0.9311
vn 0.6503 0.0798 0.7555
vn 0.6503 0.0797 0.7555
vn 0.6505 0.0810 0.7552
vn 0.4047 0.0628 0.9123
vn 0.4046 0.0629 0.9123
vn -0.4087 -0.8634 0.2957
vn -0.4080 -0.8643 0.2941
vn -0.4090 -0.8630 0.2965
vn -0.3888 -0.2604 -0.8838
vn -0.3887 -0.2595 -0.8841
vn -0.3887 -0.2591 -0.8842
vn 0.5715 -0.0290 0.8201
vn -0.3915 -0.2605 -0.8825
vn -0.3911 -0.2602 -0.8828
vn -0.3934 -0.2613 -0.8814
vn 0.6220 0.6875 0.3747
vn 0.6220 0.6873 0.3752
vn 0.6222 0.6849 0.3792
vn 0.6475 0.6702 0.3628
vn 0.6475 0.6697 0.3636
vn 0.6475 0.6698 0.3634
vn -0.3552 -0.8758 0.3267
vn -0.3518 -0.8802 0.3185
vn -0.3521 -0.8798 0.3192
vn 0.2006 0.1125 0.9732
vn 0.2006 0.1132 0.9731
vn 0.2006 0.1130 0.9731
vn 0.2073 0.1188 0.9710
vn 0.2072 0.1185 0.9711
vn 0.2072 0.1186 0.9711
vn 0.3213 0.4679 0.8233
vn 0.3206 0.4675 0.8238
vn 0.3198 0.4669 0.8245
vn 0.3646 0.5349 0.7622
vn 0.3628 0.5337 0.7639
vn 0.3769 0.5401 0.7525
vn 0.4289 0.3829 0.8182
vn 0.4280 0.3819 0.8191
vn 0.4347 0.3877 0.8128
vn 0.4979 0.4176 0.7601
vn 0.4954 0.4208 0.7599
vn 0.5265 0.3969 0.7519
vn 0.4654 0.4409 0.7674
vn -0.3177 -0.2602 -0.9118
vn -0.3158 -0.2615 -0.9121
vn -0.3169 -0.2608 -0.9119
vn -0.4182 -0.6624 -0.6216
vn -0.4049 -0.6625 -0.6302
vn -0.4377 -0.6601 -0.6104
vn 0.1130 0.5128 -0.8510
vn 0.0958 0.5220 -0.8475
vn 0.1030 0.5182 -0.8490
vn -0.3017 -0.3075 -0.9024
vn -0.2995 -0.3085 -0.9028
vn -0.3032 -0.3068 -0.9022
vn 0.4989 0.8095 0.3097
vn 0.4986 0.8097 0.3095
vn 0.4980 0.8102 0.3092
vn 0.4305 0.7949 0.4276
vn 0.4313 0.7943 0.4278
vn 0.4313 0.7944 0.4278
vn -0.0119 0.2850 -0.9584
vn -0.0223 0.2898 -0.9568
vn 0.0036 0.2774 -0.9608
vn -0.3236 -0.7164 -0.6181
vn -0.2996 -0.7130 -0.6339
vn -0.3041 -0.7143 -0.6303
vn 0.0538 0.1378 0.9890
vn 0.0152 0.1030 0.9946
vn 0.0152 0.1029 0.9946
vn 0.2764 0.6149 0.7386
vn 0.2746 0.6141 0.7399
vn 0.2743 0.6140 0.7401
vn 0.2456 0.5671 0.7862
vn 0.2442 0.5668 0.7868
vn 0.2514 0.5678 0.7838
vn 0.4344 0.8947 -0.1042
vn 0.4345 0.8946 -0.1042
vn 0.4344 0.8946 -0.1042
vn 0.3696 0.8522 0.3703
vn 0.3694 0.8524 0.3701
vn 0.3680 0.8537 0.3685
vn 0.4487 0.8811 -0.1498
vn 0.4486 0.8811 -0.1498
vn 0.4488 0.8810 -0.1497
vn -0.2443 -0.5078 -0.8261
vn -0.2373 -0.5092 -0.8273
vn -0.2530 -0.5054 -0.8249
vn -0.0964 -0.3328 -0.9381
vn -0.0941 -0.3325 -0.9384
vn -0.0950 -0.3326 -0.9383
vn 0.4031 0.5937 -0.6964
vn 0.3829 0.6049 -0.6983
vn 0.3922 0.5998 -0.6975
vn -0.1348 -0.3772 -0.9163
vn -0.1346 -0.3772 -0.9163
vn -0.1333 -0.3776 -0.9163
vn 0.3767 0.8346 0.4020
vn 0.3760 0.8344 0.4030
vn 0.3821 0.8352 0.3954
vn -0.0474 -0.5684 -0.8214
vn -0.0327 -0.5679 -0.8225
vn -0.0434 -0.5684 -0.8216
vn -0.1562 0.1293 0.9792
vn -0.1562 0.1295 0.9792
vn -0.1562 0.1294 0.9792
vn -0.1058 0.1794 0.9781
vn 0.1478 0.7368 0.6598
vn 0.1451 0.7363 0.6609
vn 0.1456 0.7364 0.6607
vn 0.1274 0.7011 0.7016
vn 0.1273 0.7011 0.7016
vn 0.1283 0.7012 0.7014
vn 0.2283 0.8454 0.4828
vn 0.2291 0.8446 0.4838
vn 0.2298 0.8439 0.4847
vn 0.2270 0.8185 0.5278
vn 0.2059 0.8184 0.5365
vn 0.1892 0.8170 0.5448
vn 0.4114 0.9081 -0.0777
vn 0.4113 0.9082 -0.0774
vn 0.4116 0.9081 -0.0774
vn 0.2701 0.9042 0.3309
vn 0.2684 0.9040 0.3329
vn 0.2691 0.9041 0.3321
vn -0.0295 -0.3910 -0.9199
vn -0.0296 -0.3909 -0.9200
vn -0.0299 -0.3908 -0.9200
vn -0.0528 -0.4364 -0.8982
vn -0.0571 -0.4738 -0.8788
vn -0.3245 0.2125 0.9217
vn -0.3253 0.2135 0.9212
vn -0.3238 0.2115 0.9222
vn -0.3246 0.2113 0.9219
vn 0.1449 -0.5089 -0.8485
vn 0.1445 -0.5096 -0.8482
vn 0.1455 -0.5081 -0.8489
vn -0.2641 0.3128 0.9124
vn 0.1337 0.6804 0.7205
vn 0.2441 0.8190 0.5193
vn 0.3442 0.8571 0.3832
vn 0.4007 0.9115 -0.0929
vn 0.4031 0.9104 -0.0932
vn 0.4030 0.9104 -0.0932
vn 0.5866 0.3728 -0.7190
vn 0.6697 0.3244 -0.6680
vn 0.4985 0.4221 -0.7571
vn 0.1644 -0.5693 -0.8055
vn 0.1645 -0.5692 -0.8056
vn 0.1643 -0.5695 -0.8054
vn 0.2732 -0.1316 -0.9529
vn 0.2732 -0.1317 -0.9529
vn 0.2733 -0.1314 -0.9529
vn 0.0996 -0.8238 -0.5580
vn 0.0974 -0.8238 -0.5584
vn 0.0841 -0.8234 -0.5612
vn -0.2579 0.6113 0.7482
vn -0.2582 0.6113 0.7481
vn -0.2581 0.6113 0.7482
vn -0.3286 0.5340 0.7790
vn -0.3288 0.5340 0.7789
vn -0.3282 0.5340 0.7791
vn -0.4961 0.2478 0.8321
vn -0.4695 0.2770 0.8383
vn -0.4488 0.2968 0.8429
vn -0.5198 0.2226 0.8248
vn 0.1061 -0.8214 -0.5603
vn 0.1332 -0.8244 -0.5501
vn 0.1181 -0.8231 -0.5555
vn -0.2733 0.7252 0.6320
vn -0.2738 0.7259 0.6310
vn -0.2733 0.7253 0.6319
vn 0.2696 0.9460 0.1798
vn 0.2665 0.9480 0.1738
vn 0.2596 0.9525 0.1589
vn 0.5608 0.1554 -0.8133
vn 0.5609 0.1551 -0.8132
vn 0.5600 0.1567 -0.8135
vn 0.5957 0.1816 -0.7824
vn 0.6864 0.1549 -0.7105
vn 0.6461 0.1659 -0.7450
vn 0.5705 -0.1466 -0.8081
vn 0.5656 -0.0407 -0.8237
vn 0.0567 -0.9042 -0.4233
vn 0.2538 0.9469 0.1972
vn 0.1495 0.9426 0.2986
vn -0.3047 0.6300 0.7143
vn -0.5705 0.2387 0.7858
vn -0.3267 0.6118 0.7204
vn 0.0589 -0.9082 -0.4144
vn -0.6345 0.1742 0.7530
vn 0.6957 0.2934 -0.6557
vn 0.6989 0.2618 -0.6656
vn 0.6435 -0.0845 -0.7608
vn 0.6358 -0.0365 -0.7710
vn -0.1378 -0.9899 -0.0336
vn -0.4111 0.7721 0.4846
vn 0.7914 0.0153 -0.6111
vn 0.7914 0.0155 -0.6111
vn 0.7262 0.3482 -0.5928
vn -0.2516 0.7797 0.5735
vn 0.6253 0.7494 -0.2174
vn -0.7026 0.2091 0.6801
vn -0.5942 0.5028 0.6278
vn -0.8153 0.0382 0.5778
vn -0.1420 -0.9576 -0.2506
vn 0.7390 -0.0946 -0.6670
vn 0.7352 -0.0187 -0.6775
vn -0.0195 -0.9185 -0.3950
vn 0.8149 0.5308 -0.2329
vn 0.6004 0.7974 -0.0603
vn 0.9308 0.0106 -0.3653
vn 0.9010 0.3913 -0.1872
vn 0.8765 0.4519 -0.1658
vn 0.9542 -0.0142 -0.2987
vn 0.9500 -0.0547 -0.3073
vn -0.6006 0.5934 0.5358
vn 0.6063 0.7892 -0.0977
vn -0.8711 0.1001 0.4807
vn -0.5190 0.6618 0.5410
vn -0.9178 -0.0234 0.3963
vn -0.0162 -0.9448 -0.3273
vn 0.2467 -0.8409 -0.4816
vn 0.8578 0.2396 0.4548
vn 0.9108 0.0750 0.4059
vn 0.5427 0.7823 0.3057
vn 0.9072 0.2548 0.3347
vn 0.9272 0.1611 0.3381
vn 0.2942 -0.9354 -0.1961
vn 0.2528 -0.9489 -0.1888
vn -0.5196 0.8488 0.0975
vn 0.0525 0.9693 0.2401
vn -0.9413 0.3244 -0.0935
vn -0.5233 0.8487 0.0772
vn -0.5111 0.8569 0.0663
vn -0.5351 0.8402 0.0875
vn -0.9448 0.0731 -0.3195
vn 0.9347 0.0616 0.3501
vn 0.2476 0.8393 0.4841
vn 0.9301 0.1641 0.3285
vn 0.8667 0.3187 0.3838
vn 0.8830 0.2579 0.3922
vn 0.1843 -0.9828 -0.0111
vn 0.1545 -0.9878 -0.0180
vn -0.8403 0.2313 -0.4904
vn -0.5362 -0.3026 -0.7880
vn -0.4999 0.8642 0.0571
vn -0.6819 0.6801 -0.2693
vn -0.2898 -0.0484 -0.9558
vn 0.3326 0.8260 -0.4551
vn 0.3405 0.7884 -0.5123
vn 0.5024 0.8619 -0.0690
vn 0.4820 0.8674 -0.1236
vn 0.3685 0.8891 -0.2716
vn 0.4371 0.8674 -0.2379
vn 0.2928 0.8702 -0.3963
vn 0.8156 0.0890 0.5717
vn -0.6117 0.7139 -0.3407
vn 0.7546 0.5867 0.2938
vn 0.8287 0.2375 0.5068
vn 0.8358 0.2354 0.4961
vn 0.8193 0.2392 0.5211
vn -0.5149 -0.8484 -0.1227
vn -0.5159 -0.8483 -0.1193
vn -0.5147 -0.8484 -0.1234
vn 0.2724 -0.9504 0.1501
vn -0.8367 -0.3572 -0.4152
vn -0.8131 0.0363 -0.5809
vn 0.1094 -0.3082 -0.9450
vn 0.1012 -0.3067 -0.9464
vn 0.0944 -0.3057 -0.9474
vn 0.0028 0.2814 -0.9596
vn 0.0037 0.2798 -0.9600
vn 0.0845 0.1295 -0.9880
vn 0.0745 0.1430 -0.9869
vn 0.8109 -0.1504 0.5655
vn 0.8157 -0.1675 0.5537
vn 0.8323 -0.0421 0.5528
vn 0.8320 -0.0455 0.5529
usemtl None.008
s 1
f 1//1 2//2 3//3
f 1//4 4//5 2//6
f 5//7 1//8 6//9
f 6//10 1//11 3//12
f 7//13 4//14 1//15
f 5//16 7//17 1//18
f 4//19 9//20 2//21
f 6//22 3//23 10//24
f 2//25 9//26 18//27 8//28 10//29 3//30
f 4//31 11//32 9//33
f 12//34 5//34 13//34
f 12//35 14//35 5//35
f 13//36 5//37 6//38
f 14//39 7//40 5//40
f 13//41 6//42 15//43
f 15//44 6//45 10//46
f 14//47 16//48 7//49
f 17//50 15//51 8//52
f 17//53 8//54 18//55
f 15//56 10//57 8//58
f 11//59 18//60 9//61
f 11//62 17//63 18//64
f 19//65 17//66 11//67
f 20//68 14//69 12//69
f 21//70 20//71 12//72
f 22//73 12//73 13//73
f 21//70 12//72 22//74
f 23//75 13//76 15//77
f 22//78 13//79 23//79
f 20//80 24//81 14//82
f 24//83 16//84 14//85
f 23//86 15//86 17//86
f 24//87 25//88 16//89
f 19//90 23//91 17//92
f 26//93 23//94 19//95
f 28//96 24//97 20//98
f 29//99 20//100 21//101
f 29//102 28//103 20//104
f 30//105 21//106 31//107
f 30//108 29//109 21//110
f 31//111 21//112 22//113
f 26//114 22//115 23//116
f 31//117 22//115 26//114
f 32//118 25//119 24//120
f 28//121 32//122 24//123
f 33//124 27//125 25//126
f 32//127 33//128 25//129
f 27//130 31//131 26//132
f 34//133 31//134 27//135
f 33//136 34//137 27//138
f 35//139 32//140 28//141
f 36//142 28//142 29//142
f 36//143 35//144 28//143
f 37//145 29//146 30//147
f 37//148 36//149 29//150
f 38//151 30//152 34//153
f 38//154 37//155 30//156
f 34//157 30//158 31//159
f 35//160 39//161 32//162
f 39//163 33//164 32//165
f 40//166 34//167 33//168
f 39//169 40//170 33//171
f 40//172 38//173 34//174
f 41//175 39//176 35//177
f 42//178 35//179 36//180
f 42//181 41//181 35//181
f 43//182 36//183 37//184
f 43//185 42//186 36//187
f 44//188 37//189 38//190
f 44//191 43//192 37//193
f 45//194 44//195 38//196
f 45//197 38//198 40//199
f 46//200 40//201 39//202
f 41//203 46//203 39//203
f 46//204 45//204 40//204
f 47//205 48//206 41//207
f 47//208 41//208 42//208
f 48//209 46//210 41//211
f 49//212 47//212 42//212
f 49//213 42//213 43//213
f 50//214 43//192 44//191
f 50//215 49//215 43//215
f 51//216 44//217 45//218
f 51//219 50//220 44//221
f 52//222 45//223 46//224
f 52//225 51//226 45//227
f 48//228 52//229 46//230
f 53//231 47//232 49//233
f 53//234 54//235 47//236
f 54//237 48//238 47//239
f 54//237 55//240 48//238
f 55//241 52//242 48//243
f 56//244 49//245 50//246
f 56//247 53//248 49//249
f 57//250 56//251 50//252
f 57//253 50//254 51//255
f 58//256 51//256 52//256
f 58//257 57//257 51//257
f 55//258 58//258 52//258
f 59//259 53//259 56//259
f 59//260 60//260 53//260
f 60//261 54//261 53//261
f 61//262 55//262 54//262
f 60//263 61//263 54//263
f 62//264 58//264 55//264
f 61//265 62//265 55//265
f 63//266 59//266 56//266
f 63//267 56//267 57//267
f 64//268 63//268 57//268
f 64//269 57//269 58//269
f 62//270 64//270 58//270
f 65//271 60//271 59//271
f 66//272 65//272 59//273
f 66//274 59//274 63//274
f 67//275 61//275 60//275
f 65//276 67//276 60//276
f 68//277 62//277 61//277
f 67//278 68//278 61//278
f 68//279 69//279 62//279
f 69//280 64//280 62//280
f 70//281 63//281 64//281
f 70//282 66//282 63//282
f 69//283 70//283 64//283
f 71//284 67//284 65//284
f 72//285 71//285 65//285
f 72//286 65//286 66//286
f 73//287 72//288 66//289
f 73//287 66//289 70//290
f 74//291 68//291 67//291
f 71//292 74//292 67//292
f 75//293 69//293 68//293
f 74//294 75//294 68//294
f 75//295 76//295 69//295
f 76//296 70//296 69//296
f 76//297 73//297 70//297
f 77//298 74//298 71//298
f 78//299 77//299 71//299
f 78//300 71//300 72//300
f 79//301 78//301 72//301
f 79//302 72//302 73//302
f 80//303 79//303 73//303
f 80//304 73//304 76//304
f 81//305 75//305 74//305
f 77//306 81//306 74//306
f 82//307 76//307 75//307
f 81//308 82//309 75//310
f 82//311 80//311 76//311
f 78//312 83//312 77//312
f 81//313 77//313 84//313
f 77//314 83//314 84//314
f 85//315 83//315 78//315
f 85//316 78//316 79//316
f 86//317 85//317 79//317
f 86//318 79//318 80//318
f 87//319 80//319 82//319
f 87//320 86//320 80//320
f 84//321 82//309 81//308
f 84//322 87//322 82//322
f 25//323 27//324 26//325 19//326 11//327 4//328 7//329 16//330
f 89//331 84//331 83//331
f 90//332 87//332 84//332
f 89//333 90//333 84//333
f 88//334 85//335 91//336
f 92//337 91//338 85//339
f 92//340 85//340 86//340
f 87//341 92//341 86//341
f 87//342 90//342 92//342
f 92//343 88//344 91//345
f 92//346 90//347 89//348 88//349
f 88//350 89//351 83//352 85//353
