# Blender 4.4.1
# www.blender.org
o Original_Rib6R_Rib%20Cage%20For%20Blender.013
v 0.132359 -0.114159 -0.109056
v 0.141087 -0.121558 -0.104212
v 0.140714 -0.121294 -0.103342
v 0.130649 -0.112550 -0.111664
v 0.118912 -0.119204 -0.123880
v 0.131417 -0.124335 -0.110609
v 0.117395 -0.102495 -0.120156
v 0.142013 -0.135614 -0.101848
v 0.141795 -0.122654 -0.105930
v 0.141030 -0.130565 -0.099538
v 0.132213 -0.114076 -0.113428
v 0.102773 -0.105866 -0.131677
v 0.117903 -0.118124 -0.125620
v 0.102797 -0.107697 -0.130311
v 0.131477 -0.127921 -0.114765
v 0.103213 -0.093231 -0.126107
v 0.132569 -0.115159 -0.115016
v 0.142952 -0.125454 -0.106197
v 0.118049 -0.102821 -0.122206
v 0.085561 -0.094632 -0.136334
v 0.086503 -0.084335 -0.134918
v 0.103066 -0.095178 -0.130378
v 0.117758 -0.104143 -0.124960
v 0.086167 -0.095681 -0.134331
v 0.088921 -0.080210 -0.129786
v 0.104285 -0.091721 -0.127813
v 0.085533 -0.078794 -0.131031
v 0.067675 -0.082912 -0.137857
v 0.069755 -0.071493 -0.136021
v 0.072472 -0.069463 -0.133353
v 0.088541 -0.081548 -0.132647
v 0.069609 -0.082161 -0.136062
v 0.072697 -0.068770 -0.131282
v 0.069624 -0.067982 -0.131924
v 0.047564 -0.069220 -0.135840
v 0.050030 -0.058962 -0.134610
v 0.053429 -0.058351 -0.133073
v 0.051245 -0.056004 -0.130253
v 0.052583 -0.058528 -0.129740
v 0.052483 -0.055772 -0.128508
v 0.029951 -0.059219 -0.131439
v 0.032784 -0.048660 -0.129568
v 0.037055 -0.048616 -0.128585
v 0.034931 -0.045489 -0.124822
v 0.037847 -0.047087 -0.124688
v 0.035785 -0.049820 -0.126354
v 0.018369 -0.039331 -0.121572
v 0.011329 -0.047868 -0.120710
v 0.022375 -0.039112 -0.122702
v 0.020174 -0.035838 -0.117740
v 0.022611 -0.037331 -0.118110
v 0.021485 -0.043630 -0.118891
v 0.009593 -0.030595 -0.111664
v 0.002168 -0.030292 -0.108330
v -0.001746 -0.039362 -0.108853
v 0.006862 -0.028571 -0.106228
v 0.008302 -0.031626 -0.106929
v 0.007896 -0.038677 -0.107479
v -0.007249 -0.021055 -0.092623
v -0.004835 -0.023539 -0.098987
v -0.010073 -0.023061 -0.096240
v -0.015105 -0.033570 -0.095140
v -0.003839 -0.025727 -0.094872
v -0.005709 -0.035547 -0.095118
v -0.016807 -0.017787 -0.079046
v -0.017076 -0.021873 -0.079040
v -0.015658 -0.017057 -0.085263
v -0.022058 -0.020240 -0.082031
v -0.025043 -0.027394 -0.078903
v -0.017947 -0.027899 -0.078803
v -0.026220 -0.011226 -0.055618
v -0.024647 -0.012579 -0.055911
v -0.023483 -0.016048 -0.053954
v -0.028846 -0.008445 -0.059213
v -0.032202 -0.010133 -0.058335
v -0.034782 -0.018091 -0.052809
v -0.018539 -0.005064 -0.039499
v -0.019098 -0.010689 -0.040901
v -0.018807 -0.012655 -0.041240
v -0.026964 -0.013385 -0.034092
v -0.025017 -0.005332 -0.043892
v -0.027958 -0.006644 -0.039222
v -0.013330 -0.008139 -0.026901
v -0.014788 0.000102 -0.028254
v -0.010553 -0.011923 -0.023414
v -0.014763 -0.012381 -0.025676
v -0.017164 -0.003661 -0.024214
v 0.001195 -0.014804 -0.006688
v 0.002003 -0.011921 -0.006663
v -0.005381 -0.002582 -0.009113
v 0.000319 -0.016640 -0.007635
v -0.003939 -0.013778 -0.005752
vn 0.4845 0.8694 0.0968
vn 0.4755 0.8782 0.0514
vn 0.4798 0.8735 0.0819
vn 0.0734 0.6571 0.7503
vn 0.1521 0.6000 0.7854
vn 0.0145 0.7008 0.7132
vn -0.7615 -0.1094 0.6389
vn -0.7640 -0.1074 0.6362
vn -0.7606 -0.1100 0.6398
vn -0.6148 -0.1337 0.7773
vn -0.6104 -0.1324 0.7809
vn -0.6161 -0.1340 0.7762
vn -0.1175 0.6888 0.7154
vn 0.0013 0.6115 0.7913
vn -0.0534 0.6461 0.7614
vn -0.7080 -0.2578 0.6575
vn -0.7077 -0.2584 0.6575
vn -0.7086 -0.2556 0.6576
vn 0.6979 0.7127 -0.0703
vn 0.7077 0.7018 -0.0819
vn 0.7071 0.7024 -0.0811
vn -0.6959 0.2893 0.6573
vn -0.7010 0.2859 0.6534
vn -0.7072 0.2805 0.6490
vn 0.7142 0.3933 0.5790
vn 0.9558 0.1418 0.2577
vn 0.9710 0.1013 0.2165
vn 0.8223 0.2516 0.5104
vn 0.8286 0.2226 0.5138
vn 0.8582 0.2142 0.4665
vn 0.6705 0.7410 0.0364
vn 0.6711 0.7405 0.0356
vn 0.6714 0.7403 0.0352
vn -0.5202 -0.8388 -0.1606
vn -0.0379 -0.6154 -0.7873
vn 0.4874 -0.6216 -0.6132
vn 0.4874 -0.6215 -0.6133
vn 0.4875 -0.6219 -0.6128
vn -0.5165 -0.2532 0.8180
vn -0.5164 -0.2532 0.8181
vn -0.5126 -0.2585 0.8188
vn -0.5245 -0.8469 0.0876
vn -0.3528 -0.8724 0.3384
vn -0.4348 -0.8797 0.1927
vn -0.6294 -0.7381 0.2430
vn -0.6151 -0.7427 0.2647
vn -0.6577 -0.7245 0.2065
vn -0.5195 -0.2474 0.8179
vn 0.8092 -0.0206 -0.5872
vn 0.8094 -0.0226 -0.5868
vn 0.8093 -0.0214 -0.5870
vn 0.4381 -0.3792 -0.8150
vn 0.4370 -0.3679 -0.8208
vn 0.4378 -0.3721 -0.8185
vn -0.5284 -0.8477 0.0477
vn -0.3875 -0.8771 0.2839
vn -0.4697 -0.8726 0.1338
vn 0.7940 0.3863 -0.4694
vn 0.7862 0.4114 -0.4611
vn 0.7876 0.4078 -0.4618
vn 0.7815 0.5968 -0.1819
vn 0.7816 0.5965 -0.1825
vn 0.7816 0.5966 -0.1823
vn 0.5987 0.7339 -0.3209
vn 0.5988 0.7337 -0.3211
vn 0.5987 0.7340 -0.3208
vn -0.0650 -0.6134 -0.7871
vn -0.0648 -0.6147 -0.7861
vn 0.3473 0.1110 -0.9312
vn 0.3423 0.1063 -0.9335
vn 0.3425 0.1067 -0.9334
vn 0.4596 0.1116 -0.8811
vn 0.3474 0.1115 -0.9311
vn 0.6503 0.0798 -0.7555
vn 0.6503 0.0797 -0.7555
vn 0.6505 0.0810 -0.7552
vn 0.4047 0.0628 -0.9123
vn 0.4046 0.0629 -0.9123
vn -0.4088 -0.8634 -0.2957
vn -0.4080 -0.8643 -0.2941
vn -0.4090 -0.8630 -0.2965
vn -0.3902 -0.2605 0.8831
vn -0.3910 -0.2605 0.8827
vn -0.3887 -0.2591 0.8842
vn 0.5715 -0.0290 -0.8201
vn -0.3911 -0.2602 0.8828
vn 0.6220 0.6875 -0.3747
vn 0.6220 0.6873 -0.3752
vn 0.6222 0.6849 -0.3792
vn 0.6475 0.6702 -0.3628
vn 0.6475 0.6697 -0.3636
vn 0.6475 0.6698 -0.3634
vn -0.3553 -0.8758 -0.3267
vn -0.3518 -0.8802 -0.3185
vn -0.3521 -0.8798 -0.3192
vn 0.2042 0.1156 -0.9721
vn 0.2041 0.1159 -0.9721
vn 0.2006 0.1130 -0.9731
vn 0.2072 0.1185 -0.9711
vn 0.3213 0.4679 -0.8233
vn 0.3206 0.4675 -0.8238
vn 0.3198 0.4669 -0.8245
vn 0.3646 0.5349 -0.7622
vn 0.3628 0.5337 -0.7639
vn 0.3769 0.5401 -0.7525
vn 0.4289 0.3829 -0.8182
vn 0.4280 0.3819 -0.8191
vn 0.4347 0.3877 -0.8128
vn 0.4979 0.4176 -0.7601
vn 0.4954 0.4208 -0.7599
vn 0.5265 0.3969 -0.7519
vn 0.4654 0.4409 -0.7674
vn -0.3177 -0.2602 0.9118
vn -0.3158 -0.2615 0.9121
vn -0.3169 -0.2608 0.9119
vn -0.4182 -0.6623 0.6216
vn -0.4049 -0.6625 0.6302
vn -0.4377 -0.6601 0.6105
vn 0.1131 0.5128 0.8510
vn 0.0958 0.5221 0.8475
vn 0.1030 0.5182 0.8490
vn -0.3017 -0.3075 0.9024
vn -0.2995 -0.3085 0.9028
vn -0.3032 -0.3068 0.9022
vn 0.4989 0.8095 -0.3097
vn 0.4986 0.8097 -0.3095
vn 0.4980 0.8102 -0.3092
vn 0.4305 0.7949 -0.4276
vn 0.4313 0.7943 -0.4278
vn 0.4313 0.7944 -0.4278
vn -0.0119 0.2850 0.9585
vn -0.0223 0.2899 0.9568
vn 0.0037 0.2775 0.9607
vn -0.3236 -0.7164 0.6181
vn -0.2996 -0.7130 0.6339
vn -0.3041 -0.7143 0.6303
vn 0.0538 0.1378 -0.9890
vn 0.0152 0.1030 -0.9946
vn 0.0152 0.1029 -0.9946
vn 0.2764 0.6149 -0.7386
vn 0.2746 0.6141 -0.7399
vn 0.2743 0.6140 -0.7401
vn 0.2456 0.5671 -0.7862
vn 0.2442 0.5668 -0.7868
vn 0.2514 0.5678 -0.7838
vn 0.4344 0.8946 0.1042
vn 0.4345 0.8946 0.1042
vn 0.3697 0.8522 -0.3703
vn 0.3694 0.8524 -0.3701
vn 0.3680 0.8537 -0.3685
vn 0.4487 0.8810 0.1498
vn 0.4486 0.8811 0.1498
vn 0.4488 0.8810 0.1498
vn -0.2443 -0.5078 0.8261
vn -0.2373 -0.5092 0.8273
vn -0.2530 -0.5054 0.8250
vn -0.0964 -0.3328 0.9381
vn -0.0941 -0.3325 0.9384
vn -0.0950 -0.3326 0.9383
vn 0.4032 0.5937 0.6964
vn 0.3829 0.6048 0.6982
vn 0.3922 0.5997 0.6975
vn -0.1348 -0.3772 0.9163
vn -0.1346 -0.3772 0.9163
vn -0.1333 -0.3776 0.9163
vn 0.3767 0.8346 -0.4020
vn 0.3760 0.8344 -0.4030
vn 0.3821 0.8352 -0.3954
vn -0.0474 -0.5684 0.8214
vn -0.0327 -0.5678 0.8225
vn -0.0434 -0.5684 0.8216
vn -0.1562 0.1293 -0.9792
vn -0.1562 0.1295 -0.9792
vn -0.1562 0.1294 -0.9792
vn -0.1058 0.1794 -0.9781
vn 0.1478 0.7368 -0.6598
vn 0.1451 0.7363 -0.6609
vn 0.1456 0.7364 -0.6607
vn 0.1274 0.7011 -0.7016
vn 0.1273 0.7011 -0.7016
vn 0.1283 0.7011 -0.7014
vn 0.2283 0.8454 -0.4828
vn 0.2292 0.8446 -0.4838
vn 0.2298 0.8439 -0.4847
vn 0.2270 0.8185 -0.5278
vn 0.2059 0.8184 -0.5365
vn 0.1892 0.8170 -0.5448
vn 0.4114 0.9081 0.0777
vn 0.4113 0.9082 0.0774
vn 0.4116 0.9081 0.0774
vn 0.2701 0.9042 -0.3309
vn 0.2684 0.9039 -0.3329
vn 0.2691 0.9040 -0.3321
vn -0.0295 -0.3910 0.9199
vn -0.0296 -0.3909 0.9200
vn -0.0299 -0.3908 0.9200
vn -0.0528 -0.4364 0.8982
vn -0.0571 -0.4738 0.8788
vn -0.3246 0.2119 -0.9218
vn -0.3253 0.2135 -0.9212
vn -0.3242 0.2114 -0.9221
vn -0.3246 0.2113 -0.9219
vn 0.1449 -0.5089 0.8485
vn 0.1445 -0.5096 0.8482
vn 0.1455 -0.5081 0.8489
vn -0.2641 0.3128 -0.9124
vn 0.1337 0.6804 -0.7205
vn 0.2441 0.8190 -0.5193
vn 0.3442 0.8571 -0.3832
vn 0.4007 0.9115 0.0929
vn 0.4031 0.9104 0.0932
vn 0.5866 0.3728 0.7190
vn 0.6697 0.3244 0.6680
vn 0.4986 0.4221 0.7571
vn 0.1644 -0.5693 0.8055
vn 0.1645 -0.5692 0.8056
vn 0.1643 -0.5695 0.8054
vn 0.2732 -0.1316 0.9529
vn 0.2732 -0.1317 0.9529
vn 0.2733 -0.1314 0.9529
vn 0.0996 -0.8238 0.5581
vn 0.0974 -0.8238 0.5585
vn 0.0841 -0.8234 0.5612
vn -0.2579 0.6113 -0.7482
vn -0.2582 0.6113 -0.7481
vn -0.2581 0.6113 -0.7482
vn -0.3286 0.5340 -0.7790
vn -0.3288 0.5340 -0.7789
vn -0.3282 0.5340 -0.7791
vn -0.4961 0.2478 -0.8321
vn -0.4695 0.2770 -0.8383
vn -0.4488 0.2968 -0.8429
vn -0.5198 0.2226 -0.8248
vn 0.1061 -0.8214 0.5604
vn 0.1332 -0.8244 0.5501
vn 0.1181 -0.8231 0.5555
vn -0.2732 0.7252 -0.6320
vn -0.2737 0.7259 -0.6310
vn -0.2733 0.7253 -0.6319
vn 0.2696 0.9460 -0.1798
vn 0.2666 0.9480 -0.1738
vn 0.2597 0.9525 -0.1589
vn 0.5608 0.1554 0.8132
vn 0.5609 0.1551 0.8132
vn 0.5601 0.1567 0.8135
vn 0.5957 0.1816 0.7824
vn 0.6864 0.1549 0.7105
vn 0.6461 0.1659 0.7450
vn 0.5705 -0.1466 0.8081
vn 0.5656 -0.0407 0.8237
vn 0.0580 -0.9062 0.4189
vn 0.0567 -0.9042 0.4233
vn 0.2538 0.9469 -0.1972
vn 0.1495 0.9426 -0.2986
vn -0.3047 0.6300 -0.7143
vn -0.5705 0.2387 -0.7858
vn -0.3267 0.6118 -0.7204
vn 0.0589 -0.9082 0.4144
vn -0.6345 0.1742 -0.7530
vn 0.6957 0.2934 0.6557
vn 0.6989 0.2618 0.6656
vn 0.6435 -0.0845 0.7608
vn 0.6358 -0.0365 0.7710
vn -0.1378 -0.9899 0.0336
vn -0.4111 0.7721 -0.4846
vn 0.7914 0.0153 0.6111
vn 0.7914 0.0155 0.6111
vn 0.7262 0.3482 0.5928
vn -0.2516 0.7797 -0.5735
vn 0.6254 0.7494 0.2174
vn -0.7026 0.2091 -0.6801
vn -0.5942 0.5028 -0.6278
vn -0.8153 0.0382 -0.5778
vn -0.1420 -0.9576 0.2506
vn 0.7390 -0.0946 0.6670
vn 0.7352 -0.0187 0.6775
vn -0.0195 -0.9185 0.3950
vn 0.8149 0.5308 0.2329
vn 0.6004 0.7974 0.0603
vn 0.9308 0.0106 0.3653
vn 0.9010 0.3913 0.1872
vn 0.8765 0.4519 0.1658
vn 0.9542 -0.0142 0.2987
vn 0.9500 -0.0547 0.3073
vn -0.6006 0.5934 -0.5358
vn 0.6063 0.7892 0.0977
vn -0.8711 0.1001 -0.4807
vn -0.5190 0.6618 -0.5410
vn -0.9178 -0.0234 -0.3963
vn -0.0162 -0.9448 0.3273
vn 0.2467 -0.8409 0.4816
vn 0.8578 0.2396 -0.4548
vn 0.9108 0.0750 -0.4059
vn 0.5427 0.7823 -0.3057
vn 0.9072 0.2548 -0.3347
vn 0.9272 0.1611 -0.3381
vn 0.2942 -0.9354 0.1961
vn 0.2528 -0.9489 0.1888
vn -0.5196 0.8488 -0.0975
vn 0.0525 0.9693 -0.2401
vn -0.9413 0.3244 0.0935
vn -0.5233 0.8487 -0.0772
vn -0.5111 0.8570 -0.0663
vn -0.5351 0.8403 -0.0875
vn -0.9448 0.0731 0.3195
vn 0.9347 0.0616 -0.3501
vn 0.2476 0.8393 -0.4841
vn 0.9301 0.1641 -0.3285
vn 0.8667 0.3187 -0.3838
vn 0.8830 0.2579 -0.3922
vn 0.1843 -0.9828 0.0111
vn 0.1545 -0.9878 0.0180
vn -0.8403 0.2313 0.4904
vn -0.5362 -0.3026 0.7880
vn -0.4999 0.8642 -0.0571
vn -0.6819 0.6801 0.2693
vn -0.2898 -0.0484 0.9558
vn 0.3326 0.8260 0.4551
vn 0.3405 0.7884 0.5123
vn 0.5024 0.8619 0.0690
vn 0.4820 0.8674 0.1236
vn 0.3685 0.8891 0.2716
vn 0.4371 0.8674 0.2379
vn 0.2929 0.8702 0.3963
vn 0.8156 0.0890 -0.5717
vn -0.6117 0.7139 0.3407
vn 0.7546 0.5867 -0.2938
vn 0.8287 0.2375 -0.5068
vn 0.8358 0.2354 -0.4961
vn 0.8193 0.2392 -0.5211
vn -0.5149 -0.8484 0.1227
vn -0.5159 -0.8483 0.1193
vn -0.5147 -0.8484 0.1234
vn 0.2724 -0.9504 -0.1501
vn -0.8367 -0.3572 0.4152
vn -0.8131 0.0363 0.5809
vn 0.1094 -0.3082 0.9450
vn 0.1012 -0.3067 0.9464
vn 0.0944 -0.3058 0.9474
vn 0.0028 0.2814 0.9596
vn 0.0037 0.2798 0.9601
vn 0.0845 0.1295 0.9880
vn 0.0745 0.1430 0.9869
vn 0.8109 -0.1504 -0.5655
vn 0.8157 -0.1675 -0.5537
vn 0.8323 -0.0421 -0.5528
vn 0.8320 -0.0455 -0.5529
s 1
f 1//1 3//3 2//2
f 1//4 2//6 4//5
f 5//7 6//9 1//8
f 6//10 3//12 1//11
f 7//13 1//15 4//14
f 5//16 1//18 7//17
f 4//19 2//21 9//20
f 6//22 10//24 3//23
f 2//25 3//30 10//29 8//28 18//27 9//26
f 4//31 9//33 11//32
f 12//34 13//34 5//34
f 12//35 5//35 14//35
f 13//36 6//38 5//37
f 14//39 5//41 7//40
f 13//42 15//44 6//43
f 15//45 10//47 6//46
f 14//39 7//40 16//48
f 17//49 8//51 15//50
f 17//52 18//54 8//53
f 15//55 8//57 10//56
f 11//58 9//60 18//59
f 11//61 18//63 17//62
f 19//64 11//66 17//65
f 20//67 12//68 14//68
f 21//69 12//71 20//70
f 22//72 13//72 12//72
f 21//69 22//73 12//71
f 23//74 15//76 13//75
f 22//77 23//78 13//78
f 20//79 14//81 24//80
f 24//82 14//84 16//83
f 23//85 17//85 15//85
f 24//82 16//83 25//86
f 19//87 17//89 23//88
f 26//90 19//92 23//91
f 28//93 20//95 24//94
f 29//96 21//98 20//97
f 29//96 20//97 28//99
f 30//100 31//102 21//101
f 30//103 21//105 29//104
f 31//106 22//108 21//107
f 26//109 23//111 22//110
f 31//112 26//109 22//110
f 32//113 24//115 25//114
f 28//116 24//118 32//117
f 33//119 25//121 27//120
f 32//122 25//124 33//123
f 27//125 26//127 31//126
f 34//128 27//130 31//129
f 33//131 27//133 34//132
f 35//134 28//136 32//135
f 36//137 29//137 28//137
f 36//138 28//138 35//139
f 37//140 30//142 29//141
f 37//143 29//145 36//144
f 38//146 34//147 30//147
f 38//148 30//150 37//149
f 34//151 31//153 30//152
f 35//154 32//156 39//155
f 39//157 32//159 33//158
f 40//160 33//162 34//161
f 39//163 33//165 40//164
f 40//166 34//168 38//167
f 41//169 35//171 39//170
f 42//172 36//174 35//173
f 42//175 35//175 41//175
f 43//176 37//178 36//177
f 43//179 36//181 42//180
f 44//182 38//184 37//183
f 44//185 37//187 43//186
f 45//188 38//190 44//189
f 45//191 40//193 38//192
f 46//194 39//196 40//195
f 41//197 39//197 46//197
f 46//198 40//198 45//198
f 47//199 41//201 48//200
f 47//199 42//202 41//201
f 48//203 41//205 46//204
f 49//206 42//206 47//206
f 49//207 43//207 42//207
f 50//208 44//185 43//186
f 50//209 43//209 49//209
f 51//210 45//211 44//211
f 51//212 44//214 50//213
f 52//215 46//217 45//216
f 52//218 45//220 51//219
f 48//221 46//223 52//222
f 53//224 49//226 47//225
f 53//227 47//229 54//228
f 54//230 47//232 48//231
f 54//230 48//231 55//233
f 55//234 48//236 52//235
f 56//237 50//239 49//238
f 56//240 49//242 53//241
f 57//243 50//245 56//244
f 57//246 51//248 50//247
f 58//249 52//249 51//249
f 58//250 51//250 57//250
f 55//251 52//252 58//251
f 59//253 56//253 53//253
f 59//254 53//254 60//254
f 60//255 53//255 54//255
f 61//256 54//256 55//256
f 60//257 54//257 61//257
f 62//258 55//251 58//251
f 61//259 55//259 62//259
f 63//260 56//260 59//260
f 63//261 57//261 56//261
f 64//262 57//262 63//262
f 64//263 58//263 57//263
f 62//264 58//264 64//264
f 65//265 59//265 60//265
f 66//266 59//267 65//266
f 66//268 63//268 59//268
f 67//269 60//269 61//269
f 65//270 60//270 67//270
f 68//271 61//271 62//271
f 67//272 61//272 68//272
f 68//273 62//273 69//273
f 69//274 62//274 64//274
f 70//275 64//275 63//275
f 70//276 63//276 66//276
f 69//277 64//277 70//277
f 71//278 65//278 67//278
f 72//279 65//279 71//279
f 72//280 66//280 65//280
f 73//281 66//283 72//282
f 73//281 70//284 66//283
f 74//285 67//285 68//285
f 71//286 67//286 74//286
f 75//287 68//287 69//287
f 74//288 68//288 75//288
f 75//289 69//289 76//289
f 76//290 69//290 70//290
f 76//291 70//291 73//291
f 77//292 71//292 74//292
f 78//293 71//293 77//293
f 78//294 72//294 71//294
f 79//295 72//295 78//295
f 79//296 73//296 72//296
f 80//297 73//297 79//297
f 80//298 76//298 73//298
f 81//299 74//299 75//299
f 77//300 74//300 81//300
f 82//301 75//301 76//301
f 81//302 75//304 82//303
f 82//305 76//305 80//305
f 78//306 77//306 83//306
f 81//307 84//307 77//307
f 77//308 84//308 83//308
f 85//309 78//309 83//309
f 85//310 79//310 78//310
f 86//311 79//311 85//311
f 86//312 80//312 79//312
f 87//313 82//313 80//313
f 87//314 80//314 86//314
f 84//315 81//302 82//303
f 84//316 82//316 87//316
f 25//317 16//324 7//323 4//322 11//321 19//320 26//319 27//318
f 89//325 83//325 84//325
f 90//326 84//326 87//326
f 89//327 84//327 90//327
f 88//328 91//330 85//329
f 92//331 85//333 91//332
f 92//334 86//334 85//334
f 87//335 86//335 92//335
f 87//336 92//336 90//336
f 92//337 91//339 88//338
f 92//340 88//343 89//342 90//341
f 88//344 85//347 83//346 89//345
