# Blender 4.4.1
# www.blender.org
o Original_Rib7R_Rib%20Cage%20For%20Blender.015
v 0.130075 -0.120607 -0.129597
v 0.128127 -0.123404 -0.131446
v 0.142052 -0.128793 -0.125376
v 0.130418 -0.118857 -0.127193
v 0.142340 -0.126483 -0.123669
v 0.115931 -0.113634 -0.136193
v 0.113882 -0.115691 -0.136408
v 0.108613 -0.124316 -0.131650
v 0.119967 -0.130835 -0.128118
v 0.140676 -0.130884 -0.124876
v 0.139259 -0.140134 -0.119212
v 0.117919 -0.111896 -0.132579
v 0.142814 -0.124880 -0.117441
v 0.131462 -0.117079 -0.122581
v 0.097595 -0.103115 -0.141376
v 0.095588 -0.104178 -0.141570
v 0.092181 -0.114059 -0.137598
v 0.097200 -0.109066 -0.135883
v 0.116748 -0.112838 -0.128646
v 0.120865 -0.111543 -0.126447
v 0.099062 -0.100830 -0.137974
v 0.080163 -0.092958 -0.145778
v 0.081269 -0.091874 -0.145510
v 0.075008 -0.101539 -0.140935
v 0.100915 -0.099147 -0.134849
v 0.084675 -0.088807 -0.139309
v 0.082366 -0.090823 -0.144267
v 0.062992 -0.080290 -0.148307
v 0.059515 -0.091619 -0.142461
v 0.064700 -0.079232 -0.147313
v 0.068067 -0.077094 -0.141091
v 0.065946 -0.078205 -0.144522
v 0.039409 -0.075286 -0.138513
v 0.045209 -0.065814 -0.144176
v 0.051852 -0.070434 -0.138348
v 0.047818 -0.065114 -0.141779
v 0.052655 -0.065006 -0.136837
v 0.050629 -0.064989 -0.139264
v 0.025904 -0.065862 -0.133232
v 0.031343 -0.053843 -0.136197
v 0.037394 -0.053300 -0.130099
v 0.035345 -0.054096 -0.133407
v 0.035421 -0.053095 -0.131258
v 0.011244 -0.054322 -0.125903
v 0.021241 -0.043660 -0.122369
v 0.023447 -0.044202 -0.123846
v 0.017008 -0.043025 -0.127016
v 0.020675 -0.043484 -0.123422
v 0.020710 -0.044068 -0.125191
v -0.003043 -0.042444 -0.115391
v 0.003959 -0.038136 -0.113773
v 0.009976 -0.035828 -0.111992
v 0.007333 -0.032188 -0.110630
v 0.002344 -0.032720 -0.114119
v 0.006376 -0.032059 -0.112427
v -0.016887 -0.031967 -0.099361
v -0.009413 -0.029326 -0.099299
v -0.007104 -0.026917 -0.100371
v -0.005464 -0.023251 -0.097377
v -0.007248 -0.021446 -0.098390
v -0.010992 -0.023969 -0.099706
v -0.027731 -0.022543 -0.083229
v -0.020921 -0.019830 -0.082102
v -0.020629 -0.016285 -0.080886
v -0.021308 -0.014526 -0.082137
v -0.019495 -0.012722 -0.084783
v -0.024538 -0.014163 -0.083368
v -0.032068 -0.015566 -0.054926
v -0.022928 -0.011400 -0.058002
v -0.023358 -0.009768 -0.057966
v -0.022814 -0.006177 -0.058399
v -0.025124 -0.005983 -0.060634
v -0.030409 -0.008160 -0.059013
v -0.021261 -0.007366 -0.039846
v -0.026871 -0.012249 -0.036395
v -0.019473 -0.005541 -0.038276
v -0.018495 -0.003089 -0.037229
v -0.022449 -0.000558 -0.041012
v -0.027815 -0.002624 -0.038630
v -0.006205 -0.008160 -0.020106
v -0.010210 -0.011046 -0.025933
v -0.015081 -0.010404 -0.018366
v -0.003393 -0.006047 -0.019280
v -0.008551 -0.001640 -0.022028
v -0.012419 -0.003694 -0.019926
v 0.007329 -0.011136 -0.007230
v 0.008486 -0.015859 -0.007985
v 0.004034 -0.019973 -0.006661
v -0.001279 -0.007202 -0.003813
v -0.000053 -0.013123 -0.005496
v 0.004332 -0.006675 -0.005692
vn 0.3952 0.2172 -0.8925
vn 0.4214 0.6529 -0.6294
vn 0.4215 0.6528 -0.6294
vn 0.4458 0.4560 -0.7703
vn 0.3403 -0.2690 -0.9010
vn 0.3676 0.2324 -0.9005
vn 0.4212 0.6530 -0.6295
vn 0.1116 -0.5849 -0.8034
vn 0.0966 -0.5286 -0.8433
vn 0.2131 -0.5864 -0.7815
vn 0.2330 -0.5367 -0.8110
vn 0.2277 -0.4771 -0.8489
vn 0.2960 -0.4286 -0.8536
vn 0.6468 -0.0534 -0.7608
vn 0.7306 -0.1722 -0.6607
vn 0.9945 0.1021 -0.0228
vn 0.9908 0.1040 -0.0864
vn 0.9943 0.0500 -0.0941
vn 0.4421 0.5917 -0.6741
vn 0.2668 0.8715 -0.4114
vn 0.4558 0.4409 -0.7732
vn 0.5113 0.5036 -0.6964
vn 0.4181 0.7534 -0.5075
vn 0.2312 0.8626 -0.4500
vn 0.3948 0.6818 -0.6158
vn 0.1657 0.5453 -0.8217
vn 0.3833 0.6313 -0.6742
vn 0.2073 -0.1823 -0.9611
vn 0.1915 -0.2432 -0.9509
vn 0.0780 -0.4785 -0.8746
vn 0.0889 -0.5802 -0.8096
vn 0.2692 -0.5698 -0.7764
vn 0.1429 -0.4527 -0.8801
vn 0.1367 -0.5199 -0.8432
vn 0.3582 0.8390 -0.4097
vn 0.3582 0.8390 -0.4096
vn 0.3812 0.8250 -0.4172
vn 0.3891 0.5943 -0.7038
vn 0.3892 0.5943 -0.7038
vn 0.1731 -0.2205 -0.9599
vn 0.4174 0.5798 -0.6997
vn 0.2212 -0.0793 -0.9720
vn -0.0132 -0.5632 -0.8262
vn -0.0218 -0.4687 -0.8831
vn -0.0218 -0.4688 -0.8831
vn 0.4642 0.5375 -0.7040
vn 0.4206 0.3679 -0.8293
vn 0.4361 0.5581 -0.7059
vn -0.1048 -0.5407 -0.8347
vn -0.1054 -0.5382 -0.8362
vn -0.1060 -0.5357 -0.8377
vn 0.1536 -0.0322 -0.9876
vn 0.2502 0.2508 -0.9351
vn 0.3262 0.4365 -0.8385
vn 0.4126 0.6714 -0.6156
vn 0.3785 0.6764 -0.6318
vn 0.3786 0.6921 -0.6145
vn 0.3859 0.7098 -0.5893
vn -0.3678 -0.4856 -0.7930
vn -0.3742 -0.4418 -0.8154
vn 0.0852 0.4047 -0.9105
vn 0.3055 0.7533 -0.5824
vn 0.3056 0.7533 -0.5824
vn 0.2282 0.6713 -0.7052
vn 0.3292 0.7936 -0.5117
vn 0.2953 0.7318 -0.6143
vn 0.2886 0.7213 -0.6296
vn 0.2883 0.7248 -0.6257
vn 0.2868 0.7234 -0.6281
vn -0.4466 -0.4018 -0.7994
vn -0.5009 -0.1899 -0.8444
vn 0.1626 0.7262 -0.6680
vn 0.2163 0.7881 -0.5762
vn 0.2154 0.7881 -0.5766
vn 0.2160 0.7883 -0.5761
vn 0.2148 0.7864 -0.5791
vn 0.2115 0.7685 -0.6039
vn 0.2754 0.8349 -0.4765
vn 0.2585 0.8247 -0.5030
vn -0.4601 -0.2069 -0.8634
vn -0.4884 -0.0509 -0.8712
vn 0.1795 0.8240 -0.5374
vn 0.1796 0.8240 -0.5374
vn -0.0955 0.4944 -0.8640
vn 0.1567 0.8375 -0.5235
vn 0.1567 0.8375 -0.5236
vn 0.2259 0.8689 -0.4404
vn 0.1759 0.8389 -0.5151
vn 0.2391 0.8880 -0.3927
vn -0.5285 -0.0341 -0.8482
vn -0.0470 0.7329 -0.6787
vn 0.2022 0.8996 -0.3871
vn 0.2021 0.8996 -0.3871
vn -0.5344 0.1668 -0.8286
vn 0.3347 0.8831 -0.3289
vn 0.3330 0.8838 -0.3288
vn 0.3343 0.8844 -0.3258
vn 0.2926 0.8760 -0.3834
vn 0.2926 0.8760 -0.3835
vn -0.0395 0.7180 -0.6949
vn -0.0394 0.7180 -0.6949
vn -0.6271 0.1976 -0.7535
vn 0.5150 0.8568 0.0243
vn 0.5151 0.8568 0.0243
vn 0.5125 0.8581 0.0307
vn 0.2975 0.9037 -0.3080
vn 0.3004 0.9023 -0.3091
vn 0.2944 0.9044 -0.3088
vn -0.6292 0.1729 -0.7578
vn -0.1193 0.8062 -0.5795
vn -0.3425 0.5327 -0.7739
vn -0.6975 0.2186 -0.6824
vn 0.5177 0.8554 0.0179
vn -0.4892 0.4226 -0.7629
vn -0.4884 0.4238 -0.7628
vn -0.4014 0.5741 -0.7136
vn -0.4010 0.5753 -0.7129
vn -0.7161 0.0265 -0.6975
vn 0.9001 0.4287 -0.0773
vn 0.9893 0.0732 0.1263
vn 0.9889 0.0735 0.1290
vn 0.9890 0.0716 0.1297
vn 0.8634 0.4875 -0.1301
vn 0.8634 0.4874 -0.1301
vn 0.9889 0.0754 0.1282
vn 0.1759 0.8962 -0.4073
vn 0.1739 0.8974 -0.4055
vn -0.5083 0.7683 -0.3891
vn -0.6010 0.6851 -0.4116
vn -0.6011 0.6851 -0.4116
vn 0.8678 0.3926 -0.3045
vn 0.7954 -0.5841 0.1619
vn 0.9814 -0.0032 -0.1917
vn 0.9812 -0.1555 -0.1144
vn 0.1778 0.8950 -0.4091
vn 0.5257 0.7771 -0.3461
vn -0.5880 0.7619 -0.2717
vn -0.5874 0.7623 -0.2717
vn -0.5880 0.7618 -0.2717
vn -0.5887 0.7614 -0.2717
vn 0.7884 -0.1627 -0.5933
vn 0.7458 0.1845 -0.6402
vn 0.5048 -0.7531 -0.4219
vn 0.7426 0.0361 -0.6687
vn 0.6976 -0.5337 -0.4780
vn 0.6577 0.4534 -0.6016
vn 0.5821 0.5608 -0.5888
vn 0.6202 -0.4355 -0.6524
vn 0.6165 0.3180 -0.7203
vn 0.7795 0.1246 -0.6139
vn 0.4062 -0.5995 -0.6896
vn 0.5708 0.6742 -0.4687
vn 0.5734 0.6713 -0.4698
vn 0.5733 0.6713 -0.4698
vn 0.5760 0.6683 -0.4707
vn 0.0821 -0.0861 0.9929
vn -0.0519 0.1934 0.9798
vn -0.1442 0.2747 0.9507
vn -0.1495 0.1790 -0.9724
vn -0.2409 -0.8961 0.3728
vn -0.8269 -0.5287 0.1917
vn -0.3135 0.0638 0.9474
vn -0.3244 0.0498 0.9446
vn -0.2838 0.0303 0.9584
vn -0.2361 0.3231 0.9164
vn -0.0456 0.2597 0.9646
vn -0.3775 0.0038 0.9260
vn -0.3662 -0.0155 0.9304
vn 0.2452 0.3502 0.9040
vn 0.0244 0.0792 0.9966
vn 0.1113 0.3156 0.9423
vn 0.1154 0.3542 0.9280
vn -0.3033 -0.8403 -0.4494
vn -0.7179 -0.4515 -0.5298
vn 0.1320 0.3997 0.9071
vn -0.9510 0.2015 -0.2345
vn -0.2260 0.1850 0.9564
vn -0.1295 0.0867 0.9878
vn -0.2435 0.0667 0.9676
vn 0.1027 -0.0372 0.9940
vn 0.7404 0.6377 0.2124
vn 0.4561 0.8826 0.1141
vn 0.2614 -0.1962 0.9451
vn 0.0904 -0.2726 0.9579
vn 0.1824 -0.3725 0.9099
vn 0.1880 -0.3724 0.9088
vn 0.4553 -0.1173 0.8826
vn 0.2601 -0.1318 0.9565
vn 0.2646 -0.4078 0.8739
vn 0.3551 -0.3469 0.8681
vn 0.2424 -0.6290 0.7386
vn 0.2424 -0.6291 0.7386
vn 0.5111 -0.2574 0.8201
vn 0.6687 0.5020 0.5485
vn 0.3829 -0.5591 0.7354
vn 0.3829 -0.5590 0.7355
vn 0.4088 -0.5413 0.7348
vn 0.6735 -0.0547 0.7372
vn 0.2296 -0.6149 0.7544
vn 0.2296 -0.6150 0.7544
vn 0.7017 0.5776 0.4171
vn 0.2876 -0.5309 0.7972
vn 0.2875 -0.5308 0.7972
vn 0.4118 -0.6192 0.6686
vn 0.4124 -0.6197 0.6678
vn 0.4119 -0.6193 0.6684
vn 0.3652 -0.6442 0.6721
vn 0.7711 -0.0584 0.6340
vn 0.7351 -0.1358 0.6642
vn 0.4152 -0.5271 0.7415
vn 0.4151 -0.5271 0.7415
vn 0.7023 0.6867 0.1877
vn 0.6931 0.4189 0.5866
vn -0.9645 0.1368 -0.2260
vn 0.4705 -0.7726 0.4263
vn 0.6297 -0.6913 0.3545
vn 0.9260 -0.1949 0.3232
vn -0.9660 -0.1359 -0.2198
vn -0.9660 -0.1360 -0.2198
vn 0.6140 -0.7530 0.2365
vn 0.7745 -0.6322 0.0211
vn -0.9660 0.1625 0.2011
vn -0.9548 -0.2296 0.1890
vn -0.8216 -0.0477 0.5681
vn 0.2047 -0.9566 0.2076
vn -0.4837 0.8536 0.1935
vn -0.4155 0.8962 0.1553
vn -0.7472 0.3444 0.5684
vn -0.1847 -0.9822 -0.0337
vn -0.7601 0.3413 0.5529
vn -0.5611 -0.3587 0.7460
vn -0.5070 -0.5042 0.6991
vn -0.1707 0.9695 0.1757
vn -0.4238 0.8608 0.2818
vn 0.3422 0.1102 0.9332
vn 0.3694 0.2261 0.9013
vn 0.3716 0.2298 0.8995
vn -0.0006 0.0818 0.9966
vn 0.0405 0.0674 0.9969
vn 0.4425 -0.0593 0.8948
s 1
f 1//1 3//1 2//1
f 4//2 5//3 1//2
f 1//4 5//4 3//4
f 6//5 1//5 7//5
f 7//6 1//6 2//6
f 6//7 4//2 1//2
f 7//8 2//8 8//8
f 8//9 2//9 9//9
f 2//10 10//12 9//11
f 2//13 3//13 10//13
f 11//14 10//18 3//17 5//16 13//15
f 12//19 4//19 6//19
f 4//20 13//22 5//21
f 12//23 14//23 4//23
f 14//24 13//26 4//25
f 15//27 12//27 6//27
f 16//28 6//28 7//28
f 15//29 6//29 16//29
f 16//30 7//30 17//30
f 17//31 7//31 8//31
f 9//32 10//34 11//33
f 20//35 14//36 12//35
f 21//37 20//37 12//37
f 21//38 12//39 15//39
f 22//40 15//40 16//40
f 23//41 21//41 15//41
f 23//42 15//42 22//42
f 22//43 16//43 24//43
f 24//44 16//45 17//44
f 25//46 20//46 21//46
f 27//47 21//47 23//47
f 27//48 25//48 21//48
f 28//49 22//50 29//50
f 29//50 22//50 24//51
f 28//52 23//52 22//52
f 30//53 23//53 28//53
f 30//54 27//54 23//54
f 26//55 25//55 27//55
f 31//56 26//56 32//56
f 32//57 26//57 27//57
f 32//58 27//58 30//58
f 33//59 28//59 29//59
f 34//60 28//60 33//60
f 34//61 30//61 28//61
f 36//62 32//63 30//62
f 36//64 30//64 34//64
f 37//65 31//65 38//65
f 38//66 31//66 32//66
f 38//67 32//69 36//68
f 39//70 34//70 33//70
f 40//71 34//71 39//71
f 40//72 36//72 34//72
f 42//73 38//75 36//74
f 42//73 36//74 40//76
f 41//77 37//77 43//77
f 43//78 37//78 38//78
f 43//79 38//79 42//79
f 44//80 40//80 39//80
f 47//81 40//81 44//81
f 47//82 42//83 40//82
f 46//84 41//84 48//84
f 48//85 41//86 43//86
f 49//87 42//87 47//87
f 49//88 43//88 42//88
f 48//89 43//89 49//89
f 50//90 47//90 44//90
f 53//91 46//91 48//91
f 54//92 49//93 47//93
f 54//94 47//94 50//94
f 53//95 48//97 55//96
f 55//98 48//99 49//99
f 55//100 49//101 54//100
f 56//102 54//102 50//102
f 59//103 53//105 60//104
f 60//106 53//108 55//107
f 61//109 54//109 56//109
f 61//110 55//110 54//110
f 60//111 55//111 61//111
f 62//112 61//112 56//112
f 66//113 59//103 60//104
f 66//114 60//115 67//114
f 67//116 60//117 61//116
f 67//118 61//118 62//118
f 69//119 63//119 70//119
f 70//120 63//122 64//121
f 71//123 64//124 65//124
f 70//120 64//121 71//125
f 71//126 65//127 72//126
f 73//128 66//128 67//128
f 72//129 66//129 73//130
f 76//131 69//131 70//131
f 74//132 69//132 76//132
f 77//133 70//133 71//133
f 76//134 70//134 77//134
f 78//135 71//126 72//126
f 77//136 71//136 78//136
f 79//137 72//139 73//138
f 78//140 72//139 79//137
f 80//141 74//141 76//141
f 81//142 74//142 80//142
f 81//143 75//143 74//143
f 83//144 76//144 77//144
f 80//145 76//145 83//145
f 84//146 77//146 78//146
f 83//147 77//147 84//147
f 86//148 80//148 83//148
f 87//149 80//149 86//149
f 80//150 88//150 81//150
f 80//151 87//151 88//151
f 86//152 83//154 91//153
f 91//153 83//154 84//155
f 19//156 9//161 11//160 13//159 14//158 20//157
f 17//162 8//162 18//162
f 18//163 8//163 19//163
f 8//164 9//164 19//164
f 25//165 18//168 19//167 20//166
f 35//169 29//174 24//173 26//172 31//171 37//170
f 26//175 24//178 17//177 18//176
f 26//179 18//179 25//179
f 33//180 29//180 35//180
f 46//181 45//187 44//186 39//185 33//184 35//183 41//182
f 41//188 35//188 37//188
f 50//189 44//189 51//189
f 51//190 44//190 45//190
f 51//191 45//192 52//191
f 52//193 45//193 46//193
f 52//194 46//194 53//194
f 56//195 50//196 57//195
f 57//197 50//197 51//197
f 57//198 51//198 58//198
f 58//199 51//200 52//200
f 59//201 52//201 53//201
f 58//202 52//203 59//202
f 63//204 56//206 57//205
f 62//207 56//207 63//207
f 63//208 57//208 64//208
f 64//209 57//209 58//209
f 65//210 58//211 59//210
f 64//212 58//212 65//212
f 65//213 59//213 66//213
f 68//214 67//214 62//214
f 69//215 62//215 63//215
f 68//216 62//216 69//216
f 72//217 65//217 66//217
f 73//218 67//219 68//219
f 74//220 68//220 69//220
f 75//221 68//221 74//221
f 75//222 73//222 68//222
f 79//223 73//223 75//223
f 82//224 79//224 75//224
f 82//225 75//225 81//225
f 84//226 78//226 85//226
f 85//227 78//227 79//227
f 85//228 79//228 82//228
f 88//229 82//229 81//229
f 82//230 89//230 85//230
f 82//231 90//231 89//231
f 90//232 82//232 88//232
f 91//233 84//233 89//233
f 89//234 84//234 85//234
f 90//235 88//240 87//239 86//238 91//237 89//236
