mtllib material_0.mtl
usemtl material_0
v -0.23966700 -0.04703000 0.09720000
v -0.23966700 -0.04703000 0.09720000
v -0.22899600 -0.04703000 0.09720000
v -0.22899600 -0.04703000 0.09720000
v -0.22899600 -0.04547200 0.09720000
v -0.22899600 -0.04547200 0.09720000
v -0.23966700 -0.04547200 0.09720000
v -0.23966700 -0.04547200 0.09720000
v -0.23966700 -0.03203000 0.09720000
v -0.23966700 -0.03203000 0.09720000
v -0.22899600 -0.03203000 0.09720000
v -0.22899600 -0.03203000 0.09720000
v -0.22899600 -0.03047200 0.09720000
v -0.22899600 -0.03047200 0.09720000
v -0.23966700 -0.03047200 0.09720000
v -0.23966700 -0.03047200 0.09720000
v -0.23966700 -0.01703000 0.09720000
v -0.23966700 -0.01703000 0.09720000
v -0.22899600 -0.01703000 0.09720000
v -0.22899600 -0.01703000 0.09720000
v -0.22899600 -0.01547200 0.09720000
v -0.22899600 -0.01547200 0.09720000
v -0.23966700 -0.01547200 0.09720000
v -0.23966700 -0.01547200 0.09720000
v -0.23966700 -0.00203000 0.09720000
v -0.23966700 -0.00203000 0.09720000
v -0.22899600 -0.00203000 0.09720000
v -0.22899600 -0.00203000 0.09720000
v -0.22899600 -0.00047200 0.09720000
v -0.22899600 -0.00047200 0.09720000
v -0.23966700 -0.00047200 0.09720000
v -0.23966700 -0.00047200 0.09720000
v -0.23966700 0.01297000 0.09720000
v -0.23966700 0.01297000 0.09720000
v -0.22899600 0.01297000 0.09720000
v -0.22899600 0.01297000 0.09720000
v -0.22899600 0.01452800 0.09720000
v -0.22899600 0.01452800 0.09720000
v -0.23966700 0.01452800 0.09720000
v -0.23966700 0.01452800 0.09720000
v -0.23966700 0.02797000 0.09720000
v -0.23966700 0.02797000 0.09720000
v -0.22899600 0.02797000 0.09720000
v -0.22899600 0.02797000 0.09720000
v -0.22899600 0.02952800 0.09720000
v -0.22899600 0.02952800 0.09720000
v -0.23966700 0.02952800 0.09720000
v -0.23966700 0.02952800 0.09720000
v -0.23966700 0.04297000 0.09720000
v -0.23966700 0.04297000 0.09720000
v -0.22899600 0.04297000 0.09720000
v -0.22899600 0.04297000 0.09720000
v -0.22899600 0.04452800 0.09720000
v -0.22899600 0.04452800 0.09720000
v -0.23966700 0.04452800 0.09720000
v -0.23966700 0.04452800 0.09720000
v -0.23966700 0.04452800 0.10520000
v -0.23966700 0.04452800 0.10520000
v -0.23966700 0.04452800 0.10520000
v -0.22899600 0.04452800 0.10520000
v -0.22899600 0.04452800 0.10520000
v -0.22899600 0.04452800 0.10520000
v -0.23966700 0.04297000 0.10520000
v -0.23966700 0.04297000 0.10520000
v -0.23966700 0.04297000 0.10520000
v -0.22899600 0.04297000 0.10520000
v -0.22899600 0.04297000 0.10520000
v -0.22899600 0.04297000 0.10520000
v -0.23966700 0.02952800 0.10520000
v -0.23966700 0.02952800 0.10520000
v -0.23966700 0.02952800 0.10520000
v -0.22899600 0.02952800 0.10520000
v -0.22899600 0.02952800 0.10520000
v -0.22899600 0.02952800 0.10520000
v -0.23966700 0.02797000 0.10520000
v -0.23966700 0.02797000 0.10520000
v -0.23966700 0.02797000 0.10520000
v -0.22899600 0.02797000 0.10520000
v -0.22899600 0.02797000 0.10520000
v -0.22899600 0.02797000 0.10520000
v -0.23966700 0.01452800 0.10520000
v -0.23966700 0.01452800 0.10520000
v -0.23966700 0.01452800 0.10520000
v -0.22899600 0.01452800 0.10520000
v -0.22899600 0.01452800 0.10520000
v -0.22899600 0.01452800 0.10520000
v -0.23966700 0.01297000 0.10520000
v -0.23966700 0.01297000 0.10520000
v -0.23966700 0.01297000 0.10520000
v -0.22899600 0.01297000 0.10520000
v -0.22899600 0.01297000 0.10520000
v -0.22899600 0.01297000 0.10520000
v -0.23966700 -0.00047200 0.10520000
v -0.23966700 -0.00047200 0.10520000
v -0.23966700 -0.00047200 0.10520000
v -0.22899600 -0.00047200 0.10520000
v -0.22899600 -0.00047200 0.10520000
v -0.22899600 -0.00047200 0.10520000
v -0.23966700 -0.00203000 0.10520000
v -0.23966700 -0.00203000 0.10520000
v -0.23966700 -0.00203000 0.10520000
v -0.22899600 -0.00203000 0.10520000
v -0.22899600 -0.00203000 0.10520000
v -0.22899600 -0.00203000 0.10520000
v -0.23966700 -0.01547200 0.10520000
v -0.23966700 -0.01547200 0.10520000
v -0.23966700 -0.01547200 0.10520000
v -0.22899600 -0.01547200 0.10520000
v -0.22899600 -0.01547200 0.10520000
v -0.22899600 -0.01547200 0.10520000
v -0.23966700 -0.01703000 0.10520000
v -0.23966700 -0.01703000 0.10520000
v -0.23966700 -0.01703000 0.10520000
v -0.22899600 -0.01703000 0.10520000
v -0.22899600 -0.01703000 0.10520000
v -0.22899600 -0.01703000 0.10520000
v -0.23966700 -0.03047200 0.10520000
v -0.23966700 -0.03047200 0.10520000
v -0.23966700 -0.03047200 0.10520000
v -0.22899600 -0.03047200 0.10520000
v -0.22899600 -0.03047200 0.10520000
v -0.22899600 -0.03047200 0.10520000
v -0.23966700 -0.03203000 0.10520000
v -0.23966700 -0.03203000 0.10520000
v -0.23966700 -0.03203000 0.10520000
v -0.22899600 -0.03203000 0.10520000
v -0.22899600 -0.03203000 0.10520000
v -0.22899600 -0.03203000 0.10520000
v -0.23966700 -0.04547200 0.10520000
v -0.23966700 -0.04547200 0.10520000
v -0.23966700 -0.04547200 0.10520000
v -0.22899600 -0.04547200 0.10520000
v -0.22899600 -0.04547200 0.10520000
v -0.22899600 -0.04547200 0.10520000
v -0.23966700 -0.04703000 0.10520000
v -0.23966700 -0.04703000 0.10520000
v -0.23966700 -0.04703000 0.10520000
v -0.22899600 -0.04703000 0.10520000
v -0.22899600 -0.04703000 0.10520000
v -0.22899600 -0.04703000 0.10520000
vn -1.00000000 0.00000000 0.00000000
vn 0.00000000 -1.00000000 -0.00000000
vn 0.00000000 -1.00000000 -0.00000000
vn 1.00000000 0.00000000 0.00000000
vn 0.00000000 1.00000000 0.00000000
vn 1.00000000 0.00000000 0.00000000
vn 0.00000000 1.00000000 0.00000000
vn -1.00000000 0.00000000 0.00000000
vn -1.00000000 0.00000000 0.00000000
vn 0.00000000 -1.00000000 -0.00000000
vn 0.00000000 -1.00000000 -0.00000000
vn 1.00000000 0.00000000 0.00000000
vn 1.00000000 0.00000000 0.00000000
vn 0.00000000 1.00000000 0.00000000
vn -1.00000000 0.00000000 0.00000000
vn 0.00000000 1.00000000 0.00000000
vn -1.00000000 0.00000000 0.00000000
vn 0.00000000 -1.00000000 -0.00000000
vn 0.00000000 -1.00000000 -0.00000000
vn 1.00000000 0.00000000 0.00000000
vn 1.00000000 0.00000000 0.00000000
vn 0.00000000 1.00000000 0.00000000
vn 0.00000000 1.00000000 0.00000000
vn -1.00000000 0.00000000 0.00000000
vn -1.00000000 0.00000000 0.00000000
vn 0.00000000 -1.00000000 -0.00000000
vn 1.00000000 0.00000000 0.00000000
vn 0.00000000 -1.00000000 -0.00000000
vn 1.00000000 0.00000000 0.00000000
vn 0.00000000 1.00000000 0.00000000
vn -1.00000000 0.00000000 0.00000000
vn 0.00000000 1.00000000 0.00000000
vn -1.00000000 0.00000000 0.00000000
vn 0.00000000 -1.00000000 -0.00000000
vn 0.00000000 -1.00000000 -0.00000000
vn 1.00000000 0.00000000 0.00000000
vn 1.00000000 0.00000000 0.00000000
vn 0.00000000 1.00000000 0.00000000
vn 0.00000000 1.00000000 0.00000000
vn -1.00000000 0.00000000 0.00000000
vn -1.00000000 0.00000000 0.00000000
vn 0.00000000 -1.00000000 -0.00000000
vn 1.00000000 0.00000000 0.00000000
vn 0.00000000 -1.00000000 -0.00000000
vn 0.00000000 1.00000000 0.00000000
vn 1.00000000 0.00000000 0.00000000
vn -1.00000000 0.00000000 0.00000000
vn 0.00000000 1.00000000 0.00000000
vn 0.00000000 -1.00000000 -0.00000000
vn -1.00000000 0.00000000 0.00000000
vn 0.00000000 -1.00000000 -0.00000000
vn 1.00000000 0.00000000 0.00000000
vn 1.00000000 0.00000000 0.00000000
vn 0.00000000 1.00000000 0.00000000
vn -1.00000000 0.00000000 0.00000000
vn 0.00000000 1.00000000 0.00000000
vn 0.00000000 0.00000000 1.00000000
vn 0.00000000 1.00000000 0.00000000
vn -1.00000000 0.00000000 0.00000000
vn 0.00000000 0.00000000 1.00000000
vn 0.00000000 1.00000000 0.00000000
vn 1.00000000 0.00000000 0.00000000
vn -1.00000000 0.00000000 0.00000000
vn 0.00000000 0.00000000 1.00000000
vn 0.00000000 -1.00000000 -0.00000000
vn 1.00000000 0.00000000 0.00000000
vn 0.00000000 0.00000000 1.00000000
vn 0.00000000 -1.00000000 -0.00000000
vn 0.00000000 1.00000000 0.00000000
vn -1.00000000 0.00000000 0.00000000
vn 0.00000000 0.00000000 1.00000000
vn 0.00000000 0.00000000 1.00000000
vn 0.00000000 1.00000000 0.00000000
vn 1.00000000 0.00000000 0.00000000
vn -1.00000000 0.00000000 0.00000000
vn 0.00000000 -1.00000000 -0.00000000
vn 0.00000000 0.00000000 1.00000000
vn 0.00000000 -1.00000000 -0.00000000
vn 1.00000000 0.00000000 0.00000000
vn 0.00000000 0.00000000 1.00000000
vn -1.00000000 0.00000000 0.00000000
vn 0.00000000 1.00000000 0.00000000
vn 0.00000000 0.00000000 1.00000000
vn 0.00000000 1.00000000 0.00000000
vn 1.00000000 0.00000000 0.00000000
vn 0.00000000 0.00000000 1.00000000
vn 0.00000000 -1.00000000 -0.00000000
vn 0.00000000 0.00000000 1.00000000
vn -1.00000000 0.00000000 0.00000000
vn 0.00000000 0.00000000 1.00000000
vn 0.00000000 -1.00000000 -0.00000000
vn 1.00000000 0.00000000 0.00000000
vn -1.00000000 0.00000000 0.00000000
vn 0.00000000 1.00000000 0.00000000
vn 0.00000000 0.00000000 1.00000000
vn 0.00000000 1.00000000 0.00000000
vn 1.00000000 0.00000000 0.00000000
vn 0.00000000 0.00000000 1.00000000
vn 0.00000000 0.00000000 1.00000000
vn 0.00000000 -1.00000000 -0.00000000
vn -1.00000000 0.00000000 0.00000000
vn 0.00000000 0.00000000 1.00000000
vn 1.00000000 0.00000000 0.00000000
vn 0.00000000 -1.00000000 -0.00000000
vn 0.00000000 0.00000000 1.00000000
vn -1.00000000 0.00000000 0.00000000
vn 0.00000000 1.00000000 0.00000000
vn 0.00000000 0.00000000 1.00000000
vn 1.00000000 0.00000000 0.00000000
vn 0.00000000 1.00000000 0.00000000
vn 0.00000000 0.00000000 1.00000000
vn 0.00000000 -1.00000000 -0.00000000
vn -1.00000000 0.00000000 0.00000000
vn 0.00000000 -1.00000000 -0.00000000
vn 1.00000000 0.00000000 0.00000000
vn 0.00000000 0.00000000 1.00000000
vn 0.00000000 0.00000000 1.00000000
vn 0.00000000 1.00000000 0.00000000
vn -1.00000000 0.00000000 0.00000000
vn 0.00000000 1.00000000 0.00000000
vn 0.00000000 0.00000000 1.00000000
vn 1.00000000 0.00000000 0.00000000
vn 0.00000000 0.00000000 1.00000000
vn 0.00000000 -1.00000000 -0.00000000
vn -1.00000000 0.00000000 0.00000000
vn 1.00000000 0.00000000 0.00000000
vn 0.00000000 0.00000000 1.00000000
vn 0.00000000 -1.00000000 -0.00000000
vn -1.00000000 0.00000000 0.00000000
vn 0.00000000 0.00000000 1.00000000
vn 0.00000000 1.00000000 0.00000000
vn 0.00000000 0.00000000 1.00000000
vn 0.00000000 1.00000000 0.00000000
vn 1.00000000 0.00000000 0.00000000
vn 0.00000000 0.00000000 1.00000000
vn -1.00000000 0.00000000 0.00000000
vn 0.00000000 -1.00000000 -0.00000000
vn 0.00000000 -1.00000000 -0.00000000
vn 0.00000000 0.00000000 1.00000000
vn 1.00000000 0.00000000 0.00000000
vt 0.00000000 0.00000000
vt 0.00000000 0.00000000
vt 0.00000000 0.00000000
vt 0.00000000 0.00000000
vt 0.00000000 0.00000000
vt 0.00000000 0.00000000
vt 0.00000000 0.00000000
vt 0.00000000 0.00000000
vt 0.00000000 0.00000000
vt 0.00000000 0.00000000
vt 0.00000000 0.00000000
vt 0.00000000 0.00000000
vt 0.00000000 0.00000000
vt 0.00000000 0.00000000
vt 0.00000000 0.00000000
vt 0.00000000 0.00000000
vt 0.00000000 0.00000000
vt 0.00000000 0.00000000
vt 0.00000000 0.00000000
vt 0.00000000 0.00000000
vt 0.00000000 0.00000000
vt 0.00000000 0.00000000
vt 0.00000000 0.00000000
vt 0.00000000 0.00000000
vt 0.00000000 0.00000000
vt 0.00000000 0.00000000
vt 0.00000000 0.00000000
vt 0.00000000 0.00000000
vt 0.00000000 0.00000000
vt 0.00000000 0.00000000
vt 0.00000000 0.00000000
vt 0.00000000 0.00000000
vt 0.00000000 0.00000000
vt 0.00000000 0.00000000
vt 0.00000000 0.00000000
vt 0.00000000 0.00000000
vt 0.00000000 0.00000000
vt 0.00000000 0.00000000
vt 0.00000000 0.00000000
vt 0.00000000 0.00000000
vt 0.00000000 0.00000000
vt 0.00000000 0.00000000
vt 0.00000000 0.00000000
vt 0.00000000 0.00000000
vt 0.00000000 0.00000000
vt 0.00000000 0.00000000
vt 0.00000000 0.00000000
vt 0.00000000 0.00000000
vt 0.00000000 0.00000000
vt 0.00000000 0.00000000
vt 0.00000000 0.00000000
vt 0.00000000 0.00000000
vt 0.00000000 0.00000000
vt 0.00000000 0.00000000
vt 0.00000000 0.00000000
vt 0.00000000 0.00000000
vt 0.00000000 0.00000000
vt 0.00000000 0.00000000
vt 0.00000000 0.00000000
vt 0.00000000 0.00000000
vt 0.00000000 0.00000000
vt 0.00000000 0.00000000
vt 0.00000000 0.00000000
vt 0.00000000 0.00000000
vt 0.00000000 0.00000000
vt 0.00000000 0.00000000
vt 0.00000000 0.00000000
vt 0.00000000 0.00000000
vt 0.00000000 0.00000000
vt 0.00000000 0.00000000
vt 0.00000000 0.00000000
vt 0.00000000 0.00000000
vt 0.00000000 0.00000000
vt 0.00000000 0.00000000
vt 0.00000000 0.00000000
vt 0.00000000 0.00000000
vt 0.00000000 0.00000000
vt 0.00000000 0.00000000
vt 0.00000000 0.00000000
vt 0.00000000 0.00000000
vt 0.00000000 0.00000000
vt 0.00000000 0.00000000
vt 0.00000000 0.00000000
vt 0.00000000 0.00000000
vt 0.00000000 0.00000000
vt 0.00000000 0.00000000
vt 0.00000000 0.00000000
vt 0.00000000 0.00000000
vt 0.00000000 0.00000000
vt 0.00000000 0.00000000
vt 0.00000000 0.00000000
vt 0.00000000 0.00000000
vt 0.00000000 0.00000000
vt 0.00000000 0.00000000
vt 0.00000000 0.00000000
vt 0.00000000 0.00000000
vt 0.00000000 0.00000000
vt 0.00000000 0.00000000
vt 0.00000000 0.00000000
vt 0.00000000 0.00000000
vt 0.00000000 0.00000000
vt 0.00000000 0.00000000
vt 0.00000000 0.00000000
vt 0.00000000 0.00000000
vt 0.00000000 0.00000000
vt 0.00000000 0.00000000
vt 0.00000000 0.00000000
vt 0.00000000 0.00000000
vt 0.00000000 0.00000000
vt 0.00000000 0.00000000
vt 0.00000000 0.00000000
vt 0.00000000 0.00000000
vt 0.00000000 0.00000000
vt 0.00000000 0.00000000
vt 0.00000000 0.00000000
vt 0.00000000 0.00000000
vt 0.00000000 0.00000000
vt 0.00000000 0.00000000
vt 0.00000000 0.00000000
vt 0.00000000 0.00000000
vt 0.00000000 0.00000000
vt 0.00000000 0.00000000
vt 0.00000000 0.00000000
vt 0.00000000 0.00000000
vt 0.00000000 0.00000000
vt 0.00000000 0.00000000
vt 0.00000000 0.00000000
vt 0.00000000 0.00000000
vt 0.00000000 0.00000000
vt 0.00000000 0.00000000
vt 0.00000000 0.00000000
vt 0.00000000 0.00000000
vt 0.00000000 0.00000000
vt 0.00000000 0.00000000
vt 0.00000000 0.00000000
vt 0.00000000 0.00000000
vt 0.00000000 0.00000000
vt 0.00000000 0.00000000
vt 0.00000000 0.00000000
vt 0.00000000 0.00000000
f 58/58/58 61/61/61 56/56/56
f 56/56/56 61/61/61 54/54/54
f 63/63/63 59/59/59 50/50/50
f 50/50/50 59/59/59 55/55/55
f 68/68/68 65/65/65 51/51/51
f 51/51/51 65/65/65 49/49/49
f 62/62/62 66/66/66 53/53/53
f 53/53/53 66/66/66 52/52/52
f 64/64/64 67/67/67 57/57/57
f 57/57/57 67/67/67 60/60/60
f 69/69/69 73/73/73 48/48/48
f 48/48/48 73/73/73 45/45/45
f 75/75/75 70/70/70 41/41/41
f 41/41/41 70/70/70 47/47/47
f 78/78/78 76/76/76 44/44/44
f 44/44/44 76/76/76 42/42/42
f 74/74/74 79/79/79 46/46/46
f 46/46/46 79/79/79 43/43/43
f 77/77/77 80/80/80 71/71/71
f 71/71/71 80/80/80 72/72/72
f 82/82/82 84/84/84 39/39/39
f 39/39/39 84/84/84 38/38/38
f 89/89/89 81/81/81 33/33/33
f 33/33/33 81/81/81 40/40/40
f 91/91/91 87/87/87 35/35/35
f 35/35/35 87/87/87 34/34/34
f 85/85/85 92/92/92 37/37/37
f 37/37/37 92/92/92 36/36/36
f 88/88/88 90/90/90 83/83/83
f 83/83/83 90/90/90 86/86/86
f 94/94/94 96/96/96 32/32/32
f 32/32/32 96/96/96 30/30/30
f 101/101/101 93/93/93 25/25/25
f 25/25/25 93/93/93 31/31/31
f 104/104/104 100/100/100 28/28/28
f 28/28/28 100/100/100 26/26/26
f 97/97/97 103/103/103 29/29/29
f 29/29/29 103/103/103 27/27/27
f 99/99/99 102/102/102 95/95/95
f 95/95/95 102/102/102 98/98/98
f 107/107/107 110/110/110 23/23/23
f 23/23/23 110/110/110 22/22/22
f 113/113/113 106/106/106 17/17/17
f 17/17/17 106/106/106 24/24/24
f 114/114/114 112/112/112 19/19/19
f 19/19/19 112/112/112 18/18/18
f 109/109/109 115/115/115 21/21/21
f 21/21/21 115/115/115 20/20/20
f 111/111/111 116/116/116 105/105/105
f 105/105/105 116/116/116 108/108/108
f 118/118/118 120/120/120 16/16/16
f 16/16/16 120/120/120 14/14/14
f 125/125/125 119/119/119 9/9/9
f 9/9/9 119/119/119 15/15/15
f 128/128/128 124/124/124 11/11/11
f 11/11/11 124/124/124 10/10/10
f 122/122/122 126/126/126 13/13/13
f 13/13/13 126/126/126 12/12/12
f 123/123/123 127/127/127 117/117/117
f 117/117/117 127/127/127 121/121/121
f 131/131/131 133/133/133 7/7/7
f 7/7/7 133/133/133 5/5/5
f 136/136/136 129/129/129 1/1/1
f 1/1/1 129/129/129 8/8/8
f 138/138/138 137/137/137 3/3/3
f 3/3/3 137/137/137 2/2/2
f 134/134/134 140/140/140 6/6/6
f 6/6/6 140/140/140 4/4/4
f 135/135/135 139/139/139 130/130/130
f 130/130/130 139/139/139 132/132/132
