mtllib material_0.mtl
usemtl material_0
v -0.22542400 0.05924700 0.13525000
v -0.22557600 0.05924700 0.13601500
v -0.22601000 0.05924700 0.13666400
v -0.22665900 0.05924700 0.13709800
v -0.22742400 0.05924700 0.13725000
v -0.22542400 0.05924700 0.12020000
v -0.22742400 0.05924700 0.11820000
v -0.22642400 0.05924700 0.11846800
v -0.22569200 0.05924700 0.11920000
v -0.26152400 0.05924700 0.11820000
v -0.26352400 0.05924700 0.12020000
v -0.26325600 0.05924700 0.11920000
v -0.26252400 0.05924700 0.11846800
v -0.26352400 0.05924700 0.13525000
v -0.26152400 0.05924700 0.13725000
v -0.26252400 0.05924700 0.13698200
v -0.26325600 0.05924700 0.13625000
vn 0.00000000 -1.00000000 -0.00000000
vn 0.00000000 -1.00000000 -0.00000000
vn 0.00000000 -1.00000000 -0.00000000
vn 0.00000000 -1.00000000 -0.00000000
vn 0.00000000 -1.00000000 -0.00000000
vn 0.00000000 -1.00000000 -0.00000000
vn 0.00000000 -1.00000000 -0.00000000
vn 0.00000000 -1.00000000 -0.00000000
vn 0.00000000 -1.00000000 -0.00000000
vn 0.00000000 -1.00000000 -0.00000000
vn 0.00000000 -1.00000000 -0.00000000
vn 0.00000000 -1.00000000 -0.00000000
vn 0.00000000 -1.00000000 -0.00000000
vn 0.00000000 -1.00000000 -0.00000000
vn 0.00000000 -1.00000000 -0.00000000
vn 0.00000000 -1.00000000 -0.00000000
vn 0.00000000 -1.00000000 -0.00000000
vt 0.99944400 0.89533600
vt 0.99082500 0.92978800
vt 0.97852700 0.95856100
vt 0.96628700 0.97823800
vt 0.94204300 1.00040900
vt 0.99944400 0.10466500
vt 0.94204300 -0.00040900
vt 0.96585000 0.02526900
vt 0.98840000 0.06091600
vt 0.05866400 -0.00040900
vt 0.00126300 0.10466400
vt 0.01318400 0.06197000
vt 0.03205100 0.02526900
vt 0.00126200 0.89533600
vt 0.05866400 1.00040900
vt 0.03224300 0.97648900
vt 0.01232400 0.93908400
f 6/6/6 1/1/1 5/5/5
f 7/7/7 8/8/8 9/9/9
f 1/1/1 2/2/2 5/5/5
f 5/5/5 2/2/2 3/3/3
f 5/5/5 3/3/3 4/4/4
f 15/15/15 16/16/16 17/17/17
f 12/12/12 13/13/13 11/11/11
f 11/11/11 13/13/13 10/10/10
f 11/11/11 10/10/10 7/7/7
f 9/9/9 6/6/6 7/7/7
f 7/7/7 6/6/6 5/5/5
f 7/7/7 5/5/5 11/11/11
f 11/11/11 5/5/5 15/15/15
f 11/11/11 15/15/15 14/14/14
f 14/14/14 15/15/15 17/17/17
