mtllib material_0.mtl
usemtl material_0
v -0.01525100 0.07657200 0.01095400
v -0.01525100 0.07657200 0.01095400
v -0.01525100 0.07657200 0.01095400
v -0.01525100 0.07657200 0.04095400
v -0.01525100 0.07657200 0.04095400
v -0.01525100 0.07657200 0.04095400
v -0.01525100 0.09157200 0.01095400
v -0.01525100 0.09157200 0.01095400
v -0.01525100 0.09157200 0.01095400
v -0.01525100 0.09157200 0.01095400
v -0.01525100 0.09157200 0.04095400
v -0.01525100 0.09157200 0.04095400
v -0.01525100 0.09157200 0.04095400
v -0.01525100 0.09157200 0.04095400
v 0.08474900 0.07657200 0.01095400
v 0.08474900 0.07657200 0.01095400
v 0.08474900 0.07657200 0.01095400
v 0.08474900 0.07657200 0.04095400
v 0.08474900 0.07657200 0.04095400
v 0.08474900 0.07657200 0.04095400
v 0.08474900 0.09157200 0.01095400
v 0.08474900 0.09157200 0.01095400
v 0.08474900 0.09157200 0.01095400
v 0.08474900 0.09157200 0.04095400
v 0.08474900 0.09157200 0.04095400
v 0.08474900 0.09157200 0.04095400
v 0.01520500 0.09157200 0.03401200
v 0.01520500 0.09157200 0.03401200
v 0.01683400 0.09157200 0.03385200
v 0.01683400 0.09157200 0.03385200
v 0.01840000 0.09157200 0.03337700
v 0.01984400 0.09157200 0.03260500
v 0.02110900 0.09157200 0.03156700
v 0.02214700 0.09157200 0.03030100
v 0.02291900 0.09157200 0.02885800
v 0.02339400 0.09157200 0.02729100
v 0.02355500 0.09157200 0.02566200
v 0.02339400 0.09157200 0.02403300
v 0.02291900 0.09157200 0.02246700
v 0.02277700 0.09157200 0.02220100
v 0.02287900 0.09157200 0.02239300
v 0.02214700 0.09157200 0.02102300
v 0.02110900 0.09157200 0.01975800
v 0.01984400 0.09157200 0.01872000
v 0.01840000 0.09157200 0.01794800
v 0.01683400 0.09157200 0.01747300
v 0.01683400 0.09157200 0.01747300
v 0.01520500 0.09157200 0.01731200
v 0.01520500 0.09157200 0.01731200
v 0.01357600 0.09157200 0.01747300
v 0.01200900 0.09157200 0.01794800
v 0.01056600 0.09157200 0.01872000
v 0.00930000 0.09157200 0.01975800
v 0.00826200 0.09157200 0.02102300
v 0.00749000 0.09157200 0.02246700
v 0.00701500 0.09157200 0.02403300
v 0.00685500 0.09157200 0.02566200
v 0.00701500 0.09157200 0.02729100
v 0.00749000 0.09157200 0.02885800
v 0.00826200 0.09157200 0.03030100
v 0.00930000 0.09157200 0.03156700
v 0.01056600 0.09157200 0.03260500
v 0.01200900 0.09157200 0.03337700
v 0.01357600 0.09157200 0.03385200
v 0.05541000 0.09157200 0.03401200
v 0.05703900 0.09157200 0.03385200
v 0.05860500 0.09157200 0.03337700
v 0.06004900 0.09157200 0.03260500
v 0.06131400 0.09157200 0.03156700
v 0.06235300 0.09157200 0.03030100
v 0.06312400 0.09157200 0.02885800
v 0.06360000 0.09157200 0.02729100
v 0.06376000 0.09157200 0.02566200
v 0.06360000 0.09157200 0.02403300
v 0.06312400 0.09157200 0.02246700
v 0.06235300 0.09157200 0.02102300
v 0.06131400 0.09157200 0.01975800
v 0.06004900 0.09157200 0.01872000
v 0.05860500 0.09157200 0.01794800
v 0.05703900 0.09157200 0.01747300
v 0.05541000 0.09157200 0.01731200
v 0.05378100 0.09157200 0.01747300
v 0.05221500 0.09157200 0.01794800
v 0.05077100 0.09157200 0.01872000
v 0.04950600 0.09157200 0.01975800
v 0.04846700 0.09157200 0.02102300
v 0.04769600 0.09157200 0.02246700
v 0.04722000 0.09157200 0.02403300
v 0.04719100 0.09157200 0.02433400
v 0.04706000 0.09157200 0.02566200
v 0.04722000 0.09157200 0.02729100
v 0.04769600 0.09157200 0.02885800
v 0.04846700 0.09157200 0.03030100
v 0.04950600 0.09157200 0.03156700
v 0.05077100 0.09157200 0.03260500
v 0.05221500 0.09157200 0.03337700
v 0.05378100 0.09157200 0.03385200
vn 0.00000000 -1.00000000 0.00000000
vn 0.00000000 0.00000000 -1.00000000
vn -1.00000000 0.00000000 0.00000000
vn -1.00000000 0.00000000 0.00000000
vn 0.00000000 -1.00000000 0.00000000
vn 0.00000000 0.00000000 1.00000000
vn 0.00000000 0.00000000 -1.00000000
vn -1.00000000 0.00000000 0.00000000
vn 0.00000000 1.00000000 0.00000000
vn 0.00000000 1.00000000 -0.00010000
vn 0.00000000 1.00000000 0.00010000
vn -1.00000000 0.00000000 0.00000000
vn 0.00000000 1.00000000 0.00000000
vn 0.00000000 0.00000000 1.00000000
vn 0.00000000 0.00000000 -1.00000000
vn 1.00000000 0.00000000 0.00000000
vn 0.00000000 -1.00000000 0.00000000
vn 1.00000000 0.00000000 0.00000000
vn 0.00000000 0.00000000 1.00000000
vn 0.00000000 -1.00000000 0.00000000
vn 1.00000000 0.00000000 0.00000000
vn 0.00000000 1.00000000 0.00000000
vn 0.00000000 0.00000000 -1.00000000
vn 0.00000000 1.00000000 0.00000000
vn 0.00000000 0.00000000 1.00000000
vn 1.00000000 0.00000000 0.00000000
vn 0.00000000 1.00000000 0.00000000
vn 0.00000000 1.00000000 0.00010000
vn 0.00000000 1.00000000 0.00010000
vn 0.00000000 1.00000000 0.00000000
vn 0.00000000 1.00000000 0.00000000
vn 0.00000000 1.00000000 0.00000000
vn 0.00000000 1.00000000 0.00000000
vn 0.00000000 1.00000000 0.00000000
vn 0.00000000 1.00000000 0.00000000
vn 0.00000000 1.00000000 0.00000000
vn 0.00000000 1.00000000 0.00000000
vn 0.00000000 1.00000000 0.00000000
vn 0.00000000 1.00000000 0.00000000
vn 0.00000000 1.00000000 0.00000000
vn 0.00000000 1.00000000 0.00000000
vn 0.00000000 1.00000000 0.00000000
vn 0.00000000 1.00000000 0.00000000
vn 0.00000000 1.00000000 0.00000000
vn 0.00000000 1.00000000 0.00000000
vn 0.00000000 1.00000000 0.00000000
vn 0.00000000 1.00000000 -0.00010000
vn 0.00000000 1.00000000 -0.00010000
vn 0.00000000 1.00000000 0.00000000
vn 0.00000000 1.00000000 0.00000000
vn 0.00000000 1.00000000 0.00000000
vn 0.00000000 1.00000000 0.00000000
vn 0.00000000 1.00000000 0.00000000
vn 0.00000000 1.00000000 0.00000000
vn 0.00000000 1.00000000 0.00000000
vn 0.00000000 1.00000000 0.00000000
vn 0.00000000 1.00000000 0.00000000
vn 0.00000000 1.00000000 0.00000000
vn 0.00000000 1.00000000 0.00000000
vn 0.00000000 1.00000000 0.00000000
vn 0.00000000 1.00000000 0.00000000
vn 0.00000000 1.00000000 0.00000000
vn 0.00000000 1.00000000 0.00000000
vn 0.00000000 1.00000000 0.00000000
vn 0.00000000 1.00000000 0.00000000
vn 0.00000000 1.00000000 0.00000000
vn 0.00000000 1.00000000 0.00000000
vn 0.00000000 1.00000000 0.00000000
vn 0.00000000 1.00000000 0.00000000
vn 0.00000000 1.00000000 0.00000000
vn 0.00000000 1.00000000 0.00000000
vn 0.00000000 1.00000000 0.00000000
vn 0.00000000 1.00000000 0.00000000
vn 0.00000000 1.00000000 0.00000000
vn 0.00000000 1.00000000 0.00000000
vn 0.00000000 1.00000000 0.00000000
vn 0.00000000 1.00000000 0.00000000
vn 0.00000000 1.00000000 0.00000000
vn 0.00000000 1.00000000 0.00000000
vn 0.00000000 1.00000000 0.00000000
vn 0.00000000 1.00000000 0.00000000
vn 0.00000000 1.00000000 0.00000000
vn 0.00000000 1.00000000 0.00000000
vn 0.00000000 1.00000000 0.00000000
vn 0.00000000 1.00000000 0.00000000
vn 0.00000000 1.00000000 0.00000000
vn 0.00000000 1.00000000 0.00000000
vn 0.00000000 1.00000000 0.00000000
vn 0.00000000 1.00000000 0.00000000
vn 0.00000000 1.00000000 0.00000000
vn 0.00000000 1.00000000 0.00000000
vn 0.00000000 1.00000000 0.00000000
vn 0.00000000 1.00000000 0.00000000
vn 0.00000000 1.00000000 0.00000000
vn 0.00000000 1.00000000 0.00000000
vn 0.00000000 1.00000000 0.00000000
vn 0.00000000 1.00000000 0.00000000
vt 0.37500000 1.00000000
vt 0.12500000 0.75000000
vt 0.37500000 0.00000000
vt 0.62500000 0.00000000
vt 0.62500000 1.00000000
vt 0.87500000 0.75000000
vt 0.12500000 0.50000000
vt 0.37500000 0.25000000
vt 0.37500000 0.25000000
vt 0.37500000 0.25000000
vt 0.62500000 0.25000000
vt 0.62500000 0.25000000
vt 0.62500000 0.25000000
vt 0.87500000 0.50000000
vt 0.37500000 0.75000000
vt 0.37500000 0.75000000
vt 0.37500000 0.75000000
vt 0.62500000 0.75000000
vt 0.62500000 0.75000000
vt 0.62500000 0.75000000
vt 0.37500000 0.50000000
vt 0.37500000 0.50000000
vt 0.37500000 0.50000000
vt 0.62500000 0.50000000
vt 0.62500000 0.50000000
vt 0.62500000 0.50000000
vt 0.56715600 0.32613800
vt 0.56715600 0.32613800
vt 0.56581900 0.33021100
vt 0.56581900 0.33021100
vt 0.56186000 0.33412700
vt 0.55542900 0.33773600
vt 0.54677600 0.34089900
vt 0.53623100 0.34349500
vt 0.52420100 0.34542400
vt 0.51114800 0.34661200
vt 0.49757300 0.34701300
vt 0.48399800 0.34661200
vt 0.47094400 0.34542400
vt 0.46872400 0.34506800
vt 0.47032500 0.34532500
vt 0.45891400 0.34349500
vt 0.44837000 0.34089900
vt 0.43971700 0.33773600
vt 0.43328600 0.33412700
vt 0.42932700 0.33021100
vt 0.42932700 0.33021100
vt 0.42799000 0.32613800
vt 0.42799000 0.32613800
vt 0.42932700 0.32206600
vt 0.43328600 0.31815000
vt 0.43971700 0.31454100
vt 0.44837000 0.31137700
vt 0.45891500 0.30878100
vt 0.47094400 0.30685200
vt 0.48399800 0.30566400
vt 0.49757300 0.30526300
vt 0.51114800 0.30566400
vt 0.52420100 0.30685200
vt 0.53623100 0.30878100
vt 0.54677600 0.31137700
vt 0.55542900 0.31454100
vt 0.56186000 0.31815000
vt 0.56581900 0.32206600
vt 0.56715600 0.42665200
vt 0.56581900 0.43072400
vt 0.56186000 0.43464000
vt 0.55542900 0.43824900
vt 0.54677600 0.44141200
vt 0.53623100 0.44400800
vt 0.52420100 0.44593800
vt 0.51114800 0.44712500
vt 0.49757300 0.44752700
vt 0.48399800 0.44712500
vt 0.47094400 0.44593800
vt 0.45891500 0.44400800
vt 0.44837000 0.44141200
vt 0.43971700 0.43824900
vt 0.43328600 0.43464000
vt 0.42932700 0.43072400
vt 0.42799000 0.42665200
vt 0.42932700 0.42257900
vt 0.43328600 0.41866300
vt 0.43971700 0.41505400
vt 0.44837000 0.41189100
vt 0.45891500 0.40929500
vt 0.47094400 0.40736600
vt 0.48399800 0.40617800
vt 0.48650400 0.40610400
vt 0.49757300 0.40577700
vt 0.51114800 0.40617800
vt 0.52420100 0.40736600
vt 0.53623100 0.40929500
vt 0.54677600 0.41189100
vt 0.55542900 0.41505400
vt 0.56186000 0.41866300
vt 0.56581900 0.42257900
f 4/4/4 8/8/8 3/3/3
f 73/73/73 72/72/72 24/24/24
f 41/41/41 89/89/89 88/88/88
f 57/57/57 56/56/56 9/9/9
f 26/26/26 16/16/16 21/21/21
f 20/20/20 1/1/1 17/17/17
f 23/23/23 2/2/2 7/7/7
f 14/14/14 19/19/19 25/25/25
f 4/4/4 12/12/12 8/8/8
f 72/72/72 71/71/71 24/24/24
f 24/24/24 22/22/22 73/73/73
f 22/22/22 75/75/75 74/74/74
f 22/22/22 74/74/74 73/73/73
f 88/88/88 87/87/87 41/41/41
f 87/87/87 40/40/40 41/41/41
f 90/90/90 89/89/89 38/38/38
f 89/89/89 41/41/41 39/39/39
f 89/89/89 39/39/39 38/38/38
f 91/91/91 90/90/90 37/37/37
f 90/90/90 38/38/38 37/37/37
f 92/92/92 91/91/91 36/36/36
f 91/91/91 37/37/37 36/36/36
f 93/93/93 92/92/92 35/35/35
f 92/92/92 36/36/36 35/35/35
f 94/94/94 93/93/93 34/34/34
f 93/93/93 35/35/35 34/34/34
f 95/95/95 94/94/94 33/33/33
f 94/94/94 34/34/34 33/33/33
f 96/96/96 95/95/95 32/32/32
f 95/95/95 33/33/33 32/32/32
f 97/97/97 96/96/96 31/31/31
f 96/96/96 32/32/32 31/31/31
f 65/65/65 97/97/97 24/24/24
f 97/97/97 31/31/31 30/30/30
f 97/97/97 30/30/30 24/24/24
f 29/29/29 28/28/28 11/11/11
f 24/24/24 30/30/30 13/13/13
f 42/42/42 40/40/40 86/86/86
f 40/40/40 87/87/87 86/86/86
f 43/43/43 42/42/42 86/86/86
f 43/43/43 86/86/86 85/85/85
f 44/44/44 43/43/43 85/85/85
f 44/44/44 85/85/85 84/84/84
f 45/45/45 44/44/44 84/84/84
f 45/45/45 84/84/84 83/83/83
f 46/46/46 45/45/45 82/82/82
f 45/45/45 83/83/83 82/82/82
f 48/48/48 47/47/47 10/10/10
f 46/46/46 82/82/82 22/22/22
f 46/46/46 22/22/22 9/9/9
f 82/82/82 81/81/81 22/22/22
f 76/76/76 75/75/75 22/22/22
f 24/24/24 71/71/71 70/70/70
f 24/24/24 70/70/70 69/69/69
f 77/77/77 76/76/76 22/22/22
f 78/78/78 77/77/77 22/22/22
f 24/24/24 69/69/69 68/68/68
f 24/24/24 68/68/68 67/67/67
f 79/79/79 78/78/78 22/22/22
f 80/80/80 79/79/79 22/22/22
f 24/24/24 67/67/67 66/66/66
f 24/24/24 66/66/66 65/65/65
f 81/81/81 80/80/80 22/22/22
f 50/50/50 49/49/49 9/9/9
f 13/13/13 27/27/27 64/64/64
f 13/13/13 64/64/64 63/63/63
f 51/51/51 50/50/50 9/9/9
f 52/52/52 51/51/51 9/9/9
f 13/13/13 63/63/63 62/62/62
f 13/13/13 62/62/62 61/61/61
f 53/53/53 52/52/52 9/9/9
f 54/54/54 53/53/53 9/9/9
f 9/9/9 13/13/13 57/57/57
f 13/13/13 61/61/61 60/60/60
f 13/13/13 60/60/60 59/59/59
f 55/55/55 54/54/54 9/9/9
f 56/56/56 55/55/55 9/9/9
f 13/13/13 59/59/59 58/58/58
f 13/13/13 58/58/58 57/57/57
f 26/26/26 18/18/18 16/16/16
f 20/20/20 5/5/5 1/1/1
f 23/23/23 15/15/15 2/2/2
f 14/14/14 6/6/6 19/19/19
