mtllib material_0.mtl
usemtl material_0
v -0.01725000 0.02100000 -0.00900000
v -0.01725000 0.02100000 -0.00900000
v 0.01725000 0.02100000 -0.00900000
v 0.01725000 0.02100000 -0.00900000
v -0.01725000 0.02100000 -0.22650000
v -0.01725000 0.02100000 -0.22650000
v -0.01725000 0.02100000 -0.22650000
v 0.01725000 0.02100000 -0.22650000
v 0.01725000 0.02100000 -0.22650000
v 0.01725000 0.02100000 -0.22650000
v -0.01912500 0.02049800 -0.22650000
v -0.01912500 0.02049800 -0.22650000
v -0.01912500 0.02049800 -0.22650000
v -0.01912500 0.02049800 -0.00900000
v -0.01912500 0.02049800 -0.00900000
v -0.02049800 0.01912500 -0.22650000
v -0.02049800 0.01912500 -0.22650000
v -0.02049800 0.01912500 -0.22650000
v -0.02049800 0.01912500 -0.00900000
v -0.02049800 0.01912500 -0.00900000
v -0.02100000 0.01725000 -0.22650000
v -0.02100000 0.01725000 -0.22650000
v -0.02100000 0.01725000 -0.22650000
v -0.02100000 0.01725000 -0.00900000
v -0.02100000 0.01725000 -0.00900000
v -0.02100000 -0.01725000 -0.00900000
v -0.02100000 -0.01725000 -0.00900000
v -0.02100000 -0.01725000 -0.22650000
v -0.02100000 -0.01725000 -0.22650000
v -0.02100000 -0.01725000 -0.22650000
v -0.02049800 -0.01912500 -0.22650000
v -0.02049800 -0.01912500 -0.22650000
v -0.02049800 -0.01912500 -0.22650000
v -0.02049800 -0.01912500 -0.00900000
v -0.02049800 -0.01912500 -0.00900000
v -0.01912500 -0.02049800 -0.22650000
v -0.01912500 -0.02049800 -0.22650000
v -0.01912500 -0.02049800 -0.22650000
v -0.01912500 -0.02049800 -0.00900000
v -0.01912500 -0.02049800 -0.00900000
v -0.01725000 -0.02100000 -0.22650000
v -0.01725000 -0.02100000 -0.22650000
v -0.01725000 -0.02100000 -0.22650000
v -0.01725000 -0.02100000 -0.00900000
v -0.01725000 -0.02100000 -0.00900000
v 0.01725000 -0.02100000 -0.00900000
v 0.01725000 -0.02100000 -0.00900000
v 0.01725000 -0.02100000 -0.22650000
v 0.01725000 -0.02100000 -0.22650000
v 0.01725000 -0.02100000 -0.22650000
v 0.01912500 -0.02049800 -0.22650000
v 0.01912500 -0.02049800 -0.22650000
v 0.01912500 -0.02049800 -0.22650000
v 0.01912500 -0.02049800 -0.00900000
v 0.01912500 -0.02049800 -0.00900000
v 0.02049800 -0.01912500 -0.22650000
v 0.02049800 -0.01912500 -0.22650000
v 0.02049800 -0.01912500 -0.22650000
v 0.02049800 -0.01912500 -0.00900000
v 0.02049800 -0.01912500 -0.00900000
v 0.02100000 -0.01725000 -0.22650000
v 0.02100000 -0.01725000 -0.22650000
v 0.02100000 -0.01725000 -0.22650000
v 0.02100000 -0.01725000 -0.00900000
v 0.02100000 -0.01725000 -0.00900000
v 0.02100000 0.01725000 -0.00900000
v 0.02100000 0.01725000 -0.00900000
v 0.02100000 0.01725000 -0.22650000
v 0.02100000 0.01725000 -0.22650000
v 0.02100000 0.01725000 -0.22650000
v -0.01950000 0.01725000 -0.00900000
v -0.01950000 0.01725000 -0.00900000
v -0.01950000 0.01725000 -0.22650000
v -0.01950000 0.01725000 -0.22650000
v -0.01950000 0.01725000 -0.22650000
v -0.01919900 0.01837500 -0.00900000
v -0.01919900 0.01837500 -0.00900000
v -0.01919900 0.01837500 -0.22650000
v -0.01919900 0.01837500 -0.22650000
v -0.01919900 0.01837500 -0.22650000
v -0.01837500 0.01919900 -0.00900000
v -0.01837500 0.01919900 -0.00900000
v -0.01837500 0.01919900 -0.22650000
v -0.01837500 0.01919900 -0.22650000
v -0.01837500 0.01919900 -0.22650000
v -0.01725000 0.01950000 -0.00900000
v -0.01725000 0.01950000 -0.00900000
v -0.01725000 0.01950000 -0.22650000
v -0.01725000 0.01950000 -0.22650000
v -0.01725000 0.01950000 -0.22650000
v 0.01725000 0.01950000 -0.00900000
v 0.01725000 0.01950000 -0.00900000
v 0.01725000 0.01950000 -0.22650000
v 0.01725000 0.01950000 -0.22650000
v 0.01725000 0.01950000 -0.22650000
v 0.01837500 0.01919900 -0.00900000
v 0.01837500 0.01919900 -0.00900000
v 0.01837500 0.01919900 -0.22650000
v 0.01837500 0.01919900 -0.22650000
v 0.01837500 0.01919900 -0.22650000
v 0.01919900 0.01837500 -0.00900000
v 0.01919900 0.01837500 -0.00900000
v 0.01919900 0.01837500 -0.22650000
v 0.01919900 0.01837500 -0.22650000
v 0.01919900 0.01837500 -0.22650000
v 0.01950000 0.01725000 -0.00900000
v 0.01950000 0.01725000 -0.00900000
v 0.01950000 0.01725000 -0.22650000
v 0.01950000 0.01725000 -0.22650000
v 0.01950000 0.01725000 -0.22650000
v 0.01950000 -0.01725000 -0.00900000
v 0.01950000 -0.01725000 -0.00900000
v 0.01950000 -0.01725000 -0.22650000
v 0.01950000 -0.01725000 -0.22650000
v 0.01950000 -0.01725000 -0.22650000
v 0.01919900 -0.01837500 -0.00900000
v 0.01919900 -0.01837500 -0.00900000
v 0.01919900 -0.01837500 -0.22650000
v 0.01919900 -0.01837500 -0.22650000
v 0.01919900 -0.01837500 -0.22650000
v 0.01837500 -0.01919900 -0.00900000
v 0.01837500 -0.01919900 -0.00900000
v 0.01837500 -0.01919900 -0.22650000
v 0.01837500 -0.01919900 -0.22650000
v 0.01837500 -0.01919900 -0.22650000
v 0.01725000 -0.01950000 -0.00900000
v 0.01725000 -0.01950000 -0.00900000
v 0.01725000 -0.01950000 -0.22650000
v 0.01725000 -0.01950000 -0.22650000
v 0.01725000 -0.01950000 -0.22650000
v -0.01725000 -0.01950000 -0.00900000
v -0.01725000 -0.01950000 -0.00900000
v -0.01725000 -0.01950000 -0.22650000
v -0.01725000 -0.01950000 -0.22650000
v -0.01725000 -0.01950000 -0.22650000
v -0.01837500 -0.01919900 -0.00900000
v -0.01837500 -0.01919900 -0.00900000
v -0.01837500 -0.01919900 -0.22650000
v -0.01837500 -0.01919900 -0.22650000
v -0.01837500 -0.01919900 -0.22650000
v -0.01919900 -0.01837500 -0.00900000
v -0.01919900 -0.01837500 -0.00900000
v -0.01919900 -0.01837500 -0.22650000
v -0.01919900 -0.01837500 -0.22650000
v -0.01919900 -0.01837500 -0.22650000
v -0.01950000 -0.01725000 -0.00900000
v -0.01950000 -0.01725000 -0.00900000
v -0.01950000 -0.01725000 -0.22650000
v -0.01950000 -0.01725000 -0.22650000
v -0.01950000 -0.01725000 -0.22650000
v 0.02049800 0.01912500 -0.22650000
v 0.02049800 0.01912500 -0.22650000
v 0.02049800 0.01912500 -0.22650000
v 0.02049800 0.01912500 -0.00900000
v 0.02049800 0.01912500 -0.00900000
v 0.01912500 0.02049800 -0.22650000
v 0.01912500 0.02049800 -0.22650000
v 0.01912500 0.02049800 -0.22650000
v 0.01912500 0.02049800 -0.00900000
v 0.01912500 0.02049800 -0.00900000
vn 0.00000000 1.00000000 0.00000000
vn -0.25880000 0.96590000 0.00000000
vn 0.00000000 1.00000000 0.00000000
vn 0.25880000 0.96590000 0.00000000
vn 0.00000000 0.00000000 -1.00000000
vn 0.00000000 1.00000000 0.00000000
vn -0.25880000 0.96590000 0.00000000
vn 0.00000000 0.00000000 -1.00000000
vn 0.00000000 1.00000000 0.00000000
vn 0.25880000 0.96590000 0.00000000
vn -0.70710000 0.70710000 0.00000000
vn -0.25880000 0.96590000 0.00000000
vn 0.00000000 0.00000000 -1.00000000
vn -0.25880000 0.96590000 0.00000000
vn -0.70710000 0.70710000 0.00000000
vn -0.70710000 0.70710000 0.00000000
vn -0.96590000 0.25880000 0.00000000
vn 0.00000000 0.00000000 -1.00000000
vn -0.96590000 0.25880000 0.00000000
vn -0.70710000 0.70710000 0.00000000
vn -1.00000000 0.00000000 0.00000000
vn 0.00000000 0.00000000 -1.00000000
vn -0.96590000 0.25880000 0.00000000
vn -0.96590000 0.25880000 0.00000000
vn -1.00000000 0.00000000 0.00000000
vn -0.96590000 -0.25880000 0.00000000
vn -1.00000000 0.00000000 0.00000000
vn 0.00000000 0.00000000 -1.00000000
vn -1.00000000 0.00000000 0.00000000
vn -0.96590000 -0.25880000 0.00000000
vn 0.00000000 0.00000000 -1.00000000
vn -0.70710000 -0.70710000 0.00000000
vn -0.96590000 -0.25880000 0.00000000
vn -0.70710000 -0.70710000 0.00000000
vn -0.96590000 -0.25880000 0.00000000
vn 0.00000000 0.00000000 -1.00000000
vn -0.70710000 -0.70710000 0.00000000
vn -0.25880000 -0.96590000 0.00000000
vn -0.70710000 -0.70710000 0.00000000
vn -0.25880000 -0.96590000 0.00000000
vn 0.00000000 0.00000000 -1.00000000
vn 0.00000000 -1.00000000 0.00000000
vn -0.25880000 -0.96590000 0.00000000
vn -0.25880000 -0.96590000 0.00000000
vn 0.00000000 -1.00000000 0.00000000
vn 0.00000000 -1.00000000 0.00000000
vn 0.25880000 -0.96590000 0.00000000
vn 0.25880000 -0.96590000 0.00000000
vn 0.00000000 -1.00000000 0.00000000
vn 0.00000000 0.00000000 -1.00000000
vn 0.70710000 -0.70710000 0.00000000
vn 0.00000000 0.00000000 -1.00000000
vn 0.25880000 -0.96590000 0.00000000
vn 0.25880000 -0.96590000 0.00000000
vn 0.70710000 -0.70710000 0.00000000
vn 0.00000000 0.00000000 -1.00000000
vn 0.70710000 -0.70710000 0.00000000
vn 0.96590000 -0.25880000 0.00000000
vn 0.70710000 -0.70710000 0.00000000
vn 0.96590000 -0.25880000 0.00000000
vn 1.00000000 0.00000000 0.00000000
vn 0.00000000 0.00000000 -1.00000000
vn 0.96590000 -0.25880000 0.00000000
vn 0.96590000 -0.25880000 0.00000000
vn 1.00000000 0.00000000 0.00000000
vn 1.00000000 0.00000000 0.00000000
vn 0.96590000 0.25880000 0.00000000
vn 1.00000000 0.00000000 0.00000000
vn 0.96590000 0.25880000 0.00000000
vn 0.00000000 0.00000000 -1.00000000
vn 1.00000000 0.00000000 0.00000000
vn 0.96590000 -0.25880000 0.00000000
vn 1.00000000 0.00000000 0.00000000
vn 0.96590000 -0.25880000 0.00000000
vn 0.00000000 0.00000000 -1.00000000
vn 0.96590000 -0.25880000 0.00000000
vn 0.70710000 -0.70710000 0.00000000
vn 0.96590000 -0.25880000 0.00000000
vn 0.00000000 0.00000000 -1.00000000
vn 0.70710000 -0.70710000 0.00000000
vn 0.25880000 -0.96590000 0.00000000
vn 0.70710000 -0.70710000 0.00000000
vn 0.25880000 -0.96590000 0.00000000
vn 0.70710000 -0.70710000 0.00000000
vn 0.00000000 0.00000000 -1.00000000
vn 0.25880000 -0.96590000 0.00000000
vn 0.00000000 -1.00000000 0.00000000
vn 0.25880000 -0.96590000 0.00000000
vn 0.00000000 0.00000000 -1.00000000
vn 0.00000000 -1.00000000 0.00000000
vn -0.25880000 -0.96590000 0.00000000
vn 0.00000000 -1.00000000 0.00000000
vn -0.25880000 -0.96590000 0.00000000
vn 0.00000000 0.00000000 -1.00000000
vn 0.00000000 -1.00000000 0.00000000
vn -0.70710000 -0.70710000 0.00000000
vn -0.25880000 -0.96590000 0.00000000
vn 0.00000000 0.00000000 -1.00000000
vn -0.70710000 -0.70710000 0.00000000
vn -0.25880000 -0.96590000 0.00000000
vn -0.70710000 -0.70710000 0.00000000
vn -0.96590000 -0.25880000 0.00000000
vn -0.96590000 -0.25880000 0.00000000
vn 0.00000000 0.00000000 -1.00000000
vn -0.70710000 -0.70710000 0.00000000
vn -1.00000000 0.00000000 0.00000000
vn -0.96590000 -0.25880000 0.00000000
vn 0.00000000 0.00000000 -1.00000000
vn -0.96590000 -0.25880000 0.00000000
vn -1.00000000 0.00000000 0.00000000
vn -1.00000000 0.00000000 0.00000000
vn -0.96590000 0.25880000 0.00000000
vn 0.00000000 0.00000000 -1.00000000
vn -0.96590000 0.25880000 0.00000000
vn -1.00000000 0.00000000 0.00000000
vn -0.96590000 0.25880000 0.00000000
vn -0.70710000 0.70710000 0.00000000
vn 0.00000000 0.00000000 -1.00000000
vn -0.96590000 0.25880000 0.00000000
vn -0.70710000 0.70710000 0.00000000
vn -0.25880000 0.96590000 0.00000000
vn -0.70710000 0.70710000 0.00000000
vn -0.25880000 0.96590000 0.00000000
vn -0.70710000 0.70710000 0.00000000
vn 0.00000000 0.00000000 -1.00000000
vn -0.25880000 0.96590000 0.00000000
vn 0.00000000 1.00000000 0.00000000
vn -0.25880000 0.96590000 0.00000000
vn 0.00000000 1.00000000 0.00000000
vn 0.00000000 0.00000000 -1.00000000
vn 0.25880000 0.96590000 0.00000000
vn 0.00000000 1.00000000 0.00000000
vn 0.00000000 1.00000000 0.00000000
vn 0.25880000 0.96590000 0.00000000
vn 0.00000000 0.00000000 -1.00000000
vn 0.70710000 0.70710000 0.00000000
vn 0.25880000 0.96590000 0.00000000
vn 0.00000000 0.00000000 -1.00000000
vn 0.70710000 0.70710000 0.00000000
vn 0.25880000 0.96590000 0.00000000
vn 0.70710000 0.70710000 0.00000000
vn 0.96590000 0.25880000 0.00000000
vn 0.00000000 0.00000000 -1.00000000
vn 0.96590000 0.25880000 0.00000000
vn 0.70710000 0.70710000 0.00000000
vn 0.96590000 0.25880000 0.00000000
vn 1.00000000 0.00000000 0.00000000
vn 0.96590000 0.25880000 0.00000000
vn 1.00000000 0.00000000 0.00000000
vn 0.00000000 0.00000000 -1.00000000
vn 0.96590000 0.25880000 0.00000000
vn 0.00000000 0.00000000 -1.00000000
vn 0.70710000 0.70710000 0.00000000
vn 0.70710000 0.70710000 0.00000000
vn 0.96590000 0.25880000 0.00000000
vn 0.70710000 0.70710000 0.00000000
vn 0.25880000 0.96590000 0.00000000
vn 0.00000000 0.00000000 -1.00000000
vn 0.70710000 0.70710000 0.00000000
vn 0.25880000 0.96590000 0.00000000
f 1//1 3//3 6//6
f 6//6 3//3 9//9
f 2//2 7//7 12//12
f 2//2 12//12 14//14
f 15//15 11//11 16//16
f 15//15 16//16 20//20
f 19//19 17//17 23//23
f 19//19 23//23 24//24
f 27//27 25//25 29//29
f 29//29 25//25 21//21
f 26//26 30//30 33//33
f 26//26 33//33 35//35
f 34//34 32//32 37//37
f 34//34 37//37 39//39
f 40//40 38//38 43//43
f 40//40 43//43 44//44
f 46//46 45//45 49//49
f 49//49 45//45 42//42
f 47//47 48//48 53//53
f 47//47 53//53 54//54
f 55//55 51//51 57//57
f 55//55 57//57 59//59
f 60//60 58//58 63//63
f 60//60 63//63 64//64
f 66//66 65//65 68//68
f 68//68 65//65 61//61
f 72//72 74//74 76//76
f 76//76 74//74 78//78
f 77//77 80//80 82//82
f 82//82 80//80 84//84
f 81//81 83//83 86//86
f 86//86 83//83 88//88
f 92//92 87//87 95//95
f 95//95 87//87 90//90
f 91//91 93//93 97//97
f 97//97 93//93 100//100
f 96//96 99//99 101//101
f 101//101 99//99 105//105
f 102//102 103//103 107//107
f 107//107 103//103 109//109
f 111//111 106//106 115//115
f 115//115 106//106 110//110
f 112//112 114//114 116//116
f 116//116 114//114 119//119
f 117//117 120//120 122//122
f 122//122 120//120 124//124
f 121//121 123//123 126//126
f 126//126 123//123 128//128
f 132//132 127//127 133//133
f 133//133 127//127 129//129
f 131//131 134//134 137//137
f 137//137 134//134 140//140
f 136//136 139//139 141//141
f 141//141 139//139 145//145
f 142//142 144//144 146//146
f 146//146 144//144 148//148
f 71//71 147//147 73//73
f 73//73 147//147 149//149
f 67//67 69//69 151//151
f 67//67 151//151 155//155
f 154//154 153//153 156//156
f 154//154 156//156 159//159
f 160//160 157//157 10//10
f 160//160 10//10 4//4
f 108//108 70//70 113//113
f 113//113 70//70 62//62
f 113//113 62//62 118//118
f 118//118 62//62 56//56
f 118//118 56//56 125//125
f 125//125 56//56 52//52
f 125//125 52//52 130//130
f 130//130 52//52 50//50
f 130//130 50//50 135//135
f 135//135 50//50 41//41
f 135//135 41//41 138//138
f 138//138 41//41 36//36
f 138//138 36//36 143//143
f 143//143 36//36 31//31
f 143//143 31//31 150//150
f 150//150 31//31 28//28
f 150//150 28//28 75//75
f 75//75 28//28 22//22
f 75//75 22//22 79//79
f 79//79 22//22 18//18
f 79//79 18//18 85//85
f 85//85 18//18 13//13
f 85//85 13//13 89//89
f 89//89 13//13 5//5
f 89//89 5//5 94//94
f 94//94 5//5 8//8
f 94//94 8//8 98//98
f 98//98 8//8 158//158
f 98//98 158//158 104//104
f 104//104 158//158 152//152
f 104//104 152//152 108//108
f 108//108 152//152 70//70
