mtllib material_0.mtl
usemtl material_0
v -0.01500000 0.01300000 -0.00025000
v -0.01500000 0.01300000 -0.00025000
v -0.01500000 0.01300000 -0.00025000
v -0.01500000 0.01300000 0.00000000
v -0.01500000 0.01300000 0.00000000
v -0.01500000 0.01300000 0.00000000
v -0.01484800 0.01376500 0.00000000
v -0.01484800 0.01376500 0.00000000
v -0.01484800 0.01376500 0.00000000
v -0.01484800 0.01376500 -0.00025000
v -0.01484800 0.01376500 -0.00025000
v -0.01484800 0.01376500 -0.00025000
v -0.01441400 0.01441400 0.00000000
v -0.01441400 0.01441400 0.00000000
v -0.01441400 0.01441400 0.00000000
v -0.01441400 0.01441400 -0.00025000
v -0.01441400 0.01441400 -0.00025000
v -0.01441400 0.01441400 -0.00025000
v -0.01376500 0.01484800 0.00000000
v -0.01376500 0.01484800 0.00000000
v -0.01376500 0.01484800 0.00000000
v -0.01376500 0.01484800 -0.00025000
v -0.01376500 0.01484800 -0.00025000
v -0.01376500 0.01484800 -0.00025000
v -0.01300000 0.01500000 0.00000000
v -0.01300000 0.01500000 0.00000000
v -0.01300000 0.01500000 0.00000000
v -0.01300000 0.01500000 -0.00025000
v -0.01300000 0.01500000 -0.00025000
v -0.01300000 0.01500000 -0.00025000
v 0.01300000 0.01500000 -0.00025000
v 0.01300000 0.01500000 -0.00025000
v 0.01300000 0.01500000 -0.00025000
v 0.01300000 0.01500000 0.00000000
v 0.01300000 0.01500000 0.00000000
v 0.01300000 0.01500000 0.00000000
v 0.01376500 0.01484800 0.00000000
v 0.01376500 0.01484800 0.00000000
v 0.01376500 0.01484800 0.00000000
v 0.01376500 0.01484800 -0.00025000
v 0.01376500 0.01484800 -0.00025000
v 0.01376500 0.01484800 -0.00025000
v 0.01441400 0.01441400 0.00000000
v 0.01441400 0.01441400 0.00000000
v 0.01441400 0.01441400 0.00000000
v 0.01441400 0.01441400 -0.00025000
v 0.01441400 0.01441400 -0.00025000
v 0.01441400 0.01441400 -0.00025000
v 0.01484800 0.01376500 0.00000000
v 0.01484800 0.01376500 0.00000000
v 0.01484800 0.01376500 0.00000000
v 0.01484800 0.01376500 -0.00025000
v 0.01484800 0.01376500 -0.00025000
v 0.01484800 0.01376500 -0.00025000
v 0.01500000 0.01300000 0.00000000
v 0.01500000 0.01300000 0.00000000
v 0.01500000 0.01300000 0.00000000
v 0.01500000 0.01300000 -0.00025000
v 0.01500000 0.01300000 -0.00025000
v 0.01500000 0.01300000 -0.00025000
v 0.01500000 -0.01300000 -0.00025000
v 0.01500000 -0.01300000 -0.00025000
v 0.01500000 -0.01300000 -0.00025000
v 0.01500000 -0.01300000 0.00000000
v 0.01500000 -0.01300000 0.00000000
v 0.01500000 -0.01300000 0.00000000
v 0.01484800 -0.01376500 0.00000000
v 0.01484800 -0.01376500 0.00000000
v 0.01484800 -0.01376500 0.00000000
v 0.01484800 -0.01376500 -0.00025000
v 0.01484800 -0.01376500 -0.00025000
v 0.01484800 -0.01376500 -0.00025000
v 0.01441400 -0.01441400 0.00000000
v 0.01441400 -0.01441400 0.00000000
v 0.01441400 -0.01441400 0.00000000
v 0.01441400 -0.01441400 -0.00025000
v 0.01441400 -0.01441400 -0.00025000
v 0.01441400 -0.01441400 -0.00025000
v 0.01376500 -0.01484800 0.00000000
v 0.01376500 -0.01484800 0.00000000
v 0.01376500 -0.01484800 0.00000000
v 0.01376500 -0.01484800 -0.00025000
v 0.01376500 -0.01484800 -0.00025000
v 0.01376500 -0.01484800 -0.00025000
v 0.01300000 -0.01500000 0.00000000
v 0.01300000 -0.01500000 0.00000000
v 0.01300000 -0.01500000 0.00000000
v 0.01300000 -0.01500000 -0.00025000
v 0.01300000 -0.01500000 -0.00025000
v 0.01300000 -0.01500000 -0.00025000
v -0.01300000 -0.01500000 -0.00025000
v -0.01300000 -0.01500000 -0.00025000
v -0.01300000 -0.01500000 -0.00025000
v -0.01300000 -0.01500000 0.00000000
v -0.01300000 -0.01500000 0.00000000
v -0.01300000 -0.01500000 0.00000000
v -0.01376500 -0.01484800 0.00000000
v -0.01376500 -0.01484800 0.00000000
v -0.01376500 -0.01484800 0.00000000
v -0.01376500 -0.01484800 -0.00025000
v -0.01376500 -0.01484800 -0.00025000
v -0.01376500 -0.01484800 -0.00025000
v -0.01441400 -0.01441400 0.00000000
v -0.01441400 -0.01441400 0.00000000
v -0.01441400 -0.01441400 0.00000000
v -0.01441400 -0.01441400 -0.00025000
v -0.01441400 -0.01441400 -0.00025000
v -0.01441400 -0.01441400 -0.00025000
v -0.01484800 -0.01376500 0.00000000
v -0.01484800 -0.01376500 0.00000000
v -0.01484800 -0.01376500 0.00000000
v -0.01484800 -0.01376500 -0.00025000
v -0.01484800 -0.01376500 -0.00025000
v -0.01484800 -0.01376500 -0.00025000
v -0.01500000 -0.01300000 0.00000000
v -0.01500000 -0.01300000 0.00000000
v -0.01500000 -0.01300000 0.00000000
v -0.01500000 -0.01300000 -0.00025000
v -0.01500000 -0.01300000 -0.00025000
v -0.01500000 -0.01300000 -0.00025000
vn -0.98080000 0.19510000 0.00000000
vn 0.00000000 0.00000000 -1.00000000
vn -1.00000000 0.00000000 0.00000000
vn -1.00000000 0.00000000 0.00000000
vn 0.00000000 0.00000000 1.00000000
vn -0.98080000 0.19510000 0.00000000
vn -0.98080000 0.19510000 0.00000000
vn -0.83150000 0.55560000 0.00000000
vn 0.00000000 0.00000000 1.00000000
vn -0.83150000 0.55560000 0.00000000
vn -0.98080000 0.19510000 0.00000000
vn 0.00000000 0.00000000 -1.00000000
vn -0.83150000 0.55560000 0.00000000
vn -0.55560000 0.83150000 0.00000000
vn 0.00000000 0.00000000 1.00000000
vn 0.00000000 0.00000000 -1.00000000
vn -0.55560000 0.83150000 0.00000000
vn -0.83150000 0.55560000 0.00000000
vn 0.00000000 0.00000000 1.00000000
vn -0.19510000 0.98080000 0.00000000
vn -0.55560000 0.83150000 0.00000000
vn -0.19510000 0.98080000 0.00000000
vn -0.55560000 0.83150000 0.00000000
vn 0.00000000 0.00000000 -1.00000000
vn 0.00000000 1.00000000 0.00000000
vn -0.19510000 0.98080000 0.00000000
vn 0.00000000 0.00000000 1.00000000
vn 0.00000000 0.00000000 -1.00000000
vn -0.19510000 0.98080000 0.00000000
vn 0.00000000 1.00000000 0.00000000
vn 0.00000000 0.00000000 -1.00000000
vn 0.19510000 0.98080000 0.00000000
vn 0.00000000 1.00000000 0.00000000
vn 0.19510000 0.98080000 0.00000000
vn 0.00000000 1.00000000 0.00000000
vn 0.00000000 0.00000000 1.00000000
vn 0.55560000 0.83150000 0.00000000
vn 0.19510000 0.98080000 0.00000000
vn 0.00000000 0.00000000 1.00000000
vn 0.00000000 0.00000000 -1.00000000
vn 0.55560000 0.83150000 0.00000000
vn 0.19510000 0.98080000 0.00000000
vn 0.55560000 0.83150000 0.00000000
vn 0.00000000 0.00000000 1.00000000
vn 0.83150000 0.55560000 0.00000000
vn 0.00000000 0.00000000 -1.00000000
vn 0.83150000 0.55560000 0.00000000
vn 0.55560000 0.83150000 0.00000000
vn 0.98080000 0.19510000 0.00000000
vn 0.83150000 0.55560000 0.00000000
vn 0.00000000 0.00000000 1.00000000
vn 0.98080000 0.19510000 0.00000000
vn 0.83150000 0.55560000 0.00000000
vn 0.00000000 0.00000000 -1.00000000
vn 0.00000000 0.00000000 1.00000000
vn 0.98080000 0.19510000 0.00000000
vn 1.00000000 0.00000000 0.00000000
vn 0.98080000 0.19510000 0.00000000
vn 0.00000000 0.00000000 -1.00000000
vn 1.00000000 0.00000000 0.00000000
vn 0.98080000 -0.19510000 0.00000000
vn 1.00000000 0.00000000 0.00000000
vn 0.00000000 0.00000000 -1.00000000
vn 0.00000000 0.00000000 1.00000000
vn 1.00000000 0.00000000 0.00000000
vn 0.98080000 -0.19510000 0.00000000
vn 0.98080000 -0.19510000 0.00000000
vn 0.00000000 0.00000000 1.00000000
vn 0.83150000 -0.55560000 0.00000000
vn 0.00000000 0.00000000 -1.00000000
vn 0.98080000 -0.19510000 0.00000000
vn 0.83150000 -0.55560000 0.00000000
vn 0.83150000 -0.55560000 0.00000000
vn 0.00000000 0.00000000 1.00000000
vn 0.55560000 -0.83150000 0.00000000
vn 0.00000000 0.00000000 -1.00000000
vn 0.55560000 -0.83150000 0.00000000
vn 0.83150000 -0.55560000 0.00000000
vn 0.00000000 0.00000000 1.00000000
vn 0.19510000 -0.98080000 0.00000000
vn 0.55560000 -0.83150000 0.00000000
vn 0.00000000 0.00000000 -1.00000000
vn 0.55560000 -0.83150000 0.00000000
vn 0.19510000 -0.98080000 0.00000000
vn 0.19510000 -0.98080000 0.00000000
vn 0.00000000 -1.00000000 0.00000000
vn 0.00000000 0.00000000 1.00000000
vn 0.00000000 0.00000000 -1.00000000
vn 0.19510000 -0.98080000 0.00000000
vn 0.00000000 -1.00000000 0.00000000
vn 0.00000000 -1.00000000 0.00000000
vn -0.19510000 -0.98080000 0.00000000
vn 0.00000000 0.00000000 -1.00000000
vn 0.00000000 0.00000000 1.00000000
vn -0.19510000 -0.98080000 0.00000000
vn 0.00000000 -1.00000000 0.00000000
vn -0.19510000 -0.98080000 0.00000000
vn -0.55560000 -0.83150000 0.00000000
vn 0.00000000 0.00000000 1.00000000
vn 0.00000000 0.00000000 -1.00000000
vn -0.19510000 -0.98080000 0.00000000
vn -0.55560000 -0.83150000 0.00000000
vn -0.55560000 -0.83150000 0.00000000
vn 0.00000000 0.00000000 1.00000000
vn -0.83150000 -0.55560000 0.00000000
vn -0.55560000 -0.83150000 0.00000000
vn -0.83150000 -0.55560000 0.00000000
vn 0.00000000 0.00000000 -1.00000000
vn 0.00000000 0.00000000 1.00000000
vn -0.83150000 -0.55560000 0.00000000
vn -0.98080000 -0.19510000 0.00000000
vn -0.83150000 -0.55560000 0.00000000
vn 0.00000000 0.00000000 -1.00000000
vn -0.98080000 -0.19510000 0.00000000
vn 0.00000000 0.00000000 1.00000000
vn -0.98080000 -0.19510000 0.00000000
vn -1.00000000 0.00000000 0.00000000
vn -1.00000000 0.00000000 0.00000000
vn 0.00000000 0.00000000 -1.00000000
vn -0.98080000 -0.19510000 0.00000000
vt 0.00000000 0.00000000
vt 0.00000000 0.00000000
vt 0.00000000 0.00000000
vt 0.00000000 0.00000000
vt 0.00010000 0.93324700
vt 0.00000000 0.00000000
vt 0.00000000 0.00000000
vt 0.00000000 0.00000000
vt 0.00217200 0.96157900
vt 0.00000000 0.00000000
vt 0.00000000 0.00000000
vt 0.00000000 0.00000000
vt 0.00000000 0.00000000
vt 0.00000000 0.00000000
vt 0.01573800 0.98443900
vt 0.00000000 0.00000000
vt 0.00000000 0.00000000
vt 0.00000000 0.00000000
vt 0.03824500 0.99765100
vt 0.00000000 0.00000000
vt 0.00000000 0.00000000
vt 0.00000000 0.00000000
vt 0.00000000 0.00000000
vt 0.00000000 0.00000000
vt 0.00000000 0.00000000
vt 0.00000000 0.00000000
vt 0.06675300 0.99990000
vt 0.00000000 0.00000000
vt 0.00000000 0.00000000
vt 0.00000000 0.00000000
vt 0.00000000 0.00000000
vt 0.00000000 0.00000000
vt 0.00000000 0.00000000
vt 0.00000000 0.00000000
vt 0.00000000 0.00000000
vt 0.93324600 0.99990000
vt 0.00000000 0.00000000
vt 0.00000000 0.00000000
vt 0.96099600 0.99706900
vt 0.00000000 0.00000000
vt 0.00000000 0.00000000
vt 0.00000000 0.00000000
vt 0.00000000 0.00000000
vt 0.98388100 0.98430200
vt 0.00000000 0.00000000
vt 0.00000000 0.00000000
vt 0.00000000 0.00000000
vt 0.00000000 0.00000000
vt 0.00000000 0.00000000
vt 0.00000000 0.00000000
vt 0.99706800 0.96099600
vt 0.00000000 0.00000000
vt 0.00000000 0.00000000
vt 0.00000000 0.00000000
vt 0.99990000 0.93324700
vt 0.00000000 0.00000000
vt 0.00000000 0.00000000
vt 0.00000000 0.00000000
vt 0.00000000 0.00000000
vt 0.00000000 0.00000000
vt 0.00000000 0.00000000
vt 0.00000000 0.00000000
vt 0.00000000 0.00000000
vt 0.99990000 0.06675300
vt 0.00000000 0.00000000
vt 0.00000000 0.00000000
vt 0.00000000 0.00000000
vt 0.99771800 0.03968900
vt 0.00000000 0.00000000
vt 0.00000000 0.00000000
vt 0.00000000 0.00000000
vt 0.00000000 0.00000000
vt 0.00000000 0.00000000
vt 0.98427100 0.01706400
vt 0.00000000 0.00000000
vt 0.00000000 0.00000000
vt 0.00000000 0.00000000
vt 0.00000000 0.00000000
vt 0.96164600 0.00361700
vt 0.00000000 0.00000000
vt 0.00000000 0.00000000
vt 0.00000000 0.00000000
vt 0.00000000 0.00000000
vt 0.00000000 0.00000000
vt 0.00000000 0.00000000
vt 0.00000000 0.00000000
vt 0.93324700 0.00010000
vt 0.00000000 0.00000000
vt 0.00000000 0.00000000
vt 0.00000000 0.00000000
vt 0.00000000 0.00000000
vt 0.00000000 0.00000000
vt 0.00000000 0.00000000
vt 0.06675300 0.00010000
vt 0.00000000 0.00000000
vt 0.00000000 0.00000000
vt 0.00000000 0.00000000
vt 0.00000000 0.00000000
vt 0.03859800 0.00252500
vt 0.00000000 0.00000000
vt 0.00000000 0.00000000
vt 0.00000000 0.00000000
vt 0.00000000 0.00000000
vt 0.01503200 0.01591500
vt 0.00000000 0.00000000
vt 0.00000000 0.00000000
vt 0.00000000 0.00000000
vt 0.00000000 0.00000000
vt 0.00252500 0.03859800
vt 0.00000000 0.00000000
vt 0.00000000 0.00000000
vt 0.00000000 0.00000000
vt 0.00000000 0.00000000
vt 0.00000000 0.00000000
vt 0.00010000 0.06675300
vt 0.00000000 0.00000000
vt 0.00000000 0.00000000
vt 0.00000000 0.00000000
vt 0.00000000 0.00000000
vt 0.00000000 0.00000000
f 1/1/1 6/6/6 7/7/7
f 1/1/1 7/7/7 11/11/11
f 10/10/10 8/8/8 13/13/13
f 10/10/10 13/13/13 18/18/18
f 17/17/17 14/14/14 21/21/21
f 17/17/17 21/21/21 23/23/23
f 22/22/22 20/20/20 26/26/26
f 22/22/22 26/26/26 29/29/29
f 33/33/33 30/30/30 35/35/35
f 35/35/35 30/30/30 25/25/25
f 32/32/32 34/34/34 38/38/38
f 32/32/32 38/38/38 42/42/42
f 41/41/41 37/37/37 43/43/43
f 41/41/41 43/43/43 48/48/48
f 47/47/47 45/45/45 50/50/50
f 47/47/47 50/50/50 53/53/53
f 52/52/52 49/49/49 56/56/56
f 52/52/52 56/56/56 58/58/58
f 62/62/62 60/60/60 65/65/65
f 65/65/65 60/60/60 57/57/57
f 61/61/61 66/66/66 67/67/67
f 61/61/61 67/67/67 71/71/71
f 72/72/72 69/69/69 73/73/73
f 72/72/72 73/73/73 78/78/78
f 77/77/77 75/75/75 81/81/81
f 77/77/77 81/81/81 83/83/83
f 84/84/84 80/80/80 85/85/85
f 84/84/84 85/85/85 89/89/89
f 91/91/91 90/90/90 96/96/96
f 96/96/96 90/90/90 86/86/86
f 92/92/92 95/95/95 97/97/97
f 92/92/92 97/97/97 101/101/101
f 102/102/102 98/98/98 103/103/103
f 102/102/102 103/103/103 106/106/106
f 107/107/107 105/105/105 110/110/110
f 107/107/107 110/110/110 112/112/112
f 114/114/114 111/111/111 116/116/116
f 114/114/114 116/116/116 120/120/120
f 3/3/3 118/118/118 4/4/4
f 4/4/4 118/118/118 117/117/117
f 59/59/59 63/63/63 31/31/31
f 76/76/76 82/82/82 88/88/88
f 16/16/16 24/24/24 12/12/12
f 12/12/12 24/24/24 28/28/28
f 12/12/12 28/28/28 2/2/2
f 2/2/2 28/28/28 119/119/119
f 31/31/31 63/63/63 28/28/28
f 100/100/100 108/108/108 93/93/93
f 93/93/93 108/108/108 113/113/113
f 93/93/93 113/113/113 119/119/119
f 119/119/119 28/28/28 93/93/93
f 93/93/93 28/28/28 63/63/63
f 93/93/93 63/63/63 88/88/88
f 88/88/88 63/63/63 70/70/70
f 88/88/88 70/70/70 76/76/76
f 40/40/40 46/46/46 31/31/31
f 31/31/31 46/46/46 54/54/54
f 31/31/31 54/54/54 59/59/59
f 5/5/5 115/115/115 27/27/27
f 27/27/27 115/115/115 36/36/36
f 94/94/94 87/87/87 64/64/64
f 104/104/104 99/99/99 109/109/109
f 109/109/109 99/99/99 94/94/94
f 109/109/109 94/94/94 115/115/115
f 115/115/115 94/94/94 64/64/64
f 115/115/115 64/64/64 36/36/36
f 87/87/87 79/79/79 64/64/64
f 64/64/64 79/79/79 74/74/74
f 64/64/64 74/74/74 68/68/68
f 19/19/19 15/15/15 27/27/27
f 27/27/27 15/15/15 9/9/9
f 27/27/27 9/9/9 5/5/5
f 44/44/44 39/39/39 51/51/51
f 51/51/51 39/39/39 36/36/36
f 51/51/51 36/36/36 55/55/55
f 55/55/55 36/36/36 64/64/64
