mtllib material.mtl
usemtl material_0
v -0.01997300 -0.00016600 -0.01864200
v -0.01997300 0.00000000 -0.01864200
v -0.01987200 0.00000000 -0.01915100
v -0.01987200 -0.00016600 -0.01915100
v -0.01987200 -0.00016600 -0.01915100
v -0.01987200 0.00000000 -0.01915100
v -0.01958300 0.00000000 -0.01958300
v -0.01958300 -0.00016600 -0.01958300
v -0.01958300 -0.00016600 -0.01958300
v -0.01958300 0.00000000 -0.01958300
v -0.01915100 0.00000000 -0.01987200
v -0.01915100 -0.00016600 -0.01987200
v -0.01915100 -0.00016600 -0.01987200
v -0.01915100 0.00000000 -0.01987200
v -0.01864200 0.00000000 -0.01997300
v -0.01864200 -0.00016600 -0.01997300
v 0.01864200 -0.00016600 -0.01997300
v -0.01864200 -0.00016600 -0.01997300
v 0.01864200 0.00000000 -0.01997300
v -0.01864200 0.00000000 -0.01997300
v 0.01864200 -0.00016600 -0.01997300
v 0.01864200 0.00000000 -0.01997300
v 0.01915100 0.00000000 -0.01987200
v 0.01915100 -0.00016600 -0.01987200
v 0.01915100 -0.00016600 -0.01987200
v 0.01915100 0.00000000 -0.01987200
v 0.01958300 0.00000000 -0.01958300
v 0.01958300 -0.00016600 -0.01958300
v 0.01958300 -0.00016600 -0.01958300
v 0.01958300 0.00000000 -0.01958300
v 0.01987200 0.00000000 -0.01915100
v 0.01987200 -0.00016600 -0.01915100
v 0.01987200 -0.00016600 -0.01915100
v 0.01987200 0.00000000 -0.01915100
v 0.01997300 0.00000000 -0.01864200
v 0.01997300 -0.00016600 -0.01864200
v 0.01997300 -0.00016600 0.01864200
v 0.01997300 -0.00016600 -0.01864200
v 0.01997300 0.00000000 0.01864200
v 0.01997300 0.00000000 -0.01864200
v 0.01997300 -0.00016600 0.01864200
v 0.01997300 0.00000000 0.01864200
v 0.01987200 0.00000000 0.01915100
v 0.01987200 -0.00016600 0.01915100
v 0.01987200 -0.00016600 0.01915100
v 0.01987200 0.00000000 0.01915100
v 0.01958300 0.00000000 0.01958300
v 0.01958300 -0.00016600 0.01958300
v 0.01958300 -0.00016600 0.01958300
v 0.01958300 0.00000000 0.01958300
v 0.01915100 0.00000000 0.01987200
v 0.01915100 -0.00016600 0.01987200
v 0.01915100 -0.00016600 0.01987200
v 0.01915100 0.00000000 0.01987200
v 0.01864200 0.00000000 0.01997300
v 0.01864200 -0.00016600 0.01997300
v -0.01864200 -0.00016600 0.01997300
v 0.01864200 -0.00016600 0.01997300
v -0.01864200 0.00000000 0.01997300
v 0.01864200 0.00000000 0.01997300
v -0.01864200 -0.00016600 0.01997300
v -0.01864200 0.00000000 0.01997300
v -0.01915100 0.00000000 0.01987200
v -0.01915100 -0.00016600 0.01987200
v -0.01915100 -0.00016600 0.01987200
v -0.01915100 0.00000000 0.01987200
v -0.01958300 0.00000000 0.01958300
v -0.01958300 -0.00016600 0.01958300
v -0.01958300 -0.00016600 0.01958300
v -0.01958300 0.00000000 0.01958300
v -0.01987200 0.00000000 0.01915100
v -0.01987200 -0.00016600 0.01915100
v -0.01987200 -0.00016600 0.01915100
v -0.01987200 0.00000000 0.01915100
v -0.01997300 0.00000000 0.01864200
v -0.01997300 -0.00016600 0.01864200
v -0.01997300 -0.00016600 -0.01864200
v -0.01997300 -0.00016600 0.01864200
v -0.01997300 0.00000000 -0.01864200
v -0.01997300 0.00000000 0.01864200
v -0.01864200 -0.00016600 -0.01997300
v 0.01864200 -0.00016600 -0.01997300
v 0.01997300 -0.00016600 -0.01864200
v 0.01864200 -0.00016600 0.01997300
v -0.01864200 -0.00016600 0.01997300
v 0.01997300 -0.00016600 0.01864200
v 0.01915100 -0.00016600 -0.01987200
v 0.01958300 -0.00016600 -0.01958300
v 0.01987200 -0.00016600 -0.01915100
v -0.01915100 -0.00016600 0.01987200
v -0.01958300 -0.00016600 0.01958300
v -0.01997300 -0.00016600 -0.01864200
v -0.01987200 -0.00016600 -0.01915100
v -0.01958300 -0.00016600 -0.01958300
v -0.01915100 -0.00016600 -0.01987200
v -0.01997300 -0.00016600 0.01864200
v -0.01987200 -0.00016600 0.01915100
v 0.01987200 -0.00016600 0.01915100
v 0.01958300 -0.00016600 0.01958300
v 0.01915100 -0.00016600 0.01987200
v -0.01958300 0.00000000 -0.01958300
v -0.01987200 0.00000000 -0.01915100
v -0.01997300 0.00000000 -0.01864200
v 0.01958300 0.00000000 -0.01958300
v 0.01915100 0.00000000 -0.01987200
v 0.01864200 0.00000000 -0.01997300
v -0.01997300 0.00000000 0.01864200
v -0.01864200 0.00000000 0.01997300
v 0.01997300 0.00000000 0.01864200
v 0.01997300 0.00000000 -0.01864200
v -0.01987200 0.00000000 0.01915100
v -0.01958300 0.00000000 0.01958300
v -0.01915100 0.00000000 0.01987200
v -0.01915100 0.00000000 -0.01987200
v -0.01864200 0.00000000 -0.01997300
v 0.01987200 0.00000000 -0.01915100
v 0.01958300 0.00000000 0.01958300
v 0.01987200 0.00000000 0.01915100
v 0.01915100 0.00000000 0.01987200
v 0.01864200 0.00000000 0.01997300
vn -0.98070000 -0.00000000 -0.19540000
vn -0.98070000 -0.00000000 -0.19540000
vn -0.98080000 -0.00000000 -0.19520000
vn -0.98080000 -0.00000000 -0.19520000
vn -0.83130000 0.00000000 -0.55590000
vn -0.83130000 0.00000000 -0.55590000
vn -0.83130000 0.00000000 -0.55590000
vn -0.83130000 0.00000000 -0.55590000
vn -0.55590000 0.00000000 -0.83130000
vn -0.55590000 0.00000000 -0.83130000
vn -0.55590000 0.00000000 -0.83130000
vn -0.55590000 0.00000000 -0.83130000
vn -0.19540000 0.00000000 -0.98070000
vn -0.19520000 -0.00000000 -0.98080000
vn -0.19540000 0.00000000 -0.98070000
vn -0.19520000 -0.00000000 -0.98080000
vn 0.00000000 0.00000000 -1.00000000
vn 0.00000000 0.00000000 -1.00000000
vn 0.00000000 0.00000000 -1.00000000
vn 0.00000000 0.00000000 -1.00000000
vn 0.19540000 -0.00000000 -0.98070000
vn 0.19520000 0.00000000 -0.98080000
vn 0.19540000 -0.00000000 -0.98070000
vn 0.19520000 0.00000000 -0.98080000
vn 0.55590000 0.00000000 -0.83130000
vn 0.55590000 0.00000000 -0.83130000
vn 0.55590000 0.00000000 -0.83130000
vn 0.55590000 0.00000000 -0.83130000
vn 0.83130000 0.00000000 -0.55590000
vn 0.83130000 0.00000000 -0.55590000
vn 0.83130000 0.00000000 -0.55590000
vn 0.83130000 0.00000000 -0.55590000
vn 0.98080000 0.00000000 -0.19520000
vn 0.98080000 0.00000000 -0.19520000
vn 0.98070000 0.00000000 -0.19540000
vn 0.98070000 0.00000000 -0.19540000
vn 1.00000000 0.00000000 0.00000000
vn 1.00000000 0.00000000 0.00000000
vn 1.00000000 0.00000000 0.00000000
vn 1.00000000 0.00000000 0.00000000
vn 0.98070000 -0.00000000 0.19540000
vn 0.98070000 -0.00000000 0.19540000
vn 0.98080000 -0.00000000 0.19520000
vn 0.98080000 -0.00000000 0.19520000
vn 0.83130000 0.00000000 0.55590000
vn 0.83130000 0.00000000 0.55590000
vn 0.83130000 0.00000000 0.55590000
vn 0.83130000 0.00000000 0.55590000
vn 0.55590000 0.00000000 0.83130000
vn 0.55590000 0.00000000 0.83130000
vn 0.55590000 0.00000000 0.83130000
vn 0.55590000 0.00000000 0.83130000
vn 0.19540000 0.00000000 0.98070000
vn 0.19520000 -0.00000000 0.98080000
vn 0.19540000 0.00000000 0.98070000
vn 0.19520000 -0.00000000 0.98080000
vn 0.00000000 0.00000000 1.00000000
vn 0.00000000 0.00000000 1.00000000
vn 0.00000000 0.00000000 1.00000000
vn 0.00000000 0.00000000 1.00000000
vn -0.19540000 -0.00000000 0.98070000
vn -0.19520000 0.00000000 0.98080000
vn -0.19540000 -0.00000000 0.98070000
vn -0.19520000 0.00000000 0.98080000
vn -0.55590000 0.00000000 0.83130000
vn -0.55590000 0.00000000 0.83130000
vn -0.55590000 0.00000000 0.83130000
vn -0.55590000 0.00000000 0.83130000
vn -0.83130000 0.00000000 0.55590000
vn -0.83130000 0.00000000 0.55590000
vn -0.83130000 0.00000000 0.55590000
vn -0.83130000 0.00000000 0.55590000
vn -0.98080000 0.00000000 0.19520000
vn -0.98080000 0.00000000 0.19520000
vn -0.98070000 0.00000000 0.19540000
vn -0.98070000 0.00000000 0.19540000
vn -1.00000000 0.00000000 0.00000000
vn -1.00000000 0.00000000 0.00000000
vn -1.00000000 0.00000000 0.00000000
vn -1.00000000 0.00000000 0.00000000
vn 0.00000000 -1.00000000 -0.00000000
vn 0.00000000 -1.00000000 -0.00000000
vn 0.00000000 -1.00000000 -0.00000000
vn 0.00000000 -1.00000000 -0.00000000
vn 0.00000000 -1.00000000 -0.00000000
vn 0.00000000 -1.00000000 -0.00000000
vn 0.00000000 -1.00000000 -0.00000000
vn 0.00000000 -1.00000000 -0.00000000
vn 0.00000000 -1.00000000 -0.00000000
vn 0.00000000 -1.00000000 -0.00000000
vn 0.00000000 -1.00000000 -0.00000000
vn 0.00000000 -1.00000000 -0.00000000
vn 0.00000000 -1.00000000 -0.00000000
vn 0.00000000 -1.00000000 -0.00000000
vn 0.00000000 -1.00000000 -0.00000000
vn 0.00000000 -1.00000000 -0.00000000
vn 0.00000000 -1.00000000 -0.00000000
vn 0.00000000 -1.00000000 -0.00000000
vn 0.00000000 -1.00000000 -0.00000000
vn 0.00000000 -1.00000000 -0.00000000
vn 0.00000000 1.00000000 0.00000000
vn 0.00000000 1.00000000 0.00000000
vn 0.00000000 1.00000000 0.00000000
vn 0.00000000 1.00000000 0.00000000
vn 0.00000000 1.00000000 0.00000000
vn 0.00000000 1.00000000 0.00000000
vn 0.00000000 1.00000000 0.00000000
vn 0.00000000 1.00000000 0.00000000
vn 0.00000000 1.00000000 0.00000000
vn 0.00000000 1.00000000 0.00000000
vn 0.00000000 1.00000000 0.00000000
vn 0.00000000 1.00000000 0.00000000
vn 0.00000000 1.00000000 0.00000000
vn 0.00000000 1.00000000 0.00000000
vn 0.00000000 1.00000000 0.00000000
vn 0.00000000 1.00000000 0.00000000
vn 0.00000000 1.00000000 0.00000000
vn 0.00000000 1.00000000 0.00000000
vn 0.00000000 1.00000000 0.00000000
vn 0.00000000 1.00000000 0.00000000
vt 0.00000000 0.00000000
vt 0.00000000 0.00000000
vt 0.00000000 0.00000000
vt 0.00000000 0.00000000
vt 0.00000000 0.00000000
vt 0.00000000 0.00000000
vt 0.00000000 0.00000000
vt 0.00000000 0.00000000
vt 0.00000000 0.00000000
vt 0.00000000 0.00000000
vt 0.00000000 0.00000000
vt 0.00000000 0.00000000
vt 0.00000000 0.00000000
vt 0.00000000 0.00000000
vt 0.00000000 0.00000000
vt 0.00000000 0.00000000
vt 0.00000000 0.00000000
vt 0.00000000 0.00000000
vt 0.00000000 0.00000000
vt 0.00000000 0.00000000
vt 0.00000000 0.00000000
vt 0.00000000 0.00000000
vt 0.00000000 0.00000000
vt 0.00000000 0.00000000
vt 0.00000000 0.00000000
vt 0.00000000 0.00000000
vt 0.00000000 0.00000000
vt 0.00000000 0.00000000
vt 0.00000000 0.00000000
vt 0.00000000 0.00000000
vt 0.00000000 0.00000000
vt 0.00000000 0.00000000
vt 0.00000000 0.00000000
vt 0.00000000 0.00000000
vt 0.00000000 0.00000000
vt 0.00000000 0.00000000
vt 0.00000000 0.00000000
vt 0.00000000 0.00000000
vt 0.00000000 0.00000000
vt 0.00000000 0.00000000
vt 0.00000000 0.00000000
vt 0.00000000 0.00000000
vt 0.00000000 0.00000000
vt 0.00000000 0.00000000
vt 0.00000000 0.00000000
vt 0.00000000 0.00000000
vt 0.00000000 0.00000000
vt 0.00000000 0.00000000
vt 0.00000000 0.00000000
vt 0.00000000 0.00000000
vt 0.00000000 0.00000000
vt 0.00000000 0.00000000
vt 0.00000000 0.00000000
vt 0.00000000 0.00000000
vt 0.00000000 0.00000000
vt 0.00000000 0.00000000
vt 0.00000000 0.00000000
vt 0.00000000 0.00000000
vt 0.00000000 0.00000000
vt 0.00000000 0.00000000
vt 0.00000000 0.00000000
vt 0.00000000 0.00000000
vt 0.00000000 0.00000000
vt 0.00000000 0.00000000
vt 0.00000000 0.00000000
vt 0.00000000 0.00000000
vt 0.00000000 0.00000000
vt 0.00000000 0.00000000
vt 0.00000000 0.00000000
vt 0.00000000 0.00000000
vt 0.00000000 0.00000000
vt 0.00000000 0.00000000
vt 0.00000000 0.00000000
vt 0.00000000 0.00000000
vt 0.00000000 0.00000000
vt 0.00000000 0.00000000
vt 0.00000000 0.00000000
vt 0.00000000 0.00000000
vt 0.00000000 0.00000000
vt 0.00000000 0.00000000
vt 0.00000000 0.00000000
vt 0.00000000 0.00000000
vt 0.00000000 0.00000000
vt 0.00000000 0.00000000
vt 0.00000000 0.00000000
vt 0.00000000 0.00000000
vt 0.00000000 0.00000000
vt 0.00000000 0.00000000
vt 0.00000000 0.00000000
vt 0.00000000 0.00000000
vt 0.00000000 0.00000000
vt 0.00000000 0.00000000
vt 0.00000000 0.00000000
vt 0.00000000 0.00000000
vt 0.00000000 0.00000000
vt 0.00000000 0.00000000
vt 0.00000000 0.00000000
vt 0.00000000 0.00000000
vt 0.00000000 0.00000000
vt 0.00000000 0.00000000
vt 0.01515000 0.98590800
vt 0.00686800 0.97439100
vt 0.00010000 0.95094800
vt 0.98520200 0.98581900
vt 0.97624200 0.99295600
vt 0.95680800 0.99990000
vt 0.00010000 0.04319200
vt 0.04123900 0.00010000
vt 0.99990000 0.04123900
vt 0.99990000 0.95876100
vt 0.00752400 0.02578200
vt 0.01541400 0.01452600
vt 0.02567100 0.00674600
vt 0.02419900 0.99242700
vt 0.04905200 0.99990000
vt 0.99304400 0.97571300
vt 0.98546700 0.01488600
vt 0.99313200 0.02499300
vt 0.97447900 0.00581000
vt 0.95680800 0.00010000
f 1/1/1 2/2/2 3/3/3
f 1/1/1 3/3/3 4/4/4
f 5/5/5 6/6/6 7/7/7
f 5/5/5 7/7/7 8/8/8
f 9/9/9 10/10/10 11/11/11
f 9/9/9 11/11/11 12/12/12
f 13/13/13 14/14/14 15/15/15
f 13/13/13 15/15/15 16/16/16
f 17/17/17 18/18/18 19/19/19
f 19/19/19 18/18/18 20/20/20
f 21/21/21 22/22/22 23/23/23
f 21/21/21 23/23/23 24/24/24
f 25/25/25 26/26/26 27/27/27
f 25/25/25 27/27/27 28/28/28
f 29/29/29 30/30/30 31/31/31
f 29/29/29 31/31/31 32/32/32
f 33/33/33 34/34/34 35/35/35
f 33/33/33 35/35/35 36/36/36
f 37/37/37 38/38/38 39/39/39
f 39/39/39 38/38/38 40/40/40
f 41/41/41 42/42/42 43/43/43
f 41/41/41 43/43/43 44/44/44
f 45/45/45 46/46/46 47/47/47
f 45/45/45 47/47/47 48/48/48
f 49/49/49 50/50/50 51/51/51
f 49/49/49 51/51/51 52/52/52
f 53/53/53 54/54/54 55/55/55
f 53/53/53 55/55/55 56/56/56
f 57/57/57 58/58/58 59/59/59
f 59/59/59 58/58/58 60/60/60
f 61/61/61 62/62/62 63/63/63
f 61/61/61 63/63/63 64/64/64
f 65/65/65 66/66/66 67/67/67
f 65/65/65 67/67/67 68/68/68
f 69/69/69 70/70/70 71/71/71
f 69/69/69 71/71/71 72/72/72
f 73/73/73 74/74/74 75/75/75
f 73/73/73 75/75/75 76/76/76
f 77/77/77 78/78/78 79/79/79
f 79/79/79 78/78/78 80/80/80
f 81/81/81 82/82/82 83/83/83
f 84/84/84 85/85/85 86/86/86
f 82/82/82 87/87/87 83/83/83
f 83/83/83 87/87/87 88/88/88
f 83/83/83 88/88/88 89/89/89
f 86/86/86 85/85/85 83/83/83
f 85/85/85 90/90/90 91/91/91
f 92/92/92 93/93/93 81/81/81
f 81/81/81 93/93/93 94/94/94
f 81/81/81 94/94/94 95/95/95
f 81/81/81 83/83/83 92/92/92
f 92/92/92 83/83/83 85/85/85
f 92/92/92 85/85/85 96/96/96
f 96/96/96 85/85/85 91/91/91
f 96/96/96 91/91/91 97/97/97
f 98/98/98 99/99/99 86/86/86
f 86/86/86 99/99/99 100/100/100
f 86/86/86 100/100/100 84/84/84
f 101/101/101 102/102/102 103/103/103
f 104/104/104 105/105/105 106/106/106
f 107/107/107 108/108/108 103/103/103
f 103/103/103 108/108/108 109/109/109
f 103/103/103 109/109/109 110/110/110
f 107/107/107 111/111/111 108/108/108
f 108/108/108 111/111/111 112/112/112
f 108/108/108 112/112/112 113/113/113
f 114/114/114 101/101/101 115/115/115
f 115/115/115 101/101/101 103/103/103
f 115/115/115 103/103/103 106/106/106
f 106/106/106 103/103/103 110/110/110
f 106/106/106 110/110/110 104/104/104
f 104/104/104 110/110/110 116/116/116
f 117/117/117 118/118/118 119/119/119
f 119/119/119 118/118/118 109/109/109
f 119/119/119 109/109/109 120/120/120
f 120/120/120 109/109/109 108/108/108

