mtllib material_0.mtl
usemtl material_0
v -0.01600000 0.01750000 -0.00900000
v -0.01600000 0.01750000 -0.00900000
v -0.01600000 0.01900000 -0.00900000
v -0.01600000 0.01900000 -0.00900000
v -0.01675000 0.01729900 -0.00900000
v -0.01675000 0.01729900 -0.00900000
v -0.01750000 0.01859800 -0.00900000
v -0.01750000 0.01859800 -0.00900000
v -0.01729900 0.01675000 -0.00900000
v -0.01729900 0.01675000 -0.00900000
v -0.01859800 0.01750000 -0.00900000
v -0.01859800 0.01750000 -0.00900000
v -0.01750000 0.01600000 -0.00900000
v -0.01750000 0.01600000 -0.00900000
v -0.01900000 0.01600000 -0.00900000
v -0.01900000 0.01600000 -0.00900000
v -0.01750000 -0.01600000 -0.00900000
v -0.01750000 -0.01600000 -0.00900000
v -0.01900000 -0.01600000 -0.00900000
v -0.01900000 -0.01600000 -0.00900000
v -0.01729900 -0.01675000 -0.00900000
v -0.01729900 -0.01675000 -0.00900000
v -0.01859800 -0.01750000 -0.00900000
v -0.01859800 -0.01750000 -0.00900000
v -0.01675000 -0.01729900 -0.00900000
v -0.01675000 -0.01729900 -0.00900000
v -0.01750000 -0.01859800 -0.00900000
v -0.01750000 -0.01859800 -0.00900000
v -0.01600000 -0.01750000 -0.00900000
v -0.01600000 -0.01750000 -0.00900000
v -0.01600000 -0.01900000 -0.00900000
v -0.01600000 -0.01900000 -0.00900000
v 0.01600000 -0.01750000 -0.00900000
v 0.01600000 -0.01750000 -0.00900000
v 0.01600000 -0.01900000 -0.00900000
v 0.01600000 -0.01900000 -0.00900000
v 0.01675000 -0.01729900 -0.00900000
v 0.01675000 -0.01729900 -0.00900000
v 0.01750000 -0.01859800 -0.00900000
v 0.01750000 -0.01859800 -0.00900000
v 0.01729900 -0.01675000 -0.00900000
v 0.01729900 -0.01675000 -0.00900000
v 0.01859800 -0.01750000 -0.00900000
v 0.01859800 -0.01750000 -0.00900000
v 0.01750000 -0.01600000 -0.00900000
v 0.01750000 -0.01600000 -0.00900000
v 0.01900000 -0.01600000 -0.00900000
v 0.01900000 -0.01600000 -0.00900000
v 0.01750000 0.01600000 -0.00900000
v 0.01750000 0.01600000 -0.00900000
v 0.01900000 0.01600000 -0.00900000
v 0.01900000 0.01600000 -0.00900000
v 0.01729900 0.01675000 -0.00900000
v 0.01729900 0.01675000 -0.00900000
v 0.01859800 0.01750000 -0.00900000
v 0.01859800 0.01750000 -0.00900000
v 0.01675000 0.01729900 -0.00900000
v 0.01675000 0.01729900 -0.00900000
v 0.01750000 0.01859800 -0.00900000
v 0.01750000 0.01859800 -0.00900000
v 0.01600000 0.01750000 -0.00900000
v 0.01600000 0.01750000 -0.00900000
v 0.01600000 0.01900000 -0.00900000
v 0.01600000 0.01900000 -0.00900000
v -0.01600000 0.01750000 -0.22650000
v -0.01600000 0.01750000 -0.22650000
v -0.01600000 0.01750000 -0.22650000
v -0.01600000 0.01900000 -0.22650000
v -0.01600000 0.01900000 -0.22650000
v -0.01600000 0.01900000 -0.22650000
v 0.01600000 0.01750000 -0.22650000
v 0.01600000 0.01750000 -0.22650000
v 0.01600000 0.01750000 -0.22650000
v 0.01600000 0.01750000 -0.22650000
v 0.01600000 0.01900000 -0.22650000
v 0.01600000 0.01900000 -0.22650000
v 0.01600000 0.01900000 -0.22650000
v 0.01600000 0.01900000 -0.22650000
v 0.01675000 0.01729900 -0.22650000
v 0.01675000 0.01729900 -0.22650000
v 0.01675000 0.01729900 -0.22650000
v 0.01675000 0.01729900 -0.22650000
v 0.01750000 0.01859800 -0.22650000
v 0.01750000 0.01859800 -0.22650000
v 0.01750000 0.01859800 -0.22650000
v 0.01729900 0.01675000 -0.22650000
v 0.01729900 0.01675000 -0.22650000
v 0.01729900 0.01675000 -0.22650000
v 0.01859800 0.01750000 -0.22650000
v 0.01859800 0.01750000 -0.22650000
v 0.01859800 0.01750000 -0.22650000
v 0.01750000 0.01600000 -0.22650000
v 0.01750000 0.01600000 -0.22650000
v 0.01750000 0.01600000 -0.22650000
v 0.01900000 0.01600000 -0.22650000
v 0.01900000 0.01600000 -0.22650000
v 0.01900000 0.01600000 -0.22650000
v 0.01750000 -0.01600000 -0.22650000
v 0.01750000 -0.01600000 -0.22650000
v 0.01750000 -0.01600000 -0.22650000
v 0.01900000 -0.01600000 -0.22650000
v 0.01900000 -0.01600000 -0.22650000
v 0.01900000 -0.01600000 -0.22650000
v 0.01729900 -0.01675000 -0.22650000
v 0.01729900 -0.01675000 -0.22650000
v 0.01729900 -0.01675000 -0.22650000
v 0.01859800 -0.01750000 -0.22650000
v 0.01859800 -0.01750000 -0.22650000
v 0.01859800 -0.01750000 -0.22650000
v 0.01675000 -0.01729900 -0.22650000
v 0.01675000 -0.01729900 -0.22650000
v 0.01675000 -0.01729900 -0.22650000
v 0.01750000 -0.01859800 -0.22650000
v 0.01750000 -0.01859800 -0.22650000
v 0.01750000 -0.01859800 -0.22650000
v 0.01600000 -0.01750000 -0.22650000
v 0.01600000 -0.01750000 -0.22650000
v 0.01600000 -0.01750000 -0.22650000
v 0.01600000 -0.01900000 -0.22650000
v 0.01600000 -0.01900000 -0.22650000
v 0.01600000 -0.01900000 -0.22650000
v -0.01600000 -0.01750000 -0.22650000
v -0.01600000 -0.01750000 -0.22650000
v -0.01600000 -0.01750000 -0.22650000
v -0.01600000 -0.01750000 -0.22650000
v -0.01600000 -0.01900000 -0.22650000
v -0.01600000 -0.01900000 -0.22650000
v -0.01600000 -0.01900000 -0.22650000
v -0.01600000 -0.01900000 -0.22650000
v -0.01675000 -0.01729900 -0.22650000
v -0.01675000 -0.01729900 -0.22650000
v -0.01675000 -0.01729900 -0.22650000
v -0.01675000 -0.01729900 -0.22650000
v -0.01750000 -0.01859800 -0.22650000
v -0.01750000 -0.01859800 -0.22650000
v -0.01750000 -0.01859800 -0.22650000
v -0.01729900 -0.01675000 -0.22650000
v -0.01729900 -0.01675000 -0.22650000
v -0.01729900 -0.01675000 -0.22650000
v -0.01859800 -0.01750000 -0.22650000
v -0.01859800 -0.01750000 -0.22650000
v -0.01859800 -0.01750000 -0.22650000
v -0.01750000 -0.01600000 -0.22650000
v -0.01750000 -0.01600000 -0.22650000
v -0.01750000 -0.01600000 -0.22650000
v -0.01900000 -0.01600000 -0.22650000
v -0.01900000 -0.01600000 -0.22650000
v -0.01900000 -0.01600000 -0.22650000
v -0.01750000 0.01600000 -0.22650000
v -0.01750000 0.01600000 -0.22650000
v -0.01750000 0.01600000 -0.22650000
v -0.01900000 0.01600000 -0.22650000
v -0.01900000 0.01600000 -0.22650000
v -0.01900000 0.01600000 -0.22650000
v -0.01729900 0.01675000 -0.22650000
v -0.01729900 0.01675000 -0.22650000
v -0.01729900 0.01675000 -0.22650000
v -0.01859800 0.01750000 -0.22650000
v -0.01859800 0.01750000 -0.22650000
v -0.01859800 0.01750000 -0.22650000
v -0.01675000 0.01729900 -0.22650000
v -0.01675000 0.01729900 -0.22650000
v -0.01675000 0.01729900 -0.22650000
v -0.01750000 0.01859800 -0.22650000
v -0.01750000 0.01859800 -0.22650000
v -0.01750000 0.01859800 -0.22650000
vn 0.00000000 -1.00000000 0.00000000
vn 0.25890000 -0.96590000 0.00000000
vn -0.25880000 0.96590000 0.00000000
vn 0.00000000 1.00000000 0.00000000
vn 0.25890000 -0.96590000 0.00000000
vn 0.70710000 -0.70710000 0.00000000
vn -0.25880000 0.96590000 0.00000000
vn -0.70710000 0.70710000 0.00000000
vn 0.96590000 -0.25890000 0.00000000
vn 0.70710000 -0.70710000 0.00000000
vn -0.96590000 0.25880000 0.00000000
vn -0.70710000 0.70710000 0.00000000
vn 0.96590000 -0.25890000 0.00000000
vn 1.00000000 0.00000000 0.00000000
vn -0.96590000 0.25880000 0.00000000
vn -1.00000000 0.00000000 0.00000000
vn 1.00000000 0.00000000 0.00000000
vn 0.96590000 0.25890000 0.00000000
vn -0.96590000 -0.25880000 0.00000000
vn -1.00000000 0.00000000 0.00000000
vn 0.70710000 0.70710000 0.00000000
vn 0.96590000 0.25890000 0.00000000
vn -0.70710000 -0.70710000 0.00000000
vn -0.96590000 -0.25880000 0.00000000
vn 0.70710000 0.70710000 0.00000000
vn 0.25890000 0.96590000 0.00000000
vn -0.25880000 -0.96590000 0.00000000
vn -0.70710000 -0.70710000 0.00000000
vn 0.25890000 0.96590000 0.00000000
vn 0.00000000 1.00000000 0.00000000
vn -0.25880000 -0.96590000 0.00000000
vn 0.00000000 -1.00000000 0.00000000
vn -0.25890000 0.96590000 0.00000000
vn 0.00000000 1.00000000 0.00000000
vn 0.25880000 -0.96590000 0.00000000
vn 0.00000000 -1.00000000 0.00000000
vn -0.70710000 0.70710000 0.00000000
vn -0.25890000 0.96590000 0.00000000
vn 0.70710000 -0.70710000 0.00000000
vn 0.25880000 -0.96590000 0.00000000
vn -0.70710000 0.70710000 0.00000000
vn -0.96590000 0.25890000 0.00000000
vn 0.96590000 -0.25880000 0.00000000
vn 0.70710000 -0.70710000 0.00000000
vn -0.96590000 0.25890000 0.00000000
vn -1.00000000 0.00000000 0.00000000
vn 0.96590000 -0.25880000 0.00000000
vn 1.00000000 0.00000000 0.00000000
vn -1.00000000 0.00000000 0.00000000
vn -0.96590000 -0.25890000 0.00000000
vn 1.00000000 0.00000000 0.00000000
vn 0.96590000 0.25880000 0.00000000
vn -0.70710000 -0.70710000 0.00000000
vn -0.96590000 -0.25890000 0.00000000
vn 0.96590000 0.25880000 0.00000000
vn 0.70710000 0.70710000 0.00000000
vn -0.25890000 -0.96590000 0.00000000
vn -0.70710000 -0.70710000 0.00000000
vn 0.70710000 0.70710000 0.00000000
vn 0.25880000 0.96590000 0.00000000
vn -0.25890000 -0.96590000 0.00000000
vn 0.00000000 -1.00000000 0.00000000
vn 0.25880000 0.96590000 0.00000000
vn 0.00000000 1.00000000 0.00000000
vn 0.25890000 -0.96590000 0.00000000
vn -0.00000000 0.00000000 -1.00000000
vn 0.00000000 -1.00000000 0.00000000
vn -0.00000000 0.00000000 -1.00000000
vn 0.00000000 1.00000000 0.00000000
vn -0.25880000 0.96590000 0.00000000
vn -0.00000000 0.00000000 -1.00000000
vn -0.25890000 -0.96590000 0.00000000
vn -0.00010000 0.00000000 -1.00000000
vn 0.00000000 -1.00000000 0.00000000
vn -0.00000000 0.00000000 -1.00000000
vn -0.00010000 0.00000000 -1.00000000
vn 0.00000000 1.00000000 0.00000000
vn 0.25880000 0.96590000 0.00000000
vn -0.70710000 -0.70710000 0.00000000
vn -0.00010000 0.00000000 -1.00000000
vn -0.00000000 0.00000000 -1.00000000
vn -0.25890000 -0.96590000 0.00000000
vn 0.70710000 0.70710000 0.00000000
vn -0.00000000 0.00000000 -1.00000000
vn 0.25880000 0.96590000 0.00000000
vn -0.00000000 0.00000000 -1.00000000
vn -0.70710000 -0.70710000 0.00000000
vn -0.96590000 -0.25890000 0.00000000
vn 0.70710000 0.70710000 0.00000000
vn -0.00000000 0.00000000 -1.00000000
vn 0.96590000 0.25880000 0.00000000
vn -0.96590000 -0.25890000 0.00000000
vn -0.00000000 0.00000000 -1.00000000
vn -1.00000000 0.00000000 0.00000000
vn -0.00000000 0.00000000 -1.00000000
vn 1.00000000 0.00000000 0.00000000
vn 0.96590000 0.25880000 0.00000000
vn -0.00000000 0.00000000 -1.00000000
vn -0.96590000 0.25890000 0.00000000
vn -1.00000000 0.00000000 0.00000000
vn 0.96590000 -0.25880000 0.00000000
vn -0.00000000 0.00000000 -1.00000000
vn 1.00000000 0.00000000 0.00000000
vn -0.00000000 0.00000000 -1.00000000
vn -0.70710000 0.70710000 0.00000000
vn -0.96590000 0.25890000 0.00000000
vn 0.70710000 -0.70710000 0.00000000
vn -0.00000000 0.00000000 -1.00000000
vn 0.96590000 -0.25880000 0.00000000
vn -0.00000000 0.00000000 -1.00000000
vn -0.70710000 0.70710000 0.00000000
vn -0.25890000 0.96590000 0.00000000
vn 0.25880000 -0.96590000 0.00000000
vn 0.70710000 -0.70710000 0.00000000
vn -0.00000000 0.00000000 -1.00000000
vn -0.25890000 0.96590000 0.00000000
vn -0.00000000 0.00000000 -1.00000000
vn 0.00000000 1.00000000 0.00000000
vn -0.00000000 0.00000000 -1.00000000
vn 0.25880000 -0.96590000 0.00000000
vn 0.00000000 -1.00000000 0.00000000
vn -0.00000000 0.00000000 -1.00000000
vn 0.25890000 0.96590000 0.00000000
vn 0.00010000 0.00000000 -1.00000000
vn 0.00000000 1.00000000 0.00000000
vn -0.25880000 -0.96590000 0.00000000
vn -0.00000000 0.00000000 -1.00000000
vn 0.00010000 0.00000000 -1.00000000
vn 0.00000000 -1.00000000 0.00000000
vn -0.00000000 0.00000000 -1.00000000
vn 0.25890000 0.96590000 0.00000000
vn 0.00010000 0.00000000 -1.00000000
vn 0.70710000 0.70710000 0.00000000
vn -0.00000000 0.00000000 -1.00000000
vn -0.25880000 -0.96590000 0.00000000
vn -0.70710000 -0.70710000 0.00000000
vn 0.96590000 0.25890000 0.00000000
vn -0.00000000 0.00000000 -1.00000000
vn 0.70710000 0.70710000 0.00000000
vn -0.70710000 -0.70710000 0.00000000
vn -0.00000000 0.00000000 -1.00000000
vn -0.96590000 -0.25880000 0.00000000
vn 0.96590000 0.25890000 0.00000000
vn 1.00000000 0.00000000 0.00000000
vn -0.00000000 0.00000000 -1.00000000
vn -0.96590000 -0.25880000 0.00000000
vn -0.00000000 0.00000000 -1.00000000
vn -1.00000000 0.00000000 0.00000000
vn 0.96590000 -0.25890000 0.00000000
vn 1.00000000 0.00000000 0.00000000
vn -0.00000000 0.00000000 -1.00000000
vn -0.96590000 0.25880000 0.00000000
vn -0.00000000 0.00000000 -1.00000000
vn -1.00000000 0.00000000 0.00000000
vn -0.00000000 0.00000000 -1.00000000
vn 0.96590000 -0.25890000 0.00000000
vn 0.70710000 -0.70710000 0.00000000
vn -0.00000000 0.00000000 -1.00000000
vn -0.70710000 0.70710000 0.00000000
vn -0.96590000 0.25880000 0.00000000
vn -0.00000000 0.00000000 -1.00000000
vn 0.70710000 -0.70710000 0.00000000
vn 0.25890000 -0.96590000 0.00000000
vn -0.25880000 0.96590000 0.00000000
vn -0.70710000 0.70710000 0.00000000
vn -0.00000000 0.00000000 -1.00000000
f 66//66 68//68 71//71
f 71//71 68//68 75//75
f 73//73 76//76 80//80
f 81//81 75//75 84//84
f 81//81 84//84 86//86
f 86//86 84//84 90//90
f 86//86 90//90 93//93
f 93//93 90//90 95//95
f 93//93 95//95 98//98
f 98//98 95//95 102//102
f 98//98 102//102 104//104
f 104//104 102//102 108//108
f 104//104 108//108 110//110
f 110//110 108//108 115//115
f 110//110 115//115 117//117
f 117//117 115//115 119//119
f 117//117 119//119 122//122
f 122//122 119//119 127//127
f 124//124 128//128 132//132
f 130//130 127//127 134//134
f 130//130 134//134 138//138
f 138//138 134//134 141//141
f 138//138 141//141 145//145
f 145//145 141//141 147//147
f 145//145 147//147 151//151
f 151//151 147//147 153//153
f 151//151 153//153 155//155
f 155//155 153//153 158//158
f 155//155 158//158 161//161
f 161//161 158//158 166//166
f 161//161 166//166 66//66
f 66//66 166//166 68//68
f 3//3 70//70 164//164
f 3//3 164//164 7//7
f 8//8 165//165 159//159
f 8//8 159//159 12//12
f 11//11 160//160 152//152
f 11//11 152//152 15//15
f 20//20 16//16 148//148
f 148//148 16//16 154//154
f 19//19 146//146 142//142
f 19//19 142//142 24//24
f 23//23 140//140 136//136
f 23//23 136//136 28//28
f 27//27 135//135 126//126
f 27//27 126//126 31//31
f 36//36 32//32 121//121
f 121//121 32//32 129//129
f 35//35 120//120 113//113
f 35//35 113//113 40//40
f 39//39 114//114 107//107
f 39//39 107//107 44//44
f 43//43 109//109 101//101
f 43//43 101//101 47//47
f 51//51 48//48 96//96
f 96//96 48//48 103//103
f 52//52 97//97 91//91
f 52//52 91//91 55//55
f 56//56 89//89 83//83
f 56//56 83//83 59//59
f 60//60 85//85 78//78
f 60//60 78//78 63//63
f 4//4 64//64 69//69
f 69//69 64//64 77//77
f 29//29 123//123 26//26
f 26//26 123//123 131//131
f 25//25 133//133 21//21
f 21//21 133//133 139//139
f 22//22 137//137 18//18
f 18//18 137//137 143//143
f 30//30 34//34 125//125
f 125//125 34//34 118//118
f 45//45 99//99 42//42
f 42//42 99//99 106//106
f 41//41 105//105 37//37
f 37//37 105//105 111//111
f 38//38 112//112 33//33
f 33//33 112//112 116//116
f 46//46 49//49 100//100
f 100//100 49//49 94//94
f 61//61 72//72 57//57
f 57//57 72//72 82//82
f 58//58 79//79 53//53
f 53//53 79//79 87//87
f 54//54 88//88 50//50
f 50//50 88//88 92//92
f 62//62 1//1 74//74
f 74//74 1//1 67//67
f 13//13 149//149 9//9
f 9//9 149//149 156//156
f 10//10 157//157 6//6
f 6//6 157//157 162//162
f 5//5 163//163 2//2
f 2//2 163//163 65//65
f 14//14 17//17 150//150
f 150//150 17//17 144//144
