mtllib material_0.mtl
usemtl material_0
v -0.01550000 -0.01470000 -0.00900000
v -0.01550000 -0.01470000 -0.00900000
v -0.01700000 -0.01470000 -0.00900000
v -0.01700000 -0.01470000 -0.00900000
v -0.01539300 -0.01510000 -0.00900000
v -0.01539300 -0.01510000 -0.00900000
v -0.01669200 -0.01585000 -0.00900000
v -0.01669200 -0.01585000 -0.00900000
v -0.01510000 -0.01539300 -0.00900000
v -0.01510000 -0.01539300 -0.00900000
v -0.01585000 -0.01669200 -0.00900000
v -0.01585000 -0.01669200 -0.00900000
v -0.01470000 -0.01550000 -0.00900000
v -0.01470000 -0.01550000 -0.00900000
v -0.01470000 -0.01700000 -0.00900000
v -0.01470000 -0.01700000 -0.00900000
v 0.01470000 -0.01550000 -0.00900000
v 0.01470000 -0.01550000 -0.00900000
v 0.01470000 -0.01700000 -0.00900000
v 0.01470000 -0.01700000 -0.00900000
v 0.01510000 -0.01539300 -0.00900000
v 0.01510000 -0.01539300 -0.00900000
v 0.01585000 -0.01669200 -0.00900000
v 0.01585000 -0.01669200 -0.00900000
v 0.01539300 -0.01510000 -0.00900000
v 0.01539300 -0.01510000 -0.00900000
v 0.01669200 -0.01585000 -0.00900000
v 0.01669200 -0.01585000 -0.00900000
v 0.01550000 -0.01470000 -0.00900000
v 0.01550000 -0.01470000 -0.00900000
v 0.01700000 -0.01470000 -0.00900000
v 0.01700000 -0.01470000 -0.00900000
v 0.01550000 0.01470000 -0.00900000
v 0.01550000 0.01470000 -0.00900000
v 0.01700000 0.01470000 -0.00900000
v 0.01700000 0.01470000 -0.00900000
v 0.01539300 0.01510000 -0.00900000
v 0.01539300 0.01510000 -0.00900000
v 0.01669200 0.01585000 -0.00900000
v 0.01669200 0.01585000 -0.00900000
v 0.01510000 0.01539300 -0.00900000
v 0.01510000 0.01539300 -0.00900000
v 0.01585000 0.01669200 -0.00900000
v 0.01585000 0.01669200 -0.00900000
v 0.01470000 0.01550000 -0.00900000
v 0.01470000 0.01550000 -0.00900000
v 0.01470000 0.01700000 -0.00900000
v 0.01470000 0.01700000 -0.00900000
v -0.01470000 0.01550000 -0.00900000
v -0.01470000 0.01550000 -0.00900000
v -0.01470000 0.01700000 -0.00900000
v -0.01470000 0.01700000 -0.00900000
v -0.01510000 0.01539300 -0.00900000
v -0.01510000 0.01539300 -0.00900000
v -0.01585000 0.01669200 -0.00900000
v -0.01585000 0.01669200 -0.00900000
v -0.01539300 0.01510000 -0.00900000
v -0.01539300 0.01510000 -0.00900000
v -0.01669200 0.01585000 -0.00900000
v -0.01669200 0.01585000 -0.00900000
v -0.01550000 0.01470000 -0.00900000
v -0.01550000 0.01470000 -0.00900000
v -0.01700000 0.01470000 -0.00900000
v -0.01700000 0.01470000 -0.00900000
v 0.01550000 0.01470000 -0.22650000
v 0.01550000 0.01470000 -0.22650000
v 0.01550000 0.01470000 -0.22650000
v 0.01700000 0.01470000 -0.22650000
v 0.01700000 0.01470000 -0.22650000
v 0.01700000 0.01470000 -0.22650000
v 0.01550000 -0.01470000 -0.22650000
v 0.01550000 -0.01470000 -0.22650000
v 0.01550000 -0.01470000 -0.22650000
v 0.01700000 -0.01470000 -0.22650000
v 0.01700000 -0.01470000 -0.22650000
v 0.01700000 -0.01470000 -0.22650000
v 0.01539300 -0.01510000 -0.22650000
v 0.01539300 -0.01510000 -0.22650000
v 0.01539300 -0.01510000 -0.22650000
v 0.01669200 -0.01585000 -0.22650000
v 0.01669200 -0.01585000 -0.22650000
v 0.01669200 -0.01585000 -0.22650000
v 0.01510000 -0.01539300 -0.22650000
v 0.01510000 -0.01539300 -0.22650000
v 0.01510000 -0.01539300 -0.22650000
v 0.01510000 -0.01539300 -0.22650000
v 0.01585000 -0.01669200 -0.22650000
v 0.01585000 -0.01669200 -0.22650000
v 0.01585000 -0.01669200 -0.22650000
v 0.01585000 -0.01669200 -0.22650000
v 0.01470000 -0.01550000 -0.22650000
v 0.01470000 -0.01550000 -0.22650000
v 0.01470000 -0.01550000 -0.22650000
v 0.01470000 -0.01550000 -0.22650000
v 0.01470000 -0.01700000 -0.22650000
v 0.01470000 -0.01700000 -0.22650000
v 0.01470000 -0.01700000 -0.22650000
v -0.01470000 -0.01550000 -0.22650000
v -0.01470000 -0.01550000 -0.22650000
v -0.01470000 -0.01550000 -0.22650000
v -0.01470000 -0.01550000 -0.22650000
v -0.01470000 -0.01700000 -0.22650000
v -0.01470000 -0.01700000 -0.22650000
v -0.01470000 -0.01700000 -0.22650000
v -0.01470000 -0.01700000 -0.22650000
v -0.01510000 -0.01539300 -0.22650000
v -0.01510000 -0.01539300 -0.22650000
v -0.01510000 -0.01539300 -0.22650000
v -0.01510000 -0.01539300 -0.22650000
v -0.01585000 -0.01669200 -0.22650000
v -0.01585000 -0.01669200 -0.22650000
v -0.01585000 -0.01669200 -0.22650000
v -0.01539300 -0.01510000 -0.22650000
v -0.01539300 -0.01510000 -0.22650000
v -0.01539300 -0.01510000 -0.22650000
v -0.01669200 -0.01585000 -0.22650000
v -0.01669200 -0.01585000 -0.22650000
v -0.01669200 -0.01585000 -0.22650000
v -0.01550000 -0.01470000 -0.22650000
v -0.01550000 -0.01470000 -0.22650000
v -0.01550000 -0.01470000 -0.22650000
v -0.01700000 -0.01470000 -0.22650000
v -0.01700000 -0.01470000 -0.22650000
v -0.01700000 -0.01470000 -0.22650000
v -0.01550000 0.01470000 -0.22650000
v -0.01550000 0.01470000 -0.22650000
v -0.01550000 0.01470000 -0.22650000
v -0.01700000 0.01470000 -0.22650000
v -0.01700000 0.01470000 -0.22650000
v -0.01700000 0.01470000 -0.22650000
v -0.01539300 0.01510000 -0.22650000
v -0.01539300 0.01510000 -0.22650000
v -0.01539300 0.01510000 -0.22650000
v -0.01669200 0.01585000 -0.22650000
v -0.01669200 0.01585000 -0.22650000
v -0.01669200 0.01585000 -0.22650000
v -0.01510000 0.01539300 -0.22650000
v -0.01510000 0.01539300 -0.22650000
v -0.01510000 0.01539300 -0.22650000
v -0.01585000 0.01669200 -0.22650000
v -0.01585000 0.01669200 -0.22650000
v -0.01585000 0.01669200 -0.22650000
v -0.01470000 0.01550000 -0.22650000
v -0.01470000 0.01550000 -0.22650000
v -0.01470000 0.01550000 -0.22650000
v -0.01470000 0.01700000 -0.22650000
v -0.01470000 0.01700000 -0.22650000
v -0.01470000 0.01700000 -0.22650000
v 0.01470000 0.01550000 -0.22650000
v 0.01470000 0.01550000 -0.22650000
v 0.01470000 0.01550000 -0.22650000
v 0.01470000 0.01550000 -0.22650000
v 0.01470000 0.01700000 -0.22650000
v 0.01470000 0.01700000 -0.22650000
v 0.01470000 0.01700000 -0.22650000
v 0.01470000 0.01700000 -0.22650000
v 0.01510000 0.01539300 -0.22650000
v 0.01510000 0.01539300 -0.22650000
v 0.01510000 0.01539300 -0.22650000
v 0.01510000 0.01539300 -0.22650000
v 0.01585000 0.01669200 -0.22650000
v 0.01585000 0.01669200 -0.22650000
v 0.01585000 0.01669200 -0.22650000
v 0.01539300 0.01510000 -0.22650000
v 0.01539300 0.01510000 -0.22650000
v 0.01539300 0.01510000 -0.22650000
v 0.01669200 0.01585000 -0.22650000
v 0.01669200 0.01585000 -0.22650000
v 0.01669200 0.01585000 -0.22650000
vn 1.00000000 0.00000000 0.00000000
vn 0.96590000 0.25880000 0.00000000
vn -1.00000000 0.00000000 0.00000000
vn -0.96590000 -0.25880000 0.00000000
vn 0.70710000 0.70710000 0.00000000
vn 0.96590000 0.25880000 0.00000000
vn -0.96590000 -0.25880000 0.00000000
vn -0.70710000 -0.70710000 0.00000000
vn 0.25880000 0.96590000 0.00000000
vn 0.70710000 0.70710000 0.00000000
vn -0.70710000 -0.70710000 0.00000000
vn -0.25880000 -0.96590000 0.00000000
vn 0.00000000 1.00000000 0.00000000
vn 0.25880000 0.96590000 0.00000000
vn 0.00000000 -1.00000000 -0.00000000
vn -0.25880000 -0.96590000 0.00000000
vn 0.00000000 1.00000000 0.00000000
vn -0.25880000 0.96590000 0.00000000
vn 0.00000000 -1.00000000 -0.00000000
vn 0.25880000 -0.96590000 0.00000000
vn -0.25880000 0.96590000 0.00000000
vn -0.70710000 0.70710000 0.00000000
vn 0.70710000 -0.70710000 0.00000000
vn 0.25880000 -0.96590000 0.00000000
vn -0.96590000 0.25880000 0.00000000
vn -0.70710000 0.70710000 0.00000000
vn 0.70710000 -0.70710000 0.00000000
vn 0.96590000 -0.25880000 0.00000000
vn -1.00000000 0.00000000 0.00000000
vn -0.96590000 0.25880000 0.00000000
vn 0.96590000 -0.25880000 0.00000000
vn 1.00000000 0.00000000 0.00000000
vn -1.00000000 0.00000000 0.00000000
vn -0.96590000 -0.25880000 0.00000000
vn 1.00000000 0.00000000 0.00000000
vn 0.96590000 0.25880000 0.00000000
vn -0.70710000 -0.70710000 0.00000000
vn -0.96590000 -0.25880000 0.00000000
vn 0.70710000 0.70710000 0.00000000
vn 0.96590000 0.25880000 0.00000000
vn -0.70710000 -0.70710000 0.00000000
vn -0.25880000 -0.96590000 0.00000000
vn 0.70710000 0.70710000 0.00000000
vn 0.25880000 0.96590000 0.00000000
vn 0.00000000 -1.00000000 -0.00000000
vn -0.25880000 -0.96590000 0.00000000
vn 0.25880000 0.96590000 0.00000000
vn 0.00000000 1.00000000 0.00000000
vn 0.00000000 -1.00000000 -0.00000000
vn 0.25880000 -0.96590000 0.00000000
vn -0.25880000 0.96590000 0.00000000
vn 0.00000000 1.00000000 0.00000000
vn 0.70710000 -0.70710000 0.00000000
vn 0.25880000 -0.96590000 0.00000000
vn -0.70710000 0.70710000 0.00000000
vn -0.25880000 0.96590000 0.00000000
vn 0.70710000 -0.70710000 0.00000000
vn 0.96590000 -0.25880000 0.00000000
vn -0.96590000 0.25880000 0.00000000
vn -0.70710000 0.70710000 0.00000000
vn 0.96590000 -0.25880000 0.00000000
vn 1.00000000 0.00000000 0.00000000
vn -0.96590000 0.25880000 0.00000000
vn -1.00000000 0.00000000 0.00000000
vn -0.96590000 -0.25880000 0.00000000
vn 0.00000000 0.00000000 -1.00000000
vn -1.00000000 0.00000000 0.00000000
vn 0.00000000 0.00000000 -1.00000000
vn 0.96590000 0.25880000 0.00000000
vn 1.00000000 0.00000000 0.00000000
vn -1.00000000 0.00000000 0.00000000
vn 0.00000000 0.00000000 -1.00000000
vn -0.96590000 0.25880000 0.00000000
vn 0.00000000 0.00000000 -1.00000000
vn 0.96590000 -0.25880000 0.00000000
vn 1.00000000 0.00000000 0.00000000
vn 0.00000000 0.00000000 -1.00000000
vn -0.70710000 0.70710000 0.00000000
vn -0.96590000 0.25880000 0.00000000
vn 0.70710000 -0.70710000 0.00000000
vn 0.96590000 -0.25880000 0.00000000
vn 0.00000000 0.00000000 -1.00000000
vn 0.00000000 0.00000000 -1.00000000
vn -0.00010000 0.00000000 -1.00000000
vn -0.70710000 0.70710000 0.00000000
vn -0.25880000 0.96590000 0.00000000
vn 0.70710000 -0.70710000 0.00000000
vn 0.25880000 -0.96590000 0.00000000
vn -0.00010000 0.00000000 -1.00000000
vn 0.00000000 0.00000000 -1.00000000
vn -0.00010000 0.00000000 -1.00000000
vn 0.00000000 1.00000000 0.00000000
vn -0.25880000 0.96590000 0.00000000
vn 0.00000000 0.00000000 -1.00000000
vn 0.00000000 -1.00000000 -0.00000000
vn 0.25880000 -0.96590000 0.00000000
vn 0.00000000 0.00000000 -1.00000000
vn 0.00000000 0.00000000 -1.00000000
vn 0.00010000 0.00000000 -1.00000000
vn 0.25880000 0.96590000 0.00000000
vn 0.00000000 1.00000000 0.00000000
vn 0.00000000 0.00000000 -1.00000000
vn -0.25880000 -0.96590000 0.00000000
vn 0.00010000 0.00000000 -1.00000000
vn 0.00000000 -1.00000000 -0.00000000
vn 0.25880000 0.96590000 0.00000000
vn 0.00010000 0.00000000 -1.00000000
vn 0.70710000 0.70710000 0.00000000
vn 0.00000000 0.00000000 -1.00000000
vn -0.70710000 -0.70710000 0.00000000
vn 0.00000000 0.00000000 -1.00000000
vn -0.25880000 -0.96590000 0.00000000
vn 0.00000000 0.00000000 -1.00000000
vn 0.70710000 0.70710000 0.00000000
vn 0.96590000 0.25880000 0.00000000
vn -0.70710000 -0.70710000 0.00000000
vn 0.00000000 0.00000000 -1.00000000
vn -0.96590000 -0.25880000 0.00000000
vn 0.00000000 0.00000000 -1.00000000
vn 1.00000000 0.00000000 0.00000000
vn 0.96590000 0.25880000 0.00000000
vn 0.00000000 0.00000000 -1.00000000
vn -0.96590000 -0.25880000 0.00000000
vn -1.00000000 0.00000000 0.00000000
vn 0.00000000 0.00000000 -1.00000000
vn 1.00000000 0.00000000 0.00000000
vn 0.96590000 -0.25880000 0.00000000
vn -1.00000000 0.00000000 0.00000000
vn -0.96590000 0.25880000 0.00000000
vn 0.00000000 0.00000000 -1.00000000
vn 0.96590000 -0.25880000 0.00000000
vn 0.70710000 -0.70710000 0.00000000
vn 0.00000000 0.00000000 -1.00000000
vn -0.96590000 0.25880000 0.00000000
vn 0.00000000 0.00000000 -1.00000000
vn -0.70710000 0.70710000 0.00000000
vn 0.25880000 -0.96590000 0.00000000
vn 0.70710000 -0.70710000 0.00000000
vn 0.00000000 0.00000000 -1.00000000
vn -0.70710000 0.70710000 0.00000000
vn 0.00000000 0.00000000 -1.00000000
vn -0.25880000 0.96590000 0.00000000
vn 0.25880000 -0.96590000 0.00000000
vn 0.00000000 0.00000000 -1.00000000
vn 0.00000000 -1.00000000 -0.00000000
vn 0.00000000 1.00000000 0.00000000
vn 0.00000000 0.00000000 -1.00000000
vn -0.25880000 0.96590000 0.00000000
vn -0.00010000 0.00000000 -1.00000000
vn -0.25880000 -0.96590000 0.00000000
vn 0.00000000 0.00000000 -1.00000000
vn 0.00000000 -1.00000000 -0.00000000
vn -0.00010000 0.00000000 -1.00000000
vn 0.00000000 0.00000000 -1.00000000
vn 0.25880000 0.96590000 0.00000000
vn 0.00000000 1.00000000 0.00000000
vn 0.00000000 0.00000000 -1.00000000
vn -0.70710000 -0.70710000 0.00000000
vn -0.00010000 0.00000000 -1.00000000
vn -0.25880000 -0.96590000 0.00000000
vn 0.00000000 0.00000000 -1.00000000
vn 0.70710000 0.70710000 0.00000000
vn 0.25880000 0.96590000 0.00000000
vn -0.70710000 -0.70710000 0.00000000
vn 0.00000000 0.00000000 -1.00000000
vn -0.96590000 -0.25880000 0.00000000
vn 0.70710000 0.70710000 0.00000000
vn 0.00000000 0.00000000 -1.00000000
vn 0.96590000 0.25880000 0.00000000
f 66//66 68//68 72//72
f 72//72 68//68 74//74
f 72//72 74//74 77//77
f 77//77 74//74 82//82
f 77//77 82//82 83//83
f 83//83 82//82 90//90
f 84//84 89//89 91//91
f 94//94 90//90 97//97
f 94//94 97//97 98//98
f 98//98 97//97 102//102
f 99//99 104//104 107//107
f 109//109 102//102 111//111
f 109//109 111//111 113//113
f 113//113 111//111 117//117
f 113//113 117//117 119//119
f 119//119 117//117 122//122
f 119//119 122//122 125//125
f 125//125 122//122 130//130
f 125//125 130//130 133//133
f 133//133 130//130 135//135
f 133//133 135//135 139//139
f 139//139 135//135 141//141
f 139//139 141//141 144//144
f 144//144 141//141 147//147
f 144//144 147//147 151//151
f 151//151 147//147 154//154
f 149//149 153//153 159//159
f 157//157 154//154 161//161
f 157//157 161//161 165//165
f 165//165 161//161 168//168
f 165//165 168//168 66//66
f 66//66 168//168 68//68
f 51//51 148//148 142//142
f 51//51 142//142 56//56
f 55//55 140//140 136//136
f 55//55 136//136 60//60
f 59//59 134//134 129//129
f 59//59 129//129 63//63
f 3//3 64//64 124//124
f 124//124 64//64 128//128
f 4//4 123//123 118//118
f 4//4 118//118 7//7
f 8//8 116//116 110//110
f 8//8 110//110 11//11
f 12//12 112//112 103//103
f 12//12 103//103 16//16
f 19//19 15//15 95//95
f 95//95 15//15 105//105
f 20//20 96//96 88//88
f 20//20 88//88 24//24
f 23//23 87//87 80//80
f 23//23 80//80 27//27
f 28//28 81//81 75//75
f 28//28 75//75 31//31
f 35//35 32//32 70//70
f 70//70 32//32 76//76
f 36//36 69//69 169//169
f 36//36 169//169 40//40
f 39//39 167//167 162//162
f 39//39 162//162 43//43
f 44//44 163//163 155//155
f 44//44 155//155 47//47
f 52//52 48//48 146//146
f 146//146 48//48 156//156
f 14//14 100//100 9//9
f 9//9 100//100 106//106
f 10//10 108//108 5//5
f 5//5 108//108 114//114
f 6//6 115//115 2//2
f 2//2 115//115 121//121
f 13//13 17//17 101//101
f 101//101 17//17 92//92
f 30//30 73//73 25//25
f 25//25 73//73 79//79
f 26//26 78//78 22//22
f 22//22 78//78 85//85
f 21//21 86//86 18//18
f 18//18 86//86 93//93
f 29//29 33//33 71//71
f 71//71 33//33 67//67
f 46//46 150//150 42//42
f 42//42 150//150 160//160
f 41//41 158//158 37//37
f 37//37 158//158 164//164
f 38//38 166//166 34//34
f 34//34 166//166 65//65
f 45//45 49//49 152//152
f 152//152 49//49 145//145
f 61//61 127//127 58//58
f 58//58 127//127 131//131
f 57//57 132//132 53//53
f 53//53 132//132 138//138
f 54//54 137//137 50//50
f 50//50 137//137 143//143
f 62//62 1//1 126//126
f 126//126 1//1 120//120
