mtllib material_0.mtl
usemtl material_0
v -0.19558400 -0.01931900 -0.00650000
v -0.19558400 -0.01931900 -0.00650000
v -0.19558400 -0.01931900 -0.00650000
v -0.19558400 -0.01931900 -0.00650000
v -0.19558400 -0.01931900 -0.00650000
v -0.19558400 -0.01931900 -0.00650000
v -0.19593700 -0.01878900 -0.00650000
v -0.19593700 -0.01878900 -0.00650000
v -0.19593700 -0.01878900 -0.00650000
v -0.19593700 -0.01878900 -0.00650000
v -0.18196500 -0.01025900 -0.00650000
v -0.18196500 -0.01025900 -0.00650000
v -0.18219900 -0.00965000 -0.00650000
v -0.18219900 -0.00965000 -0.00650000
v -0.18219900 -0.00965000 -0.00650000
v 0.00006300 0.00059700 -0.00650000
v 0.00006300 0.00059700 -0.00650000
v 0.00006300 0.00059700 -0.00650000
v 0.00000000 0.00000000 -0.00650000
v 0.00000000 0.00000000 -0.00650000
v 0.00000000 0.00000000 -0.00650000
v -0.00781000 0.00142900 -0.00650000
v -0.00781000 0.00142900 -0.00650000
v -0.00781000 0.00142900 -0.00650000
v -0.00781000 0.00142900 -0.00650000
v -0.00769100 0.00081300 -0.00650000
v -0.00769100 0.00081300 -0.00650000
v -0.00769100 0.00081300 -0.00650000
v -0.00769100 0.00081300 -0.00650000
v 0.00000000 0.00000000 0.00650000
v 0.00000000 0.00000000 0.00650000
v 0.00000000 0.00000000 0.00650000
v 0.00006300 0.00059700 0.00650000
v 0.00006300 0.00059700 0.00650000
v 0.00006300 0.00059700 0.00650000
v -0.00769100 0.00081300 0.00650000
v -0.00769100 0.00081300 0.00650000
v -0.00769100 0.00081300 0.00650000
v -0.00769100 0.00081300 0.00650000
v -0.00781000 0.00142900 0.00650000
v -0.00781000 0.00142900 0.00650000
v -0.00781000 0.00142900 0.00650000
v -0.00781000 0.00142900 0.00650000
v -0.19593700 -0.01878900 0.00650000
v -0.19593700 -0.01878900 0.00650000
v -0.19593700 -0.01878900 0.00650000
v -0.19593700 -0.01878900 0.00650000
v -0.19558400 -0.01931900 0.00650000
v -0.19558400 -0.01931900 0.00650000
v -0.19558400 -0.01931900 0.00650000
v -0.19558400 -0.01931900 0.00650000
v -0.18219900 -0.00965000 0.00650000
v -0.18219900 -0.00965000 0.00650000
v -0.18219900 -0.00965000 0.00650000
v -0.18219900 -0.00965000 0.00650000
v -0.18196500 -0.01025900 0.00650000
v -0.18196500 -0.01025900 0.00650000
v -0.18196500 -0.01025900 0.00650000
v 0.00000000 0.00000000 -0.00225000
v 0.00000000 0.00000000 -0.00225000
v 0.00000000 0.00000000 -0.00225000
v 0.00000000 0.00000000 0.00225000
v 0.00000000 0.00000000 0.00225000
v 0.00000000 0.00000000 0.00225000
v -0.00111900 0.00011800 0.00194900
v -0.00111900 0.00011800 0.00194900
v -0.00111900 0.00011800 0.00194900
v -0.00111900 0.00011800 0.00194900
v -0.00193800 0.00020500 0.00112500
v -0.00193800 0.00020500 0.00112500
v -0.00193800 0.00020500 0.00112500
v -0.00193800 0.00020500 0.00112500
v -0.00111900 0.00011800 -0.00194900
v -0.00111900 0.00011800 -0.00194900
v -0.00111900 0.00011800 -0.00194900
v -0.00193800 0.00020500 -0.00112500
v -0.00193800 0.00020500 -0.00112500
v -0.00193800 0.00020500 -0.00112500
v -0.00193800 0.00020500 -0.00112500
v -0.00223700 0.00023700 0.00000000
v -0.00223700 0.00023700 0.00000000
v -0.00223700 0.00023700 0.00000000
v -0.00223700 0.00023700 0.00000000
v 0.00006300 0.00059700 0.00225000
v 0.00006300 0.00059700 0.00225000
v 0.00006300 0.00059700 0.00225000
v -0.00105600 0.00071500 0.00194900
v -0.00105600 0.00071500 0.00194900
v -0.00105600 0.00071500 0.00194900
v 0.00006300 0.00059700 -0.00225000
v 0.00006300 0.00059700 -0.00225000
v 0.00006300 0.00059700 -0.00225000
v -0.00105600 0.00071500 -0.00194900
v -0.00105600 0.00071500 -0.00194900
v -0.00105600 0.00071500 -0.00194900
v -0.00105600 0.00071500 -0.00194900
v -0.00187500 0.00080200 0.00112500
v -0.00187500 0.00080200 0.00112500
v -0.00187500 0.00080200 0.00112500
v -0.00187500 0.00080200 0.00112500
v -0.00217400 0.00083300 0.00000000
v -0.00217400 0.00083300 0.00000000
v -0.00217400 0.00083300 0.00000000
v -0.00217400 0.00083300 0.00000000
v -0.00187500 0.00080200 -0.00112500
v -0.00187500 0.00080200 -0.00112500
v -0.00187500 0.00080200 -0.00112500
v -0.00187500 0.00080200 -0.00112500
v -0.18899500 -0.01493600 0.00205600
v -0.18899500 -0.01493600 0.00205600
v -0.18899500 -0.01493600 0.00205600
v -0.18899500 -0.01493600 0.00205600
v -0.18995300 -0.01557300 0.00223700
v -0.18995300 -0.01557300 0.00223700
v -0.18995300 -0.01557300 0.00223700
v -0.18995300 -0.01557300 0.00223700
v -0.19085800 -0.01617500 0.00181900
v -0.19085800 -0.01617500 0.00181900
v -0.19085800 -0.01617500 0.00181900
v -0.19051700 -0.01594800 -0.00205600
v -0.19051700 -0.01594800 -0.00205600
v -0.19051700 -0.01594800 -0.00205600
v -0.19051700 -0.01594800 -0.00205600
v -0.19051700 -0.01594800 -0.00205600
v -0.18955900 -0.01531100 -0.00223700
v -0.18955900 -0.01531100 -0.00223700
v -0.18955900 -0.01531100 -0.00223700
v -0.18955900 -0.01531100 -0.00223700
v -0.18955900 -0.01531100 -0.00223700
v -0.18865400 -0.01470900 -0.00181900
v -0.18865400 -0.01470900 -0.00181900
v -0.18865400 -0.01470900 -0.00181900
v -0.19127100 -0.01645000 -0.00132400
v -0.19127100 -0.01645000 -0.00132400
v -0.19127100 -0.01645000 -0.00132400
v -0.19127100 -0.01645000 -0.00132400
v -0.19161900 -0.01668100 -0.00023700
v -0.19161900 -0.01668100 -0.00023700
v -0.19161900 -0.01668100 -0.00023700
v -0.19161900 -0.01668100 -0.00023700
v -0.19161900 -0.01668100 -0.00023700
v -0.19146800 -0.01658100 0.00091400
v -0.19146800 -0.01658100 0.00091400
v -0.19146800 -0.01658100 0.00091400
v -0.19146800 -0.01658100 0.00091400
v -0.18824100 -0.01443400 0.00132400
v -0.18824100 -0.01443400 0.00132400
v -0.18824100 -0.01443400 0.00132400
v -0.18824100 -0.01443400 0.00132400
v -0.18824100 -0.01443400 0.00132400
v -0.18789300 -0.01420300 0.00023700
v -0.18789300 -0.01420300 0.00023700
v -0.18789300 -0.01420300 0.00023700
v -0.18789300 -0.01420300 0.00023700
v -0.18804400 -0.01430300 -0.00091400
v -0.18804400 -0.01430300 -0.00091400
v -0.18804400 -0.01430300 -0.00091400
v -0.18804400 -0.01430300 -0.00091400
v -0.19121100 -0.01564500 0.00181900
v -0.19121100 -0.01564500 0.00181900
v -0.19121100 -0.01564500 0.00181900
v -0.19121100 -0.01564500 0.00181900
v -0.19182100 -0.01605100 0.00091400
v -0.19182100 -0.01605100 0.00091400
v -0.19182100 -0.01605100 0.00091400
v -0.19182100 -0.01605100 0.00091400
v -0.19197200 -0.01615100 -0.00023700
v -0.19197200 -0.01615100 -0.00023700
v -0.19197200 -0.01615100 -0.00023700
v -0.19197200 -0.01615100 -0.00023700
v -0.19162400 -0.01592000 -0.00132400
v -0.19162400 -0.01592000 -0.00132400
v -0.19162400 -0.01592000 -0.00132400
v -0.19086900 -0.01541800 -0.00205600
v -0.19086900 -0.01541800 -0.00205600
v -0.19086900 -0.01541800 -0.00205600
v -0.18991200 -0.01478100 -0.00223700
v -0.18991200 -0.01478100 -0.00223700
v -0.18991200 -0.01478100 -0.00223700
v -0.18991200 -0.01478100 -0.00223700
v -0.18991200 -0.01478100 -0.00223700
v -0.18824600 -0.01367300 0.00023700
v -0.18824600 -0.01367300 0.00023700
v -0.18824600 -0.01367300 0.00023700
v -0.18824600 -0.01367300 0.00023700
v -0.18824600 -0.01367300 0.00023700
v -0.18839700 -0.01377300 -0.00091400
v -0.18839700 -0.01377300 -0.00091400
v -0.18839700 -0.01377300 -0.00091400
v -0.18839700 -0.01377300 -0.00091400
v -0.18900700 -0.01417900 -0.00181900
v -0.18900700 -0.01417900 -0.00181900
v -0.18900700 -0.01417900 -0.00181900
v -0.18900700 -0.01417900 -0.00181900
v -0.18900700 -0.01417900 -0.00181900
v -0.18859400 -0.01390400 0.00132400
v -0.18859400 -0.01390400 0.00132400
v -0.18859400 -0.01390400 0.00132400
v -0.18859400 -0.01390400 0.00132400
v -0.18859400 -0.01390400 0.00132400
v -0.18934800 -0.01440600 0.00205600
v -0.18934800 -0.01440600 0.00205600
v -0.18934800 -0.01440600 0.00205600
v -0.18934800 -0.01440600 0.00205600
v -0.18934800 -0.01440600 0.00205600
v -0.19030600 -0.01504300 0.00223700
v -0.19030600 -0.01504300 0.00223700
v -0.19030600 -0.01504300 0.00223700
v -0.19030600 -0.01504300 0.00223700
v -0.18129000 -0.00921700 -0.00650000
v -0.18129000 -0.00921700 -0.00650000
v -0.18129000 -0.00921700 -0.00650000
v -0.18129000 -0.00921700 0.00650000
v -0.18129000 -0.00921700 0.00650000
v -0.18129000 -0.00921700 0.00650000
v -0.04258300 0.00228700 -0.00650000
v -0.04258300 0.00228700 -0.00650000
v -0.04258300 0.00228700 -0.00650000
v -0.04246500 0.00167100 -0.00650000
v -0.04246500 0.00167100 -0.00650000
v -0.04246500 0.00167100 -0.00650000
v -0.04246500 0.00167100 0.00650000
v -0.04246500 0.00167100 0.00650000
v -0.04246500 0.00167100 0.00650000
v -0.04258300 0.00228700 0.00650000
v -0.04258300 0.00228700 0.00650000
v -0.04258300 0.00228700 0.00650000
v -0.07798100 0.00166300 -0.00650000
v -0.07798100 0.00166300 -0.00650000
v -0.07798100 0.00166300 -0.00650000
v -0.07786200 0.00104700 -0.00650000
v -0.07786200 0.00104700 -0.00650000
v -0.07786200 0.00104700 -0.00650000
v -0.07786200 0.00104700 0.00650000
v -0.07786200 0.00104700 0.00650000
v -0.07786200 0.00104700 0.00650000
v -0.07798100 0.00166300 0.00650000
v -0.07798100 0.00166300 0.00650000
v -0.07798100 0.00166300 0.00650000
v -0.11283200 -0.00044200 -0.00650000
v -0.11283200 -0.00044200 -0.00650000
v -0.11283200 -0.00044200 -0.00650000
v -0.11271300 -0.00105800 -0.00650000
v -0.11271300 -0.00105800 -0.00650000
v -0.11271300 -0.00105800 -0.00650000
v -0.11271300 -0.00105800 0.00650000
v -0.11271300 -0.00105800 0.00650000
v -0.11271300 -0.00105800 0.00650000
v -0.11283200 -0.00044200 0.00650000
v -0.11283200 -0.00044200 0.00650000
v -0.11283200 -0.00044200 0.00650000
v -0.14760500 -0.00426200 -0.00650000
v -0.14760500 -0.00426200 -0.00650000
v -0.14760500 -0.00426200 -0.00650000
v -0.14748700 -0.00487800 -0.00650000
v -0.14748700 -0.00487800 -0.00650000
v -0.14748700 -0.00487800 -0.00650000
v -0.14748700 -0.00487800 0.00650000
v -0.14748700 -0.00487800 0.00650000
v -0.14748700 -0.00487800 0.00650000
v -0.14760500 -0.00426200 0.00650000
v -0.14760500 -0.00426200 0.00650000
v -0.14760500 -0.00426200 0.00650000
v -0.17863600 -0.00901800 -0.00650000
v -0.17863600 -0.00901800 -0.00650000
v -0.17863600 -0.00901800 -0.00650000
v -0.17851800 -0.00963400 -0.00650000
v -0.17851800 -0.00963400 -0.00650000
v -0.17851800 -0.00963400 -0.00650000
v -0.17851800 -0.00963400 0.00650000
v -0.17851800 -0.00963400 0.00650000
v -0.17851800 -0.00963400 0.00650000
v -0.17863600 -0.00901800 0.00650000
v -0.17863600 -0.00901800 0.00650000
v -0.17863600 -0.00901800 0.00650000
vn -0.00000000 0.00000000 -1.00000000
vn -0.83260000 -0.55390000 0.00000000
vn 0.55400000 -0.83250000 -0.00010000
vn 0.55390000 -0.83260000 0.00010000
vn 0.55390000 -0.83260000 -0.00010000
vn 0.55390000 -0.83260000 -0.00000000
vn -0.00000000 0.00000000 -1.00000000
vn -0.83260000 -0.55390000 0.00000000
vn -0.55400000 0.83250000 0.00010000
vn -0.55390000 0.83260000 -0.00000000
vn 0.55390000 -0.83260000 -0.00000000
vn -0.00000000 0.00000000 -1.00000000
vn -0.55390000 0.83260000 -0.00000000
vn -0.55390000 0.83260000 0.00010000
vn -0.00000000 0.00000000 -1.00000000
vn -0.00000000 0.00000000 -1.00000000
vn 0.10520000 0.99450000 0.00000000
vn 0.99450000 -0.10520000 0.00000000
vn -0.00000000 0.00000000 -1.00000000
vn 0.99450000 -0.10520000 0.00000000
vn -0.10520000 -0.99450000 0.00000000
vn -0.00000000 0.00000000 -1.00000000
vn -0.02470000 -0.99970000 0.00000000
vn 0.10520000 0.99450000 0.00000000
vn 0.00000000 0.00000000 1.00000000
vn -0.00000000 0.00000000 -1.00000000
vn -0.10520000 -0.99450000 0.00000000
vn 0.02470000 0.99970000 0.00000000
vn 0.00000000 0.00000000 1.00000000
vn -0.10520000 -0.99450000 0.00000000
vn 0.99450000 -0.10520000 0.00000000
vn 0.00000000 0.00000000 1.00000000
vn 0.10520000 0.99450000 0.00000000
vn 0.00000000 0.00000000 1.00000000
vn 0.99450000 -0.10520000 0.00000000
vn -0.00000000 0.00000000 -1.00000000
vn 0.02470000 0.99970000 0.00000000
vn -0.10520000 -0.99450000 0.00000000
vn 0.00000000 0.00000000 1.00000000
vn -0.00000000 0.00000000 -1.00000000
vn 0.10520000 0.99450000 0.00000000
vn 0.00000000 0.00000000 1.00000000
vn -0.02470000 -0.99970000 0.00000000
vn 0.00000000 0.00000000 1.00000000
vn -0.55390000 0.83260000 0.00010000
vn -0.83260000 -0.55390000 0.00000000
vn -0.55390000 0.83260000 -0.00000000
vn 0.55400000 -0.83250000 0.00010000
vn 0.55390000 -0.83260000 -0.00000000
vn -0.83260000 -0.55390000 0.00000000
vn 0.00000000 0.00000000 1.00000000
vn 0.00000000 0.00000000 1.00000000
vn -0.55390000 0.83260000 -0.00000000
vn -0.55390000 0.83260000 0.00010000
vn -0.55380000 0.83260000 -0.00010000
vn 0.55390000 -0.83260000 -0.00000000
vn 0.55390000 -0.83260000 -0.00010000
vn 0.00000000 0.00000000 1.00000000
vn 0.99450000 -0.10520000 0.00000000
vn -0.10520000 -0.99450000 0.00000000
vn 0.25740000 -0.02720000 0.96590000
vn 0.99450000 -0.10520000 0.00000000
vn 0.25740000 -0.02720000 -0.96590000
vn -0.10520000 -0.99450000 0.00000000
vn 0.25740000 -0.02720000 -0.96590000
vn -0.10520000 -0.99450000 0.00000000
vn 0.70320000 -0.07430000 -0.70710000
vn 0.70310000 -0.07450000 -0.70710000
vn 0.70310000 -0.07450000 -0.70710000
vn -0.10520000 -0.99450000 0.00000000
vn 0.96050000 -0.10170000 -0.25890000
vn 0.96060000 -0.10150000 -0.25880000
vn -0.10520000 -0.99450000 0.00000000
vn 0.25740000 -0.02720000 0.96590000
vn 0.70310000 -0.07430000 0.70710000
vn -0.10520000 -0.99450000 0.00000000
vn 0.70320000 -0.07450000 0.70710000
vn 0.96060000 -0.10170000 0.25880000
vn 0.70310000 -0.07430000 0.70710000
vn -0.10520000 -0.99450000 0.00000000
vn 0.96060000 -0.10150000 0.25890000
vn 0.96060000 -0.10170000 0.25880000
vn 0.96060000 -0.10150000 -0.25880000
vn 0.99450000 -0.10520000 0.00000000
vn 0.10520000 0.99450000 0.00000000
vn 0.25740000 -0.02720000 -0.96590000
vn 0.10520000 0.99450000 0.00000000
vn 0.25740000 -0.02720000 -0.96590000
vn 0.70320000 -0.07430000 -0.70710000
vn 0.99450000 -0.10520000 0.00000000
vn 0.25740000 -0.02720000 0.96590000
vn 0.10520000 0.99450000 0.00000000
vn 0.10520000 0.99450000 0.00000000
vn 0.70320000 -0.07450000 0.70710000
vn 0.70310000 -0.07430000 0.70710000
vn 0.25740000 -0.02720000 0.96590000
vn 0.70310000 -0.07450000 -0.70710000
vn 0.10520000 0.99450000 0.00000000
vn 0.96050000 -0.10170000 -0.25890000
vn 0.70320000 -0.07430000 -0.70710000
vn 0.96060000 -0.10150000 -0.25880000
vn 0.10520000 0.99450000 0.00000000
vn 0.96050000 -0.10170000 -0.25890000
vn 0.96060000 -0.10150000 0.25890000
vn 0.10520000 0.99450000 0.00000000
vn 0.70320000 -0.07450000 0.70710000
vn 0.96060000 -0.10170000 0.25880000
vn 0.96060000 -0.10150000 0.25890000
vn -0.52360000 -0.34820000 -0.77760000
vn 0.55390000 -0.83260000 -0.00000000
vn -0.12970000 -0.08620000 -0.98780000
vn 0.55390000 -0.83260000 -0.00010000
vn -0.12970000 -0.08620000 -0.98780000
vn 0.55390000 -0.83260000 -0.00000000
vn 0.29890000 0.19890000 -0.93330000
vn 0.29890000 0.19880000 -0.93330000
vn 0.64730000 0.43070000 -0.62880000
vn 0.29890000 0.19890000 -0.93330000
vn 0.55390000 -0.83260000 -0.00000000
vn 0.55390000 -0.83260000 0.00010000
vn 0.52350000 0.34830000 0.77760000
vn 0.55390000 -0.83260000 -0.00010000
vn 0.12970000 0.08620000 0.98780000
vn 0.12960000 0.08630000 0.98780000
vn -0.29890000 -0.19890000 0.93330000
vn 0.55390000 -0.83260000 -0.00010000
vn 0.55390000 -0.83260000 -0.00000000
vn 0.12970000 0.08620000 0.98780000
vn -0.29900000 -0.19890000 0.93330000
vn -0.29890000 -0.19890000 0.93330000
vn 0.55390000 -0.83260000 -0.00000000
vn -0.64740000 -0.43070000 0.62880000
vn 0.52350000 0.34830000 0.77760000
vn 0.55390000 -0.83260000 0.00010000
vn 0.55400000 -0.83250000 -0.00010000
vn 0.77710000 0.51700000 0.35900000
vn 0.77710000 0.51700000 0.35900000
vn 0.55390000 -0.83260000 -0.00000000
vn 0.55400000 -0.83250000 0.00010000
vn 0.82240000 0.54720000 -0.15570000
vn 0.55400000 -0.83250000 -0.00010000
vn 0.64730000 0.43070000 -0.62880000
vn 0.55390000 -0.83260000 -0.00000000
vn 0.82240000 0.54720000 -0.15570000
vn 0.55400000 -0.83250000 0.00010000
vn 0.55390000 -0.83260000 -0.00000000
vn -0.77710000 -0.51700000 -0.35900000
vn -0.52350000 -0.34830000 -0.77760000
vn -0.52360000 -0.34820000 -0.77760000
vn 0.55390000 -0.83260000 -0.00010000
vn -0.77710000 -0.51690000 -0.35900000
vn -0.82240000 -0.54710000 0.15570000
vn -0.77710000 -0.51700000 -0.35900000
vn 0.55390000 -0.83260000 -0.00000000
vn -0.82240000 -0.54710000 0.15570000
vn -0.82240000 -0.54710000 0.15580000
vn -0.64740000 -0.43070000 0.62880000
vn 0.55390000 -0.83260000 -0.00000000
vn 0.29890000 0.19880000 -0.93330000
vn 0.29890000 0.19890000 -0.93330000
vn 0.64730000 0.43070000 -0.62880000
vn -0.55390000 0.83260000 -0.00000000
vn 0.82240000 0.54720000 -0.15570000
vn -0.55400000 0.83250000 0.00010000
vn 0.64730000 0.43070000 -0.62880000
vn -0.55390000 0.83260000 -0.00000000
vn -0.55400000 0.83250000 0.00010000
vn 0.82240000 0.54720000 -0.15570000
vn -0.55390000 0.83260000 -0.00000000
vn 0.77710000 0.51700000 0.35900000
vn 0.52350000 0.34830000 0.77760000
vn -0.55390000 0.83260000 -0.00000000
vn 0.77710000 0.51700000 0.35900000
vn 0.52350000 0.34830000 0.77760000
vn -0.55390000 0.83260000 -0.00000000
vn 0.12960000 0.08630000 0.98780000
vn 0.12970000 0.08620000 0.98780000
vn -0.29900000 -0.19890000 0.93330000
vn -0.55390000 0.83260000 -0.00000000
vn -0.55390000 0.83260000 0.00010000
vn 0.12960000 0.08630000 0.98780000
vn -0.82240000 -0.54710000 0.15580000
vn -0.82240000 -0.54710000 0.15570000
vn -0.55380000 0.83260000 -0.00010000
vn -0.55390000 0.83260000 0.00010000
vn -0.77710000 -0.51690000 -0.35900000
vn -0.55380000 0.83260000 -0.00010000
vn -0.55390000 0.83260000 -0.00000000
vn -0.82240000 -0.54710000 0.15580000
vn -0.64740000 -0.43070000 0.62880000
vn -0.55390000 0.83260000 -0.00000000
vn -0.29890000 -0.19890000 0.93330000
vn -0.55390000 0.83260000 0.00010000
vn -0.29900000 -0.19890000 0.93330000
vn -0.64740000 -0.43070000 0.62880000
vn -0.55390000 0.83260000 -0.00000000
vn -0.77710000 -0.51700000 -0.35900000
vn -0.52350000 -0.34830000 -0.77760000
vn -0.77710000 -0.51690000 -0.35900000
vn -0.55390000 0.83260000 0.00010000
vn -0.52350000 -0.34830000 -0.77760000
vn -0.52360000 -0.34820000 -0.77760000
vn -0.12970000 -0.08620000 -0.98780000
vn -0.55390000 0.83260000 -0.00000000
vn -0.55390000 0.83260000 0.00010000
vn -0.55390000 0.83260000 -0.00000000
vn 0.29890000 0.19880000 -0.93330000
vn -0.12970000 -0.08620000 -0.98780000
vn -0.55390000 0.83260000 0.00010000
vn 0.00000000 0.00000000 1.00000000
vn 0.14890000 0.98890000 0.00000000
vn 0.07460000 -0.99720000 0.00000000
vn 0.14890000 0.98890000 0.00000000
vn 0.07460000 -0.99720000 0.00000000
vn -0.00000000 0.00000000 -1.00000000
vn -0.02470000 -0.99970000 0.00000000
vn 0.00000000 0.00000000 1.00000000
vn 0.01760000 -0.99980000 0.00000000
vn 0.02470000 0.99970000 0.00000000
vn 0.00000000 0.00000000 1.00000000
vn -0.01760000 0.99980000 0.00000000
vn -0.01760000 0.99980000 0.00000000
vn 0.02470000 0.99970000 0.00000000
vn -0.00000000 0.00000000 -1.00000000
vn 0.01760000 -0.99980000 0.00000000
vn -0.02470000 -0.99970000 0.00000000
vn -0.00000000 0.00000000 -1.00000000
vn 0.06030000 -0.99820000 0.00000000
vn 0.01760000 -0.99980000 0.00000000
vn 0.00000000 0.00000000 1.00000000
vn 0.00000000 0.00000000 1.00000000
vn -0.06030000 0.99820000 0.00000000
vn -0.01760000 0.99980000 0.00000000
vn -0.00000000 0.00000000 -1.00000000
vn -0.01760000 0.99980000 0.00000000
vn -0.06030000 0.99820000 0.00000000
vn 0.01760000 -0.99980000 0.00000000
vn 0.06030000 -0.99820000 0.00000000
vn -0.00000000 0.00000000 -1.00000000
vn 0.00000000 0.00000000 1.00000000
vn 0.10920000 -0.99400000 0.00000000
vn 0.06030000 -0.99820000 0.00000000
vn -0.10920000 0.99400000 0.00000000
vn 0.00000000 0.00000000 1.00000000
vn -0.06030000 0.99820000 0.00000000
vn -0.06030000 0.99820000 0.00000000
vn -0.00000000 0.00000000 -1.00000000
vn -0.10920000 0.99400000 0.00000000
vn 0.10920000 -0.99400000 0.00000000
vn 0.06030000 -0.99820000 0.00000000
vn -0.00000000 0.00000000 -1.00000000
vn 0.00000000 0.00000000 1.00000000
vn 0.10920000 -0.99400000 0.00000000
vn 0.15150000 -0.98850000 0.00000000
vn 0.00000000 0.00000000 1.00000000
vn -0.15150000 0.98850000 0.00000000
vn -0.10920000 0.99400000 0.00000000
vn -0.10920000 0.99400000 0.00000000
vn -0.00000000 0.00000000 -1.00000000
vn -0.15150000 0.98850000 0.00000000
vn -0.00000000 0.00000000 -1.00000000
vn 0.10920000 -0.99400000 0.00000000
vn 0.15150000 -0.98850000 0.00000000
vn 0.15150000 -0.98850000 0.00000000
vn 0.07460000 -0.99720000 0.00000000
vn 0.00000000 0.00000000 1.00000000
vn 0.14890000 0.98890000 0.00000000
vn 0.00000000 0.00000000 1.00000000
vn -0.15150000 0.98850000 0.00000000
vn 0.14890000 0.98890000 0.00000000
vn -0.00000000 0.00000000 -1.00000000
vn -0.15150000 0.98850000 0.00000000
vn 0.07460000 -0.99720000 0.00000000
vn -0.00000000 0.00000000 -1.00000000
vn 0.15150000 -0.98850000 0.00000000
f 1//1 7//7 12//12
f 12//12 7//7 15//15
f 16//16 19//19 22//22
f 22//22 19//19 26//26
f 32//32 34//34 39//39
f 39//39 34//34 42//42
f 44//44 51//51 52//52
f 52//52 51//51 58//58
f 27//27 21//21 60//60
f 64//64 30//30 66//66
f 66//66 30//30 38//38
f 66//66 38//38 70//70
f 60//60 73//73 27//27
f 27//27 73//73 76//76
f 27//27 76//76 38//38
f 38//38 76//76 80//80
f 38//38 80//80 70//70
f 33//33 85//85 41//41
f 41//41 85//85 87//87
f 92//92 17//17 93//93
f 93//93 17//17 24//24
f 87//87 98//98 41//41
f 41//41 98//98 102//102
f 41//41 102//102 24//24
f 24//24 102//102 105//105
f 24//24 105//105 93//93
f 86//86 63//63 88//88
f 88//88 63//63 65//65
f 89//89 67//67 100//100
f 97//97 68//68 69//69
f 99//99 71//71 103//103
f 101//101 72//72 83//83
f 104//104 81//81 108//108
f 107//107 82//82 78//78
f 106//106 77//77 94//94
f 95//95 79//79 75//75
f 96//96 74//74 91//91
f 91//91 74//74 61//61
f 110//110 56//56 114//114
f 114//114 56//56 49//49
f 114//114 49//49 119//119
f 122//122 5//5 126//126
f 127//127 6//6 11//11
f 127//127 11//11 131//131
f 120//120 134//134 4//4
f 3//3 135//135 141//141
f 6//6 138//138 49//49
f 48//48 139//139 145//145
f 49//49 143//143 119//119
f 112//112 150//150 57//57
f 56//56 146//146 154//154
f 56//56 154//154 11//11
f 11//11 154//154 158//158
f 11//11 158//158 131//131
f 162//162 166//166 47//47
f 47//47 166//166 10//10
f 9//9 164//164 167//167
f 10//10 169//169 172//172
f 172//172 175//175 10//10
f 10//10 175//175 179//179
f 10//10 179//179 13//13
f 184//184 55//55 187//187
f 188//188 53//53 13//13
f 188//188 13//13 191//191
f 193//193 14//14 180//180
f 185//185 200//200 54//54
f 53//53 196//196 204//204
f 53//53 204//204 47//47
f 45//45 205//205 209//209
f 47//47 206//206 162//162
f 2//2 50//50 8//8
f 8//8 50//50 46//46
f 142//142 165//165 117//117
f 117//117 165//165 161//161
f 118//118 160//160 115//115
f 116//116 159//159 207//207
f 113//113 208//208 111//111
f 111//111 208//208 203//203
f 109//109 202//202 149//149
f 148//148 201//201 198//198
f 147//147 197//197 153//153
f 151//151 199//199 186//186
f 152//152 183//183 155//155
f 156//156 182//182 189//189
f 157//157 190//190 132//132
f 132//132 190//190 195//195
f 130//130 192//192 125//125
f 129//129 194//194 178//178
f 128//128 177//177 123//123
f 124//124 181//181 176//176
f 121//121 174//174 133//133
f 133//133 174//174 171//171
f 136//136 173//173 137//137
f 137//137 173//173 170//170
f 140//140 168//168 144//144
f 144//144 168//168 163//163
f 59//59 20//20 90//90
f 90//90 20//20 18//18
f 35//35 31//31 84//84
f 84//84 31//31 62//62
f 40//40 224//224 227//227
f 43//43 216//216 23//23
f 37//37 219//219 223//223
f 25//25 220//220 29//29
f 227//227 234//234 239//239
f 225//225 229//229 218//218
f 217//217 231//231 220//220
f 222//222 233//233 235//235
f 238//238 242//242 228//228
f 230//230 244//244 231//231
f 236//236 245//245 246//246
f 239//239 247//247 251//251
f 243//243 258//258 248//248
f 251//251 259//259 261//261
f 249//249 253//253 241//241
f 240//240 255//255 244//244
f 263//263 264//264 254//254
f 252//252 268//268 255//255
f 256//256 272//272 260//260
f 261//261 271//271 274//274
f 265//265 214//214 212//212
f 267//267 213//213 270//270
f 274//274 271//271 215//215
f 266//266 210//210 268//268
f 40//40 36//36 224//224
f 43//43 226//226 216//216
f 37//37 28//28 219//219
f 25//25 217//217 220//220
f 227//227 224//224 234//234
f 225//225 237//237 229//229
f 217//217 230//230 231//231
f 222//222 221//221 233//233
f 238//238 250//250 242//242
f 230//230 240//240 244//244
f 236//236 232//232 245//245
f 239//239 234//234 247//247
f 243//243 257//257 258//258
f 251//251 247//247 259//259
f 249//249 262//262 253//253
f 240//240 252//252 255//255
f 263//263 275//275 264//264
f 252//252 266//266 268//268
f 256//256 269//269 272//272
f 261//261 259//259 271//271
f 265//265 273//273 214//214
f 267//267 211//211 213//213
