mtllib material_0.mtl
usemtl material_0
v -0.03651400 0.10572800 0.02063800
v -0.04500600 0.09983600 0.02061900
v -0.04500600 0.09983600 0.02061900
v -0.04501300 0.09982600 0.02702100
v -0.03652100 0.10571800 0.02704000
v -0.03606800 0.10603600 0.02126700
v -0.03606800 0.10603600 0.02126700
v -0.04545900 0.09951700 0.02639200
v -0.03607400 0.10602900 0.02641300
v -0.04515000 0.09973500 0.02114800
v -0.03284000 0.10043300 0.02063400
v -0.03284000 0.10043300 0.02063400
v -0.04133200 0.09454100 0.02061600
v -0.04134000 0.09453100 0.02701800
v -0.04134000 0.09453100 0.02701800
v -0.03284800 0.10042300 0.02703700
v -0.03239400 0.10074200 0.02126400
v -0.04178500 0.09422200 0.02638800
v -0.03240000 0.10073400 0.02640900
v -0.03240000 0.10073400 0.02640900
v -0.04147600 0.09444000 0.02114500
v -0.04147600 0.09444000 0.02114500
v -0.04317600 0.09717900 0.02702000
v -0.04317600 0.09717900 0.02702000
v -0.03423100 0.10338900 0.02126500
v -0.03423100 0.10338900 0.02126500
v -0.03423100 0.10338900 0.02126500
v -0.03468400 0.10307100 0.02703800
v -0.03423700 0.10338100 0.02641100
v -0.04331300 0.09708800 0.02114700
v -0.04331300 0.09708800 0.02114700
v -0.04362200 0.09687000 0.02639000
v -0.04362200 0.09687000 0.02639000
v -0.04362200 0.09687000 0.02639000
v -0.03467700 0.10308000 0.02063600
v -0.03467700 0.10308000 0.02063600
v -0.04316900 0.09718800 0.02061700
v -0.04316900 0.09718800 0.02061700
v -0.04523600 0.09967200 0.02670700
v -0.04523600 0.09967200 0.02670700
v -0.04225800 0.09585500 0.02701900
v -0.04156200 0.09437700 0.02670300
v -0.04156200 0.09437700 0.02670300
v -0.03331300 0.10206500 0.02126500
v -0.03331300 0.10206500 0.02126500
v -0.03629800 0.10587400 0.02672600
v -0.03629800 0.10587400 0.02672600
v -0.03376600 0.10174700 0.02703700
v -0.03376600 0.10174700 0.02703700
v -0.03262400 0.10057900 0.02672300
v -0.03262400 0.10057900 0.02672300
v -0.03331900 0.10205800 0.02641000
v -0.03331900 0.10205800 0.02641000
v -0.03629100 0.10588200 0.02095200
v -0.03629100 0.10588200 0.02095200
v -0.04239500 0.09576400 0.02114600
v -0.04239500 0.09576400 0.02114600
v -0.03261700 0.10058700 0.02094900
v -0.03261700 0.10058700 0.02094900
v -0.04270400 0.09554600 0.02638900
v -0.04270400 0.09554600 0.02638900
v -0.03375800 0.10175600 0.02063500
v -0.03375800 0.10175600 0.02063500
v -0.04507800 0.09978500 0.02088400
v -0.04507800 0.09978500 0.02088400
v -0.04225000 0.09586500 0.02061600
v -0.04225000 0.09586500 0.02061600
v -0.04225000 0.09586500 0.02061600
v -0.04140400 0.09449100 0.02088000
v -0.04140400 0.09449100 0.02088000
v -0.04140400 0.09449100 0.02088000
v -0.04409500 0.09850300 0.02702000
v -0.04409500 0.09850300 0.02702000
v -0.03514900 0.10471300 0.02126600
v -0.03514900 0.10471300 0.02126600
v -0.03514900 0.10471300 0.02126600
v -0.03560300 0.10439500 0.02703900
v -0.03560300 0.10439500 0.02703900
v -0.03560300 0.10439500 0.02703900
v -0.03515500 0.10470500 0.02641200
v -0.04423200 0.09841100 0.02114700
v -0.04423200 0.09841100 0.02114700
v -0.04423200 0.09841100 0.02114700
v -0.04454100 0.09819400 0.02639100
v -0.03559500 0.10440400 0.02063700
v -0.04408700 0.09851200 0.02061800
v -0.04408700 0.09851200 0.02061800
v -0.04339900 0.09702400 0.02670500
v -0.04339900 0.09702400 0.02670500
v -0.04339900 0.09702400 0.02670500
v -0.04339900 0.09702400 0.02670500
v -0.04324100 0.09713800 0.02088200
v -0.04324100 0.09713800 0.02088200
v -0.04324100 0.09713800 0.02088200
v -0.04324100 0.09713800 0.02088200
v -0.03446100 0.10322600 0.02672500
v -0.03446100 0.10322600 0.02672500
v -0.03445400 0.10323500 0.02095100
v -0.03445400 0.10323500 0.02095100
v -0.03445400 0.10323500 0.02095100
v -0.03445400 0.10323500 0.02095100
v -0.03445400 0.10323500 0.02095100
v -0.03537200 0.10455800 0.02095200
v -0.03537200 0.10455800 0.02095200
v -0.03537200 0.10455800 0.02095200
v -0.03537200 0.10455800 0.02095200
v -0.03537900 0.10455000 0.02672500
v -0.03537900 0.10455000 0.02672500
v -0.03537900 0.10455000 0.02672500
v -0.04415900 0.09846200 0.02088300
v -0.04415900 0.09846200 0.02088300
v -0.04415900 0.09846200 0.02088300
v -0.04431800 0.09834800 0.02670600
v -0.04431800 0.09834800 0.02670600
v -0.04431800 0.09834800 0.02670600
v -0.04248100 0.09570100 0.02670400
v -0.04248100 0.09570100 0.02670400
v -0.04248100 0.09570100 0.02670400
v -0.04232300 0.09581400 0.02088100
v -0.04232300 0.09581400 0.02088100
v -0.04232300 0.09581400 0.02088100
v -0.04232300 0.09581400 0.02088100
v -0.03354200 0.10190200 0.02672400
v -0.03354200 0.10190200 0.02672400
v -0.03353500 0.10191100 0.02095000
v -0.03353500 0.10191100 0.02095000
v -0.03353500 0.10191100 0.02095000
vn 0.62220000 0.43210000 -0.65280000
vn -0.77980000 -0.54080000 -0.31540000
vn -0.77970000 -0.54080000 -0.31550000
vn -0.62220000 -0.43210000 0.65280000
vn 0.62060000 0.43020000 0.65560000
vn 0.62220000 0.43210000 -0.65280000
vn 0.62230000 0.43220000 -0.65270000
vn -0.62220000 -0.43210000 0.65280000
vn 0.62070000 0.43020000 0.65550000
vn -0.77970000 -0.54080000 -0.31550000
vn 0.62220000 0.43210000 -0.65280000
vn 0.62230000 0.43210000 -0.65270000
vn -0.77970000 -0.54080000 -0.31560000
vn -0.62220000 -0.43210000 0.65280000
vn -0.62230000 -0.43220000 0.65270000
vn 0.62060000 0.43010000 0.65560000
vn 0.62220000 0.43210000 -0.65280000
vn -0.62220000 -0.43210000 0.65280000
vn 0.62060000 0.43020000 0.65550000
vn 0.62070000 0.43020000 0.65550000
vn -0.77980000 -0.54080000 -0.31550000
vn -0.77980000 -0.54080000 -0.31530000
vn -0.62220000 -0.43210000 0.65280000
vn -0.62220000 -0.43220000 0.65280000
vn 0.62220000 0.43210000 -0.65270000
vn 0.62220000 0.43220000 -0.65280000
vn 0.62230000 0.43210000 -0.65270000
vn 0.62070000 0.43020000 0.65550000
vn 0.62070000 0.43020000 0.65550000
vn -0.77970000 -0.54080000 -0.31540000
vn -0.77980000 -0.54080000 -0.31550000
vn -0.62230000 -0.43220000 0.65270000
vn -0.62220000 -0.43210000 0.65280000
vn -0.62230000 -0.43210000 0.65270000
vn 0.62220000 0.43210000 -0.65280000
vn 0.62210000 0.43210000 -0.65290000
vn -0.77980000 -0.54080000 -0.31550000
vn -0.77970000 -0.54080000 -0.31550000
vn -0.62230000 -0.43220000 0.65270000
vn -0.62220000 -0.43210000 0.65280000
vn -0.62220000 -0.43210000 0.65280000
vn -0.62230000 -0.43220000 0.65270000
vn -0.62220000 -0.43210000 0.65280000
vn 0.62220000 0.43210000 -0.65280000
vn 0.62230000 0.43210000 -0.65270000
vn 0.62070000 0.43020000 0.65550000
vn 0.62060000 0.43020000 0.65560000
vn 0.62070000 0.43020000 0.65550000
vn 0.62060000 0.43010000 0.65560000
vn 0.62070000 0.43020000 0.65550000
vn 0.62060000 0.43010000 0.65560000
vn 0.62070000 0.43020000 0.65550000
vn 0.62060000 0.43020000 0.65550000
vn 0.62220000 0.43210000 -0.65280000
vn 0.62230000 0.43220000 -0.65270000
vn -0.77970000 -0.54080000 -0.31540000
vn -0.77980000 -0.54080000 -0.31550000
vn 0.62220000 0.43210000 -0.65280000
vn 0.62230000 0.43210000 -0.65270000
vn -0.62220000 -0.43210000 0.65280000
vn -0.62230000 -0.43220000 0.65270000
vn 0.62210000 0.43210000 -0.65290000
vn 0.62220000 0.43210000 -0.65280000
vn -0.77970000 -0.54080000 -0.31550000
vn -0.77980000 -0.54080000 -0.31540000
vn -0.77970000 -0.54080000 -0.31550000
vn -0.77980000 -0.54080000 -0.31540000
vn -0.77970000 -0.54080000 -0.31560000
vn -0.77970000 -0.54080000 -0.31560000
vn -0.77980000 -0.54080000 -0.31530000
vn -0.77980000 -0.54080000 -0.31540000
vn -0.62230000 -0.43220000 0.65270000
vn -0.62220000 -0.43210000 0.65280000
vn 0.62220000 0.43220000 -0.65270000
vn 0.62220000 0.43220000 -0.65280000
vn 0.62220000 0.43210000 -0.65280000
vn 0.62060000 0.43020000 0.65550000
vn 0.62060000 0.43020000 0.65560000
vn 0.62070000 0.43020000 0.65550000
vn 0.62070000 0.43020000 0.65550000
vn -0.77980000 -0.54080000 -0.31540000
vn -0.77970000 -0.54080000 -0.31550000
vn -0.77980000 -0.54080000 -0.31550000
vn -0.62220000 -0.43210000 0.65280000
vn 0.62220000 0.43210000 -0.65280000
vn -0.77970000 -0.54080000 -0.31550000
vn -0.77980000 -0.54080000 -0.31550000
vn -0.62230000 -0.43220000 0.65270000
vn -0.62220000 -0.43210000 0.65280000
vn -0.62230000 -0.43210000 0.65270000
vn -0.62220000 -0.43220000 0.65280000
vn -0.77980000 -0.54080000 -0.31540000
vn -0.77970000 -0.54080000 -0.31550000
vn -0.77970000 -0.54080000 -0.31540000
vn -0.77980000 -0.54080000 -0.31550000
vn 0.62060000 0.43020000 0.65550000
vn 0.62070000 0.43020000 0.65550000
vn 0.62210000 0.43210000 -0.65290000
vn 0.62220000 0.43210000 -0.65280000
vn 0.62220000 0.43220000 -0.65280000
vn 0.62220000 0.43220000 -0.65270000
vn 0.62220000 0.43210000 -0.65270000
vn 0.62220000 0.43210000 -0.65280000
vn 0.62210000 0.43210000 -0.65290000
vn 0.62230000 0.43220000 -0.65270000
vn 0.62220000 0.43220000 -0.65270000
vn 0.62070000 0.43020000 0.65550000
vn 0.62060000 0.43020000 0.65560000
vn 0.62060000 0.43020000 0.65550000
vn -0.77980000 -0.54080000 -0.31540000
vn -0.77980000 -0.54080000 -0.31550000
vn -0.77970000 -0.54080000 -0.31550000
vn -0.62230000 -0.43220000 0.65270000
vn -0.62230000 -0.43210000 0.65270000
vn -0.62220000 -0.43210000 0.65280000
vn -0.62220000 -0.43210000 0.65280000
vn -0.62230000 -0.43220000 0.65270000
vn -0.62220000 -0.43220000 0.65280000
vn -0.77980000 -0.54080000 -0.31550000
vn -0.77980000 -0.54080000 -0.31540000
vn -0.77970000 -0.54080000 -0.31540000
vn -0.77980000 -0.54080000 -0.31530000
vn 0.62070000 0.43020000 0.65550000
vn 0.62060000 0.43020000 0.65550000
vn 0.62220000 0.43210000 -0.65280000
vn 0.62220000 0.43210000 -0.65270000
vn 0.62230000 0.43210000 -0.65270000
vt 0.00000000 0.00000000
vt 0.00000000 0.00000000
vt 0.00000000 0.00000000
vt 0.00000000 0.00000000
vt 0.00000000 0.00000000
vt 0.00000000 0.00000000
vt 0.00000000 0.00000000
vt 0.00000000 0.00000000
vt 0.00000000 0.00000000
vt 0.00000000 0.00000000
vt 0.00000000 0.00000000
vt 0.00000000 0.00000000
vt 0.00000000 0.00000000
vt 0.00000000 0.00000000
vt 0.00000000 0.00000000
vt 0.00000000 0.00000000
vt 0.00000000 0.00000000
vt 0.00000000 0.00000000
vt 0.00000000 0.00000000
vt 0.00000000 0.00000000
vt 0.00000000 0.00000000
vt 0.00000000 0.00000000
vt 0.00000000 0.00000000
vt 0.00000000 0.00000000
vt 0.00000000 0.00000000
vt 0.00000000 0.00000000
vt 0.00000000 0.00000000
vt 0.00000000 0.00000000
vt 0.00000000 0.00000000
vt 0.00000000 0.00000000
vt 0.00000000 0.00000000
vt 0.00000000 0.00000000
vt 0.00000000 0.00000000
vt 0.00000000 0.00000000
vt 0.00000000 0.00000000
vt 0.00000000 0.00000000
vt 0.00000000 0.00000000
vt 0.00000000 0.00000000
vt 0.00000000 0.00000000
vt 0.00000000 0.00000000
vt 0.00000000 0.00000000
vt 0.00000000 0.00000000
vt 0.00000000 0.00000000
vt 0.00000000 0.00000000
vt 0.00000000 0.00000000
vt 0.00000000 0.00000000
vt 0.00000000 0.00000000
vt 0.00000000 0.00000000
vt 0.00000000 0.00000000
vt 0.00000000 0.00000000
vt 0.00000000 0.00000000
vt 0.00000000 0.00000000
vt 0.00000000 0.00000000
vt 0.00000000 0.00000000
vt 0.00000000 0.00000000
vt 0.00000000 0.00000000
vt 0.00000000 0.00000000
vt 0.00000000 0.00000000
vt 0.00000000 0.00000000
vt 0.00000000 0.00000000
vt 0.00000000 0.00000000
vt 0.00000000 0.00000000
vt 0.00000000 0.00000000
vt 0.00000000 0.00000000
vt 0.00000000 0.00000000
vt 0.00000000 0.00000000
vt 0.00000000 0.00000000
vt 0.00000000 0.00000000
vt 0.00000000 0.00000000
vt 0.00000000 0.00000000
vt 0.00000000 0.00000000
vt 0.00000000 0.00000000
vt 0.00000000 0.00000000
vt 0.00000000 0.00000000
vt 0.00000000 0.00000000
vt 0.00000000 0.00000000
vt 0.00000000 0.00000000
vt 0.00000000 0.00000000
vt 0.00000000 0.00000000
vt 0.00000000 0.00000000
vt 0.00000000 0.00000000
vt 0.00000000 0.00000000
vt 0.00000000 0.00000000
vt 0.00000000 0.00000000
vt 0.00000000 0.00000000
vt 0.00000000 0.00000000
vt 0.00000000 0.00000000
vt 0.00000000 0.00000000
vt 0.00000000 0.00000000
vt 0.00000000 0.00000000
vt 0.00000000 0.00000000
vt 0.00000000 0.00000000
vt 0.00000000 0.00000000
vt 0.00000000 0.00000000
vt 0.00000000 0.00000000
vt 0.00000000 0.00000000
vt 0.00000000 0.00000000
vt 0.00000000 0.00000000
vt 0.00000000 0.00000000
vt 0.00000000 0.00000000
vt 0.00000000 0.00000000
vt 0.00000000 0.00000000
vt 0.00000000 0.00000000
vt 0.00000000 0.00000000
vt 0.00000000 0.00000000
vt 0.00000000 0.00000000
vt 0.00000000 0.00000000
vt 0.00000000 0.00000000
vt 0.00000000 0.00000000
vt 0.00000000 0.00000000
vt 0.00000000 0.00000000
vt 0.00000000 0.00000000
vt 0.00000000 0.00000000
vt 0.00000000 0.00000000
vt 0.00000000 0.00000000
vt 0.00000000 0.00000000
vt 0.00000000 0.00000000
vt 0.00000000 0.00000000
vt 0.00000000 0.00000000
vt 0.00000000 0.00000000
vt 0.00000000 0.00000000
vt 0.00000000 0.00000000
vt 0.00000000 0.00000000
vt 0.00000000 0.00000000
vt 0.00000000 0.00000000
vt 0.00000000 0.00000000
vt 0.00000000 0.00000000
f 45/45/45 59/59/59 127/127/127
f 48/48/48 50/50/50 123/123/123
f 67/67/67 71/71/71 120/120/120
f 60/60/60 43/43/43 116/116/116
f 114/114/114 34/34/34 90/90/90
f 111/111/111 37/37/37 95/95/95
f 77/77/77 96/96/96 109/109/109
f 74/74/74 101/101/101 106/106/106
f 103/103/103 35/35/35 85/85/85
f 54/54/54 85/85/85 1/1/1
f 7/7/7 105/105/105 55/55/55
f 107/107/107 29/29/29 80/80/80
f 46/46/46 80/80/80 9/9/9
f 5/5/5 108/108/108 47/47/47
f 83/83/83 95/95/95 31/31/31
f 10/10/10 112/112/112 82/82/82
f 2/2/2 110/110/110 65/65/65
f 73/73/73 89/89/89 23/23/23
f 40/40/40 73/73/73 4/4/4
f 8/8/8 115/115/115 40/40/40
f 116/116/116 14/14/14 41/41/41
f 23/23/23 116/116/116 41/41/41
f 89/89/89 60/60/60 116/116/116
f 119/119/119 21/21/21 57/57/57
f 94/94/94 56/56/56 30/30/30
f 92/92/92 67/67/67 120/120/120
f 124/124/124 19/19/19 53/53/53
f 97/97/97 52/52/52 29/29/29
f 28/28/28 123/123/123 97/97/97
f 125/125/125 11/11/11 63/63/63
f 98/98/98 62/62/62 36/36/36
f 25/25/25 126/126/126 102/102/102
f 44/44/44 17/17/17 58/58/58
f 49/49/49 16/16/16 51/51/51
f 68/68/68 13/13/13 69/69/69
f 60/60/60 18/18/18 43/43/43
f 115/115/115 84/84/84 33/33/33
f 111/111/111 87/87/87 37/37/37
f 79/79/79 28/28/28 97/97/97
f 75/75/75 26/26/26 100/100/100
f 104/104/104 98/98/98 36/36/36
f 54/54/54 103/103/103 85/85/85
f 6/6/6 76/76/76 103/103/103
f 107/107/107 97/97/97 29/29/29
f 46/46/46 107/107/107 80/80/80
f 5/5/5 78/78/78 108/108/108
f 81/81/81 110/110/110 92/92/92
f 10/10/10 64/64/64 112/112/112
f 3/3/3 86/86/86 112/112/112
f 72/72/72 113/113/113 88/88/88
f 39/39/39 113/113/113 72/72/72
f 8/8/8 84/84/84 115/115/115
f 117/117/117 42/42/42 15/15/15
f 24/24/24 91/91/91 118/118/118
f 88/88/88 32/32/32 61/61/61
f 122/122/122 70/70/70 22/22/22
f 94/94/94 121/121/121 56/56/56
f 93/93/93 38/38/38 66/66/66
f 123/123/123 50/50/50 20/20/20
f 97/97/97 123/123/123 52/52/52
f 28/28/28 48/48/48 123/123/123
f 127/127/127 59/59/59 12/12/12
f 99/99/99 125/125/125 63/63/63
f 27/27/27 45/45/45 127/127/127
