mtllib material_0.mtl
usemtl material_0
v 0.05541000 0.09203400 0.03401200
v 0.05541000 0.09203400 0.03401200
v 0.05541000 0.09203400 0.03401200
v 0.05703900 0.09203400 0.03385200
v 0.05703900 0.09203400 0.03385200
v 0.05703900 0.09203400 0.03385200
v 0.05860500 0.09203400 0.03337700
v 0.05860500 0.09203400 0.03337700
v 0.05860500 0.09203400 0.03337700
v 0.06004900 0.09203400 0.03260500
v 0.06004900 0.09203400 0.03260500
v 0.06004900 0.09203400 0.03260500
v 0.06131400 0.09203400 0.03156700
v 0.06131400 0.09203400 0.03156700
v 0.06131400 0.09203400 0.03156700
v 0.06235300 0.09203400 0.03030100
v 0.06235300 0.09203400 0.03030100
v 0.06235300 0.09203400 0.03030100
v 0.06312400 0.09203400 0.02885800
v 0.06312400 0.09203400 0.02885800
v 0.06312400 0.09203400 0.02885800
v 0.06360000 0.09203400 0.02729100
v 0.06360000 0.09203400 0.02729100
v 0.06360000 0.09203400 0.02729100
v 0.06376000 0.09203400 0.02566200
v 0.06376000 0.09203400 0.02566200
v 0.06376000 0.09203400 0.02566200
v 0.06360000 0.09203400 0.02403300
v 0.06360000 0.09203400 0.02403300
v 0.06360000 0.09203400 0.02403300
v 0.06312400 0.09203400 0.02246700
v 0.06312400 0.09203400 0.02246700
v 0.06312400 0.09203400 0.02246700
v 0.06235300 0.09203400 0.02102300
v 0.06235300 0.09203400 0.02102300
v 0.06235300 0.09203400 0.02102300
v 0.06131400 0.09203400 0.01975800
v 0.06131400 0.09203400 0.01975800
v 0.06131400 0.09203400 0.01975800
v 0.06004900 0.09203400 0.01872000
v 0.06004900 0.09203400 0.01872000
v 0.06004900 0.09203400 0.01872000
v 0.05860500 0.09203400 0.01794800
v 0.05860500 0.09203400 0.01794800
v 0.05860500 0.09203400 0.01794800
v 0.05703900 0.09203400 0.01747300
v 0.05703900 0.09203400 0.01747300
v 0.05703900 0.09203400 0.01747300
v 0.05541000 0.09203400 0.01731200
v 0.05541000 0.09203400 0.01731200
v 0.05541000 0.09203400 0.01731200
v 0.05378100 0.09203400 0.01747300
v 0.05378100 0.09203400 0.01747300
v 0.05378100 0.09203400 0.01747300
v 0.05221500 0.09203400 0.01794800
v 0.05221500 0.09203400 0.01794800
v 0.05221500 0.09203400 0.01794800
v 0.05221500 0.09203400 0.01794800
v 0.05077100 0.09203400 0.01872000
v 0.05077100 0.09203400 0.01872000
v 0.05077100 0.09203400 0.01872000
v 0.04950600 0.09203400 0.01975800
v 0.04950600 0.09203400 0.01975800
v 0.04950600 0.09203400 0.01975800
v 0.04950600 0.09203400 0.01975800
v 0.04846700 0.09203400 0.02102300
v 0.04846700 0.09203400 0.02102300
v 0.04846700 0.09203400 0.02102300
v 0.04769600 0.09203400 0.02246700
v 0.04769600 0.09203400 0.02246700
v 0.04769600 0.09203400 0.02246700
v 0.04722000 0.09203400 0.02403300
v 0.04722000 0.09203400 0.02403300
v 0.04722000 0.09203400 0.02403300
v 0.04706000 0.09203400 0.02566200
v 0.04706000 0.09203400 0.02566200
v 0.04706000 0.09203400 0.02566200
v 0.04722000 0.09203400 0.02729100
v 0.04722000 0.09203400 0.02729100
v 0.04722000 0.09203400 0.02729100
v 0.04769600 0.09203400 0.02885800
v 0.04769600 0.09203400 0.02885800
v 0.04769600 0.09203400 0.02885800
v 0.04846700 0.09203400 0.03030100
v 0.04846700 0.09203400 0.03030100
v 0.04846700 0.09203400 0.03030100
v 0.04950600 0.09203400 0.03156700
v 0.04950600 0.09203400 0.03156700
v 0.04950600 0.09203400 0.03156700
v 0.04950600 0.09203400 0.03156700
v 0.05077100 0.09203400 0.03260500
v 0.05077100 0.09203400 0.03260500
v 0.05077100 0.09203400 0.03260500
v 0.05221500 0.09203400 0.03337700
v 0.05221500 0.09203400 0.03337700
v 0.05221500 0.09203400 0.03337700
v 0.05221500 0.09203400 0.03337700
v 0.05378100 0.09203400 0.03385200
v 0.05378100 0.09203400 0.03385200
v 0.05378100 0.09203400 0.03385200
v 0.05541000 0.09157200 0.03401200
v 0.05541000 0.09157200 0.03401200
v 0.05703900 0.09157200 0.03385200
v 0.05703900 0.09157200 0.03385200
v 0.05860500 0.09157200 0.03337700
v 0.05860500 0.09157200 0.03337700
v 0.06004900 0.09157200 0.03260500
v 0.06004900 0.09157200 0.03260500
v 0.06131400 0.09157200 0.03156700
v 0.06131400 0.09157200 0.03156700
v 0.06235300 0.09157200 0.03030100
v 0.06235300 0.09157200 0.03030100
v 0.06312400 0.09157200 0.02885800
v 0.06312400 0.09157200 0.02885800
v 0.06360000 0.09157200 0.02729100
v 0.06360000 0.09157200 0.02729100
v 0.06376000 0.09157200 0.02566200
v 0.06376000 0.09157200 0.02566200
v 0.06360000 0.09157200 0.02403300
v 0.06360000 0.09157200 0.02403300
v 0.06312400 0.09157200 0.02246700
v 0.06312400 0.09157200 0.02246700
v 0.06235300 0.09157200 0.02102300
v 0.06235300 0.09157200 0.02102300
v 0.06131400 0.09157200 0.01975800
v 0.06131400 0.09157200 0.01975800
v 0.06004900 0.09157200 0.01872000
v 0.06004900 0.09157200 0.01872000
v 0.05860500 0.09157200 0.01794800
v 0.05860500 0.09157200 0.01794800
v 0.05703900 0.09157200 0.01747300
v 0.05703900 0.09157200 0.01747300
v 0.05541000 0.09157200 0.01731200
v 0.05541000 0.09157200 0.01731200
v 0.05378100 0.09157200 0.01747300
v 0.05378100 0.09157200 0.01747300
v 0.05221500 0.09157200 0.01794800
v 0.05221500 0.09157200 0.01794800
v 0.05077100 0.09157200 0.01872000
v 0.05077100 0.09157200 0.01872000
v 0.04950600 0.09157200 0.01975800
v 0.04950600 0.09157200 0.01975800
v 0.04846700 0.09157200 0.02102300
v 0.04846700 0.09157200 0.02102300
v 0.04769600 0.09157200 0.02246700
v 0.04769600 0.09157200 0.02246700
v 0.04722000 0.09157200 0.02403300
v 0.04722000 0.09157200 0.02403300
v 0.04719100 0.09157200 0.02433400
v 0.04706000 0.09157200 0.02566200
v 0.04706000 0.09157200 0.02566200
v 0.04722000 0.09157200 0.02729100
v 0.04722000 0.09157200 0.02729100
v 0.04769600 0.09157200 0.02885800
v 0.04769600 0.09157200 0.02885800
v 0.04846700 0.09157200 0.03030100
v 0.04846700 0.09157200 0.03030100
v 0.04950600 0.09157200 0.03156700
v 0.04950600 0.09157200 0.03156700
v 0.05077100 0.09157200 0.03260500
v 0.05077100 0.09157200 0.03260500
v 0.05221500 0.09157200 0.03337700
v 0.05221500 0.09157200 0.03337700
v 0.05378100 0.09157200 0.03385200
v 0.05378100 0.09157200 0.03385200
vn -0.09800000 0.00000000 0.99520000
vn 0.00000000 1.00000000 0.00000000
vn 0.09800000 0.00000000 0.99520000
vn 0.09800000 0.00000000 0.99520000
vn 0.29030000 0.00000000 0.95690000
vn 0.00000000 1.00000000 0.00000000
vn 0.29030000 0.00000000 0.95690000
vn 0.47140000 0.00000000 0.88190000
vn 0.00000000 1.00000000 0.00000000
vn 0.00000000 1.00000000 0.00000000
vn 0.47140000 0.00000000 0.88190000
vn 0.63440000 0.00000000 0.77300000
vn 0.77300000 0.00000000 0.63440000
vn 0.00000000 1.00000000 0.00000000
vn 0.63440000 0.00000000 0.77300000
vn 0.00000000 1.00000000 0.00000000
vn 0.77300000 0.00000000 0.63440000
vn 0.88190000 0.00000000 0.47140000
vn 0.88190000 0.00000000 0.47140000
vn 0.95690000 0.00000000 0.29030000
vn 0.00000000 1.00000000 0.00000000
vn 0.99520000 0.00000000 0.09800000
vn 0.00000000 1.00000000 0.00000000
vn 0.95690000 0.00000000 0.29030000
vn 0.99520000 0.00000000 0.09800000
vn 0.99520000 0.00000000 -0.09800000
vn 0.00000000 1.00000000 0.00000000
vn 0.95690000 0.00000000 -0.29030000
vn 0.00000000 1.00000000 0.00000000
vn 0.99520000 0.00000000 -0.09800000
vn 0.00000000 1.00000000 0.00000000
vn 0.95690000 0.00000000 -0.29030000
vn 0.88190000 0.00000000 -0.47140000
vn 0.77300000 0.00000000 -0.63440000
vn 0.88190000 0.00000000 -0.47140000
vn 0.00000000 1.00000000 0.00000000
vn 0.63440000 0.00000000 -0.77300000
vn 0.77300000 0.00000000 -0.63440000
vn 0.00000000 1.00000000 0.00000000
vn 0.63440000 0.00000000 -0.77300000
vn 0.47140000 0.00000000 -0.88190000
vn 0.00000000 1.00000000 0.00000000
vn 0.00000000 1.00000000 0.00000000
vn 0.29030000 0.00000000 -0.95690000
vn 0.47140000 0.00000000 -0.88190000
vn 0.00000000 1.00000000 0.00000000
vn 0.29030000 0.00000000 -0.95690000
vn 0.09800000 0.00000000 -0.99520000
vn 0.00000000 1.00000000 0.00000000
vn 0.09800000 0.00000000 -0.99520000
vn -0.09800000 0.00000000 -0.99520000
vn -0.29030000 0.00000000 -0.95690000
vn 0.00000000 1.00000000 0.00000000
vn -0.09800000 0.00000000 -0.99520000
vn -0.29030000 0.00000000 -0.95690000
vn 0.00000000 1.00000000 -0.00010000
vn -0.47140000 0.00000000 -0.88190000
vn 0.00000000 1.00000000 0.00000000
vn -0.47140000 0.00000000 -0.88190000
vn -0.63440000 0.00000000 -0.77300000
vn 0.00000000 1.00000000 -0.00010000
vn -0.63440000 0.00000000 -0.77300000
vn 0.00000000 1.00000000 0.00000000
vn -0.77300000 0.00000000 -0.63440000
vn 0.00000000 1.00000000 -0.00010000
vn 0.00000000 1.00000000 0.00000000
vn -0.77300000 0.00000000 -0.63440000
vn -0.88190000 0.00000000 -0.47140000
vn -0.95690000 0.00000000 -0.29030000
vn 0.00000000 1.00000000 0.00000000
vn -0.88190000 0.00000000 -0.47140000
vn -0.95690000 0.00000000 -0.29030000
vn -0.99520000 0.00000000 -0.09800000
vn 0.00000000 1.00000000 0.00000000
vn 0.00000000 1.00000000 0.00000000
vn -0.99520000 0.00000000 -0.09800000
vn -0.99520000 0.00000000 0.09800000
vn 0.00000000 1.00000000 0.00000000
vn -0.99520000 0.00000000 0.09800000
vn -0.95690000 0.00000000 0.29030000
vn 0.00000000 1.00000000 0.00000000
vn -0.95690000 0.00000000 0.29030000
vn -0.88190000 0.00000000 0.47140000
vn -0.77300000 0.00000000 0.63440000
vn 0.00000000 1.00000000 0.00000000
vn -0.88190000 0.00000000 0.47140000
vn -0.63440000 0.00000000 0.77300000
vn 0.00000000 1.00000000 0.00010000
vn -0.77300000 0.00000000 0.63440000
vn 0.00000000 1.00000000 0.00000000
vn -0.47140000 0.00000000 0.88190000
vn -0.63440000 0.00000000 0.77300000
vn 0.00000000 1.00000000 0.00010000
vn -0.29030000 0.00000000 0.95690000
vn 0.00000000 1.00000000 0.00000000
vn -0.47140000 0.00000000 0.88190000
vn 0.00000000 1.00000000 0.00010000
vn -0.09800000 0.00000000 0.99520000
vn -0.29030000 0.00000000 0.95690000
vn 0.00000000 1.00000000 0.00000000
vn -0.09800000 0.00000000 0.99520000
vn 0.09800000 0.00000000 0.99520000
vn 0.29030000 0.00000000 0.95690000
vn 0.09800000 0.00000000 0.99520000
vn 0.47140000 0.00000000 0.88190000
vn 0.29030000 0.00000000 0.95690000
vn 0.47140000 0.00000000 0.88190000
vn 0.63440000 0.00000000 0.77300000
vn 0.63440000 0.00000000 0.77300000
vn 0.77300000 0.00000000 0.63440000
vn 0.88190000 0.00000000 0.47140000
vn 0.77300000 0.00000000 0.63440000
vn 0.88190000 0.00000000 0.47140000
vn 0.95690000 0.00000000 0.29030000
vn 0.99520000 0.00000000 0.09800000
vn 0.95690000 0.00000000 0.29030000
vn 0.99520000 0.00000000 -0.09800000
vn 0.99520000 0.00000000 0.09800000
vn 0.95690000 0.00000000 -0.29030000
vn 0.99520000 0.00000000 -0.09800000
vn 0.95690000 0.00000000 -0.29030000
vn 0.88190000 0.00000000 -0.47140000
vn 0.88190000 0.00000000 -0.47140000
vn 0.77300000 0.00000000 -0.63440000
vn 0.77300000 0.00000000 -0.63440000
vn 0.63440000 0.00000000 -0.77300000
vn 0.47140000 0.00000000 -0.88190000
vn 0.63440000 0.00000000 -0.77300000
vn 0.29030000 0.00000000 -0.95690000
vn 0.47140000 0.00000000 -0.88190000
vn 0.29030000 0.00000000 -0.95690000
vn 0.09800000 0.00000000 -0.99520000
vn -0.09800000 0.00000000 -0.99520000
vn 0.09800000 0.00000000 -0.99520000
vn -0.09800000 0.00000000 -0.99520000
vn -0.29030000 0.00000000 -0.95690000
vn -0.29030000 0.00000000 -0.95690000
vn -0.47140000 0.00000000 -0.88190000
vn -0.47140000 0.00000000 -0.88190000
vn -0.63440000 0.00000000 -0.77300000
vn -0.63440000 0.00000000 -0.77300000
vn -0.77300000 0.00000000 -0.63440000
vn -0.88190000 0.00000000 -0.47140000
vn -0.77300000 0.00000000 -0.63440000
vn -0.95690000 0.00000000 -0.29030000
vn -0.88190000 0.00000000 -0.47140000
vn -0.99520000 0.00000000 -0.09800000
vn -0.95690000 0.00000000 -0.29030000
vn -0.99520000 0.00000000 -0.09800000
vn -0.99520000 0.00000000 -0.09800000
vn -0.99520000 0.00000000 0.09800000
vn -0.99520000 0.00000000 0.09800000
vn -0.95690000 0.00000000 0.29030000
vn -0.88190000 0.00000000 0.47140000
vn -0.95690000 0.00000000 0.29030000
vn -0.77300000 0.00000000 0.63440000
vn -0.88190000 0.00000000 0.47140000
vn -0.63440000 0.00000000 0.77300000
vn -0.77300000 0.00000000 0.63440000
vn -0.47140000 0.00000000 0.88190000
vn -0.63440000 0.00000000 0.77300000
vn -0.47140000 0.00000000 0.88190000
vn -0.29030000 0.00000000 0.95690000
vn -0.29030000 0.00000000 0.95690000
vn -0.09800000 0.00000000 0.99520000
vt 0.00000000 0.50000000
vt 0.75000000 0.49000000
vt 1.00000000 0.50000000
vt 0.96875000 0.50000000
vt 0.96875000 0.50000000
vt 0.79682200 0.48538900
vt 0.93750000 0.50000000
vt 0.93750000 0.50000000
vt 0.84184400 0.47173100
vt 0.88333700 0.44955300
vt 0.90625000 0.50000000
vt 0.90625000 0.50000000
vt 0.87500000 0.50000000
vt 0.91970600 0.41970600
vt 0.87500000 0.50000000
vt 0.94955300 0.38333700
vt 0.84375000 0.50000000
vt 0.84375000 0.50000000
vt 0.81250000 0.50000000
vt 0.81250000 0.50000000
vt 0.97173100 0.34184400
vt 0.78125000 0.50000000
vt 0.98538900 0.29682200
vt 0.78125000 0.50000000
vt 0.75000000 0.50000000
vt 0.75000000 0.50000000
vt 0.99000000 0.25000000
vt 0.71875000 0.50000000
vt 0.98538900 0.29682200
vt 0.71875000 0.50000000
vt 0.97173100 0.34184400
vt 0.68750000 0.50000000
vt 0.68750000 0.50000000
vt 0.65625000 0.50000000
vt 0.65625000 0.50000000
vt 0.94955300 0.38333700
vt 0.62500000 0.50000000
vt 0.62500000 0.50000000
vt 0.91970600 0.41970600
vt 0.59375000 0.50000000
vt 0.59375000 0.50000000
vt 0.88333700 0.44955300
vt 0.84184400 0.47173100
vt 0.56250000 0.50000000
vt 0.56250000 0.50000000
vt 0.79682200 0.48538900
vt 0.53125000 0.50000000
vt 0.53125000 0.50000000
vt 0.75000000 0.49000000
vt 0.50000000 0.50000000
vt 0.50000000 0.50000000
vt 0.46875000 0.50000000
vt 0.70317800 0.48538900
vt 0.46875000 0.50000000
vt 0.43750000 0.50000000
vt 0.65815600 0.02826900
vt 0.43750000 0.50000000
vt 0.65815600 0.02826900
vt 0.40625000 0.50000000
vt 0.40625000 0.50000000
vt 0.61666300 0.05044700
vt 0.37500000 0.50000000
vt 0.58029400 0.08029400
vt 0.37500000 0.50000000
vt 0.58029400 0.08029400
vt 0.55044700 0.11666300
vt 0.34375000 0.50000000
vt 0.34375000 0.50000000
vt 0.31250000 0.50000000
vt 0.52826900 0.15815600
vt 0.31250000 0.50000000
vt 0.28125000 0.50000000
vt 0.28125000 0.50000000
vt 0.51461200 0.20317800
vt 0.51000000 0.25000000
vt 0.25000000 0.50000000
vt 0.25000000 0.50000000
vt 0.51461200 0.20317800
vt 0.21875000 0.50000000
vt 0.21875000 0.50000000
vt 0.52826900 0.15815600
vt 0.18750000 0.50000000
vt 0.18750000 0.50000000
vt 0.15625000 0.50000000
vt 0.55044700 0.11666300
vt 0.15625000 0.50000000
vt 0.12500000 0.50000000
vt 0.58029400 0.08029400
vt 0.12500000 0.50000000
vt 0.58029400 0.08029400
vt 0.09375000 0.50000000
vt 0.09375000 0.50000000
vt 0.61666300 0.05044700
vt 0.06250000 0.50000000
vt 0.65815600 0.02826900
vt 0.06250000 0.50000000
vt 0.65815600 0.02826900
vt 0.03125000 0.50000000
vt 0.03125000 0.50000000
vt 0.70317800 0.48538900
vt 0.00000000 0.59229200
vt 1.00000000 0.59229200
vt 0.96875000 0.59229200
vt 0.96875000 0.59229200
vt 0.93750000 0.59229200
vt 0.93750000 0.59229200
vt 0.90625000 0.59229200
vt 0.90625000 0.59229200
vt 0.87500000 0.59229200
vt 0.87500000 0.59229200
vt 0.84375000 0.59229200
vt 0.84375000 0.59229200
vt 0.81250000 0.59229200
vt 0.81250000 0.59229200
vt 0.78125000 0.59229200
vt 0.78125000 0.59229200
vt 0.75000000 0.59229200
vt 0.75000000 0.59229200
vt 0.71875000 0.59229200
vt 0.71875000 0.59229200
vt 0.68750000 0.59229200
vt 0.68750000 0.59229200
vt 0.65625000 0.59229200
vt 0.65625000 0.59229200
vt 0.62500000 0.59229200
vt 0.62500000 0.59229200
vt 0.59375000 0.59229200
vt 0.59375000 0.59229200
vt 0.56250000 0.59229200
vt 0.56250000 0.59229200
vt 0.53125000 0.59229200
vt 0.53125000 0.59229200
vt 0.50000000 0.59229200
vt 0.50000000 0.59229200
vt 0.46875000 0.59229200
vt 0.46875000 0.59229200
vt 0.43750000 0.59229200
vt 0.43750000 0.59229200
vt 0.40625000 0.59229200
vt 0.40625000 0.59229200
vt 0.37500000 0.59229200
vt 0.37500000 0.59229200
vt 0.34375000 0.59229200
vt 0.34375000 0.59229200
vt 0.31250000 0.59229200
vt 0.31250000 0.59229200
vt 0.28125000 0.59229200
vt 0.28125000 0.59229200
vt 0.27548200 0.59229200
vt 0.25000000 0.59229200
vt 0.25000000 0.59229200
vt 0.21875000 0.59229200
vt 0.21875000 0.59229200
vt 0.18750000 0.59229200
vt 0.18750000 0.59229200
vt 0.15625000 0.59229200
vt 0.15625000 0.59229200
vt 0.12500000 0.59229200
vt 0.12500000 0.59229200
vt 0.09375000 0.59229200
vt 0.09375000 0.59229200
vt 0.06250000 0.59229200
vt 0.06250000 0.59229200
vt 0.03125000 0.59229200
vt 0.03125000 0.59229200
f 4/4/4 102/102/102 104/104/104
f 7/7/7 103/103/103 106/106/106
f 11/11/11 105/105/105 107/107/107
f 15/15/15 108/108/108 109/109/109
f 13/13/13 112/112/112 17/17/17
f 18/18/18 113/113/113 19/19/19
f 20/20/20 116/116/116 24/24/24
f 22/22/22 118/118/118 25/25/25
f 26/26/26 120/120/120 30/30/30
f 28/28/28 121/121/121 32/32/32
f 33/33/33 123/123/123 35/35/35
f 34/34/34 125/125/125 38/38/38
f 40/40/40 126/126/126 128/128/128
f 45/45/45 127/127/127 130/130/130
f 47/47/47 129/129/129 131/131/131
f 50/50/50 132/132/132 134/134/134
f 54/54/54 133/133/133 135/135/135
f 55/55/55 136/136/136 137/137/137
f 59/59/59 138/138/138 139/139/139
f 62/62/62 140/140/140 141/141/141
f 64/64/64 144/144/144 67/67/67
f 68/68/68 146/146/146 71/71/71
f 69/69/69 148/148/148 72/72/72
f 73/73/73 147/147/147 149/149/149
f 77/77/77 152/152/152 79/79/79
f 80/80/80 155/155/155 82/82/82
f 83/83/83 157/157/157 86/86/86
f 84/84/84 159/159/159 89/89/89
f 92/92/92 158/158/158 161/161/161
f 96/96/96 160/160/160 162/162/162
f 99/99/99 163/163/163 164/164/164
f 1/1/1 165/165/165 101/101/101
f 21/21/21 43/43/43 70/70/70
f 4/4/4 3/3/3 102/102/102
f 7/7/7 5/5/5 103/103/103
f 11/11/11 8/8/8 105/105/105
f 15/15/15 12/12/12 108/108/108
f 13/13/13 110/110/110 112/112/112
f 18/18/18 111/111/111 113/113/113
f 20/20/20 114/114/114 116/116/116
f 22/22/22 115/115/115 118/118/118
f 26/26/26 117/117/117 120/120/120
f 28/28/28 119/119/119 121/121/121
f 33/33/33 122/122/122 123/123/123
f 34/34/34 124/124/124 125/125/125
f 40/40/40 37/37/37 126/126/126
f 45/45/45 41/41/41 127/127/127
f 47/47/47 44/44/44 129/129/129
f 50/50/50 48/48/48 132/132/132
f 54/54/54 51/51/51 133/133/133
f 55/55/55 52/52/52 136/136/136
f 59/59/59 57/57/57 138/138/138
f 62/62/62 60/60/60 140/140/140
f 64/64/64 142/142/142 144/144/144
f 68/68/68 143/143/143 146/146/146
f 69/69/69 145/145/145 148/148/148
f 149/149/149 150/150/150 76/76/76
f 76/76/76 73/73/73 149/149/149
f 77/77/77 151/151/151 152/152/152
f 80/80/80 153/153/153 155/155/155
f 83/83/83 154/154/154 157/157/157
f 84/84/84 156/156/156 159/159/159
f 92/92/92 87/87/87 158/158/158
f 96/96/96 91/91/91 160/160/160
f 99/99/99 94/94/94 163/163/163
f 1/1/1 98/98/98 165/165/165
f 95/95/95 100/100/100 9/9/9
f 100/100/100 2/2/2 9/9/9
f 2/2/2 6/6/6 9/9/9
f 9/9/9 10/10/10 21/21/21
f 10/10/10 14/14/14 21/21/21
f 14/14/14 16/16/16 21/21/21
f 21/21/21 23/23/23 27/27/27
f 27/27/27 29/29/29 31/31/31
f 31/31/31 36/36/36 39/39/39
f 39/39/39 42/42/42 31/31/31
f 42/42/42 43/43/43 31/31/31
f 43/43/43 46/46/46 58/58/58
f 46/46/46 49/49/49 58/58/58
f 49/49/49 53/53/53 58/58/58
f 56/56/56 61/61/61 65/65/65
f 63/63/63 66/66/66 58/58/58
f 66/66/66 70/70/70 58/58/58
f 70/70/70 74/74/74 75/75/75
f 75/75/75 78/78/78 70/70/70
f 78/78/78 81/81/81 70/70/70
f 81/81/81 85/85/85 95/95/95
f 85/85/85 90/90/90 95/95/95
f 88/88/88 93/93/93 97/97/97
f 21/21/21 27/27/27 31/31/31
f 95/95/95 9/9/9 21/21/21
f 21/21/21 31/31/31 43/43/43
f 43/43/43 58/58/58 70/70/70
f 70/70/70 81/81/81 95/95/95
f 95/95/95 21/21/21 70/70/70
