mtllib material_0.mtl
usemtl material_0
v 0.19558400 0.01931900 -0.00650000
v 0.19558400 0.01931900 -0.00650000
v 0.19558400 0.01931900 -0.00650000
v 0.19558400 0.01931900 -0.00650000
v 0.19593700 0.01878900 -0.00650000
v 0.19593700 0.01878900 -0.00650000
v 0.19593700 0.01878900 -0.00650000
v 0.19593700 0.01878900 -0.00650000
v 0.18196500 0.01025900 -0.00650000
v 0.18196500 0.01025900 -0.00650000
v 0.18196500 0.01025900 -0.00650000
v 0.18219900 0.00965000 -0.00650000
v 0.18219900 0.00965000 -0.00650000
v -0.00006300 -0.00059700 -0.00650000
v -0.00006300 -0.00059700 -0.00650000
v -0.00006300 -0.00059700 -0.00650000
v 0.00000000 0.00000000 -0.00650000
v 0.00000000 0.00000000 -0.00650000
v 0.00000000 0.00000000 -0.00650000
v 0.00781000 -0.00142900 -0.00650000
v 0.00781000 -0.00142900 -0.00650000
v 0.00781000 -0.00142900 -0.00650000
v 0.00781000 -0.00142900 -0.00650000
v 0.00769100 -0.00081300 -0.00650000
v 0.00769100 -0.00081300 -0.00650000
v 0.00769100 -0.00081300 -0.00650000
v 0.00769100 -0.00081300 -0.00650000
v 0.00000000 0.00000000 0.00650000
v 0.00000000 0.00000000 0.00650000
v 0.00000000 0.00000000 0.00650000
v -0.00006300 -0.00059700 0.00650000
v -0.00006300 -0.00059700 0.00650000
v -0.00006300 -0.00059700 0.00650000
v 0.00769100 -0.00081300 0.00650000
v 0.00769100 -0.00081300 0.00650000
v 0.00769100 -0.00081300 0.00650000
v 0.00769100 -0.00081300 0.00650000
v 0.00781000 -0.00142900 0.00650000
v 0.00781000 -0.00142900 0.00650000
v 0.00781000 -0.00142900 0.00650000
v 0.00781000 -0.00142900 0.00650000
v 0.19593700 0.01878900 0.00650000
v 0.19593700 0.01878900 0.00650000
v 0.19593700 0.01878900 0.00650000
v 0.19593700 0.01878900 0.00650000
v 0.19558400 0.01931900 0.00650000
v 0.19558400 0.01931900 0.00650000
v 0.19558400 0.01931900 0.00650000
v 0.19558400 0.01931900 0.00650000
v 0.18219900 0.00965000 0.00650000
v 0.18219900 0.00965000 0.00650000
v 0.18196500 0.01025900 0.00650000
v 0.18196500 0.01025900 0.00650000
v 0.00000000 0.00000000 -0.00225000
v 0.00000000 0.00000000 -0.00225000
v 0.00000000 0.00000000 -0.00225000
v 0.00000000 0.00000000 0.00225000
v 0.00000000 0.00000000 0.00225000
v 0.00000000 0.00000000 0.00225000
v 0.00111900 -0.00011800 0.00194900
v 0.00111900 -0.00011800 0.00194900
v 0.00111900 -0.00011800 0.00194900
v 0.00111900 -0.00011800 0.00194900
v 0.00193800 -0.00020500 0.00112500
v 0.00193800 -0.00020500 0.00112500
v 0.00193800 -0.00020500 0.00112500
v 0.00111900 -0.00011800 -0.00194900
v 0.00111900 -0.00011800 -0.00194900
v 0.00111900 -0.00011800 -0.00194900
v 0.00193800 -0.00020500 -0.00112500
v 0.00193800 -0.00020500 -0.00112500
v 0.00193800 -0.00020500 -0.00112500
v 0.00193800 -0.00020500 -0.00112500
v 0.00223700 -0.00023700 0.00000000
v 0.00223700 -0.00023700 0.00000000
v 0.00223700 -0.00023700 0.00000000
v -0.00006300 -0.00059700 0.00225000
v -0.00006300 -0.00059700 0.00225000
v -0.00006300 -0.00059700 0.00225000
v 0.00105600 -0.00071500 0.00194900
v 0.00105600 -0.00071500 0.00194900
v 0.00105600 -0.00071500 0.00194900
v -0.00006300 -0.00059700 -0.00225000
v -0.00006300 -0.00059700 -0.00225000
v -0.00006300 -0.00059700 -0.00225000
v 0.00105600 -0.00071500 -0.00194900
v 0.00105600 -0.00071500 -0.00194900
v 0.00105600 -0.00071500 -0.00194900
v 0.00105600 -0.00071500 -0.00194900
v 0.00187500 -0.00080200 0.00112500
v 0.00187500 -0.00080200 0.00112500
v 0.00187500 -0.00080200 0.00112500
v 0.00187500 -0.00080200 0.00112500
v 0.00217400 -0.00083300 0.00000000
v 0.00217400 -0.00083300 0.00000000
v 0.00217400 -0.00083300 0.00000000
v 0.00187500 -0.00080200 -0.00112500
v 0.00187500 -0.00080200 -0.00112500
v 0.00187500 -0.00080200 -0.00112500
v 0.18899500 0.01493600 0.00205600
v 0.18899500 0.01493600 0.00205600
v 0.18899500 0.01493600 0.00205600
v 0.18995300 0.01557300 0.00223700
v 0.18995300 0.01557300 0.00223700
v 0.18995300 0.01557300 0.00223700
v 0.18995300 0.01557300 0.00223700
v 0.19085800 0.01617500 0.00181900
v 0.19085800 0.01617500 0.00181900
v 0.19085800 0.01617500 0.00181900
v 0.19051700 0.01594800 -0.00205600
v 0.19051700 0.01594800 -0.00205600
v 0.19051700 0.01594800 -0.00205600
v 0.19051700 0.01594800 -0.00205600
v 0.18955900 0.01531100 -0.00223700
v 0.18955900 0.01531100 -0.00223700
v 0.18955900 0.01531100 -0.00223700
v 0.18955900 0.01531100 -0.00223700
v 0.18865400 0.01470900 -0.00181900
v 0.18865400 0.01470900 -0.00181900
v 0.18865400 0.01470900 -0.00181900
v 0.18865400 0.01470900 -0.00181900
v 0.18865400 0.01470900 -0.00181900
v 0.19127100 0.01645000 -0.00132400
v 0.19127100 0.01645000 -0.00132400
v 0.19127100 0.01645000 -0.00132400
v 0.19127100 0.01645000 -0.00132400
v 0.19161900 0.01668100 -0.00023700
v 0.19161900 0.01668100 -0.00023700
v 0.19161900 0.01668100 -0.00023700
v 0.19161900 0.01668100 -0.00023700
v 0.19161900 0.01668100 -0.00023700
v 0.19161900 0.01668100 -0.00023700
v 0.19146800 0.01658100 0.00091400
v 0.19146800 0.01658100 0.00091400
v 0.19146800 0.01658100 0.00091400
v 0.19146800 0.01658100 0.00091400
v 0.19146800 0.01658100 0.00091400
v 0.18824100 0.01443400 0.00132400
v 0.18824100 0.01443400 0.00132400
v 0.18824100 0.01443400 0.00132400
v 0.18824100 0.01443400 0.00132400
v 0.18789300 0.01420300 0.00023700
v 0.18789300 0.01420300 0.00023700
v 0.18789300 0.01420300 0.00023700
v 0.18804400 0.01430300 -0.00091400
v 0.18804400 0.01430300 -0.00091400
v 0.18804400 0.01430300 -0.00091400
v 0.18804400 0.01430300 -0.00091400
v 0.19121100 0.01564500 0.00181900
v 0.19121100 0.01564500 0.00181900
v 0.19121100 0.01564500 0.00181900
v 0.19121100 0.01564500 0.00181900
v 0.19182100 0.01605100 0.00091400
v 0.19182100 0.01605100 0.00091400
v 0.19182100 0.01605100 0.00091400
v 0.19182100 0.01605100 0.00091400
v 0.19197200 0.01615100 -0.00023700
v 0.19197200 0.01615100 -0.00023700
v 0.19197200 0.01615100 -0.00023700
v 0.19197200 0.01615100 -0.00023700
v 0.19197200 0.01615100 -0.00023700
v 0.19162400 0.01592000 -0.00132400
v 0.19162400 0.01592000 -0.00132400
v 0.19162400 0.01592000 -0.00132400
v 0.19162400 0.01592000 -0.00132400
v 0.19086900 0.01541800 -0.00205600
v 0.19086900 0.01541800 -0.00205600
v 0.19086900 0.01541800 -0.00205600
v 0.18991200 0.01478100 -0.00223700
v 0.18991200 0.01478100 -0.00223700
v 0.18991200 0.01478100 -0.00223700
v 0.18824600 0.01367300 0.00023700
v 0.18824600 0.01367300 0.00023700
v 0.18824600 0.01367300 0.00023700
v 0.18824600 0.01367300 0.00023700
v 0.18839700 0.01377300 -0.00091400
v 0.18839700 0.01377300 -0.00091400
v 0.18839700 0.01377300 -0.00091400
v 0.18839700 0.01377300 -0.00091400
v 0.18900700 0.01417900 -0.00181900
v 0.18900700 0.01417900 -0.00181900
v 0.18900700 0.01417900 -0.00181900
v 0.18859400 0.01390400 0.00132400
v 0.18859400 0.01390400 0.00132400
v 0.18859400 0.01390400 0.00132400
v 0.18934800 0.01440600 0.00205600
v 0.18934800 0.01440600 0.00205600
v 0.18934800 0.01440600 0.00205600
v 0.18934800 0.01440600 0.00205600
v 0.18934800 0.01440600 0.00205600
v 0.19030600 0.01504300 0.00223700
v 0.19030600 0.01504300 0.00223700
v 0.19030600 0.01504300 0.00223700
v 0.19030600 0.01504300 0.00223700
v 0.18129000 0.00921700 -0.00650000
v 0.18129000 0.00921700 -0.00650000
v 0.18129000 0.00921700 -0.00650000
v 0.18129000 0.00921700 0.00650000
v 0.18129000 0.00921700 0.00650000
v 0.18129000 0.00921700 0.00650000
v 0.04258300 -0.00228700 -0.00650000
v 0.04258300 -0.00228700 -0.00650000
v 0.04258300 -0.00228700 -0.00650000
v 0.04246500 -0.00167100 -0.00650000
v 0.04246500 -0.00167100 -0.00650000
v 0.04246500 -0.00167100 -0.00650000
v 0.04246500 -0.00167100 0.00650000
v 0.04246500 -0.00167100 0.00650000
v 0.04246500 -0.00167100 0.00650000
v 0.04258300 -0.00228700 0.00650000
v 0.04258300 -0.00228700 0.00650000
v 0.04258300 -0.00228700 0.00650000
v 0.07798100 -0.00166300 -0.00650000
v 0.07798100 -0.00166300 -0.00650000
v 0.07798100 -0.00166300 -0.00650000
v 0.07786200 -0.00104700 -0.00650000
v 0.07786200 -0.00104700 -0.00650000
v 0.07786200 -0.00104700 -0.00650000
v 0.07786200 -0.00104700 0.00650000
v 0.07786200 -0.00104700 0.00650000
v 0.07786200 -0.00104700 0.00650000
v 0.07798100 -0.00166300 0.00650000
v 0.07798100 -0.00166300 0.00650000
v 0.07798100 -0.00166300 0.00650000
v 0.11283200 0.00044200 -0.00650000
v 0.11283200 0.00044200 -0.00650000
v 0.11283200 0.00044200 -0.00650000
v 0.11271300 0.00105800 -0.00650000
v 0.11271300 0.00105800 -0.00650000
v 0.11271300 0.00105800 -0.00650000
v 0.11271300 0.00105800 0.00650000
v 0.11271300 0.00105800 0.00650000
v 0.11271300 0.00105800 0.00650000
v 0.11283200 0.00044200 0.00650000
v 0.11283200 0.00044200 0.00650000
v 0.11283200 0.00044200 0.00650000
v 0.14760500 0.00426200 -0.00650000
v 0.14760500 0.00426200 -0.00650000
v 0.14760500 0.00426200 -0.00650000
v 0.14748700 0.00487800 -0.00650000
v 0.14748700 0.00487800 -0.00650000
v 0.14748700 0.00487800 -0.00650000
v 0.14748700 0.00487800 0.00650000
v 0.14748700 0.00487800 0.00650000
v 0.14748700 0.00487800 0.00650000
v 0.14760500 0.00426200 0.00650000
v 0.14760500 0.00426200 0.00650000
v 0.14760500 0.00426200 0.00650000
v 0.17863600 0.00901800 -0.00650000
v 0.17863600 0.00901800 -0.00650000
v 0.17863600 0.00901800 -0.00650000
v 0.17851800 0.00963400 -0.00650000
v 0.17851800 0.00963400 -0.00650000
v 0.17851800 0.00963400 -0.00650000
v 0.17851800 0.00963400 0.00650000
v 0.17851800 0.00963400 0.00650000
v 0.17851800 0.00963400 0.00650000
v 0.17863600 0.00901800 0.00650000
v 0.17863600 0.00901800 0.00650000
v 0.17863600 0.00901800 0.00650000
vn 0.00000000 0.00000000 -1.00000000
vn 0.83260000 0.55390000 0.00000000
vn -0.55390000 0.83260000 -0.00000000
vn -0.55390000 0.83260000 -0.00010000
vn 0.00000000 0.00000000 -1.00000000
vn 0.83260000 0.55390000 0.00000000
vn 0.55400000 -0.83250000 0.00000000
vn 0.55390000 -0.83260000 -0.00000000
vn -0.55390000 0.83260000 -0.00010000
vn -0.55390000 0.83260000 -0.00000000
vn 0.00000000 0.00000000 -1.00000000
vn 0.55390000 -0.83260000 -0.00000000
vn 0.00000000 0.00000000 -1.00000000
vn -0.10520000 -0.99450000 0.00000000
vn 0.00000000 0.00000000 -1.00000000
vn -0.99450000 0.10520000 0.00000000
vn -0.99450000 0.10520000 0.00000000
vn 0.10520000 0.99450000 0.00000000
vn 0.00000000 0.00000000 -1.00000000
vn 0.00000000 0.00000000 1.00000000
vn -0.10520000 -0.99450000 0.00000000
vn 0.00000000 0.00000000 -1.00000000
vn 0.02470000 0.99970000 0.00000000
vn 0.00000000 0.00000000 -1.00000000
vn 0.00000000 0.00000000 1.00000000
vn 0.10520000 0.99450000 0.00000000
vn -0.02470000 -0.99970000 0.00000000
vn -0.99450000 0.10520000 0.00000000
vn 0.00000000 0.00000000 1.00000000
vn 0.10520000 0.99450000 0.00000000
vn -0.10520000 -0.99450000 0.00000000
vn -0.99450000 0.10520000 0.00000000
vn 0.00000000 0.00000000 1.00000000
vn 0.10520000 0.99450000 0.00000000
vn 0.00000000 0.00000000 1.00000000
vn -0.02470000 -0.99970000 0.00000000
vn 0.00000000 0.00000000 -1.00000000
vn -0.10520000 -0.99450000 0.00000000
vn 0.02470000 0.99970000 0.00000000
vn 0.00000000 0.00000000 -1.00000000
vn 0.00000000 0.00000000 1.00000000
vn 0.83260000 0.55390000 0.00000000
vn 0.55390000 -0.83260000 0.00010000
vn 0.55390000 -0.83260000 -0.00000000
vn 0.00000000 0.00000000 1.00000000
vn 0.83260000 0.55390000 0.00000000
vn 0.00000000 0.00000000 1.00000000
vn -0.55400000 0.83250000 0.00010000
vn -0.55390000 0.83260000 -0.00000000
vn 0.00000000 0.00000000 1.00000000
vn 0.55390000 -0.83260000 -0.00000000
vn -0.55390000 0.83260000 -0.00000000
vn 0.00000000 0.00000000 1.00000000
vn 0.10520000 0.99450000 0.00000000
vn -0.25740000 0.02720000 0.96590000
vn -0.99450000 0.10520000 0.00000000
vn 0.10520000 0.99450000 0.00000000
vn -0.99450000 0.10520000 0.00000000
vn -0.25740000 0.02720000 -0.96590000
vn -0.70320000 0.07430000 -0.70710000
vn 0.10520000 0.99450000 0.00000000
vn -0.25740000 0.02720000 -0.96590000
vn -0.70320000 0.07440000 -0.70710000
vn -0.70320000 0.07440000 -0.70710000
vn -0.96060000 0.10160000 -0.25880000
vn 0.10520000 0.99450000 0.00000000
vn -0.25740000 0.02720000 0.96590000
vn -0.70320000 0.07430000 0.70710000
vn 0.10520000 0.99450000 0.00000000
vn -0.70320000 0.07430000 0.70710000
vn -0.70320000 0.07440000 0.70710000
vn -0.96060000 0.10160000 0.25880000
vn 0.10520000 0.99450000 0.00000000
vn 0.10520000 0.99450000 0.00000000
vn -0.96060000 0.10160000 -0.25880000
vn -0.96060000 0.10160000 0.25880000
vn -0.99450000 0.10520000 0.00000000
vn -0.10520000 -0.99450000 0.00000000
vn -0.25740000 0.02720000 -0.96590000
vn -0.10520000 -0.99450000 0.00000000
vn -0.25740000 0.02720000 -0.96590000
vn -0.70320000 0.07430000 -0.70710000
vn -0.10520000 -0.99450000 0.00000000
vn -0.25740000 0.02720000 0.96590000
vn -0.99450000 0.10520000 0.00000000
vn -0.25740000 0.02720000 0.96590000
vn -0.70320000 0.07430000 0.70710000
vn -0.70320000 0.07440000 0.70710000
vn -0.10520000 -0.99450000 0.00000000
vn -0.96060000 0.10160000 -0.25880000
vn -0.70320000 0.07440000 -0.70710000
vn -0.70320000 0.07430000 -0.70710000
vn -0.10520000 -0.99450000 0.00000000
vn -0.96060000 0.10160000 0.25880000
vn -0.96060000 0.10160000 -0.25880000
vn -0.10520000 -0.99450000 0.00000000
vn -0.96060000 0.10160000 0.25880000
vn -0.10520000 -0.99450000 0.00000000
vn -0.70320000 0.07440000 0.70710000
vn 0.52350000 0.34820000 -0.77760000
vn -0.55390000 0.83260000 -0.00000000
vn 0.12970000 0.08630000 -0.98780000
vn -0.29890000 -0.19880000 -0.93330000
vn 0.12970000 0.08630000 -0.98780000
vn -0.55390000 0.83260000 -0.00000000
vn -0.29890000 -0.19890000 -0.93330000
vn -0.29890000 -0.19890000 -0.93330000
vn -0.64740000 -0.43070000 -0.62880000
vn -0.55390000 0.83260000 -0.00000000
vn -0.55390000 0.83260000 -0.00000000
vn -0.55390000 0.83260000 -0.00010000
vn -0.12970000 -0.08630000 0.98780000
vn -0.52350000 -0.34830000 0.77760000
vn -0.55390000 0.83260000 -0.00000000
vn -0.55390000 0.83260000 -0.00010000
vn -0.12970000 -0.08630000 0.98780000
vn 0.29890000 0.19890000 0.93330000
vn 0.29890000 0.19890000 0.93330000
vn 0.64740000 0.43070000 0.62880000
vn -0.55390000 0.83260000 -0.00010000
vn -0.55390000 0.83260000 -0.00000000
vn 0.64740000 0.43060000 0.62880000
vn -0.52350000 -0.34830000 0.77760000
vn -0.77710000 -0.51700000 0.35900000
vn -0.55390000 0.83260000 -0.00000000
vn -0.55390000 0.83260000 -0.00010000
vn -0.82240000 -0.54720000 -0.15570000
vn -0.77710000 -0.51700000 0.35900000
vn -0.55400000 0.83250000 0.00010000
vn -0.55390000 0.83260000 -0.00000000
vn -0.55390000 0.83260000 -0.00010000
vn -0.77700000 -0.51710000 0.35900000
vn -0.82240000 -0.54720000 -0.15570000
vn -0.55390000 0.83260000 -0.00000000
vn -0.82240000 -0.54710000 -0.15570000
vn -0.55400000 0.83250000 0.00010000
vn -0.64740000 -0.43070000 -0.62880000
vn 0.52350000 0.34820000 -0.77760000
vn -0.55390000 0.83260000 -0.00000000
vn 0.77710000 0.51700000 -0.35900000
vn 0.52350000 0.34830000 -0.77760000
vn -0.55390000 0.83260000 -0.00000000
vn 0.82240000 0.54720000 0.15570000
vn 0.77710000 0.51700000 -0.35900000
vn 0.82240000 0.54720000 0.15570000
vn 0.82250000 0.54710000 0.15570000
vn 0.64740000 0.43070000 0.62880000
vn -0.55390000 0.83260000 -0.00000000
vn -0.64740000 -0.43070000 -0.62880000
vn 0.55390000 -0.83260000 -0.00000000
vn -0.29890000 -0.19890000 -0.93330000
vn -0.29890000 -0.19880000 -0.93330000
vn -0.64740000 -0.43070000 -0.62880000
vn 0.55400000 -0.83250000 0.00000000
vn 0.55390000 -0.83260000 -0.00000000
vn -0.82240000 -0.54710000 -0.15570000
vn 0.55390000 -0.83260000 -0.00000000
vn -0.82240000 -0.54720000 -0.15570000
vn -0.77700000 -0.51710000 0.35900000
vn -0.82240000 -0.54710000 -0.15570000
vn 0.55400000 -0.83250000 0.00000000
vn -0.52350000 -0.34830000 0.77760000
vn -0.77700000 -0.51710000 0.35900000
vn 0.55390000 -0.83260000 -0.00000000
vn -0.77710000 -0.51700000 0.35900000
vn 0.55390000 -0.83260000 -0.00000000
vn -0.12970000 -0.08630000 0.98780000
vn -0.52350000 -0.34830000 0.77760000
vn 0.55390000 -0.83260000 -0.00000000
vn -0.12970000 -0.08630000 0.98780000
vn 0.29890000 0.19890000 0.93330000
vn 0.77710000 0.51700000 -0.35900000
vn 0.55390000 -0.83260000 -0.00000000
vn 0.82240000 0.54720000 0.15570000
vn 0.82250000 0.54710000 0.15570000
vn 0.64740000 0.43060000 0.62880000
vn 0.55390000 -0.83260000 -0.00000000
vn 0.82250000 0.54710000 0.15570000
vn 0.64740000 0.43070000 0.62880000
vn 0.64740000 0.43060000 0.62880000
vn 0.55390000 -0.83260000 -0.00000000
vn 0.29890000 0.19890000 0.93330000
vn 0.77710000 0.51700000 -0.35900000
vn 0.52350000 0.34830000 -0.77760000
vn 0.55390000 -0.83260000 -0.00000000
vn 0.55390000 -0.83260000 0.00010000
vn 0.55390000 -0.83260000 -0.00000000
vn 0.12970000 0.08630000 -0.98780000
vn 0.52350000 0.34820000 -0.77760000
vn 0.52350000 0.34830000 -0.77760000
vn 0.55390000 -0.83260000 0.00010000
vn 0.55390000 -0.83260000 -0.00000000
vn 0.12970000 0.08630000 -0.98780000
vn -0.29890000 -0.19880000 -0.93330000
vn 0.00000000 0.00000000 1.00000000
vn -0.14890000 -0.98890000 0.00000000
vn -0.07460000 0.99720000 0.00000000
vn 0.00000000 0.00000000 -1.00000000
vn -0.07460000 0.99720000 0.00000000
vn -0.14890000 -0.98890000 0.00000000
vn 0.02470000 0.99970000 0.00000000
vn -0.01760000 0.99980000 0.00000000
vn 0.00000000 0.00000000 1.00000000
vn 0.01760000 -0.99980000 0.00000000
vn -0.02470000 -0.99970000 0.00000000
vn 0.00000000 0.00000000 1.00000000
vn -0.02470000 -0.99970000 0.00000000
vn 0.00000000 0.00000000 -1.00000000
vn 0.01760000 -0.99980000 0.00000000
vn 0.00000000 0.00000000 -1.00000000
vn 0.02470000 0.99970000 0.00000000
vn -0.01760000 0.99980000 0.00000000
vn -0.01760000 0.99980000 0.00000000
vn 0.00000000 0.00000000 1.00000000
vn -0.06030000 0.99820000 0.00000000
vn 0.00000000 0.00000000 1.00000000
vn 0.01760000 -0.99980000 0.00000000
vn 0.06030000 -0.99820000 0.00000000
vn 0.00000000 0.00000000 -1.00000000
vn 0.01760000 -0.99980000 0.00000000
vn 0.06030000 -0.99820000 0.00000000
vn -0.01760000 0.99980000 0.00000000
vn -0.06030000 0.99820000 0.00000000
vn 0.00000000 0.00000000 -1.00000000
vn 0.00000000 0.00000000 1.00000000
vn -0.06030000 0.99820000 0.00000000
vn -0.10920000 0.99400000 0.00000000
vn 0.00000000 0.00000000 1.00000000
vn 0.06030000 -0.99820000 0.00000000
vn 0.10920000 -0.99400000 0.00000000
vn 0.06030000 -0.99820000 0.00000000
vn 0.10920000 -0.99400000 0.00000000
vn 0.00000000 0.00000000 -1.00000000
vn 0.00000000 0.00000000 -1.00000000
vn -0.10920000 0.99400000 0.00000000
vn -0.06030000 0.99820000 0.00000000
vn -0.15150000 0.98850000 0.00000000
vn 0.00000000 0.00000000 1.00000000
vn -0.10920000 0.99400000 0.00000000
vn 0.15150000 -0.98850000 0.00000000
vn 0.10920000 -0.99400000 0.00000000
vn 0.00000000 0.00000000 1.00000000
vn 0.00000000 0.00000000 -1.00000000
vn 0.15150000 -0.98850000 0.00000000
vn 0.10920000 -0.99400000 0.00000000
vn 0.00000000 0.00000000 -1.00000000
vn -0.10920000 0.99400000 0.00000000
vn -0.15150000 0.98850000 0.00000000
vn -0.15150000 0.98850000 0.00000000
vn -0.07460000 0.99720000 0.00000000
vn 0.00000000 0.00000000 1.00000000
vn -0.14890000 -0.98890000 0.00000000
vn 0.00000000 0.00000000 1.00000000
vn 0.15150000 -0.98850000 0.00000000
vn -0.14890000 -0.98890000 0.00000000
vn 0.00000000 0.00000000 -1.00000000
vn 0.15150000 -0.98850000 0.00000000
vn -0.07460000 0.99720000 0.00000000
vn -0.15150000 0.98850000 0.00000000
vn 0.00000000 0.00000000 -1.00000000
f 1//1 5//5 11//11
f 11//11 5//5 13//13
f 15//15 19//19 22//22
f 22//22 19//19 24//24
f 29//29 33//33 35//35
f 35//35 33//33 41//41
f 45//45 47//47 50//50
f 50//50 47//47 53//53
f 26//26 18//18 54//54
f 57//57 30//30 61//61
f 61//61 30//30 34//34
f 61//61 34//34 66//66
f 54//54 69//69 26//26
f 26//26 69//69 73//73
f 26//26 73//73 34//34
f 34//34 73//73 74//74
f 34//34 74//74 66//66
f 31//31 78//78 38//38
f 38//38 78//78 80//80
f 83//83 14//14 89//89
f 89//89 14//14 21//21
f 80//80 93//93 38//38
f 38//38 93//93 96//96
f 38//38 96//96 21//21
f 21//21 96//96 98//98
f 21//21 98//98 89//89
f 79//79 59//59 81//81
f 81//81 59//59 62//62
f 82//82 60//60 92//92
f 91//91 63//63 64//64
f 90//90 65//65 95//95
f 95//95 65//65 75//75
f 94//94 76//76 97//97
f 97//97 76//76 72//72
f 99//99 71//71 88//88
f 87//87 70//70 68//68
f 86//86 67//67 84//84
f 84//84 67//67 55//55
f 101//101 52//52 105//105
f 105//105 52//52 49//49
f 105//105 49//49 109//109
f 111//111 4//4 115//115
f 114//114 3//3 10//10
f 115//115 9//9 120//120
f 110//110 125//125 3//3
f 4//4 126//126 131//131
f 3//3 130//130 49//49
f 48//48 129//129 136//136
f 49//49 134//134 109//109
f 101//101 139//139 52//52
f 52//52 139//139 142//142
f 52//52 142//142 10//10
f 10//10 142//142 148//148
f 10//10 148//148 121//121
f 150//150 155//155 44//44
f 44//44 155//155 8//8
f 7//7 154//154 161//161
f 8//8 157//157 164//164
f 164//164 166//166 8//8
f 8//8 166//166 169//169
f 8//8 169//169 12//12
f 173//173 51//51 177//177
f 177//177 51//51 12//12
f 177//177 12//12 181//181
f 181//181 12//12 169//169
f 173//173 185//185 51//51
f 51//51 185//185 187//187
f 51//51 187//187 44//44
f 43//43 186//186 191//191
f 44//44 192//192 150//150
f 2//2 46//46 6//6
f 6//6 46//46 42//42
f 137//137 153//153 108//108
f 108//108 153//153 149//149
f 107//107 151//151 106//106
f 103//103 152//152 194//194
f 104//104 193//193 102//102
f 102//102 193//193 188//188
f 100//100 189//189 138//138
f 141//141 190//190 184//184
f 140//140 183//183 144//144
f 144//144 183//183 172//172
f 143//143 174//174 145//145
f 146//146 175//175 178//178
f 147//147 179//179 119//119
f 122//122 176//176 180//180
f 118//118 182//182 117//117
f 117//117 182//182 171//171
f 116//116 170//170 112//112
f 112//112 170//170 167//167
f 113//113 168//168 123//123
f 123//123 168//168 162//162
f 124//124 165//165 128//128
f 132//132 163//163 159//159
f 127//127 158//158 133//133
f 135//135 160//160 156//156
f 56//56 17//17 85//85
f 85//85 17//17 16//16
f 32//32 28//28 77//77
f 77//77 28//28 58//58
f 40//40 208//208 210//210
f 39//39 201//201 23//23
f 36//36 205//205 207//207
f 20//20 206//206 25//25
f 210//210 219//219 224//224
f 212//212 213//213 202//202
f 203//203 216//216 206//206
f 209//209 217//217 220//220
f 223//223 226//226 215//215
f 214//214 228//228 216//216
f 221//221 229//229 231//231
f 224//224 233//233 234//234
f 230//230 245//245 232//232
f 234//234 243//243 246//246
f 235//235 239//239 227//227
f 225//225 242//242 228//228
f 248//248 249//249 237//237
f 238//238 253//253 242//242
f 240//240 257//257 244//244
f 246//246 256//256 260//260
f 250//250 199//199 197//197
f 252//252 200//200 255//255
f 260//260 256//256 198//198
f 251//251 195//195 253//253
f 40//40 37//37 208//208
f 39//39 211//211 201//201
f 36//36 27//27 205//205
f 20//20 203//203 206//206
f 210//210 208//208 219//219
f 212//212 222//222 213//213
f 203//203 214//214 216//216
f 209//209 204//204 217//217
f 223//223 236//236 226//226
f 214//214 225//225 228//228
f 221//221 218//218 229//229
f 224//224 219//219 233//233
f 230//230 241//241 245//245
f 234//234 233//233 243//243
f 235//235 247//247 239//239
f 225//225 238//238 242//242
f 248//248 259//259 249//249
f 238//238 251//251 253//253
f 240//240 254//254 257//257
f 246//246 243//243 256//256
f 250//250 258//258 199//199
f 252//252 196//196 200//200
