mtllib material.mtl
usemtl material_0
v -0.14532000 -0.01460400 -0.00800900
v -0.14545500 -0.01460400 0.00499100
v -0.12170700 -0.01653100 -0.00776400
v -0.12184200 -0.01653100 0.00523600
v -0.09801600 -0.01670400 -0.00751800
v -0.09815100 -0.01670400 0.00548200
v -0.07437700 -0.01512500 -0.00727200
v -0.07451200 -0.01512500 0.00572700
v -0.05092000 -0.01180100 -0.00702900
v -0.05105500 -0.01180100 0.00597000
v -0.02777300 -0.00675000 -0.00678900
v -0.02790800 -0.00675000 0.00621100
v -0.00506300 -0.00000000 -0.00655300
v -0.00519800 -0.00000000 0.00644600
v 0.00546300 -0.00000000 -0.00033200
v 0.00220000 -0.00000000 0.00002300
v 0.00546300 -0.00000000 0.00044700
v 0.00546300 -0.00000000 0.00269800
v 0.00546300 0.00000000 0.00188200
v 0.00189400 0.00000000 0.00112000
v 0.00108000 -0.00000000 0.00191700
v -0.00112000 -0.00000000 0.00189400
v -0.00191700 0.00000000 0.00108000
v -0.00220000 -0.00000000 -0.00002300
v -0.00189400 0.00000000 -0.00112000
v 0.00546300 -0.00000000 0.00655700
v -0.00002300 0.00000000 0.00220000
v 0.00546300 -0.00000000 -0.00074700
v 0.00546300 0.00000000 -0.00176100
v 0.00191700 0.00000000 -0.00108000
v -0.00108000 -0.00000000 -0.00191700
v 0.00002300 0.00000000 -0.00220000
v 0.00546300 0.00000000 -0.00296200
v 0.00546300 -0.00000000 -0.00644400
v 0.00112000 -0.00000000 -0.00189400
v 0.00546300 -0.00000000 -0.00257500
v 0.00546300 0.00000000 0.00144600
v 0.00546400 -0.00060000 0.00188300
v 0.00189400 -0.00060000 0.00112000
v 0.00220000 -0.00060000 0.00002300
v 0.00546400 -0.00060000 0.00086500
v -0.00108000 -0.00060000 -0.00191700
v -0.00189400 -0.00060000 -0.00112000
v -0.00496500 -0.00060000 -0.00655200
v -0.00220000 -0.00060000 -0.00002300
v -0.00510000 -0.00060000 0.00644700
v -0.00191700 -0.00060000 0.00108000
v -0.00112000 -0.00060000 0.00189400
v -0.00002300 -0.00060000 0.00220000
v 0.00546400 -0.00060000 0.00308500
v 0.00546400 -0.00060000 0.00655700
v 0.00108000 -0.00060000 0.00191700
v 0.00546400 -0.00060000 0.00269800
v 0.00546400 -0.00060000 0.00044700
v 0.00546400 -0.00060000 -0.00033200
v 0.00191700 -0.00060000 -0.00108000
v 0.00546400 -0.00060000 -0.00133100
v 0.00546400 -0.00060000 -0.00176200
v 0.00112000 -0.00060000 -0.00189400
v 0.00546400 -0.00060000 -0.00257500
v 0.00546400 -0.00060000 -0.00644400
v 0.00002300 -0.00060000 -0.00220000
v -0.02784000 -0.00735200 0.00621100
v -0.02770500 -0.00735200 -0.00678800
v -0.05101800 -0.01240400 0.00597100
v -0.05088300 -0.01240400 -0.00702800
v -0.07450600 -0.01572800 0.00572700
v -0.07437100 -0.01572800 -0.00727200
v -0.09817500 -0.01730500 0.00548100
v -0.09804000 -0.01730500 -0.00751800
v -0.12189600 -0.01712900 0.00523500
v -0.12176200 -0.01712900 -0.00776400
v -0.14554000 -0.01519800 0.00499000
v -0.14540500 -0.01519800 -0.00801000
v 0.00546400 -0.00018800 -0.00644400
v 0.00546400 -0.00041100 0.00655700
vn 0.09000000 0.69370000 -0.71460000
vn 0.07510000 0.69370000 0.71640000
vn 0.03840000 0.69790000 -0.71520000
vn 0.02360000 0.69790000 0.71580000
vn -0.01330000 0.69830000 -0.71570000
vn -0.02820000 0.69830000 0.71530000
vn -0.06490000 0.69480000 -0.71630000
vn -0.07980000 0.69480000 0.71470000
vn -0.11610000 0.68760000 -0.71680000
vn -0.13100000 0.68760000 0.71420000
vn -0.16670000 0.67650000 -0.71730000
vn -0.18150000 0.67650000 0.71370000
vn -0.09900000 0.72910000 -0.67720000
vn -0.11310000 0.72910000 0.67500000
vn 0.70710000 0.70710000 -0.00000000
vn -0.63770000 0.77030000 -0.00660000
vn 0.70650000 0.70770000 -0.00000000
vn 0.70650000 0.70770000 -0.00000000
vn 0.70710000 0.70710000 -0.00000000
vn -0.54890000 0.77030000 -0.32460000
vn -0.31310000 0.77030000 -0.55560000
vn 0.32460000 0.77030000 -0.54890000
vn 0.55560000 0.77030000 -0.31310000
vn 0.63770000 0.77030000 0.00660000
vn 0.54890000 0.77030000 0.32460000
vn 0.57410000 0.57730000 0.58070000
vn 0.00660000 0.77030000 -0.63770000
vn 0.70710000 0.70710000 -0.00000000
vn 0.70710000 0.70710000 -0.00000000
vn -0.55560000 0.77030000 0.31310000
vn 0.31310000 0.77030000 0.55560000
vn -0.00660000 0.77030000 0.63770000
vn 0.70650000 0.70770000 -0.00000000
vn 0.57950000 0.57830000 -0.57420000
vn -0.32460000 0.77030000 0.54890000
vn 0.70650000 0.70770000 -0.00000000
vn 0.70710000 0.70710000 -0.00000000
vn 0.70710000 -0.70710000 -0.00000000
vn -0.54890000 -0.77030000 -0.32460000
vn -0.63770000 -0.77030000 -0.00660000
vn 0.70770000 -0.70650000 -0.00000000
vn 0.31310000 -0.77030000 0.55560000
vn 0.54900000 -0.77030000 0.32460000
vn 0.10430000 -0.66460000 -0.73990000
vn 0.63770000 -0.77030000 0.00660000
vn 0.08890000 -0.66460000 0.74190000
vn 0.55560000 -0.77030000 -0.31310000
vn 0.32460000 -0.77030000 -0.54890000
vn 0.00660000 -0.77030000 -0.63770000
vn 0.70710000 -0.70710000 -0.00000000
vn 0.57510000 -0.57640000 0.58050000
vn -0.31310000 -0.77030000 -0.55560000
vn 0.70770000 -0.70650000 -0.00000000
vn 0.70710000 -0.70710000 -0.00000000
vn 0.70770000 -0.70650000 -0.00000000
vn -0.55560000 -0.77030000 0.31310000
vn 0.70710000 -0.70710000 -0.00000000
vn 0.70710000 -0.70710000 -0.00000000
vn -0.32460000 -0.77030000 0.54900000
vn 0.70770000 -0.70650000 -0.00000000
vn 0.58060000 -0.57750000 -0.57400000
vn -0.00660000 -0.77030000 0.63770000
vn 0.17080000 -0.69270000 0.70070000
vn 0.18530000 -0.69270000 -0.69700000
vn 0.11910000 -0.70400000 0.70010000
vn 0.13360000 -0.70400000 -0.69750000
vn 0.06670000 -0.71140000 0.69960000
vn 0.08120000 -0.71140000 -0.69810000
vn 0.01390000 -0.71490000 0.69910000
vn 0.02840000 -0.71490000 -0.69860000
vn -0.03900000 -0.71450000 0.69850000
vn -0.02450000 -0.71450000 -0.69920000
vn -0.09180000 -0.71020000 0.69800000
vn -0.07730000 -0.71020000 -0.69970000
vn 0.71080000 0.00120000 -0.70340000
vn 0.70340000 0.00120000 0.71080000
f 1//1 2//2 3//3
f 3//3 2//2 4//4
f 3//3 4//4 5//5
f 5//5 4//4 6//6
f 5//5 6//6 7//7
f 7//7 6//6 8//8
f 7//7 8//8 9//9
f 9//9 8//8 10//10
f 9//9 10//10 11//11
f 11//11 10//10 12//12
f 11//11 12//12 13//13
f 13//13 12//12 14//14
f 15//15 16//16 17//17
f 18//18 19//19 20//20
f 18//18 20//20 21//21
f 22//22 23//23 14//14
f 14//14 23//23 24//24
f 14//14 24//24 13//13
f 13//13 24//24 25//25
f 26//26 18//18 21//21
f 26//26 21//21 14//14
f 14//14 21//21 27//27
f 14//14 27//27 22//22
f 28//28 29//29 30//30
f 28//28 30//30 16//16
f 16//16 15//15 28//28
f 25//25 31//31 13//13
f 13//13 31//31 32//32
f 13//13 32//32 33//33
f 13//13 33//33 34//34
f 32//32 35//35 36//36
f 32//32 36//36 33//33
f 35//35 30//30 29//29
f 35//35 29//29 36//36
f 37//37 20//20 19//19
f 37//37 17//17 16//16
f 37//37 16//16 20//20
f 38//38 39//39 40//40
f 38//38 40//40 41//41
f 42//42 43//43 44//44
f 44//44 43//43 45//45
f 44//44 45//45 46//46
f 46//46 45//45 47//47
f 47//47 48//48 46//46
f 46//46 48//48 49//49
f 49//49 50//50 51//51
f 49//49 51//51 46//46
f 52//52 53//53 50//50
f 52//52 50//50 49//49
f 39//39 38//38 53//53
f 39//39 53//53 52//52
f 40//40 54//54 41//41
f 55//55 54//54 40//40
f 55//55 40//40 56//56
f 55//55 56//56 57//57
f 58//58 57//57 56//56
f 58//58 56//56 59//59
f 58//58 59//59 60//60
f 60//60 59//59 44//44
f 60//60 44//44 61//61
f 44//44 59//59 62//62
f 44//44 62//62 42//42
f 44//44 46//46 63//63
f 44//44 63//63 64//64
f 64//64 63//63 65//65
f 64//64 65//65 66//66
f 66//66 65//65 67//67
f 66//66 67//67 68//68
f 68//68 67//67 69//69
f 68//68 69//69 70//70
f 70//70 69//69 71//71
f 70//70 71//71 72//72
f 72//72 71//71 73//73
f 72//72 73//73 74//74
f 34//34 75//75 13//13
f 61//61 44//44 13//13
f 61//61 13//13 75//75
f 13//13 44//44 11//11
f 11//11 44//44 64//64
f 11//11 64//64 9//9
f 9//9 64//64 66//66
f 9//9 66//66 7//7
f 7//7 66//66 68//68
f 7//7 68//68 5//5
f 5//5 68//68 70//70
f 5//5 70//70 3//3
f 3//3 70//70 72//72
f 3//3 72//72 1//1
f 1//1 72//72 74//74
f 2//2 73//73 4//4
f 4//4 73//73 71//71
f 4//4 71//71 6//6
f 6//6 71//71 69//69
f 6//6 69//69 8//8
f 8//8 69//69 67//67
f 8//8 67//67 10//10
f 10//10 67//67 65//65
f 10//10 65//65 12//12
f 12//12 65//65 63//63
f 12//12 63//63 14//14
f 14//14 63//63 46//46
f 14//14 46//46 76//76
f 14//14 76//76 26//26
f 76//76 46//46 51//51
f 24//24 45//45 25//25
f 25//25 45//45 43//43
f 25//25 43//43 31//31
f 31//31 43//43 42//42
f 31//31 42//42 32//32
f 32//32 42//42 62//62
f 32//32 62//62 35//35
f 35//35 62//62 59//59
f 35//35 59//59 30//30
f 30//30 59//59 56//56
f 30//30 56//56 16//16
f 16//16 56//56 40//40
f 16//16 40//40 20//20
f 20//20 40//40 39//39
f 20//20 39//39 21//21
f 21//21 39//39 52//52
f 21//21 52//52 27//27
f 27//27 52//52 49//49
f 27//27 49//49 22//22
f 22//22 49//49 48//48
f 22//22 48//48 23//23
f 23//23 48//48 47//47
f 23//23 47//47 24//24
f 24//24 47//47 45//45
f 75//75 34//34 33//33
f 36//36 29//29 28//28
f 75//75 33//33 36//36
f 60//60 61//61 75//75
f 57//57 58//58 60//60
f 41//41 54//54 55//55
f 55//55 57//57 60//60
f 60//60 75//75 36//36
f 36//36 28//28 15//15
f 17//17 37//37 19//19
f 36//36 15//15 17//17
f 55//55 60//60 36//36
f 53//53 38//38 41//41
f 41//41 55//55 36//36
f 17//17 19//19 18//18
f 41//41 36//36 17//17
f 51//51 50//50 53//53
f 53//53 41//41 17//17
f 18//18 26//26 76//76
f 53//53 17//17 18//18
f 76//76 51//51 53//53
f 18//18 76//76 53//53

