mtllib material_0.mtl
usemtl material_0
v 0.01500000 0.01480000 0.01375000
v 0.01500000 0.01480000 0.01375000
v 0.01500000 0.01480000 0.01375000
v 0.01350000 0.01349000 0.01375000
v 0.01350000 0.01349000 0.01375000
v 0.01350000 0.01349000 0.01375000
v 0.01500000 -0.01480000 0.01375000
v 0.01500000 -0.01480000 0.01375000
v 0.01350000 -0.01349000 0.01375000
v 0.01350000 -0.01349000 0.01375000
v 0.01498500 -0.01487600 0.01375000
v 0.01498500 -0.01487600 0.01375000
v 0.01498500 -0.01487600 0.01375000
v 0.01349900 -0.01349500 0.01375000
v 0.01349900 -0.01349500 0.01375000
v 0.01349900 -0.01349500 0.01375000
v 0.01494100 -0.01494100 0.01375000
v 0.01494100 -0.01494100 0.01375000
v 0.01487600 -0.01498500 0.01375000
v 0.01487600 -0.01498500 0.01375000
v 0.01498500 0.01487600 0.01375000
v 0.01498500 0.01487600 0.01375000
v 0.01349500 0.01349900 0.01375000
v 0.01349500 0.01349900 0.01375000
v 0.01349500 0.01349900 0.01375000
v 0.01349900 0.01349500 0.01375000
v 0.01349900 0.01349500 0.01375000
v 0.01349900 0.01349500 0.01375000
v 0.01494100 0.01494100 0.01375000
v 0.01494100 0.01494100 0.01375000
v 0.01487600 0.01498500 0.01375000
v 0.01487600 0.01498500 0.01375000
v 0.01480000 0.01500000 0.01375000
v 0.01480000 0.01500000 0.01375000
v 0.01349000 -0.01350000 0.01375000
v 0.01349000 -0.01350000 0.01375000
v 0.01349000 -0.01350000 0.01375000
v -0.01480000 -0.01500000 0.01375000
v -0.01480000 -0.01500000 0.01375000
v 0.01480000 -0.01500000 0.01375000
v 0.01480000 -0.01500000 0.01375000
v 0.01349500 -0.01349900 0.01375000
v 0.01349500 -0.01349900 0.01375000
v 0.01349500 -0.01349900 0.01375000
v -0.01349000 -0.01350000 0.01375000
v -0.01349000 -0.01350000 0.01375000
v -0.01349500 -0.01349900 0.01375000
v -0.01349500 -0.01349900 0.01375000
v -0.01349500 -0.01349900 0.01375000
v -0.01487600 -0.01498500 0.01375000
v -0.01487600 -0.01498500 0.01375000
v -0.01349900 -0.01349500 0.01375000
v -0.01349900 -0.01349500 0.01375000
v -0.01349900 -0.01349500 0.01375000
v -0.01494100 -0.01494100 0.01375000
v -0.01494100 -0.01494100 0.01375000
v -0.01498500 -0.01487600 0.01375000
v -0.01498500 -0.01487600 0.01375000
v -0.01500000 -0.01480000 0.01375000
v -0.01500000 -0.01480000 0.01375000
v -0.01500000 -0.01480000 0.01375000
v -0.01350000 -0.01349000 0.01375000
v -0.01350000 -0.01349000 0.01375000
v -0.01350000 -0.01349000 0.01375000
v -0.01500000 0.01480000 0.01375000
v -0.01500000 0.01480000 0.01375000
v -0.01350000 0.01349000 0.01375000
v -0.01350000 0.01349000 0.01375000
v -0.01349900 0.01349400 0.01375000
v -0.01349900 0.01349400 0.01375000
v -0.01498500 0.01487600 0.01375000
v -0.01498500 0.01487600 0.01375000
v -0.01498500 0.01487600 0.01375000
v -0.01349700 0.01349700 0.01375000
v -0.01349700 0.01349700 0.01375000
v -0.01349700 0.01349700 0.01375000
v -0.01494100 0.01494100 0.01375000
v -0.01494100 0.01494100 0.01375000
v -0.01487600 0.01498500 0.01375000
v -0.01487600 0.01498500 0.01375000
v -0.01349400 0.01349900 0.01375000
v -0.01349400 0.01349900 0.01375000
v -0.01349400 0.01349900 0.01375000
v -0.01480000 0.01500000 0.01375000
v -0.01480000 0.01500000 0.01375000
v -0.01349000 0.01350000 0.01375000
v -0.01349000 0.01350000 0.01375000
v 0.01349000 0.01350000 0.01375000
v 0.01349000 0.01350000 0.01375000
v -0.01350000 -0.01349000 -0.19975000
v -0.01350000 -0.01349000 -0.19975000
v -0.01350000 -0.01349000 -0.19975000
v -0.01350000 -0.01349000 -0.19975000
v -0.01349900 -0.01349500 -0.19975000
v -0.01349900 -0.01349500 -0.19975000
v -0.01349900 -0.01349500 -0.19975000
v -0.01349900 -0.01349500 -0.19975000
v -0.01349900 -0.01349500 -0.19975000
v -0.01349900 -0.01349500 -0.19975000
v -0.01349900 -0.01349500 -0.19975000
v -0.01500000 -0.01480000 -0.19975000
v -0.01500000 -0.01480000 -0.19975000
v -0.01500000 -0.01480000 -0.19975000
v -0.01500000 -0.01480000 -0.19975000
v 0.01500000 0.01480000 -0.19975000
v 0.01500000 0.01480000 -0.19975000
v 0.01500000 0.01480000 -0.19975000
v 0.01500000 0.01480000 -0.19975000
v 0.01349900 0.01349500 -0.19975000
v 0.01349900 0.01349500 -0.19975000
v 0.01349900 0.01349500 -0.19975000
v 0.01349900 0.01349500 -0.19975000
v 0.01349900 0.01349500 -0.19975000
v 0.01349900 0.01349500 -0.19975000
v 0.01498500 0.01487600 -0.19975000
v 0.01498500 0.01487600 -0.19975000
v 0.01498500 0.01487600 -0.19975000
v 0.01498500 0.01487600 -0.19975000
v 0.01498500 0.01487600 -0.19975000
v 0.01349500 0.01349900 -0.19975000
v 0.01349500 0.01349900 -0.19975000
v 0.01349500 0.01349900 -0.19975000
v 0.01349500 0.01349900 -0.19975000
v 0.01349500 0.01349900 -0.19975000
v 0.01349500 0.01349900 -0.19975000
v -0.01350000 0.01349000 -0.19975000
v -0.01350000 0.01349000 -0.19975000
v -0.01350000 0.01349000 -0.19975000
v -0.01350000 0.01349000 -0.19975000
v -0.01500000 0.01480000 -0.19975000
v -0.01500000 0.01480000 -0.19975000
v -0.01500000 0.01480000 -0.19975000
v -0.01500000 0.01480000 -0.19975000
v -0.01500000 0.01480000 -0.19975000
v -0.01500000 0.01480000 -0.19975000
v -0.01349900 0.01349400 -0.19975000
v -0.01349900 0.01349400 -0.19975000
v -0.01349900 0.01349400 -0.19975000
v -0.01349900 0.01349400 -0.19975000
v -0.01349900 0.01349400 -0.19975000
v -0.01349900 0.01349400 -0.19975000
v -0.01498500 0.01487600 -0.19975000
v -0.01498500 0.01487600 -0.19975000
v -0.01498500 0.01487600 -0.19975000
v -0.01498500 0.01487600 -0.19975000
v -0.01349700 0.01349700 -0.19975000
v -0.01349700 0.01349700 -0.19975000
v -0.01349700 0.01349700 -0.19975000
v -0.01349700 0.01349700 -0.19975000
v -0.01349700 0.01349700 -0.19975000
v 0.01480000 -0.01500000 -0.19975000
v 0.01480000 -0.01500000 -0.19975000
v 0.01480000 -0.01500000 -0.19975000
v 0.01480000 -0.01500000 -0.19975000
v 0.01349500 -0.01349900 -0.19975000
v 0.01349500 -0.01349900 -0.19975000
v 0.01349500 -0.01349900 -0.19975000
v 0.01349500 -0.01349900 -0.19975000
v 0.01349500 -0.01349900 -0.19975000
v 0.01349500 -0.01349900 -0.19975000
v 0.01487600 -0.01498500 -0.19975000
v 0.01487600 -0.01498500 -0.19975000
v 0.01487600 -0.01498500 -0.19975000
v 0.01487600 -0.01498500 -0.19975000
v 0.01487600 -0.01498500 -0.19975000
v 0.01349900 -0.01349500 -0.19975000
v 0.01349900 -0.01349500 -0.19975000
v 0.01349900 -0.01349500 -0.19975000
v 0.01349900 -0.01349500 -0.19975000
v 0.01349900 -0.01349500 -0.19975000
v 0.01349900 -0.01349500 -0.19975000
v 0.01349900 -0.01349500 -0.19975000
v 0.01494100 0.01494100 -0.19975000
v 0.01494100 0.01494100 -0.19975000
v 0.01494100 0.01494100 -0.19975000
v 0.01487600 0.01498500 -0.19975000
v 0.01487600 0.01498500 -0.19975000
v 0.01487600 0.01498500 -0.19975000
v 0.01480000 0.01500000 -0.19975000
v 0.01480000 0.01500000 -0.19975000
v 0.01480000 0.01500000 -0.19975000
v 0.01480000 0.01500000 -0.19975000
v 0.01349000 0.01350000 -0.19975000
v 0.01349000 0.01350000 -0.19975000
v 0.01349000 0.01350000 -0.19975000
v 0.01349000 0.01350000 -0.19975000
v 0.01349000 0.01350000 -0.19975000
v -0.01480000 0.01500000 -0.19975000
v -0.01480000 0.01500000 -0.19975000
v -0.01480000 0.01500000 -0.19975000
v -0.01480000 0.01500000 -0.19975000
v -0.01349000 0.01350000 -0.19975000
v -0.01349000 0.01350000 -0.19975000
v -0.01349000 0.01350000 -0.19975000
v -0.01349000 0.01350000 -0.19975000
v -0.01349400 0.01349900 -0.19975000
v -0.01349400 0.01349900 -0.19975000
v -0.01349400 0.01349900 -0.19975000
v -0.01349400 0.01349900 -0.19975000
v -0.01349400 0.01349900 -0.19975000
v -0.01487600 0.01498500 -0.19975000
v -0.01487600 0.01498500 -0.19975000
v -0.01487600 0.01498500 -0.19975000
v -0.01487600 0.01498500 -0.19975000
v -0.01494100 0.01494100 -0.19975000
v -0.01494100 0.01494100 -0.19975000
v -0.01494100 0.01494100 -0.19975000
v 0.01494100 -0.01494100 -0.19975000
v 0.01494100 -0.01494100 -0.19975000
v 0.01494100 -0.01494100 -0.19975000
v 0.01498500 -0.01487600 -0.19975000
v 0.01498500 -0.01487600 -0.19975000
v 0.01498500 -0.01487600 -0.19975000
v 0.01498500 -0.01487600 -0.19975000
v 0.01500000 -0.01480000 -0.19975000
v 0.01500000 -0.01480000 -0.19975000
v 0.01500000 -0.01480000 -0.19975000
v 0.01500000 -0.01480000 -0.19975000
v 0.01500000 -0.01480000 -0.19975000
v 0.01350000 -0.01349000 -0.19975000
v 0.01350000 -0.01349000 -0.19975000
v 0.01350000 -0.01349000 -0.19975000
v 0.01350000 -0.01349000 -0.19975000
v 0.01350000 -0.01349000 -0.19975000
v 0.01350000 0.01349000 -0.19975000
v 0.01350000 0.01349000 -0.19975000
v 0.01350000 0.01349000 -0.19975000
v 0.01350000 0.01349000 -0.19975000
v -0.01498500 -0.01487600 -0.19975000
v -0.01498500 -0.01487600 -0.19975000
v -0.01498500 -0.01487600 -0.19975000
v -0.01498500 -0.01487600 -0.19975000
v -0.01494100 -0.01494100 -0.19975000
v -0.01494100 -0.01494100 -0.19975000
v -0.01494100 -0.01494100 -0.19975000
v -0.01494100 -0.01494100 -0.19975000
v -0.01487600 -0.01498500 -0.19975000
v -0.01487600 -0.01498500 -0.19975000
v -0.01487600 -0.01498500 -0.19975000
v -0.01487600 -0.01498500 -0.19975000
v -0.01487600 -0.01498500 -0.19975000
v -0.01349500 -0.01349900 -0.19975000
v -0.01349500 -0.01349900 -0.19975000
v -0.01349500 -0.01349900 -0.19975000
v -0.01349500 -0.01349900 -0.19975000
v -0.01349500 -0.01349900 -0.19975000
v -0.01349500 -0.01349900 -0.19975000
v -0.01480000 -0.01500000 -0.19975000
v -0.01480000 -0.01500000 -0.19975000
v -0.01480000 -0.01500000 -0.19975000
v -0.01480000 -0.01500000 -0.19975000
v -0.01349000 -0.01350000 -0.19975000
v -0.01349000 -0.01350000 -0.19975000
v -0.01349000 -0.01350000 -0.19975000
v -0.01349000 -0.01350000 -0.19975000
v -0.01349000 -0.01350000 -0.19975000
v 0.01349000 -0.01350000 -0.19975000
v 0.01349000 -0.01350000 -0.19975000
v 0.01349000 -0.01350000 -0.19975000
v 0.01349000 -0.01350000 -0.19975000
vn 0.98070000 0.19550000 0.00000000
vn 0.98070000 0.19560000 0.00000000
vn 1.00000000 0.00000000 0.00000000
vn -1.00000000 0.00000000 0.00000000
vn -0.96730000 -0.25360000 0.00000000
vn -0.96740000 -0.25320000 0.00000000
vn 0.98070000 -0.19560000 0.00000000
vn 1.00000000 0.00000000 0.00000000
vn -1.00000000 0.00000000 0.00000000
vn -0.96730000 0.25360000 0.00000000
vn 0.98070000 -0.19560000 0.00000000
vn 0.83170000 -0.55520000 0.00000000
vn 0.98070000 -0.19550000 0.00000000
vn -0.96740000 0.25320000 0.00000000
vn -0.70720000 0.70700000 0.00000000
vn -0.96730000 0.25360000 0.00000000
vn 0.83170000 -0.55520000 0.00000000
vn 0.55520000 -0.83170000 0.00000000
vn 0.55520000 -0.83170000 0.00000000
vn 0.19560000 -0.98070000 0.00000000
vn 0.83170000 0.55520000 0.00000000
vn 0.98070000 0.19550000 0.00000000
vn -0.25340000 -0.96740000 0.00000000
vn -0.25330000 -0.96740000 0.00000000
vn -0.70700000 -0.70720000 0.00000000
vn -0.70720000 -0.70700000 0.00000000
vn -0.70700000 -0.70720000 0.00000000
vn -0.96740000 -0.25320000 0.00000000
vn 0.55520000 0.83170000 0.00000000
vn 0.83170000 0.55520000 0.00000000
vn 0.19560000 0.98070000 0.00000000
vn 0.55520000 0.83170000 0.00000000
vn 0.19560000 0.98070000 0.00000000
vn 0.00000000 1.00000000 0.00000000
vn -0.25330000 0.96740000 0.00000000
vn -0.25340000 0.96740000 0.00000000
vn 0.00000000 1.00000000 0.00000000
vn -0.19560000 -0.98070000 0.00000000
vn 0.00000000 -1.00000000 0.00000000
vn 0.19560000 -0.98070000 0.00000000
vn 0.00000000 -1.00000000 0.00000000
vn -0.70700000 0.70720000 0.00000000
vn -0.25330000 0.96740000 0.00000000
vn -0.70720000 0.70700000 0.00000000
vn 0.25340000 0.96740000 0.00000000
vn 0.00000000 1.00000000 0.00000000
vn 0.70700000 0.70720000 0.00000000
vn 0.25340000 0.96740000 0.00000000
vn 0.25330000 0.96740000 0.00000000
vn -0.19560000 -0.98070000 0.00000000
vn -0.55520000 -0.83170000 0.00000000
vn 0.70720000 0.70700000 0.00000000
vn 0.96740000 0.25320000 0.00000000
vn 0.70700000 0.70720000 0.00000000
vn -0.83170000 -0.55520000 0.00000000
vn -0.55520000 -0.83170000 0.00000000
vn -0.83170000 -0.55520000 0.00000000
vn -0.98070000 -0.19550000 0.00000000
vn -1.00000000 0.00000000 0.00000000
vn -0.98070000 -0.19560000 0.00000000
vn -0.98070000 -0.19550000 0.00000000
vn 0.96730000 0.25360000 0.00000000
vn 0.96740000 0.25320000 0.00000000
vn 1.00000000 0.00000000 0.00000000
vn -1.00000000 0.00000000 0.00000000
vn -0.98070000 0.19560000 0.00000000
vn 0.98020000 -0.19810000 0.00000000
vn 1.00000000 0.00000000 0.00000000
vn 0.83650000 -0.54790000 0.00000000
vn 0.98020000 -0.19810000 0.00000000
vn -0.98070000 0.19550000 0.00000000
vn -0.83170000 0.55520000 0.00000000
vn -0.98070000 0.19560000 0.00000000
vn 0.83600000 -0.54870000 0.00000000
vn 0.54850000 -0.83620000 0.00000000
vn 0.83650000 -0.54790000 0.00000000
vn -0.83170000 0.55520000 0.00000000
vn -0.55520000 0.83170000 0.00000000
vn -0.19560000 0.98070000 0.00000000
vn -0.55520000 0.83170000 0.00000000
vn 0.54850000 -0.83620000 0.00000000
vn 0.19790000 -0.98020000 0.00000000
vn 0.54820000 -0.83630000 0.00000000
vn 0.00000000 1.00000000 0.00000000
vn -0.19560000 0.98070000 0.00000000
vn 0.19790000 -0.98020000 0.00000000
vn 0.00000000 -1.00000000 0.00000000
vn -0.25340000 -0.96740000 0.00000000
vn 0.00000000 -1.00000000 0.00000000
vn 0.96730000 0.25360000 0.00000000
vn 1.00000000 0.00000000 0.00000000
vn -0.00630000 0.00000000 -1.00000000
vn 0.00000000 0.00000000 -1.00000000
vn 0.96740000 0.25320000 0.00000000
vn 0.70720000 0.70700000 0.00000000
vn -0.00230000 0.00000000 -1.00000000
vn 0.00000000 0.00000000 -1.00000000
vn 0.00040000 0.00000000 -1.00000000
vn -0.00630000 0.00000000 -1.00000000
vn 0.96730000 0.25360000 0.00000000
vn -1.00000000 0.00000000 0.00000000
vn -0.98070000 -0.19560000 0.00000000
vn 0.00000000 0.00000000 -1.00000000
vn -0.00630000 0.00000000 -1.00000000
vn 0.00410000 0.00000000 -1.00000000
vn 0.98070000 0.19560000 0.00000000
vn 1.00000000 0.00000000 0.00000000
vn 0.00000000 0.00000000 -1.00000000
vn 0.00410000 0.00000000 -1.00000000
vn 0.00000000 0.00000000 -1.00000000
vn -0.00320000 0.00000000 -1.00000000
vn -0.70720000 -0.70700000 0.00000000
vn -0.96740000 -0.25320000 0.00000000
vn -0.96730000 -0.25360000 0.00000000
vn -0.00320000 0.00000000 -1.00000000
vn 0.83170000 0.55520000 0.00000000
vn 0.98070000 0.19550000 0.00000000
vn 0.98070000 0.19560000 0.00000000
vn 0.00000000 0.00000000 -1.00000000
vn -0.00320000 0.00000000 -1.00000000
vn 0.00000000 0.00000000 -1.00000000
vn -0.25330000 -0.96740000 0.00000000
vn -0.70700000 -0.70720000 0.00000000
vn -0.70720000 -0.70700000 0.00000000
vn 0.00100000 0.00000000 -1.00000000
vn -0.00870000 0.00000000 -1.00000000
vn 1.00000000 0.00000000 0.00000000
vn 0.98020000 -0.19810000 0.00000000
vn 0.00000000 0.00000000 -1.00000000
vn 0.00000000 0.00000000 -1.00000000
vn -0.98070000 0.19550000 0.00000000
vn 0.00010000 0.00000000 -1.00000000
vn -1.00000000 0.00000000 0.00000000
vn -0.98070000 0.19560000 0.00000000
vn -0.00870000 0.00000000 -1.00000000
vn 0.83600000 -0.54870000 0.00000000
vn 0.00010000 0.00000000 -1.00000000
vn 0.83650000 -0.54790000 0.00000000
vn -0.00870000 0.00000000 -1.00000000
vn 0.00000000 0.00000000 -1.00000000
vn 0.98020000 -0.19810000 0.00000000
vn -0.83170000 0.55520000 0.00000000
vn 0.00010000 0.00000000 -1.00000000
vn 0.00000000 0.00000000 -1.00000000
vn -0.98070000 0.19550000 0.00000000
vn 0.83600000 -0.54870000 0.00000000
vn -0.00090000 0.00000000 -1.00000000
vn 0.54820000 -0.83630000 0.00000000
vn 0.54850000 -0.83620000 0.00000000
vn 0.00000000 0.00000000 -1.00000000
vn 0.19560000 -0.98070000 0.00000000
vn 0.00000000 0.00000000 -1.00000000
vn 0.00000000 -1.00000000 0.00000000
vn 0.00100000 0.00000000 -1.00000000
vn 0.00000000 0.00000000 -1.00000000
vn 0.00230000 0.00000000 -1.00000000
vn -0.25340000 0.96740000 0.00000000
vn 0.00100000 0.00000000 -1.00000000
vn -0.70700000 0.70720000 0.00000000
vn -0.25330000 0.96740000 0.00000000
vn 0.55520000 -0.83170000 0.00000000
vn 0.19560000 -0.98070000 0.00000000
vn 0.00230000 0.00000000 -1.00000000
vn 0.00000000 0.00000000 -1.00000000
vn -0.00020000 0.00000000 -1.00000000
vn 0.00000000 0.00000000 -1.00000000
vn -0.70700000 0.70720000 0.00000000
vn -0.96740000 0.25320000 0.00000000
vn -0.70720000 0.70700000 0.00000000
vn -0.00020000 0.00000000 -1.00000000
vn 0.00230000 0.00000000 -1.00000000
vn 0.00410000 0.00000000 -1.00000000
vn 0.83170000 0.55520000 0.00000000
vn 0.55520000 0.83170000 0.00000000
vn 0.00000000 0.00000000 -1.00000000
vn 0.19560000 0.98070000 0.00000000
vn 0.00000000 0.00000000 -1.00000000
vn 0.55520000 0.83170000 0.00000000
vn 0.19560000 0.98070000 0.00000000
vn 0.00100000 0.00000000 -1.00000000
vn 0.00000000 1.00000000 0.00000000
vn 0.00000000 0.00000000 -1.00000000
vn 0.00000000 -1.00000000 0.00000000
vn 0.00100000 0.00000000 -1.00000000
vn 0.00000000 0.00000000 -1.00000000
vn -0.25330000 -0.96740000 0.00000000
vn -0.25340000 -0.96740000 0.00000000
vn 0.00000000 0.00000000 -1.00000000
vn 0.00000000 1.00000000 0.00000000
vn 0.00180000 0.00000000 -1.00000000
vn -0.19560000 0.98070000 0.00000000
vn 0.00000000 -1.00000000 0.00000000
vn 0.19790000 -0.98020000 0.00000000
vn 0.00000000 0.00000000 -1.00000000
vn 0.00180000 0.00000000 -1.00000000
vn 0.54820000 -0.83630000 0.00000000
vn 0.00000000 0.00000000 -1.00000000
vn -0.00090000 0.00000000 -1.00000000
vn 0.00180000 0.00000000 -1.00000000
vn 0.19790000 -0.98020000 0.00000000
vn -0.00090000 0.00000000 -1.00000000
vn 0.00000000 0.00000000 -1.00000000
vn -0.19560000 0.98070000 0.00000000
vn -0.55520000 0.83170000 0.00000000
vn 0.00000000 0.00000000 -1.00000000
vn -0.83170000 0.55520000 0.00000000
vn -0.55520000 0.83170000 0.00000000
vn 0.00000000 0.00000000 -1.00000000
vn 0.55520000 -0.83170000 0.00000000
vn 0.83170000 -0.55520000 0.00000000
vn 0.00000000 0.00000000 -1.00000000
vn -0.00020000 0.00000000 -1.00000000
vn 0.83170000 -0.55520000 0.00000000
vn 0.98070000 -0.19550000 0.00000000
vn 1.00000000 0.00000000 0.00000000
vn 0.00000000 0.00000000 -1.00000000
vn 0.00410000 0.00000000 -1.00000000
vn 0.98070000 -0.19560000 0.00000000
vn 0.98070000 -0.19550000 0.00000000
vn 0.00410000 0.00000000 -1.00000000
vn -1.00000000 0.00000000 0.00000000
vn 0.00000000 0.00000000 -1.00000000
vn -0.96730000 0.25360000 0.00000000
vn -0.96740000 0.25320000 0.00000000
vn -0.96730000 -0.25360000 0.00000000
vn -1.00000000 0.00000000 0.00000000
vn 0.00000000 0.00000000 -1.00000000
vn 0.00410000 0.00000000 -1.00000000
vn -0.98070000 -0.19560000 0.00000000
vn -0.98070000 -0.19550000 0.00000000
vn -0.83170000 -0.55520000 0.00000000
vn 0.00000000 0.00000000 -1.00000000
vn 0.00040000 0.00000000 -1.00000000
vn -0.55520000 -0.83170000 0.00000000
vn -0.83170000 -0.55520000 0.00000000
vn 0.00000000 0.00000000 -1.00000000
vn -0.00230000 0.00000000 -1.00000000
vn -0.55520000 -0.83170000 0.00000000
vn -0.19560000 -0.98070000 0.00000000
vn 0.00040000 0.00000000 -1.00000000
vn 0.00000000 0.00000000 -1.00000000
vn -0.00100000 0.00000000 -1.00000000
vn -0.00230000 0.00000000 -1.00000000
vn 0.00000000 0.00000000 -1.00000000
vn 0.70700000 0.70720000 0.00000000
vn 0.70720000 0.70700000 0.00000000
vn 0.25330000 0.96740000 0.00000000
vn -0.19560000 -0.98070000 0.00000000
vn 0.00000000 0.00000000 -1.00000000
vn -0.00100000 0.00000000 -1.00000000
vn 0.00000000 -1.00000000 0.00000000
vn 0.00000000 1.00000000 0.00000000
vn 0.25330000 0.96740000 0.00000000
vn 0.25340000 0.96740000 0.00000000
vn 0.00000000 0.00000000 -1.00000000
vn -0.00100000 0.00000000 -1.00000000
vn 0.00000000 0.00000000 -1.00000000
vn 0.00000000 1.00000000 0.00000000
vn 0.00100000 0.00000000 -1.00000000
vn -0.25340000 0.96740000 0.00000000
f 92//92 99//99 104//104
f 108//108 110//110 119//119
f 115//115 111//111 120//120
f 93//93 103//103 129//129
f 129//129 103//103 130//130
f 126//126 135//135 139//139
f 137//137 132//132 143//143
f 140//140 144//144 150//150
f 152//152 155//155 164//164
f 163//163 156//156 171//171
f 175//175 119//119 177//177
f 177//177 119//119 121//121
f 177//177 121//121 182//182
f 180//180 125//125 184//184
f 182//182 185//185 188//188
f 185//185 194//194 188//188
f 190//190 195//195 199//199
f 188//188 197//197 202//202
f 201//201 198//198 147//147
f 202//202 150//150 205//205
f 205//205 150//150 144//144
f 208//208 164//164 211//211
f 212//212 165//165 170//170
f 211//211 166//166 216//216
f 217//217 172//172 220//220
f 216//216 222//222 108//108
f 108//108 222//222 227//227
f 105//105 228//228 109//109
f 232//232 103//103 236//236
f 236//236 103//103 97//97
f 233//233 98//98 240//240
f 237//237 96//96 243//243
f 241//241 244//244 249//249
f 250//250 242//242 256//256
f 249//249 255//255 152//152
f 152//152 255//255 257//257
f 154//154 259//259 158//158
f 40//40 151//151 162//162
f 40//40 162//162 20//20
f 19//19 161//161 209//209
f 19//19 209//209 18//18
f 17//17 210//210 213//213
f 17//17 213//213 12//12
f 13//13 214//214 219//219
f 11//11 218//218 7//7
f 3//3 8//8 107//107
f 107//107 8//8 215//215
f 2//2 106//106 118//118
f 1//1 117//117 22//22
f 21//21 116//116 173//173
f 21//21 173//173 30//30
f 29//29 174//174 178//178
f 29//29 178//178 32//32
f 31//31 176//176 179//179
f 31//31 179//179 33//33
f 84//84 34//34 189//189
f 189//189 34//34 181//181
f 85//85 191//191 203//203
f 85//85 203//203 79//79
f 80//80 204//204 207//207
f 80//80 207//207 78//78
f 77//77 206//206 142//142
f 77//77 142//142 72//72
f 71//71 145//145 131//131
f 73//73 134//134 66//66
f 59//59 65//65 101//101
f 101//101 65//65 133//133
f 60//60 102//102 229//229
f 61//61 230//230 58//58
f 57//57 231//231 235//235
f 57//57 235//235 55//55
f 56//56 234//234 238//238
f 56//56 238//238 51//51
f 50//50 239//239 248//248
f 50//50 248//248 38//38
f 41//41 39//39 153//153
f 153//153 39//39 251//251
f 10//10 223//223 16//16
f 14//14 224//224 168//168
f 15//15 169//169 44//44
f 42//42 167//167 159//159
f 43//43 160//160 35//35
f 36//36 157//157 260//260
f 9//9 4//4 221//221
f 221//221 4//4 226//226
f 88//88 187//187 23//23
f 24//24 186//186 122//122
f 25//25 123//123 27//27
f 26//26 124//124 112//112
f 28//28 113//113 6//6
f 5//5 114//114 225//225
f 89//89 87//87 183//183
f 183//183 87//87 192//192
f 67//67 128//128 70//70
f 70//70 128//128 141//141
f 69//69 138//138 76//76
f 74//74 136//136 146//146
f 75//75 149//149 81//81
f 83//83 148//148 196//196
f 82//82 200//200 86//86
f 86//86 200//200 193//193
f 68//68 64//64 127//127
f 127//127 64//64 91//91
f 45//45 254//254 48//48
f 49//49 253//253 247//247
f 47//47 245//245 54//54
f 52//52 246//246 95//95
f 53//53 94//94 63//63
f 62//62 100//100 90//90
f 46//46 37//37 252//252
f 252//252 37//37 258//258
