v 0.01005500 0.01491500 0.01114300
v -0.01005500 0.01491500 0.01114300
v -0.01005500 0.01491500 0.00422300
v 0.01005500 0.01491500 0.00422300
v -0.01005500 0.01491500 0.01114300
v -0.01005500 -0.01491500 0.01114300
v -0.01005500 -0.01491500 0.00422300
v -0.01005500 0.01491500 0.00422300
v 0.01005500 -0.01491500 0.00422300
v -0.01005500 -0.01491500 0.01114300
v 0.01005500 -0.01491500 0.01114300
v -0.01005500 -0.01491500 0.00422300
v 0.01005500 0.01491500 0.00422300
v 0.01005500 -0.01491500 0.01114300
v 0.01005500 0.01491500 0.01114300
v 0.01005500 -0.01491500 0.00422300
v 0.01005500 0.01491500 0.01114300
v -0.01005500 -0.01491500 0.01114300
v -0.01005500 0.01491500 0.01114300
v 0.01005500 -0.01491500 0.01114300
v 0.01005500 0.01491500 0.00422300
v -0.01005500 -0.01491500 0.00422300
v 0.01005500 -0.01491500 0.00422300
v -0.01005500 0.01491500 0.00422300
vn 0.00000000 1.00000000 -0.00000000
vn 0.00000000 1.00000000 -0.00000000
vn 0.00000000 1.00000000 -0.00000000
vn 0.00000000 1.00000000 -0.00000000
vn -1.00000000 0.00000000 -0.00000000
vn -1.00000000 0.00000000 -0.00000000
vn -1.00000000 0.00000000 -0.00000000
vn -1.00000000 0.00000000 -0.00000000
vn 0.00000000 -1.00000000 0.00000000
vn 0.00000000 -1.00000000 0.00000000
vn 0.00000000 -1.00000000 0.00000000
vn 0.00000000 -1.00000000 0.00000000
vn 1.00000000 0.00000000 0.00000000
vn 1.00000000 0.00000000 0.00000000
vn 1.00000000 0.00000000 0.00000000
vn 1.00000000 0.00000000 0.00000000
vn -0.00000000 0.00000000 1.00000000
vn -0.00000000 0.00000000 1.00000000
vn -0.00000000 0.00000000 1.00000000
vn -0.00000000 0.00000000 1.00000000
vn 0.00000000 0.00000000 -1.00000000
vn 0.00000000 0.00000000 -1.00000000
vn 0.00000000 0.00000000 -1.00000000
vn 0.00000000 0.00000000 -1.00000000
f 1//1 3//3 2//2
f 1//1 4//4 3//3
f 5//5 7//7 6//6
f 5//5 8//8 7//7
f 9//9 11//11 10//10
f 10//10 12//12 9//9
f 13//13 15//15 14//14
f 14//14 16//16 13//13
f 17//17 19//19 18//18
f 18//18 20//20 17//17
f 21//21 23//23 22//22
f 21//21 22//22 24//24
