####
#
# OBJ File Generated by Meshlab
#
####
# Object arm_link_sh0_right_motor.obj
#
# Vertices: 92
# Faces: 180
#
####
vn -0.986854 0.119976 -0.108281
v -0.079000 -0.044000 -0.006000
vn 0.999306 0.034910 -0.012960
v 0.053000 -0.044000 0.000000
vn -0.061982 -0.868263 0.492217
v -0.030000 -0.100000 0.032000
vn 0.050731 -0.572903 -0.818052
v 0.002000 -0.097000 -0.035000
vn -0.078017 0.761003 0.644040
v -0.033000 -0.034000 0.049000
vn -0.583699 -0.786903 -0.200196
v -0.058000 -0.100000 -0.011000
vn 0.451418 -0.849274 0.273781
v 0.027000 -0.100000 0.018000
vn 0.592050 0.452241 -0.667049
v 0.041000 -0.031000 -0.062000
vn -0.826287 -0.199372 0.526784
v -0.071000 -0.048000 0.028000
vn 0.157026 -0.056346 0.985986
v 0.008000 -0.047000 0.052000
vn 0.063218 -0.997986 0.005229
v 0.006000 -0.106000 0.000000
vn -0.475010 -0.105428 -0.873642
v -0.059000 -0.037000 -0.062000
vn 0.801461 -0.568259 -0.186394
v 0.034000 -0.098000 -0.009000
vn 0.568042 0.751701 0.335072
v 0.043000 -0.033000 0.023000
vn -0.599820 0.736270 0.313246
v -0.072000 -0.033000 0.022000
vn -0.402374 -0.081437 0.911846
v -0.048000 -0.048000 0.048000
vn -0.721693 -0.498939 0.479813
v -0.055000 -0.097000 0.021000
vn 0.160676 -0.466371 0.869874
v 0.007000 -0.097000 0.035000
vn -0.054684 -0.817655 -0.573105
v -0.031000 -0.100000 -0.033000
vn -0.111608 -0.990393 0.081642
v -0.039000 -0.105000 0.008000
vn -0.931634 -0.174365 -0.318834
v -0.075000 -0.048000 -0.020000
vn 0.097080 -0.293903 -0.950893
v 0.021000 -0.046000 -0.062000
vn 0.499353 -0.598027 -0.626905
v 0.022000 -0.097000 -0.028000
vn 0.963378 -0.200438 -0.178121
v 0.051000 -0.048000 -0.010000
vn 0.800219 -0.518761 0.300892
v 0.033000 -0.097000 0.012000
vn 0.220785 -0.974559 -0.038593
v 0.019000 -0.104000 -0.004000
vn 0.631904 0.770999 0.079104
v 0.049000 -0.032000 0.004000
vn 0.129968 0.714219 0.687749
v 0.009000 -0.034000 0.049000
vn 0.710975 -0.163821 0.683869
v 0.037000 -0.048000 0.037000
vn -0.973374 0.077976 0.215553
v -0.078000 -0.044000 0.011000
vn -0.721979 0.547207 -0.423451
v -0.063000 -0.031000 -0.059000
vn -0.163263 0.113439 0.980039
v -0.035000 -0.045000 0.052000
vn -0.663755 0.030479 0.747329
v -0.061000 -0.045000 0.040000
vn -0.307887 -0.604111 0.735021
v -0.042000 -0.098000 0.031000
vn 0.099513 -0.834533 0.541897
v 0.006000 -0.101000 0.032000
vn -0.420467 -0.630612 -0.652331
v -0.045000 -0.098000 -0.030000
vn -0.611341 -0.790022 0.046128
v -0.060000 -0.100000 0.002000
vn -0.087144 -0.983812 -0.156591
v -0.036000 -0.104000 -0.016000
vn -0.875297 -0.473878 -0.096410
v -0.062000 -0.097000 -0.003000
vn -0.058323 -0.281856 -0.957682
v -0.049000 -0.047000 -0.062000
vn 0.669088 -0.587479 -0.455180
v 0.028000 -0.097000 -0.021000
vn 0.215155 -0.291689 -0.932001
v 0.029000 -0.042000 -0.062000
vn 0.708141 -0.701712 0.078334
v 0.034000 -0.099000 0.004000
vn 0.222198 -0.968436 0.112957
v 0.020000 -0.103000 0.011000
vn 0.098036 -0.975992 -0.194498
v 0.009000 -0.104000 -0.019000
vn 0.926031 0.049582 0.374178
v 0.049000 -0.044000 0.020000
vn -0.037156 0.999305 0.003041
v -0.053000 -0.030000 -0.038000
vn 0.381661 0.759647 0.526566
v 0.030000 -0.033000 0.039000
vn 0.448623 -0.578077 0.681590
v 0.019000 -0.098000 0.030000
vn -0.673434 0.733698 0.090407
v -0.076000 -0.033000 0.007000
vn -0.859858 0.067190 0.506092
v -0.072000 -0.044000 0.027000
vn -0.800595 -0.539155 0.261458
v -0.061000 -0.097000 0.011000
vn -0.001261 0.692233 -0.721673
v -0.011000 -0.031000 -0.062000
vn -0.761888 -0.522987 -0.382115
v -0.058000 -0.097000 -0.017000
vn -0.283141 0.732839 0.618690
v -0.048000 -0.034000 0.045000
vn -0.119818 -0.182199 0.975934
v -0.034000 -0.048000 0.052000
vn -0.531705 -0.579162 0.617949
v -0.050000 -0.098000 0.027000
vn -0.160318 -0.544898 0.823033
v -0.033000 -0.097000 0.035000
vn 0.074432 -0.982146 0.172771
v 0.006000 -0.104000 0.019000
vn -0.197207 -0.979725 -0.035337
v -0.047000 -0.104000 -0.003000
vn -0.023361 -0.997353 -0.068863
v -0.024000 -0.105000 -0.008000
vn -0.232180 -0.828717 -0.509235
v -0.041000 -0.100000 -0.030000
vn -0.980207 -0.165857 -0.108102
v -0.079000 -0.048000 -0.006000
vn -0.150362 -0.566432 -0.810275
v -0.034000 -0.097000 -0.035000
vn -0.295837 -0.307508 -0.904389
v -0.052000 -0.046000 -0.062000
vn 0.269462 -0.281451 -0.920965
v 0.035000 -0.037000 -0.062000
vn 0.314565 -0.544885 -0.777271
v 0.012000 -0.097000 -0.033000
vn 0.974086 -0.169638 0.149595
v 0.052000 -0.048000 0.007000
vn 0.493321 -0.842356 -0.216957
v 0.031000 -0.100000 -0.011000
vn 0.158202 -0.784675 -0.599380
v 0.009000 -0.100000 -0.032000
vn 0.797675 0.105368 0.593812
v 0.042000 -0.044000 0.031000
vn 0.677724 -0.529520 0.510195
v 0.028000 -0.097000 0.022000
vn 0.011333 0.999936 0.000277
v 0.013000 -0.030000 -0.038000
vn 0.405038 0.139253 0.903633
v 0.022000 -0.045000 0.047000
vn 0.415520 -0.170552 0.893451
v 0.022000 -0.048000 0.047000
vn 0.270878 -0.889108 0.368934
v 0.017000 -0.100000 0.028000
vn -0.688710 0.722023 -0.066043
v -0.076000 -0.033000 -0.005000
vn -0.125815 0.992044 0.004366
v -0.064000 -0.031000 -0.041000
vn -0.963825 -0.182959 0.193825
v -0.078000 -0.048000 0.010000
vn -0.474875 0.706800 0.524335
v -0.061000 -0.034000 0.036000
vn -0.395314 0.630227 -0.668237
v -0.062000 -0.031000 -0.060000
vn -0.400788 -0.846914 -0.349437
v -0.051000 -0.100000 -0.022000
vn -0.605997 -0.562205 -0.562755
v -0.052000 -0.097000 -0.025000
vn -0.587188 -0.167086 0.792018
v -0.058000 -0.048000 0.042000
vn -0.467129 -0.845798 0.257715
v -0.055000 -0.100000 0.016000
vn -0.246307 -0.900992 0.357136
v -0.046000 -0.101000 0.025000
vn -0.041105 -0.976073 0.213521
v -0.033000 -0.103000 0.020000
vn 0.368398 -0.841454 -0.395270
v 0.021000 -0.100000 -0.025000
vn 0.848606 -0.236876 0.473030
v 0.046000 -0.048000 0.024000
vn 0.601756 0.022937 0.798351
v 0.033000 -0.045000 0.041000
vn 0.079174 0.996858 0.002262
v 0.041000 -0.031000 -0.053000
vn -0.147697 0.988998 -0.008285
v -0.064000 -0.031000 -0.044000
# 92 vertices, 0 vertices normals

f 24//24 13//13 8//8
f 24//24 8//8 2//2
f 24//24 2//2 13//13
f 27//27 2//2 8//8
f 31//31 21//21 1//1
f 32//32 28//28 5//5
f 32//32 10//10 28//28
f 39//39 6//6 37//37
f 40//40 22//22 4//4
f 41//41 23//23 8//8
f 41//41 8//8 13//13
f 43//43 25//25 7//7
f 44//44 11//11 26//26
f 44//44 43//43 7//7
f 44//44 26//26 43//43
f 45//45 26//26 11//11
f 45//45 38//38 19//19
f 46//46 27//27 14//14
f 46//46 2//2 27//27
f 48//48 14//14 27//27
f 48//48 5//5 28//28
f 48//48 47//47 15//15
f 48//48 15//15 5//5
f 49//49 18//18 35//35
f 50//50 30//30 15//15
f 50//50 1//1 30//30
f 50//50 15//15 47//47
f 51//51 15//15 30//30
f 51//51 9//9 33//33
f 52//52 17//17 9//9
f 52//52 39//39 37//37
f 54//54 21//21 31//31
f 54//54 31//31 12//12
f 54//54 39//39 21//21
f 54//54 6//6 39//39
f 55//55 32//32 5//5
f 55//55 16//16 32//32
f 55//55 33//33 16//16
f 55//55 5//5 15//15
f 56//56 18//18 10//10
f 56//56 10//10 32//32
f 56//56 32//32 16//16
f 57//57 9//9 17//17
f 57//57 34//34 16//16
f 58//58 35//35 18//18
f 58//58 3//3 35//35
f 58//58 18//18 56//56
f 58//58 34//34 3//3
f 58//58 56//56 16//16
f 58//58 16//16 34//34
f 59//59 20//20 11//11
f 59//59 11//11 44//44
f 60//60 37//37 6//6
f 60//60 38//38 20//20
f 61//61 11//11 20//20
f 61//61 20//20 38//38
f 61//61 45//45 11//11
f 61//61 38//38 45//45
f 62//62 19//19 38//38
f 63//63 1//1 21//21
f 63//63 21//21 39//39
f 63//63 30//30 1//1
f 64//64 40//40 4//4
f 64//64 4//4 19//19
f 64//64 19//19 62//62
f 64//64 62//62 36//36
f 65//65 64//64 36//36
f 65//65 40//40 64//64
f 66//66 8//8 23//23
f 66//66 23//23 42//42
f 66//66 53//53 8//8
f 66//66 42//42 22//22
f 66//66 65//65 12//12
f 66//66 12//12 53//53
f 66//66 22//22 40//40
f 66//66 40//40 65//65
f 67//67 42//42 23//23
f 67//67 22//22 42//42
f 68//68 43//43 13//13
f 68//68 13//13 2//2
f 68//68 2//2 46//46
f 68//68 46//46 25//25
f 68//68 25//25 43//43
f 69//69 43//43 26//26
f 69//69 13//13 43//43
f 69//69 26//26 45//45
f 69//69 41//41 13//13
f 70//70 45//45 19//19
f 70//70 19//19 4//4
f 70//70 67//67 23//23
f 70//70 4//4 22//22
f 70//70 22//22 67//67
f 71//71 46//46 14//14
f 71//71 14//14 48//48
f 72//72 29//29 49//49
f 72//72 49//49 7//7
f 72//72 7//7 25//25
f 73//73 48//48 27//27
f 73//73 47//47 48//48
f 73//73 53//53 47//47
f 73//73 8//8 53//53
f 74//74 48//48 28//28
f 74//74 28//28 10//10
f 75//75 10//10 18//18
f 75//75 18//18 49//49
f 75//75 74//74 10//10
f 76//76 49//49 35//35
f 76//76 7//7 49//49
f 76//76 35//35 59//59
f 76//76 59//59 44//44
f 76//76 44//44 7//7
f 77//77 31//31 1//1
f 77//77 1//1 50//50
f 78//78 50//50 47//47
f 79//79 51//51 30//30
f 79//79 9//9 51//51
f 79//79 52//52 9//9
f 79//79 30//30 63//63
f 79//79 63//63 39//39
f 79//79 39//39 52//52
f 80//80 51//51 33//33
f 80//80 15//15 51//51
f 80//80 55//55 15//15
f 80//80 33//33 55//55
f 81//81 53//53 12//12
f 81//81 12//12 31//31
f 81//81 31//31 47//47
f 81//81 47//47 53//53
f 82//82 6//6 54//54
f 82//82 36//36 62//62
f 82//82 62//62 38//38
f 82//82 60//60 6//6
f 82//82 38//38 60//60
f 83//83 54//54 12//12
f 83//83 65//65 36//36
f 83//83 12//12 65//65
f 83//83 82//82 54//54
f 83//83 36//36 82//82
f 84//84 33//33 9//9
f 84//84 9//9 57//57
f 84//84 57//57 16//16
f 84//84 16//16 33//33
f 85//85 57//57 17//17
f 85//85 17//17 52//52
f 85//85 52//52 37//37
f 85//85 60//60 20//20
f 85//85 37//37 60//60
f 86//86 85//85 20//20
f 86//86 57//57 85//85
f 86//86 3//3 34//34
f 86//86 34//34 57//57
f 87//87 59//59 35//35
f 87//87 35//35 3//3
f 87//87 20//20 59//59
f 87//87 86//86 20//20
f 87//87 3//3 86//86
f 88//88 23//23 41//41
f 88//88 41//41 69//69
f 88//88 70//70 23//23
f 88//88 69//69 45//45
f 88//88 45//45 70//70
f 89//89 71//71 29//29
f 89//89 46//46 71//71
f 89//89 29//29 72//72
f 89//89 72//72 25//25
f 89//89 25//25 46//46
f 90//90 71//71 48//48
f 90//90 29//29 71//71
f 90//90 48//48 74//74
f 90//90 74//74 75//75
f 90//90 75//75 49//49
f 90//90 49//49 29//29
f 91//91 73//73 27//27
f 91//91 27//27 8//8
f 91//91 8//8 73//73
f 92//92 50//50 78//78
f 92//92 78//78 47//47
f 92//92 47//47 31//31
f 92//92 31//31 77//77
f 92//92 77//77 50//50
# 180 faces, 0 coords texture

# End of File
