####
#
# OBJ File Generated by Meshlab
#
####
# Object front_jaw.obj
#
# Vertices: 60
# Faces: 116
#
####
vn -2.589527 -3.009655 0.525305
v 0.202200 -0.014541 -0.040176
vn 3.185224 1.189931 1.491151
v 0.235654 0.009437 -0.039331
vn -2.203315 2.586353 -1.203169
v 0.202200 0.014018 -0.058046
vn 3.209449 -3.005930 -3.295255
v 0.228064 -0.010649 -0.058884
vn -2.399408 2.199160 1.951256
v 0.202200 0.013034 -0.036397
vn 3.005031 -1.323893 1.443758
v 0.235510 -0.009828 -0.039319
vn 2.827796 3.031101 -3.266535
v 0.227824 0.010925 -0.058882
vn -2.758516 -1.497093 -2.706710
v 0.202200 -0.012499 -0.059170
vn 2.243956 4.092221 1.274913
v 0.232440 0.012704 -0.040082
vn -3.087528 0.148958 -3.135647
v 0.202200 0.011713 -0.059266
vn 4.504406 -0.949404 -3.258122
v 0.229441 -0.007959 -0.058919
vn 2.036532 -4.498466 1.274261
v 0.231690 -0.012909 -0.040198
vn -0.101517 -0.595862 6.221955
v 0.202509 -0.011760 -0.035800
vn 0.718395 2.591076 4.824680
v 0.223464 0.011846 -0.036200
vn -2.608585 3.016807 0.504807
v 0.202200 0.014541 -0.040176
vn 1.093960 5.085308 -2.171725
v 0.224934 0.012776 -0.058170
vn 4.512926 3.958653 -1.598334
v 0.230030 0.010866 -0.052914
vn -2.809547 -0.882264 2.961225
v 0.202200 -0.011943 -0.035835
vn -2.150013 -2.525722 -1.239525
v 0.202200 -0.014055 -0.057941
vn 5.395135 -2.478315 -1.880873
v 0.230906 -0.009175 -0.053509
vn 5.999112 -0.056594 -1.866894
v 0.231239 -0.007054 -0.053175
vn 3.561923 0.980466 -3.644154
v 0.229160 0.008214 -0.059237
vn 4.008844 -4.616125 -1.369699
v 0.229337 -0.011399 -0.052939
vn 1.455639 1.786364 5.476634
v 0.226981 0.011240 -0.036630
vn 0.217908 0.771594 6.131107
v 0.218722 0.011429 -0.035632
vn -2.952683 3.134387 -0.097600
v 0.202200 0.014224 -0.052727
vn 0.509925 5.675397 1.774217
v 0.223130 0.013294 -0.038262
vn 2.201916 5.620381 -0.876793
v 0.227283 0.012688 -0.053652
vn 0.842063 2.788899 -4.922441
v 0.225398 0.011643 -0.059291
vn 0.420354 6.266607 -0.160305
v 0.225170 0.012903 -0.053072
vn -2.339965 -2.175557 1.947227
v 0.202200 -0.013031 -0.036383
vn -2.677534 0.743271 2.961395
v 0.202200 0.011926 -0.035814
vn 0.567184 -2.860301 4.459530
v 0.223347 -0.011835 -0.036390
vn -2.820682 -0.543431 -3.051734
v 0.202200 -0.012349 -0.059222
vn 0.638742 -6.211479 -0.467892
v 0.225074 -0.013014 -0.053672
vn 0.634114 -2.622004 -5.146147
v 0.225586 -0.011535 -0.059286
vn 5.963374 0.187299 -1.960943
v 0.231212 0.007082 -0.053236
vn 5.454937 2.162417 -1.902425
v 0.230938 0.009146 -0.053471
vn 0.961889 2.579653 4.766840
v 0.226039 0.011621 -0.036513
vn 1.433802 0.047945 6.077161
v 0.228182 0.009257 -0.036792
vn 0.463584 2.646555 4.765321
v 0.219904 0.011893 -0.035771
vn -2.554554 1.339159 -2.706262
v 0.202200 0.012816 -0.059104
vn 0.898301 0.702572 -6.013975
v 0.227314 0.008489 -0.059716
vn 0.343939 -5.945190 1.730816
v 0.221115 -0.013399 -0.039412
vn -3.147674 -0.056769 3.140304
v 0.202200 -0.011441 -0.035801
vn 1.228727 -2.276467 5.085758
v 0.227092 -0.011303 -0.036837
vn 0.332598 -2.536756 4.843633
v 0.218595 -0.011731 -0.035816
vn -2.980508 -3.144435 -0.086986
v 0.202200 -0.014202 -0.052777
vn 1.646595 -4.635796 -2.399451
v 0.226186 -0.012349 -0.058400
vn 1.937206 -0.946833 -5.303440
v 0.228308 -0.008568 -0.059628
vn 1.522865 1.172855 5.782634
v 0.227264 0.011066 -0.036665
vn 0.751962 -0.024257 6.237909
v 0.223016 0.011831 -0.036146
vn -3.057567 0.430096 -3.110607
v 0.202200 0.012137 -0.059228
vn 0.805082 -5.007255 3.480156
v 0.225145 -0.012048 -0.037054
vn -3.174873 0.002759 3.183158
v 0.202200 0.010352 -0.035812
vn 1.426715 -0.263073 6.066252
v 0.228303 -0.009197 -0.036965
vn 1.320050 -6.103996 -0.585259
v 0.226978 -0.012764 -0.052851
vn -0.032655 -0.709965 -6.204725
v 0.202507 -0.012320 -0.059227
vn 1.483048 0.411998 6.023065
v 0.227940 0.010221 -0.036754
vn -0.000772 0.838092 -6.226981
v 0.203892 0.011990 -0.059248
# 60 vertices, 0 vertices normals

f 15//15 10//10 5//5
f 17//17 9//9 2//2
f 17//17 7//7 9//9
f 19//19 1//1 10//10
f 20//20 11//11 6//6
f 20//20 6//6 4//4
f 20//20 4//4 11//11
f 21//21 11//11 2//2
f 21//21 2//2 6//6
f 21//21 6//6 11//11
f 23//23 4//4 6//6
f 23//23 6//6 12//12
f 24//24 2//2 9//9
f 26//26 3//3 10//10
f 26//26 16//16 3//3
f 26//26 10//10 15//15
f 27//27 9//9 15//15
f 27//27 15//15 5//5
f 28//28 16//16 9//9
f 28//28 9//9 7//7
f 28//28 7//7 16//16
f 29//29 3//3 16//16
f 29//29 16//16 7//7
f 30//30 15//15 9//9
f 30//30 9//9 16//16
f 30//30 26//26 15//15
f 30//30 16//16 26//26
f 31//31 18//18 10//10
f 31//31 10//10 1//1
f 32//32 5//5 10//10
f 34//34 19//19 10//10
f 34//34 8//8 19//19
f 35//35 12//12 1//1
f 36//36 8//8 34//34
f 36//36 19//19 8//8
f 37//37 22//22 2//2
f 37//37 2//2 11//11
f 37//37 11//11 22//22
f 38//38 17//17 2//2
f 38//38 2//2 22//22
f 38//38 22//22 7//7
f 38//38 7//7 17//17
f 39//39 24//24 9//9
f 39//39 27//27 14//14
f 39//39 9//9 27//27
f 40//40 6//6 2//2
f 41//41 27//27 5//5
f 41//41 14//14 27//27
f 41//41 32//32 25//25
f 41//41 5//5 32//32
f 42//42 10//10 3//3
f 42//42 3//3 29//29
f 43//43 29//29 7//7
f 43//43 7//7 22//22
f 43//43 34//34 10//10
f 44//44 31//31 1//1
f 44//44 1//1 12//12
f 44//44 33//33 31//31
f 45//45 32//32 10//10
f 45//45 10//10 18//18
f 45//45 18//18 13//13
f 45//45 13//13 25//25
f 46//46 12//12 6//6
f 47//47 18//18 31//31
f 47//47 31//31 33//33
f 47//47 13//13 18//18
f 47//47 25//25 13//13
f 47//47 33//33 46//46
f 48//48 35//35 1//1
f 48//48 1//1 19//19
f 48//48 19//19 35//35
f 49//49 23//23 12//12
f 49//49 4//4 23//23
f 49//49 36//36 4//4
f 49//49 35//35 19//19
f 49//49 19//19 36//36
f 50//50 11//11 4//4
f 50//50 4//4 36//36
f 50//50 43//43 22//22
f 50//50 22//22 11//11
f 51//51 39//39 14//14
f 51//51 24//24 39//39
f 51//51 2//2 24//24
f 52//52 41//41 25//25
f 52//52 14//14 41//41
f 52//52 25//25 47//47
f 52//52 51//51 14//14
f 52//52 47//47 46//46
f 52//52 46//46 51//51
f 53//53 42//42 29//29
f 53//53 10//10 42//42
f 53//53 43//43 10//10
f 54//54 44//44 12//12
f 54//54 33//33 44//44
f 54//54 46//46 33//33
f 54//54 12//12 46//46
f 55//55 45//45 25//25
f 55//55 25//25 32//32
f 55//55 32//32 45//45
f 56//56 46//46 6//6
f 56//56 6//6 40//40
f 56//56 51//51 46//46
f 57//57 49//49 12//12
f 57//57 12//12 35//35
f 57//57 35//35 49//49
f 58//58 50//50 36//36
f 58//58 36//36 34//34
f 58//58 34//34 43//43
f 58//58 43//43 50//50
f 59//59 40//40 2//2
f 59//59 2//2 51//51
f 59//59 56//56 40//40
f 59//59 51//51 56//56
f 60//60 53//53 29//29
f 60//60 29//29 43//43
f 60//60 43//43 53//53
# 116 faces, 0 coords texture

# End of File
