####
#
# OBJ File Generated by Meshlab
#
####
# Object lower_leg_collision_v3.obj
#
# Vertices: 197
# Faces: 390
#
####
vn -3.082803 0.202883 -2.883614
v -0.034872 0.005848 -0.330000
vn -0.212029 -0.297191 6.136079
v -0.004429 0.001941 0.053953
vn 2.687428 -1.276589 -2.545749
v 0.032545 -0.015394 -0.330000
vn 1.294430 5.977536 -0.750186
v 0.021367 0.023045 -0.319241
vn -0.944522 -5.954633 -0.811754
v -0.020322 -0.021165 -0.315873
vn 1.051278 2.893822 -2.927241
v 0.029133 0.019823 -0.330000
vn -3.288593 4.510400 0.516738
v -0.023461 0.016351 0.033806
vn -2.596466 -2.583479 -2.519170
v -0.030380 -0.016346 -0.326519
vn 1.703646 -5.750569 0.412976
v 0.026043 -0.020368 -0.094086
vn -2.907114 1.189298 -3.079732
v -0.031125 0.016838 -0.330000
vn 3.436349 5.097054 0.707606
v 0.027311 0.023228 -0.094634
vn -2.997205 -1.245401 -2.782919
v -0.034537 -0.006364 -0.329243
vn 1.334785 -2.660452 -2.685338
v 0.030850 -0.017093 -0.330000
vn -4.042540 -3.104506 0.540127
v -0.023766 -0.011854 0.033704
vn 3.133836 -0.192626 -3.202614
v 0.032788 -0.012799 -0.330000
vn -1.428444 2.581408 -2.555549
v -0.029110 0.019901 -0.330000
vn -2.997940 0.860286 -2.863068
v -0.034310 0.009024 -0.330000
vn 3.268887 5.158685 0.130712
v 0.034813 0.020986 -0.133089
vn 1.556119 5.749349 1.061227
v 0.009313 0.019021 0.008193
vn -1.947538 -4.444645 -1.885761
v -0.029032 -0.017736 -0.325401
vn 0.558441 -6.068892 -0.719938
v 0.018051 -0.021748 -0.314510
vn 4.534158 -4.001615 -0.044871
v 0.037685 -0.015566 -0.157620
vn -3.134960 -0.441502 -2.904031
v -0.034848 -0.004265 -0.329473
vn 2.747335 -4.948207 0.838045
v 0.011396 -0.014862 0.004855
vn -0.792978 -6.178289 0.230891
v -0.004213 -0.019747 -0.074673
vn -4.762300 -0.027777 3.934676
v -0.019365 0.002365 0.046722
vn -6.038901 -1.375434 0.158215
v -0.029445 -0.008598 -0.150100
vn 3.115746 0.337712 -3.105026
v 0.032879 0.013344 -0.330000
vn 0.544572 6.075389 -0.737797
v 0.017938 0.023921 -0.316636
vn -2.610348 1.647593 -2.734303
v -0.030492 0.018382 -0.330000
vn -0.559682 6.225672 0.165540
v -0.002072 0.023685 -0.079724
vn -5.693623 1.670276 0.712445
v -0.024231 0.015032 0.033878
vn 2.171224 5.889848 -0.203965
v 0.028957 0.019897 -0.329733
vn 2.549282 5.544503 0.221308
v 0.029741 0.023073 -0.108254
vn 1.943972 4.640680 3.077920
v 0.005971 0.007384 0.049943
vn -3.848438 -4.878045 0.136380
v -0.025120 -0.013361 -0.058406
vn -2.468240 -5.774840 0.129288
v -0.023754 -0.018240 -0.240924
vn 3.357673 -5.001841 0.285351
v 0.032625 -0.018608 -0.118977
vn -0.058491 -6.280715 -0.053538
v -0.013713 -0.021799 -0.311474
vn 6.077794 -1.179903 -0.085186
v 0.038693 -0.013024 -0.171879
vn 4.157216 -4.600586 -0.119793
v 0.034527 -0.016148 -0.245543
vn 2.733460 -4.368203 2.641447
v 0.008779 -0.002604 0.047853
vn -1.977236 -5.942914 0.136400
v -0.021304 -0.017202 -0.150458
vn -0.231845 -6.261889 0.405288
v -0.006610 -0.014904 0.010626
vn -1.216503 -4.270731 3.974736
v -0.015580 -0.005502 0.048682
vn -2.053916 2.850282 4.284550
v -0.015967 0.009235 0.048878
vn -5.749627 -2.523893 0.137947
v -0.025616 -0.012659 -0.058109
vn -6.221884 -0.853871 0.167063
v -0.032193 -0.006629 -0.242384
vn 5.746393 1.912863 -0.167828
v 0.038290 0.016990 -0.172330
vn -4.308172 4.483286 0.111990
v -0.026551 0.017986 -0.150515
vn -1.161524 5.920318 -0.766371
v -0.021970 0.022928 -0.319885
vn 0.304914 6.257359 0.309876
v 0.020078 0.023645 -0.078800
vn -0.225133 6.265754 0.383518
v -0.006316 0.019008 0.010760
vn -5.848364 2.287346 0.125515
v -0.026650 0.013905 -0.058266
vn -6.179767 1.061754 0.154399
v -0.032164 0.009407 -0.242565
vn -6.182923 -0.052161 0.761835
v -0.024678 0.002195 0.034045
vn 1.738145 6.029200 -0.069097
v 0.024749 0.023145 -0.227582
vn 5.302866 2.327449 1.272561
v 0.013962 0.006349 0.039366
vn 1.613306 5.915754 0.226967
v 0.026684 0.023765 -0.097222
vn -0.235384 5.822983 1.503938
v -0.021426 0.016645 0.035603
vn -2.298791 -5.833946 -0.102761
v -0.023842 -0.019929 -0.318668
vn -2.660240 -5.685092 0.133938
v -0.024800 -0.015716 -0.149712
vn 1.504690 -6.012756 -0.523333
v 0.021084 -0.020964 -0.316432
vn 2.306221 -5.681400 0.283950
v 0.029177 -0.019809 -0.106114
vn 3.483346 -4.982340 0.115438
v 0.035335 -0.017425 -0.136874
vn 0.005784 -6.283101 0.023346
v -0.002158 -0.021785 -0.307967
vn -0.350181 -6.214145 -0.398285
v -0.015659 -0.021759 -0.312657
vn -0.246606 -6.266965 0.138147
v 0.000839 -0.020376 -0.086740
vn 5.581596 -2.754085 -0.165890
v 0.038364 -0.013852 -0.173374
vn 6.275514 -0.007014 -0.233150
v 0.036179 0.001292 -0.253030
vn -1.171948 -5.267553 1.716781
v -0.021765 -0.012493 0.035383
vn 1.446063 -0.209201 5.920348
v 0.001167 0.002194 0.053463
vn 5.036909 -2.370151 1.448556
v 0.014104 -0.001878 0.039386
vn -1.106065 -6.169663 0.111256
v -0.012325 -0.020675 -0.204885
vn 0.479827 -6.229636 0.365470
v 0.020469 -0.020038 -0.078522
vn -4.566901 -2.016670 2.421264
v -0.023053 -0.008725 0.039705
vn -2.462376 -1.701537 5.054697
v -0.014985 -0.003695 0.050195
vn 0.103489 1.980467 5.513027
v -0.003216 0.005993 0.053732
vn -4.811658 1.322159 3.384885
v -0.021083 0.010782 0.043809
vn -5.697891 -2.631650 0.137185
v -0.027227 -0.013992 -0.150381
vn 2.356735 1.681113 -2.404383
v 0.031932 0.018146 -0.330000
vn 6.245919 -0.006083 0.566710
v 0.037987 0.001599 -0.143861
vn -4.665879 4.206079 0.111939
v -0.028379 0.018411 -0.242686
vn -2.407133 5.795691 0.098303
v -0.023609 0.021018 -0.242778
vn -1.136283 6.156998 0.182809
v -0.006096 0.022760 -0.068159
vn -0.110320 6.271432 -0.182806
v -0.014339 0.024029 -0.314133
vn 0.031238 6.252850 0.533278
v -0.001182 0.019035 0.012266
vn -2.944505 1.200425 -3.079377
v -0.032599 0.013229 -0.330000
vn -6.048226 1.532183 0.143571
v -0.029468 0.011671 -0.150414
vn -6.270509 -0.338795 0.182820
v -0.027132 -0.002706 -0.058021
vn -6.278162 0.124057 0.176453
v -0.032425 0.005296 -0.242530
vn 4.681357 3.517574 0.575766
v 0.033300 0.021241 -0.117934
vn 4.856206 -0.116293 3.653493
v 0.010980 0.002174 0.047104
vn 3.586036 4.701228 0.983613
v 0.012109 0.018630 0.003953
vn 3.680566 4.541611 1.701303
v 0.012204 0.007563 0.041687
vn 1.356626 5.947554 0.362252
v 0.024774 0.023877 -0.089742
vn -0.415455 6.259955 0.318943
v -0.008734 0.018971 0.009190
vn -2.577044 -5.729117 0.118760
v -0.027150 -0.018514 -0.322038
vn -1.815301 -5.940745 -0.426275
v -0.023083 -0.020229 -0.318010
vn 0.561180 -6.234458 0.019005
v 0.021417 -0.021168 -0.219411
vn 4.395025 -4.106386 0.689649
v 0.031075 -0.018806 -0.108469
vn 2.052407 -5.936407 -0.048674
v 0.026408 -0.019832 -0.232949
vn 1.604564 -6.073868 -0.027953
v 0.024103 -0.020599 -0.225849
vn 2.841426 -5.565997 -0.074867
v 0.033075 -0.017262 -0.235193
vn 0.029951 -6.282864 0.003303
v 0.015007 -0.021768 -0.312118
vn 0.000623 -6.283038 0.040209
v -0.000350 -0.021171 -0.209651
vn -0.210094 -6.276387 0.054344
v -0.008054 -0.021181 -0.214037
vn 5.947555 -1.457953 0.105591
v 0.038490 -0.013892 -0.160428
vn 5.544809 -2.798738 -0.179428
v 0.035378 -0.014702 -0.253261
vn 6.273911 -0.246119 -0.233812
v 0.034882 -0.008685 -0.278953
vn 6.261032 -0.007060 -0.423785
v 0.033526 0.001204 -0.323958
vn 6.265872 0.045799 0.003895
v 0.039281 0.001562 -0.169506
vn 0.882572 -6.006742 1.122674
v 0.006402 -0.014897 0.010655
vn 0.866571 -3.306225 4.097892
v -0.000188 -0.002441 0.052847
vn 4.124940 -2.804633 2.262526
v 0.012188 -0.002121 0.043995
vn 5.381495 -2.259125 0.584432
v 0.036025 -0.016333 -0.132844
vn -1.861886 -5.988189 0.132782
v -0.020871 -0.019402 -0.242777
vn -0.624963 -6.250993 0.083113
v -0.011023 -0.020775 -0.201603
vn 0.059402 -6.249386 0.582228
v -0.000023 -0.014871 0.012344
vn -0.021548 -6.274117 0.335762
v 0.006409 -0.019771 -0.074176
vn -4.577543 -2.590746 1.668475
v -0.023643 -0.011248 0.035355
vn -1.626440 -4.868588 3.056049
v -0.020762 -0.009963 0.040391
vn -1.287130 1.608797 5.502923
v -0.008012 0.005967 0.053189
vn -3.279440 0.142345 5.234791
v -0.015599 0.002186 0.050017
vn -3.126748 -2.798559 3.765243
v -0.018377 -0.006025 0.046824
vn 2.082792 2.151077 4.987506
v 0.003858 0.005990 0.052201
vn 0.039256 4.601538 3.923871
v -0.003741 0.007399 0.052653
vn -3.816332 1.644996 4.242829
v -0.019122 0.009630 0.046507
vn -5.097792 2.064923 1.966175
v -0.023603 0.014896 0.036801
vn -5.788356 -0.012519 2.226404
v -0.023366 0.002156 0.039711
vn 5.746722 1.950529 -0.208891
v 0.035407 0.017212 -0.253125
vn 4.178018 4.442276 -0.150534
v 0.034840 0.018476 -0.245728
vn 5.711654 1.848645 0.270678
v 0.038022 0.017937 -0.151950
vn 5.940793 -0.024039 1.593270
v 0.014410 0.002020 0.039725
vn -2.427767 5.789413 -0.027614
v -0.024499 0.021899 -0.322038
vn -2.705992 5.657399 0.100160
v -0.024255 0.017603 -0.058376
vn -0.659837 6.108530 -0.643524
v -0.019014 0.023601 -0.317307
vn 0.525075 6.136078 0.977715
v 0.003827 0.018971 0.011679
vn -6.278383 -0.122023 0.177760
v -0.032418 -0.002650 -0.242486
vn -6.278738 0.108203 0.177078
v -0.029843 0.004262 -0.150338
vn 4.431664 4.176796 0.757935
v 0.030215 0.022309 -0.104287
vn 3.160666 -2.305130 4.004001
v 0.007657 -0.001617 0.050048
vn 2.239518 5.447635 2.017025
v 0.008811 0.007643 0.046516
vn 4.846176 1.834932 2.482938
v 0.012649 0.005819 0.044021
vn -0.073876 6.280386 0.078522
v 0.002116 0.023902 -0.087185
vn 2.990757 5.084232 0.726777
v 0.012451 0.018998 0.000614
vn 0.026250 6.283043 -0.016376
v 0.011162 0.023971 -0.312118
vn 3.893719 -4.781417 0.777778
v 0.028057 -0.019436 -0.096587
vn 2.220666 -5.877203 -0.060304
v 0.027763 -0.019241 -0.241897
vn 0.018046 -6.283036 0.039308
v 0.009347 -0.021187 -0.216025
vn -0.003192 -6.283086 0.034610
v -0.007381 -0.021789 -0.308986
vn 6.270194 0.311858 -0.229645
v 0.035748 0.009983 -0.257243
vn 6.272924 -0.192765 -0.290802
v 0.033461 -0.001461 -0.323828
vn 1.904641 -5.756282 1.537427
v 0.008871 -0.014559 0.009342
vn -1.319117 -2.405633 4.939475
v -0.011774 -0.003198 0.051553
vn 5.313283 -2.762876 0.651330
v 0.034525 -0.017020 -0.123251
vn 5.409375 -2.236326 0.399300
v 0.037076 -0.015715 -0.141433
vn 0.248876 -5.524138 2.928769
v -0.013813 -0.006384 0.047204
vn -3.730749 -1.426721 4.450691
v -0.017449 -0.004471 0.048310
vn -1.438154 2.818598 4.397634
v -0.012152 0.008029 0.051241
vn -3.853506 -2.418516 3.539069
v -0.020375 -0.007206 0.044031
vn 1.098001 2.903934 4.872359
v 0.000448 0.006588 0.052961
vn 3.461270 2.014971 4.216202
v 0.007662 0.005983 0.050023
vn 0.958813 5.285507 3.018297
v 0.000893 0.007648 0.051502
vn -2.347682 4.587251 1.962286
v -0.022752 0.016262 0.036289
vn -4.482464 2.200771 2.757414
v -0.022573 0.013207 0.040302
vn 5.863843 1.628590 0.028446
v 0.038451 0.017153 -0.161024
vn 4.443548 4.104524 -0.053176
v 0.037644 0.018708 -0.157296
vn 4.773077 3.734459 0.263249
v 0.036218 0.019899 -0.137220
vn 5.907778 -1.576054 0.890016
v 0.024436 -0.009231 -0.041900
vn -1.170387 6.172417 0.090783
v -0.004544 0.023166 -0.075652
vn -1.503518 6.099730 0.098891
v -0.014235 0.022918 -0.201547
vn -0.310731 6.236737 -0.366796
v -0.015433 0.023978 -0.314778
vn 5.248215 3.302887 0.962166
v 0.022280 0.014063 -0.032460
vn 3.286986 -0.055045 5.205840
v 0.006603 0.002186 0.051099
vn 1.787905 -3.097569 3.964683
v 0.004687 -0.001996 0.051541
vn 3.700328 3.288504 2.954040
v 0.010098 0.006851 0.046785
vn 0.011782 6.283165 -0.003450
v -0.012761 0.024027 -0.313163
vn -0.285439 6.275596 0.038732
v -0.000448 0.023824 -0.087310
vn 2.209912 -5.880765 -0.086666
v 0.028376 -0.018136 -0.324432
vn 0.014578 -6.283064 0.036106
v -0.000463 -0.021781 -0.307931
vn 6.273008 0.177816 -0.297926
v 0.033459 0.003278 -0.324265
vn 6.273971 -0.243038 -0.238000
v 0.032942 -0.011308 -0.327464
vn 0.010772 -4.194312 4.448271
v -0.002707 -0.002533 0.052784
vn -0.921263 -1.856631 5.351397
v -0.007310 -0.001499 0.053366
vn 5.586445 -2.039986 0.275910
v 0.037961 -0.014999 -0.151757
vn -2.094719 4.033921 3.459919
v -0.020010 0.012033 0.044085
vn 5.957015 1.381696 0.619618
v 0.036673 0.018848 -0.137066
vn 5.547537 -2.786098 0.958355
v 0.023519 -0.009390 -0.036943
vn -1.338451 6.136884 0.090174
v -0.012853 0.023204 -0.198640
vn -0.905069 6.211740 0.062612
v -0.010841 0.023667 -0.204423
vn 2.253029 -5.837650 -0.227340
v 0.030558 -0.017245 -0.329070
vn 6.146458 0.788251 0.838142
v 0.025509 0.012332 -0.048849
vn 5.531138 -2.825272 0.935002
v 0.032691 -0.017338 -0.113338
vn -1.187584 6.169342 0.082196
v -0.012077 0.023407 -0.202387
vn 6.012946 1.586124 0.845988
v 0.034127 0.019724 -0.120478
vn 5.889707 1.891223 0.909323
v 0.024070 0.013074 -0.040047
# 197 vertices, 0 vertices normals

f 13//13 8//8 12//12
f 15//15 3//3 13//13
f 15//15 13//13 1//1
f 15//15 1//1 10//10
f 17//17 10//10 1//1
f 20//20 13//13 5//5
f 20//20 8//8 13//13
f 21//21 5//5 13//13
f 23//23 13//13 12//12
f 23//23 1//1 13//13
f 27//27 12//12 8//8
f 29//29 4//4 6//6
f 29//29 6//6 16//16
f 30//30 16//16 6//6
f 30//30 6//6 28//28
f 30//30 28//28 15//15
f 30//30 15//15 10//10
f 32//32 7//7 30//30
f 33//33 18//18 6//6
f 33//33 6//6 4//4
f 33//33 4//4 18//18
f 36//36 20//20 14//14
f 36//36 14//14 8//8
f 36//36 8//8 20//20
f 40//40 3//3 15//15
f 41//41 13//13 3//3
f 41//41 3//3 22//22
f 47//47 14//14 27//27
f 48//48 27//27 23//23
f 48//48 23//23 12//12
f 48//48 12//12 27//27
f 50//50 30//30 7//7
f 50//50 7//7 16//16
f 51//51 29//29 16//16
f 54//54 32//32 30//30
f 54//54 30//30 10//10
f 55//55 17//17 1//1
f 55//55 1//1 32//32
f 57//57 34//34 18//18
f 57//57 18//18 4//4
f 57//57 4//4 29//29
f 57//57 29//29 34//34
f 59//59 34//34 29//29
f 59//59 11//11 34//34
f 60//60 35//35 19//19
f 62//62 14//14 20//20
f 62//62 20//20 37//37
f 62//62 43//43 14//14
f 62//62 37//37 43//43
f 63//63 21//21 13//13
f 67//67 5//5 21//21
f 67//67 21//21 39//39
f 71//71 25//25 44//44
f 71//71 43//43 25//25
f 71//71 14//14 43//43
f 74//74 25//25 43//43
f 74//74 5//5 67//67
f 75//75 9//9 24//24
f 75//75 68//68 9//9
f 78//78 2//2 72//72
f 80//80 14//14 47//47
f 80//80 47//47 27//27
f 80//80 27//27 8//8
f 80//80 8//8 14//14
f 81//81 28//28 6//6
f 83//83 50//50 16//16
f 83//83 16//16 30//30
f 83//83 30//30 50//50
f 84//84 7//7 51//51
f 85//85 51//51 7//7
f 85//85 60//60 31//31
f 85//85 7//7 60//60
f 87//87 52//52 31//31
f 87//87 53//53 60//60
f 87//87 31//31 53//53
f 88//88 54//54 10//10
f 88//88 10//10 17//17
f 88//88 17//17 54//54
f 89//89 54//54 17//17
f 89//89 32//32 54//54
f 89//89 55//55 32//32
f 89//89 17//17 55//55
f 90//90 27//27 14//14
f 90//90 14//14 56//56
f 90//90 23//23 27//27
f 91//91 32//32 1//1
f 92//92 18//18 34//34
f 95//95 94//94 19//19
f 95//95 58//58 94//94
f 96//96 52//52 19//19
f 96//96 11//11 59//59
f 96//96 59//59 29//29
f 97//97 60//60 53//53
f 97//97 53//53 31//31
f 97//97 31//31 60//60
f 98//98 61//61 37//37
f 98//98 37//37 20//20
f 98//98 20//20 61//61
f 99//99 61//61 20//20
f 99//99 20//20 5//5
f 99//99 43//43 37//37
f 99//99 37//37 61//61
f 100//100 64//64 9//9
f 100//100 21//21 64//64
f 101//101 64//64 38//38
f 101//101 73//73 24//24
f 102//102 64//64 63//63
f 102//102 38//38 64//64
f 103//103 64//64 21//21
f 103//103 21//21 63//63
f 103//103 63//63 64//64
f 104//104 41//41 22//22
f 104//104 22//22 65//65
f 104//104 13//13 41//41
f 105//105 66//66 39//39
f 105//105 39//39 21//21
f 105//105 21//21 100//100
f 106//106 9//9 68//68
f 107//107 68//68 67//67
f 107//107 67//67 39//39
f 107//107 106//106 68//68
f 107//107 39//39 106//106
f 108//108 69//69 40//40
f 108//108 22//22 69//69
f 109//109 69//69 22//22
f 109//109 22//22 3//3
f 109//109 3//3 40//40
f 109//109 40//40 69//69
f 110//110 40//40 15//15
f 111//111 15//15 28//28
f 112//112 110//110 70//70
f 112//112 40//40 110//110
f 112//112 108//108 40//40
f 112//112 82//82 108//108
f 113//113 42//42 71//71
f 113//113 75//75 24//24
f 114//114 71//71 42//42
f 114//114 72//72 2//2
f 115//115 42//42 24//24
f 115//115 24//24 73//73
f 117//117 74//74 43//43
f 117//117 5//5 74//74
f 117//117 99//99 5//5
f 117//117 43//43 99//99
f 118//118 68//68 25//25
f 118//118 25//25 74//74
f 118//118 74//74 67//67
f 118//118 67//67 68//68
f 119//119 44//44 25//25
f 119//119 71//71 44//44
f 119//119 75//75 113//113
f 119//119 113//113 71//71
f 120//120 25//25 68//68
f 120//120 68//68 75//75
f 120//120 119//119 25//25
f 120//120 75//75 119//119
f 121//121 76//76 56//56
f 121//121 56//56 14//14
f 121//121 14//14 71//71
f 122//122 121//121 71//71
f 122//122 76//76 121//121
f 123//123 2//2 78//78
f 125//125 45//45 77//77
f 125//125 122//122 45//45
f 128//128 79//79 26//26
f 128//128 124//124 46//46
f 128//128 26//26 124//124
f 129//129 7//7 32//32
f 129//129 32//32 56//56
f 130//130 76//76 26//26
f 130//130 26//26 79//79
f 130//130 129//129 56//56
f 130//130 56//56 76//76
f 131//131 28//28 81//81
f 132//132 81//81 6//6
f 132//132 6//6 18//18
f 132//132 131//131 81//81
f 132//132 49//49 131//131
f 133//133 82//82 112//112
f 134//134 116//116 82//82
f 134//134 115//115 73//73
f 135//135 84//84 51//51
f 135//135 51//51 16//16
f 135//135 16//16 84//84
f 136//136 84//84 16//16
f 136//136 16//16 7//7
f 136//136 7//7 84//84
f 137//137 29//29 51//51
f 138//138 19//19 52//52
f 138//138 52//52 87//87
f 138//138 87//87 60//60
f 138//138 60//60 19//19
f 139//139 90//90 56//56
f 139//139 23//23 90//90
f 139//139 91//91 1//1
f 139//139 1//1 23//23
f 140//140 56//56 32//32
f 140//140 32//32 91//91
f 140//140 139//139 56//56
f 140//140 91//91 139//139
f 141//141 92//92 34//34
f 141//141 34//34 11//11
f 142//142 115//115 93//93
f 142//142 42//42 115//115
f 143//143 95//95 19//19
f 143//143 19//19 35//35
f 144//144 58//58 95//95
f 144//144 134//134 58//58
f 144//144 93//93 115//115
f 144//144 115//115 134//134
f 145//145 31//31 52//52
f 145//145 52//52 96//96
f 146//146 96//96 19//19
f 146//146 19//19 94//94
f 146//146 11//11 96//96
f 146//146 141//141 11//11
f 146//146 94//94 141//141
f 147//147 96//96 29//29
f 147//147 29//29 86//86
f 148//148 101//101 24//24
f 148//148 24//24 9//9
f 148//148 9//9 64//64
f 148//148 64//64 101//101
f 149//149 65//65 38//38
f 149//149 38//38 102//102
f 149//149 102//102 63//63
f 150//150 105//105 100//100
f 150//150 100//100 9//9
f 150//150 9//9 106//106
f 151//151 106//106 39//39
f 151//151 39//39 66//66
f 151//151 66//66 106//106
f 152//152 112//112 70//70
f 152//152 28//28 131//131
f 152//152 131//131 49//49
f 152//152 49//49 112//112
f 153//153 15//15 111//111
f 153//153 111//111 70//70
f 153//153 70//70 110//110
f 154//154 113//113 24//24
f 154//154 24//24 42//42
f 154//154 42//42 113//113
f 155//155 77//77 45//45
f 155//155 124//124 77//77
f 155//155 123//123 124//124
f 156//156 38//38 65//65
f 156//156 65//65 116//116
f 156//156 101//101 38//38
f 157//157 82//82 116//116
f 157//157 116//116 65//65
f 157//157 65//65 22//22
f 158//158 114//114 45//45
f 158//158 45//45 122//122
f 158//158 122//122 71//71
f 158//158 71//71 114//114
f 159//159 124//124 26//26
f 159//159 77//77 124//124
f 159//159 125//125 77//77
f 160//160 124//124 123//123
f 160//160 46//46 124//124
f 160//160 123//123 78//78
f 160//160 78//78 127//127
f 161//161 26//26 76//76
f 161//161 159//159 26//26
f 161//161 125//125 159//159
f 161//161 76//76 122//122
f 161//161 122//122 125//125
f 162//162 78//78 72//72
f 162//162 72//72 126//126
f 162//162 127//127 78//78
f 162//162 126//126 35//35
f 163//163 35//35 126//126
f 163//163 93//93 144//144
f 164//164 35//35 60//60
f 164//164 60//60 127//127
f 164//164 162//162 35//35
f 164//164 127//127 162//162
f 165//165 60//60 7//7
f 165//165 7//7 129//129
f 166//166 130//130 79//79
f 166//166 129//129 130//130
f 166//166 165//165 129//129
f 167//167 133//133 112//112
f 167//167 112//112 49//49
f 168//168 132//132 18//18
f 168//168 49//49 132//132
f 168//168 167//167 49//49
f 168//168 133//133 167//167
f 169//169 18//18 92//92
f 169//169 168//168 18//18
f 169//169 133//133 168//168
f 170//170 134//134 73//73
f 170//170 116//116 134//134
f 170//170 156//156 116//116
f 171//171 85//85 31//31
f 172//172 137//137 51//51
f 172//172 51//51 85//85
f 173//173 86//86 29//29
f 173//173 29//29 137//137
f 174//174 141//141 94//94
f 174//174 94//94 58//58
f 174//174 58//58 92//92
f 174//174 92//92 141//141
f 175//175 126//126 72//72
f 175//175 163//163 126//126
f 175//175 142//142 93//93
f 175//175 93//93 163//163
f 176//176 114//114 42//42
f 176//176 42//42 142//142
f 176//176 72//72 114//114
f 176//176 175//175 72//72
f 176//176 142//142 175//175
f 177//177 144//144 95//95
f 177//177 95//95 143//143
f 177//177 163//163 144//144
f 177//177 143//143 35//35
f 177//177 35//35 163//163
f 178//178 145//145 96//96
f 178//178 86//86 145//145
f 178//178 147//147 86//86
f 178//178 96//96 147//147
f 179//179 145//145 86//86
f 179//179 31//31 145//145
f 179//179 173//173 31//31
f 179//179 86//86 173//173
f 180//180 65//65 149//149
f 180//180 149//149 63//63
f 181//181 150//150 106//106
f 181//181 106//106 66//66
f 181//181 66//66 105//105
f 181//181 105//105 150//150
f 182//182 111//111 28//28
f 182//182 28//28 152//152
f 182//182 152//152 70//70
f 182//182 70//70 111//111
f 183//183 153//153 110//110
f 183//183 110//110 15//15
f 183//183 15//15 153//153
f 184//184 155//155 45//45
f 184//184 45//45 114//114
f 185//185 2//2 123//123
f 185//185 123//123 155//155
f 185//185 155//155 184//184
f 185//185 184//184 114//114
f 185//185 114//114 2//2
f 186//186 108//108 82//82
f 186//186 82//82 157//157
f 186//186 157//157 22//22
f 186//186 22//22 108//108
f 187//187 46//46 160//160
f 187//187 165//165 166//166
f 187//187 160//160 127//127
f 187//187 128//128 46//46
f 187//187 127//127 60//60
f 187//187 60//60 165//165
f 187//187 166//166 79//79
f 187//187 79//79 128//128
f 188//188 134//134 82//82
f 188//188 82//82 133//133
f 188//188 133//133 169//169
f 188//188 169//169 92//92
f 189//189 170//170 73//73
f 189//189 73//73 101//101
f 189//189 156//156 170//170
f 190//190 85//85 171//171
f 190//190 172//172 85//85
f 190//190 137//137 172//172
f 191//191 171//171 31//31
f 191//191 173//173 137//137
f 191//191 31//31 173//173
f 192//192 104//104 65//65
f 192//192 65//65 180//180
f 192//192 13//13 104//104
f 192//192 180//180 63//63
f 192//192 63//63 13//13
f 193//193 58//58 134//134
f 193//193 134//134 188//188
f 194//194 189//189 101//101
f 194//194 101//101 156//156
f 194//194 156//156 189//189
f 195//195 190//190 171//171
f 195//195 137//137 190//190
f 195//195 191//191 137//137
f 195//195 171//171 191//191
f 196//196 193//193 188//188
f 196//196 188//188 92//92
f 197//197 92//92 58//58
f 197//197 58//58 193//193
f 197//197 196//196 92//92
f 197//197 193//193 196//196
# 390 faces, 0 coords texture

# End of File
