####
#
# OBJ File Generated by Meshlab
#
####
# Object front_left_upper_leg_collision.obj
#
# Vertices: 118
# Faces: 232
#
####
vn 0.076358 -0.037120 -0.996389
v 0.025388 -0.019175 -0.354052
vn -0.007595 0.050224 0.998709
v 0.000640 -0.005965 0.083713
vn -0.472767 0.872894 -0.120614
v -0.019797 0.054635 -0.281341
vn -0.822829 -0.568287 0.001621
v -0.040259 -0.072606 0.003722
vn 0.874312 0.456693 0.164347
v 0.058889 0.038996 0.020242
vn -0.952922 -0.210490 -0.218252
v -0.046750 -0.006389 -0.254197
vn 0.868425 0.374267 -0.325212
v 0.056426 0.043435 -0.332094
vn 0.476725 -0.875476 0.079216
v 0.034039 -0.082141 -0.002889
vn -0.368235 0.919210 0.139481
v -0.028462 0.059782 0.017415
vn -0.832944 0.222222 -0.506776
v -0.009877 0.044415 -0.326248
vn -0.408803 -0.897200 -0.167072
v -0.019812 -0.038178 -0.283256
vn 0.725527 -0.054686 0.686017
v 0.045110 -0.001222 0.071623
vn -0.103583 -0.786189 0.609243
v -0.005429 -0.072458 0.039996
vn 0.959666 -0.279495 -0.030409
v 0.057451 -0.026867 -0.311029
vn 0.160975 0.986935 -0.006790
v 0.014555 0.066233 -0.072166
vn -0.863716 0.502460 -0.039106
v -0.046983 0.046809 -0.069751
vn -0.924783 0.148485 0.350325
v -0.059026 0.017711 0.048166
vn -0.917022 0.276445 -0.287487
v -0.033648 0.038139 -0.282529
vn -0.008024 0.328769 -0.944376
v 0.021982 0.043310 -0.353506
vn -0.688236 -0.691771 -0.218595
v -0.027709 -0.033633 -0.284943
vn -0.139428 -0.982649 -0.122314
v -0.011715 -0.079910 -0.034796
vn 0.924039 -0.327794 0.196730
v 0.059127 -0.032520 0.020444
vn -0.100922 0.844633 0.525746
v -0.005937 0.055403 0.059012
vn -0.468705 -0.844938 0.257671
v -0.032022 -0.080960 0.015526
vn 0.195345 -0.519321 0.831953
v 0.016410 -0.021741 0.080039
vn 0.995731 -0.050490 -0.077264
v 0.058710 -0.015191 -0.316106
vn -0.117755 -0.906180 -0.406167
v 0.018159 -0.043102 -0.338500
vn 0.208754 0.973952 -0.088543
v 0.036393 0.058506 -0.310694
vn -0.172609 0.984983 -0.003702
v -0.013300 0.066826 -0.060134
vn -0.731590 0.678353 0.067927
v -0.046430 0.048853 0.006471
vn -0.977843 0.201514 -0.056711
v -0.052188 0.016041 -0.137739
vn -0.974999 -0.216913 -0.048229
v -0.054980 -0.011022 -0.138545
vn -0.871243 -0.153975 -0.466076
v -0.017558 -0.025140 -0.314284
vn -0.793957 0.545450 -0.268546
v -0.029118 0.045285 -0.287059
vn 0.476693 0.098480 -0.873536
v 0.039484 0.033125 -0.350793
vn -0.685914 -0.216990 -0.694577
v 0.002462 -0.025013 -0.345401
vn -0.938074 -0.329395 -0.107312
v -0.049458 -0.012779 -0.221032
vn 0.678107 -0.492511 0.545531
v 0.040410 -0.027527 0.060243
vn 0.979483 0.005290 0.201457
v 0.059265 0.000125 0.033362
vn 0.794914 -0.568095 0.213027
v 0.040134 -0.072987 0.003617
vn 0.224996 0.509970 0.830246
v 0.016676 0.035835 0.074336
vn -0.527285 0.296348 0.796334
v -0.037807 0.019749 0.072067
vn -0.540829 0.684653 0.488626
v -0.038509 0.044422 0.055487
vn 0.325516 0.858942 0.395295
v 0.025110 0.055801 0.050180
vn 0.013843 -0.991977 0.125660
v 0.001123 -0.083720 0.008144
vn -0.862351 -0.403395 0.305980
v -0.057486 -0.020430 0.046363
vn 0.258908 0.054109 0.964385
v 0.024494 -0.005073 0.080306
vn -0.497389 -0.335205 0.800151
v -0.035402 -0.015598 0.076040
vn 0.998080 0.056484 0.025415
v 0.060260 0.028367 0.008577
vn 0.806745 -0.475090 -0.351356
v 0.054751 -0.031362 -0.333724
vn 0.992047 -0.125077 0.014113
v 0.060211 -0.028075 0.008205
vn -0.579144 -0.705581 -0.408348
v -0.004379 -0.034806 -0.329284
vn 0.351216 0.934444 0.058834
v 0.028855 0.061640 -0.005642
vn 0.639383 0.767978 -0.037419
v 0.051892 0.051333 -0.306948
vn 0.472408 0.653612 -0.591288
v 0.043743 0.050650 -0.344138
vn -0.185721 0.822518 -0.537561
v 0.014411 0.053265 -0.345807
vn -0.162979 0.980833 -0.106791
v 0.000584 0.058645 -0.295509
vn -0.013118 0.999341 -0.033834
v 0.000712 0.064458 -0.141385
vn -0.586560 0.809783 -0.014080
v -0.039004 0.057041 -0.059765
vn -0.882474 0.373219 0.286263
v -0.058012 0.024525 0.046291
vn -0.951045 0.186982 -0.246072
v -0.041994 0.021209 -0.266520
vn -0.986866 0.147803 -0.065190
v -0.049754 0.004960 -0.207870
vn -0.991235 0.127235 -0.035559
v -0.058256 0.009595 -0.049489
vn -0.896931 -0.036476 -0.440664
v -0.031607 -0.001095 -0.289774
vn -0.879341 -0.353571 -0.318978
v -0.029491 -0.030139 -0.286135
vn -0.609333 0.669685 -0.424540
v -0.005114 0.050225 -0.329715
vn -0.877160 0.473979 -0.077033
v -0.038175 0.041321 -0.220922
vn 0.129602 0.013167 -0.991479
v 0.028838 0.020785 -0.353884
vn -0.331149 -0.098041 -0.938471
v 0.013079 -0.025159 -0.351686
vn -0.763431 -0.018806 -0.645616
v 0.000455 -0.015663 -0.343720
vn 0.901496 -0.272466 0.336256
v 0.057472 -0.022933 0.035763
vn 0.463612 -0.301071 0.833318
v 0.032136 -0.015593 0.078048
vn 0.348844 -0.779371 0.520470
v 0.019750 -0.073196 0.035117
vn 0.805663 0.234709 0.543892
v 0.049437 0.021706 0.060780
vn -0.163081 0.418297 0.893551
v -0.011607 0.029819 0.077794
vn 0.084162 -0.254347 0.963444
v 0.008758 -0.016919 0.083706
vn 0.093804 0.197067 0.975892
v 0.008410 0.018010 0.081047
vn 0.424881 0.257576 0.867831
v 0.033695 0.016575 0.075127
vn -0.624825 -0.016102 0.780599
v -0.041958 -0.003568 0.073394
vn 0.998859 0.043864 -0.018881
v 0.057705 0.027834 -0.311126
vn 0.986939 0.161002 -0.005501
v 0.059384 0.036353 -0.040022
vn 0.434852 -0.293251 -0.851415
v 0.038897 -0.028209 -0.350669
vn 0.304890 -0.943436 -0.130269
v 0.036654 -0.044938 -0.310640
vn 0.889897 0.007751 -0.456096
v 0.056030 0.020462 -0.334341
vn 0.999998 -0.000743 -0.002092
v 0.060271 0.000189 -0.004045
vn -0.416617 -0.467662 -0.779566
v 0.010664 -0.030754 -0.349862
vn -0.795599 -0.369041 -0.480448
v -0.009806 -0.030764 -0.325863
vn 0.010224 0.995152 0.097814
v 0.001795 0.065849 0.005819
vn 0.605375 0.791989 0.079221
v 0.050597 0.047902 0.008189
vn 0.886656 0.462341 -0.009008
v 0.055563 0.045980 -0.307768
vn 0.497970 0.867167 0.006919
v 0.039484 0.056869 -0.071997
vn -0.232294 0.971588 -0.045351
v -0.012386 0.060021 -0.211415
vn -0.399296 0.915531 -0.048629
v -0.027157 0.059016 -0.141343
vn -0.788407 0.611675 -0.065332
v -0.040151 0.049083 -0.139087
vn -0.888865 0.458110 -0.007373
v -0.048955 0.044715 -0.005201
vn -0.940617 0.333680 -0.062426
v -0.047069 0.035345 -0.138332
vn -0.970850 0.036990 -0.236817
v -0.046766 0.002333 -0.256603
vn -0.958420 0.275899 -0.072874
v -0.045312 0.022630 -0.220230
vn -0.998923 -0.014499 0.044074
v -0.060566 -0.000252 0.038794
vn -0.998666 0.013231 -0.049903
v -0.055275 -0.007693 -0.138418
vn -0.951109 0.305431 -0.045859
v -0.049271 0.040327 -0.073235
vn -0.868093 0.030029 -0.495493
v -0.017734 0.026454 -0.314088
vn -0.147177 -0.017520 -0.988955
v 0.020992 -0.015664 -0.353891
vn -0.524006 0.327188 -0.786363
v 0.008463 0.045046 -0.348902
vn 0.667457 0.554282 0.497265
v 0.045976 0.038004 0.054323
vn -0.209297 0.143127 0.967321
v -0.018207 0.011386 0.080594
vn -0.237806 -0.159567 0.958116
v -0.018689 -0.015057 0.082271
vn -0.134738 -0.448096 0.883774
v -0.012216 -0.020513 0.081841
vn -0.916693 -0.205825 0.342507
v -0.058883 -0.014850 0.048381
vn 0.454417 -0.720004 -0.524499
v 0.043527 -0.035646 -0.342551
vn 0.885252 -0.039243 -0.463454
v 0.055491 -0.017178 -0.334749
vn -0.461774 -0.012107 -0.886915
v 0.009726 -0.015561 -0.350512
vn 0.021601 -0.437464 -0.898976
v 0.024685 -0.030094 -0.353359
vn -0.667321 0.741824 -0.066186
v -0.030746 0.052266 -0.209971
vn -0.994818 -0.077954 -0.065268
v -0.051143 -0.009399 -0.207897
vn -0.995420 -0.091682 -0.027092
v -0.058252 -0.005328 -0.049478
vn -0.314439 0.027347 -0.948884
v 0.014909 0.032022 -0.352476
vn -0.712215 0.034718 -0.701102
v 0.001567 0.024986 -0.344737
# 118 vertices, 0 vertices normals

f 24//24 20//20 11//11
f 24//24 4//4 20//20
f 27//27 24//24 11//11
f 27//27 21//21 24//24
f 27//27 8//8 21//21
f 34//34 10//10 18//18
f 37//37 20//20 4//4
f 37//37 4//4 32//32
f 40//40 14//14 22//22
f 43//43 23//23 9//9
f 43//43 9//9 30//30
f 44//44 23//23 41//41
f 45//45 13//13 24//24
f 45//45 24//24 21//21
f 45//45 21//21 8//8
f 46//46 4//4 24//24
f 46//46 32//32 4//4
f 48//48 46//46 24//24
f 48//48 24//24 13//13
f 49//49 5//5 39//39
f 50//50 26//26 14//14
f 50//50 40//40 8//8
f 50//50 14//14 40//40
f 51//51 22//22 14//14
f 51//51 14//14 26//26
f 51//51 49//49 39//39
f 51//51 39//39 22//22
f 52//52 27//27 11//11
f 52//52 11//11 20//20
f 53//53 28//28 15//15
f 55//55 54//54 7//7
f 55//55 28//28 54//54
f 55//55 35//35 19//19
f 55//55 7//7 35//35
f 56//56 28//28 55//55
f 56//56 55//55 19//19
f 57//57 28//28 56//56
f 58//58 29//29 15//15
f 58//58 15//15 28//28
f 58//58 57//57 29//29
f 58//58 28//28 57//57
f 59//59 9//9 29//29
f 59//59 30//30 9//9
f 59//59 16//16 30//30
f 60//60 43//43 30//30
f 60//60 17//17 42//42
f 60//60 42//42 43//43
f 63//63 17//17 60//60
f 63//63 31//31 62//62
f 64//64 61//61 18//18
f 65//65 37//37 6//6
f 65//65 20//20 37//37
f 65//65 64//64 33//33
f 65//65 6//6 64//64
f 66//66 34//34 3//3
f 66//66 10//10 34//34
f 66//66 57//57 56//56
f 66//66 3//3 57//57
f 67//67 34//34 18//18
f 67//67 18//18 61//61
f 68//68 19//19 35//35
f 71//71 12//12 38//38
f 71//71 40//40 22//22
f 71//71 38//38 40//40
f 71//71 39//39 12//12
f 71//71 22//22 39//39
f 72//72 38//38 12//12
f 73//73 38//38 72//72
f 73//73 45//45 8//8
f 73//73 13//13 45//45
f 73//73 40//40 38//38
f 73//73 8//8 40//40
f 73//73 72//72 25//25
f 73//73 25//25 13//13
f 74//74 39//39 5//5
f 74//74 12//12 39//39
f 75//75 41//41 23//23
f 75//75 43//43 42//42
f 75//75 23//23 43//43
f 76//76 72//72 47//47
f 76//76 25//25 72//72
f 77//77 41//41 75//75
f 77//77 76//76 47//47
f 77//77 2//2 76//76
f 78//78 72//72 12//12
f 78//78 47//47 72//72
f 78//78 12//12 74//74
f 78//78 77//77 47//47
f 78//78 41//41 77//77
f 79//79 42//42 17//17
f 80//80 49//49 26//26
f 80//80 26//26 7//7
f 81//81 7//7 5//5
f 81//81 5//5 49//49
f 81//81 80//80 7//7
f 81//81 49//49 80//80
f 82//82 68//68 35//35
f 82//82 1//1 68//68
f 83//83 50//50 8//8
f 83//83 8//8 27//27
f 84//84 35//35 7//7
f 84//84 7//7 26//26
f 85//85 51//51 26//26
f 85//85 26//26 49//49
f 85//85 49//49 51//51
f 86//86 52//52 36//36
f 86//86 27//27 52//52
f 87//87 36//36 52//52
f 87//87 65//65 33//33
f 87//87 70//70 36//36
f 87//87 33//33 70//70
f 87//87 52//52 20//20
f 87//87 20//20 65//65
f 88//88 53//53 15//15
f 88//88 15//15 29//29
f 88//88 29//29 9//9
f 88//88 9//9 23//23
f 88//88 23//23 44//44
f 88//88 44//44 53//53
f 89//89 53//53 44//44
f 89//89 44//44 5//5
f 89//89 5//5 54//54
f 90//90 54//54 5//5
f 90//90 5//5 7//7
f 90//90 7//7 54//54
f 91//91 54//54 28//28
f 91//91 28//28 53//53
f 91//91 89//89 54//54
f 91//91 53//53 89//89
f 92//92 57//57 3//3
f 92//92 3//3 29//29
f 92//92 29//29 57//57
f 93//93 59//59 29//29
f 93//93 29//29 3//3
f 93//93 3//3 59//59
f 94//94 16//16 59//59
f 94//94 67//67 16//16
f 94//94 34//34 67//67
f 95//95 60//60 30//30
f 95//95 30//30 16//16
f 95//95 16//16 60//60
f 96//96 16//16 67//67
f 97//97 64//64 6//6
f 97//97 61//61 64//64
f 98//98 62//62 31//31
f 98//98 31//31 96//96
f 98//98 97//97 62//62
f 98//98 61//61 97//97
f 98//98 96//96 67//67
f 98//98 67//67 61//61
f 99//99 17//17 63//63
f 100//100 63//63 62//62
f 101//101 63//63 60//60
f 101//101 60//60 16//16
f 101//101 16//16 96//96
f 101//101 96//96 31//31
f 101//101 31//31 63//63
f 102//102 64//64 18//18
f 102//102 18//18 10//10
f 102//102 33//33 64//64
f 102//102 70//70 33//33
f 102//102 10//10 70//70
f 103//103 68//68 1//1
f 103//103 19//19 68//68
f 104//104 56//56 19//19
f 104//104 66//66 56//56
f 104//104 10//10 66//66
f 105//105 74//74 5//5
f 105//105 5//5 44//44
f 105//105 44//44 41//41
f 105//105 78//78 74//74
f 105//105 41//41 78//78
f 106//106 77//77 75//75
f 106//106 2//2 77//77
f 106//106 75//75 42//42
f 106//106 42//42 79//79
f 107//107 76//76 2//2
f 107//107 2//2 106//106
f 107//107 106//106 79//79
f 107//107 79//79 48//48
f 108//108 13//13 25//25
f 108//108 25//25 76//76
f 108//108 76//76 107//107
f 108//108 107//107 48//48
f 108//108 48//48 13//13
f 109//109 79//79 17//17
f 109//109 17//17 99//99
f 109//109 46//46 48//48
f 109//109 48//48 79//79
f 109//109 32//32 46//46
f 110//110 82//82 50//50
f 110//110 83//83 27//27
f 110//110 50//50 83//83
f 111//111 82//82 35//35
f 111//111 35//35 84//84
f 111//111 50//50 82//82
f 111//111 84//84 26//26
f 111//111 26//26 50//50
f 112//112 86//86 36//36
f 112//112 69//69 86//86
f 113//113 27//27 86//86
f 113//113 1//1 82//82
f 113//113 110//110 27//27
f 113//113 82//82 110//110
f 113//113 86//86 69//69
f 113//113 103//103 1//1
f 113//113 69//69 103//103
f 114//114 94//94 59//59
f 114//114 59//59 3//3
f 114//114 3//3 34//34
f 114//114 34//34 94//94
f 115//115 97//97 6//6
f 115//115 6//6 37//37
f 115//115 100//100 62//62
f 115//115 62//62 97//97
f 115//115 37//37 32//32
f 115//115 32//32 100//100
f 116//116 99//99 63//63
f 116//116 63//63 100//100
f 116//116 100//100 32//32
f 116//116 109//109 99//99
f 116//116 32//32 109//109
f 117//117 103//103 69//69
f 117//117 19//19 103//103
f 117//117 69//69 112//112
f 117//117 112//112 104//104
f 117//117 104//104 19//19
f 118//118 36//36 70//70
f 118//118 112//112 36//36
f 118//118 104//104 112//112
f 118//118 70//70 10//10
f 118//118 10//10 104//104
# 232 faces, 0 coords texture

# End of File
