####
#
# OBJ File Generated by Meshlab
#
####
# Object left_tooth.obj
#
# Vertices: 75
# Faces: 146
#
####
vn 0.485257 -3.618000 0.221533
v 0.114216 0.016201 -0.058831
vn -0.348495 0.471487 0.602783
v 0.093419 0.031312 -0.043062
vn 1.648759 3.798424 -1.774092
v 0.113647 0.025738 -0.057692
vn -3.756242 0.338835 -4.658153
v 0.096588 0.024531 -0.053215
vn 2.584122 0.290285 1.307562
v 0.117750 0.022625 -0.055971
vn -1.557320 -0.488319 -5.747694
v 0.110100 0.019682 -0.060336
vn -0.108801 4.038564 -1.166045
v 0.099355 0.030948 -0.050349
vn -1.450922 -2.750694 0.729459
v 0.091495 0.024266 -0.046805
vn 3.085955 1.398189 -5.117655
v 0.115408 0.022620 -0.058564
vn -4.106016 2.803298 -3.741672
v 0.095534 0.025205 -0.051900
vn 2.666619 1.719851 3.866343
v 0.110899 0.025074 -0.052334
vn -1.731717 2.328987 -5.477412
v 0.108792 0.020793 -0.059709
vn -3.120846 -4.363077 -3.053098
v 0.108580 0.019481 -0.059226
vn 4.784630 0.076829 -3.761822
v 0.117076 0.021233 -0.057579
vn 2.827242 3.441671 -1.579750
v 0.115728 0.024467 -0.057546
vn 0.908144 2.461801 -5.618914
v 0.113328 0.023891 -0.058710
vn 2.608603 -0.150085 -5.555116
v 0.113671 0.018093 -0.060035
vn -3.609143 2.545904 -4.275567
v 0.096391 0.025099 -0.052831
vn -0.484428 4.161616 -0.756904
v 0.098215 0.031112 -0.049168
vn -1.177491 -0.107721 0.660981
v 0.090685 0.025447 -0.045826
vn 1.595311 -3.182817 5.177154
v 0.092781 0.029593 -0.043922
vn 2.459829 -0.691333 5.097509
v 0.116788 0.022968 -0.055460
vn -2.495152 0.207289 -5.512729
v 0.108606 0.020355 -0.059765
vn 0.796025 3.993738 -1.619775
v 0.111473 0.026701 -0.056977
vn -1.700374 -3.516367 -4.388093
v 0.111751 0.018234 -0.060248
vn -0.764502 -4.285376 1.440379
v 0.112591 0.016651 -0.058049
vn -3.253720 -4.499486 -2.805367
v 0.097054 0.023571 -0.053040
vn 3.270894 -1.550328 0.679118
v 0.117423 0.020788 -0.057001
vn 3.084569 4.798901 2.579153
v 0.113918 0.023995 -0.053937
vn 4.052104 0.744947 -4.520791
v 0.116925 0.021382 -0.057722
vn -1.148993 1.856995 -5.725722
v 0.109899 0.020348 -0.060180
vn 2.056870 1.986912 -5.476108
v 0.114984 0.022910 -0.058669
vn 3.430096 -2.346389 -0.714544
v 0.115094 0.016762 -0.058842
vn -4.517450 0.798880 -3.985619
v 0.095401 0.024781 -0.051990
vn -2.178739 2.479557 -5.256496
v 0.098012 0.024645 -0.053988
vn 2.546336 1.451701 3.822019
v 0.105444 0.027023 -0.049439
vn -3.943023 2.803123 -3.949352
v 0.095909 0.025158 -0.052308
vn 1.575979 -3.190150 5.178477
v 0.090751 0.025229 -0.045980
vn 0.365277 0.541997 0.323033
v 0.112698 0.024430 -0.053289
vn -2.468073 -2.991989 -4.495315
v 0.109939 0.019237 -0.060128
vn -0.250377 2.877436 -5.523829
v 0.112619 0.024244 -0.058570
vn 0.955851 -2.041728 -5.420039
v 0.113370 0.017676 -0.060090
vn 0.524284 0.843534 -6.006517
v 0.111860 0.019331 -0.060470
vn -2.375516 -5.070553 -2.708659
v 0.113506 0.016449 -0.058830
vn -0.111031 -4.117344 0.955530
v 0.113933 0.016231 -0.058724
vn -0.927976 -3.864919 1.258070
v 0.092197 0.023938 -0.047225
vn -3.385180 -2.668631 -4.240690
v 0.097740 0.023652 -0.053831
vn 3.797894 2.874361 -0.976190
v 0.117396 0.023080 -0.056562
vn -1.217548 3.077575 -5.322155
v 0.111153 0.024853 -0.057995
vn 1.602056 0.345873 -5.908680
v 0.112674 0.018814 -0.060369
vn 3.308870 -0.946383 -5.079358
v 0.114456 0.017416 -0.059511
vn 1.902577 -2.944841 0.017807
v 0.114726 0.016377 -0.058881
vn -4.443569 -1.889749 -3.706513
v 0.095427 0.024316 -0.051953
vn -2.789566 2.441462 -4.909565
v 0.097137 0.024924 -0.053443
vn -2.982761 0.236342 -5.228022
v 0.097832 0.024221 -0.054043
vn 0.439640 4.067055 -1.465047
v 0.100693 0.030553 -0.051256
vn 2.070034 -2.216219 5.392638
v 0.106318 0.026710 -0.049903
vn -1.602684 -1.880315 0.573112
v 0.091011 0.024652 -0.046417
vn -1.416693 -0.787462 0.528944
v 0.090740 0.025003 -0.046116
vn 0.661515 -4.313609 4.150270
v 0.103461 0.019914 -0.053202
vn -3.094641 -2.339944 -4.691218
v 0.108534 0.019971 -0.059642
vn -2.829598 -4.764417 -2.852651
v 0.110423 0.018618 -0.059720
vn -0.162690 -1.261502 -5.835003
v 0.112021 0.018618 -0.060463
vn -0.179137 1.246366 -5.967264
v 0.110765 0.019935 -0.060394
vn -0.876089 -4.104089 -4.152516
v 0.113335 0.017081 -0.059700
vn -0.405573 -4.104052 1.137996
v 0.113684 0.016268 -0.058624
vn -3.898812 -3.828501 -3.022097
v 0.095596 0.023960 -0.051809
vn -3.394673 -4.450337 -2.692180
v 0.096418 0.023720 -0.052519
vn -3.159195 -4.583673 -2.789708
v 0.097800 0.023333 -0.053505
vn 4.868453 -1.111921 0.435680
v 0.117537 0.021427 -0.056643
vn 1.159099 -3.561542 0.169188
v 0.114427 0.016255 -0.058863
vn 1.869159 -2.925992 -4.823973
v 0.114379 0.016771 -0.059335
vn -3.815919 -2.417040 -3.954593
v 0.096577 0.024031 -0.053084
vn -1.031104 -3.735417 1.197714
v 0.092063 0.023997 -0.047147
vn -0.591173 1.832229 -5.925635
v 0.110259 0.020177 -0.060269
# 75 vertices, 0 vertices normals

f 19//19 11//11 7//7
f 19//19 7//7 18//18
f 20//20 19//19 10//10
f 20//20 2//2 19//19
f 21//21 2//2 20//20
f 22//22 5//5 11//11
f 24//24 15//15 3//3
f 24//24 7//7 11//11
f 24//24 11//11 15//15
f 28//28 5//5 22//22
f 29//29 15//15 11//11
f 29//29 11//11 5//5
f 29//29 5//5 15//15
f 30//30 9//9 15//15
f 30//30 17//17 9//9
f 31//31 23//23 12//12
f 31//31 6//6 23//23
f 32//32 15//15 9//9
f 32//32 16//16 3//3
f 32//32 3//3 15//15
f 33//33 14//14 28//28
f 34//34 18//18 4//4
f 34//34 20//20 10//10
f 36//36 19//19 2//2
f 36//36 11//11 19//19
f 37//37 19//19 18//18
f 37//37 10//10 19//19
f 37//37 34//34 10//10
f 37//37 18//18 34//34
f 38//38 21//21 20//20
f 39//39 21//21 22//22
f 41//41 24//24 3//3
f 41//41 3//3 16//16
f 43//43 16//16 32//32
f 45//45 44//44 1//1
f 45//45 28//28 22//22
f 48//48 14//14 30//30
f 48//48 30//30 15//15
f 48//48 15//15 5//5
f 49//49 31//31 12//12
f 49//49 12//12 35//35
f 49//49 41//41 31//31
f 49//49 24//24 41//41
f 50//50 32//32 9//9
f 50//50 9//9 17//17
f 50//50 43//43 32//32
f 50//50 17//17 42//42
f 51//51 30//30 14//14
f 51//51 14//14 33//33
f 51//51 17//17 30//30
f 51//51 42//42 17//17
f 52//52 33//33 28//28
f 53//53 34//34 4//4
f 54//54 4//4 18//18
f 54//54 18//18 7//7
f 55//55 35//35 12//12
f 55//55 12//12 23//23
f 55//55 54//54 35//35
f 55//55 4//4 54//54
f 56//56 7//7 24//24
f 56//56 54//54 7//7
f 56//56 35//35 54//54
f 56//56 49//49 35//35
f 56//56 24//24 49//49
f 57//57 22//22 11//11
f 57//57 11//11 36//36
f 57//57 21//21 39//39
f 57//57 39//39 22//22
f 57//57 36//36 2//2
f 57//57 2//2 21//21
f 58//58 53//53 8//8
f 58//58 34//34 53//53
f 59//59 38//38 20//20
f 59//59 20//20 34//34
f 59//59 34//34 58//58
f 59//59 58//58 8//8
f 60//60 22//22 21//21
f 60//60 21//21 38//38
f 60//60 45//45 22//22
f 60//60 46//46 26//26
f 61//61 23//23 6//6
f 61//61 6//6 40//40
f 61//61 55//55 23//23
f 61//61 47//47 55//55
f 61//61 40//40 13//13
f 61//61 13//13 47//47
f 62//62 40//40 25//25
f 62//62 13//13 40//40
f 62//62 25//25 44//44
f 62//62 44//44 26//26
f 62//62 26//26 13//13
f 63//63 40//40 6//6
f 63//63 25//25 40//40
f 63//63 6//6 43//43
f 63//63 43//43 50//50
f 63//63 50//50 42//42
f 63//63 42//42 25//25
f 64//64 41//41 16//16
f 64//64 16//16 43//43
f 64//64 43//43 6//6
f 65//65 25//25 42//42
f 65//65 44//44 25//25
f 65//65 1//1 44//44
f 66//66 26//26 44//44
f 66//66 44//44 45//45
f 66//66 60//60 26//26
f 66//66 45//45 60//60
f 67//67 8//8 53//53
f 68//68 13//13 26//26
f 68//68 26//26 46//46
f 69//69 47//47 13//13
f 69//69 27//27 47//47
f 69//69 68//68 27//27
f 69//69 13//13 68//68
f 70//70 28//28 14//14
f 70//70 14//14 48//48
f 70//70 48//48 5//5
f 70//70 5//5 28//28
f 71//71 45//45 1//1
f 71//71 52//52 28//28
f 71//71 28//28 45//45
f 72//72 51//51 33//33
f 72//72 33//33 52//52
f 72//72 42//42 51//51
f 72//72 65//65 42//42
f 72//72 52//52 71//71
f 72//72 71//71 1//1
f 72//72 1//1 65//65
f 73//73 53//53 4//4
f 73//73 55//55 47//47
f 73//73 4//4 55//55
f 73//73 68//68 67//67
f 73//73 67//67 53//53
f 73//73 47//47 27//27
f 73//73 27//27 68//68
f 74//74 59//59 8//8
f 74//74 8//8 67//67
f 74//74 46//46 60//60
f 74//74 68//68 46//46
f 74//74 67//67 68//68
f 74//74 60//60 38//38
f 74//74 38//38 59//59
f 75//75 31//31 41//41
f 75//75 41//41 64//64
f 75//75 64//64 6//6
f 75//75 6//6 31//31
# 146 faces, 0 coords texture

# End of File
