####
#
# OBJ File Generated by Meshlab
#
####
# Object front_right_upper_leg_collision.obj
#
# Vertices: 119
# Faces: 234
#
####
vn 0.340740 -0.081172 -6.191964
v 0.025371 -0.021148 -0.353878
vn 0.441625 1.510348 5.606359
v 0.008331 0.017159 0.083817
vn -4.382140 -4.119908 0.419701
v -0.046329 -0.049235 0.007031
vn -4.868003 3.342212 0.000688
v -0.040306 0.072641 0.003635
vn 4.933887 -2.399646 0.906347
v 0.059243 -0.037883 0.020526
vn -5.217796 1.141389 1.939421
v -0.059224 0.014928 0.048249
vn -0.551219 -4.732502 2.944134
v -0.005984 -0.055234 0.059037
vn 2.483159 4.706447 0.366741
v 0.033605 0.082208 -0.003741
vn -0.603359 4.549143 3.526636
v -0.005237 0.072495 0.040042
vn -5.883434 0.072443 -1.342167
v -0.047251 0.000213 -0.255339
vn 2.547028 -1.630177 5.188160
v 0.033133 -0.019013 0.074952
vn -1.033385 -6.056529 -0.661523
v 0.000218 -0.058981 -0.295659
vn -3.014215 -3.794169 2.763945
v -0.038735 -0.043822 0.056246
vn 4.156134 2.503338 -1.592912
v 0.055676 0.031027 -0.331161
vn -2.854825 1.942500 4.524340
v -0.035795 0.015152 0.076001
vn -2.362887 4.257408 1.288956
v -0.032122 0.081077 0.015276
vn 1.954862 4.377975 2.911473
v 0.019625 0.073199 0.035206
vn -6.067872 1.349778 -0.299336
v -0.055034 0.010832 -0.138483
vn 1.858182 -4.912720 2.135309
v 0.025428 -0.056391 0.048495
vn -1.076349 -2.547160 5.276963
v -0.013392 -0.030070 0.077321
vn 5.373786 1.601539 1.995888
v 0.057386 0.022895 0.035847
vn -1.078566 -6.053119 -0.020048
v -0.013224 -0.066885 -0.060281
vn -5.051350 -1.408664 -3.101093
v -0.009797 -0.044900 -0.326406
vn 3.949301 -4.421508 -0.266786
v 0.052356 -0.051741 -0.307921
vn -4.984584 -2.118242 1.602523
v -0.058193 -0.024459 0.046344
vn -2.227222 -5.562900 0.867190
v -0.028726 -0.059625 0.017425
vn -2.633103 2.593419 -4.160246
v 0.008149 0.030372 -0.348479
vn -0.863822 2.659763 5.209627
v -0.012895 0.020419 0.081771
vn -4.969486 2.338807 1.770983
v -0.057824 0.020536 0.046228
vn 1.182736 3.029965 5.093637
v 0.015932 0.021482 0.080557
vn 0.099521 6.032763 0.776854
v 0.001095 0.083777 0.008216
vn -5.732950 1.970902 -0.670147
v -0.049629 0.012453 -0.220889
vn 1.250392 -3.026263 4.851314
v 0.016561 -0.035789 0.074473
vn 3.795293 -3.146879 2.903683
v 0.045716 -0.037246 0.055719
vn -3.146824 -1.680342 4.687682
v -0.038355 -0.019383 0.072042
vn 5.445681 1.915982 1.150782
v 0.059035 0.032482 0.020489
vn -2.843515 -5.277722 -0.687993
v -0.019837 -0.055058 -0.279923
vn 2.179245 -3.090809 -2.816469
v 0.043391 -0.051008 -0.344262
vn 6.268785 -0.316935 -0.137399
v 0.057677 -0.028011 -0.310936
vn 2.175385 -5.739294 0.349914
v 0.029026 -0.061548 -0.005577
vn 1.254368 -5.888477 -0.543418
v 0.036947 -0.058799 -0.310483
vn -6.228621 0.052899 0.205784
v -0.060593 0.000103 0.038433
vn -6.175423 -0.785191 -0.220723
v -0.058361 -0.009621 -0.049398
vn -3.580496 -4.860966 -0.082272
v -0.039504 -0.056729 -0.059594
vn 0.004635 -6.108065 0.596354
v 0.000881 -0.065930 0.005746
vn 2.407337 1.702265 -4.645359
v 0.039314 0.028085 -0.350298
vn -5.372542 1.066956 -2.847569
v -0.017789 0.025094 -0.313975
vn -2.891635 -1.690617 -4.547215
v 0.008533 -0.044873 -0.348916
vn -0.752650 4.999258 -2.235221
v 0.016514 0.042780 -0.337876
vn -1.281101 -0.873180 5.985576
v -0.017970 -0.010800 0.080755
vn 4.170797 2.985834 3.345221
v 0.040291 0.027342 0.060819
vn 2.683427 1.679058 4.639029
v 0.032827 0.015446 0.077871
vn -6.152948 0.512736 -0.397730
v -0.051213 0.009440 -0.207834
vn 0.425586 -1.268458 5.997152
v 0.005842 -0.018684 0.081280
vn 4.802472 -1.295089 3.110523
v 0.049316 -0.022657 0.060185
vn -3.594529 0.113711 4.574376
v -0.041523 0.004144 0.073893
vn 4.661350 3.467318 1.265439
v 0.040067 0.072991 0.003836
vn 6.060645 -0.022485 1.256923
v 0.059099 0.000031 0.033462
vn -1.446026 -6.105342 -0.279148
v -0.012176 -0.060249 -0.211405
vn -3.382823 -3.734500 -2.359337
v -0.004950 -0.050705 -0.329794
vn -5.513545 -1.535964 -1.783440
v -0.033893 -0.037357 -0.282997
vn 4.550262 -1.898912 -1.737398
v 0.056163 -0.043420 -0.332456
vn 6.222630 0.245280 -0.434618
v 0.058707 0.014858 -0.316009
vn 3.828147 -4.809510 0.501715
v 0.050525 -0.047833 0.008203
vn -0.075181 -6.275542 -0.205397
v 0.000830 -0.064600 -0.141445
vn -5.335252 -0.847512 2.011487
v -0.059230 -0.017673 0.048224
vn -6.235824 0.527969 -0.173632
v -0.058322 0.005206 -0.049667
vn -5.399456 -2.971048 -0.244758
v -0.047560 -0.046142 -0.070155
vn -2.508126 -5.698965 -0.293111
v -0.027263 -0.059074 -0.141383
vn 1.024598 -6.113855 -0.033008
v 0.015021 -0.066317 -0.072192
vn 0.040031 2.454113 -4.899920
v 0.023404 0.029709 -0.353229
vn 2.659090 -0.564829 -5.296825
v 0.038759 -0.033310 -0.350936
vn -4.921764 0.227100 -3.773196
v -0.002151 0.015298 -0.340753
vn -5.325464 2.158919 -1.910575
v -0.029559 0.029859 -0.286162
vn 1.803211 5.785478 -0.824004
v 0.036499 0.044582 -0.310646
vn -0.858069 6.078812 -0.758189
v -0.012019 0.080004 -0.034488
vn 2.480679 3.908391 -2.857170
v 0.042981 0.035258 -0.342721
vn -1.461947 0.994933 5.693051
v -0.019608 0.014902 0.082156
vn 1.669213 -0.364305 5.977236
v 0.025522 0.004225 0.080148
vn 4.054374 0.218344 3.814174
v 0.044924 0.000505 0.071646
vn -6.238431 -0.066017 -0.309892
v -0.055340 0.007502 -0.138291
vn -0.032405 -0.283693 6.223457
v 0.000906 0.006573 0.083814
vn 6.171104 0.768368 0.090870
v 0.060120 0.028020 0.008192
vn -1.140145 -4.264335 -2.832973
v 0.012933 -0.053508 -0.345210
vn -5.456519 -0.175252 -3.100379
v -0.017747 -0.026986 -0.313955
vn -5.609030 0.210166 -2.775360
v -0.031602 0.000966 -0.289655
vn -4.677935 -3.272862 -1.542941
v -0.029177 -0.045623 -0.286847
vn 6.216685 -0.718240 -0.039767
v 0.059593 -0.034597 -0.039877
vn 5.730498 -2.431402 -0.065519
v 0.055471 -0.046365 -0.307630
vn 4.937175 -0.122286 -3.583289
v 0.054253 -0.020753 -0.337525
vn 5.266009 0.331598 -2.696772
v 0.055821 0.017236 -0.334400
vn 3.240712 -5.364130 0.066052
v 0.040899 -0.055944 -0.072238
vn -5.565833 -2.872055 -0.033617
v -0.048981 -0.044786 -0.004884
vn -6.009000 -1.794013 -0.284469
v -0.049419 -0.040163 -0.073154
vn 0.737294 0.181583 -6.166253
v 0.026350 0.016870 -0.353831
vn -1.825635 0.981075 -5.686328
v 0.014435 0.025675 -0.352359
vn -0.025188 -1.824508 -5.296190
v 0.022719 -0.043312 -0.353367
vn -4.736629 2.313406 -2.856804
v -0.009670 0.030482 -0.325891
vn -4.236640 -0.236410 -4.433791
v 0.002653 -0.024996 -0.345588
vn -5.786654 1.591160 -1.511273
v -0.046141 0.004949 -0.256034
vn -4.075434 4.129907 -1.322949
v -0.027694 0.033345 -0.285213
vn -6.194109 -0.904691 -0.414122
v -0.049912 -0.004935 -0.207705
vn 6.266189 -0.253661 0.111292
v 0.060117 -0.028581 0.008060
vn 6.064991 1.400129 -0.140267
v 0.057521 0.026709 -0.311452
vn -5.780912 -1.104372 -1.477878
v -0.042142 -0.020964 -0.266370
vn -5.491108 -2.903257 -0.484046
v -0.038392 -0.041228 -0.220957
vn -4.028702 -4.724157 -0.402397
v -0.030257 -0.052930 -0.210027
vn 3.551686 0.067937 -5.098380
v 0.039954 0.014540 -0.350061
vn -0.708285 0.075868 -6.200808
v 0.020950 0.015323 -0.353787
vn -2.088937 -0.119761 -5.843958
v 0.013262 -0.024884 -0.351790
vn -4.133675 1.151810 -4.201163
v 0.002817 0.025252 -0.345570
vn -3.523954 4.215411 -2.394385
v -0.004307 0.034494 -0.329218
vn -2.582844 5.608526 -1.052700
v -0.019635 0.037969 -0.283314
vn -6.131902 -1.262480 -0.355463
v -0.052310 -0.016349 -0.138117
vn 6.283084 -0.000789 -0.011245
v 0.060156 -0.000106 -0.004066
vn -6.009501 -1.695292 -0.468170
v -0.045593 -0.022067 -0.220340
vn -4.775794 -3.951946 -0.402538
v -0.039449 -0.050378 -0.139486
vn -3.008748 0.068090 -5.462603
v 0.009390 0.015230 -0.350295
vn -5.875602 -2.123588 -0.394634
v -0.046878 -0.036420 -0.138340
# 119 vertices, 0 vertices normals

f 16//16 15//15 9//9
f 20//20 13//13 7//7
f 25//25 3//3 13//13
f 26//26 13//13 3//3
f 26//26 7//7 13//13
f 28//28 9//9 15//15
f 29//29 16//16 4//4
f 29//29 18//18 6//6
f 29//29 4//4 18//18
f 29//29 6//6 15//15
f 29//29 15//15 16//16
f 30//30 17//17 9//9
f 30//30 28//28 2//2
f 30//30 9//9 28//28
f 31//31 16//16 9//9
f 31//31 9//9 17//17
f 31//31 17//17 8//8
f 32//32 18//18 4//4
f 33//33 7//7 19//19
f 33//33 20//20 7//7
f 34//34 19//19 5//5
f 34//34 33//33 19//19
f 34//34 11//11 33//33
f 35//35 13//13 20//20
f 35//35 25//25 13//13
f 41//41 24//24 40//40
f 41//41 38//38 24//24
f 44//44 26//26 3//3
f 44//44 22//22 26//26
f 45//45 19//19 7//7
f 45//45 7//7 26//26
f 45//45 40//40 19//19
f 45//45 26//26 22//22
f 50//50 35//35 20//20
f 52//52 30//30 2//2
f 52//52 51//51 17//17
f 52//52 17//17 30//30
f 53//53 32//32 10//10
f 53//53 18//18 32//32
f 54//54 33//33 11//11
f 54//54 20//20 33//33
f 54//54 50//50 20//20
f 55//55 34//34 5//5
f 55//55 11//11 34//34
f 56//56 15//15 6//6
f 56//56 35//35 50//50
f 57//57 36//36 14//14
f 57//57 14//14 8//8
f 57//57 8//8 17//17
f 57//57 17//17 51//51
f 57//57 51//51 21//21
f 57//57 21//21 36//36
f 58//58 36//36 21//21
f 58//58 55//55 5//5
f 59//59 37//37 12//12
f 59//59 12//12 22//22
f 59//59 22//22 37//37
f 60//60 12//12 37//37
f 60//60 23//23 48//48
f 62//62 24//24 38//38
f 63//63 39//39 62//62
f 64//64 24//24 5//5
f 64//64 5//5 19//19
f 64//64 19//19 40//40
f 65//65 22//22 12//12
f 65//65 12//12 41//41
f 66//66 6//6 42//42
f 66//66 43//43 25//25
f 66//66 42//42 43//43
f 66//66 56//56 6//6
f 66//66 25//25 35//35
f 66//66 35//35 56//56
f 67//67 42//42 6//6
f 67//67 6//6 18//18
f 67//67 43//43 42//42
f 68//68 44//44 3//3
f 69//69 44//44 37//37
f 69//69 37//37 22//22
f 69//69 22//22 44//44
f 70//70 41//41 40//40
f 70//70 40//40 45//45
f 70//70 65//65 41//41
f 70//70 45//45 22//22
f 70//70 22//22 65//65
f 71//71 27//27 49//49
f 74//74 47//47 10//10
f 75//75 49//49 8//8
f 75//75 8//8 14//14
f 76//76 31//31 8//8
f 76//76 8//8 49//49
f 76//76 49//49 16//16
f 76//76 16//16 31//31
f 77//77 14//14 46//46
f 77//77 75//75 14//14
f 77//77 49//49 75//75
f 77//77 71//71 49//49
f 77//77 46//46 71//71
f 78//78 2//2 28//28
f 78//78 28//28 15//15
f 78//78 56//56 50//50
f 78//78 15//15 56//56
f 79//79 52//52 2//2
f 79//79 54//54 11//11
f 79//79 2//2 54//54
f 80//80 21//21 51//51
f 80//80 51//51 52//52
f 80//80 58//58 21//21
f 80//80 55//55 58//58
f 80//80 11//11 55//55
f 80//80 79//79 11//11
f 80//80 52//52 79//79
f 81//81 18//18 53//53
f 81//81 67//67 18//18
f 81//81 43//43 67//67
f 82//82 54//54 2//2
f 82//82 50//50 54//54
f 82//82 78//78 50//50
f 82//82 2//2 78//78
f 83//83 36//36 58//58
f 84//84 60//60 48//48
f 84//84 38//38 41//41
f 84//84 41//41 12//12
f 84//84 12//12 60//60
f 85//85 23//23 61//61
f 85//85 73//73 23//23
f 85//85 47//47 73//73
f 86//86 10//10 47//47
f 86//86 85//85 61//61
f 86//86 47//47 85//85
f 87//87 60//60 37//37
f 87//87 61//61 23//23
f 87//87 23//23 60//60
f 88//88 62//62 39//39
f 88//88 5//5 62//62
f 89//89 62//62 5//5
f 89//89 5//5 24//24
f 89//89 24//24 62//62
f 90//90 62//62 38//38
f 90//90 38//38 72//72
f 91//91 63//63 62//62
f 91//91 14//14 63//63
f 91//91 62//62 90//90
f 91//91 90//90 46//46
f 91//91 46//46 14//14
f 92//92 64//64 40//40
f 92//92 40//40 24//24
f 92//92 24//24 64//64
f 93//93 68//68 3//3
f 93//93 3//3 25//25
f 93//93 25//25 68//68
f 94//94 68//68 25//25
f 94//94 25//25 43//43
f 95//95 71//71 46//46
f 95//95 72//72 1//1
f 95//95 46//46 72//72
f 96//96 27//27 71//71
f 97//97 1//1 72//72
f 97//97 72//72 38//38
f 97//97 84//84 48//48
f 97//97 38//38 84//84
f 98//98 73//73 47//47
f 98//98 47//47 74//74
f 99//99 48//48 23//23
f 99//99 23//23 73//73
f 100//100 74//74 10//10
f 100//100 10//10 32//32
f 100//100 32//32 74//74
f 101//101 74//74 32//32
f 101//101 32//32 4//4
f 101//101 4//4 16//16
f 101//101 98//98 74//74
f 102//102 81//81 53//53
f 102//102 53//53 10//10
f 102//102 43//43 81//81
f 103//103 83//83 58//58
f 103//103 58//58 5//5
f 103//103 5//5 88//88
f 103//103 88//88 39//39
f 103//103 39//39 63//63
f 104//104 83//83 63//63
f 104//104 63//63 14//14
f 104//104 14//14 36//36
f 104//104 36//36 83//83
f 105//105 86//86 61//61
f 105//105 10//10 86//86
f 106//106 61//61 87//87
f 106//106 105//105 61//61
f 107//107 87//87 37//37
f 107//107 37//37 44//44
f 108//108 90//90 72//72
f 108//108 72//72 46//46
f 108//108 46//46 90//90
f 109//109 95//95 1//1
f 109//109 96//96 71//71
f 109//109 71//71 95//95
f 109//109 1//1 97//97
f 110//110 97//97 48//48
f 110//110 109//109 97//97
f 110//110 96//96 109//109
f 111//111 98//98 27//27
f 111//111 73//73 98//98
f 111//111 99//99 73//73
f 112//112 49//49 27//27
f 112//112 27//27 98//98
f 112//112 98//98 101//101
f 113//113 101//101 16//16
f 113//113 16//16 49//49
f 113//113 112//112 101//101
f 113//113 49//49 112//112
f 114//114 94//94 43//43
f 114//114 43//43 102//102
f 115//115 103//103 63//63
f 115//115 63//63 83//83
f 115//115 83//83 103//103
f 116//116 102//102 10//10
f 116//116 10//10 105//105
f 116//116 114//114 102//102
f 116//116 105//105 106//106
f 117//117 107//107 44//44
f 117//117 44//44 68//68
f 117//117 68//68 106//106
f 117//117 106//106 87//87
f 117//117 87//87 107//107
f 118//118 110//110 48//48
f 118//118 48//48 99//99
f 118//118 99//99 111//111
f 118//118 96//96 110//110
f 118//118 111//111 27//27
f 118//118 27//27 96//96
f 119//119 94//94 114//114
f 119//119 114//114 116//116
f 119//119 68//68 94//94
f 119//119 116//116 106//106
f 119//119 106//106 68//68
# 234 faces, 0 coords texture

# End of File
