####
#
# OBJ File Generated by Meshlab
#
####
# Object right_lower_leg_collision.obj
#
# Vertices: 218
# Faces: 432
#
####
vn 3.136731 -0.129973 -3.234223
v 0.032580 -0.013276 -0.330000
vn -0.019458 1.174382 5.806700
v -0.003902 0.001298 0.053858
vn -2.731849 1.115977 -2.788688
v -0.034867 0.005262 -0.330000
vn 1.343157 5.996259 -0.748810
v 0.020830 0.019852 -0.315178
vn -0.808497 -6.006709 -0.747016
v -0.020050 -0.024624 -0.319984
vn 5.444015 2.204837 0.453251
v 0.036456 0.015664 -0.137241
vn -1.755784 5.712581 0.611239
v -0.022536 0.013080 0.033647
vn 2.177083 1.446796 -2.401302
v 0.032275 0.014172 -0.330000
vn 1.737037 -5.756097 0.391261
v 0.026020 -0.024052 -0.094227
vn -1.268845 -2.740484 -2.700368
v -0.028402 -0.021471 -0.330000
vn -1.025278 5.902965 -0.914396
v -0.021394 0.019871 -0.315729
vn 1.370408 5.944410 0.372363
v 0.024821 0.020186 -0.089827
vn -3.120124 -0.221733 -2.907616
v -0.035200 -0.007360 -0.330000
vn 6.265971 0.028347 0.000604
v 0.039183 -0.002006 -0.169651
vn 1.986737 5.288362 -1.124594
v 0.030676 0.015930 -0.326821
vn 0.702080 -6.047327 -0.775009
v 0.018028 -0.024987 -0.318214
vn -1.582717 -5.362454 1.177578
v -0.021998 -0.016648 0.034096
vn 5.508290 -1.538825 1.580815
v 0.014544 -0.005348 0.039336
vn -2.446651 3.578185 -2.344835
v -0.030648 0.015293 -0.325996
vn 2.557765 5.540019 0.227876
v 0.029760 0.019409 -0.108348
vn 2.252085 5.523071 1.034530
v 0.010840 0.015047 0.006591
vn -0.548315 6.227512 0.180527
v -0.002011 0.020013 -0.079771
vn -0.067755 6.277407 -0.120821
v -0.014053 0.020787 -0.310860
vn -6.213313 -0.065487 0.626877
v -0.024483 -0.001606 0.033991
vn 5.750912 1.892022 -0.167991
v 0.038252 0.013361 -0.172458
vn 6.259648 0.073857 -0.427113
v 0.033238 -0.001467 -0.323185
vn 5.580132 -2.047425 0.049863
v 0.038333 -0.017904 -0.161139
vn 0.707374 6.030461 -0.979556
v 0.018238 0.020551 -0.313437
vn -0.287577 -6.245015 -0.240581
v -0.016020 -0.025049 -0.316412
vn 0.819800 -3.005493 -3.077320
v 0.028079 -0.021321 -0.330000
vn -1.510500 -5.902911 -0.672835
v -0.023710 -0.023473 -0.323461
vn -2.441338 -1.799793 -2.576702
v -0.030850 -0.019472 -0.330000
vn 1.814215 -5.648209 1.041295
v 0.010559 -0.018754 0.006699
vn 0.747793 -3.460892 4.298096
v -0.000854 -0.006471 0.052742
vn -5.727722 1.611334 0.688609
v -0.024019 0.011185 0.033852
vn -2.015903 4.762455 -1.563280
v -0.029291 0.016673 -0.324339
vn -2.864262 2.642726 -2.625526
v -0.030717 0.015188 -0.326057
vn 5.328562 1.918109 1.378010
v 0.014550 0.001909 0.039266
vn 3.506110 4.885418 0.159997
v 0.034794 0.017359 -0.133194
vn 1.936045 5.090872 2.737766
v 0.007903 0.003123 0.048575
vn 3.442367 4.752295 0.826596
v 0.012509 0.014923 0.002706
vn -1.126838 6.165139 0.175539
v -0.006217 0.019072 -0.068535
vn 0.037791 6.252938 0.522080
v -0.000960 0.015289 0.011957
vn -0.079979 6.279106 0.100480
v 0.002016 0.020273 -0.087160
vn -0.464506 6.136854 -0.618671
v -0.016894 0.020699 -0.312569
vn -3.116763 0.245022 -2.896655
v -0.035191 0.003227 -0.330000
vn -4.657539 -2.882286 0.582160
v -0.023533 -0.015670 0.033584
vn 6.270585 0.298244 -0.239711
v 0.035536 0.006577 -0.257368
vn 5.657074 1.913153 0.292154
v 0.037972 0.014340 -0.152065
vn 4.459167 4.093277 -0.048158
v 0.037587 0.015120 -0.157409
vn 6.270446 -0.141660 -0.342077
v 0.033164 -0.004456 -0.323685
vn 6.091591 -1.142849 -0.110783
v 0.038571 -0.016587 -0.172051
vn 5.160208 -2.917389 0.640122
v 0.034467 -0.020664 -0.123423
vn 1.814882 6.010019 -0.064926
v 0.024770 0.019634 -0.227183
vn 0.350872 6.137546 -0.701748
v 0.017647 0.020652 -0.313071
vn 0.190059 -6.261932 -0.202314
v 0.017263 -0.025051 -0.317461
vn -0.661270 -6.208520 0.206219
v -0.003121 -0.023611 -0.077311
vn 3.118195 -5.258483 0.149894
v 0.033423 -0.021878 -0.126260
vn -3.699711 -4.883734 0.130289
v -0.026420 -0.018568 -0.150557
vn -1.795066 -6.013734 0.126215
v -0.020955 -0.022741 -0.241271
vn 1.737074 -5.124696 2.721099
v 0.005612 -0.007168 0.049520
vn -3.711859 4.276081 1.083589
v -0.023102 0.012707 0.034251
vn -4.658772 -0.034430 4.078519
v -0.019153 -0.001508 0.046661
vn -2.195554 5.867055 -0.161834
v -0.023567 0.019063 -0.317205
vn 2.091775 4.505149 -1.883055
v 0.031602 0.015038 -0.328967
vn -5.881487 2.195257 0.139843
v -0.029397 0.008525 -0.150321
vn 6.244645 -0.010954 0.564416
v 0.037925 -0.002013 -0.144005
vn 4.687594 3.509278 0.573333
v 0.033303 0.017589 -0.118036
vn 2.131630 5.905029 -0.184374
v 0.023991 0.018675 -0.317297
vn -0.000212 5.940578 1.482539
v -0.021171 0.013013 0.034928
vn 3.007597 4.036424 2.594487
v 0.010437 0.003325 0.046130
vn 1.925453 2.518235 4.558980
v 0.004084 0.002075 0.052114
vn 3.438157 5.096953 0.709497
v 0.027350 0.019543 -0.094724
vn -1.558873 6.085598 0.113265
v -0.021868 0.016658 -0.149242
vn 0.338538 6.253801 0.327534
v 0.020325 0.019936 -0.078872
vn -0.272093 6.265909 0.352299
v -0.007173 0.015228 0.009982
vn 0.025694 6.283098 -0.003637
v 0.000604 0.020742 -0.307242
vn -1.336114 6.135467 0.102110
v -0.017911 0.019832 -0.266580
vn -0.348422 6.271660 0.039526
v -0.009283 0.020470 -0.208715
vn -6.278291 0.117151 0.186232
v -0.032623 0.001969 -0.242566
vn -6.202919 0.986749 0.168885
v -0.032351 0.006122 -0.242578
vn -6.045124 -1.337070 0.164599
v -0.029555 -0.012102 -0.150709
vn 5.726147 1.971645 -0.208871
v 0.035239 0.013831 -0.252847
vn 5.866714 1.620758 0.027506
v 0.038387 0.013571 -0.161141
vn 3.782389 4.981581 -0.130144
v 0.034036 0.015514 -0.245568
vn 2.703108 -1.218744 -2.530852
v 0.032249 -0.018538 -0.330000
vn 6.273391 -0.251250 -0.242804
v 0.034613 -0.012051 -0.279111
vn 3.579449 -4.700231 0.893057
v 0.012382 -0.018422 0.003820
vn 1.389715 6.104405 -0.363348
v 0.018486 0.020488 -0.313569
vn 2.154500 5.900415 -0.083848
v 0.027287 0.018609 -0.239607
vn 1.620941 5.913606 0.235137
v 0.026720 0.020085 -0.097310
vn 0.599187 -6.232948 0.005395
v 0.021343 -0.024612 -0.219644
vn 0.180635 -6.273524 0.164814
v 0.022576 -0.024080 -0.089867
vn -0.640982 -6.246220 0.072825
v -0.010456 -0.024356 -0.203119
vn -0.036262 -6.262921 0.471746
v -0.001517 -0.018716 0.012218
vn 2.933605 -5.188941 0.389566
v 0.029521 -0.023281 -0.105862
vn 1.602842 -6.007252 -0.489340
v 0.021025 -0.024116 -0.320372
vn 3.000296 -5.488481 -0.092857
v 0.033131 -0.020504 -0.237853
vn 4.189868 -4.439239 0.118465
v 0.036375 -0.020040 -0.141741
vn -2.581105 -5.727560 0.096467
v -0.026932 -0.022095 -0.327663
vn -4.804648 -4.046613 0.139005
v -0.028775 -0.018937 -0.242707
vn -1.893344 -5.979548 -0.066234
v -0.022749 -0.023800 -0.322041
vn -1.326082 -6.135878 0.159725
v -0.006584 -0.022684 -0.067905
vn 3.959574 -3.034856 2.314628
v 0.012059 -0.006140 0.044232
vn -0.239078 -5.664688 2.210907
v -0.020784 -0.015966 0.036377
vn -2.956828 5.521812 0.111221
v -0.026010 0.014932 -0.150609
vn -5.167917 3.511731 0.132864
v -0.027103 0.013872 -0.150324
vn -5.576986 0.073609 2.760560
v -0.022471 -0.001698 0.041527
vn -4.428017 1.781863 3.532807
v -0.020431 0.007219 0.044120
vn -2.659087 -1.873485 4.748986
v -0.014779 -0.007582 0.050115
vn -1.961185 5.950728 0.109691
v -0.021923 0.018350 -0.240983
vn 4.813347 3.983229 -0.165871
v 0.034925 0.014680 -0.245328
vn -5.821539 2.360461 0.120505
v -0.034637 0.005779 -0.328958
vn -5.869339 2.229249 0.139383
v -0.026678 0.009940 -0.058206
vn 5.948514 -0.056171 1.705604
v 0.014612 -0.001888 0.039616
vn 6.160396 0.729378 0.824904
v 0.025598 0.008567 -0.048956
vn 5.211916 -2.428021 0.495508
v 0.035954 -0.019963 -0.133016
vn 5.511943 -2.114038 0.263584
v 0.037865 -0.018597 -0.151930
vn 4.439755 4.168630 0.759137
v 0.030239 0.018636 -0.104382
vn 2.217114 5.873644 -0.170807
v 0.030217 0.016133 -0.325832
vn 1.105632 5.952800 1.100554
v 0.008450 0.015194 0.009088
vn -1.725526 4.751958 2.422354
v -0.021901 0.012309 0.036993
vn 4.055041 4.475296 1.466849
v 0.012979 0.003497 0.039995
vn 1.407310 -0.137870 5.916845
v 0.001389 -0.001720 0.053372
vn 0.020145 6.283138 0.013303
v 0.000567 0.020539 -0.210314
vn 0.190190 6.278389 0.007091
v 0.020654 0.020457 -0.217221
vn -1.333857 6.135981 0.102301
v -0.014013 0.019579 -0.200565
vn -0.313268 6.274159 0.057470
v -0.000064 0.020197 -0.087096
vn -6.276711 -0.150336 0.187204
v -0.029912 -0.004521 -0.150360
vn -3.004317 -0.810943 -2.821899
v -0.034880 -0.009564 -0.330000
vn -5.657771 -2.675392 0.146050
v -0.025764 -0.015994 -0.058709
vn 2.793598 5.596315 -0.100565
v 0.032639 0.016633 -0.233461
vn 1.681798 -2.578103 -2.775052
v 0.030403 -0.020421 -0.330000
vn 5.640085 -2.665775 -0.185238
v 0.038239 -0.017411 -0.173545
vn 2.119495 -5.879613 0.632630
v 0.012549 -0.018763 0.000163
vn 1.403291 6.122044 -0.044752
v 0.023123 0.020068 -0.226482
vn 0.792998 6.216489 -0.016721
v 0.021603 0.020406 -0.220963
vn 0.002551 -6.283144 0.012280
v -0.001217 -0.025059 -0.310880
vn 0.047235 -6.282851 0.025751
v 0.019621 -0.024626 -0.217464
vn -0.212237 -6.271627 0.118703
v 0.001130 -0.024045 -0.086992
vn 0.430538 -6.238525 0.359278
v 0.020103 -0.023738 -0.078458
vn -1.085788 -6.183267 0.101344
v -0.011865 -0.024191 -0.205186
vn 0.518439 -6.119556 1.005359
v 0.004065 -0.018738 0.011710
vn -0.222711 -6.266891 0.368684
v -0.007565 -0.018742 0.009831
vn 1.508642 -6.091676 -0.032519
v 0.023253 -0.024225 -0.224799
vn 4.858210 -3.597233 0.689723
v 0.032486 -0.021502 -0.113204
vn 4.058981 -4.599055 0.791551
v 0.028035 -0.023119 -0.096754
vn 2.186133 -5.888834 -0.115868
v 0.024995 -0.022580 -0.324454
vn 2.004481 -5.950586 -0.060861
v 0.025915 -0.023346 -0.235085
vn 4.051030 -4.588351 -0.045924
v 0.037299 -0.019372 -0.156164
vn -2.059850 -5.934680 0.123532
v -0.022017 -0.018552 -0.057716
vn -1.399059 -6.122581 0.120572
v -0.017102 -0.024250 -0.266771
vn 3.460756 -3.152445 2.943297
v 0.009281 -0.006049 0.048266
vn 4.381635 -3.952764 1.487018
v 0.013911 -0.006485 0.039164
vn -3.135022 -3.954883 2.664324
v -0.022500 -0.014508 0.038415
vn -2.950537 5.525830 0.111171
v -0.024273 0.014006 -0.058481
vn -2.464129 5.778378 0.105705
v -0.023354 0.017830 -0.244791
vn -6.015670 0.046609 1.640212
v -0.023758 -0.001701 0.038051
vn -2.106375 1.788029 5.191504
v -0.012174 0.003496 0.051482
vn -4.532794 2.227179 2.757467
v -0.022173 0.009460 0.040293
vn -1.531062 -1.387290 5.588982
v -0.009300 -0.005583 0.052760
vn 0.120582 -5.473329 3.028410
v -0.013311 -0.010288 0.047025
vn -5.812895 2.381458 0.131598
v -0.032379 0.011114 -0.325720
vn 6.230393 -0.186472 0.791125
v 0.026252 -0.002815 -0.052265
vn 4.896227 -0.072584 3.603980
v 0.011193 -0.001743 0.046999
vn 6.040550 1.449362 0.819421
v 0.034124 0.016075 -0.120583
vn 6.231041 0.162641 0.791127
v 0.025629 0.006669 -0.048781
vn 6.169758 -0.694339 0.825298
v 0.025249 -0.012656 -0.046840
vn 5.223169 3.351435 0.960724
v 0.022395 0.010273 -0.032558
vn 0.332203 6.214878 0.790494
v 0.002022 0.015173 0.012171
vn 0.951171 4.000190 3.922668
v 0.000337 0.003094 0.052423
vn 4.610114 2.215998 2.377605
v 0.012620 0.002290 0.044106
vn -0.213743 -2.153193 5.294251
v -0.004790 -0.005604 0.053518
vn 0.030557 6.283099 0.012704
v 0.011970 0.020495 -0.211647
vn 0.018537 6.283148 0.005199
v -0.002388 0.020752 -0.307321
vn 0.035192 6.283076 0.003509
v 0.009079 0.020699 -0.308542
vn -6.235313 -0.704777 0.178105
v -0.032442 -0.009814 -0.242711
vn 2.358314 -5.821552 -0.075748
v 0.031712 -0.021226 -0.229740
vn 5.813917 -2.320288 -0.206758
v 0.035197 -0.017998 -0.253185
vn -0.016753 -6.283051 0.003988
v -0.013941 -0.025056 -0.315052
vn 0.010468 -6.283132 0.023267
v 0.002076 -0.025054 -0.310875
vn -0.010014 -6.283111 0.028530
v -0.000529 -0.024610 -0.209752
vn -0.019940 -6.275435 0.308682
v 0.005445 -0.023627 -0.076928
vn 1.122500 -5.979820 1.313461
v 0.007886 -0.018620 0.009835
vn 5.933744 -1.763616 0.892328
v 0.024506 -0.013006 -0.042044
vn 4.036013 -4.763976 -0.128159
v 0.034273 -0.019587 -0.244936
vn -1.795109 -6.013710 0.126265
v -0.021303 -0.020710 -0.149482
vn 3.305756 -0.057862 5.197107
v 0.006821 -0.001731 0.051001
vn 1.790107 -2.718008 4.566973
v 0.004114 -0.005947 0.051851
vn 5.236573 -3.326570 0.966191
v 0.023199 -0.013994 -0.037020
vn -4.875690 -2.438088 1.335972
v -0.023479 -0.014758 0.036043
vn -4.281998 -1.737131 3.659093
v -0.020732 -0.010711 0.043802
vn -2.528056 5.751263 0.101308
v -0.026208 0.017952 -0.320006
vn -3.819798 1.674451 4.149077
v -0.018900 0.005757 0.046459
vn -3.444487 0.053411 5.152751
v -0.015382 -0.001699 0.049951
vn -1.915263 4.321062 3.458136
v -0.019662 0.008748 0.043541
vn -5.055795 2.258684 1.951769
v -0.023501 0.011434 0.035743
vn -1.461368 1.360748 5.606249
v -0.009123 0.002003 0.052865
vn -1.911038 -4.367191 3.389047
v -0.020026 -0.012571 0.042838
vn 3.163841 2.287139 4.086159
v 0.007884 0.002066 0.049930
vn 5.652661 2.462171 0.919326
v 0.023927 0.009749 -0.039385
vn 0.712162 6.090629 1.317264
v 0.006266 0.015059 0.010896
vn -0.056499 3.592297 4.826663
v -0.004423 0.002694 0.053201
vn -0.851304 -3.895155 4.351087
v -0.011701 -0.007851 0.050998
vn 0.032798 6.283091 0.003391
v 0.005247 0.020719 -0.307606
vn 2.256539 -5.863498 -0.076375
v 0.027363 -0.021627 -0.327663
vn 5.087235 -3.556741 -0.176800
v 0.035072 -0.018661 -0.247375
vn -0.092027 -6.282008 0.034476
v -0.007709 -0.024580 -0.207976
vn 0.005435 -6.283122 0.027264
v 0.009806 -0.024617 -0.210992
vn -0.003858 -6.283143 0.012876
v -0.002543 -0.025059 -0.310951
vn 3.199618 -2.163767 4.219105
v 0.007869 -0.005534 0.049942
vn -5.147914 -1.496268 2.498315
v -0.022866 -0.012581 0.039629
vn -2.745377 -2.667519 4.152290
v -0.017009 -0.009254 0.047791
vn -2.435530 2.663550 4.492682
v -0.015743 0.005353 0.048824
vn -0.512441 4.404819 3.976741
v -0.011397 0.004831 0.050773
vn 0.096110 -5.555998 2.922841
v -0.017714 -0.012599 0.042829
vn 0.312105 5.609091 2.802782
v -0.014132 0.007254 0.046301
vn 0.144687 5.568470 2.895381
v -0.018310 0.009776 0.041696
# 218 vertices, 0 vertices normals

f 13//13 8//8 1//1
f 13//13 3//3 8//8
f 13//13 1//1 10//10
f 26//26 1//1 8//8
f 28//28 15//15 11//11
f 28//28 4//4 15//15
f 29//29 5//5 16//16
f 30//30 10//10 1//1
f 30//30 16//16 5//5
f 30//30 5//5 10//10
f 31//31 10//10 5//5
f 32//32 13//13 10//10
f 36//36 11//11 15//15
f 37//37 19//19 8//8
f 37//37 8//8 3//3
f 41//41 12//12 21//21
f 42//42 7//7 22//22
f 45//45 42//42 22//22
f 46//46 3//3 13//13
f 48//48 25//25 14//14
f 48//48 26//26 8//8
f 48//48 14//14 26//26
f 50//50 39//39 6//6
f 50//50 6//6 49//49
f 51//51 26//26 14//14
f 51//51 1//1 26//26
f 52//52 14//14 27//27
f 55//55 45//45 23//23
f 55//55 28//28 11//11
f 55//55 11//11 45//45
f 56//56 29//29 16//16
f 59//59 31//31 17//17
f 59//59 17//17 47//47
f 59//59 32//32 10//10
f 62//62 36//36 19//19
f 64//64 11//11 36//36
f 65//65 36//36 15//15
f 65//65 8//8 19//19
f 65//65 19//19 36//36
f 66//66 3//3 35//35
f 67//67 49//49 6//6
f 67//67 14//14 49//49
f 68//68 39//39 20//20
f 68//68 6//6 39//39
f 69//69 15//15 4//4
f 70//70 43//43 7//7
f 73//73 12//12 41//41
f 74//74 7//7 42//42
f 75//75 22//22 43//43
f 75//75 44//44 22//22
f 75//75 12//12 44//44
f 76//76 43//43 22//22
f 76//76 22//22 7//7
f 76//76 7//7 43//43
f 77//77 55//55 23//23
f 78//78 45//45 11//11
f 79//79 44//44 23//23
f 79//79 23//23 45//45
f 79//79 45//45 22//22
f 80//80 46//46 13//13
f 80//80 24//24 35//35
f 80//80 35//35 46//46
f 81//81 46//46 35//35
f 81//81 35//35 3//3
f 81//81 3//3 46//46
f 82//82 47//47 24//24
f 83//83 48//48 8//8
f 83//83 25//25 48//48
f 83//83 50//50 25//25
f 84//84 49//49 14//14
f 84//84 14//14 25//25
f 84//84 50//50 49//49
f 84//84 25//25 50//50
f 85//85 39//39 50//50
f 85//85 65//65 15//15
f 85//85 50//50 65//65
f 86//86 1//1 52//52
f 87//87 51//51 14//14
f 87//87 14//14 52//52
f 87//87 52//52 1//1
f 87//87 1//1 51//51
f 89//89 20//20 54//54
f 89//89 54//54 4//4
f 89//89 4//4 28//28
f 90//90 4//4 54//54
f 90//90 54//54 20//20
f 90//90 20//20 39//39
f 90//90 69//69 4//4
f 91//91 73//73 20//20
f 91//91 12//12 73//73
f 92//92 56//56 16//16
f 92//92 16//16 9//9
f 94//94 5//5 29//29
f 97//97 16//16 30//30
f 100//100 59//59 10//10
f 100//100 10//10 31//31
f 100//100 31//31 59//59
f 101//101 59//59 47//47
f 101//101 47//47 32//32
f 101//101 32//32 59//59
f 102//102 31//31 5//5
f 102//102 5//5 60//60
f 102//102 17//17 31//31
f 103//103 57//57 17//17
f 105//105 61//61 34//34
f 106//106 36//36 62//62
f 107//107 37//37 35//35
f 107//107 35//35 62//62
f 107//107 62//62 19//19
f 107//107 19//19 37//37
f 109//109 108//108 63//63
f 111//111 11//11 64//64
f 111//111 7//7 74//74
f 111//111 78//78 11//11
f 111//111 74//74 78//78
f 112//112 65//65 50//50
f 112//112 8//8 65//65
f 112//112 83//83 8//8
f 112//112 50//50 83//83
f 113//113 37//37 3//3
f 113//113 3//3 66//66
f 114//114 66//66 35//35
f 114//114 35//35 37//37
f 114//114 37//37 66//66
f 116//116 67//67 6//6
f 117//117 53//53 58//58
f 117//117 58//58 99//99
f 118//118 27//27 14//14
f 118//118 14//14 67//67
f 118//118 67//67 117//117
f 118//118 117//117 99//99
f 119//119 73//73 41//41
f 119//119 68//68 20//20
f 119//119 20//20 73//73
f 120//120 15//15 69//69
f 120//120 69//69 90//90
f 121//121 70//70 40//40
f 121//121 71//71 21//21
f 121//121 40//40 71//71
f 121//121 75//75 43//43
f 121//121 21//21 12//12
f 121//121 12//12 75//75
f 122//122 70//70 7//7
f 122//122 7//7 62//62
f 123//123 41//41 21//21
f 123//123 21//21 71//71
f 123//123 38//38 41//41
f 124//124 72//72 2//2
f 125//125 44//44 12//12
f 125//125 23//23 44//44
f 126//126 12//12 91//91
f 127//127 42//42 45//45
f 127//127 45//45 78//78
f 127//127 78//78 74//74
f 127//127 74//74 42//42
f 128//128 79//79 22//22
f 128//128 22//22 44//44
f 128//128 44//44 79//79
f 129//129 80//80 13//13
f 129//129 24//24 80//80
f 129//129 82//82 24//24
f 129//129 13//13 82//82
f 130//130 13//13 32//32
f 130//130 32//32 82//82
f 131//131 82//82 32//32
f 131//131 32//32 47//47
f 131//131 47//47 82//82
f 132//132 85//85 15//15
f 132//132 39//39 85//85
f 132//132 15//15 120//120
f 132//132 120//120 90//90
f 132//132 90//90 39//39
f 133//133 30//30 1//1
f 133//133 1//1 86//86
f 134//134 52//52 27//27
f 135//135 88//88 33//33
f 135//135 33//33 9//9
f 135//135 9//9 88//88
f 136//136 89//89 28//28
f 136//136 20//20 89//89
f 137//137 28//28 55//55
f 137//137 136//136 28//28
f 137//137 126//126 91//91
f 137//137 55//55 126//126
f 137//137 91//91 20//20
f 137//137 20//20 136//136
f 139//139 92//92 9//9
f 139//139 9//9 93//93
f 139//139 56//56 92//92
f 140//140 94//94 29//29
f 140//140 57//57 94//94
f 141//141 93//93 9//9
f 141//141 9//9 33//33
f 141//141 140//140 93//93
f 142//142 94//94 57//57
f 142//142 5//5 94//94
f 143//143 17//17 95//95
f 143//143 141//141 33//33
f 143//143 95//95 141//141
f 143//143 105//105 17//17
f 144//144 95//95 17//17
f 144//144 17//17 57//57
f 144//144 57//57 95//95
f 145//145 96//96 9//9
f 145//145 9//9 16//16
f 145//145 16//16 97//97
f 146//146 96//96 58//58
f 146//146 58//58 53//53
f 147//147 88//88 9//9
f 147//147 9//9 96//96
f 147//147 146//146 88//88
f 147//147 96//96 146//146
f 148//148 97//97 30//30
f 149//149 58//58 96//96
f 149//149 148//148 58//58
f 149//149 97//97 148//148
f 149//149 145//145 97//97
f 149//149 96//96 145//145
f 150//150 99//99 58//58
f 150//150 58//58 98//98
f 150//150 118//118 99//99
f 150//150 27//27 118//118
f 151//151 17//17 102//102
f 152//152 57//57 103//103
f 152//152 103//103 17//17
f 152//152 60//60 5//5
f 152//152 5//5 142//142
f 152//152 142//142 57//57
f 153//153 61//61 33//33
f 153//153 33//33 104//104
f 154//154 18//18 104//104
f 154//154 104//104 33//33
f 154//154 33//33 88//88
f 155//155 17//17 105//105
f 156//156 106//106 62//62
f 156//156 62//62 7//7
f 157//157 36//36 106//106
f 157//157 106//106 156//156
f 157//157 156//156 7//7
f 157//157 111//111 64//64
f 157//157 7//7 111//111
f 158//158 35//35 24//24
f 160//160 108//108 109//109
f 160//160 158//158 108//108
f 162//162 105//105 34//34
f 163//163 113//113 66//66
f 163//163 66//66 37//37
f 163//163 37//37 113//113
f 164//164 115//115 18//18
f 164//164 18//18 67//67
f 164//164 67//67 115//115
f 165//165 104//104 18//18
f 165//165 18//18 115//115
f 165//165 153//153 104//104
f 166//166 38//38 116//116
f 166//166 116//116 6//6
f 166//166 6//6 68//68
f 167//167 115//115 67//67
f 167//167 67//67 116//116
f 167//167 116//116 38//38
f 167//167 38//38 115//115
f 168//168 117//117 67//67
f 168//168 67//67 18//18
f 169//169 119//119 41//41
f 169//169 41//41 38//38
f 169//169 68//68 119//119
f 170//170 121//121 43//43
f 170//170 43//43 70//70
f 171//171 72//72 40//40
f 171//171 40//40 70//70
f 171//171 70//70 122//122
f 171//171 2//2 72//72
f 172//172 123//123 71//71
f 172//172 38//38 123//123
f 172//172 165//165 115//115
f 172//172 115//115 38//38
f 173//173 124//124 2//2
f 173//173 34//34 124//124
f 173//173 2//2 161//161
f 174//174 125//125 12//12
f 174//174 77//77 125//125
f 174//174 12//12 126//126
f 175//175 125//125 77//77
f 175//175 77//77 23//23
f 175//175 23//23 125//125
f 176//176 126//126 55//55
f 177//177 130//130 82//82
f 177//177 82//82 13//13
f 177//177 13//13 130//130
f 178//178 133//133 98//98
f 178//178 98//98 58//58
f 178//178 30//30 133//133
f 178//178 58//58 148//148
f 179//179 86//86 52//52
f 179//179 52//52 134//134
f 180//180 29//29 56//56
f 180//180 56//56 138//138
f 181//181 138//138 56//56
f 181//181 56//56 139//139
f 182//182 93//93 140//140
f 183//183 141//141 95//95
f 183//183 95//95 57//57
f 183//183 57//57 140//140
f 183//183 140//140 141//141
f 184//184 143//143 33//33
f 184//184 33//33 61//61
f 184//184 61//61 105//105
f 184//184 105//105 143//143
f 185//185 146//146 53//53
f 185//185 18//18 146//146
f 185//185 168//168 18//18
f 185//185 53//53 117//117
f 185//185 117//117 168//168
f 186//186 150//150 98//98
f 186//186 98//98 133//133
f 186//186 133//133 86//86
f 187//187 17//17 151//151
f 187//187 151//151 102//102
f 187//187 102//102 60//60
f 187//187 152//152 17//17
f 187//187 60//60 152//152
f 188//188 72//72 124//124
f 189//189 34//34 61//61
f 189//189 188//188 124//124
f 189//189 124//124 34//34
f 190//190 146//146 18//18
f 190//190 18//18 154//154
f 190//190 154//154 88//88
f 190//190 88//88 146//146
f 191//191 47//47 17//17
f 191//191 17//17 155//155
f 191//191 158//158 24//24
f 191//191 24//24 47//47
f 192//192 63//63 108//108
f 193//193 157//157 64//64
f 193//193 64//64 36//36
f 193//193 36//36 157//157
f 194//194 109//109 63//63
f 195//195 63//63 110//110
f 195//195 194//194 63//63
f 195//195 161//161 159//159
f 195//195 110//110 161//161
f 196//196 160//160 109//109
f 196//196 122//122 160//160
f 196//196 109//109 194//194
f 197//197 35//35 158//158
f 197//197 158//158 160//160
f 197//197 62//62 35//35
f 197//197 160//160 122//122
f 197//197 122//122 62//62
f 198//198 161//161 2//2
f 198//198 159//159 161//161
f 199//199 155//155 105//105
f 199//199 192//192 155//155
f 200//200 71//71 40//40
f 200//200 172//172 71//71
f 200//200 165//165 172//172
f 200//200 188//188 165//165
f 200//200 40//40 72//72
f 200//200 72//72 188//188
f 201//201 166//166 68//68
f 201//201 38//38 166//166
f 201//201 169//169 38//38
f 201//201 68//68 169//169
f 202//202 170//170 70//70
f 202//202 70//70 121//121
f 202//202 121//121 170//170
f 203//203 2//2 171//171
f 203//203 198//198 2//2
f 203//203 159//159 198//198
f 204//204 173//173 161//161
f 204//204 161//161 110//110
f 204//204 199//199 162//162
f 204//204 162//162 34//34
f 204//204 34//34 173//173
f 205//205 126//126 176//176
f 205//205 176//176 55//55
f 205//205 55//55 77//77
f 205//205 77//77 174//174
f 205//205 174//174 126//126
f 206//206 178//178 148//148
f 206//206 148//148 30//30
f 206//206 30//30 178//178
f 207//207 179//179 134//134
f 207//207 134//134 27//27
f 207//207 86//86 179//179
f 207//207 186//186 86//86
f 207//207 27//27 150//150
f 207//207 150//150 186//186
f 208//208 140//140 29//29
f 208//208 29//29 180//180
f 208//208 182//182 140//140
f 208//208 180//180 182//182
f 209//209 181//181 139//139
f 209//209 139//139 93//93
f 209//209 138//138 181//181
f 209//209 182//182 138//138
f 209//209 93//93 182//182
f 210//210 182//182 180//180
f 210//210 180//180 138//138
f 210//210 138//138 182//182
f 211//211 153//153 165//165
f 211//211 165//165 188//188
f 211//211 188//188 189//189
f 211//211 189//189 61//61
f 211//211 61//61 153//153
f 212//212 108//108 158//158
f 212//212 158//158 191//191
f 212//212 192//192 108//108
f 212//212 191//191 155//155
f 212//212 155//155 192//192
f 213//213 110//110 63//63
f 213//213 63//63 192//192
f 213//213 192//192 199//199
f 213//213 204//204 110//110
f 213//213 199//199 204//204
f 214//214 195//195 159//159
f 214//214 194//194 195//195
f 214//214 196//196 194//194
f 215//215 203//203 171//171
f 215//215 196//196 214//214
f 215//215 214//214 159//159
f 215//215 159//159 203//203
f 216//216 199//199 105//105
f 216//216 105//105 162//162
f 216//216 162//162 199//199
f 217//217 215//215 171//171
f 217//217 171//171 122//122
f 218//218 122//122 196//196
f 218//218 196//196 215//215
f 218//218 217//217 122//122
f 218//218 215//215 217//217
# 432 faces, 0 coords texture

# End of File
