####
#
# OBJ File Generated by Meshlab
#
####
# Object right_hinge.obj
#
# Vertices: 197
# Faces: 390
#
####
vn -3.811328 2.953511 0.170798
v -0.016499 -0.042000 -0.000156
vn 3.272563 -3.136851 0.112274
v 0.032000 -0.046969 0.006915
vn 1.674336 1.562107 -1.682782
v 0.032000 -0.042000 -0.028198
vn 1.994393 2.025478 1.515958
v 0.032000 -0.040609 0.014959
vn -0.626298 -6.146515 -1.050615
v -0.011252 -0.047000 -0.010414
vn -0.329283 6.197059 -0.635386
v -0.000999 -0.039000 -0.003300
vn -0.812886 -5.216543 2.906310
v -0.004145 -0.046735 0.014903
vn -2.032089 2.917146 -3.172129
v -0.012202 -0.042000 -0.012204
vn 2.969043 -3.103549 -0.380677
v 0.032000 -0.047000 -0.026172
vn 0.240179 6.271073 -0.118135
v 0.003231 -0.039000 -0.001204
vn -1.011100 2.873655 3.627002
v -0.004421 -0.042000 0.015897
vn 0.773015 -5.321022 2.917871
v 0.028579 -0.046572 0.015089
vn -0.040923 -6.279638 0.148884
v -0.000178 -0.048483 0.001281
vn -2.954037 -5.207486 0.761663
v -0.014979 -0.046735 0.003862
vn -4.788146 -3.026358 -1.849461
v -0.015638 -0.046010 -0.007902
vn -0.811884 2.916956 -3.440552
v 0.018293 -0.042000 -0.027866
vn -3.427741 2.798059 -1.325375
v -0.015918 -0.042000 -0.008010
vn 0.107248 6.262072 -0.332746
v 0.001531 -0.039000 -0.003089
vn -0.203788 6.187222 0.733159
v -0.000286 -0.039000 0.003436
vn 3.367864 -2.626080 1.657186
v 0.032000 -0.046041 0.014768
vn 0.061288 -0.868744 6.108675
v 0.013708 -0.045017 0.016604
vn 0.233802 -6.276371 0.097753
v 0.001541 -0.048473 0.000598
vn -0.385034 -6.156772 -1.043556
v 0.017233 -0.047000 -0.025419
vn 0.211209 -6.198273 0.806289
v 0.024956 -0.047000 0.014368
vn -3.279581 2.874162 1.850398
v -0.014367 -0.042000 0.008114
vn -0.880629 -6.143305 0.866558
v -0.010331 -0.047000 0.010137
vn -0.695369 -6.241122 -0.085350
v -0.006009 -0.048124 -0.000814
vn -3.169516 -3.025085 -4.038162
v -0.013214 -0.046010 -0.011188
vn -5.221919 -3.036077 0.120356
v -0.016199 -0.046010 -0.000153
vn -1.216451 -6.135969 -0.235422
v -0.014320 -0.047000 -0.006256
vn -1.542918 2.976674 -3.372050
v 0.014815 -0.042000 -0.026543
vn -0.139475 3.007583 -3.500943
v 0.021989 -0.042000 -0.028293
vn -0.787145 6.175201 0.077659
v -0.003493 -0.039000 0.000146
vn -2.751045 2.798784 -2.432032
v -0.014439 -0.042000 -0.010443
vn -6.132944 -0.854749 -0.332487
v -0.016425 -0.045017 -0.005213
vn -0.287407 2.946986 3.833849
v -0.000156 -0.042000 0.016499
vn 0.182783 6.276655 0.066674
v 0.003179 -0.039000 0.001334
vn 3.296702 -3.129621 0.212376
v 0.032000 -0.046849 0.010001
vn 0.539074 0.297097 6.208298
v 0.028471 -0.044551 0.016113
vn 0.016326 -3.324356 5.083841
v 0.013712 -0.046072 0.016248
vn 3.248360 -3.138924 0.060234
v 0.032000 -0.047000 0.006019
vn -0.235766 -6.261837 -0.408691
v -0.001735 -0.048367 -0.003178
vn -0.067790 -6.239484 0.710344
v -0.000084 -0.048124 0.006063
vn 0.166433 -6.269426 0.355581
v 0.001735 -0.048367 0.003178
vn 0.248386 -6.273936 0.229431
v 0.002939 -0.048367 0.002089
vn -2.679753 2.886474 2.655252
v -0.011713 -0.042000 0.011607
vn -4.155107 -3.004713 3.127219
v -0.012945 -0.046010 0.009740
vn -1.149009 -6.142841 0.464211
v -0.013424 -0.047000 0.005412
vn -0.587808 -6.237227 0.425464
v -0.005038 -0.048124 0.003376
vn -1.339072 -5.239164 -2.724779
v 0.015299 -0.046735 -0.025632
vn -5.931227 -0.851683 1.528596
v -0.015952 -0.045017 0.004113
vn -2.593012 -5.181195 -1.577991
v -0.014407 -0.046735 -0.008757
vn -3.036649 -5.221349 -0.205302
v -0.015420 -0.046735 -0.005203
vn -1.801044 3.035202 -3.393525
v 0.011406 -0.042000 -0.024734
vn -1.321393 3.180440 -3.472589
v 0.015931 -0.042000 -0.026968
vn 2.740424 -1.439954 -2.716178
v 0.032000 -0.045925 -0.027937
vn -3.759120 2.916273 -0.343282
v -0.016451 -0.042000 -0.005213
vn -3.646872 2.873313 0.942576
v -0.015978 -0.042000 0.004119
vn -0.623070 6.186674 -0.414783
v -0.002987 -0.039000 -0.001722
vn -3.773823 -0.808381 -4.794977
v -0.013383 -0.045017 -0.011403
vn -5.214144 -0.808999 -3.169470
v -0.015265 -0.045017 -0.009279
vn -5.994019 -0.809243 -1.141926
v -0.016284 -0.045017 -0.006630
vn -6.149004 -0.856844 0.142572
v -0.016473 -0.045017 -0.000156
vn -0.856656 -0.792827 6.063530
v -0.002305 -0.045017 0.016312
vn 0.090636 6.268414 0.283047
v 0.001619 -0.039000 0.003098
vn 3.417545 -3.009277 0.808989
v 0.032000 -0.046300 0.014141
vn 3.277186 -3.135817 0.132835
v 0.032000 -0.046858 0.009826
vn 0.600349 -6.084598 1.128626
v 0.028536 -0.046811 0.014329
vn 3.182716 -0.574313 3.053771
v 0.032000 -0.044741 0.015711
vn 0.140063 2.110730 5.589378
v 0.019980 -0.042000 0.016327
vn 0.007031 -5.375736 2.857558
v 0.013719 -0.046792 0.015452
vn 0.294868 -1.910883 5.808103
v 0.025055 -0.045620 0.016267
vn -0.031710 -6.276301 -0.252020
v -0.000130 -0.048475 -0.001585
vn -0.022066 -6.168216 -1.007843
v 0.021970 -0.047000 -0.026267
vn -0.319902 -6.241611 -0.632826
v -0.002252 -0.048124 -0.005657
vn -0.585213 -6.245744 -0.317040
v -0.005262 -0.048124 -0.003064
vn -0.468776 -6.143352 1.140480
v -0.005665 -0.047000 0.013319
vn 0.105778 -6.277906 0.200358
v 0.000533 -0.048479 0.001315
vn 0.007372 -6.261486 0.477943
v 0.000331 -0.048367 0.003577
vn 0.163594 -6.278257 0.140302
v 0.001183 -0.048480 0.000763
vn -1.911164 2.874112 3.242674
v -0.008385 -0.042000 0.014211
vn -0.587291 6.169485 0.553191
v -0.002561 -0.039000 0.002309
vn -4.890329 -0.787404 3.685527
v -0.013164 -0.045017 0.009904
vn -1.880364 -5.207299 2.402803
v -0.009533 -0.046735 0.012182
vn -2.655981 -5.208346 1.500192
v -0.013469 -0.046735 0.007607
vn -1.231034 -6.142767 0.149091
v -0.014367 -0.047000 0.001753
vn -0.478156 -6.260779 -0.027281
v -0.003549 -0.048367 -0.000266
vn -1.079558 -6.142761 0.608747
v -0.012603 -0.047000 0.007118
vn -0.511288 -6.153197 -1.059810
v 0.015765 -0.047000 -0.024753
vn -1.580131 -5.221908 -2.600369
v -0.011719 -0.046735 -0.011293
vn -5.035893 -3.005237 1.298367
v -0.015687 -0.046010 0.004044
vn -0.953899 -6.144677 -0.717588
v -0.013240 -0.047000 -0.008670
vn -3.846925 -3.024559 -3.398530
v -0.014215 -0.046010 -0.010244
vn -3.036589 -5.236997 0.070853
v -0.015468 -0.046735 -0.000147
vn -5.208526 -3.023883 -0.281976
v -0.016151 -0.046010 -0.005210
vn -2.919166 -5.225671 -0.832212
v -0.015126 -0.046735 -0.007041
vn -1.800708 3.035399 -3.393574
v 0.014046 -0.042000 -0.026135
vn -1.320231 3.181063 -3.472949
v 0.017780 -0.042000 -0.027671
vn -2.179161 -0.807007 -5.727710
v 0.016522 -0.045017 -0.027288
vn -0.101118 -1.029577 -6.094878
v 0.021989 -0.045017 -0.028267
vn -5.679282 -0.793952 2.289684
v -0.015279 -0.045017 0.006160
vn -4.567565 -0.845590 -4.046575
v -0.014420 -0.045017 -0.010425
vn -5.694870 -0.846752 -2.190393
v -0.015894 -0.045017 -0.008000
vn -6.079561 -0.791686 0.741660
v -0.016352 -0.045017 0.001995
vn -0.258344 -0.857227 6.145255
v -0.000156 -0.045017 0.016473
vn 0.225897 -5.586363 2.490856
v 0.024998 -0.046827 0.015180
vn 3.586702 -3.080761 0.423892
v 0.032000 -0.046424 0.013320
vn 3.249464 0.332067 3.110722
v 0.032000 -0.043971 0.015718
vn 0.787475 -3.769009 4.759504
v 0.028581 -0.046056 0.015698
vn -0.030669 2.478725 5.032038
v 0.008155 -0.042000 0.016578
vn -0.128482 -5.235900 3.036684
v -0.000147 -0.046735 0.015468
vn 0.317337 0.003949 6.229542
v 0.025060 -0.044793 0.016354
vn 0.665690 -1.600421 5.884547
v 0.028543 -0.045344 0.016059
vn 0.162210 -6.278933 -0.135005
v 0.001273 -0.048473 -0.001034
vn -0.245211 -6.160261 -1.039707
v 0.018773 -0.047000 -0.025898
vn -0.071735 -5.238995 -3.038050
v 0.021980 -0.046735 -0.027262
vn -0.070934 -6.268233 -0.407789
v -0.000331 -0.048367 -0.003577
vn -1.126853 -6.137788 -0.462872
v -0.014027 -0.047000 -0.007282
vn -0.441234 -6.242043 -0.537439
v -0.003987 -0.048124 -0.004628
vn -0.344336 -6.236584 0.636064
v -0.002892 -0.048124 0.005330
vn 0.009480 -6.275831 0.263643
v 0.000130 -0.048475 0.001585
vn 0.079830 -6.280482 0.094666
v 0.000827 -0.048485 0.000892
vn -2.396847 -0.793677 5.635465
v -0.006448 -0.045017 0.015159
vn -3.063414 3.170328 2.328602
v -0.013011 -0.042000 0.009916
vn -1.550130 -5.208165 2.627407
v -0.007861 -0.046735 0.013322
vn -0.630515 -6.142634 1.067915
v -0.007355 -0.047000 0.012466
vn -3.774715 -0.793863 4.821506
v -0.010152 -0.045017 0.012974
vn -2.829882 -5.207174 1.140641
v -0.014347 -0.046735 0.005784
vn -2.437815 -5.207561 1.834438
v -0.012361 -0.046735 0.009300
vn -1.230562 -6.146485 0.028666
v -0.014473 -0.047000 -0.000137
vn -1.202090 -6.142636 0.310065
v -0.014015 -0.047000 0.003613
vn -0.699593 -6.237782 0.161889
v -0.005951 -0.048124 0.001380
vn -0.410224 -6.259528 0.261514
v -0.002995 -0.048367 0.002007
vn -0.246505 -6.275153 -0.091512
v -0.001541 -0.048473 -0.000598
vn -0.401668 -6.260634 -0.264458
v -0.002939 -0.048367 -0.002089
vn -0.990140 -6.142748 0.745886
v -0.011566 -0.047000 0.008702
vn -2.305531 -3.038934 -4.687268
v 0.014956 -0.046010 -0.026278
vn -5.162173 -3.003526 0.629763
v -0.016081 -0.046010 0.001962
vn -2.075385 -5.230700 -2.187542
v -0.013215 -0.046735 -0.010186
vn -4.428720 -2.980399 -2.691454
v -0.015031 -0.046010 -0.009137
vn -3.027995 -5.207698 0.369501
v -0.015355 -0.046735 0.001874
vn -5.043854 -3.026193 -0.953730
v -0.016015 -0.046010 -0.006579
vn -2.713755 -0.857523 -5.520700
v 0.014827 -0.045017 -0.026520
vn 2.952819 -0.367275 -3.103155
v 0.032000 -0.045017 -0.028172
vn -1.452753 -0.851106 -5.953184
v 0.018299 -0.045017 -0.027841
vn -5.333563 -0.849828 3.012862
v -0.014344 -0.045017 0.008101
vn -4.527628 -3.004139 2.557473
v -0.014106 -0.046010 0.007967
vn -0.216985 -3.036810 5.218106
v -0.000153 -0.046010 0.016199
vn 0.007094 -6.166618 1.148782
v 0.013727 -0.047000 0.014604
vn 0.283373 -4.099727 4.533680
v 0.025033 -0.046339 0.015851
vn 0.383121 2.234713 5.709247
v 0.027739 -0.041418 0.015652
vn 3.246431 -1.756042 2.548620
v 0.032000 -0.045449 0.015418
vn -0.248654 -6.149713 1.184480
v -0.002952 -0.047000 0.014138
vn 0.336045 1.728173 5.938066
v 0.021989 -0.041960 0.016206
vn 0.064788 -6.280073 -0.128587
v 0.000663 -0.048483 -0.001116
vn 0.160775 -6.279691 -0.008098
v 0.001317 -0.048482 0.000054
vn -1.083950 -5.211978 -2.849079
v 0.016880 -0.046735 -0.026349
vn 2.749690 -2.604831 -1.639360
v 0.032000 -0.046651 -0.027274
vn 3.020292 -3.008016 -0.883085
v 0.032000 -0.046910 -0.026576
vn -0.064775 -3.302129 -5.145409
v 0.021985 -0.046131 -0.027871
vn -0.350242 -5.211622 -3.028704
v 0.020246 -0.046735 -0.027170
vn -0.112851 -6.162431 -1.031001
v 0.020360 -0.047000 -0.026182
vn -0.788181 -6.135252 -0.950783
v -0.012147 -0.047000 -0.009831
vn -0.227389 -6.258883 0.438904
v -0.001719 -0.048367 0.003169
vn -1.642377 -0.849837 5.901620
v -0.004414 -0.045017 0.015871
vn -1.194453 -5.207838 2.807307
v -0.006055 -0.046735 0.014234
vn -0.763021 -6.143271 0.972127
v -0.008919 -0.047000 0.011399
vn -4.374317 -0.840528 4.287078
v -0.011758 -0.045017 0.011538
vn -3.204945 -3.006356 4.095489
v -0.009983 -0.046010 0.012758
vn -3.112028 -0.851820 5.275263
v -0.008372 -0.045017 0.014188
vn -3.711835 -3.004964 3.642292
v -0.011563 -0.046010 0.011346
vn -2.177513 -5.207563 2.136880
v -0.011041 -0.046735 0.010834
vn -1.221179 -6.146474 -0.071619
v -0.014425 -0.047000 -0.005194
vn -0.100165 -6.278717 -0.140170
v -0.000680 -0.048482 -0.001104
vn -0.210586 -6.275331 0.156684
v -0.001273 -0.048473 0.001034
vn -2.648599 -3.021402 -4.493749
v -0.012062 -0.046010 -0.011939
vn -3.118610 -0.852557 -5.292558
v -0.012190 -0.045017 -0.012180
vn -1.849990 -3.007479 -4.861678
v 0.016619 -0.046010 -0.027033
vn 3.118228 -0.783054 -3.041774
v 0.032000 -0.045437 -0.028075
vn -0.702676 -0.809150 -6.086673
v 0.020131 -0.045017 -0.028169
vn -4.823638 -3.005725 1.943828
v -0.015025 -0.046010 0.006057
vn -0.727107 -3.004880 5.149046
v -0.002267 -0.046010 0.016041
vn -0.067636 -6.146986 1.225171
v -0.000137 -0.047000 0.014473
vn -0.418229 -5.215796 2.989161
v -0.002164 -0.046735 0.015317
vn 0.032463 -6.280025 -0.135824
v 0.000178 -0.048483 -0.001281
vn 0.138951 -6.280129 -0.041978
v 0.001219 -0.048482 -0.000511
vn -0.040459 -6.070796 -1.618627
v 0.021977 -0.046821 -0.026940
vn 3.058697 -2.145671 -2.289763
v 0.032000 -0.046388 -0.027547
vn -0.722457 -5.211604 -2.962056
v 0.018537 -0.046735 -0.026864
vn -0.572648 -3.005568 -5.169304
v 0.020162 -0.046010 -0.027897
vn -0.073133 -6.278998 0.149596
v -0.000638 -0.048483 0.001116
vn -2.642217 -3.005860 4.478239
v -0.008233 -0.046010 0.013952
vn -0.165826 -6.278566 0.031860
v -0.001214 -0.048483 0.000333
vn -1.394262 -3.003775 5.009542
v -0.004341 -0.046010 0.015608
vn -1.232345 -3.009507 -5.053890
v 0.018364 -0.046010 -0.027575
vn -2.035988 -3.005574 4.785270
v -0.006341 -0.046010 0.014907
vn -0.110052 -6.281502 -0.053066
v -0.001284 -0.048480 -0.000540
# 197 vertices, 0 vertices normals

f 10//10 4//4 3//3
f 18//18 10//10 3//3
f 18//18 3//3 6//6
f 32//32 16//16 6//6
f 32//32 6//6 3//3
f 34//34 6//6 8//8
f 36//36 19//19 11//11
f 36//36 4//4 19//19
f 37//37 4//4 10//10
f 41//41 22//22 9//9
f 45//45 2//2 24//24
f 45//45 24//24 44//44
f 45//45 41//41 2//2
f 45//45 22//22 41//41
f 54//54 8//8 6//6
f 55//55 31//31 6//6
f 57//57 33//33 17//17
f 57//57 1//1 33//33
f 58//58 33//33 1//1
f 58//58 25//25 33//33
f 59//59 6//6 34//34
f 59//59 34//34 17//17
f 59//59 17//17 33//33
f 60//60 34//34 8//8
f 61//61 17//17 34//34
f 62//62 57//57 17//17
f 62//62 35//35 57//57
f 63//63 35//35 29//29
f 63//63 57//57 35//35
f 63//63 1//1 57//57
f 64//64 36//36 11//11
f 65//65 19//19 4//4
f 65//65 4//4 37//37
f 66//66 20//20 12//12
f 67//67 38//38 24//24
f 67//67 24//24 2//2
f 68//68 24//24 38//38
f 68//68 66//66 12//12
f 72//72 21//21 40//40
f 75//75 23//23 42//42
f 79//79 44//44 24//24
f 79//79 24//24 43//43
f 80//80 45//45 44//44
f 80//80 22//22 45//45
f 80//80 44//44 78//78
f 81//81 11//11 19//19
f 82//82 33//33 25//25
f 82//82 81//81 19//19
f 82//82 46//46 81//81
f 82//82 19//19 65//65
f 82//82 59//59 33//33
f 82//82 6//6 59//59
f 82//82 18//18 6//6
f 82//82 10//10 18//18
f 82//82 65//65 37//37
f 82//82 37//37 10//10
f 87//87 27//27 76//76
f 88//88 48//48 49//49
f 89//89 50//50 23//23
f 89//89 75//75 5//5
f 89//89 23//23 75//75
f 90//90 89//89 5//5
f 90//90 50//50 89//89
f 93//93 60//60 28//28
f 95//95 29//29 35//35
f 95//95 94//94 29//29
f 95//95 53//53 94//94
f 96//96 30//30 53//53
f 96//96 15//15 52//52
f 97//97 54//54 6//6
f 97//97 6//6 31//31
f 98//98 55//55 6//6
f 98//98 6//6 16//16
f 99//99 31//31 55//55
f 99//99 55//55 98//98
f 99//99 98//98 16//16
f 100//100 32//32 3//3
f 101//101 58//58 51//51
f 101//101 25//25 58//58
f 101//101 51//51 91//91
f 102//102 61//61 34//34
f 102//102 34//34 60//60
f 102//102 93//93 61//61
f 102//102 60//60 93//93
f 103//103 62//62 17//17
f 103//103 17//17 61//61
f 104//104 58//58 1//1
f 104//104 1//1 63//63
f 104//104 51//51 58//58
f 105//105 36//36 64//64
f 106//106 68//68 12//12
f 106//106 24//24 68//68
f 107//107 68//68 38//38
f 107//107 66//66 68//68
f 108//108 39//39 69//69
f 109//109 12//12 20//20
f 110//110 70//70 4//4
f 110//110 4//4 36//36
f 110//110 105//105 21//21
f 110//110 36//36 105//105
f 111//111 71//71 40//40
f 112//112 21//21 72//72
f 112//112 110//110 21//21
f 112//112 70//70 110//110
f 113//113 69//69 39//39
f 113//113 72//72 109//109
f 113//113 112//112 72//72
f 113//113 39//39 112//112
f 115//115 42//42 23//23
f 117//117 73//73 42//42
f 117//117 74//74 9//9
f 117//117 9//9 73//73
f 117//117 42//42 115//115
f 118//118 76//76 27//27
f 118//118 27//27 30//30
f 118//118 92//92 76//76
f 118//118 52//52 92//92
f 118//118 96//96 52//52
f 118//118 30//30 96//96
f 119//119 75//75 42//42
f 119//119 5//5 75//75
f 119//119 76//76 92//92
f 120//120 26//26 49//49
f 121//121 78//78 44//44
f 121//121 44//44 79//79
f 121//121 13//13 78//78
f 122//122 80//80 78//78
f 122//122 78//78 13//13
f 123//123 11//11 81//81
f 124//124 82//82 25//25
f 124//124 46//46 82//82
f 124//124 83//83 46//46
f 124//124 25//25 83//83
f 126//126 120//120 77//77
f 126//126 125//125 84//84
f 127//127 81//81 46//46
f 128//128 14//14 48//48
f 128//128 91//91 14//14
f 128//128 88//88 85//85
f 128//128 48//48 88//88
f 129//129 85//85 88//88
f 130//130 94//94 53//53
f 131//131 48//48 14//14
f 131//131 14//14 86//86
f 132//132 27//27 87//87
f 132//132 131//131 86//86
f 132//132 49//49 48//48
f 132//132 48//48 131//131
f 132//132 130//130 27//27
f 132//132 86//86 130//130
f 133//133 132//132 87//87
f 133//133 49//49 132//132
f 135//135 87//87 76//76
f 135//135 119//119 42//42
f 135//135 76//76 119//119
f 135//135 134//134 87//87
f 135//135 42//42 134//134
f 136//136 88//88 49//49
f 136//136 49//49 26//26
f 136//136 129//129 88//88
f 137//137 50//50 90//90
f 138//138 14//14 91//91
f 138//138 29//29 94//94
f 138//138 104//104 63//63
f 138//138 63//63 29//29
f 138//138 91//91 51//51
f 138//138 51//51 104//104
f 139//139 92//92 52//52
f 139//139 52//52 93//93
f 139//139 93//93 28//28
f 139//139 28//28 90//90
f 140//140 93//93 52//52
f 140//140 52//52 15//15
f 140//140 61//61 93//93
f 140//140 103//103 61//61
f 140//140 15//15 103//103
f 141//141 86//86 14//14
f 141//141 130//130 86//86
f 141//141 94//94 130//130
f 141//141 138//138 94//94
f 141//141 14//14 138//138
f 142//142 95//95 35//35
f 142//142 35//35 62//62
f 142//142 103//103 15//15
f 142//142 62//62 103//103
f 142//142 15//15 96//96
f 142//142 96//96 53//53
f 142//142 53//53 95//95
f 143//143 97//97 31//31
f 143//143 31//31 99//99
f 143//143 54//54 97//97
f 143//143 8//8 54//54
f 144//144 100//100 3//3
f 145//145 99//99 16//16
f 146//146 83//83 25//25
f 146//146 25//25 101//101
f 147//147 146//146 101//101
f 147//147 128//128 85//85
f 147//147 47//47 83//83
f 147//147 83//83 146//146
f 147//147 129//129 47//47
f 147//147 85//85 129//129
f 148//148 40//40 21//21
f 148//148 21//21 105//105
f 148//148 111//111 40//40
f 149//149 106//106 71//71
f 149//149 24//24 106//106
f 149//149 43//43 24//24
f 150//150 40//40 71//71
f 150//150 71//71 106//106
f 150//150 72//72 40//40
f 150//150 109//109 72//72
f 150//150 106//106 12//12
f 150//150 12//12 109//109
f 151//151 39//39 108//108
f 151//151 108//108 4//4
f 151//151 4//4 70//70
f 152//152 109//109 20//20
f 152//152 113//113 109//109
f 152//152 69//69 113//113
f 153//153 7//7 77//77
f 153//153 120//120 43//43
f 153//153 77//77 120//120
f 154//154 112//112 39//39
f 154//154 70//70 112//112
f 154//154 151//151 70//70
f 154//154 39//39 151//151
f 155//155 9//9 114//114
f 156//156 9//9 22//22
f 156//156 22//22 80//80
f 156//156 80//80 122//122
f 157//157 115//115 23//23
f 157//157 23//23 50//50
f 159//159 9//9 74//74
f 159//159 116//116 158//158
f 160//160 100//100 56//56
f 162//162 117//117 115//115
f 162//162 74//74 117//117
f 162//162 115//115 161//161
f 163//163 119//119 92//92
f 163//163 5//5 119//119
f 163//163 92//92 139//139
f 163//163 139//139 90//90
f 163//163 90//90 5//5
f 164//164 79//79 43//43
f 164//164 43//43 120//120
f 164//164 121//121 79//79
f 164//164 120//120 49//49
f 164//164 49//49 133//133
f 165//165 64//64 11//11
f 165//165 11//11 123//123
f 166//166 77//77 7//7
f 166//166 126//126 77//77
f 166//166 125//125 126//126
f 167//167 126//126 84//84
f 167//167 84//84 26//26
f 167//167 26//26 120//120
f 167//167 120//120 126//126
f 168//168 83//83 47//47
f 168//168 127//127 46//46
f 168//168 46//46 83//83
f 170//170 123//123 81//81
f 170//170 81//81 127//127
f 171//171 84//84 169//169
f 171//171 168//168 47//47
f 171//171 169//169 127//127
f 171//171 127//127 168//168
f 172//172 26//26 84//84
f 172//172 136//136 26//26
f 172//172 129//129 136//136
f 172//172 84//84 171//171
f 172//172 171//171 47//47
f 172//172 47//47 129//129
f 173//173 30//30 27//27
f 173//173 27//27 130//130
f 173//173 130//130 53//53
f 173//173 53//53 30//30
f 174//174 134//134 42//42
f 174//174 42//42 73//73
f 175//175 133//133 87//87
f 175//175 164//164 133//133
f 176//176 137//137 90//90
f 176//176 90//90 28//28
f 176//176 143//143 137//137
f 176//176 28//28 60//60
f 177//177 60//60 8//8
f 177//177 8//8 143//143
f 177//177 176//176 60//60
f 177//177 143//143 176//176
f 178//178 143//143 99//99
f 178//178 137//137 143//143
f 178//178 99//99 145//145
f 178//178 157//157 50//50
f 178//178 50//50 137//137
f 179//179 56//56 100//100
f 179//179 100//100 144//144
f 180//180 145//145 16//16
f 180//180 16//16 32//32
f 180//180 32//32 100//100
f 181//181 147//147 101//101
f 181//181 101//101 91//91
f 181//181 91//91 128//128
f 181//181 128//128 147//147
f 182//182 148//148 105//105
f 182//182 105//105 64//64
f 182//182 111//111 148//148
f 183//183 149//149 71//71
f 183//183 71//71 111//111
f 183//183 153//153 43//43
f 183//183 43//43 149//149
f 184//184 7//7 153//153
f 184//184 183//183 111//111
f 184//184 153//153 183//183
f 184//184 111//111 182//182
f 185//185 73//73 9//9
f 185//185 9//9 155//155
f 185//185 174//174 73//73
f 185//185 155//155 122//122
f 186//186 114//114 9//9
f 186//186 155//155 114//114
f 186//186 9//9 156//156
f 186//186 156//156 122//122
f 186//186 122//122 155//155
f 187//187 159//159 74//74
f 187//187 116//116 159//159
f 187//187 74//74 162//162
f 187//187 162//162 161//161
f 187//187 161//161 116//116
f 188//188 158//158 116//116
f 188//188 159//159 158//158
f 188//188 116//116 160//160
f 188//188 160//160 56//56
f 188//188 56//56 179//179
f 188//188 9//9 159//159
f 188//188 41//41 9//9
f 188//188 2//2 41//41
f 188//188 67//67 2//2
f 188//188 38//38 67//67
f 188//188 107//107 38//38
f 188//188 66//66 107//107
f 188//188 20//20 66//66
f 188//188 152//152 20//20
f 188//188 69//69 152//152
f 188//188 108//108 69//69
f 188//188 4//4 108//108
f 188//188 3//3 4//4
f 188//188 179//179 144//144
f 188//188 144//144 3//3
f 189//189 161//161 115//115
f 189//189 115//115 157//157
f 189//189 157//157 178//178
f 190//190 160//160 116//116
f 190//190 116//116 161//161
f 190//190 161//161 189//189
f 190//190 180//180 100//100
f 190//190 100//100 160//160
f 190//190 145//145 180//180
f 191//191 13//13 121//121
f 191//191 121//121 164//164
f 191//191 164//164 175//175
f 191//191 122//122 13//13
f 192//192 169//169 84//84
f 192//192 84//84 125//125
f 192//192 125//125 166//166
f 192//192 170//170 127//127
f 192//192 127//127 169//169
f 193//193 175//175 87//87
f 193//193 87//87 134//134
f 193//193 191//191 175//175
f 193//193 122//122 191//191
f 193//193 185//185 122//122
f 193//193 174//174 185//185
f 194//194 182//182 64//64
f 194//194 64//64 165//165
f 194//194 165//165 123//123
f 194//194 166//166 7//7
f 194//194 184//184 182//182
f 194//194 7//7 184//184
f 195//195 190//190 189//189
f 195//195 189//189 178//178
f 195//195 178//178 145//145
f 195//195 145//145 190//190
f 196//196 123//123 170//170
f 196//196 170//170 192//192
f 196//196 194//194 123//123
f 196//196 192//192 166//166
f 196//196 166//166 194//194
f 197//197 193//193 134//134
f 197//197 134//134 174//174
f 197//197 174//174 193//193
# 390 faces, 0 coords texture

# End of File
