# Blender 4.3.2
# www.blender.org
o link6_3
v -0.012957 -0.010133 0.051165
v -0.000641 -0.001508 0.052756
v -0.006119 -0.015235 0.052135
v -0.005058 -0.015656 0.052265
v -0.003783 -0.016010 0.052413
v -0.009878 -0.013152 0.051641
v -0.011510 -0.011750 0.051399
v -0.006999 -0.004609 0.052027
v -0.012440 -0.010712 0.051249
v -0.012858 -0.010244 0.051181
v -0.009562 -0.013372 0.051685
v -0.008921 -0.013819 0.051775
v 0.001244 0.007538 0.052943
v 0.000168 0.009650 0.052838
v -0.009686 -0.002193 0.051668
v -0.008012 -0.002733 0.051896
v -0.000904 0.010046 0.052728
v 0.000951 0.010966 0.052916
v -0.010307 0.012819 0.051579
v -0.004263 0.015891 0.052358
v -0.005466 0.015519 0.052216
v -0.007451 0.014669 0.051969
v -0.007575 0.014595 0.051953
v -0.009297 0.013571 0.051723
v -0.012854 0.010214 0.051181
v -0.011904 0.011351 0.051337
v -0.010799 0.012367 0.051505
v 0.001244 0.016392 0.052944
v -0.000187 0.011378 0.052802
v 0.000001 0.016449 0.052821
v -0.001324 0.011789 0.052684
v -0.002159 0.016309 0.052595
v -0.003200 0.010851 0.052479
v -0.003897 0.015964 0.052399
v -0.003857 -0.003076 0.052405
v 0.005727 0.007844 0.053335
v 0.003885 0.006905 0.053185
v 0.003526 0.004524 0.053154
v 0.002044 0.005967 0.053020
v 0.001245 0.005291 0.052940
v 0.000183 0.005648 0.052840
v -0.000970 0.002298 0.052721
v -0.002750 0.009129 0.052530
v -0.002120 -0.001042 0.052599
v -0.005053 0.009924 0.052265
v -0.006287 -0.003290 0.052116
v 0.003851 0.011527 0.053182
v 0.004891 0.015709 0.053269
v 0.003649 0.016041 0.053165
v 0.002009 0.010588 0.053017
v 0.002247 0.016264 0.053037
v 0.001244 0.010199 0.052943
v 0.001516 0.016379 0.052971
v 0.009473 0.013436 0.053589
v 0.009756 0.013243 0.053606
v 0.011402 0.011857 0.053698
v 0.012365 0.010800 0.053746
v 0.008768 0.013918 0.053546
v 0.007585 0.004825 0.053469
v 0.006876 0.014947 0.053420
v 0.006025 0.015274 0.053355
v 0.015531 0.005433 0.053886
v 0.011177 0.003619 0.053686
v 0.014686 0.007418 0.053852
v 0.014591 0.007578 0.053848
v 0.013594 0.009265 0.053805
v 0.009383 0.004221 0.053584
v 0.012863 0.010254 0.053771
v 0.015276 -0.006019 0.053876
v 0.015716 -0.004869 0.053893
v 0.016048 -0.003620 0.053905
v 0.016266 -0.002229 0.053913
v 0.016382 -0.001486 0.053917
v 0.016450 0.000000 0.053920
v 0.009985 0.003002 0.053620
v 0.016309 0.002158 0.053915
v 0.015963 0.003901 0.053902
v 0.015892 0.004262 0.053900
v 0.010264 -0.012855 0.053636
v 0.010800 -0.012365 0.053664
v 0.011865 -0.011393 0.053722
v 0.013251 -0.009745 0.053789
v 0.013437 -0.009473 0.053798
v 0.013927 -0.008753 0.053820
v 0.014956 -0.006859 0.053863
v 0.006873 0.003400 0.053420
v 0.008792 0.002385 0.053548
v 0.000929 -0.004668 0.052914
v 0.001245 0.000620 0.052937
v 0.001244 -0.005301 0.052944
v 0.001417 -0.008307 0.052961
v 0.002513 -0.010486 0.053064
v 0.002372 0.001177 0.053051
v 0.009260 -0.013597 0.053577
v 0.002499 -0.007827 0.053063
v 0.001245 -0.007402 0.052936
v 0.001244 -0.008821 0.052944
v -0.002304 -0.006200 0.052579
v 0.000320 -0.011569 0.052854
v -0.007039 -0.014870 0.052022
v -0.002331 -0.016253 0.052574
v -0.001653 -0.016366 0.052649
v 0.000001 -0.016449 0.052821
v 0.001244 -0.011877 0.052943
v 0.001244 -0.016368 0.052942
v 0.001965 -0.012117 0.053013
v 0.002153 -0.016310 0.053031
v 0.003900 -0.015964 0.053185
v 0.004254 -0.015894 0.053217
v 0.005432 -0.015531 0.053312
v 0.003610 -0.012666 0.053162
v 0.007414 -0.014688 0.053458
v 0.007578 -0.014591 0.053468
v -0.013284 0.009699 0.051110
v -0.013437 0.009472 0.051083
v -0.008584 -0.004410 0.051820
v -0.010783 -0.005483 0.051509
v -0.013982 0.008665 0.050989
v -0.014992 0.006778 0.050804
v -0.015280 0.006011 0.050748
v -0.015738 0.004795 0.050660
v -0.016079 0.003474 0.050591
v -0.016264 0.002227 0.050554
v -0.016392 0.001359 0.050528
v -0.016449 0.000000 0.050516
v -0.016310 -0.002143 0.050544
v -0.015972 -0.003861 0.050613
v -0.015899 -0.004230 0.050627
v -0.015552 -0.005369 0.050696
v -0.014719 -0.007351 0.050855
v -0.015312 -0.005683 0.050743
v -0.014628 -0.007506 0.050871
v -0.013638 -0.009198 0.051049
vn -0.1141 -0.0002 0.9935
vn -0.1197 -0.0022 0.9928
vn -0.1142 0.0006 0.9935
vn -0.1018 -0.0013 0.9948
vn -0.0957 -0.0008 0.9954
vn -0.0955 -0.0002 0.9954
vn -0.0986 -0.0001 0.9951
vn -0.1009 0.0002 0.9949
vn -0.1011 0.0001 0.9949
vn -0.1057 -0.0001 0.9944
vn -0.1118 0.0003 0.9937
vn -0.0950 -0.0023 0.9955
vn -0.0981 -0.0000 0.9952
vn -0.0957 -0.0027 0.9954
vn -0.0995 -0.0003 0.9950
vn -0.1032 -0.0000 0.9947
vn -0.1057 0.0001 0.9944
vn -0.0940 0.0006 0.9956
vn -0.0907 -0.0001 0.9959
vn -0.0946 -0.0003 0.9955
vn -0.0932 0.0012 0.9956
vn -0.0945 0.0002 0.9955
vn -0.1009 0.0016 0.9949
vn -0.0870 -0.0007 0.9962
vn -0.1014 0.0034 0.9948
vn -0.0990 0.0068 0.9951
vn -0.1017 0.0032 0.9948
vn -0.1050 -0.0000 0.9945
vn -0.1003 -0.0001 0.9950
vn -0.0964 -0.0003 0.9953
vn -0.0971 -0.0002 0.9953
vn -0.0942 -0.0000 0.9955
vn -0.0932 -0.0003 0.9956
vn -0.0802 0.0041 0.9968
vn -0.0887 -0.0009 0.9961
vn -0.0854 -0.0001 0.9963
vn -0.1651 -0.0000 0.9863
vn -0.1728 -0.0002 0.9850
vn -0.1519 0.0043 0.9884
vn -0.1446 -0.0042 0.9895
vn -0.1512 0.0084 0.9885
vn -0.1865 -0.0012 0.9824
vn -0.1165 0.0045 0.9932
vn -0.1095 0.0126 0.9939
vn -0.1174 0.0114 0.9930
vn -0.1161 0.0097 0.9932
vn -0.1123 0.0051 0.9937
vn -0.1097 0.0027 0.9940
vn -0.1335 0.0118 0.9910
vn -0.1142 -0.0017 0.9935
vn -0.1395 0.0074 0.9902
vn -0.1265 -0.0048 0.9920
vn -0.1507 0.0084 0.9885
vn -0.1317 0.0098 0.9912
vn -0.1298 0.0081 0.9915
vn -0.1210 0.0053 0.9926
vn -0.1417 0.0020 0.9899
vn -0.1300 0.0015 0.9915
vn -0.1248 -0.0002 0.9922
vn -0.1359 -0.0118 0.9907
vn -0.1370 -0.0141 0.9905
vn -0.1326 -0.0071 0.9911
vn -0.1237 -0.0019 0.9923
vn -0.1283 -0.0031 0.9917
vn -0.1452 -0.0047 0.9894
vn -0.1380 -0.0185 0.9903
vn -0.1078 0.0002 0.9942
vn -0.1030 -0.0079 0.9946
vn -0.1207 -0.0005 0.9927
vn -0.0698 0.0006 0.9976
vn -0.0832 0.0006 0.9965
vn -0.0451 0.0166 0.9988
vn -0.0729 -0.0002 0.9973
vn -0.0819 -0.0011 0.9966
vn -0.0848 -0.0011 0.9964
vn -0.1105 -0.0002 0.9939
vn -0.0808 -0.0015 0.9967
vn -0.0872 -0.0008 0.9962
vn -0.0609 -0.0006 0.9981
vn -0.0593 -0.0004 0.9982
vn -0.0561 0.0015 0.9984
vn -0.0544 -0.0005 0.9985
vn -0.0514 -0.0013 0.9987
vn -0.0645 -0.0001 0.9979
vn -0.0735 -0.0007 0.9973
vn -0.0765 -0.0016 0.9971
vn -0.0495 0.0004 0.9988
vn -0.0450 -0.0027 0.9990
vn -0.0470 -0.0016 0.9989
vn -0.0483 -0.0036 0.9988
vn -0.0484 -0.0035 0.9988
vn -0.0492 -0.0027 0.9988
vn -0.0508 -0.0017 0.9987
vn -0.0521 -0.0035 0.9986
vn -0.0451 0.0019 0.9990
vn -0.0445 0.0022 0.9990
vn -0.0448 0.0020 0.9990
vn -0.0454 0.0015 0.9990
vn -0.0456 0.0012 0.9990
vn -0.0464 -0.0002 0.9989
vn -0.0462 -0.0016 0.9989
vn -0.0450 -0.0023 0.9990
vn -0.0569 0.0003 0.9984
vn -0.0534 0.0006 0.9986
vn -0.0628 -0.0010 0.9980
vn -0.0533 0.0007 0.9986
vn -0.0501 0.0014 0.9987
vn -0.0496 0.0016 0.9988
vn -0.0477 0.0019 0.9989
vn -0.0452 0.0018 0.9990
vn -0.0691 0.0033 0.9976
vn -0.0846 -0.0038 0.9964
vn -0.0708 0.0112 0.9974
vn -0.1071 0.0015 0.9943
vn -0.0776 0.0029 0.9970
vn -0.0710 0.0103 0.9974
vn -0.0701 0.0117 0.9975
vn -0.1312 -0.0138 0.9913
vn -0.1715 -0.0002 0.9852
vn -0.1803 -0.0008 0.9836
vn -0.1864 -0.0016 0.9825
vn -0.1858 -0.0015 0.9826
vn -0.1893 -0.0022 0.9819
vn -0.1971 -0.0003 0.9804
vn -0.1885 -0.0010 0.9821
vn -0.1975 -0.0003 0.9803
vn -0.1947 0.0002 0.9809
vn -0.1859 0.0028 0.9826
vn -0.1989 -0.0021 0.9800
vn -0.1909 0.0010 0.9816
vn -0.1548 0.0113 0.9879
vn -0.1711 0.0036 0.9852
vn -0.1610 0.0057 0.9869
vt 0.967899 0.120361
vt 0.967532 0.119585
vt 0.970909 0.118597
vt 0.973055 0.119743
vt 0.973274 0.120535
vt 0.972756 0.120738
vt 0.970175 0.123360
vt 0.972027 0.120353
vt 0.969576 0.122762
vt 0.971300 0.119969
vt 0.968030 0.120579
vt 0.975757 0.119006
vt 0.974605 0.119321
vt 0.975729 0.118296
vt 0.975064 0.117925
vt 0.972365 0.119385
vt 0.976212 0.115817
vt 0.973430 0.121097
vt 0.970698 0.123806
vt 0.970306 0.123491
vt 0.980567 0.113594
vt 0.981029 0.113463
vt 0.978066 0.116165
vt 0.978304 0.116986
vt 0.982612 0.112179
vt 0.982080 0.112505
vt 0.982790 0.111858
vt 0.983741 0.110139
vt 0.986037 0.107752
vt 0.984319 0.110463
vt 0.986566 0.108414
vt 0.984769 0.110716
vt 0.986953 0.108898
vt 0.985797 0.111292
vt 0.987580 0.109933
vt 0.987707 0.110143
vt 0.966842 0.112979
vt 0.966885 0.112798
vt 0.977017 0.104097
vt 0.966783 0.113432
vt 0.976915 0.104098
vt 0.969198 0.108054
vt 0.977575 0.111912
vt 0.978266 0.114246
vt 0.982619 0.105225
vt 0.983318 0.105568
vt 0.984080 0.106048
vt 0.984868 0.106669
vt 0.979847 0.104279
vt 0.979851 0.111269
vt 0.978393 0.104093
vt 0.976898 0.109630
vt 0.977444 0.104095
vt 0.980103 0.104338
vt 0.980622 0.104458
vt 0.982014 0.104928
vt 0.974453 0.109375
vt 0.975494 0.109974
vt 0.970521 0.117241
vt 0.966655 0.115910
vt 0.966655 0.115455
vt 0.966745 0.116764
vt 0.967045 0.118197
vt 0.967025 0.118100
vt 0.975593 0.107320
vt 0.966653 0.114432
vt 0.968656 0.121611
vt 0.977355 0.113715
vt 0.976566 0.110590
vt 0.978865 0.121267
vt 0.973804 0.122451
vt 0.976505 0.121712
vt 0.979252 0.120260
vt 0.976131 0.120359
vt 0.977158 0.119092
vt 0.971977 0.118038
vt 0.972187 0.124881
vt 0.971452 0.124409
vt 0.975420 0.126142
vt 0.975646 0.126196
vt 0.979989 0.121893
vt 0.977092 0.126388
vt 0.978060 0.126388
vt 0.974857 0.126008
vt 0.973477 0.125529
vt 0.972924 0.125251
vt 0.981110 0.122517
vt 0.982942 0.125172
vt 0.982191 0.125525
vt 0.980812 0.126008
vt 0.980689 0.126033
vt 0.979390 0.126304
vt 0.978560 0.126389
vt 0.980874 0.121638
vt 0.987804 0.120173
vt 0.987430 0.120918
vt 0.986957 0.121654
vt 0.986360 0.122398
vt 0.986041 0.122795
vt 0.985329 0.123507
vt 0.984185 0.124421
vt 0.983155 0.125043
vt 0.988935 0.114544
vt 0.988935 0.115036
vt 0.980638 0.120759
vt 0.988935 0.116013
vt 0.988744 0.117459
vt 0.988693 0.117676
vt 0.988556 0.118250
vt 0.988079 0.119629
vt 0.988848 0.113702
vt 0.982867 0.112942
vt 0.984204 0.111736
vt 0.985236 0.106958
vt 0.988065 0.110900
vt 0.988550 0.112279
vt 0.988576 0.112405
vt 0.976069 0.108921
vt 0.967036 0.112153
vt 0.967512 0.110778
vt 0.967762 0.110282
vt 0.968157 0.109494
vt 0.968659 0.108717
vt 0.969572 0.107592
vt 0.973598 0.104931
vt 0.970225 0.106943
vt 0.971362 0.106036
vt 0.972379 0.105425
vt 0.972598 0.105294
vt 0.973329 0.104951
vt 0.974708 0.104472
vt 0.974827 0.104447
vt 0.976133 0.104178
s 1
f 20/1/1 21/2/2 33/3/3
f 14/4/4 52/5/5 18/6/6
f 52/5/5 28/7/7 18/6/6
f 18/6/6 28/7/7 29/8/8
f 29/8/8 30/9/9 31/10/10
f 33/3/3 34/11/11 20/1/1
f 39/12/12 13/13/13 40/14/14
f 40/14/14 13/13/13 41/15/15
f 41/15/15 17/16/16 42/17/17
f 50/18/18 51/19/19 52/5/5
f 51/19/19 53/20/20 52/5/5
f 52/5/5 53/20/20 28/7/7
f 88/21/21 90/22/22 89/23/23
f 89/23/23 90/22/22 93/24/24
f 91/25/25 96/26/26 97/27/27
f 99/28/28 103/29/29 104/30/30
f 104/30/30 105/31/31 106/32/32
f 105/31/31 107/33/33 106/32/32
f 111/34/34 108/35/35 109/36/36
f 114/37/37 115/38/38 10/39/39
f 10/39/39 25/40/40 114/37/37
f 1/41/41 10/39/39 123/42/42
f 35/43/43 2/44/44 89/23/23
f 3/45/45 4/46/46 99/28/28
f 4/46/46 5/47/47 99/28/28
f 99/28/28 5/47/47 101/48/48
f 6/49/49 98/50/50 7/51/51
f 98/50/50 8/52/52 7/51/51
f 7/51/51 8/52/52 9/53/53
f 8/52/52 10/39/39 9/53/53
f 6/49/49 11/54/54 98/50/50
f 11/54/54 12/55/55 98/50/50
f 98/50/50 12/55/55 100/56/56
f 13/13/13 14/4/4 17/16/16
f 15/57/57 16/58/58 45/59/59
f 17/16/16 14/4/4 18/6/6
f 19/60/60 27/61/61 45/59/59
f 19/60/60 45/59/59 24/62/62
f 21/2/2 22/63/63 33/3/3
f 33/3/3 22/63/63 45/59/59
f 22/63/63 23/64/64 45/59/59
f 45/59/59 23/64/64 24/62/62
f 117/65/65 15/57/57 25/40/40
f 15/57/57 45/59/59 25/40/40
f 25/40/40 45/59/59 26/66/66
f 45/59/59 27/61/61 26/66/66
f 28/7/7 30/9/9 29/8/8
f 30/9/9 32/67/67 31/10/10
f 31/10/10 32/67/67 33/3/3
f 32/67/67 34/11/11 33/3/3
f 89/23/23 44/68/68 35/43/43
f 44/68/68 46/69/69 35/43/43
f 35/43/43 46/69/69 8/52/52
f 59/70/70 47/71/71 36/72/72
f 86/73/73 37/74/74 38/75/75
f 37/74/74 39/12/12 38/75/75
f 38/75/75 39/12/12 40/14/14
f 13/13/13 17/16/16 41/15/15
f 17/16/16 43/76/76 42/17/17
f 42/17/17 43/76/76 44/68/68
f 43/76/76 45/59/59 44/68/68
f 44/68/68 45/59/59 46/69/69
f 45/59/59 16/58/58 46/69/69
f 50/18/18 47/71/71 48/77/77
f 48/77/77 49/78/78 50/18/18
f 49/78/78 51/19/19 50/18/18
f 54/79/79 59/70/70 55/80/80
f 59/70/70 67/81/81 55/80/80
f 55/80/80 67/81/81 56/82/82
f 67/81/81 57/83/83 56/82/82
f 54/79/79 58/84/84 59/70/70
f 58/84/84 60/85/85 59/70/70
f 59/70/70 60/85/85 47/71/71
f 60/85/85 61/86/86 47/71/71
f 47/71/71 61/86/86 48/77/77
f 63/87/87 78/88/88 62/89/89
f 63/87/87 62/89/89 67/81/81
f 62/89/89 64/90/90 67/81/81
f 67/81/81 64/90/90 65/91/91
f 65/91/91 66/92/92 67/81/81
f 66/92/92 68/93/93 67/81/81
f 67/81/81 68/93/93 57/83/83
f 75/94/94 69/95/95 70/96/96
f 70/96/96 71/97/97 75/94/94
f 71/97/97 72/98/98 75/94/94
f 75/94/94 72/98/98 73/99/99
f 73/99/99 74/100/100 75/94/94
f 74/100/100 76/101/101 75/94/94
f 75/94/94 76/101/101 63/87/87
f 76/101/101 77/102/102 63/87/87
f 63/87/87 77/102/102 78/88/88
f 79/103/103 80/104/104 87/105/105
f 80/104/104 81/106/106 87/105/105
f 87/105/105 81/106/106 82/107/107
f 82/107/107 83/108/108 87/105/105
f 83/108/108 84/109/109 87/105/105
f 87/105/105 84/109/109 75/94/94
f 84/109/109 85/110/110 75/94/94
f 75/94/94 85/110/110 69/95/95
f 36/72/72 37/74/74 59/70/70
f 37/74/74 86/73/73 59/70/70
f 59/70/70 86/73/73 87/105/105
f 86/73/73 94/111/111 87/105/105
f 87/105/105 94/111/111 79/103/103
f 2/44/44 88/21/21 89/23/23
f 90/22/22 95/112/112 93/24/24
f 91/25/25 92/113/113 94/111/111
f 86/73/73 93/24/24 94/111/111
f 93/24/24 95/112/112 94/111/111
f 94/111/111 95/112/112 91/25/25
f 95/112/112 96/26/26 91/25/25
f 96/26/26 98/50/50 97/27/27
f 97/27/27 98/50/50 99/28/28
f 98/50/50 100/56/56 99/28/28
f 99/28/28 100/56/56 3/45/45
f 101/48/48 102/114/114 99/28/28
f 102/114/114 103/29/29 99/28/28
f 103/29/29 105/31/31 104/30/30
f 106/32/32 107/33/33 111/34/34
f 107/33/33 108/35/35 111/34/34
f 109/36/36 110/115/115 111/34/34
f 110/115/115 112/116/116 111/34/34
f 111/34/34 112/116/116 92/113/113
f 112/116/116 113/117/117 92/113/113
f 92/113/113 113/117/117 94/111/111
f 46/69/69 116/118/118 8/52/52
f 116/118/118 117/65/65 8/52/52
f 8/52/52 117/65/65 10/39/39
f 117/65/65 25/40/40 10/39/39
f 115/38/38 118/119/119 10/39/39
f 118/119/119 119/120/120 10/39/39
f 10/39/39 119/120/120 120/121/121
f 120/121/121 121/122/122 10/39/39
f 121/122/122 122/123/123 10/39/39
f 10/39/39 122/123/123 123/42/42
f 123/42/42 124/124/124 131/125/125
f 124/124/124 125/126/126 131/125/125
f 131/125/125 125/126/126 126/127/127
f 126/127/127 127/128/128 131/125/125
f 127/128/128 128/129/129 131/125/125
f 131/125/125 128/129/129 129/130/130
f 129/130/130 130/131/131 131/125/125
f 130/131/131 132/132/132 131/125/125
f 131/125/125 132/132/132 123/42/42
f 132/132/132 133/133/133 123/42/42
f 123/42/42 133/133/133 1/41/41
