mtllib material.mtl
usemtl material_0
v -0.04782300 -0.00100000 -0.01082300
v -0.04782300 0.00100000 -0.01082300
v -0.04783400 0.00000000 -0.01380000
v -0.04690000 0.00000000 -0.01380000
v -0.04783400 0.00000000 -0.01380000
v -0.04690000 0.00100000 -0.01082300
v -0.04782300 0.00100000 -0.01082300
v -0.04690000 -0.00100000 -0.01082300
v -0.04782300 -0.00100000 -0.01082300
v -0.04690000 0.00000000 -0.01380000
v -0.04783400 0.00000000 -0.01380000
v -0.04690000 0.00100000 -0.01082300
v -0.04782300 0.00100000 -0.01082300
v -0.04690000 -0.00100000 -0.01082300
v -0.04782300 -0.00100000 -0.01082300
v -0.04690000 0.00650000 -0.00550000
v -0.04690000 0.00650000 -0.01480000
v -0.04690000 0.00000000 -0.01380000
v -0.04690000 -0.00650000 -0.01480000
v -0.04690000 -0.00100000 -0.01082300
v -0.04690000 -0.00650000 -0.00550000
v -0.04690000 0.00100000 -0.01082300
v -0.04690000 0.00650000 -0.00550000
v -0.04690000 0.00000000 -0.01380000
v -0.04690000 -0.00650000 -0.00550000
v -0.04690000 -0.00650000 -0.01480000
v -0.04739000 -0.00650000 -0.00550000
v -0.04739000 -0.00650000 -0.01480000
v -0.04755400 0.00516600 -0.00550000
v -0.04739000 0.00650000 -0.00550000
v -0.04690000 0.00650000 -0.00550000
v -0.04755400 0.00516600 -0.00550000
v -0.04690000 0.00650000 -0.00550000
v -0.04774700 -0.00288400 -0.00550000
v -0.04690000 -0.00650000 -0.00550000
v -0.04739000 -0.00650000 -0.00550000
v -0.04690000 0.00650000 -0.01480000
v -0.04690000 0.00650000 -0.00550000
v -0.04739000 0.00650000 -0.01480000
v -0.04739000 0.00650000 -0.00550000
v -0.04739000 -0.00650000 -0.00550000
v -0.04739000 -0.00650000 -0.01480000
v -0.04658700 -0.01085100 -0.01480000
v -0.04765500 -0.00288300 0.00380000
v -0.04768800 0.00373200 0.00380000
v -0.04774700 -0.00288400 -0.00550000
v -0.04755400 0.00516600 -0.00550000
v -0.04591600 0.01303500 0.00380000
v -0.04739000 0.00650000 -0.00550000
v -0.04641300 0.01157100 0.00380000
v -0.04755400 0.00516600 -0.00550000
v -0.04745700 0.00515000 0.00380000
v -0.04768800 0.00373200 0.00380000
v -0.01636000 0.04494900 0.00380000
v -0.01335400 0.04593200 0.00380000
v -0.01335400 0.04593200 -0.01480000
v -0.00546100 0.04752100 0.00380000
v -0.00546100 0.04752100 -0.01480000
v 0.00258700 0.04776400 0.00380000
v 0.00258700 0.04776400 -0.01480000
v 0.01056100 0.04665300 0.00380000
v 0.01056100 0.04665300 -0.01480000
v 0.01823600 0.04422100 0.00380000
v 0.01823600 0.04422100 -0.01480000
v 0.02539500 0.04053600 0.00380000
v 0.02539500 0.04053600 -0.01480000
v 0.03183400 0.03570200 0.00380000
v 0.03183400 0.03570200 -0.01480000
v 0.03737100 0.02985700 0.00380000
v 0.03737100 0.02985700 -0.01480000
v 0.04185000 0.02316600 0.00380000
v 0.04185000 0.02316600 -0.01480000
v 0.04514200 0.01581900 0.00380000
v 0.04514200 0.01581900 -0.01480000
v 0.04715600 0.00802300 0.00380000
v 0.04715600 0.00802300 -0.01480000
v 0.04783400 -0.00000000 0.00380000
v 0.04783400 -0.00000000 -0.01480000
v -0.01636000 0.04494900 0.00380000
v -0.01335400 0.04593200 -0.01480000
v -0.02082500 0.04294300 0.00380000
v -0.02086900 0.04304100 -0.01480000
v -0.02274100 0.04208200 0.00380000
v -0.02779300 0.03893100 -0.01480000
v -0.02772500 0.03882700 0.00380000
v -0.02772500 0.03882700 0.00380000
v -0.02779300 0.03893100 -0.01480000
v -0.02939000 0.03774000 0.00380000
v -0.03392900 0.03371800 -0.01480000
v -0.03384800 0.03363000 0.00380000
v -0.03384800 0.03363000 0.00380000
v -0.03392900 0.03371800 -0.01480000
v -0.03522900 0.03235700 0.00380000
v -0.03910300 0.02755000 -0.01480000
v -0.03901300 0.02748000 0.00380000
v -0.03901300 0.02748000 0.00380000
v -0.03910300 0.02755000 -0.01480000
v -0.04009700 0.02608300 0.00380000
v -0.04317000 0.02060100 -0.01480000
v -0.04307400 0.02054900 0.00380000
v -0.04307400 0.02054900 0.00380000
v -0.04317000 0.02060100 -0.01480000
v -0.04385900 0.01909000 0.00380000
v -0.04601400 0.01306800 -0.01480000
v -0.04591600 0.01303500 0.00380000
v -0.04739000 0.00650000 -0.01480000
v -0.04739000 0.00650000 -0.00550000
v -0.04765500 -0.00288300 0.00380000
v -0.04774700 -0.00288400 -0.00550000
v -0.04764800 -0.00420900 0.00380000
v -0.04739000 -0.00650000 -0.00550000
v -0.04650200 -0.01083700 0.00380000
v -0.04658700 -0.01085100 -0.01480000
v -0.04629500 -0.01203400 0.00380000
v -0.04410700 -0.01851100 -0.01480000
v -0.04403200 -0.01848500 0.00380000
v -0.04403200 -0.01848500 0.00380000
v -0.04410700 -0.01851100 -0.01480000
v -0.04366600 -0.01952700 0.00380000
v -0.04037700 -0.02564700 -0.01480000
v -0.04031400 -0.02561200 0.00380000
v -0.04031400 -0.02561200 0.00380000
v -0.04037700 -0.02564700 -0.01480000
v -0.03983400 -0.02648200 0.00380000
v -0.03550300 -0.03205600 -0.01480000
v -0.03545200 -0.03201500 0.00380000
v -0.03545200 -0.03201500 0.00380000
v -0.03550300 -0.03205600 -0.01480000
v -0.03490400 -0.03270800 0.00380000
v -0.02962400 -0.03755600 -0.01480000
v -0.02958500 -0.03751300 0.00380000
v -0.02958500 -0.03751300 0.00380000
v -0.02962400 -0.03755600 -0.01480000
v -0.02901200 -0.03803100 0.00380000
v -0.02290500 -0.04199300 -0.01480000
v -0.02287800 -0.04195000 0.00380000
v -0.02287800 -0.04195000 0.00380000
v -0.02290500 -0.04199300 -0.01480000
v -0.02232000 -0.04230700 0.00380000
v -0.01553700 -0.04524000 -0.01480000
v -0.01552100 -0.04520100 0.00380000
v -0.01552100 -0.04520100 0.00380000
v -0.01553700 -0.04524000 -0.01480000
v -0.01501300 -0.04541700 0.00380000
v -0.00772900 -0.04720500 -0.01480000
v -0.00772100 -0.04717100 0.00380000
v -0.00772100 -0.04717100 0.00380000
v -0.00772900 -0.04720500 -0.01480000
v -0.00729200 -0.04727500 0.00380000
v 0.00029800 -0.04783300 -0.01480000
v 0.00029900 -0.04780600 0.00380000
v 0.00029900 -0.04780600 0.00380000
v 0.00029800 -0.04783300 -0.01480000
v 0.00063000 -0.04783000 0.00380000
v 0.00831600 -0.04710500 -0.01480000
v 0.00831400 -0.04708700 0.00380000
v 0.00831400 -0.04708700 0.00380000
v 0.00831600 -0.04710500 -0.01480000
v 0.00853400 -0.04706600 0.00380000
v 0.01609900 -0.04504300 -0.01480000
v 0.01609700 -0.04503400 0.00380000
v 0.01609700 -0.04503400 0.00380000
v 0.01609900 -0.04504300 -0.01480000
v 0.01609900 -0.04504300 -0.01480000
v 0.01620300 -0.04500600 0.00380000
v 0.01620300 -0.04500600 0.00380000
v 0.02342600 -0.04170500 -0.01480000
v 0.02342600 -0.04170500 0.00380000
vn -1.00000000 0.00000000 0.00350000
vn -1.00000000 0.00000000 0.00350000
vn -1.00000000 0.00000000 0.00350000
vn 0.00000000 0.94790000 -0.31850000
vn 0.00000000 0.94790000 -0.31850000
vn 0.00000000 0.94790000 -0.31850000
vn 0.00000000 0.94790000 -0.31850000
vn 0.00000000 -0.94790000 -0.31850000
vn 0.00000000 -0.94790000 -0.31850000
vn 0.00000000 -0.94790000 -0.31850000
vn 0.00000000 -0.94790000 -0.31850000
vn 0.00000000 0.00000000 1.00000000
vn 0.00000000 0.00000000 1.00000000
vn 0.00000000 0.00000000 1.00000000
vn 0.00000000 0.00000000 1.00000000
vn -1.00000000 0.00000000 0.00000000
vn -1.00000000 0.00000000 0.00000000
vn -1.00000000 0.00000000 0.00000000
vn -1.00000000 0.00000000 0.00000000
vn -1.00000000 0.00000000 0.00000000
vn -1.00000000 0.00000000 0.00000000
vn -1.00000000 0.00000000 0.00000000
vn -1.00000000 0.00000000 0.00000000
vn -1.00000000 0.00000000 0.00000000
vn 0.00000000 1.00000000 0.00000000
vn 0.00000000 1.00000000 0.00000000
vn 0.00000000 1.00000000 0.00000000
vn 0.00000000 1.00000000 0.00000000
vn 0.00000000 0.00000000 -1.00000000
vn 0.00000000 0.00000000 -1.00000000
vn 0.00000000 0.00000000 -1.00000000
vn 0.00000000 0.00000000 -1.00000000
vn 0.00000000 0.00000000 -1.00000000
vn 0.00000000 0.00000000 -1.00000000
vn 0.00000000 0.00000000 -1.00000000
vn 0.00000000 0.00000000 -1.00000000
vn 0.00000000 -1.00000000 0.00000000
vn 0.00000000 -1.00000000 0.00000000
vn 0.00000000 -1.00000000 0.00000000
vn 0.00000000 -1.00000000 0.00000000
vn -0.98340000 -0.18160000 0.00000000
vn -0.98340000 -0.18160000 0.00000000
vn -0.98340000 -0.18160000 0.00000000
vn -0.99990000 -0.00500000 0.00990000
vn -1.00000000 0.00800000 0.00070000
vn -0.99990000 0.01260000 -0.00260000
vn -0.99970000 0.02390000 -0.01070000
vn -0.94420000 0.32070000 -0.07570000
vn -0.99060000 0.13280000 0.03170000
vn -0.96280000 0.26620000 -0.04570000
vn -0.99000000 0.13900000 0.02570000
vn -0.98700000 0.16050000 0.01050000
vn -0.98700000 0.16050000 0.01050000
vn -0.31080000 0.95050000 0.00000000
vn -0.25450000 0.96710000 0.00000000
vn -0.20850000 0.97800000 -0.00000000
vn -0.11420000 0.99350000 0.00000000
vn -0.11420000 0.99350000 0.00000000
vn 0.05410000 0.99850000 -0.00000000
vn 0.05410000 0.99850000 -0.00000000
vn 0.22080000 0.97530000 -0.00000000
vn 0.22080000 0.97530000 -0.00000000
vn 0.38120000 0.92450000 0.00000000
vn 0.38120000 0.92450000 0.00000000
vn 0.53090000 0.84740000 0.00000000
vn 0.53090000 0.84740000 0.00000000
vn 0.66550000 0.74640000 0.00000000
vn 0.66550000 0.74640000 0.00000000
vn 0.78130000 0.62420000 0.00000000
vn 0.78130000 0.62420000 0.00000000
vn 0.87490000 0.48430000 0.00000000
vn 0.87490000 0.48430000 0.00000000
vn 0.94370000 0.33070000 0.00000000
vn 0.94370000 0.33070000 0.00000000
vn 0.98580000 0.16770000 0.00000000
vn 0.98580000 0.16770000 0.00000000
vn 0.99650000 0.08420000 0.00000000
vn 0.99650000 0.08420000 0.00000000
vn -0.40980000 0.91200000 -0.01800000
vn -0.36780000 0.92990000 0.00170000
vn -0.40330000 0.91510000 -0.00300000
vn -0.43260000 0.90160000 -0.00020000
vn -0.47960000 0.87750000 0.00440000
vn -0.51770000 0.85560000 -0.00430000
vn -0.54680000 0.83720000 0.00670000
vn -0.54680000 0.83720000 0.00670000
vn -0.64090000 0.76760000 -0.00590000
vn -0.61460000 0.78880000 0.00480000
vn -0.65360000 0.75680000 -0.00410000
vn -0.67780000 0.73520000 0.00640000
vn -0.67780000 0.73520000 0.00640000
vn -0.76080000 0.64890000 -0.00570000
vn -0.73660000 0.67630000 0.00460000
vn -0.77110000 0.63670000 -0.00390000
vn -0.79010000 0.61300000 0.00610000
vn -0.79010000 0.61300000 0.00610000
vn -0.85910000 0.51190000 -0.00550000
vn -0.83840000 0.54510000 0.00440000
vn -0.86680000 0.49870000 -0.00370000
vn -0.88060000 0.47380000 0.00590000
vn -0.88060000 0.47380000 0.00590000
vn -0.93290000 0.36020000 -0.00530000
vn -0.91700000 0.39890000 0.00420000
vn -0.96100000 0.27660000 0.00100000
vn -0.95680000 0.29070000 0.00490000
vn -0.97800000 0.20840000 0.00430000
vn -0.97550000 0.22010000 0.00000000
vn -0.99990000 -0.00500000 0.00990000
vn -0.99600000 -0.08980000 -0.00220000
vn -0.99620000 -0.08660000 0.01030000
vn -0.98730000 -0.15900000 0.00370000
vn -0.98480000 -0.17330000 0.00820000
vn -0.96050000 -0.27820000 -0.00230000
vn -0.96780000 -0.25180000 0.00320000
vn -0.94970000 -0.31320000 -0.00270000
vn -0.94360000 -0.33100000 0.00430000
vn -0.94360000 -0.33100000 0.00430000
vn -0.88870000 -0.45840000 -0.00400000
vn -0.91280000 -0.40840000 0.00300000
vn -0.88390000 -0.46760000 -0.00250000
vn -0.87580000 -0.48260000 0.00390000
vn -0.87580000 -0.48260000 0.00390000
vn -0.79900000 -0.60130000 -0.00370000
vn -0.83260000 -0.55380000 0.00270000
vn -0.79320000 -0.60890000 -0.00220000
vn -0.78390000 -0.62080000 0.00350000
vn -0.78390000 -0.62080000 0.00350000
vn -0.68650000 -0.72720000 -0.00340000
vn -0.72950000 -0.68390000 0.00240000
vn -0.68020000 -0.73300000 -0.00200000
vn -0.67040000 -0.74200000 0.00310000
vn -0.67040000 -0.74200000 0.00310000
vn -0.55440000 -0.83230000 -0.00300000
vn -0.60630000 -0.79520000 0.00210000
vn -0.54800000 -0.83640000 -0.00180000
vn -0.53840000 -0.84270000 0.00270000
vn -0.53840000 -0.84270000 0.00270000
vn -0.40640000 -0.91370000 -0.00260000
vn -0.46640000 -0.88460000 0.00180000
vn -0.40050000 -0.91630000 -0.00150000
vn -0.39160000 -0.92010000 0.00230000
vn -0.39160000 -0.92010000 0.00230000
vn -0.24690000 -0.96900000 -0.00220000
vn -0.31370000 -0.94950000 0.00150000
vn -0.24160000 -0.97040000 -0.00130000
vn -0.23400000 -0.97220000 0.00190000
vn -0.23400000 -0.97220000 0.00190000
vn -0.08030000 -0.99680000 -0.00180000
vn -0.15220000 -0.98830000 0.00120000
vn -0.07600000 -0.99710000 -0.00110000
vn -0.06990000 -0.99760000 0.00140000
vn -0.06990000 -0.99760000 0.00140000
vn 0.08860000 -0.99610000 -0.00140000
vn 0.01330000 -0.99990000 0.00090000
vn 0.09180000 -0.99580000 -0.00080000
vn 0.09610000 -0.99540000 0.00100000
vn 0.09610000 -0.99540000 0.00100000
vn 0.25490000 -0.96700000 -0.00100000
vn 0.17860000 -0.98390000 0.00050000
vn 0.25700000 -0.96640000 -0.00060000
vn 0.25950000 -0.96580000 0.00050000
vn 0.25950000 -0.96570000 0.00050000
vn 0.25950000 -0.96570000 0.00050000
vn 0.41410000 -0.91030000 -0.00050000
vn 0.25950000 -0.96570000 0.00050000
vn 0.33890000 -0.94080000 0.00020000
vn 0.41490000 -0.90990000 -0.00040000
vn 0.41570000 -0.90950000 0.00000000
f 4//4 5//5 6//6
f 5//5 7//7 6//6
f 8//8 9//9 10//10
f 9//9 11//11 10//10
f 12//12 13//13 14//14
f 13//13 15//15 14//14
f 16//16 17//17 18//18
f 17//17 19//19 18//18
f 18//18 19//19 20//20
f 19//19 21//21 20//20
f 20//20 21//21 22//22
f 21//21 23//23 22//22
f 22//22 23//23 24//24
f 25//25 26//26 27//27
f 26//26 28//28 27//27
f 29//29 30//30 31//31
f 32//32 33//33 34//34
f 33//33 35//35 34//34
f 34//34 35//35 36//36
f 37//37 38//38 39//39
f 38//38 40//40 39//39
f 162//162 163//163 165//165
f 1//1 2//2 3//3
f 41//41 42//42 43//43
f 44//44 45//45 46//46
f 45//45 47//47 46//46
f 48//48 49//49 50//50
f 49//49 51//51 50//50
f 50//50 51//51 52//52
f 51//51 53//53 52//52
f 54//54 55//55 56//56
f 55//55 57//57 56//56
f 56//56 57//57 58//58
f 57//57 59//59 58//58
f 58//58 59//59 60//60
f 59//59 61//61 60//60
f 60//60 61//61 62//62
f 61//61 63//63 62//62
f 62//62 63//63 64//64
f 63//63 65//65 64//64
f 64//64 65//65 66//66
f 65//65 67//67 66//66
f 66//66 67//67 68//68
f 67//67 69//69 68//68
f 68//68 69//69 70//70
f 69//69 71//71 70//70
f 70//70 71//71 72//72
f 71//71 73//73 72//72
f 72//72 73//73 74//74
f 73//73 75//75 74//74
f 74//74 75//75 76//76
f 75//75 77//77 76//76
f 76//76 77//77 78//78
f 79//79 80//80 81//81
f 80//80 82//82 81//81
f 81//81 82//82 83//83
f 82//82 84//84 83//83
f 83//83 84//84 85//85
f 86//86 87//87 88//88
f 87//87 89//89 88//88
f 88//88 89//89 90//90
f 91//91 92//92 93//93
f 92//92 94//94 93//93
f 93//93 94//94 95//95
f 96//96 97//97 98//98
f 97//97 99//99 98//98
f 98//98 99//99 100//100
f 101//101 102//102 103//103
f 102//102 104//104 103//103
f 103//103 104//104 105//105
f 104//104 106//106 105//105
f 105//105 106//106 107//107
f 108//108 109//109 110//110
f 109//109 111//111 110//110
f 110//110 111//111 112//112
f 111//111 113//113 112//112
f 112//112 113//113 114//114
f 113//113 115//115 114//114
f 114//114 115//115 116//116
f 117//117 118//118 119//119
f 118//118 120//120 119//119
f 119//119 120//120 121//121
f 122//122 123//123 124//124
f 123//123 125//125 124//124
f 124//124 125//125 126//126
f 127//127 128//128 129//129
f 128//128 130//130 129//129
f 129//129 130//130 131//131
f 132//132 133//133 134//134
f 133//133 135//135 134//134
f 134//134 135//135 136//136
f 137//137 138//138 139//139
f 138//138 140//140 139//139
f 139//139 140//140 141//141
f 142//142 143//143 144//144
f 143//143 145//145 144//144
f 144//144 145//145 146//146
f 147//147 148//148 149//149
f 148//148 150//150 149//149
f 149//149 150//150 151//151
f 152//152 153//153 154//154
f 153//153 155//155 154//154
f 154//154 155//155 156//156
f 157//157 158//158 159//159
f 158//158 160//160 159//159
f 159//159 160//160 161//161
f 164//164 167//167 166//166
f 166//166 167//167 168//168

