mtllib material.mtl
usemtl material_0
v -0.01295700 -0.01013300 0.05116500
v -0.01285800 -0.01024400 0.05118100
v -0.01626400 0.00222700 0.05055400
v -0.00385700 -0.00307600 0.05240500
v -0.00064100 -0.00150800 0.05275600
v 0.00124500 0.00062000 0.05293700
v -0.00611900 -0.01523500 0.05213500
v -0.00505800 -0.01565600 0.05226500
v 0.00032000 -0.01156900 0.05285400
v -0.00378300 -0.01601000 0.05241300
v -0.00233100 -0.01625300 0.05257400
v -0.00987800 -0.01315200 0.05164100
v -0.00230400 -0.00620000 0.05257900
v -0.01151000 -0.01175000 0.05139900
v -0.00699900 -0.00460900 0.05202700
v -0.01244000 -0.01071200 0.05124900
v -0.01285800 -0.01024400 0.05118100
v -0.00987800 -0.01315200 0.05164100
v -0.00956200 -0.01337200 0.05168500
v -0.00230400 -0.00620000 0.05257900
v -0.00892100 -0.01381900 0.05177500
v -0.00703900 -0.01487000 0.05202200
v 0.00124400 0.00753800 0.05294300
v 0.00016800 0.00965000 0.05283800
v -0.00090400 0.01004600 0.05272800
v -0.00968600 -0.00219300 0.05166800
v -0.00801200 -0.00273300 0.05189600
v -0.00505300 0.00992400 0.05226500
v -0.00090400 0.01004600 0.05272800
v 0.00016800 0.00965000 0.05283800
v 0.00095100 0.01096600 0.05291600
v -0.01030700 0.01281900 0.05157900
v -0.01079900 0.01236700 0.05150500
v -0.00505300 0.00992400 0.05226500
v -0.01030700 0.01281900 0.05157900
v -0.00505300 0.00992400 0.05226500
v -0.00929700 0.01357100 0.05172300
v -0.00426300 0.01589100 0.05235800
v -0.00546600 0.01551900 0.05221600
v -0.00546600 0.01551900 0.05221600
v -0.00320000 0.01085100 0.05247900
v -0.00320000 0.01085100 0.05247900
v -0.00745100 0.01466900 0.05196900
v -0.00505300 0.00992400 0.05226500
v -0.00757500 0.01459500 0.05195300
v -0.00929700 0.01357100 0.05172300
v -0.01078300 -0.00548300 0.05150900
v -0.00968600 -0.00219300 0.05166800
v -0.01285400 0.01021400 0.05118100
v -0.00505300 0.00992400 0.05226500
v -0.01190400 0.01135100 0.05133700
v -0.01079900 0.01236700 0.05150500
v 0.00016800 0.00965000 0.05283800
v 0.00124400 0.01019900 0.05294300
v 0.00124400 0.01019900 0.05294300
v 0.00095100 0.01096600 0.05291600
v 0.00095100 0.01096600 0.05291600
v 0.00095100 0.01096600 0.05291600
v 0.00124400 0.01639200 0.05294400
v 0.00124400 0.01639200 0.05294400
v 0.00124400 0.01639200 0.05294400
v -0.00018700 0.01137800 0.05280200
v -0.00018700 0.01137800 0.05280200
v -0.00018700 0.01137800 0.05280200
v 0.00000100 0.01644900 0.05282100
v 0.00000100 0.01644900 0.05282100
v -0.00132400 0.01178900 0.05268400
v -0.00132400 0.01178900 0.05268400
v -0.00215900 0.01630900 0.05259500
v -0.00320000 0.01085100 0.05247900
v -0.00320000 0.01085100 0.05247900
v -0.00389700 0.01596400 0.05239900
v -0.00426300 0.01589100 0.05235800
v 0.00124500 0.00062000 0.05293700
v -0.00212000 -0.00104200 0.05259900
v -0.00385700 -0.00307600 0.05240500
v -0.00628700 -0.00329000 0.05211600
v -0.00699900 -0.00460900 0.05202700
v 0.00758500 0.00482500 0.05346900
v 0.00385100 0.01152700 0.05318200
v 0.00572700 0.00784400 0.05333500
v 0.00687300 0.00340000 0.05342000
v 0.00388500 0.00690500 0.05318500
v 0.00352600 0.00452400 0.05315400
v 0.00204400 0.00596700 0.05302000
v 0.00204400 0.00596700 0.05302000
v 0.00124500 0.00529100 0.05294000
v 0.00124500 0.00529100 0.05294000
v 0.00124500 0.00529100 0.05294000
v 0.00124400 0.00753800 0.05294300
v 0.00124400 0.00753800 0.05294300
v 0.00124400 0.00753800 0.05294300
v 0.00018300 0.00564800 0.05284000
v 0.00018300 0.00564800 0.05284000
v 0.00018300 0.00564800 0.05284000
v -0.00090400 0.01004600 0.05272800
v -0.00090400 0.01004600 0.05272800
v -0.00097000 0.00229800 0.05272100
v -0.00097000 0.00229800 0.05272100
v -0.00275000 0.00912900 0.05253000
v -0.00212000 -0.00104200 0.05259900
v -0.00505300 0.00992400 0.05226500
v -0.00628700 -0.00329000 0.05211600
v -0.00801200 -0.00273300 0.05189600
v 0.00200900 0.01058800 0.05301700
v 0.00385100 0.01152700 0.05318200
v 0.00489100 0.01570900 0.05326900
v 0.00489100 0.01570900 0.05326900
v 0.00364900 0.01604100 0.05316500
v 0.00200900 0.01058800 0.05301700
v 0.00200900 0.01058800 0.05301700
v 0.00224700 0.01626400 0.05303700
v 0.00224700 0.01626400 0.05303700
v 0.00224700 0.01626400 0.05303700
v 0.00124400 0.01019900 0.05294300
v 0.00124400 0.01019900 0.05294300
v 0.00124400 0.01019900 0.05294300
v 0.00151600 0.01637900 0.05297100
v 0.00151600 0.01637900 0.05297100
v 0.00124400 0.01639200 0.05294400
v 0.00947300 0.01343600 0.05358900
v 0.00758500 0.00482500 0.05346900
v 0.00975600 0.01324300 0.05360600
v 0.00938300 0.00422100 0.05358400
v 0.01140200 0.01185700 0.05369800
v 0.01236500 0.01080000 0.05374600
v 0.00947300 0.01343600 0.05358900
v 0.00876800 0.01391800 0.05354600
v 0.00758500 0.00482500 0.05346900
v 0.00687600 0.01494700 0.05342000
v 0.00385100 0.01152700 0.05318200
v 0.00602500 0.01527400 0.05335500
v 0.00489100 0.01570900 0.05326900
v 0.01117700 0.00361900 0.05368600
v 0.01589200 0.00426200 0.05390000
v 0.01553100 0.00543300 0.05388600
v 0.01117700 0.00361900 0.05368600
v 0.01553100 0.00543300 0.05388600
v 0.00938300 0.00422100 0.05358400
v 0.01468600 0.00741800 0.05385200
v 0.01459100 0.00757800 0.05384800
v 0.01459100 0.00757800 0.05384800
v 0.01359400 0.00926500 0.05380500
v 0.00938300 0.00422100 0.05358400
v 0.01286300 0.01025400 0.05377100
v 0.01236500 0.01080000 0.05374600
v 0.00998500 0.00300200 0.05362000
v 0.01527600 -0.00601900 0.05387600
v 0.01571600 -0.00486900 0.05389300
v 0.01571600 -0.00486900 0.05389300
v 0.01604800 -0.00362000 0.05390500
v 0.00998500 0.00300200 0.05362000
v 0.01626600 -0.00222900 0.05391300
v 0.01638200 -0.00148600 0.05391700
v 0.01638200 -0.00148600 0.05391700
v 0.01645000 -0.00000000 0.05392000
v 0.00998500 0.00300200 0.05362000
v 0.01630900 0.00215800 0.05391500
v 0.01117700 0.00361900 0.05368600
v 0.01596300 0.00390100 0.05390200
v 0.01589200 0.00426200 0.05390000
v 0.01026400 -0.01285500 0.05363600
v 0.01080000 -0.01236500 0.05366400
v 0.00879200 0.00238500 0.05354800
v 0.01186500 -0.01139300 0.05372200
v 0.01325100 -0.00974500 0.05378900
v 0.01325100 -0.00974500 0.05378900
v 0.01343700 -0.00947300 0.05379800
v 0.00879200 0.00238500 0.05354800
v 0.01392700 -0.00875300 0.05382000
v 0.00998500 0.00300200 0.05362000
v 0.01495600 -0.00685900 0.05386300
v 0.01527600 -0.00601900 0.05387600
v 0.00572700 0.00784400 0.05333500
v 0.00388500 0.00690500 0.05318500
v 0.00758500 0.00482500 0.05346900
v 0.00687300 0.00340000 0.05342000
v 0.00879200 0.00238500 0.05354800
v 0.00926000 -0.01359700 0.05357700
v 0.01026400 -0.01285500 0.05363600
v -0.00064100 -0.00150800 0.05275600
v 0.00092900 -0.00466800 0.05291400
v 0.00092900 -0.00466800 0.05291400
v 0.00124500 0.00062000 0.05293700
v 0.00124500 0.00062000 0.05293700
v 0.00124500 0.00062000 0.05293700
v 0.00124400 -0.00530100 0.05294400
v 0.00124400 -0.00530100 0.05294400
v 0.00124400 -0.00530100 0.05294400
v 0.00237200 0.00117700 0.05305100
v 0.00237200 0.00117700 0.05305100
v 0.00249900 -0.00782700 0.05306300
v 0.00141700 -0.00830700 0.05296100
v 0.00251300 -0.01048600 0.05306400
v 0.00926000 -0.01359700 0.05357700
v 0.00687300 0.00340000 0.05342000
v 0.00237200 0.00117700 0.05305100
v 0.00926000 -0.01359700 0.05357700
v 0.00249900 -0.00782700 0.05306300
v 0.00141700 -0.00830700 0.05296100
v 0.00141700 -0.00830700 0.05296100
v 0.00124500 -0.00740200 0.05293600
v 0.00124500 -0.00740200 0.05293600
v 0.00124400 -0.00882100 0.05294400
v 0.00124400 -0.00882100 0.05294400
v -0.00230400 -0.00620000 0.05257900
v 0.00032000 -0.01156900 0.05285400
v -0.00703900 -0.01487000 0.05202200
v -0.00611900 -0.01523500 0.05213500
v -0.00233100 -0.01625300 0.05257400
v -0.00165300 -0.01636600 0.05264900
v 0.00032000 -0.01156900 0.05285400
v 0.00032000 -0.01156900 0.05285400
v 0.00000100 -0.01644900 0.05282100
v 0.00000100 -0.01644900 0.05282100
v 0.00124400 -0.01187700 0.05294300
v 0.00124400 -0.01636800 0.05294200
v 0.00124400 -0.01636800 0.05294200
v 0.00196500 -0.01211700 0.05301300
v 0.00196500 -0.01211700 0.05301300
v 0.00196500 -0.01211700 0.05301300
v 0.00215300 -0.01631000 0.05303100
v 0.00215300 -0.01631000 0.05303100
v 0.00361000 -0.01266600 0.05316200
v 0.00361000 -0.01266600 0.05316200
v 0.00390000 -0.01596400 0.05318500
v 0.00425400 -0.01589400 0.05321700
v 0.00425400 -0.01589400 0.05321700
v 0.00543200 -0.01553100 0.05331200
v 0.00361000 -0.01266600 0.05316200
v 0.00741400 -0.01468800 0.05345800
v 0.00251300 -0.01048600 0.05306400
v 0.00757800 -0.01459100 0.05346800
v 0.00926000 -0.01359700 0.05357700
v -0.01328400 0.00969900 0.05111000
v -0.01343700 0.00947200 0.05108300
v -0.01285800 -0.01024400 0.05118100
v -0.00628700 -0.00329000 0.05211600
v -0.00858400 -0.00441000 0.05182000
v -0.00699900 -0.00460900 0.05202700
v -0.01078300 -0.00548300 0.05150900
v -0.01285800 -0.01024400 0.05118100
v -0.01285800 -0.01024400 0.05118100
v -0.01285400 0.01021400 0.05118100
v -0.01285400 0.01021400 0.05118100
v -0.01328400 0.00969900 0.05111000
v -0.01343700 0.00947200 0.05108300
v -0.01398200 0.00866500 0.05098900
v -0.01285800 -0.01024400 0.05118100
v -0.01499200 0.00677800 0.05080400
v -0.01528000 0.00601100 0.05074800
v -0.01528000 0.00601100 0.05074800
v -0.01573800 0.00479500 0.05066000
v -0.01285800 -0.01024400 0.05118100
v -0.01607900 0.00347400 0.05059100
v -0.01626400 0.00222700 0.05055400
v -0.01626400 0.00222700 0.05055400
v -0.01639200 0.00135900 0.05052800
v -0.01531200 -0.00568300 0.05074300
v -0.01644900 0.00000000 0.05051600
v -0.01631000 -0.00214300 0.05054400
v -0.01631000 -0.00214300 0.05054400
v -0.01597200 -0.00386100 0.05061300
v -0.01531200 -0.00568300 0.05074300
v -0.01589900 -0.00423000 0.05062700
v -0.01555200 -0.00536900 0.05069600
v -0.01555200 -0.00536900 0.05069600
v -0.01471900 -0.00735100 0.05085500
v -0.01531200 -0.00568300 0.05074300
v -0.01462800 -0.00750600 0.05087100
v -0.01626400 0.00222700 0.05055400
v -0.01363800 -0.00919800 0.05104900
v -0.01295700 -0.01013300 0.05116500
vn -0.14930000 0.00900000 0.98880000
vn -0.14930000 0.00900000 0.98880000
vn -0.14930000 0.00900000 0.98880000
vn -0.11790000 0.01970000 0.99280000
vn -0.11790000 0.01970000 0.99280000
vn -0.11790000 0.01970000 0.99280000
vn -0.11730000 0.01120000 0.99300000
vn -0.11630000 0.00990000 0.99320000
vn -0.11290000 0.00610000 0.99360000
vn -0.11250000 0.00550000 0.99360000
vn -0.10960000 0.00270000 0.99400000
vn -0.13530000 0.01380000 0.99070000
vn -0.12330000 -0.00650000 0.99240000
vn -0.13960000 0.00740000 0.99020000
vn -0.12400000 -0.00900000 0.99220000
vn -0.15040000 0.00800000 0.98860000
vn -0.15040000 0.00800000 0.98860000
vn -0.13160000 0.00970000 0.99130000
vn -0.13160000 0.00970000 0.99130000
vn -0.12860000 0.00710000 0.99170000
vn -0.12960000 0.00790000 0.99150000
vn -0.12710000 0.00570000 0.99190000
vn -0.10330000 -0.00340000 0.99460000
vn -0.10330000 -0.00340000 0.99460000
vn -0.10330000 -0.00340000 0.99460000
vn -0.13420000 0.00250000 0.99100000
vn -0.13420000 0.00250000 0.99100000
vn -0.13420000 0.00250000 0.99100000
vn -0.10140000 0.00160000 0.99480000
vn -0.10140000 0.00160000 0.99480000
vn -0.10140000 0.00160000 0.99480000
vn -0.13720000 -0.01430000 0.99040000
vn -0.13720000 -0.01430000 0.99040000
vn -0.13720000 -0.01430000 0.99040000
vn -0.13420000 -0.00890000 0.99090000
vn -0.13420000 -0.00890000 0.99090000
vn -0.13420000 -0.00890000 0.99090000
vn -0.11710000 -0.00080000 0.99310000
vn -0.11710000 -0.00080000 0.99310000
vn -0.11970000 -0.00210000 0.99280000
vn -0.11760000 0.00130000 0.99310000
vn -0.11710000 -0.00080000 0.99310000
vn -0.12530000 -0.00280000 0.99210000
vn -0.11910000 0.00170000 0.99290000
vn -0.13000000 -0.00390000 0.99150000
vn -0.13000000 -0.00390000 0.99150000
vn -0.14730000 0.00130000 0.98910000
vn -0.14540000 0.00180000 0.98940000
vn -0.13840000 -0.00580000 0.99040000
vn -0.13760000 -0.00090000 0.99050000
vn -0.13800000 -0.01850000 0.99030000
vn -0.13720000 -0.01430000 0.99040000
vn -0.09590000 -0.00170000 0.99540000
vn -0.09180000 -0.00010000 0.99580000
vn -0.09590000 -0.00170000 0.99540000
vn -0.09590000 -0.00170000 0.99540000
vn -0.09180000 -0.00010000 0.99580000
vn -0.09920000 0.00030000 0.99510000
vn -0.09180000 -0.00010000 0.99580000
vn -0.09920000 0.00030000 0.99510000
vn -0.09790000 -0.00010000 0.99520000
vn -0.10080000 0.00020000 0.99490000
vn -0.09920000 0.00030000 0.99510000
vn -0.10330000 0.00010000 0.99460000
vn -0.10330000 0.00010000 0.99460000
vn -0.10100000 0.00010000 0.99490000
vn -0.10580000 -0.00010000 0.99440000
vn -0.10330000 0.00010000 0.99460000
vn -0.10790000 0.00030000 0.99420000
vn -0.10940000 -0.00010000 0.99400000
vn -0.11180000 0.00040000 0.99370000
vn -0.11180000 0.00040000 0.99370000
vn -0.11180000 0.00040000 0.99370000
vn -0.09220000 -0.01620000 0.99560000
vn -0.09540000 -0.01350000 0.99540000
vn -0.11640000 0.00360000 0.99320000
vn -0.11790000 -0.00180000 0.99300000
vn -0.11780000 -0.00340000 0.99300000
vn -0.02840000 0.02700000 0.99920000
vn -0.02840000 0.02700000 0.99920000
vn -0.02840000 0.02700000 0.99920000
vn -0.07940000 -0.00100000 0.99680000
vn -0.08470000 -0.00020000 0.99640000
vn -0.08480000 -0.00120000 0.99640000
vn -0.09540000 -0.00250000 0.99540000
vn -0.09930000 -0.00140000 0.99510000
vn -0.09930000 -0.00140000 0.99510000
vn -0.09410000 -0.00140000 0.99560000
vn -0.09610000 -0.00280000 0.99540000
vn -0.09930000 -0.00140000 0.99510000
vn -0.09410000 -0.00140000 0.99560000
vn -0.09770000 0.00010000 0.99520000
vn -0.09910000 -0.00030000 0.99510000
vn -0.10210000 -0.00000000 0.99480000
vn -0.09410000 -0.00140000 0.99560000
vn -0.10210000 -0.00000000 0.99480000
vn -0.10410000 0.00030000 0.99460000
vn -0.10610000 0.00010000 0.99440000
vn -0.10210000 -0.00000000 0.99480000
vn -0.11060000 -0.00010000 0.99390000
vn -0.11340000 -0.00040000 0.99350000
vn -0.11540000 -0.00030000 0.99330000
vn -0.12130000 0.00010000 0.99260000
vn -0.12600000 0.00060000 0.99200000
vn -0.09030000 0.00180000 0.99590000
vn -0.09030000 0.00180000 0.99590000
vn -0.09030000 0.00180000 0.99590000
vn -0.08400000 -0.00180000 0.99650000
vn -0.08720000 -0.00080000 0.99620000
vn -0.09700000 0.00060000 0.99530000
vn -0.09530000 0.00030000 0.99550000
vn -0.09090000 -0.00050000 0.99590000
vn -0.09700000 0.00060000 0.99530000
vn -0.09110000 -0.00010000 0.99580000
vn -0.09090000 -0.00050000 0.99590000
vn -0.09700000 0.00060000 0.99530000
vn -0.09800000 -0.00010000 0.99520000
vn -0.09090000 -0.00050000 0.99590000
vn -0.09800000 -0.00010000 0.99520000
vn -0.09800000 -0.00010000 0.99520000
vn -0.06080000 -0.00050000 0.99810000
vn -0.06360000 0.00020000 0.99800000
vn -0.05950000 -0.00040000 0.99820000
vn -0.06140000 -0.00000000 0.99810000
vn -0.05430000 -0.00050000 0.99850000
vn -0.05150000 -0.00130000 0.99870000
vn -0.06090000 -0.00050000 0.99810000
vn -0.06440000 -0.00010000 0.99790000
vn -0.07260000 -0.00040000 0.99740000
vn -0.07340000 -0.00080000 0.99730000
vn -0.07740000 -0.00080000 0.99700000
vn -0.07650000 -0.00170000 0.99710000
vn -0.07650000 -0.00160000 0.99710000
vn -0.04500000 -0.00220000 0.99900000
vn -0.04500000 -0.00220000 0.99900000
vn -0.04500000 -0.00220000 0.99900000
vn -0.05180000 0.01430000 0.99860000
vn -0.04880000 -0.00130000 0.99880000
vn -0.05040000 0.00680000 0.99870000
vn -0.04850000 -0.00340000 0.99880000
vn -0.04860000 -0.00310000 0.99880000
vn -0.04860000 -0.00320000 0.99880000
vn -0.04920000 -0.00270000 0.99880000
vn -0.04940000 -0.00260000 0.99880000
vn -0.05070000 -0.00170000 0.99870000
vn -0.05150000 -0.00130000 0.99870000
vn -0.04470000 0.00220000 0.99900000
vn -0.04470000 0.00220000 0.99900000
vn -0.04470000 0.00220000 0.99900000
vn -0.04480000 0.00210000 0.99900000
vn -0.04500000 0.00190000 0.99900000
vn -0.04520000 0.00170000 0.99900000
vn -0.04540000 0.00150000 0.99900000
vn -0.04540000 0.00150000 0.99900000
vn -0.04610000 0.00050000 0.99890000
vn -0.04630000 0.00010000 0.99890000
vn -0.04760000 -0.00780000 0.99880000
vn -0.04620000 -0.00170000 0.99890000
vn -0.04790000 -0.01200000 0.99880000
vn -0.04500000 -0.00170000 0.99900000
vn -0.04500000 -0.00180000 0.99900000
vn -0.05430000 0.00050000 0.99850000
vn -0.05430000 0.00050000 0.99850000
vn -0.05220000 0.00100000 0.99860000
vn -0.05300000 0.00080000 0.99860000
vn -0.05030000 0.00140000 0.99870000
vn -0.04820000 0.00220000 0.99880000
vn -0.04820000 0.00210000 0.99880000
vn -0.05810000 -0.00240000 0.99830000
vn -0.04790000 0.00190000 0.99890000
vn -0.05690000 -0.00210000 0.99840000
vn -0.04520000 0.00190000 0.99900000
vn -0.04470000 0.00220000 0.99900000
vn -0.07890000 -0.00420000 0.99690000
vn -0.07780000 -0.00240000 0.99700000
vn -0.07320000 0.00050000 0.99730000
vn -0.06940000 0.00040000 0.99760000
vn -0.06650000 -0.00040000 0.99780000
vn -0.05950000 0.00010000 0.99820000
vn -0.05860000 0.00010000 0.99830000
vn -0.09750000 0.00140000 0.99520000
vn -0.09310000 0.00110000 0.99570000
vn -0.09220000 0.00110000 0.99570000
vn -0.09970000 0.00110000 0.99500000
vn -0.09220000 0.00110000 0.99570000
vn -0.10070000 0.00110000 0.99490000
vn -0.09440000 0.00020000 0.99550000
vn -0.09220000 0.00110000 0.99570000
vn -0.10070000 0.00110000 0.99490000
vn -0.09960000 0.00090000 0.99500000
vn -0.10070000 0.00110000 0.99490000
vn -0.09440000 -0.00000000 0.99550000
vn -0.07050000 0.01160000 0.99740000
vn -0.07050000 0.01160000 0.99740000
vn -0.07050000 0.01160000 0.99740000
vn -0.08070000 -0.00210000 0.99670000
vn -0.07960000 -0.00160000 0.99680000
vn -0.07900000 -0.00250000 0.99690000
vn -0.08350000 -0.00410000 0.99650000
vn -0.10410000 0.00260000 0.99460000
vn -0.11400000 0.00560000 0.99350000
vn -0.09890000 0.00670000 0.99510000
vn -0.11400000 0.00560000 0.99350000
vn -0.11400000 0.00560000 0.99350000
vn -0.10180000 0.00310000 0.99480000
vn -0.10610000 -0.00050000 0.99440000
vn -0.10810000 -0.00120000 0.99410000
vn -0.11440000 0.00470000 0.99340000
vn -0.11720000 0.01120000 0.99300000
vn -0.10960000 0.00270000 0.99400000
vn -0.10720000 0.00170000 0.99420000
vn -0.09660000 -0.00020000 0.99530000
vn -0.09880000 0.00010000 0.99510000
vn -0.09660000 -0.00020000 0.99530000
vn -0.10030000 0.00000000 0.99500000
vn -0.09660000 -0.00020000 0.99530000
vn -0.09670000 -0.00020000 0.99530000
vn -0.09660000 -0.00020000 0.99530000
vn -0.09670000 -0.00020000 0.99530000
vn -0.09400000 -0.00010000 0.99560000
vn -0.09660000 -0.00020000 0.99530000
vn -0.09290000 -0.00030000 0.99570000
vn -0.09670000 -0.00020000 0.99530000
vn -0.08940000 -0.00010000 0.99600000
vn -0.08810000 -0.00060000 0.99610000
vn -0.08810000 -0.00060000 0.99610000
vn -0.08810000 -0.00060000 0.99610000
vn -0.08110000 0.00080000 0.99670000
vn -0.07770000 0.00300000 0.99700000
vn -0.07460000 0.00650000 0.99720000
vn -0.07230000 0.00880000 0.99730000
vn -0.07240000 0.00910000 0.99730000
vn -0.07080000 0.01100000 0.99740000
vn -0.07070000 0.01100000 0.99740000
vn -0.17160000 -0.00010000 0.98520000
vn -0.17160000 -0.00010000 0.98520000
vn -0.17160000 -0.00010000 0.98520000
vn -0.12890000 0.00270000 0.99170000
vn -0.13100000 -0.01420000 0.99130000
vn -0.13010000 -0.00230000 0.99150000
vn -0.14500000 -0.00520000 0.98940000
vn -0.16230000 0.00010000 0.98670000
vn -0.14550000 -0.00480000 0.98940000
vn -0.16230000 0.00010000 0.98670000
vn -0.16130000 0.00010000 0.98690000
vn -0.16230000 0.00010000 0.98670000
vn -0.17150000 -0.00010000 0.98520000
vn -0.17290000 -0.00020000 0.98490000
vn -0.17850000 -0.00070000 0.98390000
vn -0.18020000 -0.00070000 0.98360000
vn -0.18580000 -0.00150000 0.98260000
vn -0.18580000 -0.00150000 0.98260000
vn -0.18620000 -0.00150000 0.98250000
vn -0.18730000 -0.00180000 0.98230000
vn -0.18830000 -0.00200000 0.98210000
vn -0.18770000 -0.00180000 0.98220000
vn -0.19740000 -0.00040000 0.98030000
vn -0.19730000 -0.00030000 0.98030000
vn -0.19480000 0.00020000 0.98080000
vn -0.19640000 -0.00020000 0.98050000
vn -0.19270000 0.00060000 0.98130000
vn -0.18670000 0.00230000 0.98240000
vn -0.18670000 0.00230000 0.98240000
vn -0.18770000 0.00190000 0.98220000
vn -0.18660000 0.00230000 0.98240000
vn -0.18810000 0.00180000 0.98210000
vn -0.19430000 -0.00320000 0.98090000
vn -0.16420000 0.00790000 0.98640000
vn -0.18690000 -0.00060000 0.98240000
vn -0.17170000 0.00340000 0.98510000
vn -0.17160000 0.00340000 0.98520000
vn -0.16190000 0.00560000 0.98680000
vn -0.16080000 0.00580000 0.98700000
f 38//38 39//39 42//42
f 53//53 55//55 56//56
f 54//54 59//59 57//57
f 58//58 60//60 63//63
f 64//64 65//65 68//68
f 71//71 72//72 73//73
f 86//86 90//90 87//87
f 88//88 91//91 95//95
f 94//94 96//96 99//99
f 110//110 113//113 116//116
f 112//112 118//118 115//115
f 117//117 119//119 120//120
f 183//183 188//188 185//185
f 186//186 189//189 191//191
f 201//201 203//203 204//204
f 212//212 214//214 216//216
f 216//216 218//218 221//221
f 217//217 223//223 219//219
f 225//225 226//226 227//227
f 235//235 236//236 237//237
f 242//242 244//244 246//246
f 1//1 2//2 3//3
f 4//4 5//5 6//6
f 7//7 8//8 9//9
f 8//8 10//10 9//9
f 9//9 10//10 11//11
f 12//12 13//13 14//14
f 13//13 15//15 14//14
f 14//14 15//15 16//16
f 15//15 17//17 16//16
f 18//18 19//19 20//20
f 19//19 21//21 20//20
f 20//20 21//21 22//22
f 23//23 24//24 25//25
f 26//26 27//27 28//28
f 29//29 30//30 31//31
f 32//32 33//33 34//34
f 35//35 36//36 37//37
f 40//40 43//43 41//41
f 41//41 43//43 44//44
f 43//43 45//45 44//44
f 44//44 45//45 46//46
f 47//47 48//48 49//49
f 48//48 50//50 49//49
f 49//49 50//50 51//51
f 50//50 52//52 51//51
f 61//61 66//66 62//62
f 66//66 69//69 67//67
f 67//67 69//69 70//70
f 69//69 72//72 70//70
f 74//74 75//75 76//76
f 75//75 77//77 76//76
f 76//76 77//77 78//78
f 79//79 80//80 81//81
f 82//82 83//83 84//84
f 83//83 85//85 84//84
f 84//84 85//85 89//89
f 92//92 97//97 93//93
f 97//97 100//100 98//98
f 98//98 100//100 101//101
f 100//100 102//102 101//101
f 101//101 102//102 103//103
f 102//102 104//104 103//103
f 105//105 106//106 107//107
f 108//108 109//109 111//111
f 109//109 114//114 111//111
f 121//121 122//122 123//123
f 122//122 124//124 123//123
f 123//123 124//124 125//125
f 124//124 126//126 125//125
f 127//127 128//128 129//129
f 128//128 130//130 129//129
f 129//129 130//130 131//131
f 130//130 132//132 131//131
f 131//131 132//132 133//133
f 134//134 135//135 136//136
f 137//137 138//138 139//139
f 138//138 140//140 139//139
f 139//139 140//140 141//141
f 142//142 143//143 144//144
f 143//143 145//145 144//144
f 144//144 145//145 146//146
f 147//147 148//148 149//149
f 150//150 151//151 152//152
f 151//151 153//153 152//152
f 152//152 153//153 154//154
f 155//155 156//156 157//157
f 156//156 158//158 157//157
f 157//157 158//158 159//159
f 158//158 160//160 159//159
f 159//159 160//160 161//161
f 162//162 163//163 164//164
f 163//163 165//165 164//164
f 164//164 165//165 166//166
f 167//167 168//168 169//169
f 168//168 170//170 169//169
f 169//169 170//170 171//171
f 170//170 172//172 171//171
f 171//171 172//172 173//173
f 174//174 175//175 176//176
f 175//175 177//177 176//176
f 176//176 177//177 178//178
f 177//177 179//179 178//178
f 178//178 179//179 180//180
f 181//181 182//182 184//184
f 187//187 192//192 190//190
f 193//193 194//194 195//195
f 196//196 197//197 198//198
f 197//197 199//199 198//198
f 198//198 199//199 200//200
f 199//199 202//202 200//200
f 202//202 206//206 205//205
f 205//205 206//206 207//207
f 206//206 208//208 207//207
f 207//207 208//208 209//209
f 210//210 211//211 213//213
f 211//211 215//215 213//213
f 215//215 217//217 216//216
f 220//220 222//222 224//224
f 222//222 226//226 224//224
f 228//228 229//229 230//230
f 229//229 231//231 230//230
f 230//230 231//231 232//232
f 231//231 233//233 232//232
f 232//232 233//233 234//234
f 238//238 239//239 240//240
f 239//239 241//241 240//240
f 240//240 241//241 243//243
f 241//241 245//245 243//243
f 247//247 248//248 249//249
f 248//248 250//250 249//249
f 249//249 250//250 251//251
f 252//252 253//253 254//254
f 253//253 255//255 254//254
f 254//254 255//255 256//256
f 257//257 258//258 259//259
f 258//258 260//260 259//259
f 259//259 260//260 261//261
f 262//262 263//263 264//264
f 263//263 265//265 264//264
f 264//264 265//265 266//266
f 267//267 268//268 269//269
f 268//268 270//270 269//269
f 269//269 270//270 271//271
f 270//270 272//272 271//271
f 271//271 272//272 273//273

