mtllib material.mtl
usemtl material_0
v 0.06278000 0.08186500 0.00000000
v 0.06216500 0.08183500 0.00000000
v 0.06216500 0.08183400 0.00050000
v 0.06497600 0.08191200 0.00025000
v 0.06451800 0.08191000 0.00025000
v 0.06385400 0.08189400 0.00135000
v 0.06402100 0.08190100 0.00073800
v 0.06298600 0.08187300 0.00050000
v 0.06339600 0.08188800 0.00012500
v 0.06216500 0.08183400 0.00050000
v 0.06339600 0.08188800 0.00000000
v 0.06278000 0.08186500 0.00000000
v 0.06339600 0.08188800 0.00000000
v 0.06339600 0.08188800 -0.00012500
v 0.06278000 0.08186500 0.00000000
v 0.06216500 0.08183400 -0.00050000
v 0.06216500 0.08183500 0.00000000
v 0.06451800 0.08191000 -0.00025000
v 0.06497600 0.08191200 -0.00025000
v 0.06402100 0.08190100 -0.00073700
v 0.06385400 0.08189400 -0.00135000
v 0.06339600 0.08188800 -0.00012500
v 0.06298600 0.08187300 -0.00050000
v 0.06216500 0.08183400 -0.00050000
v 0.11339600 0.07152700 -0.00000000
v 0.11375900 0.07129900 0.00000000
v 0.11377500 0.07128900 -0.00017200
v 0.11303000 0.07175000 -0.00005400
v 0.11302900 0.07175100 0.00000000
v 0.11339600 0.07152700 -0.00000000
v 0.11303000 0.07175000 -0.00005400
v 0.11339600 0.07152700 -0.00000000
v 0.11307900 0.07172000 -0.00042300
v 0.11377500 0.07128900 -0.00017200
v 0.11308100 0.07171900 -0.00042700
v 0.11378800 0.07128000 -0.00021900
v 0.11321300 0.07163600 -0.00079000
v 0.11382300 0.07125800 -0.00033700
v 0.11323400 0.07162300 -0.00082300
v 0.11386700 0.07122900 -0.00042200
v 0.11342100 0.07150500 -0.00111100
v 0.11391500 0.07119900 -0.00051200
v 0.11347400 0.07147100 -0.00116100
v 0.11398900 0.07115000 -0.00059700
v 0.11372000 0.07131400 -0.00138900
v 0.11404500 0.07111400 -0.00066000
v 0.11378300 0.07127400 -0.00142300
v 0.11414800 0.07104600 -0.00073100
v 0.11402200 0.07112000 -0.00155200
v 0.11414800 0.07104600 -0.00073100
v 0.11420400 0.07101000 -0.00077000
v 0.11402200 0.07112000 -0.00155200
v 0.11433200 0.07092500 -0.00081600
v 0.11414400 0.07103900 -0.00158100
v 0.11438600 0.07088900 -0.00083500
v 0.11441700 0.07086000 -0.00164600
v 0.11453000 0.07079400 -0.00084400
v 0.11452800 0.07078600 -0.00163800
v 0.11459000 0.07075400 -0.00084700
v 0.11481400 0.07059400 -0.00162000
v 0.11472800 0.07066100 -0.00081500
v 0.11491200 0.07052700 -0.00158500
v 0.11479100 0.07061800 -0.00079900
v 0.11515900 0.07035900 -0.00149600
v 0.11491300 0.07053600 -0.00073300
v 0.11526800 0.07028300 -0.00141900
v 0.11494700 0.07051300 -0.00071400
v 0.11546700 0.07014500 -0.00128200
v 0.11507000 0.07042900 -0.00059700
v 0.11557400 0.07007000 -0.00115800
v 0.11510200 0.07040700 -0.00056700
v 0.11571900 0.06996800 -0.00099100
v 0.11519300 0.07034500 -0.00042300
v 0.11580900 0.06990500 -0.00081900
v 0.11520800 0.07033400 -0.00040000
v 0.11589500 0.06984400 -0.00065400
v 0.11527100 0.07029100 -0.00022000
v 0.11596000 0.06979700 -0.00042500
v 0.11527400 0.07028900 -0.00021300
v 0.11598600 0.06977900 -0.00033400
v 0.11529800 0.07027200 -0.00002500
v 0.11529800 0.07027200 -0.00000000
v 0.11565800 0.07001700 -0.00000000
v 0.11529800 0.07027200 -0.00002500
v 0.11601600 0.06975700 -0.00000000
v 0.11598600 0.06977900 -0.00033400
v 0.11601600 0.06975700 0.00000000
v 0.11601600 0.06975700 -0.00000000
v 0.11565800 0.07001700 -0.00000000
v 0.11565800 0.07001700 -0.00000000
v 0.11529800 0.07027200 -0.00000000
v 0.11529800 0.07027200 0.00000000
v 0.11601600 0.06975700 0.00000000
v 0.11565800 0.07001700 -0.00000000
v 0.11601500 0.06975700 0.00004400
v 0.11529800 0.07027200 0.00000000
v 0.11596900 0.06979100 0.00041200
v 0.11528200 0.07028300 0.00017200
v 0.11596400 0.06979400 0.00042600
v 0.11526900 0.07029200 0.00021900
v 0.11584400 0.06988000 0.00077200
v 0.11523500 0.07031600 0.00033700
v 0.11581300 0.06990200 0.00082200
v 0.11519100 0.07034600 0.00042200
v 0.11564100 0.07002300 0.00109700
v 0.11514400 0.07037800 0.00051100
v 0.11557600 0.07006900 0.00115900
v 0.11506900 0.07042900 0.00059700
v 0.11534000 0.07023400 0.00138500
v 0.11501400 0.07046700 0.00066000
v 0.11527100 0.07028100 0.00142200
v 0.11491200 0.07053700 0.00073100
v 0.11503600 0.07044300 0.00155200
v 0.11491200 0.07053700 0.00073100
v 0.11485500 0.07057500 0.00077000
v 0.11503600 0.07044300 0.00155200
v 0.11472800 0.07066100 0.00081600
v 0.11491200 0.07052700 0.00158100
v 0.11467600 0.07069600 0.00083500
v 0.11464600 0.07070700 0.00164500
v 0.11453000 0.07079400 0.00084400
v 0.11452900 0.07078500 0.00163800
v 0.11447200 0.07083300 0.00084800
v 0.11424900 0.07097100 0.00162100
v 0.11433200 0.07092500 0.00081500
v 0.11414500 0.07103900 0.00158400
v 0.11426900 0.07096700 0.00080000
v 0.11389400 0.07120200 0.00149500
v 0.11414600 0.07104700 0.00073300
v 0.11378600 0.07127200 0.00142000
v 0.11411300 0.07106900 0.00071500
v 0.11358600 0.07140100 0.00128200
v 0.11398800 0.07115100 0.00059800
v 0.11347700 0.07146900 0.00115900
v 0.11395900 0.07117000 0.00057100
v 0.11333200 0.07156100 0.00099400
v 0.11386400 0.07123100 0.00042400
v 0.11324000 0.07161900 0.00081900
v 0.11385200 0.07123900 0.00040500
v 0.11315300 0.07167400 0.00065500
v 0.11378600 0.07128200 0.00022000
v 0.11308600 0.07171500 0.00042500
v 0.11378400 0.07128200 0.00021600
v 0.11306000 0.07173200 0.00033500
v 0.11376000 0.07129800 0.00002700
v 0.11375900 0.07129900 0.00000000
v 0.11339600 0.07152700 -0.00000000
v 0.11376000 0.07129800 0.00002700
v 0.11302900 0.07175100 0.00000000
v 0.11306000 0.07173200 0.00033500
vn -0.04920000 0.99880000 0.00200000
vn -0.04920000 0.99880000 0.00200000
vn -0.04920000 0.99880000 0.00200000
vn -0.00380000 0.99990000 0.01260000
vn -0.00390000 0.99990000 0.01250000
vn -0.02080000 0.99980000 0.00750000
vn -0.01590000 0.99980000 0.00910000
vn -0.04030000 0.99920000 -0.00410000
vn -0.03830000 0.99930000 0.00240000
vn -0.04230000 0.99910000 0.00270000
vn -0.04210000 0.99910000 0.00460000
vn -0.03690000 0.99920000 0.01720000
vn -0.03690000 0.99930000 -0.00050000
vn -0.03760000 0.99930000 -0.00400000
vn -0.04150000 0.99910000 -0.01050000
vn -0.04630000 0.99890000 -0.00560000
vn -0.04920000 0.99880000 -0.00200000
vn -0.00380000 0.99990000 -0.01330000
vn -0.00410000 0.99990000 -0.01270000
vn -0.01440000 0.99990000 -0.00920000
vn -0.02050000 0.99980000 -0.00810000
vn -0.03350000 0.99940000 -0.00280000
vn -0.04080000 0.99920000 0.00410000
vn -0.04720000 0.99880000 0.01110000
vn 0.53110000 0.84730000 -0.00120000
vn 0.53110000 0.84730000 -0.00120000
vn 0.53110000 0.84730000 -0.00120000
vn 0.52190000 0.85300000 -0.00080000
vn 0.52190000 0.85300000 -0.00080000
vn 0.52190000 0.85300000 -0.00080000
vn 0.52190000 0.85300000 -0.00120000
vn 0.52690000 0.84990000 -0.00630000
vn 0.52640000 0.85020000 -0.00520000
vn 0.52840000 0.84890000 -0.00690000
vn 0.52780000 0.84940000 -0.00410000
vn 0.52860000 0.84880000 -0.00490000
vn 0.52800000 0.84920000 -0.00220000
vn 0.53050000 0.84770000 -0.00610000
vn 0.52910000 0.84860000 -0.00310000
vn 0.53220000 0.84660000 -0.00680000
vn 0.53140000 0.84710000 -0.00470000
vn 0.53520000 0.84470000 -0.00820000
vn 0.53350000 0.84580000 -0.00600000
vn 0.53710000 0.84350000 -0.00850000
vn 0.53700000 0.84360000 -0.00720000
vn 0.54020000 0.84150000 -0.00880000
vn 0.54000000 0.84170000 -0.00830000
vn 0.54220000 0.84020000 -0.00960000
vn 0.53990000 0.84170000 -0.00790000
vn 0.54280000 0.83980000 -0.00850000
vn 0.54530000 0.83820000 -0.00940000
vn 0.54730000 0.83690000 -0.00980000
vn 0.54800000 0.83640000 -0.01010000
vn 0.54760000 0.83670000 -0.00980000
vn 0.55040000 0.83490000 -0.00980000
vn 0.55250000 0.83340000 -0.01000000
vn 0.55380000 0.83260000 -0.00990000
vn 0.55700000 0.83050000 -0.01040000
vn 0.55640000 0.83080000 -0.01000000
vn 0.56150000 0.82750000 -0.00950000
vn 0.55990000 0.82850000 -0.01000000
vn 0.56550000 0.82470000 -0.00890000
vn 0.56270000 0.82660000 -0.01010000
vn 0.56890000 0.82230000 -0.00780000
vn 0.56540000 0.82470000 -0.01060000
vn 0.57240000 0.81990000 -0.00660000
vn 0.56800000 0.82300000 -0.01060000
vn 0.57490000 0.81820000 -0.00550000
vn 0.57120000 0.82070000 -0.01040000
vn 0.57760000 0.81630000 -0.00410000
vn 0.57370000 0.81900000 -0.00990000
vn 0.57910000 0.81520000 -0.00330000
vn 0.57700000 0.81670000 -0.00840000
vn 0.58080000 0.81400000 -0.00190000
vn 0.57890000 0.81540000 -0.00740000
vn 0.58160000 0.81350000 -0.00170000
vn 0.58060000 0.81420000 -0.00660000
vn 0.58250000 0.81280000 -0.00070000
vn 0.58160000 0.81350000 -0.00530000
vn 0.58250000 0.81280000 -0.00090000
vn 0.58230000 0.81300000 -0.00250000
vn 0.57850000 0.81560000 0.00030000
vn 0.57680000 0.79500000 -0.18750000
vn 0.57960000 0.81490000 -0.00260000
vn 0.58310000 0.81240000 -0.00390000
vn 0.58300000 0.81250000 -0.00020000
vn 0.58740000 0.80930000 0.00000000
vn 0.58740000 0.80930000 0.00000000
vn 0.58740000 0.80930000 0.00000000
vn 0.85550000 0.51790000 -0.00000000
vn 0.45100000 0.63580000 -0.62630000
vn 0.45100000 0.63580000 -0.62630000
vn 0.58740000 0.80930000 0.00110000
vn 0.57550000 0.81080000 0.10720000
vn 0.58510000 0.81090000 0.00250000
vn 0.58240000 0.81290000 0.00470000
vn 0.58320000 0.81240000 -0.00110000
vn 0.58190000 0.81320000 0.00360000
vn 0.58290000 0.81260000 -0.00090000
vn 0.58090000 0.81400000 0.00460000
vn 0.58140000 0.81360000 0.00230000
vn 0.57890000 0.81540000 0.00630000
vn 0.58040000 0.81430000 0.00320000
vn 0.57730000 0.81650000 0.00710000
vn 0.57830000 0.81580000 0.00460000
vn 0.57460000 0.81840000 0.00830000
vn 0.57630000 0.81720000 0.00590000
vn 0.57270000 0.81970000 0.00840000
vn 0.57310000 0.81950000 0.00710000
vn 0.56950000 0.82200000 0.00890000
vn 0.57010000 0.82150000 0.00830000
vn 0.56770000 0.82320000 0.00970000
vn 0.57020000 0.82150000 0.00780000
vn 0.56610000 0.82430000 0.00870000
vn 0.56410000 0.82560000 0.00940000
vn 0.56240000 0.82680000 0.00990000
vn 0.56190000 0.82720000 0.01010000
vn 0.56230000 0.82690000 0.00990000
vn 0.55940000 0.82880000 0.00980000
vn 0.55760000 0.83010000 0.00990000
vn 0.55610000 0.83110000 0.00980000
vn 0.55310000 0.83310000 0.01030000
vn 0.55340000 0.83280000 0.00990000
vn 0.54870000 0.83600000 0.00950000
vn 0.54980000 0.83520000 0.00990000
vn 0.54450000 0.83870000 0.00900000
vn 0.54720000 0.83700000 0.01000000
vn 0.54090000 0.84110000 0.00780000
vn 0.54410000 0.83890000 0.01040000
vn 0.53730000 0.84330000 0.00660000
vn 0.54150000 0.84060000 0.01030000
vn 0.53490000 0.84490000 0.00550000
vn 0.53810000 0.84280000 0.00970000
vn 0.53210000 0.84670000 0.00410000
vn 0.53560000 0.84440000 0.00930000
vn 0.53060000 0.84760000 0.00350000
vn 0.53290000 0.84610000 0.00880000
vn 0.52880000 0.84870000 0.00210000
vn 0.53100000 0.84730000 0.00780000
vn 0.52800000 0.84930000 0.00170000
vn 0.52910000 0.84860000 0.00700000
vn 0.52700000 0.84990000 0.00070000
vn 0.52800000 0.84920000 0.00590000
vn 0.52700000 0.84980000 0.00110000
vn 0.52720000 0.84970000 0.00260000
vn 0.53100000 0.84740000 0.00130000
vn 0.51460000 0.84060000 0.16890000
vn 0.53000000 0.84800000 0.00390000
vn 0.52640000 0.85020000 0.00400000
vn 0.52650000 0.85020000 0.00030000
f 1//1 2//2 3//3
f 4//4 5//5 6//6
f 5//5 7//7 6//6
f 6//6 7//7 8//8
f 7//7 9//9 8//8
f 8//8 9//9 10//10
f 9//9 11//11 10//10
f 10//10 11//11 12//12
f 13//13 14//14 15//15
f 14//14 16//16 15//15
f 15//15 16//16 17//17
f 18//18 19//19 20//20
f 19//19 21//21 20//20
f 20//20 21//21 22//22
f 21//21 23//23 22//22
f 22//22 23//23 24//24
f 25//25 26//26 27//27
f 28//28 29//29 30//30
f 31//31 32//32 33//33
f 32//32 34//34 33//33
f 33//33 34//34 35//35
f 34//34 36//36 35//35
f 35//35 36//36 37//37
f 36//36 38//38 37//37
f 37//37 38//38 39//39
f 38//38 40//40 39//39
f 39//39 40//40 41//41
f 40//40 42//42 41//41
f 41//41 42//42 43//43
f 42//42 44//44 43//43
f 43//43 44//44 45//45
f 44//44 46//46 45//45
f 45//45 46//46 47//47
f 46//46 48//48 47//47
f 47//47 48//48 49//49
f 50//50 51//51 52//52
f 51//51 53//53 52//52
f 52//52 53//53 54//54
f 53//53 55//55 54//54
f 54//54 55//55 56//56
f 55//55 57//57 56//56
f 56//56 57//57 58//58
f 57//57 59//59 58//58
f 58//58 59//59 60//60
f 59//59 61//61 60//60
f 60//60 61//61 62//62
f 61//61 63//63 62//62
f 62//62 63//63 64//64
f 63//63 65//65 64//64
f 64//64 65//65 66//66
f 65//65 67//67 66//66
f 66//66 67//67 68//68
f 67//67 69//69 68//68
f 68//68 69//69 70//70
f 69//69 71//71 70//70
f 70//70 71//71 72//72
f 71//71 73//73 72//72
f 72//72 73//73 74//74
f 73//73 75//75 74//74
f 74//74 75//75 76//76
f 75//75 77//77 76//76
f 76//76 77//77 78//78
f 77//77 79//79 78//78
f 78//78 79//79 80//80
f 79//79 81//81 80//80
f 82//82 83//83 84//84
f 83//83 85//85 84//84
f 84//84 85//85 86//86
f 87//87 88//88 89//89
f 90//90 91//91 92//92
f 93//93 94//94 95//95
f 94//94 96//96 95//95
f 95//95 96//96 97//97
f 96//96 98//98 97//97
f 97//97 98//98 99//99
f 98//98 100//100 99//99
f 99//99 100//100 101//101
f 100//100 102//102 101//101
f 101//101 102//102 103//103
f 102//102 104//104 103//103
f 103//103 104//104 105//105
f 104//104 106//106 105//105
f 105//105 106//106 107//107
f 106//106 108//108 107//107
f 107//107 108//108 109//109
f 108//108 110//110 109//109
f 109//109 110//110 111//111
f 110//110 112//112 111//111
f 111//111 112//112 113//113
f 114//114 115//115 116//116
f 115//115 117//117 116//116
f 116//116 117//117 118//118
f 117//117 119//119 118//118
f 118//118 119//119 120//120
f 119//119 121//121 120//120
f 120//120 121//121 122//122
f 121//121 123//123 122//122
f 122//122 123//123 124//124
f 123//123 125//125 124//124
f 124//124 125//125 126//126
f 125//125 127//127 126//126
f 126//126 127//127 128//128
f 127//127 129//129 128//128
f 128//128 129//129 130//130
f 129//129 131//131 130//130
f 130//130 131//131 132//132
f 131//131 133//133 132//132
f 132//132 133//133 134//134
f 133//133 135//135 134//134
f 134//134 135//135 136//136
f 135//135 137//137 136//136
f 136//136 137//137 138//138
f 137//137 139//139 138//138
f 138//138 139//139 140//140
f 139//139 141//141 140//140
f 140//140 141//141 142//142
f 141//141 143//143 142//142
f 142//142 143//143 144//144
f 143//143 145//145 144//144
f 146//146 147//147 148//148
f 147//147 149//149 148//148
f 148//148 149//149 150//150

