# Blender 4.3.2
# www.blender.org
o link6_4
v 0.087510 0.078015 0.023409
v 0.086791 0.078015 0.024116
v 0.087627 0.077677 0.025000
v 0.089842 0.077021 0.025884
v 0.089115 0.076977 0.026591
v 0.088291 0.077381 0.025707
v 0.089916 0.077416 0.024116
v 0.089246 0.077683 0.023409
v 0.089015 0.077409 0.025000
v 0.088349 0.077692 0.024293
v 0.087380 0.077315 0.026591
v 0.086719 0.077627 0.025884
vn 0.1796 0.9667 0.1822
vn 0.1785 0.9653 0.1906
vn 0.1816 0.9640 0.1942
vn 0.1853 0.9543 0.2344
vn 0.1825 0.9517 0.2469
vn 0.1934 0.9517 0.2384
vn 0.1910 0.9503 0.2460
vn 0.1730 0.9578 0.2296
vn 0.1813 0.9644 0.1924
vn 0.1899 0.9626 0.1933
vn 0.1781 0.9532 0.2445
vn 0.1857 0.9515 0.2454
vt 0.990999 0.133039
vt 0.994096 0.136190
vt 0.987126 0.136978
vt 0.990223 0.140142
vt 0.980153 0.144151
vt 0.984029 0.140150
vt 0.983248 0.147345
vt 0.987124 0.143327
vt 0.980153 0.136204
vt 0.983253 0.133046
vt 0.990996 0.147332
vt 0.994094 0.144130
s 1
f 1/1/1 2/2/2 10/3/3
f 2/2/2 3/4/4 10/3/3
f 4/5/5 9/6/6 5/7/7
f 9/6/6 6/8/8 5/7/7
f 7/9/9 8/10/10 9/6/6
f 8/10/10 10/3/3 9/6/6
f 9/6/6 10/3/3 6/8/8
f 10/3/3 3/4/4 6/8/8
f 6/8/8 3/4/4 11/11/11
f 3/4/4 12/12/12 11/11/11
