# Blender 4.4.1
# www.blender.org
o Original_Rib11R_Rib%20Cage%20For%20Blender.017
v 0.018817 -0.087984 -0.117935
v 0.020315 -0.091332 -0.114079
v 0.020386 -0.086233 -0.118473
v 0.016201 -0.081882 -0.115647
v 0.007355 -0.080831 -0.109922
v 0.014071 -0.089288 -0.109855
v 0.010069 -0.078956 -0.113360
v 0.023730 -0.091428 -0.110235
v 0.023669 -0.085494 -0.118498
v 0.019231 -0.089304 -0.111715
v 0.012122 -0.086106 -0.109536
v 0.007726 -0.084281 -0.108641
v 0.000998 -0.076835 -0.104722
v 0.004429 -0.074161 -0.109743
v 0.010864 -0.086701 -0.106117
v 0.004087 -0.079476 -0.105894
v 0.007798 -0.084445 -0.103834
v 0.002200 -0.079970 -0.103119
v -0.006014 -0.070201 -0.100428
v -0.004357 -0.066076 -0.102838
v -0.003760 -0.069515 -0.101063
v 0.000161 -0.077814 -0.097857
v -0.004733 -0.074276 -0.098560
v -0.013583 -0.061989 -0.094097
v -0.012815 -0.057704 -0.096555
v -0.010202 -0.060125 -0.094019
v -0.005343 -0.072063 -0.092837
v -0.014530 -0.063929 -0.088754
v -0.020640 -0.053583 -0.085758
v -0.018943 -0.048798 -0.088453
v -0.017655 -0.051301 -0.085540
v -0.012957 -0.063021 -0.085202
v -0.017167 -0.058153 -0.081144
v -0.026527 -0.045789 -0.077536
v -0.023935 -0.040845 -0.079905
v -0.022389 -0.042004 -0.077993
v -0.017536 -0.055697 -0.081597
v -0.021490 -0.050096 -0.072564
v -0.031289 -0.037382 -0.065930
v -0.030516 -0.031750 -0.069473
v -0.028597 -0.032864 -0.067033
v -0.021694 -0.047481 -0.073271
v -0.025379 -0.042698 -0.064016
v -0.033307 -0.030046 -0.057791
v -0.033944 -0.025450 -0.060337
v -0.030911 -0.024266 -0.058873
v -0.025743 -0.038899 -0.065013
v -0.029947 -0.033366 -0.053356
v -0.033408 -0.020993 -0.046201
v -0.033052 -0.017347 -0.047728
v -0.030488 -0.015807 -0.046293
v -0.028843 -0.030398 -0.056615
v -0.028524 -0.025586 -0.041914
v -0.029760 -0.014525 -0.034141
v -0.030416 -0.009689 -0.036058
v -0.027009 -0.007665 -0.034647
v -0.028608 -0.020831 -0.044244
v -0.026868 -0.018970 -0.031815
v -0.026027 -0.007546 -0.025006
v -0.024659 -0.002892 -0.026454
v -0.020924 -0.001489 -0.024627
v -0.026302 -0.012423 -0.034871
v -0.023228 -0.012168 -0.022267
v -0.018409 -0.002917 -0.016249
v -0.017458 0.002678 -0.017951
v -0.012862 0.003210 -0.017563
v -0.023390 -0.008654 -0.024144
v -0.013836 -0.005980 -0.012881
v -0.008483 0.006800 -0.010670
v -0.010376 0.002565 -0.009371
v -0.003210 0.007461 -0.011114
v -0.013490 -0.000787 -0.017118
v -0.004052 -0.002608 -0.007046
v 0.001132 0.008250 -0.005166
v -0.001734 0.002299 -0.002195
v -0.003824 0.001828 -0.010946
v 0.005311 0.004210 -0.006620
v 0.002905 -0.001610 -0.001963
v 0.005285 -0.000350 -0.006417
vn -0.5727 -0.6403 -0.5119
vn -0.5543 -0.6562 -0.5120
vn -0.5148 -0.6811 -0.5206
vn -0.4982 -0.2955 -0.8151
vn -0.4978 -0.2951 -0.8155
vn -0.5035 -0.3050 -0.8084
vn -0.3694 -0.8830 -0.2897
vn -0.2742 -0.9085 -0.3152
vn -0.3245 -0.8977 -0.2981
vn -0.1366 -0.9871 0.0831
vn -0.1377 0.2703 -0.9529
vn 0.0494 0.2815 -0.9583
vn 0.0632 0.3448 -0.9366
vn -0.1378 0.2670 -0.9538
vn 0.0272 0.4962 -0.8678
vn 0.2190 0.3923 0.8934
vn 0.1834 0.4145 0.8914
vn 0.1779 0.4185 0.8906
vn 0.3034 0.4594 0.8348
vn 0.3128 0.4628 0.8295
vn 0.3240 0.4684 0.8219
vn 0.2938 0.5241 0.7994
vn -0.2180 -0.3509 -0.9107
vn -0.5292 -0.3434 -0.7759
vn -0.5267 -0.3257 -0.7852
vn -0.4856 -0.3040 -0.8196
vn -0.1761 -0.9084 0.3793
vn -0.5235 -0.8402 -0.1411
vn -0.5236 -0.8402 -0.1411
vn 0.4766 0.5224 0.7071
vn 0.5255 0.4180 0.7411
vn -0.3888 0.1521 -0.9087
vn 0.1721 -0.4537 -0.8744
vn -0.0157 -0.5371 -0.8434
vn 0.6166 -0.7781 0.1199
vn 0.6433 -0.5889 0.4891
vn 0.2107 0.9755 0.0637
vn 0.1566 0.9840 0.0855
vn 0.2554 0.9651 0.0583
vn 0.3920 0.8113 0.4337
vn 0.3911 0.8097 0.4375
vn 0.3890 0.8068 0.4447
vn 0.5562 0.6425 0.5271
vn 0.5317 0.6922 0.4880
vn -0.4997 -0.8495 -0.1696
vn -0.4997 -0.8494 -0.1696
vn -0.6231 -0.5459 -0.5601
vn -0.6233 -0.5462 -0.5596
vn -0.5253 -0.8331 -0.1731
vn -0.5591 -0.5171 -0.6481
vn -0.5691 -0.5335 -0.6257
vn -0.5828 -0.5516 -0.5967
vn -0.4806 -0.2327 -0.8455
vn -0.4420 -0.2041 -0.8735
vn -0.5297 -0.2703 -0.8039
vn -0.5534 -0.2874 -0.7818
vn 0.5996 0.3849 0.7017
vn 0.5972 0.4388 0.6714
vn 0.6010 0.6946 0.3955
vn 0.6803 0.5572 0.4761
vn -0.5361 -0.8409 -0.0739
vn -0.5459 -0.5014 -0.6713
vn -0.5148 -0.8556 -0.0540
vn -0.6574 -0.4888 -0.5736
vn -0.6573 -0.4888 -0.5736
vn -0.5835 -0.2570 -0.7704
vn -0.4967 -0.1731 -0.8505
vn 0.7422 0.3960 0.5407
vn 0.7422 0.3960 0.5406
vn 0.6063 0.7823 0.1430
vn 0.7173 0.5012 0.4840
vn 0.6696 0.5583 0.4898
vn 0.7140 0.5035 0.4865
vn 0.7535 0.4505 0.4789
vn -0.5409 -0.8370 0.0836
vn -0.5409 -0.8370 0.0835
vn -0.5453 -0.8343 0.0811
vn -0.6833 -0.5331 -0.4989
vn -0.6834 -0.5331 -0.4989
vn -0.5365 -0.8395 0.0861
vn -0.7273 -0.4800 -0.4906
vn -0.7272 -0.4800 -0.4906
vn -0.6375 -0.1043 -0.7633
vn -0.7146 -0.1873 -0.6740
vn 0.6475 0.7565 0.0916
vn 0.7596 0.5935 0.2659
vn 0.7597 0.5935 0.2659
vn 0.6977 0.4369 0.5677
vn 0.6977 0.4369 0.5678
vn 0.7148 0.4116 0.5654
vn -0.4858 -0.8292 0.2764
vn -0.4878 -0.8280 0.2765
vn -0.7875 -0.6101 -0.0874
vn -0.4839 -0.8304 0.2763
vn -0.7140 -0.6751 -0.1857
vn -0.6208 0.0558 -0.7820
vn -0.7287 -0.0396 -0.6837
vn 0.8201 0.5360 0.2003
vn 0.6794 0.7337 -0.0104
vn 0.7978 0.3557 0.4868
vn 0.7221 0.4143 0.5540
vn 0.7552 0.3888 0.5278
vn 0.8229 0.3323 0.4609
vn 0.6369 0.2680 0.7229
vn 0.6369 0.2680 0.7228
vn -0.7077 -0.7058 0.0308
vn 0.8316 0.2662 0.4874
vn 0.8316 0.2662 0.4873
vn -0.6830 -0.7304 -0.0049
vn -0.8389 -0.1488 -0.5235
vn -0.8389 -0.1488 -0.5236
vn -0.6530 0.0799 -0.7532
vn 0.6583 0.7527 0.0112
vn 0.6202 0.7838 -0.0324
vn 0.7043 0.7015 -0.1093
vn 0.6850 0.7228 -0.0909
vn 0.8461 0.3597 0.3934
vn 0.8461 0.3597 0.3933
vn 0.8038 0.3978 0.4424
vn 0.8303 0.2280 0.5086
vn -0.6589 -0.7463 0.0941
vn 0.8398 0.2255 0.4938
vn -0.6816 -0.6991 0.2162
vn -0.6815 -0.6991 0.2162
vn -0.9185 -0.2671 -0.2917
vn -0.8512 -0.1378 -0.5065
vn 0.7606 0.6274 -0.1672
vn -0.0020 0.8367 -0.5476
vn 0.8360 0.5094 0.2041
vn 0.8785 0.4735 0.0637
vn 0.8398 0.2389 0.4875
vn 0.8398 0.2389 0.4874
vn -0.7499 -0.6612 -0.0225
vn 0.8527 0.2355 0.4663
vn -0.8470 -0.5170 0.1239
vn -0.9624 -0.0198 -0.2711
vn -0.9804 -0.1709 -0.0979
vn -0.0232 0.8479 -0.5296
vn -0.1798 0.8317 -0.5253
vn -0.1802 0.8318 -0.5250
vn 0.8823 0.4113 0.2291
vn 0.8823 0.4113 0.2290
vn 0.9387 0.3444 0.0152
vn 0.8465 0.0861 0.5254
vn -0.8063 -0.5496 0.2186
vn 0.9456 -0.1912 0.2634
vn -0.8203 -0.5051 0.2683
vn -0.9895 -0.1167 0.0859
vn -0.9890 -0.1193 0.0871
vn -0.9954 0.0490 -0.0818
vn -0.2719 0.8203 -0.5031
vn -0.3874 0.8428 -0.3736
vn -0.2893 0.8248 -0.4858
vn -0.1806 0.8319 -0.5246
vn 0.9331 0.3595 -0.0083
vn 0.9413 0.2807 -0.1877
vn 0.9413 0.2807 -0.1878
vn 0.9768 0.1007 0.1888
vn -0.8768 -0.3990 0.2685
vn -0.8766 -0.4159 0.2422
vn -0.8724 -0.4565 0.1748
vn 0.9954 0.0526 0.0800
vn -0.8734 -0.3549 0.3335
vn -0.9735 0.2223 -0.0528
vn -0.9589 -0.0368 0.2813
vn -0.4101 0.8433 -0.3473
vn -0.0006 0.8463 -0.5327
vn 0.9536 0.2574 -0.1561
vn 0.8862 0.2504 -0.3899
vn 0.8861 0.2504 -0.3899
vn 0.9951 -0.0408 0.0902
vn -0.9003 -0.3283 0.2859
vn 0.9958 -0.0874 -0.0270
vn -0.8542 -0.1540 0.4966
vn -0.9121 0.1937 0.3614
vn -0.9121 0.1937 0.3613
vn -0.9222 0.2759 0.2710
vn -0.0349 0.8724 -0.4876
vn -0.0891 0.8869 -0.4533
vn 0.9706 -0.2344 0.0538
vn 0.8617 -0.1892 -0.4707
vn 0.9994 0.0224 -0.0262
vn -0.7713 -0.2457 0.5871
vn -0.7713 -0.2457 0.5872
vn 0.8929 -0.1731 -0.4157
vn -0.8321 0.2173 0.5102
vn -0.8649 0.3803 0.3277
vn -0.7596 -0.1666 0.6287
vn -0.0466 0.8865 -0.4603
vn -0.1643 0.9258 -0.3403
vn 0.8141 -0.0846 -0.5745
vn 0.7643 -0.0839 -0.6394
vn 0.8603 -0.3657 -0.3552
vn -0.6115 -0.2579 0.7481
vn 0.7300 -0.4586 -0.5067
vn -0.6812 0.3622 0.6362
vn -0.2173 0.9755 -0.0346
vn -0.6772 -0.4974 0.5423
vn -0.6926 0.4841 0.5347
vn 0.7186 0.0095 -0.6954
vn 0.5329 0.7786 -0.3315
vn 0.6241 0.0125 -0.7813
vn 0.6240 0.0125 -0.7813
vn 0.7131 -0.4853 -0.5059
vn 0.7131 -0.4852 -0.5060
vn 0.7176 -0.4828 -0.5020
vn -0.5489 -0.5817 0.6003
vn 0.7085 -0.4878 -0.5100
vn 0.2734 0.1937 0.9422
vn 0.1432 0.4745 0.8685
vn 0.1433 0.4745 0.8685
vn 0.0892 -0.9343 -0.3451
vn 0.6158 0.0446 -0.7866
vn 0.7556 0.0741 0.6508
vn -0.1659 0.6540 0.7381
vn -0.1782 0.8116 0.5564
vn -0.0980 0.6293 0.7710
s 1
f 5//1 1//3 6//2
f 7//4 1//6 5//5
f 1//7 2//9 6//8
f 6//10 2//10 8//10
f 7//11 4//14 3//13 1//12
f 4//15 9//15 3//15
f 9//16 4//18 10//17
f 4//19 11//21 10//20
f 4//22 7//22 11//22
f 5//23 6//23 12//23
f 13//24 5//24 12//24
f 14//25 5//25 13//25
f 14//26 7//26 5//26
f 6//27 8//27 15//27
f 12//28 6//29 15//28
f 7//30 16//30 11//30
f 7//31 14//31 16//31
f 9//32 8//36 2//35 1//34 3//33
f 10//37 15//39 8//38
f 11//40 15//42 10//41
f 11//43 17//43 15//43
f 16//44 17//44 11//44
f 12//45 15//46 17//46
f 13//47 12//48 18//47
f 18//49 12//49 17//49
f 19//50 13//52 18//51
f 20//53 13//55 19//54
f 20//53 14//56 13//55
f 14//57 21//57 16//57
f 14//58 20//58 21//58
f 16//59 22//59 17//59
f 21//60 22//60 16//60
f 18//61 17//61 22//61
f 19//50 18//51 23//62
f 23//63 18//63 22//63
f 24//64 19//65 23//65
f 25//66 19//66 24//66
f 25//67 20//67 19//67
f 20//68 26//69 21//68
f 20//70 25//70 26//70
f 21//71 27//73 22//72
f 26//74 27//73 21//71
f 23//75 22//77 27//76
f 24//78 23//79 28//78
f 28//80 23//75 27//76
f 29//81 24//82 28//81
f 30//83 24//83 29//83
f 30//84 25//84 24//84
f 25//85 31//85 26//85
f 25//86 30//87 31//87
f 26//88 32//89 27//88
f 31//90 32//90 26//90
f 28//91 27//92 32//91
f 29//93 28//93 33//93
f 33//94 28//91 32//91
f 34//95 29//95 33//95
f 35//96 29//96 34//96
f 35//97 30//97 29//97
f 30//98 36//98 31//98
f 30//99 35//99 36//99
f 31//100 37//102 32//101
f 36//103 37//102 31//100
f 33//104 32//105 37//104
f 34//106 33//106 38//106
f 38//107 33//108 37//107
f 39//109 34//109 38//109
f 40//110 34//111 39//110
f 40//112 35//112 34//112
f 35//113 41//113 36//113
f 35//114 40//116 41//115
f 36//117 42//117 37//118
f 41//119 42//119 36//119
f 38//120 37//120 42//120
f 39//121 38//121 43//121
f 43//122 38//122 42//122
f 44//123 39//124 43//124
f 45//125 39//125 44//125
f 45//126 40//126 39//126
f 40//116 46//127 41//115
f 40//128 45//128 46//128
f 41//129 47//129 42//129
f 46//130 47//130 41//130
f 43//131 42//131 47//132
f 44//133 43//133 48//133
f 48//134 43//134 47//134
f 49//135 44//135 48//135
f 50//136 44//136 49//136
f 50//137 45//137 44//137
f 45//138 51//138 46//138
f 45//139 50//140 51//140
f 46//141 52//141 47//142
f 51//143 52//143 46//143
f 48//144 47//144 52//144
f 49//145 48//145 53//145
f 53//146 48//146 52//146
f 54//147 49//147 53//147
f 55//148 49//148 54//149
f 55//150 50//150 49//150
f 50//151 55//153 56//152
f 50//140 56//154 51//140
f 51//155 57//155 52//155
f 56//156 57//157 51//157
f 53//158 52//158 57//158
f 54//159 53//161 58//160
f 58//162 53//162 57//162
f 59//163 54//159 58//160
f 60//164 54//164 59//164
f 60//165 55//165 54//165
f 55//153 61//166 56//152
f 55//167 60//167 61//167
f 56//168 62//168 57//168
f 61//169 62//170 56//170
f 58//171 57//171 62//171
f 59//172 58//172 63//172
f 63//173 58//173 62//173
f 64//174 59//174 63//174
f 65//175 59//175 64//176
f 65//177 60//177 59//177
f 60//178 65//178 66//178
f 60//179 66//179 61//179
f 61//180 67//180 62//180
f 66//181 67//181 61//181
f 63//182 62//182 67//182
f 64//183 63//184 68//183
f 68//185 63//185 67//185
f 69//186 65//186 64//186
f 69//187 64//187 70//187
f 70//188 64//188 68//188
f 65//189 71//189 66//189
f 65//190 69//190 71//190
f 66//191 72//191 67//191
f 71//192 72//192 66//192
f 68//193 67//193 72//193
f 70//194 68//194 73//194
f 73//195 68//195 72//195
f 74//196 69//196 70//196
f 69//197 74//197 71//197
f 75//198 70//198 73//198
f 74//199 70//199 75//199
f 71//200 76//200 72//200
f 71//201 74//201 77//201
f 76//202 71//203 77//203
f 73//204 72//206 76//205
f 75//207 73//207 78//207
f 78//208 73//204 76//205
f 75//209 77//209 74//209
f 75//210 78//211 77//211
f 78//212 76//212 79//212
f 77//213 79//213 76//213
f 77//214 78//214 79//214
f 9//215 10//217 8//216
