# Blender 4.4.1
# www.blender.org
o Original_Rib5R_Rib%20Cage%20For%20Blender.011
v -0.017655 -0.021384 -0.092945
v -0.009907 -0.031928 -0.105303
v -0.006936 -0.028159 -0.104791
v -0.016663 -0.021087 -0.090496
v -0.027702 -0.014377 -0.078292
v -0.022044 -0.023341 -0.092778
v -0.025787 -0.013829 -0.077035
v -0.009308 -0.038972 -0.100353
v 0.004377 -0.039045 -0.113666
v -0.004919 -0.028312 -0.101915
v 0.010283 -0.036610 -0.114400
v -0.028715 -0.021673 -0.073238
v -0.021338 -0.027858 -0.085372
v -0.031175 -0.015941 -0.077458
v -0.027708 -0.009853 -0.057078
v -0.029878 -0.005973 -0.056908
v -0.022658 -0.030390 -0.091765
v -0.028517 -0.019839 -0.055057
v -0.008564 -0.040185 -0.098576
v 0.003494 -0.046223 -0.109614
v 0.022236 -0.056726 -0.118817
v 0.013282 -0.051741 -0.115904
v 0.025658 -0.047015 -0.122901
v -0.006150 -0.036329 -0.101154
v 0.011924 -0.036860 -0.111204
v 0.027510 -0.045160 -0.122283
v -0.028755 -0.017749 -0.049726
v -0.028953 -0.024822 -0.070841
v -0.023563 -0.030660 -0.082453
v -0.031298 -0.022746 -0.077026
v -0.030643 -0.006871 -0.055376
v -0.024816 -0.009325 -0.037961
v -0.024305 -0.015147 -0.035852
v -0.026310 -0.003887 -0.039814
v -0.025524 -0.012883 -0.030980
v 0.011479 -0.043389 -0.110918
v 0.025731 -0.049637 -0.118101
v 0.046209 -0.060889 -0.124414
v 0.040065 -0.066355 -0.124753
v 0.046260 -0.056249 -0.123284
v 0.046976 -0.058914 -0.129787
v 0.028194 -0.044907 -0.118699
v 0.048582 -0.056587 -0.126577
v -0.029855 -0.011240 -0.036256
v -0.033091 -0.014802 -0.054445
v -0.027399 -0.004798 -0.036375
v -0.013346 -0.014309 -0.019192
v -0.016184 -0.011526 -0.021169
v -0.019170 -0.011947 -0.016769
v -0.016620 -0.002891 -0.022499
v -0.021028 -0.006601 -0.020894
v 0.048953 -0.056196 -0.123984
v 0.067669 -0.067211 -0.124241
v 0.067143 -0.069657 -0.123961
v 0.057367 -0.076882 -0.125384
v 0.068595 -0.068053 -0.125432
v 0.068424 -0.072352 -0.130154
v 0.068992 -0.069159 -0.128556
v -0.018195 -0.002782 -0.021108
v -0.008369 -0.019257 -0.003071
v -0.004196 -0.020228 -0.006754
v -0.003804 -0.009772 -0.008246
v -0.009497 -0.013115 -0.006764
v -0.006002 -0.005958 -0.008249
v -0.007818 -0.008112 -0.006182
v 0.088795 -0.080945 -0.123648
v 0.084762 -0.079935 -0.122647
v 0.076990 -0.089340 -0.125955
v 0.091043 -0.082854 -0.127202
v 0.088912 -0.088665 -0.128592
v 0.111679 -0.093452 -0.114046
v 0.113231 -0.094690 -0.116131
v 0.108170 -0.091216 -0.115390
v 0.105979 -0.090081 -0.114489
v 0.112774 -0.106983 -0.117614
v 0.112600 -0.099056 -0.118698
v 0.132363 -0.104820 -0.099608
v 0.134716 -0.106257 -0.101820
v 0.134847 -0.109395 -0.104037
v 0.127669 -0.102092 -0.100639
v 0.133757 -0.118028 -0.103431
v 0.146133 -0.111873 -0.082596
v 0.148895 -0.113736 -0.084488
v 0.149442 -0.117196 -0.086700
v 0.145689 -0.125792 -0.085253
v 0.142597 -0.109757 -0.084092
v 0.156321 -0.117639 -0.065148
v 0.158098 -0.119496 -0.067642
v 0.157616 -0.122106 -0.069026
v 0.152104 -0.132569 -0.068837
v 0.152755 -0.116879 -0.063646
vn -0.5360 0.2271 -0.8131
vn -0.5168 0.2190 -0.8276
vn -0.4876 0.2145 -0.8463
vn 0.2732 0.9265 -0.2589
vn 0.2676 0.9249 -0.2700
vn 0.2590 0.9242 -0.2807
vn -0.7329 0.3414 -0.5884
vn -0.7284 0.3356 -0.5973
vn -0.7202 0.3268 -0.6120
vn 0.3164 0.9089 -0.2716
vn 0.2831 0.9180 -0.2776
vn 0.3147 0.8988 -0.3051
vn -0.0647 0.8968 -0.4376
vn -0.0637 0.8972 -0.4370
vn -0.6062 0.1155 -0.7869
vn -0.6074 0.1147 -0.7861
vn -0.6085 0.1140 -0.7853
vn -0.3315 0.1052 -0.9376
vn -0.3582 0.1102 -0.9271
vn -0.3813 0.1182 -0.9169
vn 0.2998 0.9212 -0.2481
vn 0.3015 0.9213 -0.2454
vn 0.2982 0.9223 -0.2457
vn -0.4079 0.1093 -0.9065
vn -0.4137 0.1121 -0.9035
vn -0.4149 0.1144 -0.9026
vn 0.2798 0.9299 -0.2387
vn 0.2848 0.9286 -0.2377
vn 0.2821 0.9298 -0.2365
vn -0.4809 0.6111 -0.6287
vn -0.4807 0.6112 -0.6288
vn -0.2047 0.9437 -0.2599
vn 0.8315 0.5428 -0.1181
vn 0.9921 0.0182 0.1241
vn 0.9922 0.0171 0.1238
vn -0.8908 -0.4250 -0.1606
vn -0.8884 -0.4336 -0.1507
vn -0.8960 -0.4012 -0.1902
vn -0.5615 -0.4647 -0.6847
vn -0.5168 -0.5140 -0.6846
vn -0.5994 -0.4289 -0.6758
vn -0.5479 -0.5030 -0.6684
vn -0.5963 -0.4778 -0.6451
vn -0.5833 -0.6715 -0.4570
vn -0.6436 -0.4414 -0.6252
vn -0.8322 -0.4775 -0.2818
vn -0.6902 -0.3624 -0.6263
vn -0.6863 -0.3731 -0.6243
vn -0.4355 -0.6431 -0.6299
vn -0.5127 -0.4508 -0.7307
vn -0.5235 -0.4411 -0.7289
vn -0.5319 -0.4315 -0.7286
vn -0.4261 0.0782 -0.9013
vn -0.4155 0.0693 -0.9070
vn -0.4041 0.0614 -0.9127
vn 0.3288 0.9285 -0.1725
vn 0.3295 0.9282 -0.1728
vn 0.3279 0.9282 -0.1757
vn -0.1868 0.4007 -0.8970
vn 0.3275 0.9281 -0.1773
vn -0.5976 -0.2418 -0.7645
vn -0.5964 -0.2346 -0.7676
vn -0.5974 -0.2416 -0.7647
vn 0.8272 0.5393 -0.1578
vn 0.9859 0.0939 -0.1383
vn 0.9845 -0.0570 -0.1656
vn 0.9451 0.2424 -0.2191
vn -0.5736 -0.4189 -0.7039
vn -0.5547 -0.4453 -0.7029
vn -0.5384 -0.4639 -0.7035
vn -0.0917 0.3314 -0.9390
vn -0.3769 -0.2940 -0.8783
vn 0.3250 0.9282 -0.1813
vn 0.2174 0.6985 -0.6818
vn 0.3879 0.9022 -0.1884
vn 0.8478 -0.0922 -0.5222
vn 0.8894 0.1323 -0.4375
vn 0.7327 0.5891 -0.3406
vn 0.8814 0.0053 -0.4724
vn -0.2141 -0.4307 -0.8767
vn 0.3420 0.6397 -0.6884
vn 0.3420 0.6397 -0.6883
vn 0.3419 0.6396 -0.6885
vn -0.3553 -0.5047 -0.7868
vn -0.3665 -0.4874 -0.7925
vn -0.3762 -0.4679 -0.7997
vn 0.3708 0.8984 -0.2353
vn 0.3707 0.8984 -0.2353
vn 0.4434 0.8646 -0.2365
vn 0.2522 0.5600 -0.7892
vn 0.2367 0.5672 -0.7889
vn 0.2488 0.5616 -0.7891
vn 0.7285 0.6112 -0.3094
vn -0.2949 -0.9473 -0.1250
vn 0.7435 -0.1077 -0.6600
vn 0.7399 -0.0534 -0.6706
vn 0.7387 0.4666 -0.4864
vn 0.0832 0.9955 0.0463
vn 0.4339 0.8587 -0.2727
vn -0.1185 -0.0085 0.9929
vn 0.2740 0.7128 0.6457
vn -0.1190 -0.1247 0.9850
vn -0.0950 -0.1307 0.9869
vn -0.0636 -0.1570 0.9855
vn -0.2950 -0.5596 -0.7745
vn -0.2666 -0.5734 -0.7747
vn -0.2590 -0.5763 -0.7751
vn 0.4693 0.8437 -0.2605
vn 0.4113 0.5025 -0.7605
vn 0.4067 0.5049 -0.7614
vn 0.4177 0.4988 -0.7594
vn -0.3120 -0.5853 -0.7484
vn -0.3432 -0.5602 -0.7539
vn -0.3666 -0.5365 -0.7601
vn 0.2270 0.2496 -0.9414
vn 0.2376 0.2436 -0.9403
vn 0.2320 0.2469 -0.9409
vn -0.3721 0.0612 0.9262
vn -0.3940 0.0623 0.9170
vn -0.4192 0.0533 0.9063
vn -0.3462 -0.4543 0.8208
vn -0.3585 -0.4531 0.8162
vn -0.3503 -0.4548 0.8188
vn -0.2984 -0.7636 -0.5726
vn -0.2631 -0.7939 -0.5482
vn -0.2311 -0.8141 -0.5327
vn 0.5373 0.3590 -0.7632
vn 0.5373 0.3594 -0.7630
vn 0.4733 0.1645 -0.8654
vn 0.4868 0.1547 -0.8597
vn 0.4659 0.1689 -0.8686
vn 0.4672 0.0355 -0.8835
vn 0.4437 0.0481 -0.8949
vn 0.4574 0.0407 -0.8883
vn 0.4212 0.8116 -0.4049
vn 0.4825 0.8400 -0.2481
vn 0.4080 0.8909 0.1996
vn 0.5380 0.7609 -0.3627
vn 0.5546 0.7647 -0.3280
vn 0.3901 0.8336 -0.3911
vn 0.3790 0.9196 0.1033
vn 0.4340 0.8976 -0.0769
vn 0.4336 0.8979 -0.0762
vn 0.4138 0.9104 -0.0024
vn 0.4237 0.9058 0.0021
vn 0.4087 0.9126 -0.0050
vn 0.6048 0.4736 -0.6402
vn 0.6049 0.4734 -0.6404
vn 0.6047 0.4744 -0.6398
vn 0.5800 0.3441 -0.7383
vn 0.5801 0.3447 -0.7380
vn 0.5800 0.3437 -0.7385
vn -0.6654 -0.5516 0.5030
vn -0.6722 -0.5457 0.5003
vn -0.6517 -0.5626 0.5087
vn -0.6114 -0.5980 0.5182
vn -0.6369 -0.5856 0.5014
vn -0.6228 -0.5929 0.5106
vn 0.5819 0.0728 -0.8100
vn 0.5754 0.0747 -0.8144
vn 0.5881 0.0705 -0.8057
vn 0.4803 -0.1370 -0.8663
vn 0.4803 -0.1371 -0.8663
vn 0.4803 -0.1355 -0.8666
vn 0.4650 0.8668 -0.1799
vn 0.2933 0.9451 0.1445
vn 0.4789 -0.2018 -0.8544
vn 0.3887 -0.2696 -0.8810
vn -0.9703 0.0327 -0.2396
vn 0.4046 0.9124 0.0620
vn 0.4024 0.9134 0.0610
vn 0.4057 0.9119 0.0624
vn 0.4608 0.8868 -0.0351
vn 0.4616 0.8864 -0.0358
vn 0.4610 0.8867 -0.0353
vn 0.6938 0.6647 -0.2773
vn 0.7164 0.6492 -0.2555
vn 0.7034 0.6584 -0.2677
vn 0.7650 0.4071 -0.4990
vn 0.6511 -0.3754 -0.6596
vn 0.6514 -0.3742 -0.6600
vn 0.6520 -0.3766 -0.6580
vn 0.8167 -0.1155 -0.5654
vn -0.7893 -0.5387 -0.2947
vn -0.7062 -0.4210 -0.5693
vn -0.9540 -0.2593 -0.1507
vn -0.6827 -0.5705 0.4565
vn -0.6899 -0.5689 0.4476
vn -0.6757 -0.5716 0.4655
vn -0.8284 -0.3782 0.4132
vn -0.8384 -0.3720 0.3984
vn -0.8319 -0.3762 0.4080
vn 0.5619 0.7596 -0.3274
vn 0.5476 0.7700 -0.3274
vn 0.5221 0.7894 -0.3230
vn 0.3490 0.9349 -0.0648
vn 0.3491 0.9358 -0.0484
vn 0.3499 0.9337 -0.0764
vn 0.7862 0.4395 -0.4344
vn 0.8733 0.4046 -0.2713
vn 0.8135 0.4400 -0.3804
vn 0.6863 0.6535 -0.3192
vn 0.6954 0.6576 -0.2898
vn 0.6796 0.6478 -0.3442
vn 0.6639 -0.5330 -0.5245
vn 0.6647 -0.5362 -0.5202
vn 0.6645 -0.5355 -0.5213
vn 0.8111 -0.3856 -0.4399
vn 0.8103 -0.3867 -0.4402
vn 0.8113 -0.3865 -0.4386
vn -0.8915 -0.3963 0.2197
vn -0.9152 -0.3692 0.1617
vn -0.8951 -0.3931 0.2104
vn -0.9182 -0.3628 0.1588
vn -0.9064 -0.3858 0.1721
vn -0.9271 -0.3436 0.1500
vn 0.9265 -0.2761 0.2557
vn 0.7140 -0.6479 0.2654
vn 0.8966 -0.1199 0.4264
vn 0.9764 -0.1430 0.1616
vn 0.9285 -0.2494 0.2751
vn -0.4464 -0.0837 -0.8909
vn -0.4689 -0.2536 -0.8461
vn -0.4739 -0.2655 -0.8396
vn -0.1804 0.1010 -0.9784
vn 0.4797 -0.1967 0.8551
vn 0.4712 -0.2179 0.8547
vn 0.4736 0.5166 0.7133
vn 0.5417 0.4000 0.7393
vn 0.8120 -0.0479 0.5817
vn 0.6927 0.1289 0.7097
vn 0.8100 0.0584 0.5836
vn -0.3196 0.3933 -0.8621
vn -0.2714 0.6569 -0.7034
vn -0.4810 0.6626 -0.5741
vn -0.2995 0.5319 -0.7920
vn 0.9614 -0.2697 0.0542
vn 0.9611 -0.2705 0.0550
vn 0.4692 0.0868 0.8788
vn 0.4691 0.0884 0.8787
vn 0.6974 0.0452 0.7153
vn -0.6547 -0.7422 0.1435
vn -0.9668 -0.2542 0.0261
vn 0.9994 -0.0089 0.0333
vn 0.9995 0.0058 0.0298
vn 0.8523 0.3278 0.4076
vn 0.7227 0.1860 0.6657
vn 0.8582 -0.0882 0.5057
vn -0.9987 -0.0507 0.0015
vn -0.4443 -0.8315 0.3335
vn -0.3490 -0.8733 0.3400
vn 0.7178 0.0849 0.6910
vn 0.5074 0.1601 0.8467
vn 0.5010 0.3285 0.8007
vn 0.5413 -0.1716 0.8231
vn 0.5244 -0.4121 0.7451
vn 0.0815 -0.4731 0.8772
vn 0.0965 -0.4777 0.8732
vn 0.0600 -0.4536 0.8892
vn 0.0985 -0.3019 0.9482
vn 0.0790 -0.2790 0.9570
vn 0.1109 -0.3073 0.9451
vn 0.4309 0.0328 0.9018
vn 0.3316 0.1509 0.9313
vn 0.2599 0.1837 0.9480
vn 0.2739 0.1458 0.9507
vn 0.2721 0.1478 0.9509
vn 0.2634 0.1526 0.9525
vn 0.4693 0.0851 0.8789
vn 0.4051 0.0880 0.9100
vn -0.6750 -0.6830 0.2791
vn -0.5851 -0.7434 0.3241
vn -0.6616 -0.7046 0.2566
vn -0.7867 -0.5998 0.1459
vn -0.6540 -0.7543 0.0574
vn -0.9605 0.1954 -0.1983
vn -0.9645 0.2451 0.0981
vn -0.2196 -0.9353 0.2773
vn -0.4231 -0.8526 0.3065
vn -0.4231 -0.8527 0.3065
vn -0.4083 0.9090 0.0834
vn -0.9174 -0.0455 0.3953
vn -0.7653 -0.3383 0.5476
vn 0.4025 -0.0235 0.9151
vn 0.2271 0.0632 0.9718
vn 0.2322 0.0899 0.9685
vn 0.0624 0.1415 0.9880
vn 0.0635 0.1452 0.9874
vn 0.0644 0.1493 0.9867
vn 0.0353 0.1063 0.9937
vn 0.0412 0.1041 0.9937
vn 0.0500 0.1004 0.9937
vn -0.0490 -0.1233 0.9912
vn -0.0935 -0.1093 0.9896
vn -0.0554 -0.1143 0.9919
vn -0.0531 -0.0845 0.9950
vn 0.2004 0.3426 0.9179
vn 0.3721 0.8732 -0.3149
vn -0.8569 0.2884 0.4273
vn -0.9536 0.2941 0.0638
vn -0.8106 0.5418 0.2222
vn -0.0978 0.9813 -0.1659
vn -0.3568 -0.9286 -0.1018
vn -0.7014 0.2773 0.6566
vn -0.7019 0.2744 0.6573
vn -0.7007 0.2803 0.6561
vn -0.6642 0.4809 0.5723
vn -0.7466 0.1488 0.6484
vn 0.0155 0.1593 0.9871
vn -0.4041 0.7847 0.4700
vn -0.8158 0.1728 0.5520
vn 0.4961 0.3854 0.7781
vn 0.4961 0.3858 0.7778
vn 0.4651 0.1846 0.8658
vn 0.6480 0.2521 0.7187
vn 0.2237 0.9395 0.2595
vn 0.2185 0.9401 0.2615
vn 0.1973 0.9408 0.2756
vn 0.3411 0.9280 -0.1501
vn 0.3436 0.9268 -0.1517
vn 0.3446 0.9263 -0.1523
vn 0.4794 0.7816 -0.3991
vn -0.2862 0.8814 0.3759
vn 0.4191 0.8377 -0.3501
vn 0.6413 0.6658 -0.3813
vn 0.5840 -0.4953 -0.6431
vn 0.7934 -0.3232 -0.5158
vn -0.7714 0.6360 0.0189
vn -0.7764 0.6297 0.0257
vn 0.8092 0.5628 0.1687
vn -0.0233 -0.5043 0.8632
vn -0.8984 0.3795 -0.2210
vn -0.8967 0.3877 -0.2136
vn -0.5096 0.7577 -0.4077
vn -0.5104 0.7556 -0.4106
s 1
f 1//1 3//3 2//2
f 4//4 3//6 1//5
f 5//7 1//9 6//8
f 7//10 4//12 1//11
f 7//13 1//14 5//13
f 1//15 2//17 6//16
f 3//18 9//20 2//19
f 4//21 10//23 3//22
f 3//24 11//26 9//25
f 10//27 11//29 3//28
f 5//30 6//31 14//30
f 15//32 7//32 5//32
f 15//33 5//33 16//33
f 18//34 7//35 15//35
f 17//36 8//38 19//37
f 8//39 20//41 19//40
f 9//42 20//45 8//44 2//43
f 17//46 6//49 2//48 8//47
f 9//50 23//52 21//51
f 11//53 23//55 9//54
f 10//56 25//58 11//57
f 11//59 26//59 23//59
f 25//58 26//60 11//57
f 14//61 17//63 30//62
f 32//64 15//64 16//64
f 33//65 15//65 32//65
f 33//66 18//66 15//66
f 32//67 16//67 34//67
f 23//68 39//70 21//69
f 26//71 41//71 23//71
f 23//72 41//72 39//72
f 25//58 42//73 26//60
f 26//74 43//74 41//74
f 42//75 43//75 26//75
f 47//76 33//76 32//76
f 48//77 32//77 34//77
f 47//78 32//78 48//78
f 48//79 34//79 50//79
f 41//80 55//80 39//80
f 43//81 57//83 41//82
f 41//84 57//86 55//85
f 42//87 52//87 43//88
f 52//89 58//89 43//89
f 43//90 58//92 57//91
f 61//93 47//93 48//93
f 60//94 47//94 61//94
f 61//95 48//95 62//95
f 62//96 48//96 50//96
f 62//97 50//97 64//97
f 64//98 50//98 59//98
f 52//99 56//99 58//99
f 55//100 67//100 54//100
f 54//101 67//101 66//101
f 55//102 68//104 67//103
f 57//105 68//107 55//106
f 56//108 69//108 58//108
f 58//109 70//111 57//110
f 57//112 70//114 68//113
f 58//115 69//117 70//116
f 68//118 74//120 67//119
f 68//121 75//123 74//122
f 70//124 75//126 68//125
f 69//127 72//128 76//127
f 69//129 76//131 70//130
f 70//132 76//134 75//133
f 56//135 53//141 66//140 73//139 71//138 72//137 69//136
f 71//142 77//143 78//142
f 71//144 78//146 72//145
f 72//147 78//149 79//148
f 72//150 79//152 76//151
f 75//153 80//155 74//154
f 75//156 81//158 80//157
f 76//159 81//161 75//160
f 76//162 79//164 81//163
f 80//165 77//169 71//168 73//167 74//166
f 77//170 82//172 83//171
f 77//173 83//175 78//174
f 78//176 83//178 84//177
f 78//179 84//179 79//179
f 79//180 84//182 85//181
f 79//183 85//183 81//183
f 14//184 6//186 17//185
f 81//187 86//189 80//188
f 81//190 85//192 86//191
f 82//193 87//195 88//194
f 82//196 88//198 83//197
f 83//199 88//201 89//200
f 83//202 89//204 84//203
f 84//205 89//207 90//206
f 84//208 90//210 85//209
f 85//211 90//213 91//212
f 85//214 91//216 86//215
f 90//217 89//221 88//220 87//219 91//218
f 21//222 22//225 20//224 9//223
f 19//226 20//229 36//228 24//227
f 12//230 13//230 4//230
f 13//231 10//231 4//231
f 12//232 4//232 7//232
f 30//233 17//236 19//235 29//234
f 18//237 12//238 7//238
f 24//239 25//239 10//240
f 13//241 24//241 10//241
f 27//242 12//244 18//243
f 27//242 28//245 12//244
f 28//246 13//246 12//246
f 29//247 24//247 13//247
f 28//248 29//248 13//248
f 31//249 14//249 30//249
f 35//250 27//250 18//250
f 35//251 18//251 33//251
f 29//252 19//252 24//252
f 20//253 37//255 36//254
f 20//253 22//256 37//255
f 21//257 38//259 22//258
f 21//260 39//262 38//261
f 22//263 40//265 37//264
f 22//266 38//268 40//267
f 24//239 36//269 25//239
f 36//270 42//270 25//270
f 44//271 45//271 27//271
f 44//272 27//272 35//272
f 45//273 28//273 27//273
f 45//274 30//274 28//274
f 30//275 29//275 28//275
f 31//276 30//276 45//276
f 46//277 31//277 45//277
f 49//278 33//278 47//278
f 49//279 35//280 33//280
f 50//281 34//281 46//281
f 51//282 35//282 49//282
f 51//283 44//283 35//283
f 36//284 37//284 42//284
f 37//285 52//285 42//285
f 37//286 40//286 52//286
f 38//287 54//289 53//288
f 38//290 53//292 40//291
f 39//293 54//295 38//294
f 39//296 55//296 54//296
f 40//297 56//297 52//297
f 40//298 53//298 56//298
f 59//299 46//299 44//299
f 46//300 45//300 44//300
f 59//301 44//301 51//301
f 50//302 46//302 59//302
f 60//303 49//303 47//303
f 63//304 49//304 60//305
f 63//304 51//306 49//304
f 65//307 59//307 51//307
f 65//308 51//308 63//308
f 54//309 66//309 53//309
f 64//310 59//310 65//310
f 65//311 63//311 60//311
f 65//312 60//315 61//315 62//314 64//313
f 67//316 73//318 66//317
f 67//319 74//321 73//320
f 87//322 82//327 77//326 80//325 86//324 91//323
f 34//328 16//331 31//330 46//329
f 16//332 5//335 14//334 31//333
