mtllib Mtl1.mtl
usemtl Mtl1
v -0.07480300 0.03327400 0.04641500
v -0.07544500 0.03327400 0.02187500
v -0.07480300 0.00974200 0.04641500
v -0.07544500 0.00974200 0.02187500
v -0.07504300 -0.00822100 0.03724100
v -0.07554000 -0.00822100 0.01825300
v -0.07504300 -0.02819500 0.03724100
v -0.07554000 -0.02819500 0.01825300
v -0.07428000 -0.04088500 0.06636200
v -0.07428000 -0.04088500 0.06636200
v -0.07428000 0.04088500 0.06636200
v -0.07428300 0.04168800 0.06626100
v -0.07428300 0.04168800 0.06626100
v -0.07428300 -0.04171300 0.06625400
v -0.07428300 -0.04171300 0.06625400
v -0.07429100 0.04246900 0.06595000
v -0.07429100 0.04246900 0.06595000
v -0.07429100 -0.04248600 0.06594000
v -0.07429100 -0.04248600 0.06594000
v -0.07430400 0.04314300 0.06544900
v -0.07430400 -0.04315400 0.06543800
v -0.07432100 0.04366700 0.06479200
v -0.07432200 -0.04367200 0.06478400
v -0.07432200 -0.04367200 0.06478400
v -0.07434100 0.04400400 0.06402300
v -0.07434100 0.04400400 0.06402300
v -0.07434200 -0.04400600 0.06401800
v -0.07436300 -0.04413300 0.06319400
v -0.07436300 0.04413300 0.06319300
v -0.07436300 0.04413300 0.06319300
v -0.07480300 0.03327400 0.04641500
v -0.07480300 0.03327400 0.04641500
v -0.07480300 0.00974200 0.04641500
v -0.07480300 0.00974200 0.04641500
v -0.07480300 0.00974200 0.04641500
v -0.07504300 -0.00822100 0.03724100
v -0.07504300 -0.02819500 0.03724100
v -0.07544500 0.03327400 0.02187500
v -0.07544500 0.03327400 0.02187500
v -0.07544500 0.00974200 0.02187500
v -0.07554000 -0.00822100 0.01825300
v -0.07554000 -0.02819500 0.01825300
v -0.07554700 0.04525700 0.01798100
v -0.07554700 -0.04525700 0.01798100
v -0.07554700 -0.04525700 0.01798100
v -0.07556600 0.04519100 0.01724500
v -0.07556600 -0.04519100 0.01724500
v -0.07556600 -0.04519100 0.01724500
v -0.07558500 -0.04496100 0.01654300
v -0.07558500 -0.04496100 0.01654300
v -0.07558500 0.04496100 0.01654300
v -0.07558500 0.04496100 0.01654300
v -0.07560100 0.04457700 0.01591100
v -0.07560100 0.04457700 0.01591100
v -0.07560100 -0.04457800 0.01591100
v -0.07560100 -0.04457800 0.01591100
v -0.07560100 -0.04457800 0.01591100
v -0.07561500 -0.04406100 0.01538200
v -0.07561500 0.04406100 0.01538200
v -0.07561500 0.04406100 0.01538200
v -0.07562600 0.04343900 0.01498400
v -0.07562600 0.04343900 0.01498400
v -0.07562600 -0.04343900 0.01498400
v -0.07562600 -0.04343900 0.01498400
v -0.07563200 0.04274200 0.01473600
v -0.07563200 -0.04274300 0.01473600
v -0.07563200 -0.04274300 0.01473600
v -0.07563200 -0.04274300 0.01473600
v -0.07563200 -0.04274300 0.01473600
v -0.07563200 -0.04274300 0.01473600
v -0.07563400 0.04200800 0.01465200
v -0.07563400 -0.04200800 0.01465200
v -0.07529200 0.04525700 0.01797500
v -0.07554700 0.04525700 0.01798100
v -0.07410000 0.04413300 0.06318700
v -0.07436300 0.04413300 0.06319300
v -0.07529200 0.04525700 0.01797500
v -0.07531100 0.04519100 0.01723800
v -0.07533000 0.04496100 0.01653600
v -0.07534600 0.04457700 0.01590500
v -0.07536000 0.04406100 0.01537600
v -0.07537100 0.04343900 0.01497700
v -0.07537700 0.04274200 0.01472900
v -0.07537900 0.04200800 0.01464500
v -0.07554700 0.04525700 0.01798100
v -0.07556600 0.04519100 0.01724500
v -0.07558500 0.04496100 0.01654300
v -0.07560100 0.04457700 0.01591100
v -0.07561500 0.04406100 0.01538200
v -0.07562600 0.04343900 0.01498400
v -0.07563200 0.04274200 0.01473600
v -0.07563400 0.04200800 0.01465200
v -0.07537900 -0.04200800 0.01464500
v -0.07563400 -0.04200800 0.01465200
v -0.07563400 -0.04200800 0.01465200
v -0.07537900 0.04200800 0.01464500
v -0.07537900 0.04200800 0.01464500
v -0.07563400 0.04200800 0.01465200
v -0.07529200 -0.04525700 0.01797500
v -0.07531100 -0.04519100 0.01723900
v -0.07533000 -0.04496100 0.01653700
v -0.07534600 -0.04457800 0.01590500
v -0.07536000 -0.04406100 0.01537600
v -0.07537100 -0.04343900 0.01497700
v -0.07537700 -0.04274300 0.01472900
v -0.07537900 -0.04200800 0.01464500
v -0.07554700 -0.04525700 0.01798100
v -0.07556600 -0.04519100 0.01724500
v -0.07558500 -0.04496100 0.01654300
v -0.07560100 -0.04457800 0.01591100
v -0.07561500 -0.04406100 0.01538200
v -0.07562600 -0.04343900 0.01498400
v -0.07563200 -0.04274300 0.01473600
v -0.07563400 -0.04200800 0.01465200
v -0.07410000 -0.04413300 0.06318700
v -0.07436300 -0.04413300 0.06319400
v -0.07529200 -0.04525700 0.01797500
v -0.07554700 -0.04525700 0.01798100
v -0.07401700 -0.04088500 0.06635500
v -0.07401900 -0.04171300 0.06624800
v -0.07402800 -0.04248600 0.06593300
v -0.07404100 -0.04315400 0.06543100
v -0.07405800 -0.04367200 0.06477700
v -0.07407800 -0.04400600 0.06401100
v -0.07410000 -0.04413300 0.06318700
v -0.07428000 -0.04088500 0.06636200
v -0.07428300 -0.04171300 0.06625400
v -0.07429100 -0.04248600 0.06594000
v -0.07430400 -0.04315400 0.06543800
v -0.07432200 -0.04367200 0.06478400
v -0.07434200 -0.04400600 0.06401800
v -0.07436300 -0.04413300 0.06319400
v -0.07401700 0.04088500 0.06635500
v -0.07428000 0.04088500 0.06636200
v -0.07401700 -0.04088500 0.06635500
v -0.07428000 -0.04088500 0.06636200
v -0.07401700 0.04088500 0.06635500
v -0.07401900 0.04168800 0.06625400
v -0.07402700 0.04246900 0.06594300
v -0.07404100 0.04314300 0.06544200
v -0.07405800 0.04366700 0.06478500
v -0.07407800 0.04400400 0.06401600
v -0.07410000 0.04413300 0.06318700
v -0.07428000 0.04088500 0.06636200
v -0.07428300 0.04168800 0.06626100
v -0.07429100 0.04246900 0.06595000
v -0.07430400 0.04314300 0.06544900
v -0.07432100 0.04366700 0.06479200
v -0.07434100 0.04400400 0.06402300
v -0.07436300 0.04413300 0.06319300
v -0.07562600 0.04343900 0.01498400
v -0.07537100 0.04343900 0.01497700
v -0.07537100 0.04343900 0.01497700
v -0.07562600 -0.04343900 0.01498400
v -0.07562600 -0.04343900 0.01498400
v -0.07537100 -0.04343900 0.01497700
v -0.07429100 -0.04248600 0.06594000
v -0.07402800 -0.04248600 0.06593300
v -0.07402800 -0.04248600 0.06593300
v -0.07429100 0.04246900 0.06595000
v -0.07429100 0.04246900 0.06595000
v -0.07402700 0.04246900 0.06594300
vn -0.99970000 0.00000000 0.02620000
vn -0.99970000 0.00000000 0.02620000
vn -0.99970000 0.00000000 0.02620000
vn -0.99970000 0.00000000 0.02620000
vn -0.99970000 0.00000000 0.02620000
vn -0.99970000 0.00000000 0.02620000
vn -0.99970000 0.00000000 0.02620000
vn -0.99970000 0.00000000 0.02620000
vn -0.99970000 0.00000000 0.02620000
vn -0.99970000 -0.00000000 0.02610000
vn -0.99970000 0.00000000 0.02620000
vn -0.99970000 0.00000000 0.02620000
vn -0.99970000 -0.00010000 0.02620000
vn -0.99970000 0.00000000 0.02630000
vn -0.99970000 -0.00000000 0.02610000
vn -0.99970000 -0.00010000 0.02620000
vn -0.99970000 0.00000000 0.02620000
vn -0.99970000 0.00000000 0.02630000
vn -0.99970000 -0.00000000 0.02610000
vn -0.99970000 0.00000000 0.02620000
vn -0.99970000 -0.00000000 0.02610000
vn -0.99970000 0.00000000 0.02620000
vn -0.99970000 0.00000000 0.02620000
vn -0.99970000 -0.00000000 0.02610000
vn -0.99970000 -0.00010000 0.02620000
vn -0.99970000 0.00000000 0.02620000
vn -0.99970000 0.00000000 0.02620000
vn -0.99970000 0.00000000 0.02620000
vn -0.99970000 -0.00010000 0.02620000
vn -0.99970000 0.00000000 0.02620000
vn -0.99970000 0.00000000 0.02620000
vn -0.99970000 -0.00010000 0.02620000
vn -0.99970000 0.00000000 0.02630000
vn -0.99970000 -0.00000000 0.02610000
vn -0.99970000 0.00000000 0.02620000
vn -0.99970000 0.00000000 0.02620000
vn -0.99970000 0.00000000 0.02620000
vn -0.99970000 0.00000000 0.02620000
vn -0.99970000 -0.00000000 0.02610000
vn -0.99970000 0.00000000 0.02620000
vn -0.99970000 0.00000000 0.02620000
vn -0.99970000 0.00000000 0.02620000
vn -0.99970000 0.00000000 0.02620000
vn -0.99970000 0.00000000 0.02620000
vn -0.99970000 0.00010000 0.02620000
vn -0.99970000 0.00000000 0.02620000
vn -0.99970000 -0.00020000 0.02600000
vn -0.99970000 0.00010000 0.02620000
vn -0.99970000 0.00010000 0.02630000
vn -0.99970000 -0.00020000 0.02600000
vn -0.99970000 0.00000000 0.02620000
vn -0.99970000 -0.00000000 0.02610000
vn -0.99970000 -0.00000000 0.02610000
vn -0.99970000 0.00000000 0.02620000
vn -0.99970000 -0.00050000 0.02570000
vn -0.99970000 -0.00000000 0.02610000
vn -0.99970000 0.00010000 0.02630000
vn -0.99970000 -0.00050000 0.02570000
vn -0.99970000 -0.00000000 0.02610000
vn -0.99970000 0.00000000 0.02620000
vn -0.99970000 0.00000000 0.02620000
vn -0.99970000 -0.00000000 0.02610000
vn -0.99970000 -0.00000000 0.02610000
vn -0.99970000 -0.00050000 0.02570000
vn -0.99970000 0.00000000 0.02620000
vn -0.99970000 -0.00000000 0.02610000
vn -0.99970000 0.00010000 0.02620000
vn -0.99970000 0.00000000 0.02620000
vn -0.99970000 0.00010000 0.02630000
vn -0.99970000 -0.00020000 0.02600000
vn -0.99970000 0.00000000 0.02620000
vn -0.99970000 0.00000000 0.02620000
vn 0.00070000 0.99970000 0.02480000
vn 0.00070000 0.99970000 0.02480000
vn 0.00070000 0.99970000 0.02480000
vn 0.00070000 0.99970000 0.02480000
vn -0.00230000 0.99600000 -0.08900000
vn -0.00530000 0.97950000 -0.20160000
vn -0.01100000 0.90850000 -0.41770000
vn -0.01610000 0.79060000 -0.61210000
vn -0.02040000 0.63180000 -0.77490000
vn -0.02480000 0.33520000 -0.94180000
vn -0.02530000 0.22600000 -0.97380000
vn -0.02600000 0.11370000 -0.99320000
vn -0.00230000 0.99600000 -0.08900000
vn -0.00530000 0.97950000 -0.20160000
vn -0.01100000 0.90850000 -0.41770000
vn -0.01610000 0.79060000 -0.61210000
vn -0.02040000 0.63180000 -0.77490000
vn -0.02470000 0.33520000 -0.94180000
vn -0.02530000 0.22600000 -0.97380000
vn -0.02610000 0.11370000 -0.99320000
vn -0.02590000 -0.00000000 -0.99970000
vn -0.02590000 -0.00000000 -0.99970000
vn -0.02630000 0.00000000 -0.99970000
vn -0.02630000 0.00000000 -0.99970000
vn -0.02590000 -0.00000000 -0.99970000
vn -0.02630000 0.00000000 -0.99970000
vn -0.00230000 -0.99600000 -0.08900000
vn -0.00530000 -0.97950000 -0.20160000
vn -0.01080000 -0.90850000 -0.41770000
vn -0.01580000 -0.79060000 -0.61210000
vn -0.02010000 -0.63180000 -0.77490000
vn -0.02480000 -0.33530000 -0.94180000
vn -0.02560000 -0.22600000 -0.97380000
vn -0.02570000 -0.11370000 -0.99320000
vn -0.00230000 -0.99600000 -0.08900000
vn -0.00530000 -0.97950000 -0.20160000
vn -0.01080000 -0.90850000 -0.41770000
vn -0.01580000 -0.79060000 -0.61220000
vn -0.02010000 -0.63170000 -0.77490000
vn -0.02480000 -0.33530000 -0.94180000
vn -0.02560000 -0.22600000 -0.97380000
vn -0.02580000 -0.11370000 -0.99320000
vn 0.00070000 -0.99970000 0.02480000
vn 0.00070000 -0.99970000 0.02480000
vn 0.00070000 -0.99970000 0.02480000
vn 0.00070000 -0.99970000 0.02480000
vn 0.02600000 -0.12850000 0.99140000
vn 0.02530000 -0.25480000 0.96660000
vn 0.02420000 -0.37700000 0.92590000
vn 0.01870000 -0.69830000 0.71560000
vn 0.01350000 -0.85760000 0.51410000
vn 0.00730000 -0.96040000 0.27870000
vn 0.00400000 -0.98820000 0.15300000
vn 0.02600000 -0.12850000 0.99140000
vn 0.02530000 -0.25490000 0.96660000
vn 0.02420000 -0.37700000 0.92590000
vn 0.01870000 -0.69830000 0.71560000
vn 0.01350000 -0.85760000 0.51410000
vn 0.00730000 -0.96040000 0.27860000
vn 0.00400000 -0.98820000 0.15300000
vn 0.02620000 0.00000000 0.99970000
vn 0.02620000 0.00000000 0.99970000
vn 0.02620000 0.00000000 0.99970000
vn 0.02620000 0.00000000 0.99970000
vn 0.02590000 0.12460000 0.99190000
vn 0.02530000 0.24950000 0.96800000
vn 0.02430000 0.37040000 0.92850000
vn 0.01880000 0.69490000 0.71880000
vn 0.01350000 0.85600000 0.51680000
vn 0.00730000 0.95990000 0.28010000
vn 0.00400000 0.98810000 0.15390000
vn 0.02590000 0.12460000 0.99190000
vn 0.02530000 0.24950000 0.96800000
vn 0.02430000 0.37040000 0.92850000
vn 0.01880000 0.69490000 0.71880000
vn 0.01350000 0.85600000 0.51670000
vn 0.00730000 0.95990000 0.28010000
vn 0.00400000 0.98810000 0.15390000
vn -0.02210000 0.53950000 -0.84170000
vn -0.02210000 0.53950000 -0.84170000
vn -0.02210000 0.53950000 -0.84170000
vn -0.02180000 -0.53950000 -0.84170000
vn -0.02210000 -0.53950000 -0.84170000
vn -0.02210000 -0.53950000 -0.84170000
vn 0.02090000 -0.60050000 0.79930000
vn 0.02090000 -0.60050000 0.79930000
vn 0.02090000 -0.60050000 0.79930000
vn 0.02100000 0.59620000 0.80250000
vn 0.02110000 0.59620000 0.80250000
vn 0.02110000 0.59620000 0.80250000
f 1//1 2//2 3//3
f 2//2 4//4 3//3
f 5//5 6//6 7//7
f 6//6 8//8 7//7
f 65//65 71//71 38//38
f 35//35 9//9 31//31
f 9//9 11//11 31//31
f 48//48 45//45 67//67
f 36//36 35//35 41//41
f 35//35 40//40 41//41
f 38//38 71//71 40//40
f 68//68 44//44 72//72
f 11//11 12//12 31//31
f 13//13 16//16 32//32
f 31//31 17//17 20//20
f 64//64 58//58 55//55
f 31//31 30//30 38//38
f 30//30 43//43 38//38
f 40//40 71//71 41//41
f 71//71 72//72 41//41
f 41//41 72//72 42//42
f 72//72 44//44 42//42
f 42//42 44//44 37//37
f 44//44 28//28 37//37
f 37//37 28//28 36//36
f 28//28 27//27 36//36
f 36//36 27//27 35//35
f 27//27 23//23 35//35
f 34//34 24//24 21//21
f 21//21 19//19 34//34
f 18//18 14//14 33//33
f 34//34 15//15 10//10
f 20//20 22//22 31//31
f 22//22 26//26 31//31
f 32//32 25//25 29//29
f 63//63 56//56 66//66
f 57//57 49//49 69//69
f 70//70 50//50 47//47
f 43//43 46//46 38//38
f 46//46 51//51 38//38
f 39//39 52//52 53//53
f 54//54 60//60 38//38
f 59//59 62//62 39//39
f 38//38 61//61 65//65
f 73//73 74//74 75//75
f 74//74 76//76 75//75
f 93//93 94//94 97//97
f 95//95 98//98 96//96
f 115//115 116//116 117//117
f 116//116 118//118 117//117
f 133//133 134//134 135//135
f 134//134 136//136 135//135
f 84//84 92//92 91//91
f 84//84 91//91 83//83
f 91//91 90//90 83//83
f 83//83 90//90 82//82
f 151//151 89//89 152//152
f 153//153 89//89 81//81
f 89//89 88//88 81//81
f 81//81 88//88 80//80
f 88//88 87//87 80//80
f 80//80 87//87 79//79
f 87//87 86//86 79//79
f 79//79 86//86 78//78
f 86//86 85//85 78//78
f 78//78 85//85 77//77
f 99//99 107//107 108//108
f 99//99 108//108 100//100
f 108//108 109//109 100//100
f 100//100 109//109 101//101
f 109//109 110//110 101//101
f 101//101 110//110 102//102
f 110//110 111//111 102//102
f 102//102 111//111 103//103
f 111//111 154//154 103//103
f 103//103 155//155 156//156
f 112//112 113//113 104//104
f 104//104 113//113 105//105
f 113//113 114//114 105//105
f 105//105 114//114 106//106
f 119//119 126//126 127//127
f 119//119 127//127 120//120
f 127//127 128//128 120//120
f 120//120 128//128 121//121
f 157//157 129//129 158//158
f 159//159 129//129 122//122
f 129//129 130//130 122//122
f 122//122 130//130 123//123
f 130//130 131//131 123//123
f 123//123 131//131 124//124
f 131//131 132//132 124//124
f 124//124 132//132 125//125
f 143//143 150//150 149//149
f 143//143 149//149 142//142
f 149//149 148//148 142//142
f 142//142 148//148 141//141
f 148//148 147//147 141//141
f 141//141 147//147 140//140
f 147//147 160//160 140//140
f 140//140 161//161 162//162
f 146//146 145//145 139//139
f 139//139 145//145 138//138
f 145//145 144//144 138//138
f 138//138 144//144 137//137
