mtllib Mtl1.002.mtl
usemtl Mtl1.002
v 0.03773400 0.00400300 -0.00038200
v 0.03771300 -0.00420200 -0.00038200
v 0.03670100 0.00274800 -0.00038200
v 0.03639200 -0.00548800 -0.00038200
v 0.03599200 0.01202100 -0.00038200
v 0.03592800 -0.01221100 -0.00038200
v 0.03516900 0.01084600 -0.00038200
v 0.03425900 -0.01344800 -0.00038200
v 0.03256600 0.01947700 -0.00038200
v 0.03246300 -0.01964900 -0.00038200
v 0.03187400 0.01840000 -0.00038200
v 0.03040800 -0.02073400 -0.00038200
v 0.02761700 0.02602300 -0.00038200
v 0.02748000 -0.02616800 -0.00038200
v 0.02698100 0.02503100 -0.00038200
v 0.02503100 -0.02698100 -0.00038200
v 0.02137800 0.03135100 -0.00038200
v 0.02121200 -0.03146400 -0.00038200
v 0.02073400 0.03040800 -0.00038200
v 0.01840000 -0.03187400 -0.00038200
v 0.01413800 0.03521400 -0.00038200
v 0.01395200 -0.03528800 -0.00038200
v 0.01344800 0.03425900 -0.00038200
v 0.01084600 -0.03516900 -0.00038200
v 0.00623800 0.03743000 -0.00038200
v 0.00604000 -0.03746200 -0.00038200
v 0.00548800 0.03639200 -0.00038200
v 0.00274800 -0.03670100 -0.00038200
v -0.00195400 0.03789600 -0.00038200
v -0.00215400 -0.03788500 -0.00038200
v -0.00274800 0.03670100 -0.00038200
v -0.00548800 -0.03639200 -0.00038200
v -0.01005500 0.03659000 -0.00038200
v -0.01024800 -0.03653600 -0.00038200
v -0.01084600 0.03516900 -0.00038200
v -0.01344800 -0.03425900 -0.00038200
v -0.01768600 0.03357300 -0.00038200
v -0.01786300 -0.03347900 -0.00038200
v -0.01840000 0.03187400 -0.00038200
v -0.02073400 -0.03040800 -0.00038200
v -0.02448900 0.02898600 -0.00038200
v -0.02464200 -0.02885600 -0.00038200
v -0.02503100 0.02698100 -0.00038200
v -0.02698100 -0.02503100 -0.00038200
v -0.03014800 0.02304400 -0.00038200
v -0.03026900 -0.02288400 -0.00038200
v -0.03040800 0.02073400 -0.00038200
v -0.03187400 -0.01840000 -0.00038200
v -0.03425900 0.01344800 -0.00038200
v -0.03439700 0.01602400 -0.00038200
v -0.03448100 -0.01584200 -0.00038200
v -0.03516900 -0.01084600 -0.00038200
v -0.03639200 0.00548800 -0.00038200
v -0.03670100 -0.00274800 -0.00038200
v -0.03703700 0.00825500 -0.00038200
v -0.03708000 -0.00805900 -0.00038200
v -0.03794600 0.00010000 -0.00038200
v 0.03773400 0.00400300 0.00275000
v 0.03773400 0.00400300 -0.00038200
v 0.03771300 -0.00420200 0.00275000
v 0.03771300 -0.00420200 -0.00038200
v 0.03599200 0.01202100 0.00275000
v 0.03599200 0.01202100 -0.00038200
v 0.03592800 -0.01221100 0.00275000
v 0.03592800 -0.01221100 -0.00038200
v 0.03256600 0.01947700 0.00275000
v 0.03256600 0.01947700 -0.00038200
v 0.03246300 -0.01964900 0.00275000
v 0.03246300 -0.01964900 -0.00038200
v 0.02761700 0.02602300 0.00275000
v 0.02761700 0.02602300 -0.00038200
v 0.02748000 -0.02616800 0.00275000
v 0.02748000 -0.02616800 -0.00038200
v 0.02137800 0.03135100 0.00275000
v 0.02137800 0.03135100 -0.00038200
v 0.02121200 -0.03146400 0.00275000
v 0.02121200 -0.03146400 -0.00038200
v 0.01413800 0.03521400 0.00275000
v 0.01413800 0.03521400 -0.00038200
v 0.01395200 -0.03528800 0.00275000
v 0.01395200 -0.03528800 -0.00038200
v 0.00623800 0.03743000 0.00275000
v 0.00623800 0.03743000 -0.00038200
v 0.00604000 -0.03746200 0.00275000
v 0.00604000 -0.03746200 -0.00038200
v -0.00195400 0.03789600 0.00275000
v -0.00195400 0.03789600 -0.00038200
v -0.00215400 -0.03788500 0.00275000
v -0.00215400 -0.03788500 -0.00038200
v -0.01005500 0.03659000 0.00275000
v -0.01005500 0.03659000 -0.00038200
v -0.01024800 -0.03653600 0.00275000
v -0.01024800 -0.03653600 -0.00038200
v -0.01768600 0.03357300 0.00275000
v -0.01768600 0.03357300 -0.00038200
v -0.01786300 -0.03347900 0.00275000
v -0.01786300 -0.03347900 -0.00038200
v -0.02448900 0.02898600 0.00275000
v -0.02448900 0.02898600 -0.00038200
v -0.02464200 -0.02885600 0.00275000
v -0.02464200 -0.02885600 -0.00038200
v -0.03014800 0.02304400 0.00275000
v -0.03014800 0.02304400 -0.00038200
v -0.03026900 -0.02288400 0.00275000
v -0.03026900 -0.02288400 -0.00038200
v -0.03439700 0.01602400 0.00275000
v -0.03439700 0.01602400 -0.00038200
v -0.03448100 -0.01584200 0.00275000
v -0.03448100 -0.01584200 -0.00038200
v -0.03703700 0.00825500 0.00275000
v -0.03703700 0.00825500 -0.00038200
v -0.03708000 -0.00805900 0.00275000
v -0.03708000 -0.00805900 -0.00038200
v -0.03794600 0.00010000 0.00275000
v -0.03794600 0.00010000 -0.00038200
v 0.02761700 0.02602300 0.00275000
v 0.02761700 0.02602300 -0.00038200
v 0.02761700 0.02602300 0.00275000
v 0.02748000 -0.02616800 0.00275000
v 0.02748000 -0.02616800 -0.00038200
v 0.02748000 -0.02616800 -0.00038200
v -0.03026900 -0.02288400 0.00275000
v -0.03026900 -0.02288400 -0.00038200
v -0.03026900 -0.02288400 0.00275000
v -0.03014800 0.02304400 0.00275000
v -0.03014800 0.02304400 -0.00038200
v -0.03014800 0.02304400 -0.00038200
vn 0.00000000 0.00000000 1.00000000
vn 0.00000000 0.00000000 1.00000000
vn 0.00000000 0.00000000 1.00000000
vn 0.00000000 0.00000000 1.00000000
vn 0.00000000 0.00000000 1.00000000
vn 0.00000000 0.00000000 1.00000000
vn 0.00000000 0.00000000 1.00000000
vn 0.00000000 0.00000000 1.00000000
vn 0.00000000 0.00000000 1.00000000
vn 0.00000000 0.00000000 1.00000000
vn 0.00000000 0.00000000 1.00000000
vn 0.00000000 0.00000000 1.00000000
vn 0.00000000 0.00000000 1.00000000
vn 0.00000000 0.00000000 1.00000000
vn 0.00000000 0.00000000 1.00000000
vn 0.00000000 0.00000000 1.00000000
vn 0.00000000 0.00000000 1.00000000
vn 0.00000000 0.00000000 1.00000000
vn 0.00000000 0.00000000 1.00000000
vn 0.00000000 0.00000000 1.00000000
vn 0.00000000 0.00000000 1.00000000
vn 0.00000000 0.00000000 1.00000000
vn 0.00000000 0.00000000 1.00000000
vn 0.00000000 0.00000000 1.00000000
vn 0.00000000 0.00000000 1.00000000
vn 0.00000000 0.00000000 1.00000000
vn 0.00000000 0.00000000 1.00000000
vn 0.00000000 0.00000000 1.00000000
vn 0.00000000 0.00000000 1.00000000
vn 0.00000000 0.00000000 1.00000000
vn 0.00000000 0.00000000 1.00000000
vn 0.00000000 0.00000000 1.00000000
vn 0.00000000 0.00000000 1.00000000
vn 0.00000000 0.00000000 1.00000000
vn 0.00000000 0.00000000 1.00000000
vn 0.00000000 0.00000000 1.00000000
vn 0.00000000 0.00000000 1.00000000
vn 0.00000000 0.00000000 1.00000000
vn 0.00000000 0.00000000 1.00000000
vn 0.00000000 0.00000000 1.00000000
vn 0.00000000 0.00000000 1.00000000
vn 0.00000000 0.00000000 1.00000000
vn 0.00000000 0.00000000 1.00000000
vn 0.00000000 0.00000000 1.00000000
vn 0.00000000 0.00000000 1.00000000
vn 0.00000000 0.00000000 1.00000000
vn 0.00000000 0.00000000 1.00000000
vn 0.00000000 0.00000000 1.00000000
vn 0.00000000 0.00000000 1.00000000
vn 0.00000000 0.00000000 1.00000000
vn 0.00000000 0.00000000 1.00000000
vn 0.00000000 0.00000000 1.00000000
vn 0.00000000 0.00000000 1.00000000
vn 0.00000000 0.00000000 1.00000000
vn 0.00000000 0.00000000 1.00000000
vn 0.00000000 0.00000000 1.00000000
vn 0.00000000 0.00000000 1.00000000
vn -0.99440000 -0.10550000 0.00000000
vn -0.99440000 -0.10550000 0.00000000
vn -0.99380000 0.11070000 0.00000000
vn -0.99380000 0.11070000 0.00000000
vn -0.94850000 -0.31680000 0.00000000
vn -0.94850000 -0.31680000 0.00000000
vn -0.94680000 0.32180000 0.00000000
vn -0.94680000 0.32180000 0.00000000
vn -0.85820000 -0.51330000 0.00000000
vn -0.85820000 -0.51330000 0.00000000
vn -0.85550000 0.51780000 0.00000000
vn -0.85550000 0.51780000 0.00000000
vn -0.79770000 -0.60310000 0.00000000
vn -0.79770000 -0.60310000 0.00000000
vn -0.79450000 0.60730000 0.00000000
vn -0.79450000 0.60730000 0.00000000
vn -0.56340000 -0.82620000 0.00000000
vn -0.56340000 -0.82620000 0.00000000
vn -0.55900000 0.82920000 0.00000000
vn -0.55900000 0.82920000 0.00000000
vn -0.37260000 -0.92800000 0.00000000
vn -0.37260000 -0.92800000 0.00000000
vn -0.36770000 0.93000000 0.00000000
vn -0.36770000 0.93000000 0.00000000
vn -0.16440000 -0.98640000 0.00000000
vn -0.16440000 -0.98640000 0.00000000
vn -0.15920000 0.98720000 0.00000000
vn -0.15920000 0.98720000 0.00000000
vn 0.05150000 -0.99870000 0.00000000
vn 0.05150000 -0.99870000 0.00000000
vn 0.05680000 0.99840000 0.00000000
vn 0.05680000 0.99840000 0.00000000
vn 0.26500000 -0.96430000 0.00000000
vn 0.26500000 -0.96430000 0.00000000
vn 0.27010000 0.96280000 0.00000000
vn 0.27010000 0.96280000 0.00000000
vn 0.46610000 -0.88470000 0.00000000
vn 0.46610000 -0.88470000 0.00000000
vn 0.47070000 0.88230000 0.00000000
vn 0.47070000 0.88230000 0.00000000
vn 0.64540000 -0.76390000 0.00000000
vn 0.64540000 -0.76390000 0.00000000
vn 0.64940000 0.76050000 0.00000000
vn 0.64940000 0.76050000 0.00000000
vn 0.85550000 -0.51780000 0.00000000
vn 0.85550000 -0.51780000 0.00000000
vn 0.85820000 0.51330000 0.00000000
vn 0.85820000 0.51330000 0.00000000
vn 0.90650000 -0.42230000 0.00000000
vn 0.90650000 -0.42230000 0.00000000
vn 0.90870000 0.41750000 0.00000000
vn 0.90870000 0.41750000 0.00000000
vn 0.97600000 -0.21750000 0.00000000
vn 0.97600000 -0.21750000 0.00000000
vn 0.97720000 0.21240000 0.00000000
vn 0.97720000 0.21240000 0.00000000
vn 1.00000000 -0.00260000 0.00000000
vn 1.00000000 -0.00260000 0.00000000
vn -0.64940000 -0.76040000 0.00000000
vn -0.64940000 -0.76040000 0.00000000
vn -0.64940000 -0.76040000 0.00000000
vn -0.64540000 0.76390000 0.00000000
vn -0.64540000 0.76390000 0.00000000
vn -0.64540000 0.76390000 0.00000000
vn 0.72780000 0.68580000 0.00000000
vn 0.72780000 0.68580000 0.00000000
vn 0.72780000 0.68580000 0.00000000
vn 0.72420000 -0.68960000 0.00000000
vn 0.72420000 -0.68960000 0.00000000
vn 0.72420000 -0.68960000 0.00000000
f 50//50 55//55 53//53
f 55//55 57//57 53//53
f 53//53 57//57 54//54
f 57//57 56//56 54//54
f 54//54 56//56 52//52
f 56//56 51//51 52//52
f 52//52 51//51 48//48
f 51//51 46//46 48//48
f 48//48 46//46 44//44
f 46//46 42//42 44//44
f 44//44 42//42 40//40
f 42//42 38//38 40//40
f 40//40 38//38 36//36
f 38//38 34//34 36//36
f 36//36 34//34 32//32
f 34//34 30//30 32//32
f 32//32 30//30 28//28
f 30//30 26//26 28//28
f 28//28 26//26 24//24
f 26//26 22//22 24//24
f 24//24 22//22 20//20
f 22//22 18//18 20//20
f 20//20 18//18 16//16
f 18//18 14//14 16//16
f 16//16 14//14 12//12
f 14//14 10//10 12//12
f 12//12 10//10 8//8
f 10//10 6//6 8//8
f 8//8 6//6 4//4
f 6//6 2//2 4//4
f 4//4 2//2 3//3
f 2//2 1//1 3//3
f 3//3 1//1 7//7
f 1//1 5//5 7//7
f 7//7 5//5 11//11
f 5//5 9//9 11//11
f 11//11 9//9 15//15
f 9//9 13//13 15//15
f 15//15 13//13 19//19
f 13//13 17//17 19//19
f 19//19 17//17 23//23
f 17//17 21//21 23//23
f 23//23 21//21 27//27
f 21//21 25//25 27//27
f 27//27 25//25 31//31
f 25//25 29//29 31//31
f 31//31 29//29 35//35
f 29//29 33//33 35//35
f 35//35 33//33 39//39
f 33//33 37//37 39//39
f 39//39 37//37 43//43
f 37//37 41//41 43//43
f 43//43 41//41 47//47
f 41//41 45//45 47//47
f 47//47 45//45 49//49
f 45//45 50//50 49//49
f 49//49 50//50 53//53
f 74//74 75//75 116//116
f 75//75 117//117 118//118
f 70//70 71//71 66//66
f 71//71 67//67 66//66
f 66//66 67//67 62//62
f 67//67 63//63 62//62
f 62//62 63//63 58//58
f 63//63 59//59 58//58
f 58//58 59//59 60//60
f 59//59 61//61 60//60
f 60//60 61//61 64//64
f 61//61 65//65 64//64
f 64//64 65//65 68//68
f 65//65 69//69 68//68
f 68//68 69//69 72//72
f 69//69 73//73 72//72
f 119//119 120//120 76//76
f 121//121 77//77 76//76
f 76//76 77//77 80//80
f 77//77 81//81 80//80
f 80//80 81//81 84//84
f 81//81 85//85 84//84
f 84//84 85//85 88//88
f 85//85 89//89 88//88
f 88//88 89//89 92//92
f 89//89 93//93 92//92
f 92//92 93//93 96//96
f 93//93 97//97 96//96
f 96//96 97//97 100//100
f 97//97 101//101 100//100
f 100//100 101//101 122//122
f 101//101 123//123 124//124
f 104//104 105//105 108//108
f 105//105 109//109 108//108
f 108//108 109//109 112//112
f 109//109 113//113 112//112
f 112//112 113//113 114//114
f 113//113 115//115 114//114
f 114//114 115//115 110//110
f 115//115 111//111 110//110
f 110//110 111//111 106//106
f 111//111 107//107 106//106
f 106//106 107//107 102//102
f 107//107 103//103 102//102
f 125//125 126//126 98//98
f 127//127 99//99 98//98
f 98//98 99//99 94//94
f 99//99 95//95 94//94
f 94//94 95//95 90//90
f 95//95 91//91 90//90
f 90//90 91//91 86//86
f 91//91 87//87 86//86
f 86//86 87//87 82//82
f 87//87 83//83 82//82
f 82//82 83//83 78//78
f 83//83 79//79 78//78
f 78//78 79//79 74//74
f 79//79 75//75 74//74
