mtllib Mtlb.mtl
usemtl Mtlb
v 0.02863100 -0.11136000 0.03786000
v 0.02863100 -0.11148100 0.03787800
v 0.02863100 -0.11158900 0.03791600
v 0.02863100 -0.11168700 0.03798100
v 0.02863100 -0.11172600 0.03801800
v 0.02863100 -0.11179100 0.03810700
v 0.02863100 -0.11183600 0.03821500
v 0.02863100 -0.11186000 0.03836000
v 0.02853100 -0.11136000 0.03786000
v 0.02853100 -0.11148100 0.03787800
v 0.02853100 -0.11158900 0.03791600
v 0.02853100 -0.11168700 0.03798100
v 0.02853100 -0.11172600 0.03801800
v 0.02853100 -0.11179100 0.03810700
v 0.02853100 -0.11183600 0.03821500
v 0.02853100 -0.11186000 0.03836000
v 0.02863100 0.00125000 0.16700000
v 0.02863100 0.00237500 0.16700000
v 0.02833100 0.00125000 0.16700000
v 0.02833100 0.00237500 0.16700000
v 0.02863100 -0.11179100 0.03810700
v 0.02853100 -0.11179100 0.03810700
v 0.02853100 -0.11179100 0.03810700
vn 0.00000000 0.14380000 0.98960000
vn 0.00000000 0.24220000 0.97020000
vn 0.00000000 0.44620000 0.89500000
vn 0.00000000 0.62370000 0.78160000
vn 0.00000000 0.75330000 0.65770000
vn 0.00000000 0.92270000 0.38550000
vn 0.00000000 0.96110000 0.27610000
vn 0.00000000 0.98660000 0.16300000
vn 0.00000000 0.14380000 0.98960000
vn 0.00000000 0.24220000 0.97020000
vn 0.00000000 0.44620000 0.89500000
vn 0.00000000 0.62370000 0.78160000
vn 0.00000000 0.75330000 0.65770000
vn 0.00000000 0.92270000 0.38540000
vn 0.00000000 0.96110000 0.27610000
vn 0.00000000 0.98660000 0.16300000
vn 0.00000000 0.00000000 1.00000000
vn 0.00000000 0.00000000 1.00000000
vn 0.00000000 0.00000000 1.00000000
vn 0.00000000 0.00000000 1.00000000
vn 0.00000000 0.80700000 0.59060000
vn 0.00000000 0.80700000 0.59060000
vn 0.00000000 0.80700000 0.59060000
f 17//17 18//18 19//19
f 18//18 20//20 19//19
f 16//16 8//8 7//7
f 16//16 7//7 15//15
f 7//7 6//6 15//15
f 15//15 6//6 14//14
f 21//21 5//5 22//22
f 23//23 5//5 13//13
f 5//5 4//4 13//13
f 13//13 4//4 12//12
f 4//4 3//3 12//12
f 12//12 3//3 11//11
f 3//3 2//2 11//11
f 11//11 2//2 10//10
f 2//2 1//1 10//10
f 10//10 1//1 9//9
