mtllib Mtl1.001.mtl
usemtl Mtl1.001
v -0.04202600 0.01503800 0.21400400
v -0.04178500 0.01560300 0.21615300
v -0.04178500 0.01560300 0.21615300
v -0.04159400 0.01533700 0.21785800
v -0.04159400 0.01533700 0.21785800
v -0.04137400 0.01585700 0.21981700
v -0.04116200 0.01564900 0.22171100
vn 0.99380000 -0.00010000 -0.11140000
vn 0.99380000 -0.00010000 -0.11140000
vn 0.99380000 -0.00020000 -0.11140000
vn 0.99380000 -0.00010000 -0.11140000
vn 0.99380000 -0.00020000 -0.11140000
vn 0.99380000 -0.00020000 -0.11140000
vn 0.99380000 -0.00020000 -0.11140000
f 1//1 2//2 4//4
f 3//3 6//6 5//5
f 5//5 6//6 7//7
