mtllib Mtl2.001.mtl
usemtl Mtl2.001
v 0.06526100 -0.07394400 0.17041200
v 0.06443400 -0.07435400 0.17032400
v 0.06283300 -0.07509400 0.17026600
v 0.06146000 -0.07573500 0.17018100
v 0.06125300 -0.07582000 0.17019200
v 0.06125300 -0.07582300 0.17020800
v 0.06079800 -0.07603200 0.17019100
v 0.05972900 -0.07646700 0.17027400
v 0.05945400 -0.07657800 0.17029600
v 0.05819600 -0.07707700 0.17035500
v 0.05762400 -0.07732100 0.17043800
v 0.05709000 -0.07752000 0.17051600
v 0.05663400 -0.07767400 0.17061500
v 0.05661900 -0.07763100 0.17062200
v 0.05616800 -0.07783100 0.17071600
v 0.05515100 -0.07814800 0.17087100
v 0.05490100 -0.07825800 0.17099100
v 0.05414900 -0.07851100 0.17115400
v 0.05413200 -0.07851600 0.17115800
v 0.05336800 -0.07874200 0.17138500
v 0.05275800 -0.07890200 0.17160300
v 0.05245500 -0.07898300 0.17171100
v 0.05242800 -0.07893300 0.17167300
v 0.05227200 -0.07897800 0.17171900
v 0.05200300 -0.07910200 0.17187300
v 0.05153800 -0.07922400 0.17203800
v 0.04974500 -0.07960700 0.17284300
v 0.04933000 -0.07961200 0.17300800
v 0.04922800 -0.07968800 0.17312600
v 0.04910700 -0.07970700 0.17319300
v 0.04907900 -0.07964500 0.17315900
v 0.04800500 -0.07987900 0.17379700
v 0.04787300 -0.07989200 0.17388400
v 0.04687700 -0.07998800 0.17453800
v 0.04665000 -0.07996200 0.17462900
v 0.04633700 -0.08004000 0.17489200
v 0.04579300 -0.08005800 0.17531400
v 0.04578700 -0.07999400 0.17530900
v 0.04541100 -0.08007100 0.17560900
v 0.04475400 -0.08009200 0.17611700
v 0.04422400 -0.08005100 0.17654100
v 0.04326800 -0.08004100 0.17745700
v 0.04312200 -0.08002600 0.17760800
v 0.04287800 -0.07995800 0.17787400
v 0.04287000 -0.08000000 0.17786900
v 0.04199000 -0.07989600 0.17875400
v 0.04188000 -0.07989800 0.17889200
v 0.04141200 -0.07981700 0.17944000
v 0.04136600 -0.07980900 0.17949300
v 0.04058800 -0.07967400 0.18040400
v 0.03984200 -0.07949500 0.18136000
v 0.03955800 -0.07940000 0.18178400
v 0.03955600 -0.07940600 0.18178500
v 0.03931900 -0.07934500 0.18210300
v 0.03907800 -0.07928200 0.18242700
v 0.03771800 -0.07878500 0.18452700
v 0.03771700 -0.07878500 0.18452900
v 0.04787300 -0.07989200 0.17388400
v 0.04907900 -0.07964500 0.17315900
v 0.04787300 -0.07989200 0.17388400
vn -0.35940000 0.82100000 -0.44360000
vn -0.35920000 0.82060000 -0.44440000
vn 0.40590000 -0.89430000 0.18860000
vn 0.40530000 -0.89550000 0.18370000
vn 0.38940000 -0.90270000 -0.18310000
vn 0.39720000 -0.90570000 -0.14800000
vn -0.34440000 0.73780000 -0.58060000
vn -0.03800000 -0.03740000 -0.99860000
vn 0.34550000 -0.90090000 -0.26280000
vn 0.33590000 -0.89000000 -0.30830000
vn -0.25350000 0.28020000 -0.92590000
vn -0.29780000 0.46760000 -0.83230000
vn -0.23570000 0.07610000 -0.96880000
vn -0.23420000 0.07680000 -0.96910000
vn -0.23750000 0.08120000 -0.96800000
vn 0.31260000 -0.94460000 -0.09970000
vn -0.23670000 0.07980000 -0.96830000
vn -0.29740000 0.26800000 -0.91640000
vn -0.12420000 -0.49380000 -0.86070000
vn -0.37180000 0.81940000 -0.43630000
vn -0.16210000 -0.38250000 -0.90960000
vn -0.07760000 -0.64440000 -0.76080000
vn -0.08110000 -0.61510000 -0.78430000
vn -0.06260000 -0.70340000 -0.70800000
vn -0.04530000 -0.73750000 -0.67380000
vn -0.39970000 0.00250000 -0.91670000
vn -0.35380000 -0.25990000 -0.89850000
vn -0.27770000 -0.66500000 -0.69340000
vn -0.32460000 -0.63290000 -0.70290000
vn -0.32930000 -0.56190000 -0.75890000
vn -0.33210000 -0.57110000 -0.75070000
vn -0.53280000 0.37430000 -0.75900000
vn -0.53190000 0.38930000 -0.75200000
vn -0.32420000 -0.73070000 -0.60080000
vn -0.34840000 -0.69760000 -0.62610000
vn -0.59530000 -0.21670000 -0.77370000
vn -0.60540000 -0.11490000 -0.78760000
vn -0.60580000 -0.11410000 -0.78740000
vn -0.60610000 -0.10750000 -0.78810000
vn -0.62050000 0.05570000 -0.78220000
vn -0.38620000 -0.83170000 -0.39890000
vn -0.64600000 0.35270000 -0.67690000
vn -0.69330000 0.20800000 -0.69000000
vn -0.68530000 0.21570000 -0.69550000
vn -0.68780000 0.20570000 -0.69620000
vn -0.52500000 -0.73360000 -0.43160000
vn -0.74940000 -0.27410000 -0.60280000
vn -0.72680000 -0.38420000 -0.56930000
vn -0.75090000 -0.27350000 -0.60110000
vn -0.51480000 0.67540000 -0.52800000
vn 0.18190000 -0.93110000 0.31620000
vn -0.79210000 0.15400000 -0.59060000
vn -0.79590000 0.12460000 -0.59240000
vn -0.77490000 0.16840000 -0.60920000
vn -0.41610000 0.78680000 -0.45580000
vn -0.56480000 -0.80610000 -0.17630000
vn -0.56100000 -0.80950000 -0.17300000
vn -0.32420000 -0.73090000 -0.60060000
vn -0.52170000 0.04760000 -0.85180000
vn -0.52170000 0.04760000 -0.85180000
f 52//52 55//55 56//56
f 55//55 57//57 56//56
f 48//48 49//49 46//46
f 49//49 50//50 46//46
f 46//46 50//50 51//51
f 50//50 53//53 51//51
f 51//51 53//53 52//52
f 53//53 54//54 52//52
f 52//52 54//54 55//55
f 44//44 45//45 46//46
f 45//45 47//47 46//46
f 46//46 47//47 48//48
f 37//37 39//39 38//38
f 39//39 40//40 38//38
f 38//38 40//40 41//41
f 40//40 42//42 41//41
f 41//41 42//42 44//44
f 42//42 43//43 44//44
f 44//44 43//43 45//45
f 37//37 38//38 36//36
f 38//38 35//35 36//36
f 36//36 35//35 34//34
f 34//34 35//35 58//58
f 35//35 59//59 60//60
f 33//33 31//31 32//32
f 26//26 28//28 24//24
f 26//26 27//27 28//28
f 27//27 29//29 28//28
f 28//28 29//29 31//31
f 29//29 30//30 31//31
f 31//31 30//30 32//32
f 14//14 13//13 15//15
f 17//17 18//18 19//19
f 18//18 20//20 19//19
f 19//19 20//20 21//21
f 15//15 17//17 14//14
f 17//17 19//19 14//14
f 14//14 19//19 16//16
f 19//19 21//21 16//16
f 16//16 21//21 23//23
f 21//21 22//22 23//23
f 23//23 22//22 24//24
f 22//22 25//25 24//24
f 24//24 25//25 26//26
f 10//10 5//5 8//8
f 8//8 9//9 10//10
f 9//9 11//11 10//10
f 10//10 11//11 14//14
f 11//11 12//12 14//14
f 14//14 12//12 13//13
f 4//4 6//6 5//5
f 6//6 7//7 5//5
f 5//5 7//7 8//8
f 1//1 2//2 4//4
f 2//2 3//3 4//4
f 4//4 3//3 6//6
