mtllib Mtl4.mtl
usemtl Mtl4
v -0.06369100 -0.01942100 0.05720400
v -0.06369300 -0.01945800 0.05707200
v -0.06369700 -0.01936800 0.05731900
v -0.06370000 -0.01946900 0.05696900
v -0.06370500 -0.01928400 0.05750100
v -0.06371400 -0.01949400 0.05674700
v -0.06371800 -0.01920600 0.05761600
v -0.06372100 -0.01919100 0.05763200
v -0.06374300 -0.01947700 0.05652000
v -0.06375600 -0.01902100 0.05781200
v -0.06376600 -0.01897500 0.05786000
v -0.06376700 -0.01944500 0.05637600
v -0.06377200 -0.01943900 0.05634900
v -0.06378800 -0.01887700 0.05793500
v -0.06382500 -0.01873400 0.05801200
v -0.06382500 -0.01873400 0.05801200
v -0.06384100 -0.01931600 0.05605200
v -0.06384400 -0.01931000 0.05603800
v -0.06386600 -0.01857500 0.05809800
v -0.06386600 -0.01857500 0.05809800
v -0.06386800 -0.01857400 0.05807900
v -0.06386800 -0.01857400 0.05807900
v -0.06386800 -0.01857400 0.05807900
v -0.06386800 -0.01857400 0.05807900
v -0.06388500 -0.01922200 0.05590000
v -0.06389800 -0.01845500 0.05813900
v -0.06389800 -0.01845500 0.05813900
v -0.06391000 -0.01841400 0.05814600
v -0.06391000 -0.01841400 0.05814600
v -0.06393500 -0.01910400 0.05577200
v -0.06398600 -0.01898400 0.05564000
v -0.06399800 -0.01810600 0.05819700
v -0.06399800 -0.01810600 0.05819700
v -0.06400600 -0.01893100 0.05560000
v -0.06401700 -0.01804400 0.05819800
v -0.06403200 -0.01886300 0.05554800
v -0.06408500 -0.01782300 0.05817100
v -0.06408500 -0.01782300 0.05817100
v -0.06412000 -0.01861700 0.05542100
v -0.06412700 -0.01768700 0.05815400
v -0.06414600 -0.01854500 0.05538400
v -0.06417400 -0.01754300 0.05810900
v -0.06419500 -0.01840000 0.05533900
v -0.06419900 -0.01747300 0.05807300
v -0.06423600 -0.01826700 0.05532200
v -0.06423600 -0.01826700 0.05532200
v -0.06428300 -0.01722600 0.05794600
v -0.06430600 -0.01804400 0.05529500
v -0.06430800 -0.01715900 0.05789500
v -0.06432200 -0.01799100 0.05529600
v -0.06432200 -0.01799100 0.05529600
v -0.06432800 -0.01710300 0.05785200
v -0.06437500 -0.01698300 0.05772100
v -0.06441000 -0.01767500 0.05534600
v -0.06441000 -0.01767500 0.05534600
v -0.06441900 -0.01764500 0.05535000
v -0.06441900 -0.01764500 0.05535000
v -0.06442200 -0.01686500 0.05759400
v -0.06445000 -0.01752300 0.05539100
v -0.06445000 -0.01752300 0.05539100
v -0.06445000 -0.01751500 0.05541300
v -0.06445000 -0.01751500 0.05541300
v -0.06445000 -0.01751500 0.05541300
v -0.06445000 -0.01751500 0.05541300
v -0.06446000 -0.01677800 0.05745600
v -0.06446400 -0.01677200 0.05744200
v -0.06449000 -0.01735500 0.05548000
v -0.06449000 -0.01735500 0.05548000
v -0.06452200 -0.01722000 0.05555100
v -0.06452800 -0.01664800 0.05714400
v -0.06453200 -0.01664200 0.05711700
v -0.06453200 -0.01664200 0.05711700
v -0.06453200 -0.01664200 0.05711700
v -0.06453200 -0.01664200 0.05711700
v -0.06453200 -0.01664200 0.05711700
v -0.06453200 -0.01664200 0.05711700
v -0.06454400 -0.01711900 0.05562800
v -0.06455300 -0.01706900 0.05568100
v -0.06455500 -0.01661100 0.05697800
v -0.06455500 -0.01661100 0.05697800
v -0.06455500 -0.01661100 0.05697800
v -0.06458300 -0.01659300 0.05674700
v -0.06458500 -0.01689300 0.05586500
v -0.06458500 -0.01689300 0.05586500
v -0.06458600 -0.01688600 0.05587200
v -0.06458600 -0.01688600 0.05587200
v -0.06459700 -0.01661700 0.05653100
v -0.06459700 -0.01661700 0.05653100
v -0.06459700 -0.01661700 0.05653100
v -0.06459700 -0.01680700 0.05598700
v -0.06459700 -0.01680700 0.05598700
v -0.06460000 -0.01666700 0.05635600
v -0.06460000 -0.01666700 0.05635600
v -0.06460000 -0.01666700 0.05635600
v -0.06460000 -0.01666700 0.05635600
v -0.06460000 -0.01666700 0.05635600
v -0.06460000 -0.01666700 0.05635600
v -0.06460400 -0.01671700 0.05618000
v -0.06460400 -0.01671700 0.05618000
v -0.06460400 -0.01671700 0.05618000
v -0.06460500 -0.01663000 0.05641900
v -0.06460500 -0.01663000 0.05641900
v -0.06460700 -0.01666800 0.05628500
v -0.06460700 -0.01666800 0.05628500
v -0.06399600 -0.01961400 0.05355800
v -0.06399700 -0.01962600 0.05350600
v -0.06400000 -0.01965300 0.05338800
v -0.06400400 -0.01952200 0.05376600
v -0.06400600 -0.01950500 0.05380500
v -0.06401300 -0.01966600 0.05321700
v -0.06401600 -0.01943900 0.05390800
v -0.06403500 -0.01934800 0.05400900
v -0.06405900 -0.01922800 0.05414100
v -0.06408600 -0.01911300 0.05423400
v -0.06409400 -0.01908100 0.05425300
v -0.06417000 -0.01878000 0.05442300
v -0.06418100 -0.01873900 0.05443700
v -0.06424600 -0.01849900 0.05451700
v -0.06430100 -0.01831200 0.05453900
v -0.06433800 -0.01966600 0.04991300
v -0.06434800 -0.01966100 0.04982900
v -0.06435000 -0.01966000 0.04980800
v -0.06435900 -0.01965300 0.04974600
v -0.06437800 -0.01804400 0.05457100
v -0.06442100 -0.01790000 0.05456500
v -0.06452200 -0.01757800 0.05450100
v -0.06456400 -0.01744100 0.05447400
v -0.06459000 -0.01736100 0.05444500
v -0.06459000 -0.01736100 0.05444500
v -0.06465700 -0.01716400 0.05433900
v -0.06465700 -0.01716400 0.05433900
v -0.06471500 -0.01699200 0.05424700
v -0.06471500 -0.01699200 0.05424700
v -0.06472200 -0.01703600 0.05405800
v -0.06472200 -0.01703600 0.05405800
v -0.06472200 -0.01703600 0.05405800
v -0.06472200 -0.01703600 0.05405800
v -0.06472200 -0.01703600 0.05405800
v -0.06472200 -0.01703600 0.05405800
v -0.06472200 -0.01703600 0.05405800
v -0.06473300 -0.01694200 0.05421000
v -0.06473300 -0.01694200 0.05421000
v -0.06477000 -0.01684400 0.05411300
v -0.06477000 -0.01684400 0.05411300
v -0.06482900 -0.01668800 0.05395900
v -0.06482900 -0.01668800 0.05395900
v -0.06485300 -0.01663000 0.05388100
v -0.06485300 -0.01663000 0.05388100
v -0.06485500 -0.01662600 0.05387300
v -0.06491700 -0.01649400 0.05361500
v -0.06491700 -0.01649300 0.05361400
v -0.06494100 -0.01645400 0.05348300
v -0.06495800 -0.01643800 0.05335100
v -0.06497500 -0.01642200 0.05321700
v -0.06529100 -0.01642200 0.04991300
v -0.06529800 -0.01642500 0.04983000
v -0.06529800 -0.01642500 0.04982900
v -0.06530300 -0.01643500 0.04974600
vn -0.95340000 -0.28760000 0.09130000
vn -0.95300000 -0.28830000 0.09330000
vn -0.95370000 -0.28720000 0.08940000
vn -0.95280000 -0.28860000 0.09430000
vn -0.95380000 -0.28710000 0.08870000
vn -0.95240000 -0.28940000 0.09620000
vn -0.95410000 -0.28670000 0.08630000
vn -0.95420000 -0.28670000 0.08580000
vn -0.95200000 -0.29010000 0.09780000
vn -0.95430000 -0.28670000 0.08390000
vn -0.95400000 -0.28760000 0.08490000
vn -0.95290000 -0.28750000 0.09690000
vn -0.95290000 -0.28650000 0.09960000
vn -0.95420000 -0.28740000 0.08340000
vn -0.95440000 -0.28710000 0.08130000
vn -0.95100000 -0.29420000 0.09530000
vn -0.95250000 -0.28710000 0.10150000
vn -0.95230000 -0.28740000 0.10220000
vn -0.95100000 -0.29420000 0.09530000
vn -0.95180000 -0.29170000 0.09540000
vn -0.95340000 -0.28950000 0.08450000
vn -0.95100000 -0.29420000 0.09530000
vn -0.95180000 -0.29170000 0.09540000
vn -0.95490000 -0.28540000 0.08180000
vn -0.95210000 -0.28760000 0.10350000
vn -0.95490000 -0.28540000 0.08180000
vn -0.95180000 -0.29170000 0.09540000
vn -0.95490000 -0.28540000 0.08180000
vn -0.95420000 -0.28680000 0.08480000
vn -0.95210000 -0.28780000 0.10390000
vn -0.95200000 -0.28790000 0.10400000
vn -0.95490000 -0.28680000 0.07740000
vn -0.95460000 -0.28580000 0.08350000
vn -0.95200000 -0.28790000 0.10420000
vn -0.95460000 -0.28580000 0.08350000
vn -0.95200000 -0.28780000 0.10410000
vn -0.95470000 -0.28660000 0.08040000
vn -0.95460000 -0.28580000 0.08350000
vn -0.95250000 -0.28610000 0.10400000
vn -0.95480000 -0.28640000 0.07980000
vn -0.95230000 -0.28450000 0.11050000
vn -0.95490000 -0.28630000 0.07900000
vn -0.95220000 -0.28460000 0.11070000
vn -0.95480000 -0.28640000 0.07990000
vn -0.95280000 -0.28500000 0.10450000
vn -0.95250000 -0.28430000 0.10950000
vn -0.95460000 -0.28640000 0.08140000
vn -0.95280000 -0.28500000 0.10450000
vn -0.95480000 -0.28450000 0.08590000
vn -0.95280000 -0.28500000 0.10450000
vn -0.95220000 -0.28400000 0.11250000
vn -0.95530000 -0.28300000 0.08600000
vn -0.95520000 -0.28310000 0.08630000
vn -0.95110000 -0.28740000 0.11360000
vn -0.95290000 -0.28410000 0.10620000
vn -0.95490000 -0.28040000 0.09780000
vn -0.95110000 -0.28740000 0.11360000
vn -0.95510000 -0.28330000 0.08660000
vn -0.95490000 -0.28040000 0.09780000
vn -0.95550000 -0.27850000 0.09720000
vn -0.95370000 -0.28190000 0.10530000
vn -0.95490000 -0.28040000 0.09780000
vn -0.95110000 -0.28740000 0.11360000
vn -0.95550000 -0.27850000 0.09720000
vn -0.95500000 -0.28350000 0.08710000
vn -0.95480000 -0.28390000 0.08810000
vn -0.95550000 -0.27850000 0.09720000
vn -0.95260000 -0.28390000 0.10970000
vn -0.95300000 -0.28360000 0.10680000
vn -0.95430000 -0.28450000 0.09090000
vn -0.95450000 -0.28250000 0.09530000
vn -0.95680000 -0.27480000 0.09480000
vn -0.95760000 -0.27220000 0.09460000
vn -0.95760000 -0.27210000 0.09470000
vn -0.95890000 -0.26760000 0.09450000
vn -0.95800000 -0.27070000 0.09450000
vn -0.95350000 -0.28290000 0.10390000
vn -0.95300000 -0.28380000 0.10570000
vn -0.95860000 -0.26850000 0.09460000
vn -0.95770000 -0.27200000 0.09460000
vn -0.95890000 -0.26760000 0.09450000
vn -0.95770000 -0.27200000 0.09460000
vn -0.95680000 -0.27480000 0.09480000
vn -0.95470000 -0.28100000 0.09790000
vn -0.95680000 -0.27480000 0.09480000
vn -0.95760000 -0.27210000 0.09470000
vn -0.95810000 -0.27030000 0.09510000
vn -0.95860000 -0.26850000 0.09460000
vn -0.95770000 -0.27200000 0.09460000
vn -0.95760000 -0.27210000 0.09470000
vn -0.95800000 -0.27070000 0.09450000
vn -0.95910000 -0.26730000 0.09350000
vn -0.95880000 -0.26840000 0.09350000
vn -0.95860000 -0.26850000 0.09460000
vn -0.95810000 -0.27030000 0.09510000
vn -0.95890000 -0.26760000 0.09450000
vn -0.95760000 -0.27220000 0.09460000
vn -0.95760000 -0.27220000 0.09460000
vn -0.95800000 -0.27070000 0.09450000
vn -0.95880000 -0.26840000 0.09350000
vn -0.95910000 -0.26730000 0.09350000
vn -0.95810000 -0.27030000 0.09510000
vn -0.95880000 -0.26840000 0.09350000
vn -0.95910000 -0.26730000 0.09350000
vn -0.95490000 -0.28350000 0.08830000
vn -0.95470000 -0.28350000 0.09030000
vn -0.95450000 -0.28360000 0.09220000
vn -0.95500000 -0.28360000 0.08650000
vn -0.95520000 -0.28370000 0.08470000
vn -0.95440000 -0.28360000 0.09350000
vn -0.95530000 -0.28390000 0.08280000
vn -0.95540000 -0.28410000 0.08090000
vn -0.95540000 -0.28420000 0.08050000
vn -0.95540000 -0.28470000 0.07800000
vn -0.95550000 -0.28510000 0.07590000
vn -0.95540000 -0.28520000 0.07630000
vn -0.95540000 -0.28580000 0.07430000
vn -0.95540000 -0.28530000 0.07590000
vn -0.95540000 -0.28540000 0.07630000
vn -0.95440000 -0.28320000 0.09400000
vn -0.95510000 -0.28120000 0.09370000
vn -0.95520000 -0.28040000 0.09450000
vn -0.95530000 -0.28030000 0.09410000
vn -0.95520000 -0.28490000 0.08030000
vn -0.95540000 -0.28320000 0.08350000
vn -0.95560000 -0.28150000 0.08670000
vn -0.95580000 -0.28080000 0.08750000
vn -0.95720000 -0.27380000 0.09430000
vn -0.95630000 -0.27780000 0.09070000
vn -0.95720000 -0.27380000 0.09430000
vn -0.95720000 -0.27350000 0.09440000
vn -0.95720000 -0.27350000 0.09440000
vn -0.95760000 -0.27220000 0.09410000
vn -0.95720000 -0.27380000 0.09430000
vn -0.95830000 -0.27100000 0.09060000
vn -0.95820000 -0.27040000 0.09300000
vn -0.95830000 -0.27030000 0.09270000
vn -0.95640000 -0.28100000 0.08000000
vn -0.95720000 -0.27350000 0.09440000
vn -0.95760000 -0.27220000 0.09410000
vn -0.95760000 -0.27220000 0.09410000
vn -0.95820000 -0.27040000 0.09300000
vn -0.95830000 -0.27030000 0.09270000
vn -0.95820000 -0.27040000 0.09300000
vn -0.95830000 -0.27100000 0.09060000
vn -0.95830000 -0.27030000 0.09270000
vn -0.95850000 -0.26870000 0.09580000
vn -0.95830000 -0.27100000 0.09060000
vn -0.95830000 -0.27040000 0.09200000
vn -0.95760000 -0.27580000 0.08280000
vn -0.95930000 -0.27040000 0.08110000
vn -0.95630000 -0.27850000 0.08920000
vn -0.95570000 -0.27990000 0.09060000
vn -0.95560000 -0.28040000 0.09110000
vn -0.95550000 -0.28050000 0.09090000
vn -0.96110000 -0.27250000 0.04560000
vn -0.96120000 -0.27220000 0.04480000
vn -0.95540000 -0.28040000 0.09240000
f 85//85 83//83 72//72
f 96//96 75//75 81//81
f 102//102 95//95 87//87
f 94//94 79//79 88//88
f 89//89 80//80 82//82
f 101//101 104//104 92//92
f 103//103 100//100 93//93
f 97//97 98//98 73//73
f 99//99 91//91 76//76
f 74//74 90//90 86//86
f 60//60 64//64 67//67
f 59//59 56//56 62//62
f 57//57 54//54 63//63
f 45//45 50//50 48//48
f 19//19 22//22 16//16
f 20//20 27//27 23//23
f 26//26 28//28 24//24
f 38//38 33//33 35//35
f 134//134 128//128 130//130
f 131//131 132//132 139//139
f 133//133 141//141 140//140
f 136//136 142//142 144//144
f 143//143 146//146 137//137
f 145//145 148//148 135//135
f 41//41 39//39 78//78
f 61//61 46//46 68//68
f 68//68 46//46 69//69
f 46//46 77//77 69//69
f 61//61 55//55 46//46
f 55//55 51//51 46//46
f 77//77 46//46 78//78
f 46//46 43//43 78//78
f 78//78 43//43 41//41
f 36//36 71//71 39//39
f 71//71 84//84 39//39
f 39//39 84//84 78//78
f 36//36 34//34 71//71
f 34//34 31//31 71//71
f 71//71 31//31 30//30
f 30//30 25//25 71//71
f 25//25 18//18 71//71
f 71//71 18//18 17//17
f 49//49 9//9 6//6
f 6//6 4//4 49//49
f 4//4 2//2 49//49
f 49//49 2//2 1//1
f 1//1 3//3 49//49
f 3//3 5//5 49//49
f 49//49 5//5 7//7
f 42//42 44//44 10//10
f 21//21 37//37 15//15
f 15//15 37//37 14//14
f 37//37 11//11 14//14
f 21//21 29//29 37//37
f 29//29 32//32 37//37
f 11//11 37//37 10//10
f 37//37 40//40 10//10
f 10//10 40//40 42//42
f 7//7 8//8 49//49
f 8//8 10//10 49//49
f 49//49 10//10 47//47
f 10//10 44//44 47//47
f 9//9 49//49 12//12
f 49//49 52//52 12//12
f 12//12 52//52 53//53
f 53//53 58//58 12//12
f 58//58 65//65 12//12
f 12//12 65//65 66//66
f 17//17 13//13 71//71
f 13//13 12//12 71//71
f 71//71 12//12 70//70
f 12//12 66//66 70//70
f 149//149 150//150 138//138
f 110//110 107//107 150//150
f 107//107 106//106 150//150
f 150//150 106//106 105//105
f 105//105 108//108 150//150
f 108//108 109//109 150//150
f 150//150 109//109 111//111
f 111//111 112//112 150//150
f 112//112 113//113 150//150
f 150//150 113//113 114//114
f 114//114 115//115 150//150
f 115//115 116//116 150//150
f 150//150 116//116 117//117
f 125//125 126//126 138//138
f 117//117 118//118 150//150
f 118//118 119//119 150//150
f 150//150 119//119 138//138
f 119//119 124//124 138//138
f 138//138 124//124 125//125
f 126//126 127//127 138//138
f 127//127 129//129 138//138
f 138//138 147//147 149//149
f 156//156 157//157 121//121
f 121//121 157//157 122//122
f 157//157 158//158 122//122
f 122//122 158//158 123//123
f 110//110 150//150 120//120
f 150//150 151//151 120//120
f 120//120 151//151 152//152
f 152//152 153//153 120//120
f 153//153 154//154 120//120
f 120//120 154//154 121//121
f 154//154 155//155 121//121
f 121//121 155//155 156//156
