mtllib Mtl5.mtl
usemtl Mtl5
v -0.06279100 0.02701400 0.04806600
v -0.06277900 0.02704100 0.04806600
v -0.06333900 0.02701400 0.04806600
v -0.06332800 0.02704100 0.04806600
v -0.06755300 0.01292000 0.04824100
v -0.06704500 0.01292000 0.04824100
v -0.06755100 0.01293600 0.04824100
v -0.06704200 0.01293600 0.04824100
v -0.06766200 0.01300400 0.03351200
v -0.06766600 0.01297800 0.03351200
v -0.06816900 0.01300400 0.03351200
v -0.06817300 0.01297800 0.03351200
v -0.06755300 0.01297800 0.03793100
v -0.06754900 0.01300400 0.03793100
v -0.06806100 0.01297800 0.03793100
v -0.06805600 0.01300400 0.03793100
v -0.06466600 0.02385300 0.03814700
v -0.06465600 0.02387900 0.03814700
v -0.06519800 0.02385300 0.03814700
v -0.06518800 0.02387900 0.03814700
vn 0.00000000 0.00000000 1.00000000
vn 0.00000000 0.00000000 1.00000000
vn 0.00000000 0.00000000 1.00000000
vn 0.00000000 0.00000000 1.00000000
vn 0.00000000 0.00000000 1.00000000
vn 0.00000000 0.00000000 1.00000000
vn 0.00000000 0.00000000 1.00000000
vn 0.00000000 0.00000000 1.00000000
vn 0.00000000 0.00000000 -1.00000000
vn 0.00000000 0.00000000 -1.00000000
vn 0.00000000 0.00000000 -1.00000000
vn 0.00000000 0.00000000 -1.00000000
vn 0.00000000 0.00000000 1.00000000
vn 0.00000000 0.00000000 1.00000000
vn 0.00000000 0.00000000 1.00000000
vn 0.00000000 0.00000000 1.00000000
vn 0.00000000 0.00000000 1.00000000
vn 0.00000000 0.00000000 1.00000000
vn 0.00000000 0.00000000 1.00000000
vn 0.00000000 0.00000000 1.00000000
f 1//1 2//2 3//3
f 2//2 4//4 3//3
f 5//5 6//6 7//7
f 6//6 8//8 7//7
f 9//9 10//10 11//11
f 10//10 12//12 11//11
f 13//13 14//14 15//15
f 14//14 16//16 15//15
f 17//17 18//18 19//19
f 18//18 20//20 19//19
