mtllib Mtl1.005.mtl
usemtl Mtl1.005
v 0.02858500 0.04352000 -0.07093600
v 0.02840100 0.04362400 -0.07084600
v 0.02840100 0.04362400 -0.07084600
v 0.02840100 0.04362400 -0.07084600
v 0.02837300 0.04331900 -0.07110600
v 0.02837300 0.04331900 -0.07110600
v 0.02706800 0.04411100 -0.07042800
v 0.02706800 0.04411100 -0.07042800
v 0.02595600 0.04500300 -0.06965600
v 0.02595600 0.04500300 -0.06965600
v 0.02531700 0.04536400 -0.06934500
v 0.02531700 0.04536400 -0.06934500
v 0.02531700 0.04536400 -0.06934500
v 0.02439000 0.04555800 -0.06917100
v 0.02439000 0.04555800 -0.06917100
v 0.02439000 0.04555800 -0.06917100
v 0.02386700 0.04584000 -0.06892500
v 0.02386700 0.04584000 -0.06892500
v 0.02386700 0.04584000 -0.06892500
v 0.02341900 0.04626100 -0.06855300
v 0.02341900 0.04626100 -0.06855300
v 0.02188000 0.04699000 -0.06791100
v 0.02188000 0.04699000 -0.06791100
v 0.02083200 0.04739700 -0.06754400
v 0.02083200 0.04739700 -0.06754400
v 0.02083200 0.04739700 -0.06754400
v 0.02058600 0.04732800 -0.06760600
v 0.02058600 0.04732800 -0.06760600
v 0.02058600 0.04732800 -0.06760600
v 0.01977600 0.04763100 -0.06733300
v 0.01977600 0.04763100 -0.06733300
v 0.01977600 0.04763100 -0.06733300
v 0.01869300 0.04803600 -0.06696700
v 0.01869300 0.04803600 -0.06696700
v 0.01869300 0.04803600 -0.06696700
v 0.01834900 0.04836300 -0.06667600
v 0.01834900 0.04836300 -0.06667600
v 0.01834900 0.04836300 -0.06667600
v 0.01814500 0.04842600 -0.06661800
v 0.01814500 0.04842600 -0.06661800
v 0.01722700 0.04858400 -0.06647200
v 0.01533900 0.04930000 -0.06581900
v 0.01533900 0.04930000 -0.06581900
v 0.01533900 0.04930000 -0.06581900
v 0.01497700 0.04925900 -0.06585400
v 0.01497700 0.04925900 -0.06585400
v 0.01497700 0.04925900 -0.06585400
v 0.01476700 0.04947800 -0.06565600
v 0.01476700 0.04947800 -0.06565600
v 0.01476700 0.04947800 -0.06565600
v 0.01385100 0.04959600 -0.06554400
v 0.01385100 0.04959600 -0.06554400
v 0.01231300 0.05006300 -0.06511300
v 0.01231300 0.05006300 -0.06511300
v 0.01114800 0.05034100 -0.06485500
v 0.01114800 0.05034100 -0.06485500
v 0.01114800 0.05034100 -0.06485500
v 0.01040200 0.05038900 -0.06480800
v 0.01040200 0.05038900 -0.06480800
v 0.01040200 0.05038900 -0.06480800
v 0.01005100 0.05044600 -0.06475400
v 0.01005100 0.05044600 -0.06475400
v 0.01005100 0.05044600 -0.06475400
v 0.00919400 0.05067200 -0.06454500
v 0.00919400 0.05067200 -0.06454500
v 0.00919400 0.05067200 -0.06454500
v 0.00753100 0.05095300 -0.06428100
v 0.00753100 0.05095300 -0.06428100
v 0.00698400 0.05094500 -0.06428600
v 0.00698400 0.05094500 -0.06428600
v 0.00698400 0.05094500 -0.06428600
v 0.00698400 0.05094500 -0.06428600
v 0.00597000 0.05111300 -0.06412900
v 0.00597000 0.05111300 -0.06412900
v 0.00597000 0.05111300 -0.06412900
v 0.00503700 0.05113500 -0.06410700
v 0.00503700 0.05113500 -0.06410700
v 0.00503700 0.05113500 -0.06410700
v 0.00392300 0.05132300 -0.06393100
v 0.00392300 0.05132300 -0.06393100
v 0.00392300 0.05132300 -0.06393100
v 0.00349400 0.05128500 -0.06396500
v 0.00349400 0.05128500 -0.06396500
v 0.00349400 0.05128500 -0.06396500
v 0.00263400 0.05139900 -0.06385900
v 0.00263400 0.05139900 -0.06385900
v 0.00263400 0.05139900 -0.06385900
v 0.00000000 0.05139900 -0.06385900
v 0.00000000 0.05139900 -0.06385900
v 0.00000000 0.05139900 -0.06385900
v 0.00000000 0.05152700 -0.06373800
v 0.00000000 0.05152700 -0.06373800
v 0.00000000 0.05152700 -0.06373800
v 0.00000000 0.05152700 -0.06373800
v -0.00002500 0.05139900 -0.06385900
v -0.00002500 0.05139900 -0.06385900
v -0.00069900 0.05139300 -0.06386200
v -0.00069900 0.05139300 -0.06386200
v -0.00069900 0.05139300 -0.06386200
v -0.00252400 0.05140400 -0.06385400
v -0.00252400 0.05140400 -0.06385400
v -0.00252400 0.05140400 -0.06385400
v -0.00263400 0.05139900 -0.06385900
v -0.00263400 0.05139900 -0.06385900
v -0.00401100 0.05124900 -0.06399900
v -0.00401100 0.05124900 -0.06399900
v -0.00401100 0.05124900 -0.06399900
v -0.00401100 0.05124900 -0.06399900
v -0.00503700 0.05113800 -0.06410400
v -0.00503700 0.05113800 -0.06410400
v -0.00595900 0.05113600 -0.06410800
v -0.00595900 0.05113600 -0.06410800
v -0.00595900 0.05113600 -0.06410800
v -0.00595900 0.05113600 -0.06410800
v -0.00618900 0.05111800 -0.06412500
v -0.00618900 0.05111800 -0.06412500
v -0.00761000 0.05086000 -0.06436600
v -0.00761000 0.05086000 -0.06436600
v -0.00761000 0.05086000 -0.06436600
v -0.00761000 0.05086000 -0.06436600
v -0.00917000 0.05069100 -0.06452700
v -0.00917000 0.05069100 -0.06452700
v -0.00917000 0.05069100 -0.06452700
v -0.00970000 0.05061500 -0.06459800
v -0.00970000 0.05061500 -0.06459800
v -0.01004800 0.05043200 -0.06476700
v -0.01004800 0.05043200 -0.06476700
v -0.01113300 0.05024100 -0.06494600
v -0.01113300 0.05024100 -0.06494600
v -0.01113300 0.05024100 -0.06494600
v -0.01227300 0.05007700 -0.06510000
v -0.01227300 0.05007700 -0.06510000
v -0.01227300 0.05007700 -0.06510000
v -0.01318100 0.04988800 -0.06527700
v -0.01318100 0.04988800 -0.06527700
v -0.01475400 0.04934900 -0.06577200
v -0.01475400 0.04934900 -0.06577200
v -0.01475400 0.04934900 -0.06577200
v -0.01475400 0.04934900 -0.06577200
v -0.01498200 0.04927600 -0.06583900
v -0.01498200 0.04927600 -0.06583900
v -0.01498200 0.04927600 -0.06583900
v -0.01528000 0.04930600 -0.06581300
v -0.01528000 0.04930600 -0.06581300
v -0.01528000 0.04930600 -0.06581300
v -0.01662300 0.04893300 -0.06615600
v -0.01807000 0.04842900 -0.06661400
v -0.01807000 0.04842900 -0.06661400
v -0.01807000 0.04842900 -0.06661400
v -0.01825200 0.04822800 -0.06679600
v -0.01825200 0.04822800 -0.06679600
v -0.01873000 0.04803700 -0.06696700
v -0.01873000 0.04803700 -0.06696700
v -0.01873000 0.04803700 -0.06696700
v -0.01977100 0.04762100 -0.06734100
v -0.01977100 0.04762100 -0.06734100
v -0.01977100 0.04762100 -0.06734100
v -0.02003000 0.04774500 -0.06723500
v -0.02003000 0.04774500 -0.06723500
v -0.02003000 0.04774500 -0.06723500
v -0.02076000 0.04743400 -0.06751200
v -0.02076000 0.04743400 -0.06751200
v -0.02076000 0.04743400 -0.06751200
v -0.02178400 0.04681600 -0.06806300
v -0.02178400 0.04681600 -0.06806300
v -0.02336900 0.04632200 -0.06850400
v -0.02438800 0.04555300 -0.06917500
v -0.02438800 0.04555300 -0.06917500
v -0.02514300 0.04518600 -0.06949800
v -0.02514300 0.04518600 -0.06949800
v -0.02514300 0.04518600 -0.06949800
v -0.02584800 0.04505900 -0.06960800
v -0.02584800 0.04505900 -0.06960800
v -0.02584800 0.04505900 -0.06960800
v -0.02662400 0.04466300 -0.06995400
v -0.02662400 0.04466300 -0.06995400
v -0.02827400 0.04370100 -0.07078000
v -0.02827400 0.04370100 -0.07078000
v -0.02836300 0.04332500 -0.07110100
v -0.02836300 0.04332500 -0.07110100
v -0.02857500 0.04352600 -0.07093100
v -0.01662300 0.04893300 -0.06615600
v -0.01662300 0.04893300 -0.06615600
v -0.01825200 0.04822800 -0.06679600
v 0.01722700 0.04858400 -0.06647200
v 0.01722700 0.04858400 -0.06647200
v 0.01814500 0.04842600 -0.06661800
vn 0.00370000 -0.64970000 0.76010000
vn 0.00140000 -0.65010000 0.75980000
vn 0.00080000 -0.64960000 0.76030000
vn 0.00370000 -0.64970000 0.76010000
vn 0.00080000 -0.64960000 0.76030000
vn 0.00370000 -0.64970000 0.76010000
vn -0.00350000 -0.65670000 0.75410000
vn 0.00080000 -0.64960000 0.76030000
vn 0.00850000 -0.64450000 0.76450000
vn 0.00390000 -0.65160000 0.75860000
vn -0.00160000 -0.66330000 0.74840000
vn 0.00700000 -0.64840000 0.76120000
vn 0.00850000 -0.64450000 0.76450000
vn 0.00700000 -0.64840000 0.76120000
vn 0.00850000 -0.64450000 0.76450000
vn 0.00690000 -0.64840000 0.76120000
vn -0.00160000 -0.66330000 0.74840000
vn -0.00070000 -0.66210000 0.74940000
vn 0.00700000 -0.64840000 0.76120000
vn -0.00160000 -0.66330000 0.74830000
vn -0.00160000 -0.66330000 0.74840000
vn 0.00110000 -0.66710000 0.74490000
vn 0.00620000 -0.65600000 0.75480000
vn 0.00150000 -0.66790000 0.74420000
vn 0.00110000 -0.66710000 0.74490000
vn 0.00130000 -0.66710000 0.74490000
vn 0.00180000 -0.66690000 0.74510000
vn 0.00150000 -0.66790000 0.74420000
vn 0.00110000 -0.66710000 0.74490000
vn 0.00290000 -0.66470000 0.74710000
vn 0.00150000 -0.66790000 0.74420000
vn 0.00610000 -0.66110000 0.75030000
vn 0.00920000 -0.65930000 0.75180000
vn 0.00530000 -0.66240000 0.74920000
vn 0.00610000 -0.66110000 0.75030000
vn 0.00920000 -0.65930000 0.75180000
vn 0.00610000 -0.66110000 0.75030000
vn 0.00870000 -0.65970000 0.75150000
vn 0.00920000 -0.65930000 0.75180000
vn 0.00530000 -0.66240000 0.74920000
vn 0.00530000 -0.66240000 0.74920000
vn 0.00290000 -0.66990000 0.74250000
vn 0.00460000 -0.66750000 0.74460000
vn 0.00450000 -0.66720000 0.74490000
vn 0.00460000 -0.66750000 0.74460000
vn 0.00450000 -0.66720000 0.74490000
vn 0.00490000 -0.66700000 0.74510000
vn 0.00380000 -0.67160000 0.74090000
vn 0.00490000 -0.66700000 0.74510000
vn 0.00450000 -0.66720000 0.74490000
vn 0.00380000 -0.67160000 0.74090000
vn 0.00490000 -0.66700000 0.74510000
vn 0.00380000 -0.67160000 0.74090000
vn 0.00390000 -0.67110000 0.74140000
vn 0.00390000 -0.67110000 0.74140000
vn 0.00410000 -0.67060000 0.74180000
vn 0.00360000 -0.67280000 0.73980000
vn 0.00380000 -0.67160000 0.74090000
vn 0.00390000 -0.67110000 0.74140000
vn 0.00410000 -0.67060000 0.74180000
vn 0.00320000 -0.67370000 0.73900000
vn 0.00410000 -0.67060000 0.74180000
vn 0.00360000 -0.67280000 0.73980000
vn 0.00320000 -0.67370000 0.73900000
vn 0.00360000 -0.67280000 0.73980000
vn 0.00270000 -0.67560000 0.73730000
vn 0.00270000 -0.67310000 0.73950000
vn 0.00270000 -0.67560000 0.73730000
vn 0.00230000 -0.67460000 0.73820000
vn 0.00320000 -0.67370000 0.73900000
vn 0.00270000 -0.67560000 0.73730000
vn 0.00270000 -0.67310000 0.73950000
vn 0.00270000 -0.67310000 0.73950000
vn 0.00230000 -0.67460000 0.73820000
vn 0.00220000 -0.67620000 0.73670000
vn 0.00230000 -0.67460000 0.73820000
vn 0.00170000 -0.67780000 0.73530000
vn 0.00220000 -0.67620000 0.73670000
vn 0.00170000 -0.67780000 0.73530000
vn 0.00130000 -0.67520000 0.73760000
vn 0.00220000 -0.67620000 0.73670000
vn 0.00010000 -0.68000000 0.73320000
vn 0.00130000 -0.67520000 0.73760000
vn 0.00170000 -0.67780000 0.73530000
vn 0.00010000 -0.68000000 0.73320000
vn 0.00010000 -0.68580000 0.72780000
vn 0.00130000 -0.67520000 0.73760000
vn 0.00010000 -0.68580000 0.72780000
vn 0.00010000 -0.68000000 0.73320000
vn -0.01730000 -0.68570000 0.72770000
vn -0.00070000 -0.67870000 0.73440000
vn 0.00260000 -0.68780000 0.72590000
vn 0.00010000 -0.68580000 0.72780000
vn -0.01730000 -0.68570000 0.72770000
vn 0.00260000 -0.68780000 0.72590000
vn -0.01730000 -0.68570000 0.72770000
vn -0.00070000 -0.67870000 0.73440000
vn -0.00070000 -0.68010000 0.73310000
vn 0.00260000 -0.68780000 0.72590000
vn -0.00070000 -0.67870000 0.73440000
vn -0.00070000 -0.68010000 0.73310000
vn -0.00550000 -0.65530000 0.75530000
vn -0.00280000 -0.66880000 0.74340000
vn -0.00550000 -0.65530000 0.75530000
vn -0.00280000 -0.66880000 0.74340000
vn -0.00190000 -0.67730000 0.73570000
vn -0.00550000 -0.65530000 0.75530000
vn -0.00070000 -0.68010000 0.73310000
vn -0.00190000 -0.67730000 0.73570000
vn -0.00180000 -0.67740000 0.73560000
vn -0.00280000 -0.66880000 0.74340000
vn -0.00190000 -0.67730000 0.73570000
vn -0.00150000 -0.67820000 0.73490000
vn -0.00180000 -0.67740000 0.73560000
vn -0.00340000 -0.67290000 0.73970000
vn -0.00150000 -0.67820000 0.73490000
vn -0.00150000 -0.67820000 0.73490000
vn -0.00340000 -0.67290000 0.73970000
vn -0.00180000 -0.67740000 0.73560000
vn -0.00330000 -0.67350000 0.73920000
vn -0.00330000 -0.67340000 0.73920000
vn -0.00340000 -0.67290000 0.73970000
vn -0.00330000 -0.67350000 0.73920000
vn -0.00330000 -0.67340000 0.73920000
vn -0.00360000 -0.67290000 0.73980000
vn -0.00330000 -0.67340000 0.73920000
vn -0.00330000 -0.67350000 0.73920000
vn -0.00330000 -0.67340000 0.73920000
vn -0.00360000 -0.67290000 0.73980000
vn -0.00360000 -0.67280000 0.73980000
vn -0.00360000 -0.67290000 0.73980000
vn -0.00440000 -0.66990000 0.74240000
vn -0.00550000 -0.66770000 0.74440000
vn -0.00550000 -0.66770000 0.74440000
vn -0.00280000 -0.67220000 0.74040000
vn -0.00280000 -0.67220000 0.74040000
vn -0.00320000 -0.66910000 0.74310000
vn -0.00290000 -0.67180000 0.74080000
vn -0.00550000 -0.66770000 0.74440000
vn -0.00320000 -0.66910000 0.74310000
vn -0.00350000 -0.67060000 0.74180000
vn -0.00340000 -0.66910000 0.74320000
vn -0.00280000 -0.67220000 0.74040000
vn -0.00320000 -0.66910000 0.74310000
vn -0.00350000 -0.67060000 0.74180000
vn -0.00140000 -0.66980000 0.74250000
vn 0.00300000 -0.67210000 0.74050000
vn -0.00420000 -0.66530000 0.74660000
vn -0.00140000 -0.66980000 0.74250000
vn 0.00300000 -0.67210000 0.74050000
vn -0.00140000 -0.66980000 0.74250000
vn -0.00720000 -0.65810000 0.75290000
vn 0.00300000 -0.67210000 0.74050000
vn -0.00420000 -0.66530000 0.74660000
vn -0.00520000 -0.66080000 0.75050000
vn -0.00640000 -0.65720000 0.75370000
vn -0.00720000 -0.65810000 0.75290000
vn -0.00420000 -0.66530000 0.74660000
vn -0.00720000 -0.65810000 0.75290000
vn -0.00640000 -0.65720000 0.75370000
vn -0.00520000 -0.66080000 0.75050000
vn -0.00500000 -0.66080000 0.75060000
vn -0.00640000 -0.65720000 0.75370000
vn -0.00520000 -0.66080000 0.75050000
vn -0.00040000 -0.66490000 0.74690000
vn -0.00660000 -0.65300000 0.75730000
vn 0.00350000 -0.66480000 0.74700000
vn -0.00150000 -0.65680000 0.75400000
vn 0.00280000 -0.66330000 0.74840000
vn 0.00350000 -0.66480000 0.74700000
vn 0.00220000 -0.66060000 0.75070000
vn 0.00210000 -0.66070000 0.75070000
vn 0.00350000 -0.66480000 0.74700000
vn 0.00220000 -0.66060000 0.75070000
vn -0.00630000 -0.64670000 0.76270000
vn 0.00220000 -0.66060000 0.75070000
vn -0.00250000 -0.64920000 0.76060000
vn -0.00260000 -0.64920000 0.76060000
vn -0.00290000 -0.64890000 0.76090000
vn -0.00260000 -0.64920000 0.76060000
vn -0.00260000 -0.64920000 0.76060000
vn -0.00350000 -0.67060000 0.74180000
vn -0.00600000 -0.66410000 0.74770000
vn -0.00600000 -0.66410000 0.74770000
vn 0.00460000 -0.66750000 0.74460000
vn 0.00290000 -0.66990000 0.74250000
vn 0.00290000 -0.66990000 0.74250000
f 135//135 143//143 136//136
f 137//137 144//144 140//140
f 145//145 182//182 141//141
f 146//146 149//149 151//151
f 150//150 147//147 153//153
f 148//148 158//158 154//154
f 152//152 159//159 157//157
f 160//160 163//163 156//156
f 155//155 161//161 164//164
f 167//167 173//173 170//170
f 174//174 176//176 171//171
f 180//180 178//178 181//181
f 134//134 139//139 133//133
f 131//131 129//129 125//125
f 128//128 126//126 124//124
f 124//124 126//126 121//121
f 127//127 120//120 123//123
f 122//122 118//118 115//115
f 105//105 103//103 111//111
f 116//116 117//117 113//113
f 119//119 110//110 114//114
f 112//112 109//109 106//106
f 104//104 107//107 102//102
f 108//108 98//98 101//101
f 100//100 97//97 91//91
f 99//99 95//95 92//92
f 96//96 90//90 94//94
f 93//93 88//88 86//86
f 89//89 82//82 85//85
f 87//87 83//83 80//80
f 84//84 77//77 79//79
f 81//81 78//78 75//75
f 76//76 69//69 74//74
f 73//73 72//72 67//67
f 68//68 71//71 66//66
f 70//70 61//61 64//64
f 65//65 63//63 57//57
f 62//62 60//60 56//56
f 55//55 59//59 54//54
f 58//58 51//51 53//53
f 53//53 51//51 48//48
f 52//52 47//47 49//49
f 50//50 46//46 44//44
f 45//45 185//185 43//43
f 42//42 186//186 187//187
f 41//41 34//34 40//40
f 39//39 33//33 36//36
f 35//35 32//32 37//37
f 31//31 28//28 24//24
f 25//25 29//29 22//22
f 21//21 17//17 11//11
f 19//19 14//14 12//12
f 13//13 15//15 9//9
f 8//8 5//5 3//3
f 4//4 6//6 1//1
f 142//142 183//183 184//184
f 162//162 166//166 165//165
f 165//165 166//166 168//168
f 166//166 172//172 168//168
f 169//169 175//175 179//179
f 175//175 177//177 179//179
f 138//138 130//130 132//132
f 38//38 30//30 26//26
f 27//27 18//18 23//23
f 23//23 18//18 20//20
f 16//16 7//7 10//10
f 10//10 7//7 2//2
