mtllib Mtl1.006.mtl
usemtl Mtl1.006
v -0.04065000 0.01054900 0.06713700
v -0.04065000 0.01044400 0.06722200
v -0.04065000 0.00935600 0.06809800
v -0.04065000 0.00848200 0.06740500
v -0.04065000 0.00736900 0.06493900
v -0.04065000 0.00580900 0.06586100
v -0.04065000 0.00361200 0.06354200
v -0.04065000 0.00303300 0.06341800
v -0.04065000 0.00295800 0.06494200
v -0.04065000 -0.00338900 0.06504000
v -0.04065000 -0.00344100 0.06350200
v -0.04065000 -0.00433600 0.06372900
v -0.04065000 -0.00630000 0.06608900
v -0.04065000 -0.00802300 0.06530100
v -0.04065000 -0.00900800 0.06780900
v -0.04065000 -0.00992200 0.06861100
v -0.04065000 -0.01109600 0.06764700
v -0.04065000 0.01054900 0.06713700
v -0.04065000 0.00736900 0.06493900
v -0.04065000 0.00361200 0.06354200
v -0.04065000 0.00303300 0.06341800
v -0.04065000 -0.00344100 0.06350200
v -0.04065000 -0.00433600 0.06372900
v -0.04065000 -0.00802300 0.06530100
v -0.04065000 -0.00802300 0.06530100
v -0.04065000 -0.01109600 0.06764700
v -0.04077600 0.00138700 0.06318800
v -0.04079000 0.00107600 0.06316400
v -0.04079500 -0.00017100 0.06316900
v -0.04079600 -0.00037400 0.06316900
v -0.04080000 -0.00119000 0.06317200
v -0.04080200 -0.01055500 0.06714600
v -0.04114600 0.00867100 0.06571300
v -0.04126700 -0.00865900 0.06570700
v -0.04136300 0.00762700 0.06514100
v -0.04139100 -0.00799500 0.06535100
v -0.04139100 -0.00799500 0.06535100
v -0.04139500 -0.00797600 0.06534100
v -0.04139500 -0.00797600 0.06534100
v -0.04142100 0.00734300 0.06498500
v -0.04157200 0.00661500 0.06458600
v -0.04166000 0.00610400 0.06436400
v -0.04169800 -0.00636000 0.06447500
v -0.04195700 0.00390600 0.06363700
v -0.04195900 -0.00432600 0.06376300
v -0.04198000 0.00360400 0.06358300
v -0.04198300 -0.00414100 0.06369900
v -0.04202500 -0.00368400 0.06358300
v -0.04213100 0.00163800 0.06323600
v -0.04215900 -0.00140400 0.06321400
v -0.04215900 -0.00037300 0.06319800
v -0.04215900 -0.00013400 0.06319400
v -0.04215900 0.00091500 0.06317800
v -0.04065000 0.00820800 0.09079100
v -0.04065000 0.00936700 0.09181700
v -0.04065000 0.00618400 0.09196700
v -0.04065000 0.00631300 0.09356600
v -0.04065000 0.00281300 0.09308800
v -0.04065000 0.00282100 0.09462200
v -0.04065000 -0.00073100 0.09334800
v -0.04065000 -0.00082000 0.09485400
v -0.04065000 -0.00423000 0.09272900
v -0.04065000 -0.00441800 0.09424800
v -0.04065000 -0.00747000 0.09127100
v -0.04065000 -0.00778300 0.09283600
v -0.04065000 -0.00944600 0.08982400
v -0.04065000 -0.01064000 0.09078200
v -0.04065000 0.00936700 0.09181700
v -0.04065000 0.00631300 0.09356600
v -0.04065000 0.00282100 0.09462200
v -0.04065000 -0.00082000 0.09485400
v -0.04065000 -0.00441800 0.09424800
v -0.04065000 -0.00778300 0.09283600
v -0.04065000 -0.01064000 0.09078200
v -0.04088700 0.00844200 0.09243900
v -0.04111500 -0.00877200 0.09222100
v -0.04121800 0.00689900 0.09323600
v -0.04122600 -0.00819900 0.09254100
v -0.04131200 -0.00775600 0.09278900
v -0.04134600 0.00630300 0.09354400
v -0.04137500 0.00616700 0.09361400
v -0.04151300 -0.00672500 0.09336300
v -0.04159100 -0.00623000 0.09358300
v -0.04172000 0.00393700 0.09436000
v -0.04177100 0.00351400 0.09446100
v -0.04181400 -0.00440500 0.09420700
v -0.04182900 0.00281200 0.09456700
v -0.04185700 -0.00404700 0.09432900
v -0.04196000 0.00123900 0.09480400
v -0.04199400 -0.00179200 0.09475000
v -0.04200000 -0.00067200 0.09481300
v -0.04200300 -0.00081900 0.09481400
v -0.04200900 -0.00107200 0.09481500
vn 1.00000000 -0.00000000 0.00000000
vn 1.00000000 -0.00000000 0.00000000
vn 1.00000000 -0.00000000 0.00000000
vn 1.00000000 -0.00000000 0.00000000
vn 1.00000000 -0.00000000 0.00000000
vn 1.00000000 -0.00000000 0.00000000
vn 1.00000000 -0.00000000 0.00000000
vn 1.00000000 -0.00000000 0.00000000
vn 1.00000000 -0.00000000 0.00000000
vn 1.00000000 -0.00000000 0.00000000
vn 1.00000000 -0.00000000 0.00000000
vn 1.00000000 -0.00000000 0.00000000
vn 1.00000000 -0.00000000 0.00000000
vn 1.00000000 -0.00000000 0.00000000
vn 1.00000000 -0.00000000 0.00000000
vn 1.00000000 -0.00000000 0.00000000
vn 1.00000000 -0.00000000 0.00000000
vn 0.20490000 0.55650000 -0.80520000
vn -0.00120000 0.46540000 -0.88510000
vn -0.00660000 0.25620000 -0.96660000
vn -0.03210000 0.18020000 -0.98310000
vn -0.02390000 -0.19170000 -0.98120000
vn -0.00370000 -0.30660000 -0.95180000
vn -0.03520000 -0.46460000 -0.88480000
vn -0.07680000 -0.48170000 -0.87300000
vn 0.41960000 -0.55070000 -0.72160000
vn -0.01480000 0.10630000 -0.99420000
vn -0.01700000 0.03830000 -0.99910000
vn -0.01970000 -0.00430000 -0.99980000
vn -0.02350000 -0.00620000 -0.99970000
vn -0.02280000 -0.07380000 -0.99700000
vn 0.39490000 -0.55620000 -0.73120000
vn 0.16190000 0.54890000 -0.82000000
vn 0.03710000 -0.56280000 -0.82580000
vn -0.06880000 0.49010000 -0.86890000
vn -0.07680000 -0.48200000 -0.87280000
vn -0.07680000 -0.48170000 -0.87300000
vn -0.04330000 -0.43760000 -0.89810000
vn -0.07680000 -0.48170000 -0.87300000
vn -0.06880000 0.49010000 -0.86890000
vn 0.00800000 0.41530000 -0.90960000
vn 0.07070000 0.34940000 -0.93430000
vn 0.16540000 -0.41540000 -0.89450000
vn -0.01390000 0.25170000 -0.96770000
vn -0.02760000 -0.33300000 -0.94250000
vn -0.03760000 0.18110000 -0.98270000
vn -0.01950000 -0.28270000 -0.95900000
vn -0.01750000 -0.20270000 -0.97910000
vn -0.02310000 0.12140000 -0.99230000
vn -0.01360000 -0.09230000 -0.99560000
vn -0.02010000 -0.01500000 -0.99970000
vn -0.01610000 -0.01260000 -0.99980000
vn -0.01370000 0.02820000 -0.99950000
vn 1.00000000 -0.00000000 0.00000000
vn 1.00000000 -0.00000000 0.00000000
vn 1.00000000 -0.00000000 0.00000000
vn 1.00000000 -0.00000000 0.00000000
vn 1.00000000 -0.00000000 0.00000000
vn 1.00000000 -0.00000000 0.00000000
vn 1.00000000 -0.00000000 0.00000000
vn 1.00000000 -0.00000000 0.00000000
vn 1.00000000 -0.00000000 0.00000000
vn 1.00000000 -0.00000000 0.00000000
vn 1.00000000 -0.00000000 0.00000000
vn 1.00000000 -0.00000000 0.00000000
vn 1.00000000 -0.00000000 0.00000000
vn 1.00000000 -0.00000000 0.00000000
vn 0.32150000 0.47060000 0.82170000
vn -0.00510000 0.39150000 0.92020000
vn 0.00700000 0.17580000 0.98440000
vn 0.01150000 -0.04930000 0.99870000
vn 0.00570000 -0.27630000 0.96100000
vn -0.01770000 -0.48790000 0.87270000
vn 0.16630000 -0.57570000 0.80060000
vn 0.29020000 0.47260000 0.83210000
vn 0.12300000 -0.56490000 0.81600000
vn -0.03410000 0.46440000 0.88500000
vn -0.08260000 -0.49770000 0.86340000
vn -0.08270000 -0.49770000 0.86340000
vn -0.03410000 0.46450000 0.88490000
vn -0.00030000 0.35930000 0.93320000
vn 0.06600000 -0.40400000 0.91240000
vn 0.07920000 -0.37910000 0.92200000
vn 0.06200000 0.28450000 0.95670000
vn -0.01420000 0.20470000 0.97870000
vn -0.03720000 -0.32690000 0.94430000
vn -0.04760000 0.15260000 0.98710000
vn -0.00790000 -0.23750000 0.97140000
vn 0.02260000 0.07000000 0.99730000
vn 0.02220000 -0.14480000 0.98920000
vn -0.02960000 0.00580000 0.99950000
vn -0.02950000 0.00570000 0.99950000
vn -0.01960000 -0.04820000 0.99860000
f 3//3 4//4 2//2
f 4//4 1//1 2//2
f 1//1 4//4 5//5
f 4//4 6//6 5//5
f 5//5 6//6 7//7
f 6//6 9//9 7//7
f 7//7 9//9 8//8
f 12//12 11//11 10//10
f 12//12 10//10 14//14
f 10//10 13//13 14//14
f 14//14 13//13 17//17
f 13//13 15//15 17//17
f 17//17 15//15 16//16
f 25//25 37//37 39//39
f 54//54 55//55 56//56
f 55//55 57//57 56//56
f 56//56 57//57 58//58
f 57//57 59//59 58//58
f 58//58 59//59 60//60
f 59//59 61//61 60//60
f 60//60 61//61 62//62
f 61//61 63//63 62//62
f 62//62 63//63 64//64
f 63//63 65//65 64//64
f 64//64 65//65 66//66
f 65//65 67//67 66//66
f 41//41 40//40 19//19
f 40//40 35//35 19//19
f 35//35 33//33 19//19
f 19//19 33//33 18//18
f 41//41 19//19 42//42
f 19//19 20//20 42//42
f 42//42 20//20 44//44
f 44//44 20//20 46//46
f 20//20 21//21 46//46
f 46//46 21//21 49//49
f 21//21 27//27 49//49
f 49//49 27//27 53//53
f 27//27 28//28 53//53
f 53//53 28//28 52//52
f 28//28 29//29 52//52
f 52//52 29//29 51//51
f 29//29 30//30 51//51
f 51//51 30//30 50//50
f 30//30 31//31 50//50
f 50//50 31//31 48//48
f 31//31 22//22 48//48
f 48//48 22//22 47//47
f 22//22 23//23 47//47
f 47//47 23//23 45//45
f 24//24 38//38 23//23
f 38//38 43//43 23//23
f 23//23 43//43 45//45
f 24//24 26//26 32//32
f 32//32 34//34 24//24
f 34//34 36//36 24//24
f 74//74 73//73 76//76
f 73//73 78//78 76//76
f 86//86 83//83 72//72
f 83//83 82//82 72//72
f 72//72 82//82 73//73
f 82//82 79//79 73//73
f 73//73 79//79 78//78
f 92//92 93//93 71//71
f 93//93 90//90 71//71
f 71//71 90//90 72//72
f 90//90 88//88 72//72
f 72//72 88//88 86//86
f 85//85 87//87 70//70
f 87//87 89//89 70//70
f 70//70 89//89 71//71
f 89//89 91//91 71//71
f 71//71 91//91 92//92
f 69//69 80//80 81//81
f 69//69 81//81 70//70
f 81//81 84//84 70//70
f 70//70 84//84 85//85
f 68//68 75//75 69//69
f 75//75 77//77 69//69
f 69//69 77//77 80//80
