mtllib material.mtl
usemtl Reference_Triangles
v 0.05450000 -0.00139700 -0.11721100
v 0.05450000 -0.00139900 -0.11727000
v 0.05450000 -0.00138800 -0.11732800
v 0.05450000 -0.00139700 -0.11721100
v 0.05450000 -0.00138800 -0.11732800
v 0.05450000 -0.00138100 -0.11715500
v 0.05450000 -0.00017100 -0.12093300
v 0.05450000 -0.00012000 -0.12096900
v 0.05450000 0.00023800 -0.12082800
v 0.05450000 -0.00138800 -0.11732800
v 0.05450000 -0.00120800 -0.11700700
v 0.05450000 -0.00126400 -0.11702700
v 0.05450000 -0.00115000 -0.11700000
v 0.05450000 0.00023800 -0.12082800
v 0.05450000 0.00115000 -0.11700000
v 0.05450000 0.00138800 -0.11732800
v 0.05450000 0.00139900 -0.11727000
v 0.05450000 0.00139900 -0.11727000
v 0.05450000 0.00139700 -0.11721100
v 0.05450000 0.00115000 -0.11700000
v 0.05450000 0.00115000 -0.11700000
v 0.05450000 0.00138100 -0.11715500
v 0.05450000 0.00138100 -0.11715500
v 0.05450000 0.00135200 -0.11710300
v 0.05450000 0.00135200 -0.11710300
v 0.05450000 0.00131300 -0.11706000
v 0.05450000 0.00131300 -0.11706000
v 0.05450000 0.00115000 -0.11700000
v 0.05450000 0.00115000 -0.11700000
v 0.05450000 0.00126400 -0.11702700
v 0.05450000 0.00120800 -0.11700700
v 0.05450000 -0.00012000 -0.12096900
v 0.05450000 -0.00006200 -0.12099200
v 0.05450000 0.00023800 -0.12082800
v 0.05450000 0.00023800 -0.12082800
v 0.05450000 0.00000000 -0.12100000
v 0.05450000 0.00000000 -0.12100000
v 0.05450000 0.00006200 -0.12099200
v 0.05450000 0.00006200 -0.12099200
v 0.05450000 0.00012000 -0.12096900
v 0.05450000 0.00023800 -0.12082800
v 0.05450000 0.00017100 -0.12093300
v 0.05450000 0.00021100 -0.12088500
v 0.05450000 -0.00126400 -0.11702700
v 0.05450000 -0.00131300 -0.11706000
v 0.05450000 -0.00131300 -0.11706000
v 0.05450000 -0.00138800 -0.11732800
v 0.05450000 -0.00138800 -0.11732800
v 0.05450000 -0.00138800 -0.11732800
v 0.05450000 -0.00135200 -0.11710300
v 0.05450000 -0.00135200 -0.11710300
v 0.05450000 -0.00138100 -0.11715500
v 0.05450000 -0.00120800 -0.11700700
v 0.05450000 -0.00138800 -0.11732800
v 0.05450000 -0.00115000 -0.11700000
v 0.05450000 -0.00023800 -0.12082800
v 0.05450000 0.00023800 -0.12082800
v 0.05450000 -0.00021100 -0.12088500
v 0.05450000 -0.00017100 -0.12093300
v 0.12199900 0.00617200 -0.03758200
v 0.12120600 0.00267200 -0.03841600
v 0.12120600 0.00267200 -0.03841600
v 0.12113500 0.00256200 -0.03848800
v 0.12113500 0.00256200 -0.03848800
v 0.12118900 0.00261800 -0.03843300
v 0.12118900 0.00261800 -0.03843300
v 0.12118700 0.00261600 -0.03843500
v 0.12118700 0.00261600 -0.03843500
v 0.12113500 0.00256200 -0.03848800
v 0.12113500 0.00256200 -0.03848800
v 0.12113500 0.00256200 -0.03848800
v 0.12117900 0.00259800 -0.03844400
v 0.12117900 0.00259800 -0.03844400
v 0.12115900 0.00256800 -0.03846400
v 0.12115900 0.00256800 -0.03846400
v 0.12115000 0.00255500 -0.03847300
v 0.12115000 0.00255500 -0.03847300
v 0.12113500 0.00256200 -0.03848800
v 0.12113500 0.00256200 -0.03848800
v 0.12113500 0.00256200 -0.03848800
v 0.12113500 0.00254100 -0.03848700
v 0.12113500 0.00254100 -0.03848700
v 0.12112300 0.00253200 -0.03850000
v 0.12112300 0.00253200 -0.03850000
v 0.12109800 0.00251400 -0.03852500
v 0.12109800 0.00251400 -0.03852500
v 0.12113500 0.00256200 -0.03848800
v 0.12113500 0.00256200 -0.03848800
v 0.12113500 0.00256200 -0.03848800
v 0.12108200 0.00250800 -0.03854000
v 0.12108200 0.00250800 -0.03854000
v 0.12199900 0.00617200 -0.03758200
v 0.12108100 0.00250700 -0.03854200
v 0.12108100 0.00250700 -0.03854200
v 0.12104000 0.00250000 -0.03858300
v 0.12199900 0.00617200 -0.03758200
v 0.12103900 0.00250000 -0.03858400
v 0.12102200 0.00250100 -0.03860100
v 0.12102200 0.00250100 -0.03860100
v 0.12099500 0.00250900 -0.03862800
v 0.12199900 0.00617200 -0.03758200
v 0.12098100 0.00251400 -0.03864200
v 0.12096400 0.00252300 -0.03865800
v 0.12096400 0.00252300 -0.03865800
v 0.12095400 0.00253200 -0.03866800
v 0.12199900 0.00617200 -0.03758200
v 0.12092900 0.00255400 -0.03869400
v 0.12091800 0.00256800 -0.03870500
v 0.12183400 0.00650000 -0.03775300
v 0.12187500 0.00649300 -0.03771100
v 0.12087000 0.00267200 -0.03875200
v 0.12187500 0.00649300 -0.03771100
v 0.12187500 0.00649300 -0.03771100
v 0.12087000 0.00267200 -0.03875200
v 0.12189100 0.00648600 -0.03769300
v 0.12191200 0.00647100 -0.03767200
v 0.12191200 0.00647100 -0.03767200
v 0.12192800 0.00646000 -0.03765500
v 0.12087000 0.00267200 -0.03875200
v 0.12194200 0.00644500 -0.03764000
v 0.12194600 0.00643900 -0.03763600
v 0.12194600 0.00643900 -0.03763600
v 0.12197100 0.00640300 -0.03761100
v 0.12087000 0.00267200 -0.03875200
v 0.12197400 0.00639600 -0.03760700
v 0.12198100 0.00638200 -0.03760000
v 0.12198100 0.00638200 -0.03760000
v 0.12199300 0.00634500 -0.03758700
v 0.12087000 0.00267200 -0.03875200
v 0.12199900 0.00632900 -0.03758200
v 0.12200300 0.00630500 -0.03757700
v 0.12200300 0.00630500 -0.03757700
v 0.12200500 0.00628800 -0.03757600
v 0.12087000 0.00267200 -0.03875200
v 0.12200800 0.00624600 -0.03757300
v 0.12200700 0.00623000 -0.03757400
v 0.12091800 0.00256800 -0.03870500
v 0.12091500 0.00257100 -0.03870700
v 0.12199900 0.00617200 -0.03758200
v 0.12088900 0.00261600 -0.03873300
v 0.12088900 0.00261700 -0.03873300
v 0.12200700 0.00623000 -0.03757400
v 0.12200700 0.00622100 -0.03757400
v 0.12087000 0.00267200 -0.03875200
v 0.12199900 0.00617200 -0.03758200
v 0.12088000 0.00263800 -0.03874200
v 0.12088900 0.00261700 -0.03873300
v 0.12006900 0.00641000 -0.03951300
v 0.12009100 0.00643900 -0.03949100
v 0.12009100 0.00643900 -0.03949100
v 0.12009700 0.00636100 -0.03948600
v 0.12009700 0.00636100 -0.03948600
v 0.12010000 0.00645100 -0.03948300
v 0.12010000 0.00645100 -0.03948300
v 0.12011500 0.00646500 -0.03946800
v 0.12011500 0.00646500 -0.03946800
v 0.12012600 0.00647100 -0.03945800
v 0.12012600 0.00647100 -0.03945800
v 0.12009700 0.00636100 -0.03948600
v 0.12009700 0.00636100 -0.03948600
v 0.12009700 0.00636100 -0.03948600
v 0.12015400 0.00648900 -0.03943100
v 0.12015400 0.00648900 -0.03943100
v 0.12016600 0.00649300 -0.03942000
v 0.12002800 0.00625500 -0.03955300
v 0.12003100 0.00628800 -0.03955000
v 0.12009700 0.00636100 -0.03948600
v 0.12003100 0.00628800 -0.03955000
v 0.12003400 0.00631400 -0.03954700
v 0.12003400 0.00631400 -0.03954700
v 0.12009700 0.00636100 -0.03948600
v 0.12009700 0.00636100 -0.03948600
v 0.12009700 0.00636100 -0.03948600
v 0.12003900 0.00633700 -0.03954200
v 0.12003900 0.00633700 -0.03954200
v 0.12004200 0.00634500 -0.03953900
v 0.12004200 0.00634500 -0.03953900
v 0.12005800 0.00639000 -0.03952300
v 0.12005800 0.00639000 -0.03952300
v 0.12009700 0.00636100 -0.03948600
v 0.12009700 0.00636100 -0.03948600
v 0.12009700 0.00636100 -0.03948600
v 0.12006200 0.00639600 -0.03952000
v 0.12006200 0.00639600 -0.03952000
v 0.12006900 0.00641000 -0.03951300
v 0.12087000 0.00267200 -0.03875200
v 0.12003700 0.00617200 -0.03954500
v 0.12183400 0.00650000 -0.03775300
v 0.12002800 0.00623000 -0.03955200
v 0.12002800 0.00623000 -0.03955200
v 0.12009700 0.00636100 -0.03948600
v 0.12009700 0.00636100 -0.03948600
v 0.12009700 0.00636100 -0.03948600
v 0.12002800 0.00623000 -0.03955300
v 0.12002800 0.00623000 -0.03955300
v 0.12002800 0.00625500 -0.03955300
v 0.12016600 0.00649300 -0.03942000
v 0.12017200 0.00649500 -0.03941400
v 0.12017200 0.00649500 -0.03941400
v 0.12009700 0.00636100 -0.03948600
v 0.12009700 0.00636100 -0.03948600
v 0.12009700 0.00636100 -0.03948600
v 0.12020800 0.00650000 -0.03938000
v 0.12020800 0.00650000 -0.03938000
v 0.12183400 0.00650000 -0.03775300
vn 1.00000000 -0.00060000 -0.00000000
vn 1.00000000 -0.00060000 -0.00000000
vn 1.00000000 -0.00060000 -0.00000000
vn 1.00000000 -0.00000000 -0.00000000
vn 1.00000000 -0.00000000 -0.00000000
vn 1.00000000 -0.00000000 -0.00000000
vn 1.00000000 -0.00000000 -0.00000000
vn 1.00000000 -0.00000000 -0.00000000
vn 1.00000000 -0.00000000 -0.00000000
vn 1.00000000 0.00010000 -0.00000000
vn 1.00000000 0.00010000 -0.00000000
vn 1.00000000 0.00010000 -0.00000000
vn 1.00000000 -0.00000000 -0.00000000
vn 1.00000000 -0.00000000 -0.00000000
vn 1.00000000 -0.00000000 -0.00000000
vn 1.00000000 -0.00000000 -0.00000000
vn 1.00000000 -0.00000000 -0.00000000
vn 1.00000000 -0.00000000 -0.00000000
vn 1.00000000 -0.00000000 -0.00000000
vn 1.00000000 -0.00000000 -0.00000000
vn 1.00000000 0.00010000 -0.00000000
vn 1.00000000 -0.00000000 -0.00000000
vn 1.00000000 0.00010000 -0.00000000
vn 1.00000000 0.00010000 -0.00000000
vn 1.00000000 -0.00010000 -0.00000000
vn 1.00000000 -0.00010000 -0.00000000
vn 1.00000000 -0.00000000 -0.00000000
vn 1.00000000 -0.00000000 -0.00000000
vn 1.00000000 -0.00010000 -0.00000000
vn 1.00000000 -0.00000000 -0.00000000
vn 1.00000000 -0.00000000 -0.00000000
vn 1.00000000 -0.00000000 -0.00000000
vn 1.00000000 -0.00000000 -0.00000000
vn 1.00000000 -0.00010000 -0.00000000
vn 1.00000000 -0.00000000 -0.00000000
vn 1.00000000 -0.00010000 -0.00000000
vn 1.00000000 -0.00000000 -0.00000000
vn 1.00000000 -0.00010000 -0.00000000
vn 1.00000000 -0.00000000 -0.00000000
vn 1.00000000 -0.00000000 -0.00000000
vn 1.00000000 -0.00000000 -0.00000000
vn 1.00000000 -0.00000000 -0.00000000
vn 1.00000000 -0.00000000 -0.00000000
vn 1.00000000 -0.00000000 -0.00000000
vn 1.00000000 0.00020000 -0.00000000
vn 1.00000000 -0.00000000 -0.00000000
vn 1.00000000 -0.00000000 -0.00000000
vn 1.00000000 0.00020000 -0.00000000
vn 1.00000000 -0.00010000 -0.00000000
vn 1.00000000 0.00020000 -0.00000000
vn 1.00000000 -0.00010000 -0.00000000
vn 1.00000000 -0.00010000 -0.00000000
vn 1.00000000 -0.00000000 -0.00000000
vn 1.00000000 -0.00000000 -0.00000000
vn 1.00000000 -0.00000000 -0.00000000
vn 1.00000000 -0.00000000 -0.00000000
vn 1.00000000 -0.00000000 -0.00000000
vn 1.00000000 -0.00000000 -0.00000000
vn 1.00000000 -0.00000000 -0.00000000
vn 0.72480000 0.00450000 -0.68890000
vn 0.71020000 0.00180000 -0.70400000
vn 0.70990000 0.00210000 -0.70430000
vn 0.70880000 0.00180000 -0.70540000
vn 0.70860000 0.00200000 -0.70560000
vn 0.70960000 0.00210000 -0.70460000
vn 0.70820000 0.00310000 -0.70600000
vn 0.71010000 0.00150000 -0.70410000
vn 0.70820000 0.00310000 -0.70600000
vn 0.70920000 0.00150000 -0.70500000
vn 0.70720000 0.00310000 -0.70700000
vn 0.70890000 0.00160000 -0.70530000
vn 0.71000000 0.00150000 -0.70420000
vn 0.70960000 0.00160000 -0.70460000
vn 0.70940000 0.00160000 -0.70480000
vn 0.70930000 0.00310000 -0.70490000
vn 0.70920000 0.00300000 -0.70500000
vn 0.70920000 0.00200000 -0.70500000
vn 0.70840000 0.00170000 -0.70580000
vn 0.70890000 0.00300000 -0.70530000
vn 0.70890000 0.00190000 -0.70530000
vn 0.70840000 0.00160000 -0.70580000
vn 0.70890000 0.00180000 -0.70530000
vn 0.70820000 0.00180000 -0.70600000
vn 0.70900000 0.00280000 -0.70520000
vn 0.70820000 0.00270000 -0.70600000
vn 0.70860000 0.00280000 -0.70560000
vn 0.70890000 0.00280000 -0.70530000
vn 0.70920000 0.00290000 -0.70500000
vn 0.70900000 0.00180000 -0.70520000
vn 0.70790000 0.00280000 -0.70630000
vn 0.71010000 0.00030000 -0.70410000
vn 0.72510000 0.00440000 -0.68870000
vn 0.71060000 -0.00010000 -0.70360000
vn 0.70780000 0.00180000 -0.70650000
vn 0.70920000 0.00420000 -0.70500000
vn 0.72480000 0.00460000 -0.68890000
vn 0.70850000 0.00320000 -0.70570000
vn 0.70680000 0.00150000 -0.70740000
vn 0.70680000 0.00190000 -0.70740000
vn 0.70630000 0.00190000 -0.70790000
vn 0.72490000 0.00450000 -0.68880000
vn 0.70610000 0.00170000 -0.70810000
vn 0.70590000 0.00160000 -0.70830000
vn 0.70530000 0.00140000 -0.70890000
vn 0.70530000 0.00170000 -0.70890000
vn 0.72480000 0.00450000 -0.68890000
vn 0.70520000 0.00190000 -0.70900000
vn 0.70510000 0.00170000 -0.70910000
vn 0.72190000 0.00470000 -0.69200000
vn 0.72260000 0.00470000 -0.69130000
vn 0.70400000 0.00180000 -0.71020000
vn 0.73910000 0.01620000 -0.67340000
vn 0.73010000 0.00990000 -0.68330000
vn 0.70410000 0.00180000 -0.71010000
vn 0.72300000 0.00470000 -0.69080000
vn 0.72340000 0.00460000 -0.69040000
vn 0.72320000 0.00480000 -0.69060000
vn 0.72360000 0.00480000 -0.69020000
vn 0.70390000 0.00190000 -0.71030000
vn 0.72370000 0.00470000 -0.69010000
vn 0.72340000 0.00470000 -0.69040000
vn 0.72400000 0.00490000 -0.68980000
vn 0.72460000 0.00490000 -0.68910000
vn 0.70400000 0.00210000 -0.71020000
vn 0.72470000 0.00490000 -0.68900000
vn 0.72420000 0.00500000 -0.68960000
vn 0.72450000 0.00440000 -0.68920000
vn 0.72490000 0.00450000 -0.68890000
vn 0.70410000 0.00180000 -0.71010000
vn 0.72510000 0.00470000 -0.68860000
vn 0.72490000 0.00480000 -0.68880000
vn 0.72460000 0.00360000 -0.68910000
vn 0.72470000 0.00380000 -0.68910000
vn 0.70390000 0.00180000 -0.71030000
vn 0.72500000 0.00480000 -0.68880000
vn 0.72460000 0.00460000 -0.68910000
vn 0.70480000 0.00320000 -0.70940000
vn 0.70480000 0.00270000 -0.70940000
vn 0.72480000 0.00470000 -0.68890000
vn 0.70430000 0.00220000 -0.70990000
vn 0.70420000 0.00280000 -0.71000000
vn 0.72530000 0.00150000 -0.68840000
vn 0.72540000 0.00170000 -0.68840000
vn 0.70390000 0.00220000 -0.71030000
vn 0.72500000 0.00400000 -0.68880000
vn 0.70420000 0.00160000 -0.71000000
vn 0.70440000 0.00140000 -0.70980000
vn 0.68950000 0.00470000 -0.72430000
vn 0.68960000 0.00480000 -0.72420000
vn 0.68960000 0.00480000 -0.72410000
vn 0.68970000 0.00470000 -0.72410000
vn 0.68980000 0.00470000 -0.72400000
vn 0.69000000 0.00480000 -0.72380000
vn 0.68990000 0.00480000 -0.72390000
vn 0.69020000 0.00490000 -0.72360000
vn 0.69050000 0.00480000 -0.72330000
vn 0.69070000 0.00490000 -0.72320000
vn 0.69090000 0.00460000 -0.72290000
vn 0.69020000 0.00470000 -0.72360000
vn 0.69000000 0.00500000 -0.72380000
vn 0.69020000 0.00510000 -0.72360000
vn 0.69100000 0.00510000 -0.72290000
vn 0.69120000 0.00520000 -0.72260000
vn 0.69140000 0.00530000 -0.72250000
vn 0.68860000 0.00440000 -0.72520000
vn 0.68860000 0.00450000 -0.72510000
vn 0.68980000 0.00450000 -0.72400000
vn 0.68900000 0.00440000 -0.72470000
vn 0.68860000 0.00490000 -0.72510000
vn 0.68890000 0.00440000 -0.72480000
vn 0.68970000 0.00500000 -0.72410000
vn 0.69000000 0.00400000 -0.72380000
vn 0.68990000 0.00390000 -0.72390000
vn 0.68870000 0.00500000 -0.72500000
vn 0.68870000 0.00380000 -0.72500000
vn 0.68890000 0.00390000 -0.72490000
vn 0.68900000 0.00470000 -0.72480000
vn 0.68930000 0.00470000 -0.72440000
vn 0.68950000 0.00440000 -0.72430000
vn 0.68970000 0.00470000 -0.72410000
vn 0.68990000 0.00430000 -0.72390000
vn 0.69010000 0.00510000 -0.72370000
vn 0.68950000 0.00440000 -0.72430000
vn 0.68960000 0.00530000 -0.72410000
vn 0.68980000 0.00550000 -0.72400000
vn 0.70400000 0.00190000 -0.71020000
vn 0.68880000 0.00460000 -0.72490000
vn 0.72180000 0.00480000 -0.69200000
vn 0.68870000 0.00460000 -0.72500000
vn 0.68690000 0.00790000 -0.72670000
vn 0.69000000 0.00460000 -0.72380000
vn 0.68800000 0.00790000 -0.72570000
vn 0.69010000 0.00440000 -0.72370000
vn 0.68680000 0.00780000 -0.72680000
vn 0.68880000 0.00430000 -0.72490000
vn 0.68880000 0.00430000 -0.72490000
vn 0.69040000 0.00480000 -0.72340000
vn 0.69060000 0.00470000 -0.72330000
vn 0.69160000 0.00470000 -0.72230000
vn 0.69000000 0.00460000 -0.72380000
vn 0.68920000 0.00470000 -0.72460000
vn 0.69020000 0.00480000 -0.72360000
vn 0.69220000 0.00490000 -0.72170000
vn 0.69200000 0.00470000 -0.72190000
vn 0.72180000 0.00470000 -0.69200000
f 1//1 2//2 3//3
f 4//4 5//5 6//6
f 7//7 8//8 9//9
f 10//10 11//11 12//12
f 13//13 14//14 15//15
f 14//14 16//16 15//15
f 15//15 16//16 17//17
f 18//18 19//19 20//20
f 19//19 22//22 20//20
f 21//21 23//23 24//24
f 25//25 26//26 29//29
f 27//27 30//30 28//28
f 28//28 30//30 31//31
f 32//32 33//33 35//35
f 33//33 37//37 35//35
f 34//34 36//36 38//38
f 39//39 40//40 41//41
f 40//40 42//42 41//41
f 41//41 42//42 43//43
f 44//44 46//46 47//47
f 45//45 50//50 48//48
f 49//49 51//51 52//52
f 53//53 54//54 55//55
f 54//54 56//56 55//55
f 55//55 56//56 57//57
f 56//56 58//58 57//57
f 57//57 58//58 59//59
f 60//60 61//61 63//63
f 62//62 65//65 64//64
f 66//66 68//68 70//70
f 67//67 72//72 69//69
f 71//71 73//73 74//74
f 75//75 76//76 79//79
f 77//77 82//82 80//80
f 78//78 81//81 83//83
f 84//84 86//86 88//88
f 85//85 90//90 87//87
f 89//89 91//91 92//92
f 91//91 93//93 92//92
f 94//94 95//95 96//96
f 95//95 97//97 96//96
f 96//96 97//97 98//98
f 99//99 100//100 101//101
f 100//100 102//102 101//101
f 101//101 102//102 103//103
f 104//104 105//105 106//106
f 105//105 107//107 106//106
f 106//106 107//107 108//108
f 109//109 110//110 111//111
f 112//112 113//113 114//114
f 113//113 115//115 114//114
f 114//114 115//115 116//116
f 117//117 118//118 119//119
f 118//118 120//120 119//119
f 119//119 120//120 121//121
f 122//122 123//123 124//124
f 123//123 125//125 124//124
f 124//124 125//125 126//126
f 127//127 128//128 129//129
f 128//128 130//130 129//129
f 129//129 130//130 131//131
f 132//132 133//133 134//134
f 133//133 135//135 134//134
f 134//134 135//135 136//136
f 137//137 138//138 139//139
f 138//138 140//140 139//139
f 139//139 140//140 141//141
f 142//142 143//143 144//144
f 143//143 145//145 144//144
f 144//144 145//145 146//146
f 145//145 147//147 146//146
f 148//148 149//149 151//151
f 150//150 154//154 152//152
f 152//152 153//153 155//155
f 156//156 158//158 159//159
f 157//157 162//162 160//160
f 161//161 163//163 164//164
f 165//165 166//166 167//167
f 168//168 170//170 172//172
f 169//169 174//174 171//171
f 173//173 175//175 176//176
f 177//177 178//178 180//180
f 179//179 183//183 181//181
f 182//182 184//184 185//185
f 186//186 187//187 188//188
f 187//187 189//189 188//188
f 188//188 189//189 191//191
f 190//190 194//194 192//192
f 193//193 195//195 196//196
f 197//197 198//198 201//201
f 199//199 203//203 202//202
f 200//200 204//204 205//205

