mtllib material.mtl
usemtl Coordinates_X
v -0.14094100 -0.00129300 0.00950000
v -0.13895000 -0.00011200 0.00950000
v -0.14132300 -0.00051500 0.00950000
v -0.13895300 0.00032000 0.00950000
v -0.14096200 0.00146900 0.00950000
v -0.14133200 0.00068500 0.00950000
v -0.13883500 0.00004000 0.00950000
v -0.13882700 0.00010500 0.00950000
v -0.13883600 0.00016900 0.00950000
v -0.15082200 0.00042400 0.00950000
v -0.15083000 0.00035900 0.00950000
v -0.15058200 0.00061100 0.00950000
v -0.13883500 0.00004000 0.00950000
v -0.13883600 0.00016900 0.00950000
v -0.13886000 -0.00002000 0.00950000
v -0.14101600 0.00149100 0.00950000
v -0.14133000 0.00130700 0.00950000
v -0.14096200 0.00146900 0.00950000
v -0.14133700 0.00125000 0.00950000
v -0.14133200 0.00068500 0.00950000
v -0.15083000 0.00035900 0.00950000
v -0.15057200 -0.00058900 0.00950000
v -0.15058200 0.00061100 0.00950000
v -0.14132300 -0.00051500 0.00950000
v -0.14133200 0.00068500 0.00950000
v -0.13895000 -0.00011200 0.00950000
v -0.13895300 0.00032000 0.00950000
v -0.13889900 -0.00007200 0.00950000
v -0.13890100 0.00028000 0.00950000
v -0.13886000 -0.00002000 0.00950000
v -0.13883600 0.00016900 0.00950000
v -0.13889900 -0.00007200 0.00950000
v -0.13886200 0.00022900 0.00950000
v -0.13890100 0.00028000 0.00950000
v -0.15064600 0.00060200 0.00950000
v -0.15070600 0.00057700 0.00950000
v -0.15075800 0.00053700 0.00950000
v -0.15083000 0.00035900 0.00950000
v -0.15082400 -0.00034100 0.00950000
v -0.15057200 -0.00058900 0.00950000
v -0.15081500 -0.00040500 0.00950000
v -0.15079000 -0.00046500 0.00950000
v -0.15079000 -0.00046500 0.00950000
v -0.15075000 -0.00051700 0.00950000
v -0.15057200 -0.00058900 0.00950000
v -0.15069700 -0.00055600 0.00950000
v -0.15063700 -0.00058100 0.00950000
v -0.14132300 -0.00051500 0.00950000
v -0.14131800 -0.00108000 0.00950000
v -0.14094100 -0.00129300 0.00950000
v -0.14131100 -0.00113800 0.00950000
v -0.14129000 -0.00119300 0.00950000
v -0.14101600 0.00149100 0.00950000
v -0.14107300 0.00150100 0.00950000
v -0.14133000 0.00130700 0.00950000
v -0.14113100 0.00149800 0.00950000
v -0.14118700 0.00148100 0.00950000
v -0.14118700 0.00148100 0.00950000
v -0.14123700 0.00145100 0.00950000
v -0.14133000 0.00130700 0.00950000
v -0.14133000 0.00130700 0.00950000
v -0.14127900 0.00141100 0.00950000
v -0.14127900 0.00141100 0.00950000
v -0.14131100 0.00136200 0.00950000
v -0.15064600 0.00060200 0.00950000
v -0.15075800 0.00053700 0.00950000
v -0.15058200 0.00061100 0.00950000
v -0.15079700 0.00048400 0.00950000
v -0.15082200 0.00042400 0.00950000
v -0.14129000 -0.00119300 0.00950000
v -0.14125800 -0.00124100 0.00950000
v -0.14094100 -0.00129300 0.00950000
v -0.14121500 -0.00128000 0.00950000
v -0.14116500 -0.00130900 0.00950000
v -0.14116500 -0.00130900 0.00950000
v -0.14110900 -0.00132500 0.00950000
v -0.14094100 -0.00129300 0.00950000
v -0.14105100 -0.00132800 0.00950000
v -0.14099400 -0.00131700 0.00950000
v -0.14775600 0.00688400 0.00950000
v -0.14775100 0.00614500 0.00950000
v -0.14732400 0.00705700 0.00950000
v -0.14596700 0.00414100 0.00950000
v -0.14681800 0.00505100 0.00950000
v -0.14760200 0.00464300 0.00950000
v -0.14589700 0.00552900 0.00950000
v -0.14504600 0.00461900 0.00950000
v -0.14461400 0.00619600 0.00950000
v -0.14437800 0.00496600 0.00950000
v -0.14760200 0.00464300 0.00950000
v -0.14764800 0.00461300 0.00950000
v -0.14596700 0.00414100 0.00950000
v -0.14768600 0.00457300 0.00950000
v -0.14771400 0.00452600 0.00950000
v -0.14422500 0.00291200 0.00950000
v -0.14423100 0.00365000 0.00950000
v -0.14465700 0.00273900 0.00950000
v -0.14423900 0.00371200 0.00950000
v -0.14771400 0.00452600 0.00950000
v -0.14773100 0.00447400 0.00950000
v -0.14596700 0.00414100 0.00950000
v -0.14773700 0.00442000 0.00950000
v -0.14736500 0.00341400 0.00950000
v -0.14773700 0.00442000 0.00950000
v -0.14773100 0.00363400 0.00950000
v -0.14736500 0.00341400 0.00950000
v -0.14772200 0.00357100 0.00950000
v -0.14769800 0.00351200 0.00950000
v -0.14732400 0.00705700 0.00950000
v -0.14768300 0.00597700 0.00950000
v -0.14589700 0.00552900 0.00950000
v -0.14681800 0.00505100 0.00950000
v -0.14504600 0.00461900 0.00950000
v -0.14596700 0.00414100 0.00950000
v -0.14429800 0.00381900 0.00950000
v -0.14465700 0.00273900 0.00950000
v -0.14426200 0.00376900 0.00950000
v -0.14423900 0.00371200 0.00950000
v -0.14428500 0.00274700 0.00950000
v -0.14425200 0.00279600 0.00950000
v -0.14465700 0.00273900 0.00950000
v -0.14423100 0.00285200 0.00950000
v -0.14422500 0.00291200 0.00950000
v -0.14775100 0.00614500 0.00950000
v -0.14774200 0.00608400 0.00950000
v -0.14774200 0.00608400 0.00950000
v -0.14732400 0.00705700 0.00950000
v -0.14732400 0.00705700 0.00950000
v -0.14772000 0.00602700 0.00950000
v -0.14768300 0.00597700 0.00950000
v -0.14425800 0.00603900 0.00950000
v -0.14428200 0.00609800 0.00950000
v -0.14428200 0.00609800 0.00950000
v -0.14424900 0.00597600 0.00950000
v -0.14424900 0.00597600 0.00950000
v -0.14432000 0.00614900 0.00950000
v -0.14432000 0.00614900 0.00950000
v -0.14437000 0.00618800 0.00950000
v -0.14424900 0.00597600 0.00950000
v -0.14442800 0.00621400 0.00950000
v -0.14449100 0.00622400 0.00950000
v -0.14429400 0.00503700 0.00950000
v -0.14426600 0.00508400 0.00950000
v -0.14433200 0.00499700 0.00950000
v -0.14424900 0.00513600 0.00950000
v -0.14437800 0.00496600 0.00950000
v -0.14424300 0.00519000 0.00950000
v -0.14461400 0.00619600 0.00950000
v -0.14424900 0.00597600 0.00950000
v -0.14455500 0.00621800 0.00950000
v -0.14449100 0.00622400 0.00950000
v -0.14769600 0.00704900 0.00950000
v -0.14772900 0.00699900 0.00950000
v -0.14732400 0.00705700 0.00950000
v -0.14775000 0.00694300 0.00950000
v -0.14775600 0.00688400 0.00950000
v -0.14742500 0.00339200 0.00950000
v -0.14736500 0.00341400 0.00950000
v -0.14748900 0.00338600 0.00950000
v -0.14755100 0.00339600 0.00950000
v -0.14769800 0.00351200 0.00950000
v -0.14766000 0.00346100 0.00950000
v -0.14736500 0.00341400 0.00950000
v -0.14761000 0.00342200 0.00950000
v -0.14755100 0.00339600 0.00950000
v -0.14450000 0.00266100 0.00950000
v -0.14444000 0.00266200 0.00950000
v -0.14455800 0.00267400 0.00950000
v -0.14438200 0.00267800 0.00950000
v -0.14461200 0.00270100 0.00950000
v -0.14461200 0.00270100 0.00950000
v -0.14438200 0.00267800 0.00950000
v -0.14465700 0.00273900 0.00950000
v -0.14433000 0.00270600 0.00950000
v -0.14428500 0.00274700 0.00950000
v -0.14759900 0.00711800 0.00950000
v -0.14742300 0.00712200 0.00950000
v -0.14754100 0.00713300 0.00950000
v -0.14748200 0.00713500 0.00950000
v -0.14732400 0.00705700 0.00950000
v -0.14737000 0.00709500 0.00950000
v -0.14769600 0.00704900 0.00950000
v -0.14742300 0.00712200 0.00950000
v -0.14765200 0.00708900 0.00950000
v -0.14759900 0.00711800 0.00950000
vn -0.00000000 -0.00000000 1.00000000
vn -0.00000000 -0.00000000 1.00000000
vn -0.00000000 -0.00000000 1.00000000
vn -0.00000000 -0.00000000 1.00000000
vn -0.00000000 -0.00000000 1.00000000
vn -0.00000000 -0.00000000 1.00000000
vn -0.00020000 -0.00000000 1.00000000
vn -0.00020000 -0.00000000 1.00000000
vn -0.00020000 -0.00000000 1.00000000
vn -0.00000000 -0.00000000 1.00000000
vn -0.00000000 -0.00000000 1.00000000
vn -0.00000000 -0.00000000 1.00000000
vn -0.00010000 -0.00000000 1.00000000
vn -0.00010000 -0.00000000 1.00000000
vn -0.00010000 -0.00000000 1.00000000
vn -0.00000000 -0.00000000 1.00000000
vn -0.00000000 -0.00000000 1.00000000
vn -0.00000000 -0.00000000 1.00000000
vn -0.00000000 -0.00000000 1.00000000
vn -0.00000000 -0.00000000 1.00000000
vn -0.00000000 -0.00000000 1.00000000
vn -0.00000000 -0.00000000 1.00000000
vn -0.00000000 -0.00000000 1.00000000
vn -0.00000000 -0.00000000 1.00000000
vn -0.00000000 -0.00000000 1.00000000
vn -0.00000000 -0.00000000 1.00000000
vn -0.00000000 -0.00000000 1.00000000
vn -0.00000000 -0.00000000 1.00000000
vn -0.00000000 -0.00000000 1.00000000
vn -0.00000000 -0.00000000 1.00000000
vn -0.00000000 -0.00000000 1.00000000
vn -0.00000000 -0.00000000 1.00000000
vn -0.00000000 -0.00000000 1.00000000
vn -0.00000000 -0.00000000 1.00000000
vn -0.00010000 -0.00000000 1.00000000
vn -0.00010000 -0.00000000 1.00000000
vn -0.00010000 -0.00000000 1.00000000
vn -0.00000000 -0.00000000 1.00000000
vn -0.00000000 -0.00000000 1.00000000
vn -0.00000000 -0.00000000 1.00000000
vn -0.00000000 -0.00000000 1.00000000
vn -0.00000000 -0.00000000 1.00000000
vn -0.00000000 -0.00000000 1.00000000
vn -0.00000000 -0.00000000 1.00000000
vn -0.00000000 -0.00000000 1.00000000
vn -0.00000000 -0.00000000 1.00000000
vn -0.00000000 -0.00000000 1.00000000
vn -0.00000000 -0.00000000 1.00000000
vn -0.00000000 -0.00000000 1.00000000
vn -0.00000000 -0.00000000 1.00000000
vn -0.00000000 -0.00000000 1.00000000
vn -0.00000000 -0.00000000 1.00000000
vn -0.00000000 -0.00000000 1.00000000
vn -0.00000000 -0.00000000 1.00000000
vn -0.00000000 -0.00000000 1.00000000
vn -0.00000000 -0.00000000 1.00000000
vn -0.00000000 -0.00000000 1.00000000
vn -0.00000000 -0.00000000 1.00000000
vn -0.00000000 -0.00000000 1.00000000
vn -0.00000000 -0.00000000 1.00000000
vn 0.00010000 -0.00000000 1.00000000
vn 0.00010000 -0.00000000 1.00000000
vn -0.00000000 -0.00000000 1.00000000
vn 0.00010000 -0.00000000 1.00000000
vn -0.00000000 -0.00000000 1.00000000
vn -0.00000000 -0.00000000 1.00000000
vn -0.00000000 -0.00000000 1.00000000
vn -0.00000000 -0.00000000 1.00000000
vn -0.00000000 -0.00000000 1.00000000
vn -0.00000000 -0.00000000 1.00000000
vn -0.00000000 -0.00000000 1.00000000
vn -0.00000000 -0.00000000 1.00000000
vn -0.00000000 -0.00000000 1.00000000
vn -0.00000000 -0.00000000 1.00000000
vn -0.00000000 -0.00000000 1.00000000
vn -0.00000000 -0.00000000 1.00000000
vn -0.00000000 -0.00000000 1.00000000
vn -0.00000000 -0.00000000 1.00000000
vn -0.00000000 -0.00000000 1.00000000
vn -0.00000000 -0.00000000 1.00000000
vn -0.00000000 -0.00000000 1.00000000
vn -0.00000000 -0.00000000 1.00000000
vn -0.00000000 -0.00000000 1.00000000
vn -0.00000000 -0.00000000 1.00000000
vn -0.00000000 -0.00000000 1.00000000
vn -0.00000000 -0.00000000 1.00000000
vn -0.00000000 -0.00000000 1.00000000
vn -0.00000000 -0.00000000 1.00000000
vn -0.00000000 -0.00000000 1.00000000
vn -0.00000000 -0.00000000 1.00000000
vn -0.00000000 -0.00000000 1.00000000
vn -0.00000000 -0.00000000 1.00000000
vn -0.00000000 -0.00000000 1.00000000
vn -0.00000000 -0.00000000 1.00000000
vn -0.00000000 -0.00000000 1.00000000
vn -0.00000000 -0.00000000 1.00000000
vn -0.00000000 -0.00000000 1.00000000
vn -0.00000000 -0.00000000 1.00000000
vn -0.00000000 -0.00000000 1.00000000
vn -0.00000000 -0.00000000 1.00000000
vn -0.00000000 -0.00000000 1.00000000
vn -0.00000000 -0.00000000 1.00000000
vn -0.00000000 -0.00000000 1.00000000
vn -0.00000000 -0.00000000 1.00000000
vn -0.00000000 -0.00000000 1.00000000
vn -0.00000000 -0.00000000 1.00000000
vn -0.00000000 -0.00000000 1.00000000
vn -0.00000000 -0.00000000 1.00000000
vn -0.00000000 -0.00000000 1.00000000
vn -0.00000000 -0.00000000 1.00000000
vn -0.00000000 -0.00000000 1.00000000
vn -0.00000000 -0.00000000 1.00000000
vn -0.00000000 -0.00000000 1.00000000
vn -0.00000000 -0.00000000 1.00000000
vn -0.00000000 -0.00000000 1.00000000
vn -0.00000000 -0.00000000 1.00000000
vn -0.00000000 -0.00000000 1.00000000
vn -0.00000000 -0.00000000 1.00000000
vn -0.00000000 -0.00000000 1.00000000
vn -0.00000000 -0.00000000 1.00000000
vn -0.00000000 -0.00000000 1.00000000
vn -0.00000000 -0.00000000 1.00000000
vn -0.00000000 -0.00000000 1.00000000
vn -0.00010000 -0.00000000 1.00000000
vn -0.00010000 -0.00000000 1.00000000
vn -0.00000000 -0.00000000 1.00000000
vn -0.00000000 -0.00000000 1.00000000
vn -0.00010000 -0.00000000 1.00000000
vn -0.00000000 -0.00000000 1.00000000
vn -0.00000000 -0.00000000 1.00000000
vn -0.00020000 -0.00000000 1.00000000
vn -0.00020000 -0.00000000 1.00000000
vn 0.00010000 -0.00000000 1.00000000
vn 0.00010000 -0.00000000 1.00000000
vn -0.00020000 -0.00000000 1.00000000
vn 0.00010000 -0.00000000 1.00000000
vn -0.00000000 -0.00000000 1.00000000
vn -0.00000000 -0.00000000 1.00000000
vn -0.00000000 -0.00000000 1.00000000
vn -0.00000000 -0.00000000 1.00000000
vn -0.00000000 -0.00000000 1.00000000
vn -0.00000000 -0.00000000 1.00000000
vn -0.00000000 -0.00000000 1.00000000
vn -0.00000000 -0.00000000 1.00000000
vn -0.00000000 -0.00000000 1.00000000
vn -0.00000000 -0.00000000 1.00000000
vn -0.00000000 -0.00000000 1.00000000
vn -0.00000000 -0.00000000 1.00000000
vn -0.00000000 -0.00000000 1.00000000
vn -0.00000000 -0.00000000 1.00000000
vn -0.00000000 -0.00000000 1.00000000
vn -0.00000000 -0.00000000 1.00000000
vn -0.00000000 -0.00000000 1.00000000
vn -0.00000000 -0.00000000 1.00000000
vn -0.00000000 -0.00000000 1.00000000
vn -0.00000000 -0.00000000 1.00000000
vn -0.00000000 -0.00000000 1.00000000
vn -0.00000000 -0.00000000 1.00000000
vn -0.00000000 -0.00000000 1.00000000
vn -0.00000000 -0.00000000 1.00000000
vn -0.00000000 -0.00000000 1.00000000
vn -0.00000000 -0.00000000 1.00000000
vn -0.00000000 -0.00000000 1.00000000
vn -0.00000000 -0.00000000 1.00000000
vn -0.00000000 -0.00000000 1.00000000
vn -0.00000000 -0.00000000 1.00000000
vn -0.00000000 -0.00000000 1.00000000
vn -0.00000000 -0.00000000 1.00000000
vn -0.00000000 -0.00000000 1.00000000
vn -0.00000000 -0.00000000 1.00000000
vn -0.00000000 -0.00000000 1.00000000
vn -0.00000000 -0.00000000 1.00000000
vn -0.00000000 -0.00000000 1.00000000
vn -0.00000000 -0.00000000 1.00000000
vn -0.00000000 -0.00000000 1.00000000
vn -0.00000000 -0.00000000 1.00000000
vn -0.00000000 -0.00000000 1.00000000
vn -0.00000000 -0.00000000 1.00000000
vn -0.00000000 -0.00000000 1.00000000
vn -0.00000000 -0.00000000 1.00000000
vn -0.00000000 -0.00000000 1.00000000
vn -0.00000000 -0.00000000 1.00000000
vn -0.00000000 -0.00000000 1.00000000
vn -0.00000000 -0.00000000 1.00000000
vn -0.00000000 -0.00000000 1.00000000
f 1//1 2//2 3//3
f 4//4 5//5 6//6
f 7//7 8//8 9//9
f 10//10 11//11 12//12
f 13//13 14//14 15//15
f 16//16 17//17 18//18
f 17//17 19//19 18//18
f 18//18 19//19 20//20
f 21//21 22//22 23//23
f 22//22 24//24 23//23
f 23//23 24//24 25//25
f 24//24 26//26 25//25
f 25//25 26//26 27//27
f 26//26 28//28 27//27
f 27//27 28//28 29//29
f 30//30 31//31 32//32
f 31//31 33//33 32//32
f 32//32 33//33 34//34
f 35//35 36//36 37//37
f 38//38 39//39 40//40
f 39//39 41//41 40//40
f 40//40 41//41 42//42
f 43//43 44//44 45//45
f 44//44 46//46 45//45
f 45//45 46//46 47//47
f 48//48 49//49 50//50
f 49//49 51//51 50//50
f 50//50 51//51 52//52
f 53//53 54//54 55//55
f 54//54 56//56 55//55
f 55//55 56//56 57//57
f 58//58 59//59 60//60
f 59//59 63//63 60//60
f 61//61 62//62 64//64
f 65//65 66//66 67//67
f 66//66 68//68 67//67
f 67//67 68//68 69//69
f 70//70 71//71 72//72
f 71//71 73//73 72//72
f 72//72 73//73 74//74
f 75//75 76//76 77//77
f 76//76 78//78 77//77
f 77//77 78//78 79//79
f 80//80 81//81 82//82
f 83//83 84//84 85//85
f 86//86 87//87 88//88
f 87//87 89//89 88//88
f 90//90 91//91 92//92
f 91//91 93//93 92//92
f 92//92 93//93 94//94
f 95//95 96//96 97//97
f 96//96 98//98 97//97
f 99//99 100//100 101//101
f 100//100 102//102 101//101
f 101//101 102//102 103//103
f 104//104 105//105 106//106
f 105//105 107//107 106//106
f 106//106 107//107 108//108
f 109//109 110//110 111//111
f 110//110 112//112 111//111
f 111//111 112//112 113//113
f 112//112 114//114 113//113
f 113//113 114//114 115//115
f 114//114 116//116 115//115
f 115//115 116//116 117//117
f 116//116 118//118 117//117
f 119//119 120//120 121//121
f 120//120 122//122 121//121
f 121//121 122//122 123//123
f 124//124 125//125 128//128
f 126//126 129//129 127//127
f 127//127 129//129 130//130
f 131//131 132//132 135//135
f 133//133 136//136 134//134
f 137//137 138//138 139//139
f 138//138 140//140 139//139
f 139//139 140//140 141//141
f 142//142 143//143 144//144
f 143//143 145//145 144//144
f 144//144 145//145 146//146
f 145//145 147//147 146//146
f 146//146 147//147 148//148
f 147//147 149//149 148//148
f 148//148 149//149 150//150
f 149//149 151//151 150//150
f 152//152 153//153 154//154
f 153//153 155//155 154//154
f 154//154 155//155 156//156
f 157//157 158//158 159//159
f 158//158 160//160 159//159
f 161//161 162//162 163//163
f 162//162 164//164 163//163
f 163//163 164//164 165//165
f 166//166 167//167 168//168
f 167//167 169//169 168//168
f 168//168 169//169 170//170
f 171//171 172//172 173//173
f 172//172 174//174 173//173
f 173//173 174//174 175//175
f 176//176 177//177 178//178
f 177//177 179//179 178//178
f 180//180 181//181 182//182
f 181//181 183//183 182//182
f 182//182 183//183 184//184
f 183//183 185//185 184//184

