mtllib material.mtl
usemtl EU
v -0.00516800 0.06500000 0.03009900
v -0.00552400 0.06500000 0.03072400
v 0.00539600 0.06500000 0.03230000
v -0.00307100 0.06500000 0.02703300
v -0.00328900 0.06500000 0.02712100
v 0.00539600 0.06500000 0.03230000
v -0.00330000 0.06500000 0.02712500
v -0.00552500 0.06500000 0.03230000
v -0.00516400 0.06500000 0.03230000
v -0.00581100 0.06500000 0.03223200
v 0.00275800 0.06500000 0.02700000
v -0.00281500 0.06500000 0.02700000
v -0.00281500 0.06500000 0.02700000
v 0.00539600 0.06500000 0.03230000
v 0.00539600 0.06500000 0.03230000
v 0.00539600 0.06500000 0.03230000
v -0.00305500 0.06500000 0.02703100
v -0.00305500 0.06500000 0.02703100
v -0.00307100 0.06500000 0.02703300
v -0.00330000 0.06500000 0.02712500
v -0.00339200 0.06500000 0.02719200
v -0.00339200 0.06500000 0.02719200
v 0.00539600 0.06500000 0.03230000
v 0.00539600 0.06500000 0.03230000
v -0.00349700 0.06500000 0.02726900
v -0.00356800 0.06500000 0.02735400
v -0.00516800 0.06500000 0.03009900
v 0.00539600 0.06500000 0.03230000
v -0.00481200 0.06500000 0.02947300
v -0.00606800 0.06500000 0.03179400
v -0.00606200 0.06500000 0.03184700
v 0.00539600 0.06500000 0.03230000
v -0.00601300 0.06500000 0.03202900
v -0.00598700 0.06500000 0.03206700
v -0.00598700 0.06500000 0.03206700
v 0.00539600 0.06500000 0.03230000
v 0.00539600 0.06500000 0.03230000
v 0.00539600 0.06500000 0.03230000
v -0.00594900 0.06500000 0.03212400
v -0.00594900 0.06500000 0.03212400
v -0.00590900 0.06500000 0.03216000
v -0.00590900 0.06500000 0.03216000
v -0.00585900 0.06500000 0.03220600
v -0.00585900 0.06500000 0.03220600
v 0.00539600 0.06500000 0.03230000
v 0.00539600 0.06500000 0.03230000
v -0.00581100 0.06500000 0.03223200
v -0.00581100 0.06500000 0.03223200
v -0.00581100 0.06500000 0.03223200
v -0.00481200 0.06500000 0.03230000
v -0.00481200 0.06500000 0.03230000
v -0.00516400 0.06500000 0.03230000
v 0.00598900 0.06500000 0.03160600
v 0.00594400 0.06500000 0.03145600
v 0.00549000 0.06500000 0.03229300
v -0.00606200 0.06500000 0.03184700
v -0.00605600 0.06500000 0.03191100
v 0.00539600 0.06500000 0.03230000
v -0.00603600 0.06500000 0.03196400
v -0.00601300 0.06500000 0.03202900
v -0.00581100 0.06500000 0.03223200
v -0.00574800 0.06500000 0.03226600
v -0.00569600 0.06500000 0.03227900
v 0.00336000 0.06500000 0.02717900
v 0.00310100 0.06500000 0.02705500
v 0.00281900 0.06500000 0.02700200
v -0.00552500 0.06500000 0.03230000
v -0.00581100 0.06500000 0.03223200
v -0.00581100 0.06500000 0.03223200
v -0.00557900 0.06500000 0.03229700
v -0.00557900 0.06500000 0.03229700
v -0.00557900 0.06500000 0.03229700
v -0.00569600 0.06500000 0.03227900
v -0.00569600 0.06500000 0.03227900
v -0.00564000 0.06500000 0.03229400
v -0.00356800 0.06500000 0.02735400
v -0.00365600 0.06500000 0.02745900
v -0.00365600 0.06500000 0.02745900
v 0.00539600 0.06500000 0.03230000
v 0.00539600 0.06500000 0.03230000
v -0.00368300 0.06500000 0.02750300
v -0.00368300 0.06500000 0.02750300
v -0.00481200 0.06500000 0.02947300
v -0.00552400 0.06500000 0.03072400
v -0.00576000 0.06500000 0.03113300
v 0.00539600 0.06500000 0.03230000
v -0.00600200 0.06500000 0.03155100
v -0.00605000 0.06500000 0.03166800
v 0.00549000 0.06500000 0.03229300
v 0.00594400 0.06500000 0.03145600
v 0.00594400 0.06500000 0.03145600
v 0.00539600 0.06500000 0.03230000
v 0.00539600 0.06500000 0.03230000
v 0.00539600 0.06500000 0.03230000
v 0.00591700 0.06500000 0.03140200
v 0.00591700 0.06500000 0.03140200
v 0.00275800 0.06500000 0.02700000
v 0.00371200 0.06500000 0.02755300
v 0.00281900 0.06500000 0.02700200
v 0.00357700 0.06500000 0.02736700
v 0.00336000 0.06500000 0.02717900
v -0.00605000 0.06500000 0.03166800
v -0.00605100 0.06500000 0.03167000
v -0.00605100 0.06500000 0.03167000
v 0.00539600 0.06500000 0.03230000
v 0.00539600 0.06500000 0.03230000
v 0.00539600 0.06500000 0.03230000
v -0.00606800 0.06500000 0.03179100
v -0.00606800 0.06500000 0.03179100
v -0.00606800 0.06500000 0.03179400
v 0.00598900 0.06500000 0.03160600
v 0.00549000 0.06500000 0.03229300
v 0.00549000 0.06500000 0.03229300
v 0.00599300 0.06500000 0.03176300
v 0.00599300 0.06500000 0.03176300
v 0.00564100 0.06500000 0.03224800
v 0.00564100 0.06500000 0.03224800
v 0.00564100 0.06500000 0.03224800
v 0.00595600 0.06500000 0.03191500
v 0.00595600 0.06500000 0.03191500
v 0.00577400 0.06500000 0.03216600
v 0.00577400 0.06500000 0.03216600
v 0.00588200 0.06500000 0.03205300
vn -0.00000000 1.00000000 -0.00000000
vn -0.00000000 1.00000000 -0.00000000
vn -0.00000000 1.00000000 -0.00000000
vn -0.00000000 1.00000000 -0.00000000
vn -0.00000000 1.00000000 -0.00000000
vn -0.00000000 1.00000000 -0.00000000
vn -0.00000000 1.00000000 -0.00000000
vn -0.00000000 1.00000000 -0.00000000
vn -0.00000000 1.00000000 -0.00000000
vn -0.00000000 1.00000000 -0.00000000
vn -0.00000000 1.00000000 -0.00000000
vn -0.00000000 1.00000000 -0.00000000
vn -0.00000000 1.00000000 -0.00010000
vn -0.00000000 1.00000000 -0.00000000
vn -0.00000000 1.00000000 -0.00010000
vn -0.00000000 1.00000000 0.00040000
vn -0.00000000 1.00000000 0.00040000
vn -0.00000000 1.00000000 -0.00010000
vn -0.00000000 1.00000000 0.00030000
vn -0.00000000 1.00000000 0.00010000
vn -0.00000000 1.00000000 -0.00000000
vn -0.00000000 1.00000000 0.00010000
vn -0.00000000 1.00000000 0.00010000
vn -0.00000000 1.00000000 -0.00000000
vn -0.00000000 1.00000000 -0.00000000
vn -0.00000000 1.00000000 -0.00000000
vn -0.00000000 1.00000000 -0.00000000
vn -0.00000000 1.00000000 -0.00000000
vn -0.00000000 1.00000000 -0.00000000
vn -0.00000000 1.00000000 0.00020000
vn -0.00000000 1.00000000 0.00020000
vn -0.00000000 1.00000000 0.00020000
vn -0.00000000 1.00000000 0.00030000
vn -0.00000000 1.00000000 -0.00020000
vn -0.00000000 1.00000000 0.00030000
vn -0.00000000 1.00000000 0.00030000
vn -0.00000000 1.00000000 0.00010000
vn -0.00000000 1.00000000 -0.00020000
vn -0.00000000 1.00000000 0.00010000
vn -0.00000000 1.00000000 -0.00020000
vn -0.00000000 1.00000000 0.00010000
vn -0.00000000 1.00000000 -0.00000000
vn -0.00000000 1.00000000 -0.00000000
vn -0.00000000 1.00000000 0.00040000
vn -0.00000000 1.00000000 0.00040000
vn -0.00000000 1.00000000 -0.00000000
vn -0.00000000 1.00000000 -0.00020000
vn -0.00000000 1.00000000 0.00010000
vn -0.00000000 1.00000000 0.00040000
vn -0.00000000 1.00000000 0.00040000
vn -0.00000000 1.00000000 -0.00020000
vn -0.00000000 1.00000000 -0.00020000
vn -0.00000000 1.00000000 -0.00000000
vn -0.00000000 1.00000000 -0.00000000
vn -0.00000000 1.00000000 -0.00000000
vn -0.00000000 1.00000000 -0.00000000
vn -0.00000000 1.00000000 -0.00000000
vn -0.00000000 1.00000000 -0.00000000
vn -0.00000000 1.00000000 -0.00000000
vn -0.00000000 1.00000000 -0.00000000
vn -0.00000000 1.00000000 -0.00050000
vn -0.00000000 1.00000000 -0.00050000
vn -0.00000000 1.00000000 -0.00050000
vn -0.00000000 1.00000000 -0.00020000
vn -0.00000000 1.00000000 -0.00020000
vn -0.00000000 1.00000000 -0.00020000
vn -0.00000000 1.00000000 -0.00000000
vn -0.00000000 1.00000000 0.00030000
vn -0.00000000 1.00000000 -0.00000000
vn -0.00000000 1.00000000 0.00030000
vn -0.00000000 1.00000000 -0.00060000
vn -0.00000000 1.00000000 -0.00000000
vn -0.00000000 1.00000000 0.00030000
vn -0.00000000 1.00000000 -0.00060000
vn -0.00000000 1.00000000 -0.00060000
vn -0.00000000 1.00000000 -0.00000000
vn -0.00000000 1.00000000 0.00020000
vn -0.00000000 1.00000000 -0.00000000
vn -0.00000000 1.00000000 -0.00000000
vn -0.00000000 1.00000000 0.00020000
vn -0.00000000 1.00000000 0.00020000
vn -0.00000000 1.00000000 -0.00000000
vn -0.00000000 1.00000000 -0.00000000
vn -0.00000000 1.00000000 -0.00000000
vn -0.00000000 1.00000000 -0.00000000
vn -0.00000000 1.00000000 -0.00000000
vn -0.00000000 1.00000000 -0.00000000
vn -0.00000000 1.00000000 -0.00000000
vn -0.00000000 1.00000000 0.00010000
vn -0.00000000 1.00000000 -0.00010000
vn -0.00000000 1.00000000 0.00010000
vn -0.00000000 1.00000000 0.00010000
vn -0.00000000 1.00000000 -0.00000000
vn -0.00000000 1.00000000 -0.00010000
vn -0.00000000 1.00000000 -0.00010000
vn -0.00000000 1.00000000 -0.00000000
vn -0.00000000 1.00000000 -0.00000000
vn -0.00000000 1.00000000 -0.00000000
vn -0.00000000 1.00000000 -0.00000000
vn -0.00000000 1.00000000 -0.00000000
vn -0.00000000 1.00000000 -0.00000000
vn -0.00000000 1.00000000 -0.00000000
vn -0.00000000 1.00000000 -0.00000000
vn -0.00000000 1.00000000 -0.00010000
vn -0.00000000 1.00000000 -0.00010000
vn -0.00000000 1.00000000 -0.00000000
vn -0.00000000 1.00000000 -0.00240000
vn -0.00000000 1.00000000 -0.00240000
vn -0.00000000 1.00000000 -0.00010000
vn -0.00000000 1.00000000 -0.00240000
vn -0.00000000 1.00000000 0.00010000
vn -0.00000000 1.00000000 -0.00030000
vn -0.00000000 1.00000000 0.00010000
vn -0.00000000 1.00000000 -0.00000000
vn -0.00000000 1.00000000 0.00010000
vn -0.00000000 1.00000000 -0.00000000
vn -0.00000000 1.00000000 -0.00030000
vn -0.00000000 1.00000000 -0.00010000
vn -0.00000000 1.00000000 -0.00000000
vn -0.00000000 1.00000000 -0.00010000
vn -0.00000000 1.00000000 -0.00010000
vn -0.00000000 1.00000000 -0.00000000
vn -0.00000000 1.00000000 -0.00000000
f 1//1 2//2 3//3
f 4//4 5//5 6//6
f 5//5 7//7 6//6
f 8//8 9//9 10//10
f 11//11 12//12 14//14
f 13//13 18//18 15//15
f 16//16 17//17 19//19
f 20//20 22//22 23//23
f 21//21 25//25 24//24
f 24//24 25//25 26//26
f 27//27 28//28 29//29
f 30//30 31//31 32//32
f 33//33 35//35 36//36
f 34//34 40//40 38//38
f 37//37 39//39 41//41
f 42//42 43//43 46//46
f 44//44 49//49 45//45
f 45//45 48//48 50//50
f 47//47 52//52 51//51
f 53//53 54//54 55//55
f 56//56 57//57 58//58
f 57//57 59//59 58//58
f 58//58 59//59 60//60
f 61//61 62//62 63//63
f 64//64 65//65 66//66
f 67//67 69//69 72//72
f 68//68 73//73 70//70
f 71//71 74//74 75//75
f 76//76 78//78 79//79
f 77//77 81//81 80//80
f 79//79 82//82 83//83
f 84//84 85//85 86//86
f 85//85 87//87 86//86
f 86//86 87//87 88//88
f 89//89 91//91 92//92
f 90//90 95//95 94//94
f 93//93 96//96 97//97
f 96//96 98//98 97//97
f 97//97 98//98 99//99
f 98//98 100//100 99//99
f 99//99 100//100 101//101
f 102//102 103//103 106//106
f 104//104 109//109 105//105
f 107//107 108//108 110//110
f 111//111 113//113 115//115
f 112//112 117//117 114//114
f 114//114 116//116 119//119
f 118//118 121//121 120//120
f 119//119 122//122 123//123

