mtllib material.mtl
usemtl Axis_Number
v 0.05450000 0.00135000 -0.11159700
v 0.05450000 0.00135000 -0.11125000
v 0.05450000 -0.00015200 -0.11200000
v 0.05450000 -0.00015200 -0.11200000
v 0.05450000 0.00135000 -0.11125000
v 0.05450000 -0.00110000 -0.11200000
v 0.05450000 0.00116500 -0.11100900
v 0.05450000 0.00110000 -0.11100000
v 0.05450000 0.00135000 -0.11125000
v 0.05450000 0.00131700 -0.11112500
v 0.05450000 0.00127700 -0.11107300
v 0.05450000 0.00122500 -0.11103400
v 0.05450000 -0.00131700 -0.11187500
v 0.05450000 -0.00127700 -0.11192700
v 0.05450000 -0.00122500 -0.11196700
v 0.05450000 -0.00116500 -0.11199200
v 0.05450000 -0.00110000 -0.11200000
v 0.05450000 -0.00135000 -0.11175000
v 0.05450000 0.00135000 -0.11125000
v 0.05450000 -0.00135000 -0.11125000
v 0.05450000 0.00110000 -0.11100000
v 0.05450000 -0.00110000 -0.11100000
v 0.05450000 -0.00015200 -0.11200000
v 0.05450000 0.00127700 -0.11177300
v 0.05450000 0.00130800 -0.11173500
v 0.05450000 0.00116500 -0.11100900
v 0.05450000 0.00135000 -0.11125000
v 0.05450000 0.00135000 -0.11125000
v 0.05450000 0.00122500 -0.11103400
v 0.05450000 0.00122500 -0.11103400
v 0.05450000 0.00122500 -0.11103400
v 0.05450000 0.00134100 -0.11118500
v 0.05450000 0.00134100 -0.11118500
v 0.05450000 0.00131700 -0.11112500
v 0.05450000 -0.00122500 -0.11103400
v 0.05450000 -0.00127700 -0.11107300
v 0.05450000 -0.00131700 -0.11112500
v 0.05450000 -0.00004000 -0.11328800
v 0.05450000 0.00001200 -0.11328900
v 0.05450000 0.00055100 -0.11249900
v 0.05450000 -0.00110000 -0.11100000
v 0.05450000 -0.00116500 -0.11100900
v 0.05450000 -0.00116500 -0.11100900
v 0.05450000 -0.00135000 -0.11125000
v 0.05450000 -0.00135000 -0.11125000
v 0.05450000 -0.00122500 -0.11103400
v 0.05450000 -0.00122500 -0.11103400
v 0.05450000 -0.00122500 -0.11103400
v 0.05450000 -0.00134100 -0.11118500
v 0.05450000 -0.00134100 -0.11118500
v 0.05450000 -0.00131700 -0.11112500
v 0.05450000 -0.00116500 -0.11199200
v 0.05450000 -0.00135000 -0.11175000
v 0.05450000 -0.00135000 -0.11175000
v 0.05450000 -0.00122500 -0.11196700
v 0.05450000 -0.00122500 -0.11196700
v 0.05450000 -0.00122500 -0.11196700
v 0.05450000 -0.00134100 -0.11181500
v 0.05450000 -0.00134100 -0.11181500
v 0.05450000 -0.00131700 -0.11187500
v 0.05450000 -0.00004000 -0.11328800
v 0.05450000 0.00055100 -0.11249900
v 0.05450000 -0.00049000 -0.11328800
v 0.05450000 0.00127700 -0.11177300
v 0.05450000 -0.00015200 -0.11200000
v 0.05450000 0.00055100 -0.11249900
v 0.05450000 -0.00066700 -0.11251500
v 0.05450000 -0.00070700 -0.11256700
v 0.05450000 0.00130800 -0.11173500
v 0.05450000 0.00133100 -0.11169200
v 0.05450000 -0.00015200 -0.11200000
v 0.05450000 0.00134500 -0.11164500
v 0.05450000 0.00135000 -0.11159700
v 0.05450000 -0.00103200 -0.11379800
v 0.05450000 -0.00137700 -0.11475200
v 0.05450000 -0.00061100 -0.11394200
v 0.05450000 -0.00102100 -0.11489800
v 0.05450000 -0.00011500 -0.11400000
v 0.05450000 -0.00011500 -0.11500000
v 0.05450000 0.00011500 -0.11397700
v 0.05450000 0.00031200 -0.11497600
v 0.05450000 0.00025200 -0.11393100
v 0.05450000 0.00073600 -0.11487300
v 0.05450000 0.00035000 -0.11386900
v 0.05450000 0.00105000 -0.11471500
v 0.05450000 0.00040400 -0.11381100
v 0.05450000 0.00128800 -0.11451400
v 0.05450000 0.00044100 -0.11374700
v 0.05450000 -0.00064600 -0.11323400
v 0.05450000 -0.00059900 -0.11326400
v 0.05450000 -0.00074000 -0.11303800
v 0.05450000 -0.00070700 -0.11256700
v 0.05450000 -0.00073200 -0.11262700
v 0.05450000 0.00055100 -0.11249900
v 0.05450000 -0.00074000 -0.11269200
v 0.05450000 -0.00049000 -0.11328800
v 0.05450000 -0.00049000 -0.11328800
v 0.05450000 -0.00074000 -0.11303800
v 0.05450000 -0.00074000 -0.11303800
v 0.05450000 -0.00074000 -0.11303800
v 0.05450000 -0.00054600 -0.11328200
v 0.05450000 -0.00054600 -0.11328200
v 0.05450000 -0.00059900 -0.11326400
v 0.05450000 0.00001200 -0.11328900
v 0.05450000 0.00021700 -0.11331800
v 0.05450000 0.00021700 -0.11331800
v 0.05450000 0.00055100 -0.11249900
v 0.05450000 0.00055100 -0.11249900
v 0.05450000 0.00032100 -0.11335900
v 0.05450000 0.00032100 -0.11335900
v 0.05450000 0.00093800 -0.11263500
v 0.05450000 0.00035600 -0.11338200
v 0.05450000 0.00119700 -0.11280300
v 0.05450000 0.00040400 -0.11342600
v 0.05450000 0.00040400 -0.11342600
v 0.05450000 0.00138800 -0.11300800
v 0.05450000 0.00138800 -0.11300800
v 0.05450000 0.00043700 -0.11347600
v 0.05450000 0.00043700 -0.11347600
v 0.05450000 0.00151900 -0.11324700
v 0.05450000 0.00045800 -0.11353500
v 0.05450000 0.00158800 -0.11351300
v 0.05450000 0.00046600 -0.11361400
v 0.05450000 0.00160000 -0.11372600
v 0.05450000 0.00046200 -0.11367100
v 0.05450000 0.00156100 -0.11401200
v 0.05450000 0.00044100 -0.11374700
v 0.05450000 0.00146200 -0.11426900
v 0.05450000 0.00128800 -0.11451400
v 0.05450000 -0.00103200 -0.11379800
v 0.05450000 -0.00108000 -0.11377900
v 0.05450000 -0.00140100 -0.11392100
v 0.05450000 -0.00114300 -0.11376400
v 0.05450000 -0.00137000 -0.11386500
v 0.05450000 -0.00064600 -0.11323400
v 0.05450000 -0.00074000 -0.11303800
v 0.05450000 -0.00074000 -0.11303800
v 0.05450000 -0.00068600 -0.11319400
v 0.05450000 -0.00068600 -0.11319400
v 0.05450000 -0.00068600 -0.11319400
v 0.05450000 -0.00073400 -0.11309400
v 0.05450000 -0.00073400 -0.11309400
v 0.05450000 -0.00071600 -0.11314700
v 0.05450000 -0.00103200 -0.11379800
v 0.05450000 -0.00140100 -0.11392100
v 0.05450000 -0.00137700 -0.11475200
v 0.05450000 -0.00158300 -0.11438200
v 0.05450000 -0.00149200 -0.11467900
v 0.05450000 -0.00149200 -0.11467900
v 0.05450000 -0.00159700 -0.11443500
v 0.05450000 -0.00159700 -0.11443500
v 0.05450000 -0.00159900 -0.11449100
v 0.05450000 -0.00159900 -0.11449100
v 0.05450000 -0.00158900 -0.11454600
v 0.05450000 -0.00158900 -0.11454600
v 0.05450000 -0.00149200 -0.11467900
v 0.05450000 -0.00149200 -0.11467900
v 0.05450000 -0.00149200 -0.11467900
v 0.05450000 -0.00156700 -0.11459700
v 0.05450000 -0.00156700 -0.11459700
v 0.05450000 -0.00153400 -0.11464300
v 0.05450000 -0.00120800 -0.11376600
v 0.05450000 -0.00127000 -0.11378500
v 0.05450000 -0.00127000 -0.11378500
v 0.05450000 -0.00114300 -0.11376400
v 0.05450000 -0.00114300 -0.11376400
v 0.05450000 -0.00114300 -0.11376400
v 0.05450000 -0.00132500 -0.11381800
v 0.05450000 -0.00132500 -0.11381800
v 0.05450000 -0.00137000 -0.11386500
vn 1.00000000 -0.00000000 -0.00000000
vn 1.00000000 -0.00000000 -0.00000000
vn 1.00000000 -0.00000000 -0.00000000
vn 1.00000000 -0.00000000 -0.00000000
vn 1.00000000 -0.00000000 -0.00000000
vn 1.00000000 -0.00000000 -0.00000000
vn 1.00000000 -0.00000000 -0.00000000
vn 1.00000000 -0.00000000 -0.00000000
vn 1.00000000 -0.00000000 -0.00000000
vn 1.00000000 -0.00000000 -0.00000000
vn 1.00000000 -0.00000000 -0.00000000
vn 1.00000000 -0.00000000 -0.00000000
vn 1.00000000 0.00040000 -0.00000000
vn 1.00000000 0.00040000 -0.00000000
vn 1.00000000 0.00040000 -0.00000000
vn 1.00000000 -0.00000000 -0.00000000
vn 1.00000000 -0.00000000 -0.00000000
vn 1.00000000 -0.00000000 -0.00000000
vn 1.00000000 -0.00000000 -0.00000000
vn 1.00000000 -0.00000000 -0.00000000
vn 1.00000000 -0.00000000 -0.00000000
vn 1.00000000 -0.00000000 -0.00000000
vn 1.00000000 -0.00000000 -0.00000000
vn 1.00000000 -0.00000000 -0.00000000
vn 1.00000000 -0.00000000 -0.00000000
vn 1.00000000 0.00020000 -0.00000000
vn 1.00000000 -0.00000000 -0.00000000
vn 1.00000000 0.00020000 -0.00000000
vn 1.00000000 0.00020000 -0.00000000
vn 1.00000000 -0.00030000 -0.00000000
vn 1.00000000 -0.00000000 -0.00000000
vn 1.00000000 -0.00000000 -0.00000000
vn 1.00000000 -0.00030000 -0.00000000
vn 1.00000000 -0.00030000 -0.00000000
vn 1.00000000 -0.00000000 -0.00000000
vn 1.00000000 -0.00000000 -0.00000000
vn 1.00000000 -0.00000000 -0.00000000
vn 1.00000000 0.00020000 -0.00000000
vn 1.00000000 0.00020000 -0.00000000
vn 1.00000000 0.00020000 -0.00000000
vn 1.00000000 -0.00000000 -0.00000000
vn 1.00000000 -0.00000000 -0.00000000
vn 1.00000000 -0.00020000 -0.00000000
vn 1.00000000 -0.00000000 -0.00000000
vn 1.00000000 -0.00020000 -0.00000000
vn 1.00000000 -0.00020000 -0.00000000
vn 1.00000000 0.00030000 -0.00000000
vn 1.00000000 -0.00000000 -0.00000000
vn 1.00000000 -0.00000000 -0.00000000
vn 1.00000000 0.00030000 -0.00000000
vn 1.00000000 0.00030000 -0.00000000
vn 1.00000000 -0.00020000 -0.00000000
vn 1.00000000 -0.00020000 -0.00000000
vn 1.00000000 -0.00000000 -0.00000000
vn 1.00000000 0.00010000 -0.00000000
vn 1.00000000 -0.00020000 -0.00000000
vn 1.00000000 -0.00000000 -0.00000000
vn 1.00000000 0.00010000 -0.00000000
vn 1.00000000 -0.00000000 -0.00000000
vn 1.00000000 0.00010000 -0.00000000
vn 1.00000000 -0.00000000 -0.00000000
vn 1.00000000 -0.00000000 -0.00000000
vn 1.00000000 -0.00000000 -0.00000000
vn 1.00000000 -0.00000000 -0.00000000
vn 1.00000000 -0.00000000 -0.00000000
vn 1.00000000 -0.00000000 -0.00000000
vn 1.00000000 -0.00000000 -0.00000000
vn 1.00000000 -0.00000000 -0.00000000
vn 1.00000000 -0.00000000 -0.00000000
vn 1.00000000 -0.00000000 -0.00000000
vn 1.00000000 -0.00000000 -0.00000000
vn 1.00000000 -0.00000000 -0.00000000
vn 1.00000000 -0.00000000 -0.00000000
vn 1.00000000 -0.00000000 -0.00000000
vn 1.00000000 -0.00000000 -0.00000000
vn 1.00000000 -0.00000000 -0.00000000
vn 1.00000000 -0.00000000 -0.00000000
vn 1.00000000 -0.00000000 -0.00000000
vn 1.00000000 -0.00000000 -0.00000000
vn 1.00000000 -0.00000000 -0.00000000
vn 1.00000000 -0.00000000 -0.00000000
vn 1.00000000 -0.00000000 -0.00000000
vn 1.00000000 -0.00000000 -0.00000000
vn 1.00000000 -0.00000000 -0.00000000
vn 1.00000000 -0.00000000 -0.00000000
vn 1.00000000 -0.00000000 -0.00000000
vn 1.00000000 -0.00000000 -0.00000000
vn 1.00000000 -0.00000000 -0.00000000
vn 1.00000000 -0.00000000 -0.00000000
vn 1.00000000 -0.00000000 -0.00000000
vn 1.00000000 -0.00000000 -0.00000000
vn 1.00000000 -0.00000000 -0.00000000
vn 1.00000000 -0.00000000 -0.00000000
vn 1.00000000 -0.00000000 -0.00000000
vn 1.00000000 -0.00000000 -0.00000000
vn 1.00000000 -0.00000000 -0.00000000
vn 1.00000000 0.00010000 -0.00000000
vn 1.00000000 -0.00000000 -0.00000000
vn 1.00000000 -0.00020000 -0.00000000
vn 1.00000000 0.00010000 -0.00000000
vn 1.00000000 -0.00020000 -0.00000000
vn 1.00000000 0.00010000 -0.00000000
vn 1.00000000 -0.00020000 -0.00000000
vn 1.00000000 -0.00000000 -0.00000000
vn 1.00000000 -0.00000000 -0.00000000
vn 1.00000000 0.00010000 -0.00000000
vn 1.00000000 0.00010000 -0.00000000
vn 1.00000000 -0.00000000 -0.00000000
vn 1.00000000 -0.00000000 -0.00000000
vn 1.00000000 0.00010000 -0.00000000
vn 1.00000000 -0.00000000 -0.00000000
vn 1.00000000 -0.00000000 -0.00000000
vn 1.00000000 -0.00000000 -0.00000000
vn 1.00000000 -0.00000000 -0.00000000
vn 1.00000000 -0.00010000 -0.00000000
vn 1.00000000 -0.00010000 -0.00000000
vn 1.00000000 -0.00000000 -0.00000000
vn 1.00000000 -0.00010000 -0.00000000
vn 1.00000000 -0.00000000 -0.00000000
vn 1.00000000 -0.00000000 -0.00000000
vn 1.00000000 -0.00000000 -0.00000000
vn 1.00000000 -0.00000000 -0.00000000
vn 1.00000000 -0.00000000 -0.00000000
vn 1.00000000 -0.00000000 -0.00000000
vn 1.00000000 -0.00000000 -0.00000000
vn 1.00000000 -0.00000000 -0.00000000
vn 1.00000000 -0.00000000 -0.00000000
vn 1.00000000 -0.00000000 -0.00000000
vn 1.00000000 -0.00000000 -0.00000000
vn 1.00000000 -0.00000000 -0.00000000
vn 1.00000000 -0.00000000 -0.00000000
vn 1.00000000 -0.00000000 -0.00000000
vn 1.00000000 -0.00000000 -0.00000000
vn 1.00000000 -0.00000000 -0.00000000
vn 1.00000000 0.00050000 -0.00000000
vn 1.00000000 0.00050000 -0.00000000
vn 1.00000000 -0.00040000 -0.00000000
vn 1.00000000 -0.00000000 -0.00000000
vn 1.00000000 -0.00040000 -0.00000000
vn 1.00000000 0.00050000 -0.00000000
vn 1.00000000 -0.00000000 -0.00000000
vn 1.00000000 -0.00040000 -0.00000000
vn 1.00000000 -0.00000000 -0.00000000
vn 1.00000000 -0.00000000 -0.00000000
vn 1.00000000 -0.00000000 -0.00000000
vn 1.00000000 -0.00000000 -0.00000000
vn 1.00000000 -0.00000000 -0.00000000
vn 1.00000000 -0.00000000 -0.00000000
vn 1.00000000 0.00010000 -0.00000000
vn 1.00000000 -0.00000000 -0.00000000
vn 1.00000000 0.00010000 -0.00000000
vn 1.00000000 0.00010000 -0.00000000
vn 1.00000000 -0.00050000 -0.00000000
vn 1.00000000 0.00040000 -0.00000000
vn 1.00000000 -0.00050000 -0.00000000
vn 1.00000000 -0.00050000 -0.00000000
vn 1.00000000 0.00040000 -0.00000000
vn 1.00000000 -0.00000000 -0.00000000
vn 1.00000000 -0.00000000 -0.00000000
vn 1.00000000 0.00040000 -0.00000000
vn 1.00000000 -0.00000000 -0.00000000
vn 1.00000000 0.00020000 -0.00000000
vn 1.00000000 -0.00010000 -0.00000000
vn 1.00000000 0.00020000 -0.00000000
vn 1.00000000 0.00020000 -0.00000000
vn 1.00000000 0.00010000 -0.00000000
vn 1.00000000 -0.00010000 -0.00000000
vn 1.00000000 0.00010000 -0.00000000
vn 1.00000000 -0.00010000 -0.00000000
vn 1.00000000 0.00010000 -0.00000000
f 1//1 2//2 3//3
f 4//4 5//5 6//6
f 7//7 8//8 9//9
f 10//10 11//11 12//12
f 13//13 14//14 15//15
f 16//16 17//17 18//18
f 17//17 19//19 18//18
f 18//18 19//19 20//20
f 19//19 21//21 20//20
f 20//20 21//21 22//22
f 23//23 24//24 25//25
f 26//26 28//28 29//29
f 27//27 32//32 31//31
f 30//30 33//33 34//34
f 35//35 36//36 37//37
f 38//38 39//39 40//40
f 41//41 42//42 44//44
f 43//43 46//46 45//45
f 44//44 48//48 49//49
f 47//47 51//51 50//50
f 52//52 53//53 56//56
f 54//54 59//59 57//57
f 55//55 58//58 60//60
f 61//61 62//62 63//63
f 64//64 65//65 66//66
f 65//65 67//67 66//66
f 66//66 67//67 68//68
f 69//69 70//70 71//71
f 70//70 72//72 71//71
f 71//71 72//72 73//73
f 74//74 75//75 76//76
f 75//75 77//77 76//76
f 76//76 77//77 78//78
f 77//77 79//79 78//78
f 78//78 79//79 80//80
f 79//79 81//81 80//80
f 80//80 81//81 82//82
f 81//81 83//83 82//82
f 82//82 83//83 84//84
f 83//83 85//85 84//84
f 84//84 85//85 86//86
f 85//85 87//87 86//86
f 86//86 87//87 88//88
f 89//89 90//90 91//91
f 92//92 93//93 94//94
f 93//93 95//95 94//94
f 94//94 95//95 96//96
f 95//95 98//98 96//96
f 97//97 100//100 102//102
f 99//99 103//103 101//101
f 104//104 105//105 108//108
f 106//106 110//110 107//107
f 108//108 109//109 111//111
f 109//109 112//112 111//111
f 111//111 112//112 113//113
f 112//112 114//114 113//113
f 113//113 114//114 117//117
f 115//115 118//118 116//116
f 117//117 119//119 120//120
f 119//119 121//121 120//120
f 120//120 121//121 122//122
f 121//121 123//123 122//122
f 122//122 123//123 124//124
f 123//123 125//125 124//124
f 124//124 125//125 126//126
f 125//125 127//127 126//126
f 126//126 127//127 128//128
f 127//127 129//129 128//128
f 130//130 131//131 132//132
f 131//131 133//133 132//132
f 132//132 133//133 134//134
f 135//135 136//136 140//140
f 137//137 142//142 139//139
f 138//138 141//141 143//143
f 144//144 145//145 146//146
f 145//145 147//147 146//146
f 146//146 147//147 148//148
f 147//147 150//150 148//148
f 149//149 151//151 152//152
f 153//153 155//155 156//156
f 154//154 160//160 157//157
f 158//158 159//159 161//161
f 162//162 164//164 165//165
f 163//163 169//169 167//167
f 166//166 168//168 170//170

