mtllib material.mtl
usemtl Reference_Triangles
v 0.05450000 -0.00634500 0.00138100
v 0.05450000 -0.00617200 0.00138800
v 0.05450000 -0.00628800 0.00139700
v 0.05450000 -0.00623000 0.00139900
v 0.05450000 -0.00634500 0.00138100
v 0.05450000 -0.00639700 0.00135300
v 0.05450000 -0.00617200 0.00138800
v 0.05450000 -0.00644000 0.00131300
v 0.05450000 -0.00647300 0.00126400
v 0.05450000 -0.00650000 -0.00115000
v 0.05450000 -0.00267200 0.00023800
v 0.05450000 -0.00650000 0.00115000
v 0.05450000 -0.00650000 0.00115000
v 0.05450000 -0.00617200 0.00138800
v 0.05450000 -0.00617200 0.00138800
v 0.05450000 -0.00617200 0.00138800
v 0.05450000 -0.00649300 0.00120800
v 0.05450000 -0.00649300 0.00120800
v 0.05450000 -0.00647300 0.00126400
v 0.05450000 -0.00250800 -0.00006200
v 0.05450000 -0.00250000 0.00000000
v 0.05450000 -0.00261500 0.00021100
v 0.05450000 -0.00650000 -0.00115000
v 0.05450000 -0.00649300 -0.00120800
v 0.05450000 -0.00623000 -0.00139900
v 0.05450000 -0.00647300 -0.00126400
v 0.05450000 -0.00647300 -0.00126400
v 0.05450000 -0.00644000 -0.00131300
v 0.05450000 -0.00644000 -0.00131300
v 0.05450000 -0.00623000 -0.00139900
v 0.05450000 -0.00623000 -0.00139900
v 0.05450000 -0.00623000 -0.00139900
v 0.05450000 -0.00639700 -0.00135200
v 0.05450000 -0.00639700 -0.00135200
v 0.05450000 -0.00639700 -0.00135200
v 0.05450000 -0.00628800 -0.00139700
v 0.05450000 -0.00628800 -0.00139700
v 0.05450000 -0.00634500 -0.00138100
v 0.05450000 -0.00250800 -0.00006200
v 0.05450000 -0.00261500 0.00021100
v 0.05450000 -0.00253100 -0.00012000
v 0.05450000 -0.00623000 -0.00139900
v 0.05450000 -0.00617200 -0.00138700
v 0.05450000 -0.00650000 -0.00115000
v 0.05450000 -0.00267200 -0.00023700
v 0.05450000 -0.00267200 0.00023800
v 0.05450000 -0.00267200 0.00023800
v 0.05450000 -0.00261500 -0.00021100
v 0.05450000 -0.00261500 -0.00021100
v 0.05450000 -0.00261500 -0.00021100
v 0.05450000 -0.00261500 0.00021100
v 0.05450000 -0.00261500 0.00021100
v 0.05450000 -0.00261500 0.00021100
v 0.05450000 -0.00256700 -0.00017100
v 0.05450000 -0.00256700 -0.00017100
v 0.05450000 -0.00253100 -0.00012000
v 0.05450000 -0.00250800 0.00006200
v 0.05450000 -0.00253100 0.00012000
v 0.05450000 -0.00253100 0.00012000
v 0.05450000 -0.00250000 0.00000000
v 0.05450000 -0.00250000 0.00000000
v 0.05450000 -0.00250000 0.00000000
v 0.05450000 -0.00256700 0.00017100
v 0.05450000 -0.00256700 0.00017100
v 0.05450000 -0.00261500 0.00021100
v 0.05450000 -0.00115000 -0.18600000
v 0.05450000 0.00138800 -0.18632800
v 0.05450000 0.00115000 -0.18600000
v 0.05450000 0.00139900 -0.18627000
v 0.05450000 -0.00115000 -0.18600000
v 0.05450000 -0.00120800 -0.18600700
v 0.05450000 0.00138800 -0.18632800
v 0.05450000 -0.00126400 -0.18602700
v 0.05450000 -0.00131300 -0.18606000
v 0.05450000 -0.00131300 -0.18606000
v 0.05450000 -0.00135200 -0.18610300
v 0.05450000 0.00138800 -0.18632800
v 0.05450000 -0.00138100 -0.18615500
v 0.05450000 -0.00139700 -0.18621200
v 0.05450000 -0.00017100 -0.18993300
v 0.05450000 -0.00012000 -0.18996900
v 0.05450000 -0.00006200 -0.18999200
v 0.05450000 0.00000000 -0.19000000
v 0.05450000 0.00006200 -0.18999200
v 0.05450000 -0.00023800 -0.18982800
v 0.05450000 0.00012000 -0.18996900
v 0.05450000 0.00017100 -0.18993300
v 0.05450000 -0.00139700 -0.18621200
v 0.05450000 -0.00139900 -0.18627000
v 0.05450000 0.00138800 -0.18632800
v 0.05450000 -0.00138800 -0.18632800
v 0.05450000 0.00023800 -0.18982800
v 0.05450000 -0.00023800 -0.18982800
v 0.05450000 0.00021100 -0.18988400
v 0.05450000 0.00017100 -0.18993300
v 0.05450000 0.00139700 -0.18621200
v 0.05450000 0.00126400 -0.18602700
v 0.05450000 0.00126400 -0.18602700
v 0.05450000 0.00139900 -0.18627000
v 0.05450000 0.00139900 -0.18627000
v 0.05450000 0.00120800 -0.18600700
v 0.05450000 0.00115000 -0.18600000
v 0.05450000 0.00139700 -0.18621200
v 0.05450000 0.00138100 -0.18615500
v 0.05450000 0.00138100 -0.18615500
v 0.05450000 0.00126400 -0.18602700
v 0.05450000 0.00126400 -0.18602700
v 0.05450000 0.00135200 -0.18610300
v 0.05450000 0.00135200 -0.18610300
v 0.05450000 0.00131300 -0.18606000
v 0.05450000 0.00000000 -0.19000000
v 0.05450000 -0.00023800 -0.18982800
v 0.05450000 -0.00006200 -0.18999200
v 0.05450000 -0.00021100 -0.18988400
v 0.05450000 -0.00017100 -0.18993300
vn 1.00000000 -0.00000000 -0.00000000
vn 1.00000000 -0.00000000 -0.00000000
vn 1.00000000 -0.00000000 -0.00000000
vn 1.00000000 -0.00000000 -0.00000000
vn 1.00000000 -0.00000000 -0.00000000
vn 1.00000000 -0.00000000 -0.00000000
vn 1.00000000 -0.00000000 -0.00000000
vn 1.00000000 -0.00000000 -0.00000000
vn 1.00000000 -0.00000000 -0.00000000
vn 1.00000000 -0.00000000 -0.00000000
vn 1.00000000 -0.00000000 -0.00000000
vn 1.00000000 -0.00000000 -0.00000000
vn 1.00000000 0.00010000 -0.00000000
vn 1.00000000 -0.00000000 -0.00000000
vn 1.00000000 0.00010000 -0.00000000
vn 1.00000000 -0.00010000 -0.00000000
vn 1.00000000 0.00010000 -0.00000000
vn 1.00000000 -0.00010000 -0.00000000
vn 1.00000000 -0.00010000 -0.00000000
vn 1.00000000 0.00020000 -0.00000000
vn 1.00000000 0.00020000 -0.00000000
vn 1.00000000 0.00020000 -0.00000000
vn 1.00000000 -0.00000000 -0.00000000
vn 1.00000000 -0.00000000 -0.00000000
vn 1.00000000 -0.00000000 -0.00000000
vn 1.00000000 -0.00000000 -0.00000000
vn 1.00000000 0.00010000 -0.00000000
vn 1.00000000 0.00010000 -0.00000000
vn 1.00000000 -0.00010000 -0.00000000
vn 1.00000000 -0.00000000 -0.00000000
vn 1.00000000 0.00010000 -0.00000000
vn 1.00000000 -0.00010000 -0.00000000
vn 1.00000000 0.00050000 -0.00000000
vn 1.00000000 -0.00010000 -0.00000000
vn 1.00000000 -0.00000000 -0.00000000
vn 1.00000000 -0.00000000 -0.00000000
vn 1.00000000 0.00050000 -0.00000000
vn 1.00000000 0.00050000 -0.00000000
vn 1.00000000 -0.00000000 -0.00000000
vn 1.00000000 -0.00000000 -0.00000000
vn 1.00000000 -0.00000000 -0.00000000
vn 1.00000000 -0.00000000 -0.00000000
vn 1.00000000 -0.00000000 -0.00000000
vn 1.00000000 -0.00000000 -0.00000000
vn 1.00000000 -0.00000000 -0.00000000
vn 1.00000000 0.00020000 -0.00000000
vn 1.00000000 -0.00000000 -0.00000000
vn 1.00000000 0.00020000 -0.00000000
vn 1.00000000 -0.00000000 -0.00000000
vn 1.00000000 -0.00020000 -0.00000000
vn 1.00000000 0.00010000 -0.00000000
vn 1.00000000 -0.00020000 -0.00000000
vn 1.00000000 0.00020000 -0.00000000
vn 1.00000000 0.00010000 -0.00000000
vn 1.00000000 -0.00020000 -0.00000000
vn 1.00000000 0.00010000 -0.00000000
vn 1.00000000 0.00090000 -0.00000000
vn 1.00000000 -0.00000000 -0.00000000
vn 1.00000000 0.00110000 -0.00000000
vn 1.00000000 0.00010000 -0.00000000
vn 1.00000000 -0.00000000 -0.00000000
vn 1.00000000 0.00120000 -0.00000000
vn 1.00000000 0.00010000 -0.00000000
vn 1.00000000 -0.00000000 -0.00000000
vn 1.00000000 0.00010000 -0.00000000
vn 1.00000000 -0.00000000 -0.00000000
vn 1.00000000 -0.00000000 -0.00000000
vn 1.00000000 -0.00000000 -0.00000000
vn 1.00000000 -0.00000000 -0.00000000
vn 1.00000000 -0.00000000 -0.00000000
vn 1.00000000 -0.00000000 -0.00000000
vn 1.00000000 -0.00000000 -0.00000000
vn 1.00000000 -0.00000000 -0.00000000
vn 1.00000000 -0.00000000 -0.00000000
vn 1.00000000 -0.00000000 -0.00000000
vn 1.00000000 -0.00000000 -0.00000000
vn 1.00000000 -0.00000000 -0.00000000
vn 1.00000000 -0.00000000 -0.00000000
vn 1.00000000 -0.00000000 -0.00000000
vn 1.00000000 -0.00020000 -0.00000000
vn 1.00000000 -0.00020000 -0.00000000
vn 1.00000000 -0.00020000 -0.00000000
vn 1.00000000 -0.00000000 -0.00000000
vn 1.00000000 -0.00000000 -0.00000000
vn 1.00000000 -0.00000000 -0.00000000
vn 1.00000000 -0.00000000 -0.00000000
vn 1.00000000 -0.00000000 -0.00000000
vn 1.00000000 -0.00000000 -0.00000000
vn 1.00000000 -0.00000000 -0.00000000
vn 1.00000000 -0.00000000 -0.00000000
vn 1.00000000 -0.00000000 -0.00000000
vn 1.00000000 -0.00000000 -0.00000000
vn 1.00000000 -0.00000000 -0.00000000
vn 1.00000000 -0.00000000 -0.00000000
vn 1.00000000 -0.00000000 -0.00000000
vn 1.00000000 0.00020000 -0.00000000
vn 1.00000000 -0.00000000 -0.00000000
vn 1.00000000 0.00020000 -0.00000000
vn 1.00000000 0.00020000 -0.00000000
vn 1.00000000 -0.00000000 -0.00000000
vn 1.00000000 -0.00000000 -0.00000000
vn 1.00000000 -0.00000000 -0.00000000
vn 1.00000000 -0.00000000 -0.00000000
vn 1.00000000 -0.00040000 -0.00000000
vn 1.00000000 -0.00000000 -0.00000000
vn 1.00000000 -0.00040000 -0.00000000
vn 1.00000000 -0.00000000 -0.00000000
vn 1.00000000 -0.00040000 -0.00000000
vn 1.00000000 -0.00000000 -0.00000000
vn 1.00000000 -0.00000000 -0.00000000
vn 1.00000000 -0.00000000 -0.00000000
vn 1.00000000 -0.00000000 -0.00000000
vn 1.00000000 -0.00000000 -0.00000000
vn 1.00000000 -0.00000000 -0.00000000
vn 1.00000000 -0.00000000 -0.00000000
f 1//1 2//2 3//3
f 2//2 4//4 3//3
f 5//5 6//6 7//7
f 6//6 8//8 7//7
f 7//7 8//8 9//9
f 10//10 11//11 12//12
f 11//11 14//14 12//12
f 13//13 15//15 17//17
f 16//16 19//19 18//18
f 20//20 21//21 22//22
f 23//23 24//24 25//25
f 24//24 26//26 25//25
f 27//27 28//28 31//31
f 29//29 34//34 32//32
f 30//30 35//35 36//36
f 33//33 38//38 37//37
f 39//39 40//40 41//41
f 42//42 43//43 44//44
f 43//43 45//45 44//44
f 44//44 45//45 47//47
f 45//45 49//49 47//47
f 46//46 48//48 53//53
f 50//50 55//55 52//52
f 51//51 54//54 56//56
f 57//57 59//59 62//62
f 58//58 64//64 61//61
f 60//60 63//63 65//65
f 66//66 67//67 68//68
f 67//67 69//69 68//68
f 70//70 71//71 72//72
f 71//71 73//73 72//72
f 72//72 73//73 74//74
f 75//75 76//76 77//77
f 76//76 78//78 77//77
f 77//77 78//78 79//79
f 80//80 81//81 82//82
f 83//83 84//84 85//85
f 84//84 86//86 85//85
f 85//85 86//86 87//87
f 88//88 89//89 90//90
f 89//89 91//91 90//90
f 90//90 91//91 92//92
f 91//91 93//93 92//92
f 92//92 93//93 94//94
f 93//93 95//95 94//94
f 96//96 98//98 99//99
f 97//97 101//101 100//100
f 100//100 101//101 102//102
f 103//103 105//105 107//107
f 104//104 108//108 106//106
f 107//107 109//109 110//110
f 111//111 112//112 113//113
f 112//112 114//114 113//113
f 113//113 114//114 115//115

