mtllib material.mtl
usemtl Axis_Number
v 0.05450000 -0.00096700 -0.24812500
v 0.05450000 -0.00101600 -0.24815800
v 0.05450000 -0.00019900 -0.24909700
v 0.05450000 -0.00105600 -0.24820200
v 0.05450000 0.00110000 -0.24809700
v 0.05450000 -0.00085200 -0.24809700
v 0.05450000 0.00135000 -0.24834700
v 0.05450000 -0.00019900 -0.24909700
v 0.05450000 0.00110000 -0.24909700
v 0.05450000 0.00135000 -0.24884700
v 0.05450000 0.00115600 -0.24909100
v 0.05450000 -0.00134900 -0.25016200
v 0.05450000 -0.00133500 -0.25022100
v 0.05450000 -0.00026000 -0.24953500
v 0.05450000 0.00135000 -0.24834700
v 0.05450000 -0.00085200 -0.24809700
v 0.05450000 0.00135000 -0.24884700
v 0.05450000 0.00135000 -0.24884700
v 0.05450000 -0.00085200 -0.24809700
v 0.05450000 -0.00019900 -0.24909700
v 0.05450000 -0.00091100 -0.24810400
v 0.05450000 -0.00096700 -0.24812500
v 0.05450000 -0.00026000 -0.24953500
v 0.05450000 -0.00004000 -0.25038500
v 0.05450000 0.00021900 -0.24955000
v 0.05450000 0.00001200 -0.25038600
v 0.05450000 0.00055100 -0.24959500
v 0.05450000 -0.00105600 -0.24820200
v 0.05450000 -0.00108500 -0.24825500
v 0.05450000 -0.00019900 -0.24909700
v 0.05450000 -0.00110000 -0.24831200
v 0.05450000 -0.00026000 -0.24953500
v 0.05450000 -0.00134800 -0.25010100
v 0.05450000 -0.00134900 -0.25016200
v 0.05450000 -0.00133500 -0.25022100
v 0.05450000 -0.00130700 -0.25027500
v 0.05450000 -0.00026000 -0.24953500
v 0.05450000 -0.00126700 -0.25032100
v 0.05450000 -0.00121700 -0.25035600
v 0.05450000 0.00125600 -0.24904200
v 0.05450000 0.00129500 -0.24900300
v 0.05450000 0.00132500 -0.24895500
v 0.05450000 -0.00121700 -0.25035600
v 0.05450000 -0.00116000 -0.25037800
v 0.05450000 -0.00116000 -0.25037800
v 0.05450000 -0.00026000 -0.24953500
v 0.05450000 -0.00026000 -0.24953500
v 0.05450000 -0.00110000 -0.25038500
v 0.05450000 -0.00004000 -0.25038500
v 0.05450000 -0.00140100 -0.25101800
v 0.05450000 -0.00158300 -0.25147800
v 0.05450000 -0.00137700 -0.25184900
v 0.05450000 0.00115600 -0.24909100
v 0.05450000 0.00120800 -0.24907200
v 0.05450000 0.00135000 -0.24884700
v 0.05450000 0.00135000 -0.24884700
v 0.05450000 0.00125600 -0.24904200
v 0.05450000 0.00125600 -0.24904200
v 0.05450000 0.00134400 -0.24890200
v 0.05450000 0.00134400 -0.24890200
v 0.05450000 0.00132500 -0.24895500
v 0.05450000 0.00131700 -0.24822200
v 0.05450000 0.00127700 -0.24817000
v 0.05450000 0.00122500 -0.24813000
v 0.05450000 0.00135000 -0.24834700
v 0.05450000 0.00134100 -0.24828200
v 0.05450000 0.00134100 -0.24828200
v 0.05450000 0.00110000 -0.24809700
v 0.05450000 0.00110000 -0.24809700
v 0.05450000 0.00110000 -0.24809700
v 0.05450000 0.00131700 -0.24822200
v 0.05450000 0.00131700 -0.24822200
v 0.05450000 0.00131700 -0.24822200
v 0.05450000 0.00116500 -0.24810500
v 0.05450000 0.00116500 -0.24810500
v 0.05450000 0.00122500 -0.24813000
v 0.05450000 0.00001200 -0.25038600
v 0.05450000 0.00021700 -0.25041400
v 0.05450000 0.00021700 -0.25041400
v 0.05450000 0.00055100 -0.24959500
v 0.05450000 0.00055100 -0.24959500
v 0.05450000 0.00032100 -0.25045600
v 0.05450000 0.00032100 -0.25045600
v 0.05450000 0.00093400 -0.24973000
v 0.05450000 0.00035600 -0.25047900
v 0.05450000 0.00035600 -0.25047900
v 0.05450000 0.00119400 -0.24989800
v 0.05450000 0.00119400 -0.24989800
v 0.05450000 0.00040400 -0.25052300
v 0.05450000 0.00040400 -0.25052300
v 0.05450000 0.00138600 -0.25010200
v 0.05450000 0.00043700 -0.25057300
v 0.05450000 0.00043700 -0.25057300
v 0.05450000 0.00151800 -0.25034200
v 0.05450000 0.00151800 -0.25034200
v 0.05450000 0.00045800 -0.25063200
v 0.05450000 0.00045800 -0.25063200
v 0.05450000 0.00158700 -0.25060700
v 0.05450000 0.00046600 -0.25071000
v 0.05450000 0.00160000 -0.25082200
v 0.05450000 0.00046200 -0.25076700
v 0.05450000 0.00156100 -0.25110900
v 0.05450000 0.00044100 -0.25084400
v 0.05450000 -0.00137700 -0.25184900
v 0.05450000 -0.00158300 -0.25147800
v 0.05450000 -0.00149200 -0.25177600
v 0.05450000 -0.00149200 -0.25177600
v 0.05450000 -0.00159700 -0.25153200
v 0.05450000 -0.00159700 -0.25153200
v 0.05450000 -0.00159900 -0.25158800
v 0.05450000 -0.00114300 -0.25086100
v 0.05450000 -0.00120800 -0.25086300
v 0.05450000 -0.00108000 -0.25087600
v 0.05450000 -0.00127000 -0.25088100
v 0.05450000 -0.00132500 -0.25091500
v 0.05450000 -0.00132500 -0.25091500
v 0.05450000 -0.00137000 -0.25096200
v 0.05450000 -0.00108000 -0.25087600
v 0.05450000 -0.00140100 -0.25101800
v 0.05450000 -0.00102300 -0.25089800
v 0.05450000 -0.00137700 -0.25184900
v 0.05450000 -0.00060100 -0.25104100
v 0.05450000 -0.00102100 -0.25199500
v 0.05450000 -0.00011500 -0.25109700
v 0.05450000 -0.00011500 -0.25209700
v 0.05450000 0.00011500 -0.25107400
v 0.05450000 0.00031200 -0.25207300
v 0.05450000 0.00025200 -0.25102700
v 0.05450000 0.00073600 -0.25197000
v 0.05450000 0.00035000 -0.25096600
v 0.05450000 0.00035000 -0.25096600
v 0.05450000 0.00105000 -0.25181200
v 0.05450000 0.00105000 -0.25181200
v 0.05450000 0.00040400 -0.25090700
v 0.05450000 0.00040400 -0.25090700
v 0.05450000 0.00128800 -0.25161100
v 0.05450000 0.00044100 -0.25084400
v 0.05450000 0.00146200 -0.25136600
v 0.05450000 0.00156100 -0.25110900
v 0.05450000 -0.00159900 -0.25158800
v 0.05450000 -0.00158900 -0.25164300
v 0.05450000 -0.00158900 -0.25164300
v 0.05450000 -0.00149200 -0.25177600
v 0.05450000 -0.00149200 -0.25177600
v 0.05450000 -0.00156700 -0.25169400
v 0.05450000 -0.00153400 -0.25173900
vn 1.00000000 -0.00000000 -0.00000000
vn 1.00000000 -0.00000000 -0.00000000
vn 1.00000000 -0.00000000 -0.00000000
vn 1.00000000 -0.00000000 -0.00000000
vn 1.00000000 -0.00000000 -0.00000000
vn 1.00000000 -0.00000000 -0.00000000
vn 1.00000000 -0.00000000 -0.00000000
vn 1.00000000 -0.00000000 -0.00000000
vn 1.00000000 -0.00000000 -0.00000000
vn 1.00000000 -0.00000000 -0.00000000
vn 1.00000000 -0.00000000 -0.00000000
vn 1.00000000 -0.00010000 -0.00000000
vn 1.00000000 -0.00010000 -0.00000000
vn 1.00000000 -0.00010000 -0.00000000
vn 1.00000000 -0.00000000 -0.00000000
vn 1.00000000 -0.00000000 -0.00000000
vn 1.00000000 -0.00000000 -0.00000000
vn 1.00000000 -0.00000000 -0.00000000
vn 1.00000000 -0.00000000 -0.00000000
vn 1.00000000 -0.00000000 -0.00000000
vn 1.00000000 -0.00000000 -0.00000000
vn 1.00000000 -0.00000000 -0.00000000
vn 1.00000000 -0.00000000 -0.00000000
vn 1.00000000 -0.00000000 -0.00000000
vn 1.00000000 -0.00000000 -0.00000000
vn 1.00000000 -0.00000000 -0.00000000
vn 1.00000000 -0.00000000 -0.00000000
vn 1.00000000 -0.00000000 -0.00000000
vn 1.00000000 -0.00000000 -0.00000000
vn 1.00000000 -0.00000000 -0.00000000
vn 1.00000000 -0.00000000 -0.00000000
vn 1.00000000 -0.00000000 -0.00000000
vn 1.00000000 -0.00000000 -0.00000000
vn 1.00000000 -0.00000000 -0.00000000
vn 1.00000000 -0.00000000 -0.00000000
vn 1.00000000 -0.00000000 -0.00000000
vn 1.00000000 -0.00000000 -0.00000000
vn 1.00000000 -0.00000000 -0.00000000
vn 1.00000000 -0.00000000 -0.00000000
vn 1.00000000 0.00070000 -0.00000000
vn 1.00000000 0.00070000 -0.00000000
vn 1.00000000 0.00070000 -0.00000000
vn 1.00000000 0.00010000 -0.00000000
vn 1.00000000 0.00010000 -0.00000000
vn 1.00000000 -0.00000000 -0.00000000
vn 1.00000000 -0.00000000 -0.00000000
vn 1.00000000 0.00010000 -0.00000000
vn 1.00000000 -0.00000000 -0.00000000
vn 1.00000000 -0.00000000 -0.00000000
vn 1.00000000 -0.00000000 -0.00000000
vn 1.00000000 -0.00000000 -0.00000000
vn 1.00000000 -0.00000000 -0.00000000
vn 1.00000000 -0.00000000 -0.00000000
vn 1.00000000 -0.00000000 -0.00000000
vn 1.00000000 -0.00000000 -0.00000000
vn 1.00000000 -0.00020000 -0.00000000
vn 1.00000000 -0.00020000 -0.00000000
vn 1.00000000 -0.00000000 -0.00000000
vn 1.00000000 -0.00000000 -0.00000000
vn 1.00000000 -0.00020000 -0.00000000
vn 1.00000000 -0.00000000 -0.00000000
vn 1.00000000 -0.00000000 -0.00000000
vn 1.00000000 -0.00000000 -0.00000000
vn 1.00000000 -0.00000000 -0.00000000
vn 1.00000000 0.00010000 -0.00000000
vn 1.00000000 -0.00010000 -0.00000000
vn 1.00000000 0.00010000 -0.00000000
vn 1.00000000 0.00010000 -0.00000000
vn 1.00000000 -0.00000000 -0.00000000
vn 1.00000000 -0.00010000 -0.00000000
vn 1.00000000 -0.00000000 -0.00000000
vn 1.00000000 -0.00010000 -0.00000000
vn 1.00000000 0.00010000 -0.00000000
vn 1.00000000 0.00010000 -0.00000000
vn 1.00000000 -0.00000000 -0.00000000
vn 1.00000000 0.00010000 -0.00000000
vn 1.00000000 -0.00000000 -0.00000000
vn 1.00000000 -0.00000000 -0.00000000
vn 1.00000000 0.00010000 -0.00000000
vn 1.00000000 -0.00000000 -0.00000000
vn 1.00000000 0.00010000 -0.00000000
vn 1.00000000 0.00010000 -0.00000000
vn 1.00000000 -0.00000000 -0.00000000
vn 1.00000000 -0.00000000 -0.00000000
vn 1.00000000 -0.00010000 -0.00000000
vn 1.00000000 -0.00000000 -0.00000000
vn 1.00000000 -0.00000000 -0.00000000
vn 1.00000000 -0.00010000 -0.00000000
vn 1.00000000 -0.00010000 -0.00000000
vn 1.00000000 -0.00000000 -0.00000000
vn 1.00000000 -0.00000000 -0.00000000
vn 1.00000000 -0.00000000 -0.00000000
vn 1.00000000 -0.00010000 -0.00000000
vn 1.00000000 -0.00000000 -0.00000000
vn 1.00000000 -0.00010000 -0.00000000
vn 1.00000000 -0.00000000 -0.00000000
vn 1.00000000 -0.00010000 -0.00000000
vn 1.00000000 -0.00000000 -0.00000000
vn 1.00000000 -0.00000000 -0.00000000
vn 1.00000000 -0.00000000 -0.00000000
vn 1.00000000 -0.00000000 -0.00000000
vn 1.00000000 -0.00000000 -0.00000000
vn 1.00000000 -0.00000000 -0.00000000
vn 1.00000000 -0.00000000 -0.00000000
vn 1.00000000 -0.00000000 -0.00000000
vn 1.00000000 -0.00010000 -0.00000000
vn 1.00000000 -0.00000000 -0.00000000
vn 1.00000000 -0.00000000 -0.00000000
vn 1.00000000 -0.00010000 -0.00000000
vn 1.00000000 -0.00010000 -0.00000000
vn 1.00000000 -0.00000000 -0.00000000
vn 1.00000000 -0.00000000 -0.00000000
vn 1.00000000 -0.00000000 -0.00000000
vn 1.00000000 -0.00000000 -0.00000000
vn 1.00000000 -0.00000000 -0.00000000
vn 1.00000000 -0.00000000 -0.00000000
vn 1.00000000 -0.00000000 -0.00000000
vn 1.00000000 -0.00000000 -0.00000000
vn 1.00000000 -0.00000000 -0.00000000
vn 1.00000000 -0.00000000 -0.00000000
vn 1.00000000 -0.00000000 -0.00000000
vn 1.00000000 -0.00000000 -0.00000000
vn 1.00000000 -0.00000000 -0.00000000
vn 1.00000000 -0.00000000 -0.00000000
vn 1.00000000 -0.00000000 -0.00000000
vn 1.00000000 -0.00000000 -0.00000000
vn 1.00000000 -0.00000000 -0.00000000
vn 1.00000000 -0.00000000 -0.00000000
vn 1.00000000 -0.00000000 -0.00000000
vn 1.00000000 0.00010000 -0.00000000
vn 1.00000000 -0.00000000 -0.00000000
vn 1.00000000 -0.00000000 -0.00000000
vn 1.00000000 0.00010000 -0.00000000
vn 1.00000000 -0.00000000 -0.00000000
vn 1.00000000 0.00010000 -0.00000000
vn 1.00000000 -0.00000000 -0.00000000
vn 1.00000000 -0.00000000 -0.00000000
vn 1.00000000 -0.00000000 -0.00000000
vn 1.00000000 -0.00000000 -0.00000000
vn 1.00000000 0.00020000 -0.00000000
vn 1.00000000 0.00020000 -0.00000000
vn 1.00000000 -0.00000000 -0.00000000
vn 1.00000000 -0.00000000 -0.00000000
vn 1.00000000 0.00020000 -0.00000000
vn 1.00000000 -0.00000000 -0.00000000
vn 1.00000000 -0.00000000 -0.00000000
f 1//1 2//2 3//3
f 2//2 4//4 3//3
f 5//5 6//6 7//7
f 8//8 9//9 10//10
f 9//9 11//11 10//10
f 12//12 13//13 14//14
f 15//15 16//16 17//17
f 18//18 19//19 20//20
f 19//19 21//21 20//20
f 20//20 21//21 22//22
f 23//23 24//24 25//25
f 24//24 26//26 25//25
f 25//25 26//26 27//27
f 28//28 29//29 30//30
f 29//29 31//31 30//30
f 30//30 31//31 32//32
f 31//31 33//33 32//32
f 32//32 33//33 34//34
f 35//35 36//36 37//37
f 36//36 38//38 37//37
f 37//37 38//38 39//39
f 40//40 41//41 42//42
f 43//43 44//44 47//47
f 45//45 48//48 46//46
f 46//46 48//48 49//49
f 50//50 51//51 52//52
f 53//53 54//54 55//55
f 54//54 58//58 55//55
f 56//56 57//57 60//60
f 58//58 61//61 59//59
f 62//62 63//63 64//64
f 65//65 67//67 68//68
f 66//66 72//72 70//70
f 69//69 71//71 75//75
f 73//73 76//76 74//74
f 77//77 78//78 80//80
f 79//79 82//82 81//81
f 80//80 83//83 84//84
f 83//83 86//86 84//84
f 84//84 86//86 87//87
f 85//85 89//89 88//88
f 87//87 90//90 91//91
f 90//90 92//92 91//91
f 91//91 92//92 94//94
f 93//93 97//97 95//95
f 94//94 96//96 98//98
f 96//96 99//99 98//98
f 98//98 99//99 100//100
f 99//99 101//101 100//100
f 100//100 101//101 102//102
f 101//101 103//103 102//102
f 104//104 105//105 107//107
f 105//105 108//108 107//107
f 106//106 109//109 110//110
f 111//111 112//112 113//113
f 112//112 114//114 113//113
f 113//113 114//114 115//115
f 116//116 117//117 118//118
f 117//117 119//119 118//118
f 118//118 119//119 120//120
f 119//119 121//121 120//120
f 120//120 121//121 122//122
f 121//121 123//123 122//122
f 122//122 123//123 124//124
f 123//123 125//125 124//124
f 124//124 125//125 126//126
f 125//125 127//127 126//126
f 126//126 127//127 128//128
f 127//127 129//129 128//128
f 128//128 129//129 131//131
f 129//129 132//132 131//131
f 130//130 133//133 135//135
f 132//132 136//136 134//134
f 134//134 136//136 137//137
f 136//136 138//138 137//137
f 137//137 138//138 139//139
f 140//140 141//141 144//144
f 142//142 145//145 143//143
f 143//143 145//145 146//146

