mtllib material.mtl
usemtl material_0
v -0.10750000 -0.09320300 -0.02528300
v -0.10870000 -0.09879600 -0.01795400
v -0.10750000 -0.09836200 -0.01905000
v -0.10850000 -0.07946100 0.00598200
v -0.10750000 -0.08047500 0.00653500
v -0.10850000 -0.08350000 0.00527000
v -0.10850000 -0.07381000 -0.03284600
v -0.10850000 -0.05908900 -0.01182300
v -0.10850000 -0.06289800 -0.01220700
v -0.10850000 -0.08866800 -0.02624600
v -0.10850000 -0.06289800 -0.01220700
v -0.10850000 -0.09313400 -0.02521000
v -0.10850000 -0.09313400 -0.02521000
v -0.10850000 -0.06289800 -0.01220700
v -0.10850000 -0.08350000 0.00527000
v -0.10850000 -0.09313400 -0.02521000
v -0.10850000 -0.08350000 0.00527000
v -0.10850000 -0.09822000 -0.01575400
v -0.10870000 -0.05847600 -0.01042100
v -0.10850000 -0.05980100 -0.00778400
v -0.10850000 -0.05908900 -0.01182300
v -0.10850000 -0.09822000 -0.01575400
v -0.10870000 -0.09879600 -0.01795400
v -0.10850000 -0.09313400 -0.02521000
v -0.10850000 -0.08866800 -0.02624600
v -0.10850000 -0.08693600 -0.02745800
v -0.10850000 -0.06289800 -0.01220700
v -0.10850000 -0.06289800 -0.01220700
v -0.10850000 -0.08693600 -0.02745800
v -0.10850000 -0.07381000 -0.03284600
v -0.10850000 -0.07381000 -0.03284600
v -0.10850000 -0.08693600 -0.02745800
v -0.10850000 -0.08443600 -0.03130100
v -0.10850000 -0.07381000 -0.03284600
v -0.10850000 -0.08443600 -0.03130100
v -0.10870000 -0.07568100 -0.03414000
v -0.10850000 -0.05908900 -0.01182300
v -0.10850000 -0.05980100 -0.00778400
v -0.10850000 -0.07946100 0.00598200
v -0.10850000 -0.05908900 -0.01182300
v -0.10850000 -0.07946100 0.00598200
v -0.10850000 -0.06289800 -0.01220700
v -0.10850000 -0.06289800 -0.01220700
v -0.10850000 -0.07946100 0.00598200
v -0.10850000 -0.08350000 0.00527000
vn -0.28996500 -0.73727400 -0.61020200
vn -0.28996500 -0.73727400 -0.61020200
vn -0.28996500 -0.73727400 -0.61020200
vn -0.58485700 -0.14085700 0.79881200
vn -0.58485700 -0.14085700 0.79881200
vn -0.58485800 -0.14085700 0.79881200
vn -1.00000000 0.00000000 -0.00000100
vn -1.00000000 0.00000000 -0.00000100
vn -1.00000000 0.00000000 -0.00000100
vn -1.00000000 -0.00000100 -0.00000000
vn -1.00000000 -0.00000100 -0.00000000
vn -1.00000000 -0.00000100 -0.00000000
vn -1.00000000 -0.00000100 0.00000000
vn -1.00000000 -0.00000100 0.00000000
vn -1.00000000 -0.00000100 0.00000000
vn -1.00000000 -0.00000100 -0.00000000
vn -1.00000000 -0.00000100 -0.00000000
vn -1.00000000 -0.00000100 -0.00000000
vn -0.97324400 -0.22628200 -0.03989900
vn -0.97324400 -0.22628200 -0.03989900
vn -0.97324400 -0.22628200 -0.03989900
vn -0.99177500 0.11272400 0.06063300
vn -0.99177500 0.11272400 0.06063300
vn -0.99177500 0.11272400 0.06063300
vn -1.00000000 0.00000000 -0.00000000
vn -1.00000000 0.00000000 -0.00000000
vn -1.00000000 0.00000000 -0.00000000
vn -1.00000000 0.00000100 -0.00000000
vn -1.00000000 0.00000100 -0.00000000
vn -1.00000000 0.00000100 -0.00000000
vn -1.00000000 0.00000000 0.00000000
vn -1.00000000 0.00000000 0.00000000
vn -1.00000000 0.00000000 0.00000000
vn -0.99177500 0.01841900 0.12665900
vn -0.99177500 0.01841900 0.12665900
vn -0.99177500 0.01841900 0.12665900
vn -1.00000000 -0.00000000 0.00000000
vn -1.00000000 -0.00000000 0.00000000
vn -1.00000000 -0.00000000 0.00000000
vn -1.00000000 -0.00000300 0.00000200
vn -1.00000000 -0.00000300 0.00000200
vn -1.00000000 -0.00000300 0.00000200
vn -1.00000000 0.00000500 -0.00000100
vn -1.00000000 0.00000500 -0.00000100
vn -1.00000000 0.00000500 -0.00000100
vt 0.29142700 0.23669000
vt 0.23436800 0.21853900
vt 0.24074500 0.22274700
vt 0.24977100 0.01923400
vt 0.24228800 0.02006600
vt 0.23072800 0.03806000
vt 0.42340100 0.20471200
vt 0.42479300 0.03808300
vt 0.40577200 0.05431200
vt 0.31931800 0.22492700
vt 0.40577200 0.05431200
vt 0.29153100 0.23604900
vt 0.29153100 0.23604900
vt 0.40577200 0.05431200
vt 0.23072800 0.03806000
vt 0.29153100 0.23604900
vt 0.23072800 0.03806000
vt 0.22933600 0.20468900
vt 0.42290800 0.02834400
vt 0.40606500 0.01925300
vt 0.42479300 0.03808300
vt 0.22933600 0.20468900
vt 0.23436800 0.21853900
vt 0.29153100 0.23604900
vt 0.31931800 0.22492700
vt 0.33308200 0.22492900
vt 0.40577200 0.05431200
vt 0.40577200 0.05431200
vt 0.33308200 0.22492900
vt 0.42340100 0.20471200
vt 0.42340100 0.20471200
vt 0.33308200 0.22492900
vt 0.36068300 0.23605700
vt 0.42340100 0.20471200
vt 0.36068300 0.23605700
vt 0.41813800 0.21856000
vt 0.42479300 0.03808300
vt 0.40606500 0.01925300
vt 0.24977100 0.01923400
vt 0.42479300 0.03808300
vt 0.24977100 0.01923400
vt 0.40577200 0.05431200
vt 0.40577200 0.05431200
vt 0.24977100 0.01923400
vt 0.23072800 0.03806000
f 1/1/1 3/3/3 2/2/2
f 4/4/4 6/6/6 5/5/5
f 7/7/7 9/9/9 8/8/8
f 10/10/10 12/12/12 11/11/11
f 13/13/13 15/15/15 14/14/14
f 16/16/16 18/18/18 17/17/17
f 19/19/19 21/21/21 20/20/20
f 22/22/22 24/24/24 23/23/23
f 25/25/25 27/27/27 26/26/26
f 28/28/28 30/30/30 29/29/29
f 31/31/31 33/33/33 32/32/32
f 34/34/34 36/36/36 35/35/35
f 37/37/37 39/39/39 38/38/38
f 40/40/40 42/42/42 41/41/41
f 43/43/43 45/45/45 44/44/44

