mtllib material.mtl
usemtl material_0
v -0.10850000 0.07946100 0.00598200
v -0.10750000 0.08047500 0.00653500
v -0.10850000 0.08350000 0.00527000
v -0.10850000 0.07381000 -0.03284600
v -0.10850000 0.05908900 -0.01182300
v -0.10850000 0.06289800 -0.01220700
v -0.10850000 0.08866800 -0.02624600
v -0.10850000 0.06289800 -0.01220700
v -0.10850000 0.09313400 -0.02521000
v -0.10850000 0.09313400 -0.02521000
v -0.10850000 0.06289800 -0.01220700
v -0.10850000 0.08350000 0.00527000
v -0.10850000 0.09313400 -0.02521000
v -0.10850000 0.08350000 0.00527000
v -0.10850000 0.09822000 -0.01575400
v -0.10870000 0.05847600 -0.01042100
v -0.10850000 0.05980100 -0.00778400
v -0.10850000 0.05908900 -0.01182300
v -0.10850000 0.09822000 -0.01575400
v -0.10870000 0.09879600 -0.01795400
v -0.10850000 0.09313400 -0.02521000
v -0.10850000 0.08866800 -0.02624600
v -0.10850000 0.08693600 -0.02745800
v -0.10850000 0.06289800 -0.01220700
v -0.10850000 0.06289800 -0.01220700
v -0.10850000 0.08693600 -0.02745800
v -0.10850000 0.07381000 -0.03284600
v -0.10850000 0.07381000 -0.03284600
v -0.10850000 0.08693600 -0.02745800
v -0.10850000 0.08443600 -0.03130100
v -0.10850000 0.07381000 -0.03284600
v -0.10850000 0.08443600 -0.03130100
v -0.10870000 0.07568100 -0.03414000
v -0.10850000 0.05908900 -0.01182300
v -0.10850000 0.05980100 -0.00778400
v -0.10850000 0.07946100 0.00598200
v -0.10850000 0.05908900 -0.01182300
v -0.10850000 0.07946100 0.00598200
v -0.10850000 0.06289800 -0.01220700
v -0.10850000 0.06289800 -0.01220700
v -0.10850000 0.07946100 0.00598200
v -0.10850000 0.08350000 0.00527000
vn -0.58485700 0.14085700 0.79881200
vn -0.58485700 0.14085700 0.79881200
vn -0.58485800 0.14085700 0.79881200
vn -1.00000000 0.00000000 -0.00000100
vn -1.00000000 0.00000000 -0.00000100
vn -1.00000000 0.00000000 -0.00000100
vn -1.00000000 0.00000100 -0.00000000
vn -1.00000000 0.00000100 -0.00000000
vn -1.00000000 0.00000100 -0.00000000
vn -1.00000000 0.00000100 0.00000000
vn -1.00000000 0.00000100 0.00000000
vn -1.00000000 0.00000100 0.00000000
vn -1.00000000 0.00000100 0.00000000
vn -1.00000000 0.00000100 0.00000000
vn -1.00000000 0.00000100 0.00000000
vn -0.97324400 0.22628200 -0.03989900
vn -0.97324400 0.22628200 -0.03989900
vn -0.97324400 0.22628200 -0.03989900
vn -0.99177500 -0.11272400 0.06063300
vn -0.99177500 -0.11272400 0.06063300
vn -0.99177500 -0.11272400 0.06063300
vn -1.00000000 0.00000000 -0.00000000
vn -1.00000000 0.00000000 -0.00000000
vn -1.00000000 0.00000000 -0.00000000
vn -1.00000000 -0.00000100 -0.00000000
vn -1.00000000 -0.00000100 -0.00000000
vn -1.00000000 -0.00000100 -0.00000000
vn -1.00000000 0.00000000 0.00000000
vn -1.00000000 0.00000000 0.00000000
vn -1.00000000 0.00000000 0.00000000
vn -0.99177500 -0.01841900 0.12665900
vn -0.99177500 -0.01841900 0.12665900
vn -0.99177500 -0.01841900 0.12665900
vn -1.00000000 -0.00000000 0.00000000
vn -1.00000000 -0.00000000 0.00000000
vn -1.00000000 -0.00000000 0.00000000
vn -1.00000000 0.00000300 0.00000200
vn -1.00000000 0.00000300 0.00000200
vn -1.00000000 0.00000300 0.00000200
vn -1.00000000 -0.00000500 -0.00000100
vn -1.00000000 -0.00000500 -0.00000100
vn -1.00000000 -0.00000500 -0.00000100
vt 0.19613500 0.01988300
vt 0.20369100 0.02070500
vt 0.21540600 0.03884200
vt 0.02130700 0.20756500
vt 0.01948700 0.03934700
vt 0.03873100 0.05568400
vt 0.12643500 0.22771400
vt 0.03873100 0.05568400
vt 0.15451500 0.23887300
vt 0.15451500 0.23887300
vt 0.03873100 0.05568400
vt 0.21540600 0.03884200
vt 0.15451500 0.23887300
vt 0.21540600 0.03884200
vt 0.21722500 0.20705900
vt 0.02136600 0.02951000
vt 0.03834800 0.02029000
vt 0.01948700 0.03934700
vt 0.21722500 0.20705900
vt 0.21218000 0.22105400
vt 0.15451500 0.23887300
vt 0.12643500 0.22771400
vt 0.11253900 0.22775000
vt 0.03873100 0.05568400
vt 0.03873100 0.05568400
vt 0.11253900 0.22775000
vt 0.02130700 0.20756500
vt 0.02130700 0.20756500
vt 0.11253900 0.22775000
vt 0.08470300 0.23905300
vt 0.02130700 0.20756500
vt 0.08470300 0.23905300
vt 0.02665500 0.22153200
vt 0.01948700 0.03934700
vt 0.03834800 0.02029000
vt 0.19613500 0.01988300
vt 0.01948700 0.03934700
vt 0.19613500 0.01988300
vt 0.03873100 0.05568400
vt 0.03873100 0.05568400
vt 0.19613500 0.01988300
vt 0.21540600 0.03884200
f 1/1/1 2/2/2 3/3/3
f 4/4/4 5/5/5 6/6/6
f 7/7/7 8/8/8 9/9/9
f 10/10/10 11/11/11 12/12/12
f 13/13/13 14/14/14 15/15/15
f 16/16/16 17/17/17 18/18/18
f 19/19/19 20/20/20 21/21/21
f 22/22/22 23/23/23 24/24/24
f 25/25/25 26/26/26 27/27/27
f 28/28/28 29/29/29 30/30/30
f 31/31/31 32/32/32 33/33/33
f 34/34/34 35/35/35 36/36/36
f 37/37/37 38/38/38 39/39/39
f 40/40/40 41/41/41 42/42/42

