mtllib material.mtl
usemtl material_0
v 0.02910000 0.00400000 0.02120000
v 0.03055000 0.00148900 0.02120000
v 0.05600000 0.00110000 0.02120000
v 0.03200000 0.00650000 0.02120000
v 0.05600000 0.00650000 0.02120000
v 0.04505700 0.03278000 0.02120000
v 0.02910000 0.02070700 0.02120000
v 0.02910000 0.00400000 0.02120000
v 0.03200000 0.00650000 0.02120000
v 0.05890000 0.02070700 0.02120000
v 0.05600000 0.00650000 0.02120000
v 0.05890000 0.00400000 0.02120000
v 0.05600000 0.00650000 0.02120000
v 0.05890000 0.02070700 0.02120000
v 0.04505700 0.03278000 0.02120000
v 0.04505700 0.03278000 0.02120000
v 0.05890000 0.02070700 0.02120000
v 0.05355400 0.03367100 0.02120000
v 0.04505700 0.03278000 0.02120000
v 0.05355400 0.03367100 0.02120000
v 0.04930900 0.03449400 0.02120000
v 0.03200000 0.00650000 0.02120000
v 0.04505700 0.03278000 0.02120000
v 0.04294300 0.03278000 0.02120000
v 0.03200000 0.00650000 0.02120000
v 0.04294300 0.03278000 0.02120000
v 0.02910000 0.02070700 0.02120000
v 0.02910000 0.02070700 0.02120000
v 0.04294300 0.03278000 0.02120000
v 0.03444600 0.03367100 0.02120000
v 0.03444600 0.03367100 0.02120000
v 0.04294300 0.03278000 0.02120000
v 0.03869100 0.03449400 0.02120000
v 0.03200000 0.00650000 0.02120000
v 0.02910000 0.00400000 0.02120000
v 0.05600000 0.00650000 0.02120000
v 0.02910000 0.00400000 0.02120000
v 0.05600000 0.00110000 0.02120000
v 0.05600000 0.00650000 0.02120000
v 0.05600000 0.00650000 0.02120000
v 0.05600000 0.00110000 0.02120000
v 0.05890000 0.00400000 0.02120000
vn 0.00000000 0.00000000 1.00000000
vn 0.00000000 0.00000000 1.00000000
vn 0.00000000 0.00000000 1.00000000
vn 0.00000000 -0.00000000 1.00000000
vn 0.00000000 -0.00000000 1.00000000
vn 0.00000000 -0.00000000 1.00000000
vn 0.00000000 -0.00000000 1.00000000
vn 0.00000000 -0.00000000 1.00000000
vn 0.00000000 -0.00000000 1.00000000
vn 0.00000000 -0.00000000 1.00000000
vn 0.00000000 -0.00000000 1.00000000
vn 0.00000000 -0.00000000 1.00000000
vn 0.00000000 -0.00000000 1.00000000
vn 0.00000000 -0.00000000 1.00000000
vn 0.00000000 -0.00000000 1.00000000
vn 0.00000000 -0.00000000 1.00000000
vn 0.00000000 -0.00000000 1.00000000
vn 0.00000000 -0.00000000 1.00000000
vn 0.00000000 -0.00000000 1.00000000
vn 0.00000000 -0.00000000 1.00000000
vn 0.00000000 -0.00000000 1.00000000
vn 0.00000000 -0.00000000 1.00000000
vn 0.00000000 -0.00000000 1.00000000
vn 0.00000000 -0.00000000 1.00000000
vn 0.00000000 -0.00000000 1.00000000
vn 0.00000000 -0.00000000 1.00000000
vn 0.00000000 -0.00000000 1.00000000
vn 0.00000000 -0.00000000 1.00000000
vn 0.00000000 -0.00000000 1.00000000
vn 0.00000000 -0.00000000 1.00000000
vn 0.00000000 -0.00000000 1.00000000
vn 0.00000000 -0.00000000 1.00000000
vn 0.00000000 -0.00000000 1.00000000
vn 0.00000000 -0.00000000 1.00000000
vn 0.00000000 -0.00000000 1.00000000
vn 0.00000000 -0.00000000 1.00000000
vn 0.00000000 -0.00000000 1.00000000
vn 0.00000000 -0.00000000 1.00000000
vn 0.00000000 -0.00000000 1.00000000
vn 0.00000000 -0.00000000 1.00000000
vn 0.00000000 -0.00000000 1.00000000
vn 0.00000000 -0.00000000 1.00000000
vt 0.45173700 0.03885800
vt 0.46179200 0.02331800
vt 0.63828900 0.02091100
vt 0.47184800 0.05433000
vt 0.63828900 0.05433000
vt 0.56239900 0.21696800
vt 0.45173700 0.14225200
vt 0.45173700 0.03885800
vt 0.47184800 0.05433000
vt 0.65840100 0.14225200
vt 0.63828900 0.05433000
vt 0.65840100 0.03885800
vt 0.63828900 0.05433000
vt 0.65840100 0.14225200
vt 0.56239900 0.21696800
vt 0.56239900 0.21696800
vt 0.65840100 0.14225200
vt 0.62132600 0.22248200
vt 0.56239900 0.21696800
vt 0.62132600 0.22248200
vt 0.59188700 0.22757500
vt 0.47184800 0.05433000
vt 0.56239900 0.21696800
vt 0.54773800 0.21696800
vt 0.47184800 0.05433000
vt 0.54773800 0.21696800
vt 0.45173700 0.14225200
vt 0.45173700 0.14225200
vt 0.54773800 0.21696800
vt 0.48881100 0.22248200
vt 0.48881100 0.22248200
vt 0.54773800 0.21696800
vt 0.51825100 0.22757500
vt 0.47184800 0.05433000
vt 0.45173700 0.03885800
vt 0.63828900 0.05433000
vt 0.45173700 0.03885800
vt 0.63828900 0.02091100
vt 0.63828900 0.05433000
vt 0.63828900 0.05433000
vt 0.63828900 0.02091100
vt 0.65840100 0.03885800
f 1/1/1 2/2/2 3/3/3
f 4/4/4 5/5/5 6/6/6
f 7/7/7 8/8/8 9/9/9
f 10/10/10 11/11/11 12/12/12
f 13/13/13 14/14/14 15/15/15
f 16/16/16 17/17/17 18/18/18
f 19/19/19 20/20/20 21/21/21
f 22/22/22 23/23/23 24/24/24
f 25/25/25 26/26/26 27/27/27
f 28/28/28 29/29/29 30/30/30
f 31/31/31 32/32/32 33/33/33
f 34/34/34 35/35/35 36/36/36
f 37/37/37 38/38/38 39/39/39
f 40/40/40 41/41/41 42/42/42

