mtllib material.mtl
usemtl material_0
v 0.01375000 -0.02381600 -0.02800000
v 0.01052400 -0.02540700 -0.02800000
v 0.01052400 -0.02540700 -0.01920000
v -0.01052400 0.02540700 -0.01920000
v -0.01052400 0.02540700 -0.02800000
v -0.00287500 0.02734900 -0.01920000
v -0.00287500 0.02734900 -0.01920000
v -0.01052400 0.02540700 -0.02800000
v -0.00781000 0.02636800 -0.02850000
v -0.00287500 0.02734900 -0.01920000
v -0.00781000 0.02636800 -0.02850000
v 0.00072000 0.02749100 -0.02800000
v 0.00849800 0.02615400 -0.02800000
v 0.00501100 0.02704000 -0.01920000
v 0.00072000 0.02749100 -0.02800000
v 0.00072000 0.02749100 -0.02800000
v 0.00501100 0.02704000 -0.01920000
v 0.00072000 0.02749100 -0.01920000
v 0.00072000 0.02749100 -0.02800000
v 0.00072000 0.02749100 -0.01920000
v -0.00287500 0.02734900 -0.01920000
v 0.01557600 0.02266300 -0.02800000
v 0.01248500 0.02450300 -0.01920000
v 0.00849800 0.02615400 -0.02800000
v 0.00849800 0.02615400 -0.02800000
v 0.01248500 0.02450300 -0.01920000
v 0.00849800 0.02615400 -0.01920000
v 0.00849800 0.02615400 -0.02800000
v 0.00849800 0.02615400 -0.01920000
v 0.00501100 0.02704000 -0.01920000
v 0.02137200 0.01730600 -0.02800000
v 0.01893000 0.01994800 -0.01920000
v 0.01557600 0.02266300 -0.02800000
v 0.01557600 0.02266300 -0.02800000
v 0.01893000 0.01994800 -0.01920000
v 0.01557600 0.02266300 -0.01920000
v 0.01557600 0.02266300 -0.02800000
v 0.01557600 0.02266300 -0.01920000
v 0.01248500 0.02450300 -0.01920000
v 0.02540700 0.01052400 -0.02800000
v 0.02381600 0.01375000 -0.01920000
v 0.02137200 0.01730600 -0.02800000
v 0.02137200 0.01730600 -0.02800000
v 0.02381600 0.01375000 -0.01920000
v 0.02137200 0.01730600 -0.01920000
v 0.02137200 0.01730600 -0.02800000
v 0.02137200 0.01730600 -0.01920000
v 0.01893000 0.01994800 -0.01920000
v 0.02734900 0.00287500 -0.02800000
v 0.02656300 0.00711800 -0.01920000
v 0.02540700 0.01052400 -0.02800000
v 0.02540700 0.01052400 -0.02800000
v 0.02656300 0.00711800 -0.01920000
v 0.02540700 0.01052400 -0.01920000
v 0.02540700 0.01052400 -0.02800000
v 0.02540700 0.01052400 -0.01920000
v 0.02381600 0.01375000 -0.01920000
v 0.02704000 -0.00501100 -0.02800000
v 0.02749100 -0.00072000 -0.01920000
v 0.02734900 0.00287500 -0.02800000
v 0.02734900 0.00287500 -0.02800000
v 0.02749100 -0.00072000 -0.01920000
v 0.02734900 0.00287500 -0.01920000
v 0.02734900 0.00287500 -0.02800000
v 0.02734900 0.00287500 -0.01920000
v 0.02656300 0.00711800 -0.01920000
v 0.02450300 -0.01248500 -0.02800000
v 0.02615400 -0.00849800 -0.01920000
v 0.02704000 -0.00501100 -0.02800000
v 0.02704000 -0.00501100 -0.02800000
v 0.02615400 -0.00849800 -0.01920000
v 0.02704000 -0.00501100 -0.01920000
v 0.02704000 -0.00501100 -0.02800000
v 0.02704000 -0.00501100 -0.01920000
v 0.02749100 -0.00072000 -0.01920000
v 0.01052400 -0.02540700 -0.01920000
v 0.01730600 -0.02137200 -0.01920000
v 0.01375000 -0.02381600 -0.02800000
v 0.01375000 -0.02381600 -0.02800000
v 0.01730600 -0.02137200 -0.01920000
v 0.01994800 -0.01893000 -0.01920000
v 0.01375000 -0.02381600 -0.02800000
v 0.01994800 -0.01893000 -0.01920000
v 0.01994800 -0.01893000 -0.02800000
v 0.01994800 -0.01893000 -0.02800000
v 0.01994800 -0.01893000 -0.01920000
v 0.02266300 -0.01557600 -0.01920000
v 0.01994800 -0.01893000 -0.02800000
v 0.02266300 -0.01557600 -0.01920000
v 0.02450300 -0.01248500 -0.02800000
v 0.02450300 -0.01248500 -0.02800000
v 0.02266300 -0.01557600 -0.01920000
v 0.02450300 -0.01248500 -0.01920000
v 0.02450300 -0.01248500 -0.02800000
v 0.02450300 -0.01248500 -0.01920000
v 0.02615400 -0.00849800 -0.01920000
v -0.01375000 0.02381600 -0.02800000
v -0.01052400 0.02540700 -0.02800000
v -0.01052400 0.02540700 -0.01920000
v 0.01052400 -0.02540700 -0.01920000
v 0.01052400 -0.02540700 -0.02800000
v 0.00287500 -0.02734900 -0.01920000
v 0.00287500 -0.02734900 -0.01920000
v 0.01052400 -0.02540700 -0.02800000
v 0.00781000 -0.02636800 -0.02850000
v 0.00287500 -0.02734900 -0.01920000
v 0.00781000 -0.02636800 -0.02850000
v -0.00072000 -0.02749100 -0.02800000
v -0.00849800 -0.02615400 -0.02800000
v -0.00501100 -0.02704000 -0.01920000
v -0.00072000 -0.02749100 -0.02800000
v -0.00072000 -0.02749100 -0.02800000
v -0.00501100 -0.02704000 -0.01920000
v -0.00072000 -0.02749100 -0.01920000
v -0.00072000 -0.02749100 -0.02800000
v -0.00072000 -0.02749100 -0.01920000
v 0.00287500 -0.02734900 -0.01920000
v -0.01557600 -0.02266300 -0.02800000
v -0.01248500 -0.02450300 -0.01920000
v -0.00849800 -0.02615400 -0.02800000
v -0.00849800 -0.02615400 -0.02800000
v -0.01248500 -0.02450300 -0.01920000
v -0.00849800 -0.02615400 -0.01920000
v -0.00849800 -0.02615400 -0.02800000
v -0.00849800 -0.02615400 -0.01920000
v -0.00501100 -0.02704000 -0.01920000
v -0.02137200 -0.01730600 -0.02800000
v -0.01893000 -0.01994800 -0.01920000
v -0.01557600 -0.02266300 -0.02800000
v -0.01557600 -0.02266300 -0.02800000
v -0.01893000 -0.01994800 -0.01920000
v -0.01557600 -0.02266300 -0.01920000
v -0.01557600 -0.02266300 -0.02800000
v -0.01557600 -0.02266300 -0.01920000
v -0.01248500 -0.02450300 -0.01920000
v -0.02540700 -0.01052400 -0.02800000
v -0.02381600 -0.01375000 -0.01920000
v -0.02137200 -0.01730600 -0.02800000
v -0.02137200 -0.01730600 -0.02800000
v -0.02381600 -0.01375000 -0.01920000
v -0.02137200 -0.01730600 -0.01920000
v -0.02137200 -0.01730600 -0.02800000
v -0.02137200 -0.01730600 -0.01920000
v -0.01893000 -0.01994800 -0.01920000
v -0.02734900 -0.00287500 -0.02800000
v -0.02656300 -0.00711800 -0.01920000
v -0.02540700 -0.01052400 -0.02800000
v -0.02540700 -0.01052400 -0.02800000
v -0.02656300 -0.00711800 -0.01920000
v -0.02540700 -0.01052400 -0.01920000
v -0.02540700 -0.01052400 -0.02800000
v -0.02540700 -0.01052400 -0.01920000
v -0.02381600 -0.01375000 -0.01920000
v -0.02704000 0.00501100 -0.02800000
v -0.02749100 0.00072000 -0.01920000
v -0.02734900 -0.00287500 -0.02800000
v -0.02734900 -0.00287500 -0.02800000
v -0.02749100 0.00072000 -0.01920000
v -0.02734900 -0.00287500 -0.01920000
v -0.02734900 -0.00287500 -0.02800000
v -0.02734900 -0.00287500 -0.01920000
v -0.02656300 -0.00711800 -0.01920000
v -0.02450300 0.01248500 -0.02800000
v -0.02615400 0.00849800 -0.01920000
v -0.02704000 0.00501100 -0.02800000
v -0.02704000 0.00501100 -0.02800000
v -0.02615400 0.00849800 -0.01920000
v -0.02704000 0.00501100 -0.01920000
v -0.02704000 0.00501100 -0.02800000
v -0.02704000 0.00501100 -0.01920000
v -0.02749100 0.00072000 -0.01920000
v -0.01052400 0.02540700 -0.01920000
v -0.01730600 0.02137200 -0.01920000
v -0.01375000 0.02381600 -0.02800000
v -0.01375000 0.02381600 -0.02800000
v -0.01730600 0.02137200 -0.01920000
v -0.01994800 0.01893000 -0.01920000
v -0.01375000 0.02381600 -0.02800000
v -0.01994800 0.01893000 -0.01920000
v -0.01994800 0.01893000 -0.02800000
v -0.01994800 0.01893000 -0.02800000
v -0.01994800 0.01893000 -0.01920000
v -0.02266300 0.01557600 -0.01920000
v -0.01994800 0.01893000 -0.02800000
v -0.02266300 0.01557600 -0.01920000
v -0.02450300 0.01248500 -0.02800000
v -0.02450300 0.01248500 -0.02800000
v -0.02266300 0.01557600 -0.01920000
v -0.02450300 0.01248500 -0.01920000
v -0.02450300 0.01248500 -0.02800000
v -0.02450300 0.01248500 -0.01920000
v -0.02615400 0.00849800 -0.01920000
v 0.00072000 0.02749100 -0.02800000
v 0.00781000 0.02636800 -0.02850000
v 0.00849800 0.02615400 -0.02800000
v 0.00849800 0.02615400 -0.02800000
v 0.01497800 0.02306300 -0.02850000
v 0.01557600 0.02266300 -0.02800000
v 0.01557600 0.02266300 -0.02800000
v 0.02091100 0.01786000 -0.02850000
v 0.02137200 0.01730600 -0.02800000
v 0.02137200 0.01730600 -0.02800000
v 0.02512300 0.01118500 -0.02850000
v 0.02540700 0.01052400 -0.02800000
v -0.00072000 -0.02749100 -0.02800000
v -0.00781000 -0.02636800 -0.02850000
v -0.00849800 -0.02615400 -0.02800000
v -0.00849800 -0.02615400 -0.02800000
v -0.01497800 -0.02306300 -0.02850000
v -0.01557600 -0.02266300 -0.02800000
v -0.01557600 -0.02266300 -0.02800000
v -0.02091100 -0.01786000 -0.02850000
v -0.02137200 -0.01730600 -0.02800000
v -0.02137200 -0.01730600 -0.02800000
v -0.02512300 -0.01118500 -0.02850000
v -0.02540700 -0.01052400 -0.02800000
vn 0.44231400 -0.89686100 0.00000000
vn 0.44231400 -0.89686000 0.00000000
vn 0.44231400 -0.89686100 0.00000000
vn -0.24620500 0.96921800 0.00000000
vn -0.24620500 0.96921800 0.00000000
vn -0.24620500 0.96921800 0.00000000
vn -0.32060300 0.94460900 0.07020100
vn -0.32060300 0.94460900 0.07020100
vn -0.32060300 0.94460900 0.07020100
vn -0.11749500 0.99255500 -0.03209800
vn -0.11749500 0.99255500 -0.03209800
vn -0.11749500 0.99255500 -0.03209800
vn 0.16930700 0.98504000 -0.03210100
vn 0.16930700 0.98504000 -0.03210100
vn 0.16930700 0.98504000 -0.03210100
vn 0.10450300 0.99452500 0.00000000
vn 0.10450300 0.99452500 0.00000000
vn 0.10450300 0.99452500 0.00000000
vn -0.03930100 0.99922700 0.00000000
vn -0.03930100 0.99922700 0.00000000
vn -0.03930100 0.99922700 0.00000000
vn 0.44209700 0.89639300 -0.03210000
vn 0.44209700 0.89639300 -0.03210000
vn 0.44209700 0.89639300 -0.03210000
vn 0.38269000 0.92387700 0.00000000
vn 0.38269000 0.92387700 0.00000000
vn 0.38269000 0.92387700 0.00000000
vn 0.24620500 0.96921800 0.00000000
vn 0.24620500 0.96921800 0.00000000
vn 0.24620500 0.96921800 0.00000000
vn 0.67849900 0.73389900 -0.03210000
vn 0.67849900 0.73389900 -0.03210000
vn 0.67849900 0.73389900 -0.03210000
vn 0.62933100 0.77713800 0.00000000
vn 0.62933100 0.77713800 0.00000000
vn 0.62933100 0.77713800 0.00000000
vn 0.51130100 0.85940200 0.00000000
vn 0.51130100 0.85940200 0.00000000
vn 0.51130100 0.85940200 0.00000000
vn 0.85898600 0.51099200 -0.03210000
vn 0.85898600 0.51099200 -0.03210000
vn 0.85898600 0.51099200 -0.03210000
vn 0.82412100 0.56641400 0.00000000
vn 0.82412100 0.56641400 0.00000000
vn 0.82412100 0.56641400 0.00000000
vn 0.73431300 0.67881200 0.00000000
vn 0.73431300 0.67881200 0.00000000
vn 0.73431300 0.67881200 0.00000000
vn 0.96873600 0.24600900 -0.03210100
vn 0.96873600 0.24600900 -0.03210100
vn 0.96873600 0.24600900 -0.03210100
vn 0.94693900 0.32141300 0.00000000
vn 0.94693900 0.32141300 0.00000000
vn 0.94693900 0.32141300 0.00000000
vn 0.89687400 0.44228700 0.00000000
vn 0.89687400 0.44228700 0.00000000
vn 0.89687400 0.44228700 0.00000000
vn 0.99871600 -0.03920100 -0.03210000
vn 0.99871600 -0.03920100 -0.03210000
vn 0.99871600 -0.03920100 -0.03210000
vn 0.99922700 0.03930100 0.00000000
vn 0.99922700 0.03930100 0.00000000
vn 0.99922700 0.03930100 0.00000000
vn 0.98326300 0.18219300 0.00000000
vn 0.98326300 0.18219300 0.00000000
vn 0.98326300 0.18219300 0.00000000
vn 0.94643000 -0.32131000 -0.03210100
vn 0.94643000 -0.32131000 -0.03210100
vn 0.94643000 -0.32131000 -0.03210100
vn 0.96921800 -0.24620500 -0.00000000
vn 0.96921800 -0.24620500 -0.00000000
vn 0.96921800 -0.24620500 -0.00000000
vn 0.99452500 -0.10450300 -0.00000000
vn 0.99452500 -0.10450300 -0.00000000
vn 0.99452500 -0.10450300 -0.00000000
vn 0.51099200 -0.85898600 0.03210000
vn 0.51099200 -0.85898600 0.03210000
vn 0.51099200 -0.85898600 0.03210000
vn 0.67711700 -0.73251900 -0.07020200
vn 0.67711700 -0.73251900 -0.07020200
vn 0.67711700 -0.73251900 -0.07020200
vn 0.61910600 -0.78530800 -0.00000000
vn 0.61910600 -0.78530800 -0.00000000
vn 0.61910600 -0.78530800 -0.00000000
vn 0.77713800 -0.62933100 -0.00000000
vn 0.77713800 -0.62933100 -0.00000000
vn 0.77713800 -0.62933100 -0.00000000
vn 0.81623600 -0.57682600 -0.03210100
vn 0.81623600 -0.57682600 -0.03210100
vn 0.81623600 -0.57682600 -0.03210100
vn 0.85940200 -0.51130100 -0.00000000
vn 0.85940200 -0.51130100 -0.00000000
vn 0.85940200 -0.51130100 -0.00000000
vn 0.92387700 -0.38269000 -0.00000000
vn 0.92387700 -0.38269000 -0.00000000
vn 0.92387700 -0.38269000 -0.00000000
vn -0.44228700 0.89687400 0.00000000
vn -0.44228700 0.89687400 0.00000000
vn -0.44228700 0.89687400 0.00000000
vn 0.24620500 -0.96921800 -0.00000000
vn 0.24620500 -0.96921800 -0.00000000
vn 0.24620500 -0.96921800 -0.00000000
vn 0.32060300 -0.94460900 0.07020100
vn 0.32060300 -0.94460900 0.07020100
vn 0.32060300 -0.94460900 0.07020100
vn 0.11749500 -0.99255500 -0.03209800
vn 0.11749500 -0.99255500 -0.03209800
vn 0.11749500 -0.99255500 -0.03209800
vn -0.16930700 -0.98504000 -0.03210100
vn -0.16930700 -0.98504000 -0.03210100
vn -0.16930700 -0.98504000 -0.03210100
vn -0.10450300 -0.99452500 -0.00000000
vn -0.10450300 -0.99452500 -0.00000000
vn -0.10450300 -0.99452500 -0.00000000
vn 0.03930100 -0.99922700 -0.00000000
vn 0.03930100 -0.99922700 -0.00000000
vn 0.03930100 -0.99922700 -0.00000000
vn -0.44209700 -0.89639300 -0.03210000
vn -0.44209700 -0.89639300 -0.03210000
vn -0.44209700 -0.89639300 -0.03210000
vn -0.38269000 -0.92387700 -0.00000000
vn -0.38269000 -0.92387700 -0.00000000
vn -0.38269000 -0.92387700 -0.00000000
vn -0.24620500 -0.96921800 -0.00000000
vn -0.24620500 -0.96921800 -0.00000000
vn -0.24620500 -0.96921800 -0.00000000
vn -0.67849900 -0.73389900 -0.03210000
vn -0.67849900 -0.73389900 -0.03210000
vn -0.67849900 -0.73389900 -0.03210000
vn -0.62933100 -0.77713800 -0.00000000
vn -0.62933100 -0.77713800 -0.00000000
vn -0.62933100 -0.77713800 -0.00000000
vn -0.51130100 -0.85940200 -0.00000000
vn -0.51130100 -0.85940200 -0.00000000
vn -0.51130100 -0.85940200 -0.00000000
vn -0.85898600 -0.51099200 -0.03210000
vn -0.85898600 -0.51099200 -0.03210000
vn -0.85898600 -0.51099200 -0.03210000
vn -0.82412100 -0.56641400 -0.00000000
vn -0.82412100 -0.56641400 -0.00000000
vn -0.82412100 -0.56641400 -0.00000000
vn -0.73431300 -0.67881200 -0.00000000
vn -0.73431300 -0.67881200 -0.00000000
vn -0.73431300 -0.67881200 -0.00000000
vn -0.96873600 -0.24600900 -0.03210100
vn -0.96873600 -0.24600900 -0.03210100
vn -0.96873600 -0.24600900 -0.03210100
vn -0.94693900 -0.32141300 -0.00000000
vn -0.94693900 -0.32141300 -0.00000000
vn -0.94693900 -0.32141300 -0.00000000
vn -0.89687400 -0.44228700 -0.00000000
vn -0.89687400 -0.44228700 -0.00000000
vn -0.89687400 -0.44228700 -0.00000000
vn -0.99871600 0.03920100 -0.03210000
vn -0.99871600 0.03920100 -0.03210000
vn -0.99871600 0.03920100 -0.03210000
vn -0.99922700 -0.03930100 -0.00000000
vn -0.99922700 -0.03930100 -0.00000000
vn -0.99922700 -0.03930100 -0.00000000
vn -0.98326300 -0.18219300 -0.00000000
vn -0.98326300 -0.18219300 -0.00000000
vn -0.98326300 -0.18219300 -0.00000000
vn -0.94643000 0.32131000 -0.03210100
vn -0.94643000 0.32131000 -0.03210100
vn -0.94643000 0.32131000 -0.03210100
vn -0.96921800 0.24620500 0.00000000
vn -0.96921800 0.24620500 0.00000000
vn -0.96921800 0.24620500 0.00000000
vn -0.99452500 0.10450300 0.00000000
vn -0.99452500 0.10450300 0.00000000
vn -0.99452500 0.10450300 0.00000000
vn -0.51099200 0.85898600 0.03210000
vn -0.51099200 0.85898600 0.03210000
vn -0.51099200 0.85898600 0.03210000
vn -0.67711700 0.73251900 -0.07020200
vn -0.67711700 0.73251900 -0.07020200
vn -0.67711700 0.73251900 -0.07020200
vn -0.61910600 0.78530800 0.00000000
vn -0.61910600 0.78530800 0.00000000
vn -0.61910600 0.78530800 0.00000000
vn -0.77713800 0.62933100 0.00000000
vn -0.77713800 0.62933100 0.00000000
vn -0.77713800 0.62933100 0.00000000
vn -0.81623600 0.57682600 -0.03210100
vn -0.81623600 0.57682600 -0.03210100
vn -0.81623600 0.57682600 -0.03210100
vn -0.85940200 0.51130100 0.00000000
vn -0.85940200 0.51130100 0.00000000
vn -0.85940200 0.51130100 0.00000000
vn -0.92387700 0.38269000 0.00000000
vn -0.92387700 0.38269000 0.00000000
vn -0.92387700 0.38269000 0.00000000
vn 0.12040200 0.70051100 -0.70341100
vn 0.12040200 0.70051100 -0.70341100
vn 0.12040200 0.70051100 -0.70341100
vn 0.31439600 0.63749200 -0.70339100
vn 0.31439600 0.63749200 -0.70339100
vn 0.31439600 0.63749200 -0.70339100
vn 0.48251000 0.52191100 -0.70341500
vn 0.48251000 0.52191100 -0.70341500
vn 0.48251000 0.52191100 -0.70341500
vn 0.61082800 0.36341700 -0.70343200
vn 0.61082800 0.36341700 -0.70343200
vn 0.61082800 0.36341700 -0.70343200
vn -0.12040200 -0.70051100 -0.70341100
vn -0.12040200 -0.70051100 -0.70341100
vn -0.12040200 -0.70051100 -0.70341100
vn -0.31439600 -0.63749200 -0.70339100
vn -0.31439600 -0.63749200 -0.70339100
vn -0.31439600 -0.63749200 -0.70339100
vn -0.48251000 -0.52191100 -0.70341500
vn -0.48251000 -0.52191100 -0.70341500
vn -0.48251000 -0.52191100 -0.70341500
vn -0.61082800 -0.36341700 -0.70343200
vn -0.61082800 -0.36341700 -0.70343200
vn -0.61082800 -0.36341700 -0.70343200
vt 0.00000000 0.00000000
vt 0.00000000 0.00000000
vt 0.00000000 0.00000000
vt 0.00000000 0.00000000
vt 0.00000000 0.00000000
vt 0.00000000 0.00000000
vt 0.00000000 0.00000000
vt 0.00000000 0.00000000
vt 0.00000000 0.00000000
vt 0.00000000 0.00000000
vt 0.00000000 0.00000000
vt 0.00000000 0.00000000
vt 0.00000000 0.00000000
vt 0.00000000 0.00000000
vt 0.00000000 0.00000000
vt 0.00000000 0.00000000
vt 0.00000000 0.00000000
vt 0.00000000 0.00000000
vt 0.00000000 0.00000000
vt 0.00000000 0.00000000
vt 0.00000000 0.00000000
vt 0.00000000 0.00000000
vt 0.00000000 0.00000000
vt 0.00000000 0.00000000
vt 0.00000000 0.00000000
vt 0.00000000 0.00000000
vt 0.00000000 0.00000000
vt 0.00000000 0.00000000
vt 0.00000000 0.00000000
vt 0.00000000 0.00000000
vt 0.00000000 0.00000000
vt 0.00000000 0.00000000
vt 0.00000000 0.00000000
vt 0.00000000 0.00000000
vt 0.00000000 0.00000000
vt 0.00000000 0.00000000
vt 0.00000000 0.00000000
vt 0.00000000 0.00000000
vt 0.00000000 0.00000000
vt 0.00000000 0.00000000
vt 0.00000000 0.00000000
vt 0.00000000 0.00000000
vt 0.00000000 0.00000000
vt 0.00000000 0.00000000
vt 0.00000000 0.00000000
vt 0.00000000 0.00000000
vt 0.00000000 0.00000000
vt 0.00000000 0.00000000
vt 0.00000000 0.00000000
vt 0.00000000 0.00000000
vt 0.00000000 0.00000000
vt 0.00000000 0.00000000
vt 0.00000000 0.00000000
vt 0.00000000 0.00000000
vt 0.00000000 0.00000000
vt 0.00000000 0.00000000
vt 0.00000000 0.00000000
vt 0.00000000 0.00000000
vt 0.00000000 0.00000000
vt 0.00000000 0.00000000
vt 0.00000000 0.00000000
vt 0.00000000 0.00000000
vt 0.00000000 0.00000000
vt 0.00000000 0.00000000
vt 0.00000000 0.00000000
vt 0.00000000 0.00000000
vt 0.00000000 0.00000000
vt 0.00000000 0.00000000
vt 0.00000000 0.00000000
vt 0.00000000 0.00000000
vt 0.00000000 0.00000000
vt 0.00000000 0.00000000
vt 0.00000000 0.00000000
vt 0.00000000 0.00000000
vt 0.00000000 0.00000000
vt 0.00000000 0.00000000
vt 0.00000000 0.00000000
vt 0.00000000 0.00000000
vt 0.00000000 0.00000000
vt 0.00000000 0.00000000
vt 0.00000000 0.00000000
vt 0.00000000 0.00000000
vt 0.00000000 0.00000000
vt 0.00000000 0.00000000
vt 0.00000000 0.00000000
vt 0.00000000 0.00000000
vt 0.00000000 0.00000000
vt 0.00000000 0.00000000
vt 0.00000000 0.00000000
vt 0.00000000 0.00000000
vt 0.00000000 0.00000000
vt 0.00000000 0.00000000
vt 0.00000000 0.00000000
vt 0.00000000 0.00000000
vt 0.00000000 0.00000000
vt 0.00000000 0.00000000
vt 0.00000000 0.00000000
vt 0.00000000 0.00000000
vt 0.00000000 0.00000000
vt 0.00000000 0.00000000
vt 0.00000000 0.00000000
vt 0.00000000 0.00000000
vt 0.00000000 0.00000000
vt 0.00000000 0.00000000
vt 0.00000000 0.00000000
vt 0.00000000 0.00000000
vt 0.00000000 0.00000000
vt 0.00000000 0.00000000
vt 0.00000000 0.00000000
vt 0.00000000 0.00000000
vt 0.00000000 0.00000000
vt 0.00000000 0.00000000
vt 0.00000000 0.00000000
vt 0.00000000 0.00000000
vt 0.00000000 0.00000000
vt 0.00000000 0.00000000
vt 0.00000000 0.00000000
vt 0.00000000 0.00000000
vt 0.00000000 0.00000000
vt 0.00000000 0.00000000
vt 0.00000000 0.00000000
vt 0.00000000 0.00000000
vt 0.00000000 0.00000000
vt 0.00000000 0.00000000
vt 0.00000000 0.00000000
vt 0.00000000 0.00000000
vt 0.00000000 0.00000000
vt 0.00000000 0.00000000
vt 0.00000000 0.00000000
vt 0.00000000 0.00000000
vt 0.00000000 0.00000000
vt 0.00000000 0.00000000
vt 0.00000000 0.00000000
vt 0.00000000 0.00000000
vt 0.00000000 0.00000000
vt 0.00000000 0.00000000
vt 0.00000000 0.00000000
vt 0.00000000 0.00000000
vt 0.00000000 0.00000000
vt 0.00000000 0.00000000
vt 0.00000000 0.00000000
vt 0.00000000 0.00000000
vt 0.00000000 0.00000000
vt 0.00000000 0.00000000
vt 0.00000000 0.00000000
vt 0.00000000 0.00000000
vt 0.00000000 0.00000000
vt 0.00000000 0.00000000
vt 0.00000000 0.00000000
vt 0.00000000 0.00000000
vt 0.00000000 0.00000000
vt 0.00000000 0.00000000
vt 0.00000000 0.00000000
vt 0.00000000 0.00000000
vt 0.00000000 0.00000000
vt 0.00000000 0.00000000
vt 0.00000000 0.00000000
vt 0.00000000 0.00000000
vt 0.00000000 0.00000000
vt 0.00000000 0.00000000
vt 0.00000000 0.00000000
vt 0.00000000 0.00000000
vt 0.00000000 0.00000000
vt 0.00000000 0.00000000
vt 0.00000000 0.00000000
vt 0.00000000 0.00000000
vt 0.00000000 0.00000000
vt 0.00000000 0.00000000
vt 0.00000000 0.00000000
vt 0.00000000 0.00000000
vt 0.00000000 0.00000000
vt 0.00000000 0.00000000
vt 0.00000000 0.00000000
vt 0.00000000 0.00000000
vt 0.00000000 0.00000000
vt 0.00000000 0.00000000
vt 0.00000000 0.00000000
vt 0.00000000 0.00000000
vt 0.00000000 0.00000000
vt 0.00000000 0.00000000
vt 0.00000000 0.00000000
vt 0.00000000 0.00000000
vt 0.00000000 0.00000000
vt 0.00000000 0.00000000
vt 0.00000000 0.00000000
vt 0.00000000 0.00000000
vt 0.00000000 0.00000000
vt 0.00000000 0.00000000
vt 0.00000000 0.00000000
vt 0.00000000 0.00000000
vt 0.00000000 0.00000000
vt 0.00000000 0.00000000
vt 0.00000000 0.00000000
vt 0.00000000 0.00000000
vt 0.00000000 0.00000000
vt 0.00000000 0.00000000
vt 0.00000000 0.00000000
vt 0.00000000 0.00000000
vt 0.00000000 0.00000000
vt 0.00000000 0.00000000
vt 0.00000000 0.00000000
vt 0.00000000 0.00000000
vt 0.00000000 0.00000000
vt 0.00000000 0.00000000
vt 0.00000000 0.00000000
vt 0.00000000 0.00000000
vt 0.00000000 0.00000000
vt 0.00000000 0.00000000
vt 0.00000000 0.00000000
vt 0.00000000 0.00000000
vt 0.00000000 0.00000000
vt 0.00000000 0.00000000
vt 0.00000000 0.00000000
vt 0.00000000 0.00000000
vt 0.00000000 0.00000000
vt 0.00000000 0.00000000
f 1/1/1 3/3/3 2/2/2
f 4/4/4 6/6/6 5/5/5
f 7/7/7 9/9/9 8/8/8
f 10/10/10 12/12/12 11/11/11
f 13/13/13 15/15/15 14/14/14
f 16/16/16 18/18/18 17/17/17
f 19/19/19 21/21/21 20/20/20
f 22/22/22 24/24/24 23/23/23
f 25/25/25 27/27/27 26/26/26
f 28/28/28 30/30/30 29/29/29
f 31/31/31 33/33/33 32/32/32
f 34/34/34 36/36/36 35/35/35
f 37/37/37 39/39/39 38/38/38
f 40/40/40 42/42/42 41/41/41
f 43/43/43 45/45/45 44/44/44
f 46/46/46 48/48/48 47/47/47
f 49/49/49 51/51/51 50/50/50
f 52/52/52 54/54/54 53/53/53
f 55/55/55 57/57/57 56/56/56
f 58/58/58 60/60/60 59/59/59
f 61/61/61 63/63/63 62/62/62
f 64/64/64 66/66/66 65/65/65
f 67/67/67 69/69/69 68/68/68
f 70/70/70 72/72/72 71/71/71
f 73/73/73 75/75/75 74/74/74
f 76/76/76 78/78/78 77/77/77
f 79/79/79 81/81/81 80/80/80
f 82/82/82 84/84/84 83/83/83
f 85/85/85 87/87/87 86/86/86
f 88/88/88 90/90/90 89/89/89
f 91/91/91 93/93/93 92/92/92
f 94/94/94 96/96/96 95/95/95
f 97/97/97 99/99/99 98/98/98
f 100/100/100 102/102/102 101/101/101
f 103/103/103 105/105/105 104/104/104
f 106/106/106 108/108/108 107/107/107
f 109/109/109 111/111/111 110/110/110
f 112/112/112 114/114/114 113/113/113
f 115/115/115 117/117/117 116/116/116
f 118/118/118 120/120/120 119/119/119
f 121/121/121 123/123/123 122/122/122
f 124/124/124 126/126/126 125/125/125
f 127/127/127 129/129/129 128/128/128
f 130/130/130 132/132/132 131/131/131
f 133/133/133 135/135/135 134/134/134
f 136/136/136 138/138/138 137/137/137
f 139/139/139 141/141/141 140/140/140
f 142/142/142 144/144/144 143/143/143
f 145/145/145 147/147/147 146/146/146
f 148/148/148 150/150/150 149/149/149
f 151/151/151 153/153/153 152/152/152
f 154/154/154 156/156/156 155/155/155
f 157/157/157 159/159/159 158/158/158
f 160/160/160 162/162/162 161/161/161
f 163/163/163 165/165/165 164/164/164
f 166/166/166 168/168/168 167/167/167
f 169/169/169 171/171/171 170/170/170
f 172/172/172 174/174/174 173/173/173
f 175/175/175 177/177/177 176/176/176
f 178/178/178 180/180/180 179/179/179
f 181/181/181 183/183/183 182/182/182
f 184/184/184 186/186/186 185/185/185
f 187/187/187 189/189/189 188/188/188
f 190/190/190 192/192/192 191/191/191
f 193/193/193 195/195/195 194/194/194
f 196/196/196 198/198/198 197/197/197
f 199/199/199 201/201/201 200/200/200
f 202/202/202 204/204/204 203/203/203
f 205/205/205 207/207/207 206/206/206
f 208/208/208 210/210/210 209/209/209
f 211/211/211 213/213/213 212/212/212
f 214/214/214 216/216/216 215/215/215

