mtllib material.mtl
usemtl material_0
v -0.00115100 0.00345300 -0.01288000
v -0.00222600 0.00069900 -0.01331700
v -0.00222600 0.00839300 -0.01036200
v -0.00115100 0.00345300 -0.01288000
v -0.00222600 0.00839300 -0.01036200
v -0.00115100 0.00726400 -0.01118300
v -0.00115100 0.00726400 -0.01118300
v -0.00222600 0.00839300 -0.01036200
v -0.00090100 0.01143100 -0.00659800
v -0.00090100 0.01143100 -0.00659800
v -0.00222600 0.00839300 -0.01036200
v -0.00222600 0.01188200 -0.00605300
v -0.00090100 0.01143100 -0.00659800
v -0.00222600 0.01188200 -0.00605300
v -0.00115100 0.01245000 -0.00477800
v -0.00115100 0.01245000 -0.00477800
v -0.00222600 0.01188200 -0.00605300
v -0.00222600 0.01331700 -0.00069700
v -0.00115100 0.01245000 -0.00477800
v -0.00222600 0.01331700 -0.00069700
v -0.00115100 0.01331700 -0.00069700
v -0.00115100 0.01331700 -0.00069700
v -0.00222600 0.01331700 -0.00069700
v -0.00090100 0.01312600 0.00138100
v -0.00090100 0.01312600 0.00138100
v -0.00222600 0.01331700 -0.00069700
v -0.00222600 0.01317100 0.00208700
v -0.00090100 0.01312600 0.00138100
v -0.00222600 0.01317100 0.00208700
v -0.00222600 0.01118300 0.00726400
v -0.00090100 0.01312600 0.00138100
v -0.00222600 0.01118300 0.00726400
v -0.00115100 0.01118300 0.00726400
v -0.00115100 0.01118300 0.00726400
v -0.00222600 0.01118300 0.00726400
v -0.00115100 0.00839100 0.01036400
v -0.00115100 0.00839100 0.01036400
v -0.00222600 0.01118300 0.00726400
v -0.00222600 0.00726200 0.01118400
v -0.00115100 0.00839100 0.01036400
v -0.00222600 0.00726200 0.01118400
v -0.00115100 0.00477800 0.01245000
v -0.00115100 0.00477800 0.01245000
v -0.00222600 0.00726200 0.01118400
v -0.00222600 0.00208500 0.01317100
v -0.00115100 0.00477800 0.01245000
v -0.00222600 0.00208500 0.01317100
v -0.00115100 0.00069700 0.01331700
v -0.00115100 0.00069700 0.01331700
v -0.00222600 0.00208500 0.01317100
v -0.00222600 -0.00069900 0.01331700
v -0.00115100 0.00069700 0.01331700
v -0.00222600 -0.00069900 0.01331700
v -0.00115100 -0.00345300 0.01288000
v -0.00115100 -0.01245000 0.00477800
v -0.00090100 -0.01312600 -0.00138100
v -0.00110100 -0.01222500 0.00277200
v -0.00115100 -0.01245000 0.00477800
v -0.00110100 -0.01222500 0.00277200
v -0.00090100 -0.01143100 0.00659800
v -0.00090100 -0.01143100 0.00659800
v -0.00110100 -0.01222500 0.00277200
v -0.00110100 -0.01060100 0.00668800
v -0.00090100 -0.01143100 0.00659800
v -0.00110100 -0.01060100 0.00668800
v -0.00115100 -0.00726400 0.01118300
v -0.00115100 -0.00726400 0.01118300
v -0.00110100 -0.01060100 0.00668800
v -0.00110100 -0.00776500 0.00984000
v -0.00115100 -0.00726400 0.01118300
v -0.00110100 -0.00776500 0.00984000
v -0.00115100 -0.00345300 0.01288000
v -0.00115100 -0.00345300 0.01288000
v -0.00110100 -0.00776500 0.00984000
v -0.00090000 -0.00410500 0.01205600
v -0.00115100 -0.00345300 0.01288000
v -0.00090000 -0.00410500 0.01205600
v -0.00115100 0.00069700 0.01331700
v -0.00115100 0.00069700 0.01331700
v -0.00090000 -0.00410500 0.01205600
v -0.00040000 0.00198700 0.01254400
v -0.00115100 0.00069700 0.01331700
v -0.00040000 0.00198700 0.01254400
v -0.00115100 0.00477800 0.01245000
v -0.00115100 0.00477800 0.01245000
v -0.00040000 0.00198700 0.01254400
v -0.00090000 0.00576600 0.01131600
v -0.00115100 0.00477800 0.01245000
v -0.00090000 0.00576600 0.01131600
v -0.00115100 0.00839100 0.01036400
v -0.00115100 0.00839100 0.01036400
v -0.00090000 0.00576600 0.01131600
v -0.00115100 0.01118300 0.00726400
v -0.00115100 0.01118300 0.00726400
v -0.00090000 0.00576600 0.01131600
v -0.00090000 0.01143000 0.00561800
v -0.00115100 0.01118300 0.00726400
v -0.00090000 0.01143000 0.00561800
v -0.00090100 0.01312600 0.00138100
v -0.00115100 -0.01245000 0.00477800
v -0.00115100 -0.01331700 0.00069700
v -0.00090100 -0.01312600 -0.00138100
v -0.00115100 -0.00345300 0.01288000
v -0.00222600 -0.00069900 0.01331700
v -0.00222600 -0.00839300 0.01036200
v -0.00115100 -0.00345300 0.01288000
v -0.00222600 -0.00839300 0.01036200
v -0.00115100 -0.00726400 0.01118300
v -0.00115100 -0.00726400 0.01118300
v -0.00222600 -0.00839300 0.01036200
v -0.00090100 -0.01143100 0.00659800
v -0.00090100 -0.01143100 0.00659800
v -0.00222600 -0.00839300 0.01036200
v -0.00222600 -0.01188200 0.00605300
v -0.00090100 -0.01143100 0.00659800
v -0.00222600 -0.01188200 0.00605300
v -0.00115100 -0.01245000 0.00477800
v -0.00115100 -0.01245000 0.00477800
v -0.00222600 -0.01188200 0.00605300
v -0.00222600 -0.01331700 0.00069700
v -0.00115100 -0.01245000 0.00477800
v -0.00222600 -0.01331700 0.00069700
v -0.00115100 -0.01331700 0.00069700
v -0.00115100 -0.01331700 0.00069700
v -0.00222600 -0.01331700 0.00069700
v -0.00090100 -0.01312600 -0.00138100
v -0.00090100 -0.01312600 -0.00138100
v -0.00222600 -0.01331700 0.00069700
v -0.00222600 -0.01317100 -0.00208700
v -0.00090100 -0.01312600 -0.00138100
v -0.00222600 -0.01317100 -0.00208700
v -0.00222600 -0.01118300 -0.00726400
v -0.00090100 -0.01312600 -0.00138100
v -0.00222600 -0.01118300 -0.00726400
v -0.00115100 -0.01118300 -0.00726400
v -0.00115100 -0.01118300 -0.00726400
v -0.00222600 -0.01118300 -0.00726400
v -0.00115100 -0.00839100 -0.01036400
v -0.00115100 -0.00839100 -0.01036400
v -0.00222600 -0.01118300 -0.00726400
v -0.00222600 -0.00726200 -0.01118400
v -0.00115100 -0.00839100 -0.01036400
v -0.00222600 -0.00726200 -0.01118400
v -0.00115100 -0.00477800 -0.01245000
v -0.00115100 -0.00477800 -0.01245000
v -0.00222600 -0.00726200 -0.01118400
v -0.00222600 -0.00208500 -0.01317100
v -0.00115100 -0.00477800 -0.01245000
v -0.00222600 -0.00208500 -0.01317100
v -0.00115100 -0.00069700 -0.01331700
v -0.00115100 -0.00069700 -0.01331700
v -0.00222600 -0.00208500 -0.01317100
v -0.00222600 0.00069900 -0.01331700
v -0.00115100 -0.00069700 -0.01331700
v -0.00222600 0.00069900 -0.01331700
v -0.00115100 0.00345300 -0.01288000
v -0.00090000 0.00576600 0.01131600
v -0.00040000 0.00198700 0.01254400
v -0.00040000 0.00898000 0.00898000
v -0.00040000 -0.01131600 -0.00576600
v -0.00040000 -0.01131600 0.00576600
v -0.00040000 -0.01254400 -0.00198700
v -0.00040000 -0.01254400 -0.00198700
v -0.00040000 -0.01131600 0.00576600
v -0.00040000 -0.01254400 0.00198700
v -0.00090000 -0.00158200 -0.01262100
v -0.00040000 0.00198700 -0.01254400
v -0.00040000 -0.00576600 -0.01131600
v -0.00040000 -0.00898000 -0.00898000
v -0.00040000 -0.01131600 0.00576600
v -0.00040000 -0.01131600 -0.00576600
v -0.00040000 -0.00576600 -0.01131600
v -0.00040000 0.00198700 -0.01254400
v -0.00040000 0.00576600 -0.01131600
v -0.00040000 -0.00576600 -0.01131600
v -0.00040000 0.00576600 -0.01131600
v -0.00040000 0.00898000 -0.00898000
v -0.00040000 -0.00576600 -0.01131600
v -0.00040000 0.00898000 -0.00898000
v -0.00040000 0.01254400 -0.00198700
v -0.00040000 0.01254400 -0.00198700
v -0.00040000 0.00898000 -0.00898000
v -0.00040000 0.01131600 -0.00576600
v -0.00040000 -0.00198700 0.01254400
v -0.00040000 -0.00576600 0.01131600
v -0.00040000 -0.00898000 0.00898000
v -0.00040000 0.01254400 -0.00198700
v -0.00040000 0.01131600 0.00576600
v -0.00040000 0.00898000 0.00898000
v -0.00040000 0.00198700 0.01254400
v -0.00040000 0.01254400 -0.00198700
v -0.00040000 0.00898000 0.00898000
v -0.00040000 -0.01131600 0.00576600
v -0.00040000 -0.00898000 -0.00898000
v -0.00040000 -0.00576600 -0.01131600
v -0.00040000 -0.00198700 0.01254400
v -0.00040000 -0.00898000 0.00898000
v -0.00040000 -0.01131600 0.00576600
v -0.00040000 0.00198700 0.01254400
v -0.00040000 -0.00198700 0.01254400
v -0.00040000 -0.01131600 0.00576600
v -0.00040000 0.00198700 0.01254400
v -0.00040000 -0.01131600 0.00576600
v -0.00040000 -0.00576600 -0.01131600
v -0.00040000 -0.00576600 -0.01131600
v -0.00040000 0.01254400 -0.00198700
v -0.00040000 0.00198700 0.01254400
v -0.00090000 -0.01143000 -0.00561800
v -0.00106100 -0.01103800 -0.00602300
v -0.00110100 -0.01150600 -0.00497400
v -0.00090000 -0.01143000 -0.00561800
v -0.00110100 -0.01150600 -0.00497400
v -0.00090100 -0.01312600 -0.00138100
v -0.00090000 -0.01143000 -0.00561800
v -0.00090000 -0.01027500 -0.00746500
v -0.00106100 -0.01103800 -0.00602300
v -0.00110100 -0.01150600 -0.00497400
v -0.00110100 -0.01248900 -0.00107400
v -0.00090100 -0.01312600 -0.00138100
v -0.00090100 -0.01312600 -0.00138100
v -0.00110100 -0.01248900 -0.00107400
v -0.00110100 -0.01222500 0.00277200
vn -0.47448400 0.31560300 -0.82174200
vn -0.47448400 0.31560300 -0.82174200
vn -0.47448400 0.31560300 -0.82174200
vn 0.03399800 0.47697700 -0.87825800
vn 0.03399800 0.47697700 -0.87825800
vn 0.03399800 0.47697700 -0.87825800
vn -0.06769900 0.72379000 -0.68669100
vn -0.06769900 0.72379000 -0.68669100
vn -0.06769900 0.72379000 -0.68669100
vn -0.00000000 0.70720700 -0.70700700
vn -0.00000000 0.70720700 -0.70700700
vn -0.00000000 0.70720700 -0.70700700
vn 0.03400000 0.90209400 -0.43019700
vn 0.03400000 0.90209400 -0.43019700
vn 0.03400000 0.90209400 -0.43019700
vn -0.00000000 0.91356800 -0.40668600
vn -0.00000000 0.91356800 -0.40668600
vn -0.00000000 0.91356800 -0.40668600
vn -0.06769900 0.98918700 -0.13009800
vn -0.06769900 0.98918700 -0.13009800
vn -0.06769900 0.98918700 -0.13009800
vn 0.00000000 0.99965400 0.02629900
vn 0.00000000 0.99965400 0.02629900
vn 0.00000000 0.99965400 0.02629900
vn -0.05090100 0.99732800 0.05240200
vn -0.05090100 0.99732800 0.05240200
vn -0.05090100 0.99732800 0.05240200
vn 0.00000000 0.97812800 0.20800600
vn 0.00000000 0.97812800 0.20800600
vn 0.00000000 0.97812800 0.20800600
vn 0.00000000 0.94260800 0.33390300
vn 0.00000000 0.94260800 0.33390300
vn 0.00000000 0.94260800 0.33390300
vn 0.00000000 0.79331500 0.60881100
vn 0.00000000 0.79331500 0.60881100
vn 0.00000000 0.79331500 0.60881100
vn -0.05089800 0.77607700 0.62858100
vn -0.05089800 0.77607700 0.62858100
vn -0.05089800 0.77607700 0.62858100
vn 0.00000000 0.56630000 0.82419900
vn 0.00000000 0.56630000 0.82419900
vn 0.00000000 0.56630000 0.82419900
vn 0.00000000 0.45392100 0.89104200
vn 0.00000000 0.45392100 0.89104200
vn 0.00000000 0.45392100 0.89104200
vn 0.03399900 0.13039700 0.99087900
vn 0.03399900 0.13039700 0.99087900
vn 0.03399900 0.13039700 0.99087900
vn 0.00000000 0.10440400 0.99453500
vn 0.00000000 0.10440400 0.99453500
vn 0.00000000 0.10440400 0.99453500
vn -0.06769900 -0.18189700 0.98098400
vn -0.06769900 -0.18189700 0.98098400
vn -0.06769900 -0.18189700 0.98098400
vn 0.99999800 -0.00190000 0.00010000
vn 0.99999800 -0.00190000 0.00010000
vn 0.99999800 -0.00190000 0.00010000
vn 0.99999800 -0.00200000 0.00080000
vn 0.99999800 -0.00200000 0.00080000
vn 0.99999800 -0.00200000 0.00080000
vn 0.99999900 -0.00160000 0.00070000
vn 0.99999900 -0.00160000 0.00070000
vn 0.99999900 -0.00160000 0.00070000
vn 0.99999700 -0.00180000 0.00150000
vn 0.99999700 -0.00180000 0.00150000
vn 0.99999700 -0.00180000 0.00150000
vn 0.99999900 -0.00120000 0.00110000
vn 0.99999900 -0.00120000 0.00110000
vn 0.99999900 -0.00120000 0.00110000
vn 0.99999700 -0.00140000 0.00220000
vn 0.99999700 -0.00140000 0.00220000
vn 0.99999700 -0.00140000 0.00220000
vn 0.99999900 -0.00070000 0.00130000
vn 0.99999900 -0.00070000 0.00130000
vn 0.99999900 -0.00070000 0.00130000
vn 0.99999800 -0.00040000 0.00200000
vn 0.99999800 -0.00040000 0.00200000
vn 0.99999800 -0.00040000 0.00200000
vn 0.99999900 -0.00020000 0.00160000
vn 0.99999900 -0.00020000 0.00160000
vn 0.99999900 -0.00020000 0.00160000
vn 0.99999600 0.00020000 0.00300000
vn 0.99999600 0.00020000 0.00300000
vn 0.99999600 0.00020000 0.00300000
vn 0.99999600 0.00020000 0.00280000
vn 0.99999600 0.00020000 0.00280000
vn 0.99999600 0.00020000 0.00280000
vn 0.99999700 0.00160000 0.00200000
vn 0.99999700 0.00160000 0.00200000
vn 0.99999700 0.00160000 0.00200000
vn 0.99999900 0.00130000 0.00080000
vn 0.99999900 0.00130000 0.00080000
vn 0.99999900 0.00130000 0.00080000
vn 0.99999700 0.00210000 0.00150000
vn 0.99999700 0.00210000 0.00150000
vn 0.99999700 0.00210000 0.00150000
vn 0.99999900 0.00160000 0.00040000
vn 0.99999900 0.00160000 0.00040000
vn 0.99999900 0.00160000 0.00040000
vn 0.76698600 -0.64078800 0.03349900
vn 0.76698600 -0.64078800 0.03349900
vn 0.76698600 -0.64078800 0.03349900
vn -0.05090200 -0.35801100 0.93232900
vn -0.05090200 -0.35801100 0.93232900
vn -0.05090200 -0.35801100 0.93232900
vn 0.03399800 -0.47697700 0.87825800
vn 0.03399800 -0.47697700 0.87825800
vn 0.03399800 -0.47697700 0.87825800
vn -0.06769900 -0.72379000 0.68669100
vn -0.06769900 -0.72379000 0.68669100
vn -0.06769900 -0.72379000 0.68669100
vn 0.00000000 -0.70720700 0.70700700
vn 0.00000000 -0.70720700 0.70700700
vn 0.00000000 -0.70720700 0.70700700
vn 0.03400000 -0.90209400 0.43019700
vn 0.03400000 -0.90209400 0.43019700
vn 0.03400000 -0.90209400 0.43019700
vn 0.00000000 -0.91356800 0.40668600
vn 0.00000000 -0.91356800 0.40668600
vn 0.00000000 -0.91356800 0.40668600
vn -0.06769900 -0.98918700 0.13009800
vn -0.06769900 -0.98918700 0.13009800
vn -0.06769900 -0.98918700 0.13009800
vn 0.00000000 -0.99965400 -0.02629900
vn 0.00000000 -0.99965400 -0.02629900
vn 0.00000000 -0.99965400 -0.02629900
vn -0.05090100 -0.99732800 -0.05240200
vn -0.05090100 -0.99732800 -0.05240200
vn -0.05090100 -0.99732800 -0.05240200
vn 0.00000000 -0.97812800 -0.20800600
vn 0.00000000 -0.97812800 -0.20800600
vn 0.00000000 -0.97812800 -0.20800600
vn 0.00000000 -0.94260800 -0.33390300
vn 0.00000000 -0.94260800 -0.33390300
vn 0.00000000 -0.94260800 -0.33390300
vn 0.00000000 -0.79331500 -0.60881100
vn 0.00000000 -0.79331500 -0.60881100
vn 0.00000000 -0.79331500 -0.60881100
vn -0.05089800 -0.77607700 -0.62858100
vn -0.05089800 -0.77607700 -0.62858100
vn -0.05089800 -0.77607700 -0.62858100
vn 0.00000000 -0.56630000 -0.82419900
vn 0.00000000 -0.56630000 -0.82419900
vn 0.00000000 -0.56630000 -0.82419900
vn 0.00000000 -0.45392100 -0.89104200
vn 0.00000000 -0.45392100 -0.89104200
vn 0.00000000 -0.45392100 -0.89104200
vn 0.03399900 -0.13039700 -0.99087900
vn 0.03399900 -0.13039700 -0.99087900
vn 0.03399900 -0.13039700 -0.99087900
vn 0.00000000 -0.10440400 -0.99453500
vn 0.00000000 -0.10440400 -0.99453500
vn 0.00000000 -0.10440400 -0.99453500
vn -0.06769900 0.18189700 -0.98098400
vn -0.06769900 0.18189700 -0.98098400
vn -0.06769900 0.18189700 -0.98098400
vn 0.29850200 0.29490200 0.90770600
vn 0.29850200 0.29490200 0.90770600
vn 0.29850200 0.29490200 0.90770600
vn 1.00000000 0.00000000 0.00000000
vn 1.00000000 0.00000000 0.00000000
vn 1.00000000 0.00000000 0.00000000
vn 1.00000000 0.00000000 0.00000000
vn 1.00000000 0.00000000 0.00000000
vn 1.00000000 0.00000000 0.00000000
vn 1.00000000 0.00000000 0.00000000
vn 1.00000000 0.00000000 0.00000000
vn 1.00000000 0.00000000 0.00000000
vn 1.00000000 0.00000000 0.00000000
vn 1.00000000 0.00000000 0.00000000
vn 1.00000000 0.00000000 0.00000000
vn 1.00000000 0.00000000 0.00000000
vn 1.00000000 0.00000000 0.00000000
vn 1.00000000 0.00000000 0.00000000
vn 1.00000000 0.00000000 0.00000000
vn 1.00000000 0.00000000 0.00000000
vn 1.00000000 0.00000000 0.00000000
vn 1.00000000 0.00000000 0.00000000
vn 1.00000000 0.00000000 0.00000000
vn 1.00000000 0.00000000 0.00000000
vn 1.00000000 0.00000000 0.00000000
vn 1.00000000 0.00000000 0.00000000
vn 1.00000000 0.00000000 0.00000000
vn 1.00000000 0.00000000 0.00000000
vn 1.00000000 0.00000000 0.00000000
vn 1.00000000 0.00000000 0.00000000
vn 1.00000000 0.00000000 0.00000000
vn 1.00000000 0.00000000 0.00000000
vn 1.00000000 0.00000000 0.00000000
vn 1.00000000 0.00000000 0.00000000
vn 1.00000000 0.00000000 0.00000000
vn 1.00000000 0.00000000 0.00000000
vn 1.00000000 0.00000000 0.00000000
vn 1.00000000 0.00000000 0.00000000
vn 1.00000000 0.00000000 0.00000000
vn 1.00000000 0.00000000 0.00000000
vn 1.00000000 0.00000000 0.00000000
vn 1.00000000 0.00000000 0.00000000
vn 1.00000000 0.00000000 0.00000000
vn 1.00000000 0.00000000 0.00000000
vn 1.00000000 0.00000000 0.00000000
vn 1.00000000 0.00000000 0.00000000
vn 1.00000000 0.00000000 0.00000000
vn 1.00000000 0.00000000 0.00000000
vn 1.00000000 0.00000000 0.00000000
vn 1.00000000 0.00000000 0.00000000
vn 1.00000000 0.00000000 0.00000000
vn 0.70700200 0.64210200 0.29640100
vn 0.70700200 0.64210200 0.29640100
vn 0.70700200 0.64210200 0.29640100
vn 0.47790100 0.84250100 0.24860000
vn 0.47790100 0.84250100 0.24860000
vn 0.47790100 0.84250100 0.24860000
vn 0.16899900 0.81869500 0.54879700
vn 0.16899900 0.81869500 0.54879700
vn 0.16899900 0.81869500 0.54879700
vn 0.70331600 0.68651600 0.18450400
vn 0.70331600 0.68651600 0.18450400
vn 0.70331600 0.68651600 0.18450400
vn 0.56627200 0.82305900 -0.04369800
vn 0.56627200 0.82305900 -0.04369800
vn 0.56627200 0.82305900 -0.04369800
vt 0.00000000 0.00000000
vt 0.00000000 0.00000000
vt 0.00000000 0.00000000
vt 0.00000000 0.00000000
vt 0.00000000 0.00000000
vt 0.00000000 0.00000000
vt 0.00000000 0.00000000
vt 0.00000000 0.00000000
vt 0.00000000 0.00000000
vt 0.00000000 0.00000000
vt 0.00000000 0.00000000
vt 0.00000000 0.00000000
vt 0.00000000 0.00000000
vt 0.00000000 0.00000000
vt 0.00000000 0.00000000
vt 0.00000000 0.00000000
vt 0.00000000 0.00000000
vt 0.00000000 0.00000000
vt 0.00000000 0.00000000
vt 0.00000000 0.00000000
vt 0.00000000 0.00000000
vt 0.00000000 0.00000000
vt 0.00000000 0.00000000
vt 0.00000000 0.00000000
vt 0.00000000 0.00000000
vt 0.00000000 0.00000000
vt 0.00000000 0.00000000
vt 0.00000000 0.00000000
vt 0.00000000 0.00000000
vt 0.00000000 0.00000000
vt 0.00000000 0.00000000
vt 0.00000000 0.00000000
vt 0.00000000 0.00000000
vt 0.00000000 0.00000000
vt 0.00000000 0.00000000
vt 0.00000000 0.00000000
vt 0.00000000 0.00000000
vt 0.00000000 0.00000000
vt 0.00000000 0.00000000
vt 0.00000000 0.00000000
vt 0.00000000 0.00000000
vt 0.00000000 0.00000000
vt 0.00000000 0.00000000
vt 0.00000000 0.00000000
vt 0.00000000 0.00000000
vt 0.00000000 0.00000000
vt 0.00000000 0.00000000
vt 0.00000000 0.00000000
vt 0.00000000 0.00000000
vt 0.00000000 0.00000000
vt 0.00000000 0.00000000
vt 0.00000000 0.00000000
vt 0.00000000 0.00000000
vt 0.00000000 0.00000000
vt 0.00000000 0.00000000
vt 0.00000000 0.00000000
vt 0.00000000 0.00000000
vt 0.00000000 0.00000000
vt 0.00000000 0.00000000
vt 0.00000000 0.00000000
vt 0.00000000 0.00000000
vt 0.00000000 0.00000000
vt 0.00000000 0.00000000
vt 0.00000000 0.00000000
vt 0.00000000 0.00000000
vt 0.00000000 0.00000000
vt 0.00000000 0.00000000
vt 0.00000000 0.00000000
vt 0.00000000 0.00000000
vt 0.00000000 0.00000000
vt 0.00000000 0.00000000
vt 0.00000000 0.00000000
vt 0.00000000 0.00000000
vt 0.00000000 0.00000000
vt 0.00000000 0.00000000
vt 0.00000000 0.00000000
vt 0.00000000 0.00000000
vt 0.00000000 0.00000000
vt 0.00000000 0.00000000
vt 0.00000000 0.00000000
vt 0.00000000 0.00000000
vt 0.00000000 0.00000000
vt 0.00000000 0.00000000
vt 0.00000000 0.00000000
vt 0.00000000 0.00000000
vt 0.00000000 0.00000000
vt 0.00000000 0.00000000
vt 0.00000000 0.00000000
vt 0.00000000 0.00000000
vt 0.00000000 0.00000000
vt 0.00000000 0.00000000
vt 0.00000000 0.00000000
vt 0.00000000 0.00000000
vt 0.00000000 0.00000000
vt 0.00000000 0.00000000
vt 0.00000000 0.00000000
vt 0.00000000 0.00000000
vt 0.00000000 0.00000000
vt 0.00000000 0.00000000
vt 0.00000000 0.00000000
vt 0.00000000 0.00000000
vt 0.00000000 0.00000000
vt 0.00000000 0.00000000
vt 0.00000000 0.00000000
vt 0.00000000 0.00000000
vt 0.00000000 0.00000000
vt 0.00000000 0.00000000
vt 0.00000000 0.00000000
vt 0.00000000 0.00000000
vt 0.00000000 0.00000000
vt 0.00000000 0.00000000
vt 0.00000000 0.00000000
vt 0.00000000 0.00000000
vt 0.00000000 0.00000000
vt 0.00000000 0.00000000
vt 0.00000000 0.00000000
vt 0.00000000 0.00000000
vt 0.00000000 0.00000000
vt 0.00000000 0.00000000
vt 0.00000000 0.00000000
vt 0.00000000 0.00000000
vt 0.00000000 0.00000000
vt 0.00000000 0.00000000
vt 0.00000000 0.00000000
vt 0.00000000 0.00000000
vt 0.00000000 0.00000000
vt 0.00000000 0.00000000
vt 0.00000000 0.00000000
vt 0.00000000 0.00000000
vt 0.00000000 0.00000000
vt 0.00000000 0.00000000
vt 0.00000000 0.00000000
vt 0.00000000 0.00000000
vt 0.00000000 0.00000000
vt 0.00000000 0.00000000
vt 0.00000000 0.00000000
vt 0.00000000 0.00000000
vt 0.00000000 0.00000000
vt 0.00000000 0.00000000
vt 0.00000000 0.00000000
vt 0.00000000 0.00000000
vt 0.00000000 0.00000000
vt 0.00000000 0.00000000
vt 0.00000000 0.00000000
vt 0.00000000 0.00000000
vt 0.00000000 0.00000000
vt 0.00000000 0.00000000
vt 0.00000000 0.00000000
vt 0.00000000 0.00000000
vt 0.00000000 0.00000000
vt 0.00000000 0.00000000
vt 0.00000000 0.00000000
vt 0.00000000 0.00000000
vt 0.00000000 0.00000000
vt 0.00000000 0.00000000
vt 0.00000000 0.00000000
vt 0.00000000 0.00000000
vt 0.00000000 0.00000000
vt 0.00000000 0.00000000
vt 0.00000000 0.00000000
vt 0.00000000 0.00000000
vt 0.00000000 0.00000000
vt 0.00000000 0.00000000
vt 0.00000000 0.00000000
vt 0.00000000 0.00000000
vt 0.00000000 0.00000000
vt 0.00000000 0.00000000
vt 0.00000000 0.00000000
vt 0.00000000 0.00000000
vt 0.00000000 0.00000000
vt 0.00000000 0.00000000
vt 0.00000000 0.00000000
vt 0.00000000 0.00000000
vt 0.00000000 0.00000000
vt 0.00000000 0.00000000
vt 0.00000000 0.00000000
vt 0.00000000 0.00000000
vt 0.00000000 0.00000000
vt 0.00000000 0.00000000
vt 0.00000000 0.00000000
vt 0.00000000 0.00000000
vt 0.00000000 0.00000000
vt 0.00000000 0.00000000
vt 0.00000000 0.00000000
vt 0.00000000 0.00000000
vt 0.00000000 0.00000000
vt 0.00000000 0.00000000
vt 0.00000000 0.00000000
vt 0.00000000 0.00000000
vt 0.00000000 0.00000000
vt 0.00000000 0.00000000
vt 0.00000000 0.00000000
vt 0.00000000 0.00000000
vt 0.00000000 0.00000000
vt 0.00000000 0.00000000
vt 0.00000000 0.00000000
vt 0.00000000 0.00000000
vt 0.00000000 0.00000000
vt 0.00000000 0.00000000
vt 0.00000000 0.00000000
vt 0.00000000 0.00000000
vt 0.00000000 0.00000000
vt 0.00000000 0.00000000
vt 0.00000000 0.00000000
vt 0.00000000 0.00000000
vt 0.00000000 0.00000000
vt 0.00000000 0.00000000
vt 0.00000000 0.00000000
vt 0.00000000 0.00000000
vt 0.00000000 0.00000000
vt 0.00000000 0.00000000
vt 0.00000000 0.00000000
vt 0.00000000 0.00000000
vt 0.00000000 0.00000000
vt 0.00000000 0.00000000
vt 0.00000000 0.00000000
vt 0.00000000 0.00000000
vt 0.00000000 0.00000000
vt 0.00000000 0.00000000
vt 0.00000000 0.00000000
vt 0.00000000 0.00000000
vt 0.00000000 0.00000000
f 1/1/1 2/2/2 3/3/3
f 4/4/4 5/5/5 6/6/6
f 7/7/7 8/8/8 9/9/9
f 10/10/10 11/11/11 12/12/12
f 13/13/13 14/14/14 15/15/15
f 16/16/16 17/17/17 18/18/18
f 19/19/19 20/20/20 21/21/21
f 22/22/22 23/23/23 24/24/24
f 25/25/25 26/26/26 27/27/27
f 28/28/28 29/29/29 30/30/30
f 31/31/31 32/32/32 33/33/33
f 34/34/34 35/35/35 36/36/36
f 37/37/37 38/38/38 39/39/39
f 40/40/40 41/41/41 42/42/42
f 43/43/43 44/44/44 45/45/45
f 46/46/46 47/47/47 48/48/48
f 49/49/49 50/50/50 51/51/51
f 52/52/52 53/53/53 54/54/54
f 55/55/55 56/56/56 57/57/57
f 58/58/58 59/59/59 60/60/60
f 61/61/61 62/62/62 63/63/63
f 64/64/64 65/65/65 66/66/66
f 67/67/67 68/68/68 69/69/69
f 70/70/70 71/71/71 72/72/72
f 73/73/73 74/74/74 75/75/75
f 76/76/76 77/77/77 78/78/78
f 79/79/79 80/80/80 81/81/81
f 82/82/82 83/83/83 84/84/84
f 85/85/85 86/86/86 87/87/87
f 88/88/88 89/89/89 90/90/90
f 91/91/91 92/92/92 93/93/93
f 94/94/94 95/95/95 96/96/96
f 97/97/97 98/98/98 99/99/99
f 100/100/100 101/101/101 102/102/102
f 103/103/103 104/104/104 105/105/105
f 106/106/106 107/107/107 108/108/108
f 109/109/109 110/110/110 111/111/111
f 112/112/112 113/113/113 114/114/114
f 115/115/115 116/116/116 117/117/117
f 118/118/118 119/119/119 120/120/120
f 121/121/121 122/122/122 123/123/123
f 124/124/124 125/125/125 126/126/126
f 127/127/127 128/128/128 129/129/129
f 130/130/130 131/131/131 132/132/132
f 133/133/133 134/134/134 135/135/135
f 136/136/136 137/137/137 138/138/138
f 139/139/139 140/140/140 141/141/141
f 142/142/142 143/143/143 144/144/144
f 145/145/145 146/146/146 147/147/147
f 148/148/148 149/149/149 150/150/150
f 151/151/151 152/152/152 153/153/153
f 154/154/154 155/155/155 156/156/156
f 157/157/157 158/158/158 159/159/159
f 160/160/160 161/161/161 162/162/162
f 163/163/163 164/164/164 165/165/165
f 166/166/166 167/167/167 168/168/168
f 169/169/169 170/170/170 171/171/171
f 172/172/172 173/173/173 174/174/174
f 175/175/175 176/176/176 177/177/177
f 178/178/178 179/179/179 180/180/180
f 181/181/181 182/182/182 183/183/183
f 184/184/184 185/185/185 186/186/186
f 187/187/187 188/188/188 189/189/189
f 190/190/190 191/191/191 192/192/192
f 193/193/193 194/194/194 195/195/195
f 196/196/196 197/197/197 198/198/198
f 199/199/199 200/200/200 201/201/201
f 202/202/202 203/203/203 204/204/204
f 205/205/205 206/206/206 207/207/207
f 208/208/208 209/209/209 210/210/210
f 211/211/211 212/212/212 213/213/213
f 214/214/214 215/215/215 216/216/216
f 217/217/217 218/218/218 219/219/219
f 220/220/220 221/221/221 222/222/222

