mtllib material.mtl
usemtl material_0
v -0.01686900 0.04109400 -0.08410400
v -0.01401600 0.04109400 -0.08695700
v -0.01613900 0.04109400 -0.08622700
v 0.01401600 0.04109400 -0.08695700
v 0.01686900 0.04109400 -0.08410400
v 0.01613900 0.04109400 -0.08622700
v 0.01401600 0.04109400 -0.08695700
v -0.01401600 0.04109400 -0.08695700
v -0.01686900 0.04109400 -0.08410400
v 0.01401600 0.04109400 -0.08695700
v -0.01686900 0.04109400 -0.08410400
v 0.01686900 0.04109400 -0.08410400
v -0.01686900 0.04109400 -0.05263300
v 0.01686900 0.04109400 -0.08410400
v -0.01686900 0.04109400 -0.08410400
v -0.01686900 0.04109400 -0.05263300
v 0.01686900 0.04109400 -0.05263300
v 0.01686900 0.04109400 -0.08410400
v 0.00000000 0.04109400 -0.05096600
v 0.01630600 0.04109400 -0.05093100
v 0.01686900 0.04109400 -0.05263300
v -0.01686900 0.04109400 -0.05263300
v 0.00000000 0.04109400 -0.05096600
v 0.01686900 0.04109400 -0.05263300
v 0.00196200 0.04109400 -0.05050500
v 0.00614900 0.04109400 -0.04808200
v 0.01630600 0.04109400 -0.05093100
v 0.00196200 0.04109400 -0.05050500
v 0.01630600 0.04109400 -0.05093100
v 0.00000000 0.04109400 -0.05096600
v -0.00468700 0.04109400 -0.04829100
v 0.00000000 0.04109400 -0.05096600
v -0.01483900 0.04109400 -0.04990100
v -0.01686900 0.04109400 -0.05263300
v -0.01483900 0.04109400 -0.04990100
v 0.00000000 0.04109400 -0.05096600
vn 0.00000500 1.00000000 0.00000500
vn 0.00000500 1.00000000 0.00000500
vn 0.00000500 1.00000000 0.00000500
vn 0.00000000 1.00000000 0.00000000
vn 0.00000000 1.00000000 0.00000000
vn 0.00000000 1.00000000 0.00000000
vn -0.00000000 1.00000000 -0.00000100
vn -0.00000000 1.00000000 -0.00000100
vn -0.00000000 1.00000000 -0.00000100
vn 0.00000000 1.00000000 0.00000000
vn 0.00000000 1.00000000 0.00000000
vn 0.00000000 1.00000000 0.00000000
vn 0.00000000 1.00000000 0.00000000
vn 0.00000000 1.00000000 0.00000000
vn 0.00000000 1.00000000 0.00000000
vn 0.00000000 1.00000000 0.00000000
vn 0.00000000 1.00000000 0.00000000
vn 0.00000000 1.00000000 0.00000000
vn 0.00000000 1.00000000 0.00000000
vn 0.00000000 1.00000000 0.00000000
vn 0.00000000 1.00000000 0.00000000
vn 0.00000000 1.00000000 0.00000000
vn 0.00000000 1.00000000 0.00000000
vn 0.00000000 1.00000000 0.00000000
vn 0.00000000 1.00000000 0.00000100
vn 0.00000000 1.00000000 0.00000100
vn 0.00000000 1.00000000 0.00000100
vn -0.00000000 1.00000000 0.00000000
vn -0.00000000 1.00000000 0.00000000
vn -0.00000000 1.00000000 0.00000000
vn -0.00000000 1.00000000 0.00000000
vn -0.00000000 1.00000000 0.00000000
vn -0.00000000 1.00000000 0.00000000
vn 0.00000000 1.00000000 0.00000000
vn 0.00000000 1.00000000 0.00000000
vn 0.00000000 1.00000000 0.00000000
vt 0.23621600 0.52962500
vt 0.21982500 0.51102300
vt 0.23199500 0.51575800
vt 0.05935700 0.51151100
vt 0.04308000 0.53021200
vt 0.04721700 0.51632000
vt 0.05935700 0.51151100
vt 0.21982500 0.51102300
vt 0.23621600 0.52962500
vt 0.05935700 0.51151100
vt 0.23621600 0.52962500
vt 0.04308000 0.53021200
vt 0.23684100 0.73534300
vt 0.04308000 0.53021200
vt 0.23621600 0.52962500
vt 0.23684100 0.73534300
vt 0.04370600 0.73593000
vt 0.04308000 0.53021200
vt 0.14030700 0.74653300
vt 0.04696200 0.74704400
vt 0.04370600 0.73593000
vt 0.23684100 0.73534300
vt 0.14030700 0.74653300
vt 0.04370600 0.73593000
vt 0.12908600 0.74958000
vt 0.10516300 0.76549300
vt 0.04696200 0.74704400
vt 0.12908600 0.74958000
vt 0.04696200 0.74704400
vt 0.14030700 0.74653300
vt 0.16718900 0.76393800
vt 0.14030700 0.74653300
vt 0.22527600 0.75323600
vt 0.23684100 0.73534300
vt 0.22527600 0.75323600
vt 0.14030700 0.74653300
f 1/1/1 2/2/2 3/3/3
f 4/4/4 5/5/5 6/6/6
f 7/7/7 8/8/8 9/9/9
f 10/10/10 11/11/11 12/12/12
f 13/13/13 14/14/14 15/15/15
f 16/16/16 17/17/17 18/18/18
f 19/19/19 20/20/20 21/21/21
f 22/22/22 23/23/23 24/24/24
f 25/25/25 26/26/26 27/27/27
f 28/28/28 29/29/29 30/30/30
f 31/31/31 32/32/32 33/33/33
f 34/34/34 35/35/35 36/36/36

