mtllib material.mtl
usemtl material_0
v 0.07291200 -0.01500000 0.22966900
v 0.07624100 0.01500000 0.22351100
v 0.07291200 0.01500000 0.22966900
v 0.07624100 0.01500000 0.22351100
v 0.07291200 -0.01500000 0.22966900
v 0.07465900 -0.01464000 0.22643700
v 0.07624100 -0.01500000 0.22351100
v 0.07624100 0.01500000 0.22351100
v 0.07465900 -0.01464000 0.22643700
vn 0.87970600 0.00000100 0.47551800
vn 0.87970600 0.00000100 0.47551800
vn 0.87970600 0.00000100 0.47551800
vn 0.87970700 -0.00000100 0.47551700
vn 0.87970700 -0.00000100 0.47551700
vn 0.87970700 -0.00000100 0.47551700
vn 0.87970100 0.00000000 0.47552700
vn 0.87970100 0.00000000 0.47552700
vn 0.87970100 0.00000000 0.47552700
vt 0.27130800 0.88849600
vt 0.52278700 0.83146500
vt 0.52269500 0.88962500
vt 0.52278700 0.83146500
vt 0.27130800 0.88849600
vt 0.27117900 0.85758100
vt 0.27084200 0.82930300
vt 0.52278700 0.83146500
vt 0.27117900 0.85758100
f 1/1/1 2/2/2 3/3/3
f 4/4/4 5/5/5 6/6/6
f 7/7/7 8/8/8 9/9/9

