mtllib material.mtl
usemtl material_0
v 0.05608300 0.00750000 0.25708000
v 0.05885000 0.01200000 0.25402300
v 0.05678800 0.00750000 0.25774000
v 0.06317900 0.01089100 0.24379500
v 0.06385600 0.01158400 0.24464900
v 0.05796800 0.01150000 0.25355200
v 0.05796800 0.01150000 0.25355200
v 0.06385600 0.01158400 0.24464900
v 0.05885000 0.01200000 0.25402300
v 0.06585900 0.00849600 0.24090100
v 0.06385600 0.01158400 0.24464900
v 0.06317900 0.01089100 0.24379500
v 0.06585900 0.00849600 0.24090100
v 0.06317900 0.01089100 0.24379500
v 0.06521900 0.00656100 0.23997600
v 0.06317900 -0.01089100 0.24379500
v 0.06630800 -0.00606800 0.23997800
v 0.06550600 -0.00350000 0.23943900
v 0.06317900 -0.01089100 0.24379500
v 0.05796800 -0.01150000 0.25355200
v 0.06385600 -0.01158400 0.24464900
v 0.06385600 -0.01158400 0.24464900
v 0.05796800 -0.01150000 0.25355200
v 0.05885000 -0.01200000 0.25402300
v 0.05608300 -0.00750000 0.25708000
v 0.05673000 -0.00750000 0.25799200
v 0.05796800 -0.01150000 0.25355200
v 0.05796800 -0.01150000 0.25355200
v 0.05673000 -0.00750000 0.25799200
v 0.05885000 -0.01200000 0.25402300
v 0.05608300 -0.00750000 0.25708000
v 0.05608300 0.00750000 0.25708000
v 0.05678800 0.00750000 0.25774000
v 0.05608300 -0.00750000 0.25708000
v 0.05678800 0.00750000 0.25774000
v 0.05673000 -0.00750000 0.25799200
v 0.05796800 -0.01150000 0.25355200
v 0.05608300 0.00750000 0.25708000
v 0.05608300 -0.00750000 0.25708000
v 0.06317900 -0.01089100 0.24379500
v 0.06550600 -0.00350000 0.23943900
v 0.05608300 0.00750000 0.25708000
v 0.05608300 0.00750000 0.25708000
v 0.06550600 -0.00350000 0.23943900
v 0.06521900 0.00656100 0.23997600
v 0.06521900 0.00656100 0.23997600
v 0.06317900 0.01089100 0.24379500
v 0.05608300 0.00750000 0.25708000
v 0.05608300 0.00750000 0.25708000
v 0.06317900 0.01089100 0.24379500
v 0.05796800 0.01150000 0.25355200
v 0.05608300 0.00750000 0.25708000
v 0.05796800 0.01150000 0.25355200
v 0.05885000 0.01200000 0.25402300
v 0.06317900 -0.01089100 0.24379500
v 0.05608300 0.00750000 0.25708000
v 0.05796800 -0.01150000 0.25355200
vn 0.50385600 -0.67549700 -0.53836200
vn 0.50385600 -0.67549700 -0.53836200
vn 0.50385600 -0.67549700 -0.53836200
vn 0.46842400 -0.83027900 0.30202000
vn 0.46842400 -0.83027900 0.30202000
vn 0.46842300 -0.83027900 0.30202000
vn 0.37774600 -0.89387700 0.24143800
vn 0.37774600 -0.89387700 0.24143800
vn 0.37774600 -0.89387700 0.24143800
vn -0.00752500 -0.77382200 0.63335900
vn -0.00752500 -0.77382200 0.63335900
vn -0.00752500 -0.77382200 0.63335900
vn 0.39001300 -0.49891400 0.77393500
vn 0.39001300 -0.49891400 0.77393500
vn 0.39001300 -0.49891400 0.77393400
vn 0.48954500 0.32321000 0.80986500
vn 0.48954500 0.32321000 0.80986500
vn 0.48954500 0.32321000 0.80986500
vn 0.46841900 0.83028300 0.30201700
vn 0.46841900 0.83028300 0.30201700
vn 0.46841900 0.83028300 0.30201700
vn 0.37774200 0.89387900 0.24143500
vn 0.37774200 0.89387900 0.24143500
vn 0.37774200 0.89387900 0.24143500
vn 0.60811300 0.66666500 -0.43099500
vn 0.60811300 0.66666500 -0.43099500
vn 0.60811300 0.66666500 -0.43099500
vn 0.60811300 0.66666300 -0.43099800
vn 0.60811300 0.66666300 -0.43099800
vn 0.60811300 0.66666300 -0.43099800
vn 0.68338900 -0.00000200 -0.73005400
vn 0.68338900 -0.00000200 -0.73005400
vn 0.68338900 -0.00000200 -0.73005400
vn 0.81578400 -0.01290800 -0.57821200
vn 0.81578500 -0.01290800 -0.57821200
vn 0.81578500 -0.01290800 -0.57821200
vn 0.88206400 0.00000100 0.47112900
vn 0.88206400 0.00000100 0.47112900
vn 0.88206400 0.00000100 0.47112900
vn 0.88206100 0.00000100 0.47113600
vn 0.88206100 0.00000100 0.47113600
vn 0.88206100 0.00000100 0.47113600
vn 0.88206100 -0.00000000 0.47113600
vn 0.88206100 -0.00000000 0.47113600
vn 0.88206100 -0.00000000 0.47113600
vn 0.88206000 -0.00000300 0.47113700
vn 0.88206100 -0.00000300 0.47113600
vn 0.88206100 -0.00000300 0.47113600
vn 0.88206200 -0.00000800 0.47113300
vn 0.88206200 -0.00000800 0.47113300
vn 0.88206200 -0.00000800 0.47113300
vn 0.60809500 -0.66667300 -0.43100800
vn 0.60809500 -0.66667300 -0.43100800
vn 0.60809500 -0.66667300 -0.43100800
vn 0.88206100 0.00000200 0.47113500
vn 0.88206100 0.00000200 0.47113500
vn 0.88206100 0.00000200 0.47113500
vt 0.21281900 0.98021000
vt 0.25572300 0.93909300
vt 0.21289800 0.98284300
vt 0.24974400 0.82087500
vt 0.25634400 0.82505100
vt 0.25078900 0.93914700
vt 0.25078900 0.93914700
vt 0.25634400 0.82505100
vt 0.25572300 0.93909300
vt 0.22936300 0.77802200
vt 0.25634400 0.82505100
vt 0.24974400 0.82087500
vt 0.22936300 0.77802200
vt 0.24974400 0.82087500
vt 0.21134600 0.77286000
vt 0.04876900 0.81594200
vt 0.09404100 0.76353400
vt 0.11819700 0.76395800
vt 0.04876900 0.81594200
vt 0.04119300 0.93380200
vt 0.04173900 0.81977700
vt 0.04173900 0.81977700
vt 0.04119300 0.93380200
vt 0.03605700 0.93349200
vt 0.07673300 0.97669400
vt 0.07621500 0.98193100
vt 0.04119300 0.93380200
vt 0.04119300 0.93380200
vt 0.07621500 0.98193100
vt 0.03605700 0.93349200
vt 0.07673300 0.97669400
vt 0.21281900 0.98021000
vt 0.21289800 0.98284300
vt 0.07673300 0.97669400
vt 0.21289800 0.98284300
vt 0.07621500 0.98193100
vt 0.04119300 0.93380200
vt 0.21281900 0.98021000
vt 0.07673300 0.97669400
vt 0.04876900 0.81594200
vt 0.11819700 0.76395800
vt 0.21281900 0.98021000
vt 0.21281900 0.98021000
vt 0.11819700 0.76395800
vt 0.21134600 0.77286000
vt 0.21134600 0.77286000
vt 0.24974400 0.82087500
vt 0.21281900 0.98021000
vt 0.21281900 0.98021000
vt 0.24974400 0.82087500
vt 0.25078900 0.93914700
vt 0.21281900 0.98021000
vt 0.25078900 0.93914700
vt 0.25572300 0.93909300
vt 0.04876900 0.81594200
vt 0.21281900 0.98021000
vt 0.04119300 0.93380200
f 1/1/1 2/2/2 3/3/3
f 4/4/4 5/5/5 6/6/6
f 7/7/7 8/8/8 9/9/9
f 10/10/10 11/11/11 12/12/12
f 13/13/13 14/14/14 15/15/15
f 16/16/16 17/17/17 18/18/18
f 19/19/19 20/20/20 21/21/21
f 22/22/22 23/23/23 24/24/24
f 25/25/25 26/26/26 27/27/27
f 28/28/28 29/29/29 30/30/30
f 31/31/31 32/32/32 33/33/33
f 34/34/34 35/35/35 36/36/36
f 37/37/37 38/38/38 39/39/39
f 40/40/40 41/41/41 42/42/42
f 43/43/43 44/44/44 45/45/45
f 46/46/46 47/47/47 48/48/48
f 49/49/49 50/50/50 51/51/51
f 52/52/52 53/53/53 54/54/54
f 55/55/55 56/56/56 57/57/57

