mtllib material.mtl
usemtl material_0
v 0.06549023 0.00000000 0.12000000
v 0.06573572 -0.00250081 0.11998729
v 0.06573572 0.00250081 0.11998729
v 0.06639024 -0.00492483 0.11995069
v 0.06639024 0.00492483 0.11995069
v 0.06741951 -0.00719763 0.11989468
v 0.06741951 0.00719763 0.11989468
v 0.06877440 -0.04283295 0.11629313
v 0.06877440 0.04283295 0.11629313
v 0.06879641 -0.00929643 0.11982428
v 0.06879641 0.00929643 0.11982428
v 0.06901942 -0.04059999 0.11668686
v 0.06901942 0.04059999 0.11668686
v 0.06902358 -0.04506447 0.11589965
v 0.06902358 0.04506447 0.11589965
v 0.06976185 -0.03842515 0.11707034
v 0.06976185 0.03842515 0.11707034
v 0.06976732 -0.04723725 0.11551653
v 0.06976732 0.04723725 0.11551653
v 0.07056243 -0.01127184 0.11974148
v 0.07056243 0.01127184 0.11974148
v 0.07100454 -0.04929140 0.11515433
v 0.07100454 0.04929140 0.11515433
v 0.07100806 -0.03637377 0.11743206
v 0.07100806 0.03637377 0.11743206
v 0.07271969 -0.05114176 0.11482806
v 0.07271969 0.05114176 0.11482806
v 0.07272645 -0.03452511 0.11775803
v 0.07272645 0.03452511 0.11775803
v 0.07277043 -0.01310526 0.11965066
v 0.07277043 0.01310526 0.11965066
v 0.07486330 -0.03296595 0.11803295
v 0.07486330 0.03296595 0.11803295
v 0.07486941 -0.05269647 0.11455393
v 0.07486941 0.05269647 0.11455393
v 0.07535263 -0.01467053 0.11956222
v 0.07535263 0.01467053 0.11956222
v 0.07736088 -0.03178183 0.11824174
v 0.07736088 0.03178183 0.11824174
v 0.07736523 -0.05388109 0.11434505
v 0.07736523 0.05388109 0.11434505
v 0.07814165 -0.01585927 0.11948874
v 0.07814165 0.01585927 0.11948874
v 0.08011238 -0.05462367 0.11421411
v 0.08011238 0.05462367 0.11421411
v 0.08011734 -0.03104251 0.11837210
v 0.08011734 0.03104251 0.11837210
v 0.08091548 -0.01653691 0.11944361
v 0.08091548 0.01653691 0.11944361
v 0.08300040 -0.05487556 0.11416969
v 0.08300040 0.05487556 0.11416969
v 0.08300230 -0.03079339 0.11841603
v 0.08300230 0.03079339 0.11841603
v 0.08378038 -0.01666291 0.11943502
v 0.08378038 0.01666291 0.11943502
v 0.08588352 -0.05462271 0.11421428
v 0.08588352 0.05462271 0.11421428
v 0.08588476 -0.03104235 0.11837213
v 0.08588476 0.03104235 0.11837213
v 0.08662158 -0.01623529 0.11946368
v 0.08662158 0.01623529 0.11946368
v 0.08863373 -0.05387875 0.11434545
v 0.08863373 0.05387875 0.11434545
v 0.08863560 -0.03178395 0.11824137
v 0.08863560 0.03178395 0.11824137
v 0.08932824 -0.01527385 0.11952543
v 0.08932824 0.01527385 0.11952543
v 0.09113655 -0.05269971 0.11455336
v 0.09113655 0.05269971 0.11455336
v 0.09113770 -0.03296747 0.11803268
v 0.09113770 0.03296747 0.11803268
v 0.09328019 -0.05114396 0.11482767
v 0.09328019 0.05114396 0.11482767
v 0.09328085 -0.03452427 0.11775818
v 0.09328085 0.03452427 0.11775818
v 0.09341782 -0.01268318 0.11967282
v 0.09341783 0.01268317 0.11967282
v 0.09499228 -0.04929060 0.11515448
v 0.09499228 0.04929060 0.11515448
v 0.09499300 -0.03637391 0.11743203
v 0.09499300 0.03637391 0.11743203
v 0.09623334 -0.04723584 0.11551678
v 0.09623334 0.04723584 0.11551678
v 0.09623402 -0.03842630 0.11707014
v 0.09623402 0.03842630 0.11707014
v 0.09670054 -0.00911709 0.11983099
v 0.09670054 0.00911708 0.11983099
v 0.09697844 -0.04506314 0.11589989
v 0.09697844 0.04506314 0.11589989
v 0.09697870 -0.04060058 0.11668675
v 0.09697870 0.04060058 0.11668675
v 0.09722650 -0.04283264 0.11629318
v 0.09722650 0.04283264 0.11629318
v 0.09886549 -0.00478696 0.11995342
v 0.09886550 0.00478694 0.11995342
v 0.09970004 -0.00000001 0.12000000
v 0.12150000 -0.03750000 0.12290000
v 0.12150000 0.03750000 0.12290000
v 0.12213037 -0.04228815 0.12290000
v 0.12213037 0.04228815 0.12290000
v 0.12397853 -0.04675000 0.12290000
v 0.12397853 0.04675000 0.12290000
v 0.12691853 -0.05058147 0.12290000
v 0.12691853 0.05058147 0.12290000
v 0.13075000 -0.05352147 0.12290000
v 0.13075000 0.05352147 0.12290000
v 0.13521185 -0.05536963 0.12290000
v 0.13521185 0.05536963 0.12290000
v 0.14000000 -0.05600000 0.12290000
v 0.14000000 0.05600000 0.12290000
v 0.14478815 -0.05536963 0.12290000
v 0.14478815 0.05536963 0.12290000
v 0.14925000 -0.05352147 0.12290000
v 0.14925000 0.05352147 0.12290000
v 0.15308147 -0.05058147 0.12290000
v 0.15308147 0.05058147 0.12290000
v 0.15602147 -0.04675000 0.12290000
v 0.15602147 0.04675000 0.12290000
v 0.15786963 -0.04228815 0.12290000
v 0.15786963 0.04228815 0.12290000
v 0.15850000 -0.03750000 0.12290000
v 0.15850000 0.03750000 0.12290000
vn 0.00000000 0.00000000 0.10000000
vn 0.00000000 -0.00101700 0.09999500
vn 0.00000000 0.00101700 0.09999500
vn 0.00000000 -0.00200200 0.09998000
vn 0.00000000 0.00200200 0.09998000
vn 0.00000000 -0.00292600 0.09995700
vn 0.00000000 0.00292600 0.09995700
vn 0.00000000 -0.01736500 0.09848100
vn 0.00000000 0.01736500 0.09848100
vn 0.00000000 -0.00377900 0.09992900
vn 0.00000000 0.00377900 0.09992900
vn 0.00000000 -0.01736500 0.09848100
vn 0.00000000 0.01736500 0.09848100
vn 0.00000000 -0.01736500 0.09848100
vn 0.00000000 0.01736500 0.09848100
vn 0.00000000 -0.01736500 0.09848100
vn 0.00000000 0.01736500 0.09848100
vn 0.00000000 -0.01736500 0.09848100
vn 0.00000000 0.01736500 0.09848100
vn 0.00000000 -0.00458200 0.09989500
vn 0.00000000 0.00458200 0.09989500
vn 0.00000000 -0.01736500 0.09848100
vn 0.00000000 0.01736500 0.09848100
vn 0.00000000 -0.01736500 0.09848100
vn 0.00000000 0.01736500 0.09848100
vn 0.00000000 -0.01736500 0.09848100
vn 0.00000000 0.01736500 0.09848100
vn 0.00000000 -0.01736500 0.09848100
vn 0.00000000 0.01736500 0.09848100
vn 0.00000000 -0.00532700 0.09985800
vn 0.00000000 0.00532700 0.09985800
vn 0.00000000 -0.01736500 0.09848100
vn 0.00000000 0.01736500 0.09848100
vn 0.00000000 -0.01736500 0.09848100
vn 0.00000000 0.01736500 0.09848100
vn 0.00000000 -0.00596400 0.09982200
vn 0.00000000 0.00596400 0.09982200
vn 0.00000000 -0.01736500 0.09848100
vn 0.00000000 0.01736500 0.09848100
vn 0.00000000 -0.01736500 0.09848100
vn 0.00000000 0.01736500 0.09848100
vn 0.00000000 -0.00644700 0.09979200
vn 0.00000000 0.00644700 0.09979200
vn 0.00000000 -0.01736500 0.09848100
vn 0.00000000 0.01736500 0.09848100
vn 0.00000000 -0.01736500 0.09848100
vn 0.00000000 0.01736500 0.09848100
vn 0.00000000 -0.00672200 0.09977400
vn 0.00000000 0.00672200 0.09977400
vn 0.00000000 -0.01736500 0.09848100
vn 0.00000000 0.01736500 0.09848100
vn 0.00000000 -0.01736500 0.09848100
vn 0.00000000 0.01736500 0.09848100
vn 0.00000000 -0.00677400 0.09977000
vn 0.00000000 0.00677400 0.09977000
vn 0.00000000 -0.01736500 0.09848100
vn 0.00000000 0.01736500 0.09848100
vn 0.00000000 -0.01736500 0.09848100
vn 0.00000000 0.01736500 0.09848100
vn 0.00000000 -0.00660000 0.09978200
vn 0.00000000 0.00660000 0.09978200
vn 0.00000000 -0.01736500 0.09848100
vn 0.00000000 0.01736500 0.09848100
vn 0.00000000 -0.01736500 0.09848100
vn 0.00000000 0.01736500 0.09848100
vn 0.00000000 -0.00620900 0.09980700
vn 0.00000000 0.00620900 0.09980700
vn 0.00000000 -0.01736500 0.09848100
vn 0.00000000 0.01736500 0.09848100
vn 0.00000000 -0.01736500 0.09848100
vn 0.00000000 0.01736500 0.09848100
vn 0.00000000 -0.01736500 0.09848100
vn 0.00000000 0.01736500 0.09848100
vn 0.00000000 -0.01736500 0.09848100
vn 0.00000000 0.01736500 0.09848100
vn 0.00000000 -0.00515600 0.09986700
vn 0.00000000 0.00515600 0.09986700
vn 0.00000000 -0.01736500 0.09848100
vn 0.00000000 0.01736500 0.09848100
vn 0.00000000 -0.01736500 0.09848100
vn 0.00000000 0.01736500 0.09848100
vn 0.00000000 -0.01736500 0.09848100
vn 0.00000000 0.01736500 0.09848100
vn 0.00000000 -0.01736500 0.09848100
vn 0.00000000 0.01736500 0.09848100
vn 0.00000000 -0.00370600 0.09993100
vn 0.00000000 0.00370600 0.09993100
vn 0.00000000 -0.01736500 0.09848100
vn 0.00000000 0.01736500 0.09848100
vn 0.00000000 -0.01736500 0.09848100
vn 0.00000000 0.01736500 0.09848100
vn 0.00000000 -0.01736500 0.09848100
vn 0.00000000 0.01736500 0.09848100
vn 0.00000000 -0.00194600 0.09998100
vn 0.00000000 0.00194600 0.09998100
vn 0.00000000 0.00000000 0.10000000
vn 0.00000000 0.00000000 0.10000000
vn 0.00000000 0.00000000 0.10000000
vn 0.00000000 0.00000000 0.10000000
vn 0.00000000 0.00000000 0.10000000
vn 0.00000000 0.00000000 0.10000000
vn 0.00000000 0.00000000 0.10000000
vn 0.00000000 0.00000000 0.10000000
vn 0.00000000 0.00000000 0.10000000
vn 0.00000000 0.00000000 0.10000000
vn 0.00000000 0.00000000 0.10000000
vn 0.00000000 0.00000000 0.10000000
vn 0.00000000 0.00000000 0.10000000
vn 0.00000000 0.00000000 0.10000000
vn 0.00000000 0.00000000 0.10000000
vn 0.00000000 0.00000000 0.10000000
vn 0.00000000 0.00000000 0.10000000
vn 0.00000000 0.00000000 0.10000000
vn 0.00000000 0.00000000 0.10000000
vn 0.00000000 0.00000000 0.10000000
vn 0.00000000 0.00000000 0.10000000
vn 0.00000000 0.00000000 0.10000000
vn 0.00000000 0.00000000 0.10000000
vn 0.00000000 0.00000000 0.10000000
vn 0.00000000 0.00000000 0.10000000
vn 0.00000000 0.00000000 0.10000000
vn 0.00000000 0.00000000 0.10000000
vt -1.71066600 1.71740400
vt -1.68611600 1.46731900
vt -1.68611600 1.96748900
vt -1.62066500 1.22488800
vt -1.62066500 2.20992000
vt -1.51773800 0.99753800
vt -1.51773800 2.43727000
vt 0.00003100 -1.42256000
vt -0.00003100 -1.42256000
vt -1.38004700 0.78754000
vt -1.38004700 2.64726800
vt -0.22670900 -1.39805800
vt 0.22670900 -1.39805800
vt 0.22662700 -1.39764200
vt -0.22662700 -1.39764200
vt -0.44754900 -1.32381500
vt 0.44754900 -1.32381500
vt 0.44725600 -1.32326800
vt -0.44725600 -1.32326800
vt -1.20344600 0.58982400
vt -1.20344600 2.84498400
vt 0.65584000 -1.19954600
vt -0.65584000 -1.19954600
vt -0.65585100 -1.19919400
vt 0.65585100 -1.19919400
vt 0.84373000 -1.02803100
vt -0.84373000 -1.02803100
vt -0.84356900 -1.02735500
vt 0.84356900 -1.02735500
vt -0.98264500 0.40625700
vt -0.98264500 3.02855100
vt -1.00189000 -0.81367000
vt 1.00189000 -0.81367000
vt 1.00160000 -0.81305900
vt -1.00160000 -0.81305900
vt -0.72442600 0.24948100
vt -0.72442600 3.18532700
vt -1.12212900 -0.56391200
vt 1.12212900 -0.56391200
vt 1.12188900 -0.56347700
vt -1.12188900 -0.56347700
vt -0.44552400 0.13038000
vt -0.44552400 3.30442800
vt 1.19729300 -0.28876200
vt -1.19729300 -0.28876200
vt -1.19720100 -0.28826600
vt 1.19720100 -0.28826600
vt -0.16814100 0.06246500
vt -0.16814100 3.37234300
vt 1.22287000 0.00004100
vt -1.22287000 0.00004100
vt -1.22249800 0.00023100
vt 1.22249800 0.00023100
vt 0.11834800 0.04983600
vt 0.11834800 3.38497200
vt 1.19719600 0.28835200
vt -1.19719600 0.28835200
vt -1.19721700 0.28847600
vt 1.19721700 0.28847600
vt 0.40247000 0.09269400
vt 0.40247000 3.34211300
vt 1.12165100 0.56337300
vt -1.12165100 0.56337300
vt -1.12191300 0.56356000
vt 1.12191300 0.56356000
vt 0.67313500 0.18903600
vt 0.67313500 3.24577200
vt 1.00192900 0.81365500
vt -1.00192900 0.81365500
vt -1.00173600 0.81377100
vt 1.00173600 0.81377100
vt 0.84395300 1.02801900
vt -0.84395300 1.02801900
vt -0.84365400 1.02808500
vt 0.84365400 1.02808500
vt 1.08209300 0.44852400
vt 1.08209400 2.98628400
vt 0.65575800 1.19922800
vt -0.65575800 1.19922800
vt -0.65583700 1.19930000
vt 0.65583700 1.19930000
vt 0.44711200 1.32333400
vt -0.44711200 1.32333400
vt -0.44743100 1.32340100
vt 0.44743100 1.32340100
vt 1.41036500 0.80548600
vt 1.41036500 2.62932100
vt 0.22649100 1.39784300
vt -0.22649100 1.39784300
vt -0.22664900 1.39787000
vt 0.22664900 1.39787000
vt -0.00000000 1.42265000
vt 0.00000000 1.42265000
vt 1.62686100 1.23867800
vt 1.62686100 2.19612900
vt 1.71031500 1.71740300
vt 3.75000000 -1.85000000
vt -3.75000000 -1.85000000
vt 4.22881500 -1.78696300
vt -4.22881500 -1.78696300
vt 4.67500000 -1.60214700
vt -4.67500000 -1.60214700
vt 5.05814700 -1.30814800
vt -5.05814700 -1.30814800
vt 5.35214700 -0.92500000
vt -5.35214700 -0.92500000
vt 5.53696300 -0.47881500
vt -5.53696300 -0.47881500
vt 5.60000000 0.00000000
vt -5.60000000 0.00000000
vt 5.53696300 0.47881500
vt -5.53696300 0.47881500
vt 5.35214700 0.92500000
vt -5.35214700 0.92500000
vt 5.05814700 1.30814800
vt -5.05814700 1.30814800
vt 4.67500000 1.60214700
vt -4.67500000 1.60214700
vt 4.22881500 1.78696300
vt -4.22881500 1.78696300
vt 3.75000000 1.85000000
vt -3.75000000 1.85000000
f 91/91/91 93/93/93 39/39/39
f 39/39/39 93/93/93 89/89/89
f 39/39/39 89/89/89 83/83/83
f 83/83/83 79/79/79 39/39/39
f 39/39/39 79/79/79 73/73/73
f 39/39/39 73/73/73 69/69/69
f 69/69/69 63/63/63 39/39/39
f 39/39/39 63/63/63 57/57/57
f 39/39/39 57/57/57 51/51/51
f 51/51/51 45/45/45 39/39/39
f 39/39/39 45/45/45 41/41/41
f 39/39/39 41/41/41 35/35/35
f 35/35/35 27/27/27 39/39/39
f 39/39/39 27/27/27 23/23/23
f 39/39/39 23/23/23 19/19/19
f 19/19/19 15/15/15 39/39/39
f 39/39/39 15/15/15 9/9/9
f 39/39/39 9/9/9 13/13/13
f 17/17/17 25/25/25 13/13/13
f 13/13/13 25/25/25 29/29/29
f 13/13/13 29/29/29 33/33/33
f 33/33/33 39/39/39 13/13/13
f 47/47/47 65/65/65 39/39/39
f 39/39/39 65/65/65 71/71/71
f 39/39/39 71/71/71 75/75/75
f 47/47/47 53/53/53 65/65/65
f 65/65/65 53/53/53 59/59/59
f 75/75/75 81/81/81 39/39/39
f 39/39/39 81/81/81 85/85/85
f 39/39/39 85/85/85 91/91/91
f 3/3/3 1/1/1 96/96/96
f 96/96/96 1/1/1 2/2/2
f 96/96/96 2/2/2 94/94/94
f 94/94/94 2/2/2 4/4/4
f 94/94/94 4/4/4 6/6/6
f 94/94/94 6/6/6 86/86/86
f 86/86/86 6/6/6 10/10/10
f 86/86/86 10/10/10 20/20/20
f 86/86/86 20/20/20 76/76/76
f 76/76/76 20/20/20 30/30/30
f 76/76/76 30/30/30 36/36/36
f 76/76/76 36/36/36 66/66/66
f 66/66/66 36/36/36 42/42/42
f 66/66/66 42/42/42 60/60/60
f 60/60/60 42/42/42 48/48/48
f 60/60/60 48/48/48 54/54/54
f 96/96/96 95/95/95 3/3/3
f 3/3/3 95/95/95 5/5/5
f 5/5/5 95/95/95 7/7/7
f 7/7/7 95/95/95 87/87/87
f 7/7/7 87/87/87 11/11/11
f 11/11/11 87/87/87 21/21/21
f 21/21/21 87/87/87 77/77/77
f 21/21/21 77/77/77 31/31/31
f 31/31/31 77/77/77 37/37/37
f 37/37/37 77/77/77 67/67/67
f 37/37/37 67/67/67 43/43/43
f 43/43/43 67/67/67 61/61/61
f 43/43/43 61/61/61 49/49/49
f 49/49/49 61/61/61 55/55/55
f 88/88/88 92/92/92 38/38/38
f 38/38/38 92/92/92 90/90/90
f 38/38/38 90/90/90 84/84/84
f 84/84/84 80/80/80 38/38/38
f 38/38/38 80/80/80 74/74/74
f 38/38/38 74/74/74 70/70/70
f 70/70/70 64/64/64 38/38/38
f 38/38/38 64/64/64 46/46/46
f 46/46/46 64/64/64 52/52/52
f 52/52/52 64/64/64 58/58/58
f 32/32/32 12/12/12 38/38/38
f 38/38/38 12/12/12 8/8/8
f 38/38/38 8/8/8 14/14/14
f 32/32/32 28/28/28 12/12/12
f 12/12/12 28/28/28 24/24/24
f 12/12/12 24/24/24 16/16/16
f 14/14/14 18/18/18 38/38/38
f 38/38/38 18/18/18 22/22/22
f 38/38/38 22/22/22 26/26/26
f 26/26/26 34/34/34 38/38/38
f 38/38/38 34/34/34 40/40/40
f 38/38/38 40/40/40 44/44/44
f 44/44/44 50/50/50 38/38/38
f 38/38/38 50/50/50 56/56/56
f 38/38/38 56/56/56 62/62/62
f 62/62/62 68/68/68 38/38/38
f 38/38/38 68/68/68 72/72/72
f 38/38/38 72/72/72 78/78/78
f 78/78/78 82/82/82 38/38/38
f 38/38/38 82/82/82 88/88/88
f 97/97/97 106/106/106 98/98/98
f 98/98/98 106/106/106 104/104/104
f 98/98/98 104/104/104 102/102/102
f 99/99/99 101/101/101 97/97/97
f 97/97/97 101/101/101 103/103/103
f 97/97/97 103/103/103 105/105/105
f 107/107/107 108/108/108 105/105/105
f 105/105/105 108/108/108 106/106/106
f 105/105/105 106/106/106 97/97/97
f 108/108/108 107/107/107 110/110/110
f 110/110/110 107/107/107 109/109/109
f 110/110/110 109/109/109 112/112/112
f 112/112/112 109/109/109 111/111/111
f 112/112/112 111/111/111 114/114/114
f 114/114/114 111/111/111 113/113/113
f 114/114/114 113/113/113 122/122/122
f 122/122/122 113/113/113 121/121/121
f 121/121/121 113/113/113 115/115/115
f 121/121/121 115/115/115 117/117/117
f 117/117/117 119/119/119 121/121/121
f 120/120/120 118/118/118 122/122/122
f 122/122/122 118/118/118 116/116/116
f 122/122/122 116/116/116 114/114/114
f 102/102/102 100/100/100 98/98/98

