mtllib material.mtl
usemtl material_0
v -0.01718300 -0.02920400 -0.01060000
v -0.01718300 -0.02920400 -0.01060000
v -0.01718300 -0.02920400 -0.01060000
v -0.01718300 -0.02920400 -0.01680000
v -0.01718300 -0.02920400 -0.01680000
v -0.01718300 -0.02920400 -0.01680000
v -0.01739500 -0.02899100 -0.01370000
v -0.01739500 -0.02899100 -0.01370000
v -0.01754900 -0.02883700 -0.01274500
v -0.01754900 -0.02883700 -0.01274500
v -0.01754900 -0.02883700 -0.01465500
v -0.01754900 -0.02883700 -0.01465500
v -0.01740500 -0.02855700 -0.01347100
v -0.01748200 -0.02848000 -0.01437400
v -0.01798100 -0.02840600 -0.01198000
v -0.01798100 -0.02840600 -0.01198000
v -0.01798100 -0.02840600 -0.01542000
v -0.01798100 -0.02840600 -0.01542000
v -0.01763300 -0.02832900 -0.01262100
v -0.01824300 -0.02814300 -0.00910000
v -0.01824300 -0.02814300 -0.00910000
v -0.01824300 -0.02814300 -0.00910000
v -0.01824300 -0.02814300 -0.01830000
v -0.01824300 -0.02814300 -0.01830000
v -0.01824300 -0.02814300 -0.01830000
v -0.01784700 -0.02811500 -0.01512200
v -0.01811400 -0.02784800 -0.01201800
v -0.01576800 -0.02778900 -0.01060000
v -0.01576800 -0.02778900 -0.01060000
v -0.01576800 -0.02778900 -0.01680000
v -0.01576800 -0.02778900 -0.01680000
v -0.01860400 -0.02778200 -0.01155500
v -0.01860400 -0.02778200 -0.01155500
v -0.01860400 -0.02778200 -0.01584500
v -0.01860400 -0.02778200 -0.01584500
v -0.01841700 -0.02754500 -0.01554500
v -0.01873800 -0.02722400 -0.01180000
v -0.01929700 -0.02709000 -0.01155500
v -0.01929700 -0.02709000 -0.01155500
v -0.01929700 -0.02709000 -0.01584500
v -0.01929700 -0.02709000 -0.01584500
v -0.01906000 -0.02690200 -0.01554500
v -0.01682900 -0.02672900 -0.00910000
v -0.01682900 -0.02672900 -0.00910000
v -0.01682900 -0.02672900 -0.01830000
v -0.01682900 -0.02672900 -0.01830000
v -0.01936300 -0.02659900 -0.01201800
v -0.01992000 -0.02646600 -0.01198000
v -0.01992000 -0.02646600 -0.01198000
v -0.01992000 -0.02646600 -0.01542000
v -0.01992000 -0.02646600 -0.01542000
v -0.01962900 -0.02633300 -0.01512200
v -0.01984400 -0.02611800 -0.01262100
v -0.02035200 -0.02603400 -0.01274500
v -0.02035200 -0.02603400 -0.01274500
v -0.02035200 -0.02603400 -0.01465500
v -0.02035200 -0.02603400 -0.01465500
v -0.01999500 -0.02596700 -0.01437400
v -0.01999500 -0.02596700 -0.01437400
v -0.01999500 -0.02596700 -0.01437400
v -0.02007200 -0.02589000 -0.01347100
v -0.02050600 -0.02588000 -0.01370000
v -0.02050600 -0.02588000 -0.01370000
v -0.02050600 -0.02588000 -0.01370000
v -0.02050600 -0.02588000 -0.01370000
v -0.02104600 -0.02534100 -0.01341900
v -0.02111900 -0.02526700 -0.01453500
v -0.02126300 -0.02512400 -0.01234000
v -0.02147200 -0.02491400 -0.01553800
v -0.02174000 -0.02464600 -0.01144600
v -0.02205800 -0.02432800 -0.01629300
v -0.02241400 -0.02397200 -0.01085600
v -0.02279700 -0.02358900 -0.01669800
v -0.02319300 -0.02319300 -0.01065000
v -0.02358900 -0.02279700 -0.01669800
v -0.02397200 -0.02241400 -0.01085600
v -0.02432800 -0.02205800 -0.01629300
v -0.02464600 -0.02174000 -0.01144600
v -0.02491400 -0.02147200 -0.01553800
v -0.02512400 -0.02126300 -0.01234000
v -0.02526700 -0.02111900 -0.01453500
v -0.02534100 -0.02104600 -0.01341900
v -0.02588000 -0.02050600 -0.01370000
v -0.02588000 -0.02050600 -0.01370000
v -0.02603400 -0.02035200 -0.01274500
v -0.02603400 -0.02035200 -0.01274500
v -0.02603400 -0.02035200 -0.01465500
v -0.02603400 -0.02035200 -0.01465500
v -0.02589000 -0.02007200 -0.01347100
v -0.02596700 -0.01999500 -0.01437400
v -0.02646600 -0.01992000 -0.01198000
v -0.02646600 -0.01992000 -0.01198000
v -0.02646600 -0.01992000 -0.01542000
v -0.02646600 -0.01992000 -0.01542000
v -0.02611800 -0.01984400 -0.01262100
v -0.02633300 -0.01962900 -0.01512200
v -0.02659900 -0.01936300 -0.01201800
v -0.02709000 -0.01929700 -0.01155500
v -0.02709000 -0.01929700 -0.01155500
v -0.02709000 -0.01929700 -0.01584500
v -0.02709000 -0.01929700 -0.01584500
v -0.02690200 -0.01906000 -0.01554500
v -0.02722400 -0.01873800 -0.01180000
v -0.02778200 -0.01860400 -0.01155500
v -0.02778200 -0.01860400 -0.01155500
v -0.02778200 -0.01860400 -0.01584500
v -0.02778200 -0.01860400 -0.01584500
v -0.02754500 -0.01841700 -0.01554500
v -0.02814300 -0.01824300 -0.00910000
v -0.02814300 -0.01824300 -0.00910000
v -0.02814300 -0.01824300 -0.00910000
v -0.02814300 -0.01824300 -0.01830000
v -0.02814300 -0.01824300 -0.01830000
v -0.02814300 -0.01824300 -0.01830000
v -0.02784800 -0.01811400 -0.01201800
v -0.02840600 -0.01798100 -0.01198000
v -0.02840600 -0.01798100 -0.01198000
v -0.02840600 -0.01798100 -0.01542000
v -0.02840600 -0.01798100 -0.01542000
v -0.02811500 -0.01784700 -0.01512200
v -0.02832900 -0.01763300 -0.01262100
v -0.02883700 -0.01754900 -0.01274500
v -0.02883700 -0.01754900 -0.01274500
v -0.02883700 -0.01754900 -0.01465500
v -0.02883700 -0.01754900 -0.01465500
v -0.02848000 -0.01748200 -0.01437400
v -0.02848000 -0.01748200 -0.01437400
v -0.02848000 -0.01748200 -0.01437400
v -0.02855700 -0.01740500 -0.01347100
v -0.02899100 -0.01739500 -0.01370000
v -0.02899100 -0.01739500 -0.01370000
v -0.02899100 -0.01739500 -0.01370000
v -0.02899100 -0.01739500 -0.01370000
v -0.02920400 -0.01718300 -0.01060000
v -0.02920400 -0.01718300 -0.01060000
v -0.02920400 -0.01718300 -0.01060000
v -0.02920400 -0.01718300 -0.01680000
v -0.02920400 -0.01718300 -0.01680000
v -0.02920400 -0.01718300 -0.01680000
v -0.02672900 -0.01682900 -0.00910000
v -0.02672900 -0.01682900 -0.00910000
v -0.02672900 -0.01682900 -0.01830000
v -0.02672900 -0.01682900 -0.01830000
v -0.02778900 -0.01576800 -0.01060000
v -0.02778900 -0.01576800 -0.01060000
v -0.02778900 -0.01576800 -0.01680000
v -0.02778900 -0.01576800 -0.01680000
vn -70.71067700 -70.71067700 0.00000000
vn 70.71067700 -70.71067700 -0.00000000
vn 50.00000000 -50.00000000 70.71067700
vn -70.71067700 -70.71067700 0.00000000
vn 50.00000000 -50.00000000 -70.71067700
vn 70.71067700 -70.71067700 -0.00000000
vn -70.71067700 -70.71067700 0.00000000
vn -100.00000000 0.00000000 0.00000000
vn -70.71067700 -70.71067700 0.00000000
vn -95.04844500 -4.95155700 -30.68021200
vn -95.04844500 -4.95155700 30.68021200
vn -70.71067700 -70.71067700 0.00000000
vn -99.63544600 -0.36455600 -8.52323000
vn -96.75081400 -3.24918800 25.07435100
vn -81.17449300 -18.82551000 -55.28383300
vn -70.71067700 -70.71067700 0.00000000
vn -70.71067700 -70.71067700 0.00000000
vn -81.17449300 -18.82551000 55.28383300
vn -91.14919300 -8.85080700 -40.16824400
vn -70.71067700 -70.71067700 0.00000000
vn 50.00000000 -50.00000000 70.71067700
vn 0.00000000 -0.00000000 100.00000000
vn -70.71067700 -70.71067700 0.00000000
vn -0.00000000 0.00000000 -100.00000000
vn 50.00000000 -50.00000000 -70.71067700
vn -83.15613300 -16.84386700 52.92770300
vn -73.23616100 -26.76384200 -62.61119800
vn 50.00000000 -50.00000000 70.71067700
vn 70.71067700 -70.71067700 -0.00000000
vn 70.71067700 -70.71067700 -0.00000000
vn 50.00000000 -50.00000000 -70.71067700
vn -70.71067700 -70.71067700 0.00000000
vn -61.12604700 -38.87395300 -68.93781400
vn -70.71067700 -70.71067700 0.00000000
vn -61.12604700 -38.87395300 68.93781400
vn -61.96578100 -38.03421600 68.65595600
vn -50.00000000 -50.00000000 -70.71067700
vn -70.71067700 -70.71067700 0.00000000
vn -38.87395300 -61.12604700 -68.93781400
vn -38.87395300 -61.12604700 68.93781400
vn -70.71067700 -70.71067700 0.00000000
vn -38.03421600 -61.96578100 68.65595600
vn 0.00000000 -0.00000000 100.00000000
vn 50.00000000 -50.00000000 70.71067700
vn 50.00000000 -50.00000000 -70.71067700
vn -0.00000000 0.00000000 -100.00000000
vn -26.76384200 -73.23616100 -62.61119800
vn -18.82551000 -81.17449300 -55.28383300
vn -70.71067700 -70.71067700 0.00000000
vn -18.82551000 -81.17449300 55.28383300
vn -70.71067700 -70.71067700 0.00000000
vn -16.84386700 -83.15613300 52.92770300
vn -8.85080700 -91.14919300 -40.16824400
vn -4.95155700 -95.04844500 -30.68021200
vn -70.71067700 -70.71067700 0.00000000
vn -4.95155700 -95.04844500 30.68021200
vn -70.71067700 -70.71067700 0.00000000
vn -3.24918800 -96.75081400 25.07435100
vn -3.24918800 -96.75081400 25.07435100
vn -3.24918800 -96.75081400 25.07435100
vn -0.36455600 -99.63544600 -8.52323000
vn -70.71067700 -70.71067700 0.00000000
vn -0.00000000 -100.00000000 -0.00000000
vn -0.00000000 -100.00000000 -0.00000000
vn -0.00000000 -100.00000000 -0.00000000
vn -70.71067700 -70.71067700 0.00000000
vn -70.71067700 -70.71067700 0.00000000
vn -70.71067700 -70.71067700 0.00000000
vn -70.71067700 -70.71067700 0.00000000
vn -70.71067700 -70.71067700 0.00000000
vn -70.71067700 -70.71067700 0.00000000
vn -70.71067700 -70.71067700 0.00000000
vn -70.71067700 -70.71067700 0.00000000
vn -70.71067700 -70.71067700 0.00000000
vn -70.71067700 -70.71067700 0.00000000
vn -70.71067700 -70.71067700 0.00000000
vn -70.71067700 -70.71067700 0.00000000
vn -70.71067700 -70.71067700 0.00000000
vn -70.71067700 -70.71067700 0.00000000
vn -70.71067700 -70.71067700 0.00000000
vn -70.71067700 -70.71067700 0.00000000
vn -70.71067700 -70.71067700 0.00000000
vn -70.71067700 -70.71067700 0.00000000
vn -100.00000000 0.00000000 0.00000000
vn -70.71067700 -70.71067700 0.00000000
vn -95.04844500 -4.95155700 -30.68021200
vn -70.71067700 -70.71067700 0.00000000
vn -95.04844500 -4.95155700 30.68021200
vn -99.63544600 -0.36455600 -8.52323000
vn -96.75081400 -3.24918800 25.07435100
vn -70.71067700 -70.71067700 0.00000000
vn -81.17449300 -18.82551000 -55.28383300
vn -81.17449300 -18.82551000 55.28383300
vn -70.71067700 -70.71067700 0.00000000
vn -91.14919300 -8.85080700 -40.16824400
vn -83.15613300 -16.84386700 52.92770300
vn -73.23616100 -26.76384200 -62.61119800
vn -61.12604700 -38.87395300 -68.93781400
vn -70.71067700 -70.71067700 0.00000000
vn -70.71067700 -70.71067700 0.00000000
vn -61.12604700 -38.87395300 68.93781400
vn -61.96578100 -38.03421600 68.65595600
vn -50.00000000 -50.00000000 -70.71067700
vn -38.87395300 -61.12604700 -68.93781400
vn -70.71067700 -70.71067700 0.00000000
vn -70.71067700 -70.71067700 0.00000000
vn -38.87395300 -61.12604700 68.93781400
vn -38.03421600 -61.96578100 68.65595600
vn -70.71067700 -70.71067700 0.00000000
vn 0.00000000 -0.00000000 100.00000000
vn -50.00000000 50.00000000 70.71067700
vn -0.00000000 0.00000000 -100.00000000
vn -50.00000000 50.00000000 -70.71067700
vn -70.71067700 -70.71067700 0.00000000
vn -26.76384200 -73.23616100 -62.61119800
vn -70.71067700 -70.71067700 0.00000000
vn -18.82551000 -81.17449300 -55.28383300
vn -18.82551000 -81.17449300 55.28383300
vn -70.71067700 -70.71067700 0.00000000
vn -16.84386700 -83.15613300 52.92770300
vn -8.85080700 -91.14919300 -40.16824400
vn -4.95155700 -95.04844500 -30.68021200
vn -70.71067700 -70.71067700 0.00000000
vn -4.95155700 -95.04844500 30.68021200
vn -70.71067700 -70.71067700 0.00000000
vn -3.24918800 -96.75081400 25.07435100
vn -3.24918800 -96.75081400 25.07435100
vn -3.24918800 -96.75081400 25.07435100
vn -0.36455600 -99.63544600 -8.52323000
vn -0.00000000 -100.00000000 -0.00000000
vn -70.71067700 -70.71067700 0.00000000
vn -0.00000000 -100.00000000 -0.00000000
vn -0.00000000 -100.00000000 -0.00000000
vn -70.71067700 -70.71067700 0.00000000
vn -70.71067700 70.71067700 0.00000000
vn -50.00000000 50.00000000 70.71067700
vn -50.00000000 50.00000000 -70.71067700
vn -70.71067700 70.71067700 0.00000000
vn -70.71067700 -70.71067700 0.00000000
vn 0.00000000 -0.00000000 100.00000000
vn -50.00000000 50.00000000 70.71067700
vn -0.00000000 0.00000000 -100.00000000
vn -50.00000000 50.00000000 -70.71067700
vn -70.71067700 70.71067700 0.00000000
vn -50.00000000 50.00000000 70.71067700
vn -70.71067700 70.71067700 0.00000000
vn -50.00000000 50.00000000 -70.71067700
vt -0.85000000 -0.31000000
vt 0.00000000 -0.77000000
vt 0.00000000 0.10606600
vt -0.85000000 0.31000000
vt 0.00000000 -0.10606600
vt 0.00000000 -0.15000000
vt -0.82000000 0.00000000
vt 0.08131700 0.00000000
vt -0.79821300 -0.09545400
vt 0.08131700 0.09200400
vt 0.08131700 -0.09200400
vt -0.79821300 0.09545400
vt 0.03889100 0.02477000
vt 0.03889100 -0.07431100
vt 0.08131700 0.18400800
vt -0.73716800 -0.17200300
vt -0.73716800 0.17200300
vt 0.08131700 -0.18400800
vt 0.03889100 0.12385100
vt -0.70000000 -0.46000000
vt 0.00000000 -0.10606600
vt 0.00000000 -0.15000000
vt -0.70000000 0.46000000
vt 0.00000000 1.55000000
vt 0.00000000 0.10606600
vt 0.03889100 -0.17339200
vt 0.03889100 0.22293200
vt -0.20000000 0.10606600
vt -0.20000000 -0.77000000
vt -0.20000000 -0.15000000
vt -0.20000000 -0.10606600
vt -0.64895500 -0.21448400
vt 0.08131700 0.27601100
vt -0.64895500 0.21448400
vt 0.08131700 -0.27601100
vt 0.03889100 -0.27247300
vt 0.03889100 0.32201300
vt -0.55104500 -0.21448400
vt 0.08131700 0.36801500
vt 0.08131700 -0.36801500
vt -0.55104500 0.21448400
vt 0.03889100 -0.37155400
vt -0.20000000 -0.15000000
vt -0.20000000 -0.10606600
vt -0.20000000 0.10606600
vt 0.20000000 1.55000000
vt 0.03889100 0.42109400
vt 0.08131700 0.46001900
vt -0.46283200 -0.17200300
vt 0.08131700 -0.46001900
vt -0.46283200 0.17200300
vt 0.03889100 -0.47063500
vt 0.03889100 0.52017500
vt 0.08131700 0.55202300
vt -0.40178700 -0.09545400
vt 0.08131700 -0.55202300
vt -0.40178700 0.09545400
vt 0.03889100 0.71833700
vt 0.03889100 -0.56971600
vt 0.03889100 -0.56971600
vt 0.03889100 0.61925600
vt -0.38000000 0.00000000
vt 0.08131700 0.64402700
vt 0.08131700 0.64402700
vt 0.08131700 -0.64402700
vt -0.30369900 -0.02814200
vt -0.29335700 0.08346700
vt -0.27302500 -0.13595000
vt -0.24339500 0.18380400
vt -0.20547700 -0.22539800
vt -0.16056200 0.25931600
vt -0.11017900 -0.28440400
vt -0.05604400 0.29980700
vt -0.00000000 -0.30500000
vt 0.05604400 0.29980700
vt 0.11017900 -0.28440400
vt 0.16056200 0.25931600
vt 0.20547700 -0.22539800
vt 0.24339500 0.18380400
vt 0.27302500 -0.13595000
vt 0.29335700 0.08346700
vt 0.30369900 -0.02814200
vt 0.38000000 0.00000000
vt 0.08131700 0.00000000
vt 0.40178700 -0.09545400
vt 0.08131700 0.09200400
vt 0.40178700 0.09545400
vt 0.08131700 -0.09200400
vt 0.03889100 0.02477000
vt 0.03889100 -0.07431100
vt 0.46283200 -0.17200300
vt 0.08131700 0.18400800
vt 0.08131700 -0.18400800
vt 0.46283200 0.17200300
vt 0.03889100 0.12385100
vt 0.03889100 -0.17339200
vt 0.03889100 0.22293200
vt 0.08131700 0.27601100
vt 0.55104500 -0.21448400
vt 0.55104500 0.21448400
vt 0.08131700 -0.27601100
vt 0.03889100 -0.27247300
vt 0.03889100 0.32201300
vt 0.08131700 0.36801500
vt 0.64895500 -0.21448400
vt 0.64895500 0.21448400
vt 0.08131700 -0.36801500
vt 0.03889100 -0.37155400
vt 0.70000000 -0.46000000
vt 0.00000000 -1.55000000
vt 0.00000000 -0.10606600
vt 0.00000000 0.15000000
vt 0.00000000 0.10606600
vt 0.70000000 0.46000000
vt 0.03889100 0.42109400
vt 0.73716800 -0.17200300
vt 0.08131700 0.46001900
vt 0.08131700 -0.46001900
vt 0.73716800 0.17200300
vt 0.03889100 -0.47063500
vt 0.03889100 0.52017500
vt 0.08131700 0.55202300
vt 0.79821300 -0.09545400
vt 0.08131700 -0.55202300
vt 0.79821300 0.09545400
vt 0.03889100 -0.56971600
vt 0.03889100 0.71833700
vt 0.03889100 -0.56971600
vt 0.03889100 0.61925600
vt 0.08131700 0.64402700
vt 0.82000000 0.00000000
vt 0.08131700 0.64402700
vt 0.08131700 -0.64402700
vt 0.85000000 -0.31000000
vt 0.00000000 0.15000000
vt 0.00000000 0.10606600
vt 0.00000000 -0.10606600
vt 0.00000000 0.77000000
vt 0.85000000 0.31000000
vt -0.20000000 -1.55000000
vt 0.20000000 -0.10606600
vt 0.20000000 0.15000000
vt 0.20000000 0.10606600
vt 0.20000000 0.15000000
vt 0.20000000 0.10606600
vt 0.20000000 0.77000000
vt 0.20000000 -0.10606600
f 143/143/143 113/113/113 147/147/147
f 147/147/147 113/113/113 137/137/137
f 135/135/135 144/144/144 138/138/138
f 138/138/138 144/144/144 146/146/146
f 145/145/145 136/136/136 141/141/141
f 141/141/141 136/136/136 111/111/111
f 140/140/140 110/110/110 43/43/43
f 43/43/43 110/110/110 22/22/22
f 44/44/44 21/21/21 28/28/28
f 28/28/28 21/21/21 3/3/3
f 29/29/29 2/2/2 30/30/30
f 30/30/30 2/2/2 6/6/6
f 31/31/31 5/5/5 45/45/45
f 45/45/45 5/5/5 25/25/25
f 112/112/112 142/142/142 24/24/24
f 24/24/24 142/142/142 46/46/46
f 134/134/134 105/105/105 109/109/109
f 109/109/109 105/105/105 99/99/99
f 109/109/109 99/99/99 78/78/78
f 78/78/78 99/99/99 91/91/91
f 78/78/78 91/91/91 80/80/80
f 80/80/80 91/91/91 85/85/85
f 80/80/80 85/85/85 82/82/82
f 82/82/82 85/85/85 83/83/83
f 82/82/82 83/83/83 81/81/81
f 81/81/81 83/83/83 87/87/87
f 81/81/81 87/87/87 79/79/79
f 79/79/79 87/87/87 94/94/94
f 79/79/79 94/94/94 77/77/77
f 77/77/77 94/94/94 100/100/100
f 77/77/77 100/100/100 114/114/114
f 114/114/114 100/100/100 106/106/106
f 114/114/114 106/106/106 139/139/139
f 139/139/139 106/106/106 119/119/119
f 139/139/139 119/119/119 125/125/125
f 139/139/139 131/131/131 134/134/134
f 134/134/134 131/131/131 123/123/123
f 134/134/134 123/123/123 116/116/116
f 77/77/77 114/114/114 75/75/75
f 75/75/75 114/114/114 23/23/23
f 75/75/75 23/23/23 73/73/73
f 73/73/73 23/23/23 71/71/71
f 71/71/71 23/23/23 41/41/41
f 71/71/71 41/41/41 51/51/51
f 41/41/41 23/23/23 34/34/34
f 34/34/34 23/23/23 4/4/4
f 34/34/34 4/4/4 17/17/17
f 17/17/17 4/4/4 12/12/12
f 12/12/12 4/4/4 7/7/7
f 7/7/7 4/4/4 1/1/1
f 7/7/7 1/1/1 9/9/9
f 9/9/9 1/1/1 16/16/16
f 16/16/16 1/1/1 32/32/32
f 32/32/32 1/1/1 20/20/20
f 32/32/32 20/20/20 38/38/38
f 38/38/38 20/20/20 70/70/70
f 38/38/38 70/70/70 49/49/49
f 49/49/49 70/70/70 68/68/68
f 49/49/49 68/68/68 55/55/55
f 55/55/55 68/68/68 66/66/66
f 55/55/55 66/66/66 62/62/62
f 62/62/62 66/66/66 67/67/67
f 62/62/62 67/67/67 57/57/57
f 57/57/57 67/67/67 69/69/69
f 57/57/57 69/69/69 51/51/51
f 51/51/51 69/69/69 71/71/71
f 109/109/109 74/74/74 20/20/20
f 20/20/20 74/74/74 72/72/72
f 20/20/20 72/72/72 70/70/70
f 78/78/78 76/76/76 109/109/109
f 109/109/109 76/76/76 74/74/74
f 116/116/116 105/105/105 134/134/134
f 125/125/125 131/131/131 139/139/139
f 56/56/56 60/60/60 65/65/65
f 64/64/64 58/58/58 61/61/61
f 63/63/63 61/61/61 54/54/54
f 54/54/54 61/61/61 53/53/53
f 54/54/54 53/53/53 48/48/48
f 48/48/48 53/53/53 47/47/47
f 48/48/48 47/47/47 39/39/39
f 39/39/39 47/47/47 37/37/37
f 39/39/39 37/37/37 33/33/33
f 33/33/33 37/37/37 27/27/27
f 33/33/33 27/27/27 15/15/15
f 15/15/15 27/27/27 19/19/19
f 15/15/15 19/19/19 10/10/10
f 10/10/10 19/19/19 13/13/13
f 10/10/10 13/13/13 8/8/8
f 8/8/8 13/13/13 14/14/14
f 8/8/8 14/14/14 11/11/11
f 11/11/11 14/14/14 26/26/26
f 11/11/11 26/26/26 18/18/18
f 18/18/18 26/26/26 36/36/36
f 18/18/18 36/36/36 35/35/35
f 35/35/35 36/36/36 42/42/42
f 35/35/35 42/42/42 40/40/40
f 40/40/40 42/42/42 50/50/50
f 50/50/50 42/42/42 52/52/52
f 50/50/50 52/52/52 56/56/56
f 56/56/56 52/52/52 59/59/59
f 124/124/124 126/126/126 133/133/133
f 132/132/132 127/127/127 129/129/129
f 130/130/130 129/129/129 122/122/122
f 122/122/122 129/129/129 121/121/121
f 122/122/122 121/121/121 117/117/117
f 117/117/117 121/121/121 115/115/115
f 117/117/117 115/115/115 104/104/104
f 104/104/104 115/115/115 103/103/103
f 104/104/104 103/103/103 98/98/98
f 98/98/98 103/103/103 97/97/97
f 98/98/98 97/97/97 92/92/92
f 92/92/92 97/97/97 95/95/95
f 92/92/92 95/95/95 86/86/86
f 86/86/86 95/95/95 89/89/89
f 86/86/86 89/89/89 84/84/84
f 84/84/84 89/89/89 90/90/90
f 84/84/84 90/90/90 88/88/88
f 88/88/88 90/90/90 96/96/96
f 88/88/88 96/96/96 93/93/93
f 93/93/93 96/96/96 102/102/102
f 93/93/93 102/102/102 101/101/101
f 101/101/101 102/102/102 108/108/108
f 101/101/101 108/108/108 107/107/107
f 107/107/107 108/108/108 118/118/118
f 118/118/118 108/108/108 120/120/120
f 118/118/118 120/120/120 124/124/124
f 124/124/124 120/120/120 128/128/128

