# Blender 4.3.2
# www.blender.org
o base_link_collision.001
v 0.002127 0.031128 0.000128
v 0.002127 0.030127 0.001131
v 0.006121 0.030127 0.000128
v -0.000879 0.031128 0.000128
v -0.011864 0.023123 0.000128
v -0.007870 0.022128 0.004129
v -0.003876 0.020125 0.009133
v -0.005878 -0.003871 0.032124
v -0.005878 -0.004866 0.033127
v -0.000879 0.030127 0.001131
v -0.000879 0.022128 0.009133
v 0.001123 0.027123 0.004129
v -0.005878 -0.008866 0.037128
v -0.005878 -0.010868 0.039128
v -0.005878 -0.012871 0.041124
v -0.003876 -0.003871 0.033127
v -0.002880 -0.001868 0.031127
v 0.011120 0.004128 0.022133
v 0.012125 0.016126 0.011133
v 0.026126 0.022128 0.002129
v 0.013122 0.028124 0.000128
v 0.030128 0.023123 0.000128
v 0.029123 0.020125 0.003132
v 0.037128 0.012127 0.008130
v 0.031125 0.022128 0.000128
v 0.037128 0.012127 0.000128
v 0.037128 -0.011870 0.000128
v 0.037128 -0.011870 0.024133
v 0.031125 -0.030872 0.000128
v -0.030864 -0.030872 0.000128
v 0.031125 -0.030872 0.006130
v 0.018121 -0.024869 0.040126
v 0.006121 -0.030872 0.048128
v 0.031125 -0.017866 0.030124
v 0.030128 -0.017866 0.031127
v 0.037128 -0.010868 0.024133
v 0.037128 0.003126 0.015129
v 0.034122 -0.002870 0.020132
v 0.025121 -0.017866 0.033127
v 0.000126 -0.029870 0.050128
v 0.024124 -0.004866 0.025131
v 0.003124 -0.009867 0.036125
v 0.028127 0.002125 0.019130
v 0.009128 -0.014868 0.037128
v 0.016128 -0.001868 0.026128
v 0.026126 0.003126 0.019130
v 0.037128 0.006124 0.013133
v 0.036123 0.009123 0.011133
v 0.035127 0.007126 0.013133
v 0.030128 0.013128 0.009133
v 0.025121 0.010124 0.013133
v -0.001875 -0.008866 0.037128
v -0.006866 -0.016871 0.044127
v -0.003876 -0.010868 0.039128
v -0.006866 -0.022867 0.048128
v 0.002127 -0.010868 0.037128
v 0.002127 -0.007870 0.035128
v -0.005878 -0.024869 0.049125
v -0.008867 -0.024869 0.050128
v -0.000879 -0.030872 0.051126
v -0.003876 -0.030872 0.052128
v 0.004120 -0.030872 0.049125
v -0.005878 -0.030872 0.052128
v -0.005878 -0.029870 0.052128
v -0.009863 -0.024869 0.050128
v -0.008867 -0.021871 0.048128
v -0.012869 -0.024869 0.048128
v -0.012869 -0.022867 0.046127
v -0.028871 -0.017866 0.029126
v -0.048867 -0.010868 0.007132
v -0.048867 -0.011870 0.008130
v -0.016863 -0.024869 0.045124
v -0.017868 -0.024869 0.044127
v -0.049872 -0.011870 0.007132
v -0.030864 -0.030872 0.006130
v -0.049872 -0.011870 0.000128
v -0.049872 -0.009867 0.005132
v -0.049872 -0.005868 0.001131
v -0.048867 -0.008866 0.005132
v -0.048867 -0.004866 0.001131
v -0.040870 -0.008866 0.011133
v -0.040870 -0.004866 0.007132
v -0.028871 -0.008866 0.020132
v -0.040870 -0.010868 0.013133
v -0.028871 -0.013867 0.025131
v -0.008867 -0.017866 0.044127
v -0.008867 -0.015869 0.042126
v -0.048867 -0.003871 0.000128
v -0.022867 0.014123 0.001131
v -0.044864 -0.003871 0.003132
v -0.049872 -0.004866 0.000128
v -0.004873 -0.011870 0.040126
vn -0.0000 0.7076 0.7066
vn 0.1747 0.6967 0.6958
vn -0.0000 -0.0000 -1.0000
vn -0.4623 0.6345 0.6194
vn -0.4605 0.6339 0.6213
vn -0.4597 0.6341 0.6218
vn -0.4180 0.6448 0.6400
vn -0.3954 0.6499 0.6490
vn -0.0000 0.7072 0.7070
vn -0.3916 0.6507 0.6505
vn 0.0408 0.6989 0.7140
vn 0.1888 0.6562 0.7306
vn -0.3867 0.6517 0.6525
vn -0.3777 0.6535 0.6559
vn -0.2259 0.6746 0.7028
vn 0.1461 0.6618 0.7353
vn 0.1896 0.6548 0.7316
vn 0.1897 0.6548 0.7316
vn 0.1897 0.6549 0.7315
vn 0.1897 0.6553 0.7312
vn 0.1882 0.6579 0.7292
vn 0.1954 0.6644 0.7214
vn 0.1983 0.6597 0.7249
vn 0.2045 0.6577 0.7250
vn 0.6662 0.6669 0.3337
vn 0.8574 0.5147 -0.0000
vn 1.0000 -0.0000 -0.0000
vn 0.9535 -0.3013 -0.0000
vn -0.0000 -1.0000 -0.0000
vn 0.6432 -0.6732 0.3649
vn 0.5968 -0.7194 0.3553
vn 0.8043 -0.5224 0.2832
vn 0.6775 -0.2965 0.6732
vn 0.7093 -0.0060 0.7048
vn 0.3243 0.4864 0.8113
vn 0.7068 -0.0000 0.7074
vn 0.3052 0.5153 0.8008
vn 0.3238 0.4870 0.8112
vn 0.3013 0.5147 0.8027
vn 0.3117 0.4974 0.8096
vn 0.2979 0.5166 0.8027
vn 0.2981 0.5166 0.8027
vn 0.2963 0.5187 0.8019
vn 0.2969 0.5174 0.8025
vn 0.2975 0.5181 0.8019
vn 0.2972 0.5172 0.8026
vn 0.2969 0.5174 0.8026
vn 0.2915 0.5253 0.7995
vn 0.2758 0.5513 0.7874
vn 0.2771 0.5537 0.7853
vn 0.2947 0.5294 0.7955
vn 0.2983 0.5189 0.8011
vn 0.3563 0.5983 0.7177
vn 0.2987 0.5969 0.7446
vn 0.2104 0.6375 0.7411
vn 0.1929 0.6540 0.7315
vn 0.1935 0.6546 0.7308
vn 0.2037 0.6573 0.7256
vn 0.1928 0.6546 0.7310
vn 0.1917 0.6544 0.7314
vn 0.1919 0.6543 0.7315
vn 0.1901 0.6544 0.7318
vn 0.1898 0.6548 0.7316
vn 0.2270 0.6098 0.7594
vn 0.1624 0.6557 0.7374
vn 0.1067 0.6473 0.7547
vn 0.1896 0.6547 0.7317
vn 0.2656 0.5354 0.8017
vn 0.2663 0.5350 0.8018
vn 0.2675 0.5345 0.8017
vn 0.2676 0.5348 0.8015
vn 0.2303 0.6052 0.7620
vn 0.2690 0.5346 0.8012
vn 0.2807 0.5374 0.7952
vn 0.2702 0.5328 0.8020
vn 0.2738 0.5308 0.8021
vn 0.2692 0.5325 0.8025
vn 0.2750 0.5023 0.8198
vn 0.2917 0.5122 0.8079
vn 0.2744 0.5016 0.8204
vn 0.3289 0.4651 0.8219
vn 0.3138 0.4933 0.8113
vn 0.4272 0.2884 0.8569
vn 0.2407 0.4811 0.8430
vn -0.0000 -0.0000 1.0000
vn -0.0000 0.3714 0.9285
vn -0.4486 -0.0000 0.8937
vn -0.0000 0.5550 0.8318
vn -0.4454 0.5946 0.6693
vn -0.5517 -0.0900 0.8291
vn -0.4678 0.6246 0.6253
vn -0.4689 0.6242 0.6249
vn -0.4694 0.6236 0.6251
vn -0.4699 0.6230 0.6254
vn -0.4704 0.6223 0.6256
vn -0.5927 -0.1650 0.7883
vn -0.6776 0.2742 0.6825
vn -0.6397 -0.4190 0.6444
vn -0.5855 -0.7457 0.3180
vn -0.6581 -0.6758 0.3318
vn -0.7070 -0.7072 -0.0000
vn -1.0000 -0.0000 -0.0000
vn -0.5753 0.5773 0.5795
vn -0.5758 0.5778 0.5785
vn -0.5761 0.5781 0.5779
vn -0.4687 0.6247 0.6245
vn -0.4690 0.6242 0.6249
vn -0.4685 0.6248 0.6246
vn -0.4686 0.6245 0.6248
vn -0.4688 0.6243 0.6249
vn -0.4687 0.6244 0.6249
vn -0.4690 0.6241 0.6249
vn -0.4615 0.6334 0.6211
vn -0.4617 0.6334 0.6210
vn -0.4616 0.6330 0.6214
vn -0.4683 0.6248 0.6248
vn -0.4676 0.6256 0.6245
vn -0.4412 0.6369 0.6322
vn -0.4316 0.6385 0.6373
vn -0.4284 0.6390 0.6388
vn -0.4263 0.6393 0.6400
vn -0.4624 0.6342 0.6197
vn -0.4671 0.6280 0.6225
vn -0.4674 0.6274 0.6228
vn -0.4625 0.6343 0.6195
vn -0.4635 0.6353 0.6177
vn -0.4624 0.6344 0.6195
vn -0.4638 0.6357 0.6171
vn -0.5751 0.5806 0.5763
vn -0.5763 0.5783 0.5775
vn -0.4218 0.6399 0.6423
vn 0.2573 0.5388 0.8022
vn 0.2661 0.5350 0.8018
vn 0.1052 0.6474 0.7549
vn 0.2638 0.5363 0.8017
vn 0.1042 0.6475 0.7549
vn 0.2601 0.5379 0.8019
vn 0.1822 0.6634 0.7258
vn -0.4606 0.6338 0.6214
s 0
f 1//1 4//1 10//1 2//1
f 1//2 2//2 3//2
f 1//3 3//3 21//3 22//3 25//3 26//3 27//3 29//3 30//3 76//3 91//3 88//3 5//3 4//3
f 4//4 5//4 6//4
f 4//5 6//5 7//5
f 4//6 7//6 8//6
f 4//7 8//7 9//7
f 4//8 9//8 10//8
f 2//9 10//9 11//9
f 10//10 9//10 13//10 11//10
f 2//11 11//11 12//11
f 12//12 11//12 21//12
f 11//13 13//13 14//13
f 11//14 14//14 15//14
f 11//15 15//15 16//15
f 11//16 16//16 17//16
f 11//17 17//17 18//17
f 11//18 18//18 19//18
f 11//19 19//19 20//19
f 11//20 20//20 21//20
f 3//21 12//21 21//21
f 21//22 20//22 22//22
f 20//23 23//23 22//23
f 22//24 23//24 24//24
f 22//25 24//25 25//25
f 24//26 26//26 25//26
f 24//27 47//27 37//27 36//27 28//27 27//27 26//27
f 27//28 28//28 31//28 29//28
f 63//29 75//29 30//29 29//29 31//29 33//29 62//29 60//29 61//29
f 32//30 31//30 34//30
f 32//31 33//31 31//31
f 28//32 34//32 31//32
f 32//33 34//33 35//33
f 28//34 35//34 34//34
f 32//35 35//35 36//35
f 36//36 35//36 28//36
f 37//37 38//37 36//37
f 32//38 36//38 39//38
f 38//39 39//39 36//39
f 32//40 39//40 40//40
f 40//41 39//41 41//41
f 41//42 39//42 38//42
f 42//43 41//43 43//43
f 42//44 44//44 41//44
f 43//45 41//45 38//45
f 40//46 41//46 44//46
f 58//47 40//47 44//47 42//47
f 45//48 42//48 43//48
f 45//49 43//49 46//49
f 46//50 43//50 47//50 49//50
f 47//51 43//51 37//51
f 43//52 38//52 37//52
f 24//53 48//53 47//53
f 48//54 49//54 47//54
f 46//55 49//55 48//55
f 50//56 46//56 48//56
f 50//57 48//57 23//57
f 23//58 48//58 24//58
f 20//59 50//59 23//59
f 20//60 51//60 50//60
f 51//61 46//61 50//61
f 18//62 52//62 46//62 51//62
f 18//63 51//63 20//63
f 52//64 45//64 46//64
f 16//65 52//65 17//65
f 16//66 54//66 52//66
f 17//67 52//67 18//67
f 53//68 52//68 54//68
f 53//69 55//69 52//69
f 52//70 55//70 56//70
f 52//71 56//71 57//71
f 52//72 57//72 45//72
f 56//73 42//73 57//73
f 57//74 42//74 45//74
f 55//75 58//75 56//75
f 56//76 58//76 42//76
f 59//77 58//77 55//77
f 59//78 60//78 58//78
f 60//79 40//79 58//79
f 59//80 61//80 60//80
f 60//81 62//81 32//81
f 60//82 32//82 40//82
f 62//83 33//83 32//83
f 59//84 64//84 61//84
f 63//85 61//85 64//85
f 65//86 64//86 59//86
f 65//87 63//87 64//87
f 66//88 65//88 59//88
f 66//89 67//89 65//89
f 67//90 63//90 65//90
f 86//91 68//91 67//91 66//91
f 68//92 69//92 67//92
f 67//93 69//93 70//93
f 67//94 70//94 71//94
f 67//95 71//95 72//95
f 67//96 72//96 63//96
f 71//97 74//97 73//97 72//97
f 72//98 73//98 63//98
f 63//99 73//99 75//99
f 74//100 75//100 73//100
f 76//101 30//101 75//101 74//101
f 91//102 76//102 74//102 77//102 78//102
f 70//103 74//103 71//103
f 79//104 77//104 74//104 70//104
f 80//105 78//105 77//105 79//105
f 82//106 80//106 79//106 81//106
f 81//107 79//107 70//107 84//107
f 82//108 81//108 83//108
f 83//109 81//109 85//109
f 81//92 84//92 69//92
f 81//110 69//110 68//110
f 81//111 68//111 85//111
f 83//109 85//109 68//109
f 84//112 70//112 69//112
f 6//113 83//113 8//113
f 6//114 82//114 83//114
f 8//115 83//115 87//115
f 83//116 68//116 86//116
f 83//117 86//117 87//117
f 8//118 87//118 9//118
f 9//119 87//119 86//119
f 9//120 86//120 13//120
f 13//121 86//121 66//121 14//121
f 6//122 89//122 82//122
f 88//123 82//123 90//123
f 88//124 80//124 82//124
f 89//125 90//125 82//125
f 88//126 90//126 89//126
f 5//127 89//127 6//127
f 5//128 88//128 89//128
f 88//129 91//129 80//129
f 91//130 78//130 80//130
f 14//131 66//131 15//131
f 15//132 66//132 53//132
f 66//133 59//133 55//133 53//133
f 16//134 92//134 54//134
f 53//135 54//135 92//135
f 15//136 92//136 16//136
f 15//137 53//137 92//137
f 18//63 20//63 19//63
f 2//138 12//138 3//138
f 6//139 8//139 7//139
