# Blender 4.3.2
# www.blender.org
o base_link_collision
v -0.017875 -0.024872 0.045123
v -0.015875 -0.024872 0.046125
v -0.017875 -0.024872 0.062128
v -0.049872 -0.011869 0.008133
v -0.047872 -0.011869 0.009129
v -0.012872 -0.013870 0.037124
v -0.008872 -0.014868 0.041124
v -0.011875 -0.024872 0.049123
v -0.044869 -0.002868 0.002131
v -0.036869 -0.005867 0.011131
v -0.011875 -0.024872 0.062128
v -0.030868 -0.011869 0.062128
v -0.030868 -0.017866 0.056126
v -0.049872 -0.011869 0.012133
v -0.049872 -0.010872 0.007132
v -0.049872 -0.008871 0.005129
v -0.049872 -0.003872 0.000128
v -0.047872 -0.003872 0.001130
v -0.044869 -0.001871 0.001130
v -0.014872 0.012124 0.009129
v -0.003874 0.021124 0.008133
v -0.002872 0.008128 0.022134
v -0.004872 -0.007868 0.037124
v -0.007874 -0.018869 0.046125
v -0.010872 -0.024872 0.050124
v -0.033871 0.006127 0.001130
v -0.010872 -0.022871 0.061127
v -0.010872 -0.021868 0.062128
v -0.010872 -0.024872 0.058123
v -0.010872 -0.023868 0.060126
v -0.030868 0.012124 0.062128
v -0.049872 0.012124 0.012133
v -0.049872 0.012124 0.000128
v -0.047872 -0.002868 0.000128
v -0.044869 -0.000868 0.000128
v -0.033871 0.007124 0.000128
v -0.022873 0.015128 0.000128
v -0.007874 0.023125 0.003132
v -0.007874 0.024123 0.002131
v -0.003874 0.024123 0.005129
v -0.002872 0.010123 0.020132
v -0.001874 0.016125 0.015131
v -0.000872 0.024123 0.008133
v -0.004872 -0.007868 0.038126
v -0.006872 -0.015871 0.044128
v -0.009874 -0.023868 0.052127
v -0.009874 -0.023868 0.050124
v -0.009874 -0.018869 0.061127
v -0.004872 0.019124 0.062128
v -0.008872 -0.020870 0.050124
v -0.006872 -0.010872 0.053128
v -0.005874 -0.004869 0.056126
v -0.024873 0.018126 0.062128
v -0.030868 0.018126 0.056126
v -0.030868 0.031128 0.006131
v -0.030868 0.031128 0.000128
v -0.007874 0.026124 0.000128
v -0.003874 0.028124 0.001130
v -0.002872 0.030125 0.000128
v -0.002872 0.012124 0.018129
v -0.001874 0.017123 0.014129
v -0.002872 0.012124 0.028130
v -0.000872 0.026124 0.006131
v -0.000872 0.029128 0.014129
v -0.002872 0.028124 0.048127
v -0.002872 0.024123 0.043127
v -0.004872 -0.003872 0.043127
v -0.005874 -0.008871 0.049123
v -0.005874 -0.010872 0.045123
v -0.005874 -0.011869 0.043127
v -0.003874 0.026124 0.062128
v -0.004872 0.004126 0.053128
v -0.004872 0.007124 0.056126
v -0.017875 0.024123 0.062128
v -0.005874 0.031128 0.062128
v -0.001874 0.031128 0.000128
v -0.003874 0.029128 0.000128
v -0.000872 0.031128 0.001130
v -0.000872 0.030125 0.002131
v -0.000872 0.030125 0.015131
v -0.001874 0.031128 0.034126
v -0.002872 0.031128 0.051125
v -0.003874 0.024123 0.060126
v -0.003874 0.022128 0.058123
v -0.003874 0.031128 0.062128
v -0.000872 0.031128 0.016132
vn -0.0000 -1.0000 -0.0000
vn -0.3765 -0.9264 -0.0000
vn 0.2529 -0.8233 -0.5081
vn 0.2550 -0.8218 -0.5094
vn 0.4622 -0.6337 -0.6204
vn 0.4638 -0.6340 -0.6188
vn 0.4592 -0.6356 -0.6206
vn 0.4608 -0.6342 -0.6209
vn 0.4612 -0.6338 -0.6209
vn -0.0000 -0.0000 1.0000
vn -0.5778 -0.5774 0.5769
vn -0.5085 -0.8548 0.1031
vn -1.0000 -0.0000 -0.0000
vn 0.3314 -0.6684 -0.6659
vn 0.3326 -0.6672 -0.6665
vn 0.3333 -0.6668 -0.6666
vn 0.3337 -0.6666 -0.6665
vn 0.4263 -0.6397 -0.6396
vn 0.4319 -0.6390 -0.6366
vn 0.4615 -0.6334 -0.6211
vn 0.4620 -0.6332 -0.6209
vn 0.4622 -0.6332 -0.6209
vn 0.4626 -0.6332 -0.6206
vn 0.4964 -0.6268 -0.6006
vn 0.4928 -0.6288 -0.6015
vn 0.4939 -0.6267 -0.6028
vn 0.5453 -0.6361 -0.5459
vn 0.4580 -0.6298 -0.6274
vn 0.4615 -0.6334 -0.6212
vn 0.9042 -0.3017 0.3023
vn 0.8729 -0.4362 0.2185
vn 0.9044 -0.3023 0.3012
vn -0.9348 -0.0000 0.3553
vn -0.8807 -0.3351 0.3348
vn -0.0000 -0.0000 -1.0000
vn 0.3340 -0.6659 -0.6671
vn 0.4259 -0.6392 -0.6403
vn 0.4567 -0.6285 -0.6296
vn 0.4615 -0.6330 -0.6215
vn 0.4617 -0.6328 -0.6216
vn 0.4617 -0.6321 -0.6223
vn 0.4669 -0.6265 -0.6241
vn 0.4679 -0.6255 -0.6243
vn 0.5666 -0.5832 -0.5821
vn 0.5582 -0.5878 -0.5856
vn 0.5866 -0.5737 -0.5716
vn 0.6604 -0.5396 -0.5222
vn 0.9923 -0.1241 -0.0000
vn 0.9702 -0.2425 -0.0000
vn 0.8094 -0.4881 -0.3266
vn 0.9628 -0.2430 0.1184
vn 0.9285 -0.3715 -0.0000
vn 0.6273 -0.6239 -0.4661
vn 0.7090 -0.7052 -0.0000
vn 0.4582 -0.6297 -0.6273
vn 0.9430 -0.2351 0.2355
vn 0.9433 -0.2352 0.2343
vn 0.8662 -0.1268 0.4833
vn 0.9629 -0.2419 0.1197
vn 0.9630 -0.2412 0.1201
vn 0.9631 -0.2406 0.1205
vn 0.9651 -0.2262 0.1317
vn 0.9636 -0.2221 0.1489
vn 0.9652 -0.2287 0.1270
vn -0.5778 0.5771 0.5771
vn -0.8808 0.3348 0.3348
vn -0.7071 0.7071 -0.0000
vn -0.6642 0.7235 0.1882
vn 0.4604 -0.6280 -0.6274
vn 0.4607 -0.6287 -0.6264
vn 0.4681 -0.6252 -0.6246
vn 0.4687 -0.6244 -0.6248
vn 0.5759 -0.5779 -0.5782
vn 0.5769 -0.5776 -0.5776
vn 0.5718 -0.5804 -0.5798
vn 0.5799 -0.5764 -0.5758
vn 0.5871 -0.5735 -0.5714
vn 0.9958 -0.0712 0.0569
vn 0.5803 -0.5761 -0.5756
vn 1.0000 -0.0000 -0.0000
vn 0.9961 -0.0678 0.0566
vn 0.9958 -0.0711 0.0569
vn 0.9937 -0.0875 0.0699
vn 0.9877 -0.1359 0.0776
vn 0.9855 -0.1519 0.0760
vn 0.9855 -0.1520 0.0759
vn 0.9704 -0.2416 0.0012
vn 0.9707 -0.2151 0.1075
vn 0.9706 -0.2151 0.1076
vn 0.9654 -0.2279 0.1266
vn 0.9629 -0.2423 0.1191
vn 0.9168 -0.1307 0.3774
vn 0.9200 -0.1309 0.3694
vn 0.9659 -0.2247 0.1284
vn 0.9931 -0.0830 0.0830
vn 0.9918 -0.0829 0.0975
vn 0.9937 -0.0874 0.0699
vn -0.5456 0.6367 0.5450
vn -0.4915 0.8419 0.2228
vn -0.4912 0.8430 0.2192
vn -0.0000 1.0000 -0.0000
vn 0.4687 -0.6241 -0.6252
vn 0.5752 -0.5779 -0.5789
vn 0.5782 -0.5750 -0.5788
vn 0.5782 -0.5764 -0.5774
vn 0.5780 -0.5769 -0.5772
vn 0.5775 -0.5773 -0.5773
vn 0.5793 -0.5765 -0.5762
vn 0.9969 -0.0558 0.0556
vn 0.9962 -0.0669 0.0566
vn 0.9961 -0.0623 0.0624
vn 0.9961 -0.0625 0.0624
vn 0.9961 -0.0626 0.0624
vn 0.9958 -0.0711 0.0572
vn 0.9966 -0.0584 0.0585
vn 0.9942 -0.0763 0.0763
vn 0.9942 -0.0763 0.0762
vn 0.9959 -0.0000 0.0907
vn 0.9942 -0.0761 0.0759
vn 0.9969 -0.0554 0.0555
s 0
f 1//1 2//1 8//1 25//1 29//1 11//1 3//1
f 1//2 3//2 14//2 4//2
f 1//3 4//3 5//3
f 1//4 5//4 2//4
f 2//5 6//5 7//5
f 2//6 7//6 8//6
f 2//7 5//7 9//7
f 2//8 9//8 10//8
f 2//9 10//9 6//9
f 3//10 11//10 28//10 49//10 71//10 85//10 75//10 74//10 53//10 31//10 12//10
f 3//11 12//11 13//11
f 3//12 13//12 14//12
f 4//13 14//13 32//13 33//13 17//13 16//13 15//13
f 4//14 15//14 5//14
f 5//15 15//15 16//15
f 5//16 16//16 17//16
f 5//17 17//17 18//17
f 5//18 18//18 19//18
f 5//19 19//19 9//19
f 6//20 10//20 20//20
f 6//21 20//21 21//21
f 6//22 21//22 22//22
f 6//23 22//23 7//23
f 7//24 23//24 24//24
f 7//25 24//25 8//25
f 7//26 22//26 23//26
f 8//27 24//27 25//27
f 9//28 19//28 36//28 26//28
f 9//29 26//29 20//29 10//29
f 11//30 27//30 28//30
f 11//31 29//31 30//31
f 11//32 30//32 27//32
f 12//33 31//33 32//33 14//33
f 12//34 14//34 13//34
f 17//35 33//35 56//35 76//35 59//35 77//35 57//35 37//35 36//35 35//35 34//35
f 17//36 34//36 18//36
f 18//37 34//37 35//37 19//37
f 19//38 35//38 36//38
f 20//39 26//39 37//39
f 20//40 37//40 21//40
f 21//41 37//41 38//41
f 21//42 38//42 39//42
f 21//43 39//43 40//43
f 21//44 40//44 41//44
f 21//45 41//45 22//45
f 22//46 41//46 61//46 42//46
f 22//47 42//47 43//47
f 22//48 43//48 44//48 23//48
f 23//49 44//49 45//49
f 23//50 45//50 24//50
f 24//51 45//51 46//51
f 24//52 46//52 47//52
f 24//53 47//53 25//53
f 25//54 47//54 46//54 29//54
f 26//55 36//55 37//55
f 27//56 48//56 28//56
f 27//57 30//57 48//57
f 28//58 48//58 49//58
f 29//59 46//59 50//59
f 29//60 50//60 45//60
f 29//61 45//61 30//61
f 30//62 51//62 52//62
f 30//63 52//63 48//63
f 30//64 45//64 51//64
f 31//65 53//65 54//65
f 31//66 54//66 32//66
f 32//67 55//67 56//67 33//67
f 32//68 54//68 55//68
f 37//69 57//69 39//69
f 37//70 39//70 38//70
f 39//71 57//71 40//71
f 40//72 57//72 58//72
f 40//73 58//73 59//73
f 40//74 59//74 60//74
f 40//75 60//75 41//75
f 41//76 60//76 61//76
f 42//77 61//77 43//77
f 43//78 62//78 67//78 44//78
f 43//79 61//79 63//79
f 43//80 63//80 79//80 78//80 86//80 80//80 64//80
f 43//81 64//81 65//81
f 43//82 65//82 66//82
f 43//82 66//82 62//82
f 44//83 67//83 52//83
f 44//84 52//84 68//84
f 44//85 68//85 69//85
f 44//86 69//86 70//86
f 44//87 70//87 45//87
f 45//88 70//88 69//88
f 45//89 69//89 68//89
f 45//90 68//90 51//90
f 45//91 50//91 46//91
f 48//92 71//92 49//92
f 48//93 52//93 71//93
f 51//94 68//94 52//94
f 52//95 72//95 73//95
f 52//96 73//96 71//96
f 52//97 67//97 72//97
f 53//98 74//98 54//98
f 54//99 74//99 75//99
f 54//100 75//100 55//100
f 55//101 75//101 85//101 82//101 81//101 86//101 78//101 76//101 56//101
f 57//102 77//102 58//102
f 58//103 77//103 59//103
f 59//104 76//104 78//104
f 59//105 78//105 79//105
f 59//106 79//106 63//106
f 59//107 63//107 60//107
f 60//108 63//108 61//108
f 62//82 66//82 72//82
f 62//78 72//78 67//78
f 64//109 80//109 81//109
f 64//110 81//110 65//110
f 65//111 82//111 71//111
f 65//112 71//112 83//112
f 65//113 83//113 84//113
f 65//114 84//114 72//114
f 65//82 72//82 66//82
f 65//115 81//115 82//115
f 71//116 73//116 72//116
f 71//117 72//117 83//117
f 71//118 82//118 85//118
f 72//119 84//119 83//119
f 80//120 86//120 81//120
