# Blender 4.3.2
# www.blender.org
o base_link_collision.002
v 0.037128 0.012125 0.021133
v 0.036125 0.012125 0.023130
v 0.036125 0.011126 0.021133
v 0.037128 0.008132 0.013134
v 0.037128 0.012125 0.009129
v 0.031126 0.031128 0.006131
v 0.031126 0.018125 0.044128
v 0.018126 0.024125 0.062128
v 0.021128 0.018125 0.060126
v 0.029128 0.016127 0.043127
v 0.036125 0.010131 0.019130
v 0.021128 0.002132 0.026134
v 0.032125 0.007129 0.019130
v 0.028125 0.004131 0.019130
v 0.017127 -0.000870 0.026134
v 0.033128 0.006129 0.015131
v 0.006130 -0.005870 0.033125
v 0.004132 -0.006870 0.034126
v 0.022127 0.001129 0.022134
v 0.031126 0.005130 0.016132
v 0.037128 0.008132 0.012133
v 0.037128 0.011126 0.009129
v 0.036125 0.008132 0.012133
v 0.008132 -0.004871 0.031128
v 0.003129 -0.006870 0.034126
v -0.000871 -0.008868 0.037124
v -0.000871 -0.007869 0.036123
v -0.000871 -0.006870 0.035128
v 0.009131 -0.000870 0.027129
v -0.004872 -0.008868 0.038126
v -0.003868 -0.004871 0.034126
v -0.002869 0.007129 0.023130
v -0.000871 0.012125 0.018129
v 0.007129 0.013125 0.015131
v 0.011129 0.023126 0.005129
v 0.002130 0.029126 0.002131
v 0.020124 0.026128 0.000128
v 0.023126 0.024125 0.001130
v 0.027126 0.024125 0.000128
v 0.030127 0.022127 0.001130
v 0.031126 0.023126 0.000128
v 0.031126 0.031128 0.000128
v 0.003129 0.031128 0.000128
v 0.000132 0.031128 0.001130
v -0.001870 0.016127 0.016132
v -0.000871 0.024125 0.009129
v -0.000871 0.026128 0.011131
v -0.000871 0.028126 0.013134
v -0.000871 0.031128 0.017133
v 0.000132 0.024125 0.007132
v -0.000871 0.021127 0.010130
v -0.002869 0.031128 0.052127
v -0.001870 0.030125 0.033125
v -0.003868 0.025124 0.062128
v -0.004872 -0.004871 0.042125
v -0.004872 0.003132 0.052127
v -0.004872 0.006129 0.056126
v -0.004872 -0.002868 0.056126
v 0.013131 0.013125 0.062128
v -0.003868 0.019125 0.062128
v -0.003868 -0.002868 0.055125
v -0.004872 -0.004871 0.052127
v -0.004872 -0.009872 0.042125
v -0.003868 -0.004871 0.051125
v -0.003868 -0.005870 0.049123
v 0.015129 0.013125 0.059124
v 0.019125 0.016127 0.059124
v -0.002869 -0.008868 0.041124
v -0.004872 -0.009872 0.039127
v -0.003868 -0.009872 0.040123
v -0.003868 -0.009872 0.039127
v 0.017127 0.016127 0.062128
v 0.019125 0.018125 0.062128
v -0.004872 -0.006870 0.040123
v -0.003868 0.001129 0.032124
v -0.001870 0.017126 0.017133
v -0.003868 0.000130 0.031128
v -0.002869 0.031128 0.062128
v 0.006130 0.031128 0.062128
v 0.035126 0.007129 0.014129
vn 0.6887 -0.6371 0.3460
vn 0.6652 -0.6677 0.3342
vn 0.6654 -0.6679 0.3334
vn 1.0000 -0.0000 -0.0000
vn 0.9536 0.3012 -0.0000
vn 0.9094 0.3936 0.1347
vn 0.6279 -0.6960 0.3484
vn 0.6215 -0.7016 0.3487
vn 0.6627 0.7085 0.2425
vn 0.8232 0.2400 0.5145
vn 0.5667 -0.7439 0.3542
vn 0.5681 -0.7441 0.3516
vn 0.6589 -0.6736 0.3348
vn 0.5635 -0.7509 0.3445
vn 0.5630 -0.7482 0.3511
vn 0.5626 -0.7497 0.3486
vn 0.5631 -0.7513 0.3441
vn 0.5624 -0.7504 0.3473
vn 0.5351 -0.8010 0.2686
vn 0.5396 -0.7939 0.2804
vn 0.5350 -0.8011 0.2684
vn 0.5626 -0.7496 0.3487
vn 0.5356 -0.8001 0.2702
vn 0.5349 -0.8013 0.2682
vn 0.5329 -0.8043 0.2628
vn 0.2717 -0.9373 -0.2180
vn 0.4444 -0.8958 -0.0054
vn -0.0000 -0.7998 -0.6003
vn -0.1802 -0.6655 -0.7243
vn -0.1789 -0.6664 -0.7238
vn 0.0011 -0.8327 -0.5537
vn -0.0016 -0.8308 -0.5566
vn -0.1815 -0.6643 -0.7251
vn -0.1731 -0.6971 -0.6957
vn -0.0000 -0.8321 -0.5547
vn -0.1746 -0.6948 -0.6976
vn -0.1821 -0.6636 -0.7256
vn -0.1922 -0.6545 -0.7312
vn -0.1757 -0.6947 -0.6975
vn -0.2046 -0.6662 -0.7172
vn -0.1922 -0.6545 -0.7313
vn -0.3532 -0.6159 -0.7042
vn -0.1949 -0.6538 -0.7311
vn -0.1923 -0.6544 -0.7313
vn -0.1921 -0.6545 -0.7313
vn -0.1895 -0.6545 -0.7319
vn -0.1897 -0.6549 -0.7315
vn -0.1925 -0.6542 -0.7314
vn -0.1903 -0.6521 -0.7338
vn -0.1863 -0.6526 -0.7344
vn -0.1851 -0.6472 -0.7395
vn -0.1850 -0.6479 -0.7389
vn -0.1280 -0.6353 -0.7616
vn -0.1544 -0.6181 -0.7708
vn 0.8320 -0.0000 -0.5548
vn -0.0000 -0.0000 -1.0000
vn -0.0000 1.0000 -0.0000
vn -0.2486 -0.6201 -0.7441
vn -0.1899 -0.6453 -0.7400
vn -0.2622 -0.6280 -0.7327
vn -0.4617 -0.5673 -0.6819
vn -0.9944 0.0324 -0.1003
vn -0.9956 0.0644 -0.0685
vn -0.9956 0.0666 -0.0666
vn -0.9956 0.0667 -0.0665
vn -0.9946 0.0831 -0.0623
vn -0.3086 -0.6190 -0.7222
vn -0.2696 -0.6344 -0.7245
vn -0.1935 -0.6540 -0.7313
vn -0.1952 -0.6537 -0.7311
vn -0.9947 0.0852 -0.0568
vn -0.9954 0.0765 -0.0574
vn -0.9959 0.0711 -0.0564
vn -0.9958 0.0721 -0.0562
vn -0.9959 0.0708 -0.0568
vn -0.9959 0.0708 -0.0567
vn -0.9963 0.0689 -0.0517
vn -1.0000 -0.0000 -0.0000
vn -0.9863 -0.0000 0.1648
vn 0.4846 -0.7277 0.4854
vn -0.0912 -0.2583 0.9617
vn 0.4081 -0.8163 0.4088
vn 0.4076 -0.8167 0.4084
vn 0.5498 -0.7474 0.3729
vn 0.5489 -0.7474 0.3742
vn 0.4139 -0.8145 0.4064
vn 0.5627 -0.7482 0.3517
vn 0.5627 -0.7481 0.3518
vn 0.5616 -0.7493 0.3510
vn 0.5534 -0.7472 0.3680
vn 0.5619 -0.7480 0.3532
vn 0.5541 -0.7544 0.3520
vn 0.5499 -0.7667 0.3314
vn 0.5661 -0.7445 0.3540
vn 0.5586 -0.7437 0.3673
vn 0.5574 -0.7429 0.3707
vn 0.5494 -0.7674 0.3304
vn 0.4986 -0.8300 0.2498
vn -0.0000 -1.0000 -0.0000
vn 0.4398 -0.8866 0.1430
vn 0.3175 -0.9483 -0.0000
vn -0.0000 -0.8941 -0.4479
vn -0.1734 -0.6971 -0.6957
vn -0.1751 -0.6955 -0.6969
vn -0.0000 -0.0000 1.0000
vn 0.5573 -0.7419 0.3728
vn 0.5775 -0.5773 0.5773
vn 0.7024 0.1169 0.7022
vn -0.9961 0.0625 -0.0624
vn -0.9959 0.0697 -0.0581
vn -0.9961 0.0624 -0.0626
vn -0.9961 0.0624 -0.0625
vn -0.9959 0.0689 -0.0592
vn -0.9959 0.0643 -0.0641
vn -0.9959 0.0641 -0.0643
vn -0.9954 0.0460 -0.0836
vn -0.9956 0.0663 -0.0662
vn -0.9864 0.1641 -0.0000
vn 0.4919 0.8425 0.2196
vn -0.9956 0.0663 -0.0663
vn -0.9952 0.0421 -0.0880
vn -0.0000 -0.7083 -0.7059
vn 0.4480 -0.8940 -0.0000
vn 0.4466 -0.8947 -0.0018
vn 0.5168 -0.8323 0.2007
vn 0.5629 -0.7482 0.3511
s 0
f 1//1 7//1 2//1
f 1//2 2//2 3//2
f 1//3 3//3 4//3
f 1//4 4//4 21//4 22//4 5//4
f 1//5 5//5 42//5 6//5
f 1//6 6//6 7//6
f 2//7 7//7 3//7
f 3//8 7//8 11//8
f 6//9 8//9 7//9
f 7//10 8//10 9//10
f 7//11 9//11 10//11
f 7//12 10//12 11//12
f 3//13 11//13 4//13
f 4//14 11//14 13//14
f 11//15 10//15 12//15
f 11//16 12//16 15//16 13//16
f 4//17 13//17 14//17
f 13//18 15//18 14//18
f 4//19 15//19 16//19
f 4//20 14//20 15//20
f 16//21 15//21 19//21
f 15//22 12//22 17//22
f 15//23 17//23 18//23
f 15//24 18//24 19//24
f 16//25 19//25 20//25
f 19//26 18//26 20//26
f 16//27 20//27 21//27
f 21//28 20//28 23//28
f 22//29 20//29 25//29
f 22//30 23//30 20//30
f 20//31 18//31 24//31
f 20//32 24//32 25//32
f 22//33 25//33 28//33
f 25//34 26//34 27//34
f 18//35 26//35 25//35 24//35
f 25//36 27//36 28//36
f 22//37 28//37 29//37
f 29//38 28//38 31//38
f 28//39 27//39 30//39
f 28//40 30//40 31//40
f 29//41 31//41 34//41
f 31//42 30//42 32//42
f 31//43 32//43 33//43
f 31//44 33//44 34//44
f 29//45 34//45 35//45
f 35//44 34//44 33//44
f 22//46 35//46 38//46
f 22//47 29//47 35//47
f 35//48 33//48 36//48
f 35//49 36//49 37//49
f 35//49 37//49 38//49
f 22//50 38//50 40//50
f 38//51 37//51 39//51
f 38//52 39//52 40//52
f 22//53 40//53 41//53
f 40//54 39//54 41//54
f 5//55 22//55 41//55 42//55
f 42//56 41//56 39//56 37//56 43//56
f 6//57 42//57 43//57 44//57 49//57 52//57 78//57 79//57
f 43//58 36//58 44//58
f 43//59 37//59 36//59
f 36//60 50//60 44//60
f 44//61 51//61 32//61
f 44//62 32//62 45//62
f 44//63 45//63 46//63
f 44//64 46//64 47//64
f 44//65 47//65 48//65
f 44//66 48//66 49//66
f 44//67 50//67 51//67
f 32//68 51//68 50//68
f 33//69 50//69 36//69
f 33//70 32//70 50//70
f 52//71 49//71 53//71
f 48//72 53//72 49//72
f 54//73 53//73 56//73
f 54//74 52//74 53//74
f 48//75 55//75 53//75
f 53//76 55//76 56//76
f 54//77 56//77 57//77
f 63//78 62//78 58//78 57//78 56//78 55//78 74//78 30//78 69//78
f 54//79 57//79 58//79 60//79
f 59//80 58//80 61//80
f 59//81 60//81 58//81
f 58//82 62//82 64//82 61//82
f 63//83 64//83 62//83
f 59//84 64//84 65//84
f 59//85 61//85 64//85
f 65//86 64//86 63//86
f 10//87 65//87 17//87
f 10//88 67//88 65//88
f 17//89 65//89 68//89
f 59//90 65//90 66//90
f 66//91 65//91 67//91
f 65//92 63//92 68//92
f 17//93 68//93 63//93
f 9//94 67//94 10//94
f 9//95 66//95 67//95
f 9//96 59//96 66//96
f 17//97 63//97 18//97
f 18//98 63//98 70//98
f 63//99 69//99 71//99 70//99
f 18//100 70//100 26//100
f 70//101 71//101 26//101
f 26//102 71//102 69//102
f 26//103 69//103 27//103
f 27//104 69//104 30//104
f 79//105 78//105 54//105 60//105 59//105 72//105 73//105 8//105
f 9//106 72//106 59//106
f 9//107 73//107 72//107
f 8//108 73//108 9//108
f 74//109 55//109 75//109
f 75//110 55//110 48//110
f 30//111 75//111 77//111
f 30//112 74//112 75//112
f 75//113 48//113 76//113
f 75//114 76//114 45//114
f 75//115 45//115 77//115
f 30//116 77//116 45//116
f 45//117 76//117 48//117 47//117
f 78//118 52//118 54//118
f 6//119 79//119 8//119
f 45//120 47//120 46//120
f 30//121 45//121 32//121
f 21//122 23//122 22//122
f 4//123 80//123 21//123
f 16//124 21//124 80//124
f 4//125 16//125 80//125
f 10//126 17//126 12//126
