# Blender 4.3.2
# www.blender.org
o gripper_left_collision
v 0.000469 -0.014529 -0.029531
v 0.000469 -0.014529 0.029469
v 0.000469 0.009468 -0.029531
v 0.009475 -0.014529 -0.029531
v 0.015472 -0.019530 -0.024530
v 0.000469 0.009468 0.029469
v 0.015472 -0.019530 0.014465
v 0.049466 -0.024531 0.009464
v 0.004469 -0.014529 0.029469
v 0.000469 0.014469 -0.024530
v 0.004469 0.009468 -0.029531
v 0.009475 -0.000534 -0.029531
v 0.024471 -0.019530 -0.024530
v 0.049466 -0.024531 -0.009525
v 0.000469 0.014469 0.024468
v 0.004469 0.009468 0.029469
v 0.058465 -0.024531 0.009464
v 0.004469 0.014469 -0.024530
v 0.063464 -0.015529 -0.009525
v 0.024471 -0.005527 -0.024530
v 0.063464 -0.024531 -0.009525
v 0.004469 0.014469 0.024468
v 0.058465 -0.015529 0.009464
v 0.068469 -0.024531 0.004468
v 0.063464 -0.015529 0.004468
v 0.068469 -0.020530 -0.004530
v 0.068469 -0.024531 -0.004530
v 0.068469 -0.020530 0.004468
vn -1.0000 -0.0000 -0.0000
vn -0.0000 -0.0000 -1.0000
vn -0.0000 -0.7071 -0.7071
vn -0.3162 -0.9487 -0.0000
vn -0.1116 -0.9709 0.2120
vn -0.0000 -0.8944 0.4472
vn -0.0000 -0.0000 1.0000
vn -0.0000 0.7071 -0.7071
vn 0.3164 -0.0000 -0.9486
vn -0.0000 -0.9487 -0.3162
vn -0.1455 -0.9894 -0.0000
vn -0.0000 0.7071 0.7071
vn -0.0000 -1.0000 -0.0000
vn 0.3474 -0.0000 0.9377
vn -0.0000 1.0000 -0.0000
vn 0.4747 0.6224 -0.6223
vn 0.4018 0.2414 -0.8833
vn 0.3653 0.1828 -0.9128
vn 0.3591 -0.0000 -0.9333
vn 0.5077 0.6092 0.6092
vn 0.4467 -0.0000 0.8947
vn 0.4533 0.8914 -0.0000
vn 0.7068 0.7074 -0.0000
vn 0.7064 -0.0000 -0.7078
vn 0.5206 0.6765 0.5209
vn 0.5771 0.5776 0.5774
vn 1.0000 -0.0000 -0.0000
s 0
f 1//1 2//1 6//1 15//1 10//1 3//1
f 1//2 3//2 11//2 12//2 4//2
f 1//3 4//3 13//3 5//3
f 1//4 5//4 7//4 2//4
f 2//5 7//5 8//5
f 2//6 8//6 17//6 9//6
f 2//7 9//7 16//7 6//7
f 3//8 10//8 18//8 11//8
f 4//9 12//9 20//9 13//9
f 5//10 13//10 21//10 14//10
f 5//11 14//11 8//11 7//11
f 6//12 16//12 22//12 15//12
f 8//13 14//13 21//13 27//13 24//13 17//13
f 9//14 17//14 23//14 16//14
f 10//15 15//15 22//15 18//15
f 11//16 18//16 19//16
f 11//17 19//17 20//17
f 11//18 20//18 12//18
f 13//19 20//19 19//19 21//19
f 16//20 23//20 22//20
f 17//21 24//21 28//21 23//21
f 18//22 22//22 25//22 19//22
f 19//23 25//23 28//23 26//23
f 19//24 26//24 27//24 21//24
f 22//25 23//25 25//25
f 23//26 28//26 25//26
f 24//27 27//27 26//27 28//27
