# Blender 4.3.2
# www.blender.org
o link_3_collision.001
v -0.007197 -0.038797 -0.014201
v -0.014201 -0.038797 -0.007197
v -0.007197 -0.044799 -0.014201
v 0.006805 -0.038797 -0.014201
v 0.045794 -0.022799 0.022794
v 0.047795 -0.022799 0.022794
v 0.022794 -0.022799 0.045794
v 0.022794 -0.022799 0.052799
v -0.014201 -0.038797 0.006805
v 0.023798 -0.022799 0.052799
v 0.022794 -0.029800 0.052799
v -0.014201 -0.044799 0.006805
v 0.029798 -0.029800 0.052799
v 0.022794 -0.037798 0.044797
v 0.015803 -0.044799 0.037793
v 0.007802 -0.044799 0.029798
v -0.007197 -0.044799 0.014800
v 0.037793 -0.044799 0.037793
v 0.044797 -0.037798 0.037793
v 0.037793 -0.044799 0.015803
v 0.037793 -0.037798 0.044797
v 0.044797 -0.037798 0.015803
v 0.029798 -0.044799 0.007802
v 0.014800 -0.044799 -0.007197
v 0.006805 -0.044799 -0.014201
v 0.044797 -0.030799 0.015803
v 0.052799 -0.029800 0.022794
v 0.052799 -0.027799 0.022794
v 0.052799 -0.029800 0.024794
v 0.052799 -0.028800 0.023798
v 0.050798 -0.029800 0.027798
v 0.044797 -0.032799 0.037793
v 0.037793 -0.030799 0.044797
v 0.038796 -0.029800 0.042797
v 0.029798 -0.028800 0.052799
v 0.027798 -0.024799 0.050798
v 0.050798 -0.028800 0.026795
v 0.030795 -0.022799 0.044797
v 0.025798 -0.022799 0.050798
v 0.047795 -0.023800 0.024794
v 0.046798 -0.022799 0.024794
v 0.048798 -0.023800 0.022794
v -0.014201 -0.044799 -0.007197
vn -0.1724 0.9698 -0.1724
vn -0.7071 -0.0000 -0.7071
vn -0.0000 -0.0000 -1.0000
vn -0.0000 0.9179 -0.3969
vn -0.0000 1.0000 -0.0000
vn -0.3969 0.9179 -0.0000
vn -0.7792 -0.0000 0.6268
vn -0.0000 -0.0000 1.0000
vn -0.7421 -0.1633 0.6501
vn -0.0000 -0.7072 0.7070
vn -0.0001 -0.7072 0.7070
vn -0.6611 -0.3538 0.6616
vn -0.6615 -0.3532 0.6615
vn -0.0000 -1.0000 -0.0000
vn -0.0000 -0.7073 0.7069
vn 0.5773 -0.5775 0.5773
vn 0.7069 -0.7073 -0.0000
vn 0.7071 -0.0006 0.7071
vn 0.5774 -0.5777 -0.5769
vn 0.5774 -0.5772 -0.5774
vn 0.6215 -0.3325 -0.7094
vn 0.6198 -0.0000 -0.7848
vn 0.6580 -0.0000 -0.7530
vn 0.7070 -0.7072 -0.0000
vn 1.0000 -0.0000 -0.0000
vn 0.7284 0.4839 0.4851
vn 0.8189 0.1788 0.5453
vn 0.8516 -0.0000 0.5242
vn 0.6928 0.4612 0.5544
vn 0.7073 -0.0000 0.7070
vn 0.7093 0.0162 0.7047
vn 0.6945 0.4408 0.5686
vn 0.5774 0.5773 0.5774
vn 0.6359 0.5752 0.5146
vn 0.6843 0.4544 0.5703
vn 0.6337 0.5813 0.5103
vn 0.6355 0.5774 0.5126
vn 0.6093 0.6093 0.5075
vn 0.6329 0.5837 0.5087
vn 0.6165 0.6137 0.4932
vn 0.6667 0.6669 0.3328
vn 0.6663 0.6633 0.3407
vn 0.6663 0.6677 0.3321
vn 0.4778 0.4788 -0.7365
vn 0.4781 0.4783 -0.7366
vn 0.6574 0.5849 0.4751
vn 0.7263 0.4871 0.4851
vn 0.6614 0.5315 0.5292
vn 0.7271 0.4859 0.4849
vn 0.5192 0.3890 -0.7610
vn -1.0000 -0.0000 -0.0000
s 0
f 1//1 2//1 7//1 5//1
f 1//2 3//2 43//2 2//2
f 1//3 4//3 25//3 3//3
f 1//4 5//4 6//4 4//4
f 5//5 7//5 8//5 10//5 39//5 38//5 41//5 6//5
f 2//6 9//6 8//6 7//6
f 9//7 12//7 11//7 8//7
f 8//8 11//8 13//8 35//8 10//8
f 12//9 17//9 11//9
f 11//10 14//10 21//10 13//10
f 11//11 15//11 14//11
f 11//12 16//12 15//12
f 11//13 17//13 16//13
f 3//14 25//14 24//14 23//14 20//14 18//14 15//14 16//14 17//14 12//14 43//14
f 14//15 15//15 18//15 21//15
f 19//16 21//16 18//16
f 22//17 19//17 18//17 20//17
f 19//18 13//18 21//18
f 22//19 20//19 23//19
f 24//20 22//20 23//20
f 25//21 22//21 24//21
f 4//22 26//22 22//22 25//22
f 26//23 28//23 27//23 22//23
f 22//24 27//24 29//24 19//24
f 28//25 30//25 29//25 27//25
f 30//26 31//26 29//26
f 31//27 32//27 29//27
f 19//28 29//28 32//28
f 31//29 34//29 32//29
f 19//30 32//30 35//30 13//30
f 32//31 33//31 35//31
f 32//32 34//32 33//32
f 10//33 35//33 36//33 39//33
f 34//34 36//34 35//34
f 34//35 35//35 33//35
f 37//36 38//36 36//36
f 37//37 36//37 34//37
f 36//38 38//38 39//38
f 37//39 40//39 38//39
f 40//40 41//40 38//40
f 28//41 42//41 41//41
f 28//42 41//42 40//42
f 42//43 6//43 41//43
f 4//44 6//44 42//44
f 4//45 42//45 28//45
f 28//46 40//46 37//46
f 28//47 37//47 31//47
f 31//48 37//48 34//48
f 28//49 31//49 30//49
f 4//50 28//50 26//50
f 2//51 43//51 12//51 9//51
