# Blender 4.3.2
# www.blender.org
o link_1_collision.001
v -0.030874 0.020113 0.019119
v -0.030874 0.021118 0.022119
v -0.030874 0.042118 0.019119
v -0.024878 0.038116 0.000120
v -0.024878 0.009119 0.007120
v -0.017875 -0.000879 0.000120
v -0.017875 0.000126 0.003120
v -0.023877 0.009119 0.010120
v -0.027876 0.017115 0.020118
v -0.025880 0.016119 0.023119
v -0.019878 0.004111 0.008122
v -0.021880 0.008114 0.013121
v -0.021880 0.011111 0.021117
v -0.019878 0.010115 0.024118
v -0.017875 0.006112 0.019119
v 0.020117 -0.040879 0.001122
v 0.020117 -0.037873 0.009121
v 0.023115 -0.039874 0.012122
v 0.024116 -0.037873 0.020118
v 0.025117 -0.038878 0.020118
v -0.015878 0.006112 0.024118
v -0.012880 0.003115 0.024118
v 0.025117 -0.037873 0.021117
v 0.024116 -0.040879 0.012122
v 0.026119 -0.039874 0.020118
v 0.023115 -0.042880 0.004122
v 0.028115 -0.039874 0.020118
v 0.027114 -0.040879 0.019119
v 0.024116 -0.042880 0.006121
v 0.030118 -0.040879 0.019119
v 0.031113 -0.038878 0.020118
v 0.024116 -0.042880 0.000120
v 0.031113 -0.039874 0.019119
v 0.031113 -0.037873 0.019119
v 0.031113 -0.037873 0.020118
v 0.024116 0.018112 0.007120
v 0.024116 -0.037873 0.000120
v 0.018114 0.018112 0.000120
v 0.006116 0.038116 0.000120
v 0.018114 0.026117 0.007120
v 0.017119 0.027113 0.007120
v 0.001115 0.041113 0.000120
v 0.005114 0.038116 0.001122
v 0.013119 0.027113 0.010120
v -0.005877 0.040117 0.006121
v -0.000876 0.042118 0.000120
v 0.014114 0.028118 0.008122
v 0.017119 0.024115 0.011122
v 0.018114 0.025112 0.009121
v 0.024116 0.018112 0.012121
v -0.024878 0.032112 0.029120
v 0.017119 0.023119 0.012121
v -0.030874 0.022114 0.024118
v 0.010115 0.027113 0.012121
v -0.015878 0.032112 0.023119
v -0.025880 0.038116 0.022119
v -0.028878 0.038116 0.024118
v -0.030874 0.039112 0.024118
v 0.028115 -0.037873 0.021117
v -0.030874 0.042118 0.020118
v -0.026875 0.040117 0.020118
v -0.008875 0.040117 0.008122
v -0.018876 0.042118 0.012121
v -0.004875 0.044120 0.000120
v -0.023877 0.043115 0.014120
v -0.024878 0.043115 0.014120
v -0.024878 0.043115 0.000120
v -0.005877 0.044120 0.000120
v -0.012880 0.032112 0.021117
v 0.000120 0.033117 0.011122
v 0.022119 -0.042880 0.000120
v 0.018114 -0.038878 0.000120
v 0.022119 -0.042880 0.001122
v 0.017119 -0.037873 0.000120
v -0.002879 -0.016872 0.000120
v -0.012880 -0.005878 0.001122
vn -0.7409 -0.6369 0.2133
vn -1.0000 -0.0000 -0.0000
vn -0.9536 -0.0000 -0.3010
vn -0.9217 -0.0910 -0.3771
vn -0.7165 -0.6557 0.2382
vn -0.7941 -0.1426 -0.5908
vn -0.7196 -0.6585 0.2205
vn -0.7123 -0.6604 0.2377
vn -0.7156 -0.6565 0.2388
vn -0.7092 -0.6579 0.2534
vn -0.7056 -0.6632 0.2493
vn -0.7064 -0.6631 0.2478
vn -0.7061 -0.6632 0.2482
vn -0.7057 -0.6634 0.2487
vn -0.7052 -0.6633 0.2504
vn -0.7045 -0.6643 0.2496
vn -0.7054 -0.6637 0.2488
vn -0.7047 -0.6643 0.2492
vn -0.7038 -0.6648 0.2503
vn -0.7042 -0.6648 0.2492
vn -0.7040 -0.6648 0.2498
vn -0.7020 -0.6648 0.2553
vn -0.6988 -0.6696 0.2516
vn -0.7001 -0.6671 0.2546
vn -0.5864 -0.5844 0.5609
vn -0.6847 -0.6823 0.2565
vn -0.5794 -0.5790 0.5736
vn -0.5773 -0.5774 0.5774
vn -0.5760 -0.5764 0.5797
vn -0.5743 -0.5772 0.5805
vn -0.6817 -0.6851 0.2568
vn -0.0000 -0.4467 0.8947
vn -0.6813 -0.6855 0.2568
vn -0.5499 -0.7961 0.2529
vn -0.0000 -0.7051 0.7091
vn -0.4802 -0.8435 0.2406
vn -0.0000 -0.9884 0.1522
vn 0.1682 -0.5060 0.8460
vn 0.5816 -0.5760 0.5744
vn 0.3163 -0.9487 -0.0000
vn 0.7026 -0.6959 -0.1487
vn 1.0000 -0.0000 -0.0000
vn 0.9384 -0.0000 -0.3456
vn 0.9923 0.1240 -0.0000
vn 0.9375 0.0432 -0.3453
vn 0.7566 0.0811 -0.6488
vn -0.0000 -0.0000 -1.0000
vn 0.6909 0.4144 -0.5924
vn 0.7568 0.5674 -0.3245
vn 0.7075 0.7067 -0.0012
vn 0.4625 0.7566 0.4622
vn 0.4573 0.7629 0.4570
vn 0.4349 0.7479 0.5015
vn 0.3814 0.7311 0.5657
vn 0.3867 0.7321 0.5607
vn 0.3738 0.7405 0.5585
vn 0.4219 0.7425 0.5203
vn 0.4007 0.7228 0.5630
vn 0.4034 0.7231 0.5607
vn 0.4225 0.7373 0.5272
vn 0.4860 0.6615 0.5711
vn 0.6122 0.6902 0.3858
vn 0.3672 0.1763 0.9133
vn 0.4099 0.5729 0.7098
vn 0.8001 0.5999 -0.0000
vn 0.6809 0.6802 0.2715
vn 0.4520 0.6316 0.6299
vn 0.4008 0.6488 0.6469
vn -0.3012 -0.2760 0.9128
vn -0.6406 -0.0000 0.7679
vn 0.3875 0.7089 0.5893
vn 0.3821 0.7245 0.5736
vn 0.3817 0.7256 0.5725
vn 0.3802 0.7282 0.5702
vn 0.3801 0.7283 0.5702
vn 0.3629 0.7272 0.5827
vn -0.2719 -0.2717 0.9232
vn -0.2716 -0.2716 0.9233
vn -0.1843 -0.2406 0.9529
vn -0.0000 -0.1136 0.9935
vn 0.3135 0.1298 0.9407
vn 0.1468 -0.4419 0.8850
vn 0.3162 -0.0000 0.9487
vn 0.3705 0.7425 0.5581
vn -0.1639 0.9865 -0.0000
vn 0.3715 0.7424 0.5575
vn 0.3715 0.7425 0.5574
vn 0.3711 0.7431 0.5569
vn 0.3691 0.7459 0.5545
vn -0.0000 0.9865 0.1639
vn -0.0528 0.9986 -0.0000
vn -0.0000 0.9974 0.0716
vn 0.3714 0.7427 0.5571
vn 0.3716 0.7426 0.5572
vn 0.3735 0.7399 0.5595
vn 0.3722 0.7420 0.5576
vn 0.3718 0.7420 0.5578
vn 0.3804 0.7285 0.5698
vn 0.3803 0.7308 0.5669
vn 0.3807 0.7294 0.5684
vn 0.3812 0.7310 0.5660
vn 0.3814 0.7267 0.5714
vn 0.3885 0.7134 0.5832
vn -0.7017 -0.6376 0.3179
vn -0.6917 -0.6339 0.3460
vn -0.0000 -1.0000 -0.0000
vn -0.7068 -0.7074 -0.0000
vn -0.6882 -0.6887 0.2283
vn -0.7104 -0.7036 0.0146
vn -0.7207 -0.6863 0.0975
vn -0.7119 -0.6675 0.2184
vn -0.7053 -0.6654 0.2444
vn -0.7097 -0.6664 0.2284
vn -0.7116 -0.6662 0.2231
vn -0.6847 -0.6823 0.2564
vn -0.7046 -0.6649 0.2477
vn -0.7076 -0.6629 0.2449
s 0
f 1//1 5//1 2//1
f 1//2 2//2 53//2 58//2 60//2 3//2
f 1//3 3//3 67//3 4//3
f 1//4 4//4 5//4
f 2//5 5//5 9//5
f 4//6 6//6 5//6
f 5//7 6//7 7//7
f 5//8 7//8 8//8
f 5//9 8//9 9//9
f 2//10 9//10 10//10
f 9//11 13//11 10//11
f 9//12 8//12 11//12
f 9//13 11//13 12//13
f 9//14 12//14 13//14
f 10//15 13//15 14//15
f 14//16 13//16 15//16
f 11//17 13//17 12//17
f 11//18 15//18 13//18
f 14//19 15//19 17//19
f 11//20 16//20 15//20
f 16//21 17//21 15//21
f 14//22 17//22 19//22
f 16//23 26//23 18//23 17//23
f 17//24 18//24 19//24
f 14//25 19//25 20//25
f 19//26 18//26 24//26 20//26
f 14//27 20//27 21//27
f 21//28 20//28 22//28
f 22//29 20//29 23//29
f 23//30 20//30 25//30
f 20//31 24//31 25//31
f 23//32 25//32 27//32 59//32
f 26//33 25//33 24//33
f 26//34 28//34 25//34
f 25//35 28//35 30//35 27//35
f 26//36 29//36 28//36
f 29//37 30//37 28//37
f 27//38 30//38 31//38
f 31//39 30//39 33//39
f 29//40 32//40 30//40
f 30//41 32//41 33//41
f 35//42 31//42 33//42 34//42
f 34//43 33//43 32//43 37//43
f 50//44 35//44 34//44 36//44
f 36//45 34//45 37//45
f 36//46 37//46 38//46
f 4//47 67//47 68//47 64//47 46//47 42//47 39//47 38//47 37//47 32//47 71//47 72//47 74//47 75//47 6//47
f 36//48 38//48 39//48
f 36//49 39//49 40//49
f 40//50 39//50 41//50
f 41//51 39//51 43//51
f 42//52 43//52 39//52
f 41//53 43//53 42//53
f 44//54 42//54 45//54
f 44//55 47//55 42//55
f 45//56 42//56 46//56
f 41//57 42//57 47//57
f 48//58 47//58 44//58
f 48//59 49//59 47//59
f 41//60 47//60 49//60
f 50//61 49//61 48//61
f 50//62 41//62 49//62
f 51//63 35//63 50//63
f 51//64 50//64 52//64
f 50//65 36//65 40//65
f 50//66 40//66 41//66
f 50//67 48//67 52//67
f 51//68 52//68 48//68
f 53//69 14//69 51//69
f 53//70 51//70 58//70
f 51//71 48//71 54//71
f 51//72 54//72 44//72
f 51//73 44//73 55//73
f 51//74 55//74 56//74
f 51//75 56//75 57//75
f 51//76 57//76 58//76
f 51//77 14//77 21//77
f 51//78 21//78 22//78
f 51//79 22//79 23//79
f 51//80 23//80 59//80
f 51//81 59//81 35//81
f 59//82 27//82 31//82
f 59//83 31//83 35//83
f 60//84 58//84 57//84
f 3//85 60//85 66//85 67//85
f 60//86 57//86 61//86
f 60//86 61//86 62//86
f 60//87 62//87 63//87
f 60//88 63//88 64//88
f 60//89 64//89 65//89
f 60//90 65//90 66//90
f 67//91 66//91 68//91
f 64//92 68//92 66//92 65//92
f 62//93 64//93 63//93
f 62//94 46//94 64//94
f 61//86 57//86 62//86
f 62//95 56//95 45//95
f 62//96 45//96 46//96
f 62//97 57//97 56//97
f 55//98 69//98 56//98
f 56//99 70//99 45//99
f 44//100 70//100 56//100 69//100
f 44//101 45//101 70//101
f 44//102 69//102 55//102
f 48//103 44//103 54//103
f 2//104 10//104 53//104
f 53//105 10//105 14//105
f 73//106 71//106 32//106 29//106 26//106
f 16//107 72//107 71//107 73//107
f 16//108 73//108 26//108
f 16//109 74//109 72//109
f 75//110 74//110 16//110
f 6//111 75//111 76//111
f 7//112 75//112 16//112
f 7//113 76//113 75//113
f 6//114 76//114 7//114
f 26//115 24//115 18//115
f 7//116 16//116 11//116
f 7//117 11//117 8//117
