# Blender 4.3.2
# www.blender.org
o link_1_collision
v -0.030880 -0.042880 0.019120
v -0.024879 -0.042880 0.000120
v -0.030880 -0.042880 0.024119
v -0.030880 0.019115 0.019120
v 0.021119 -0.042880 0.000120
v -0.024879 -0.037875 0.000120
v -0.024879 -0.042880 0.031119
v -0.030880 0.021120 0.024119
v -0.030880 0.020117 0.020116
v -0.024879 0.008114 0.007120
v 0.019114 -0.039880 0.001120
v 0.022118 -0.042880 0.002121
v -0.003879 -0.015880 0.000120
v -0.017879 -0.001884 0.000120
v -0.017879 -0.042880 0.037119
v -0.024879 -0.031880 0.031119
v -0.029876 0.020117 0.024119
v -0.030880 0.021120 0.023118
v -0.017879 -0.037875 0.037119
v -0.011878 -0.037875 0.038120
v -0.010879 -0.037875 0.038120
v -0.028876 0.018119 0.020116
v -0.024879 0.010119 0.010122
v -0.024879 0.009116 0.008121
v 0.022118 -0.041878 0.004122
v 0.003116 -0.022877 0.001120
v 0.024116 -0.042880 0.007120
v -0.005877 -0.013875 0.000120
v -0.013877 -0.004885 0.001120
v -0.017879 -0.000882 0.001120
v -0.016880 -0.002880 0.000120
v -0.012878 -0.042880 0.037119
v -0.011878 -0.038877 0.038120
v -0.029876 0.020117 0.023118
v -0.022875 0.013120 0.024119
v -0.009880 -0.039880 0.037119
v -0.004878 -0.038877 0.035118
v 0.000118 -0.037875 0.033117
v -0.012878 0.002119 0.024119
v -0.020877 0.011115 0.024119
v -0.027877 0.018119 0.023118
v -0.026878 0.017116 0.023118
v -0.015875 0.005120 0.022118
v -0.015875 -0.000882 0.006123
v -0.015875 -0.002880 0.001120
v 0.022118 -0.038877 0.012123
v 0.026115 -0.042880 0.019120
v 0.024116 -0.039880 0.015121
v 0.027120 -0.041878 0.019120
v -0.007876 -0.011877 0.000120
v -0.015875 -0.003883 0.000120
v -0.009880 -0.042880 0.036118
v 0.003116 -0.042880 0.030119
v 0.013119 -0.037875 0.027117
v 0.017116 -0.037875 0.025119
v 0.021119 -0.037875 0.023118
v 0.023117 -0.037875 0.022118
v 0.025115 -0.038877 0.021117
v 0.020119 -0.042880 0.022118
v 0.023117 -0.041878 0.021117
v 0.018115 -0.042880 0.023118
v 0.023117 -0.038877 0.022118
v 0.018115 -0.039880 0.024119
vn -0.0000 -1.0000 -0.0000
vn -1.0000 -0.0000 -0.0000
vn -0.9536 -0.0000 -0.3012
vn -0.0000 -0.0000 -1.0000
vn -0.7592 -0.0000 0.6508
vn -0.1242 0.6997 -0.7036
vn -0.8621 0.0763 -0.5010
vn 0.7169 0.5982 -0.3580
vn 0.6382 0.5908 -0.4937
vn -0.6119 0.1190 -0.7819
vn -0.6508 -0.0000 0.7593
vn 0.7062 0.7080 -0.0000
vn -0.6356 0.0299 0.7715
vn -0.1618 0.1782 0.9706
vn -0.0000 0.2309 0.9730
vn 0.3191 0.3199 0.8921
vn 0.6872 0.6891 -0.2301
vn 0.6792 0.6811 -0.2736
vn 0.5968 0.7174 -0.3593
vn -0.1188 0.7015 -0.7027
vn 0.2885 0.6764 -0.6776
vn 0.7217 0.6189 -0.3100
vn 0.6979 0.6567 -0.2859
vn 0.7027 0.6612 -0.2628
vn 0.7460 0.5954 -0.2982
vn 0.5853 0.5835 -0.5629
vn 0.7000 0.6611 -0.2699
vn 0.5758 0.5776 -0.5786
vn -0.0000 -0.2425 0.9702
vn -0.1645 -0.0000 0.9864
vn 0.3200 0.3201 0.8917
vn 0.7070 0.7072 -0.0000
vn 0.6873 0.6890 -0.2299
vn -0.0000 -0.0000 1.0000
vn 0.3019 -0.3010 0.9046
vn 0.4017 -0.2407 0.8835
vn 0.4020 -0.2396 0.8837
vn 0.3921 0.3213 0.8620
vn 0.3642 0.3239 0.8732
vn 0.3213 0.3203 0.8912
vn 0.6883 0.6883 -0.2291
vn 0.6893 0.6872 -0.2295
vn 0.7040 0.6662 -0.2462
vn 0.7036 0.6653 -0.2496
vn 0.7017 0.6662 -0.2526
vn 0.7016 0.6662 -0.2528
vn 0.6762 0.6741 -0.2971
vn 0.6732 0.6751 -0.3015
vn 0.6383 0.6883 -0.3447
vn 0.7058 0.6633 -0.2488
vn 0.7041 0.6647 -0.2497
vn 0.7042 0.6648 -0.2494
vn 0.7042 0.6648 -0.2493
vn 0.7038 0.6647 -0.2507
vn 0.7371 0.6328 -0.2373
vn 0.7014 -0.7032 -0.1168
vn 0.5781 0.5781 -0.5758
vn 0.5760 0.5776 -0.5785
vn 0.5760 0.5775 -0.5785
vn 0.3019 -0.3016 0.9044
vn 0.3017 -0.3014 0.9045
vn 0.7071 0.7071 -0.0018
vn 0.7082 0.7059 -0.0129
vn 0.4012 -0.2897 0.8690
vn 0.4031 -0.2839 0.8700
vn 0.4037 -0.2688 0.8745
vn 0.4039 -0.2658 0.8753
vn 0.3967 0.3223 0.8595
vn 0.4209 0.3368 0.8423
vn 0.4211 0.3368 0.8422
vn 0.4215 0.3372 0.8418
vn 0.5735 0.4831 0.6616
vn 0.6978 0.6205 0.3577
vn 0.7108 0.6673 -0.2225
vn 0.7068 0.6677 -0.2339
vn 0.7095 0.6662 -0.2296
vn 0.7048 0.6648 -0.2475
vn 0.5767 0.5771 -0.5782
vn 0.4081 -0.4091 0.8161
vn 0.7321 0.6415 -0.2292
vn 0.4084 -0.4041 0.8184
vn 0.4083 -0.4055 0.8178
vn 0.4293 -0.2840 0.8574
vn 0.4279 -0.2859 0.8574
vn 0.4048 -0.2892 0.8674
vn 0.4048 -0.2887 0.8676
vn 0.4049 -0.2884 0.8677
vn 0.4470 -0.0024 0.8945
vn 0.4472 -0.0013 0.8944
vn 0.4477 -0.0000 0.8942
vn 0.4050 -0.2892 0.8674
s 0
f 1//1 2//1 5//1 12//1 27//1 47//1 59//1 61//1 53//1 52//1 32//1 15//1 7//1 3//1
f 1//2 3//2 8//2 18//2 9//2 4//2
f 1//3 4//3 6//3 2//3
f 2//4 6//4 14//4 31//4 51//4 50//4 28//4 13//4 5//4
f 3//5 7//5 16//5 8//5
f 4//6 9//6 10//6
f 4//7 10//7 6//7
f 5//8 11//8 12//8
f 5//9 13//9 11//9
f 6//10 10//10 14//10
f 7//11 15//11 19//11 16//11
f 8//12 17//12 34//12 18//12
f 8//13 16//13 19//13
f 8//14 19//14 20//14
f 8//15 20//15 21//15
f 8//16 21//16 17//16
f 9//17 18//17 22//17
f 9//18 22//18 23//18
f 9//19 23//19 24//19
f 9//20 24//20 10//20
f 10//21 24//21 30//21 14//21
f 11//22 25//22 12//22
f 11//23 13//23 26//23
f 11//24 26//24 25//24
f 12//25 25//25 27//25
f 13//26 28//26 45//26 29//26
f 13//27 29//27 26//27
f 14//28 30//28 31//28
f 15//29 32//29 33//29
f 15//30 33//30 20//30 19//30
f 17//31 21//31 35//31
f 17//32 35//32 34//32
f 18//33 34//33 22//33
f 20//34 33//34 21//34
f 21//35 33//35 36//35
f 21//36 36//36 37//36
f 21//37 37//37 38//37
f 21//38 38//38 39//38
f 21//39 39//39 40//39
f 21//40 40//40 35//40
f 22//41 34//41 41//41
f 22//42 41//42 42//42
f 22//43 42//43 43//43
f 22//44 43//44 44//44
f 22//45 44//45 23//45
f 23//46 44//46 29//46
f 23//47 29//47 45//47
f 23//48 45//48 30//48
f 23//49 30//49 24//49
f 25//50 46//50 48//50 27//50
f 25//51 26//51 44//51
f 25//52 44//52 43//52
f 25//53 43//53 46//53
f 26//54 29//54 44//54
f 27//55 48//55 49//55
f 27//56 49//56 47//56
f 28//57 50//57 45//57
f 30//58 45//58 31//58
f 31//59 45//59 51//59
f 32//60 52//60 36//60
f 32//61 36//61 33//61
f 34//62 35//62 41//62
f 35//63 40//63 42//63 41//63
f 36//64 52//64 53//64
f 36//65 53//65 54//65
f 36//66 54//66 37//66
f 37//67 54//67 38//67
f 38//68 54//68 39//68
f 39//69 54//69 55//69
f 39//70 55//70 56//70
f 39//71 56//71 57//71
f 39//72 57//72 58//72
f 39//73 58//73 40//73
f 40//74 58//74 43//74
f 40//75 43//75 42//75
f 43//76 58//76 48//76
f 43//77 48//77 46//77
f 45//78 50//78 51//78
f 47//79 49//79 59//79
f 48//80 58//80 49//80
f 49//81 60//81 61//81
f 49//82 61//82 59//82
f 49//83 58//83 62//83
f 49//84 62//84 60//84
f 53//85 61//85 63//85
f 53//86 63//86 54//86
f 54//87 63//87 62//87
f 54//88 62//88 55//88
f 55//89 62//89 56//89
f 56//90 62//90 58//90 57//90
f 60//91 62//91 63//91 61//91
