# Blender 4.3.2
# www.blender.org
o link_1_collision.003
v -0.005880 0.045119 0.000120
v -0.005880 0.044119 0.001121
v -0.030880 0.043118 0.019121
v -0.005880 0.049117 0.000120
v 0.003120 0.040118 0.000120
v -0.002878 0.040118 0.004125
v 0.007113 0.038117 0.000120
v 0.016119 0.036559 0.008124
v 0.018116 0.036559 0.008124
v 0.015114 0.036559 0.010121
v 0.012119 0.036559 0.012124
v -0.009880 0.036559 0.019121
v -0.022880 0.038117 0.020123
v -0.013880 0.036559 0.023121
v -0.026880 0.037117 0.024122
v -0.024877 0.036559 0.028121
v -0.022880 0.036559 0.028121
v 0.014116 0.036559 0.012124
v 0.018116 0.036559 0.012124
v -0.024877 0.036559 0.030124
v 0.007113 0.038117 0.062120
v -0.024877 0.036559 0.031120
v 0.017118 0.036559 0.010121
v 0.024113 0.036559 0.007123
v 0.037120 0.038117 0.038117
v 0.037120 0.038117 0.056117
v 0.031116 0.038117 0.062120
v 0.031116 0.043118 0.062120
v 0.024113 0.049117 0.049114
v 0.007113 0.043118 0.062120
v 0.037120 0.043118 0.056117
v 0.037120 0.043118 0.038117
v 0.024113 0.049117 0.044119
v 0.031116 0.043118 0.019121
v 0.024113 0.043118 0.000120
v 0.031116 0.038117 0.019121
v 0.024113 0.038117 0.000120
v 0.018116 0.036559 0.007123
v 0.006115 0.049117 0.000120
v 0.000124 0.043118 0.056117
v 0.019114 0.049117 0.049114
v 0.000124 0.049117 0.031120
v -0.030880 0.043118 0.024122
v -0.005880 0.049117 0.018120
v -0.024877 0.043118 0.031120
v -0.030880 0.040118 0.024122
v -0.030880 0.040118 0.023121
v 0.000124 0.038117 0.056117
vn -0.3659 -0.6585 -0.6577
vn -0.4331 -0.6377 -0.6370
vn -0.6051 -0.0000 -0.7961
vn -0.0000 -0.0000 -1.0000
vn -0.3847 -0.7212 -0.5760
vn -0.1380 -0.9687 -0.2066
vn -0.3122 -0.9348 0.1692
vn -0.1191 -0.9521 -0.2816
vn -0.0000 -1.0000 -0.0000
vn -0.1358 -0.9478 -0.2884
vn -0.0958 -0.9714 -0.2173
vn -0.0513 -0.9923 -0.1128
vn -0.0000 -0.9995 0.0312
vn 0.0152 -0.9993 0.0345
vn 0.0310 -0.9988 0.0372
vn 0.0817 -0.9967 -0.0000
vn 0.0247 -0.9994 0.0247
vn -0.0000 -0.0000 1.0000
vn 0.7070 -0.0000 0.7072
vn 0.2760 0.9207 0.2761
vn -0.0000 0.9081 0.4188
vn 0.4188 0.9081 -0.0000
vn 1.0000 -0.0000 -0.0000
vn 0.3708 0.9213 -0.1172
vn 0.9535 -0.0000 -0.3014
vn 0.3442 0.9303 -0.1268
vn 0.9383 -0.0000 -0.3458
vn 0.5078 -0.8409 -0.1871
vn 0.4326 -0.8912 -0.1367
vn -0.0000 -0.9761 -0.2172
vn -0.0362 -0.9755 -0.2171
vn 0.2515 -0.9679 -0.0000
vn -0.1402 -0.9901 -0.0000
vn 0.3136 0.9409 -0.1283
vn -0.0000 1.0000 -0.0000
vn -0.2093 0.9470 0.2437
vn -0.6515 -0.0000 0.7586
vn -0.2159 0.9495 0.2278
vn -0.2101 0.9728 0.0970
vn -0.2288 0.9535 0.1963
vn -0.2272 0.9470 0.2272
vn -0.7589 -0.0000 0.6512
vn -0.7071 -0.0000 0.7071
vn -0.2333 0.9724 -0.0000
vn -1.0000 -0.0000 -0.0000
vn -0.5099 -0.8602 -0.0000
vn -0.4102 -0.7295 -0.5473
vn -0.6196 -0.7578 0.2046
vn -0.3279 -0.8641 0.3818
vn -0.3845 -0.7286 -0.5668
vn -0.3831 -0.7270 -0.5699
vn -0.3855 -0.7213 -0.5754
s 0
f 1//1 5//1 2//1
f 1//2 2//2 3//2
f 1//3 3//3 4//3
f 1//4 4//4 39//4 35//4 37//4 7//4 5//4
f 2//5 5//5 6//5
f 5//6 8//6 6//6
f 5//7 7//7 9//7 8//7
f 6//8 8//8 12//8
f 8//9 9//9 10//9
f 8//9 10//9 11//9
f 8//9 11//9 14//9 12//9
f 6//10 12//10 13//10
f 13//11 12//11 14//11 15//11
f 15//12 14//12 16//12
f 16//9 14//9 17//9
f 14//9 19//9 17//9
f 14//9 11//9 18//9
f 14//9 18//9 19//9
f 20//9 19//9 22//9
f 20//9 17//9 19//9
f 9//9 19//9 23//9
f 9//9 24//9 19//9
f 10//9 19//9 18//9
f 10//9 23//9 19//9
f 19//13 27//13 21//13
f 19//14 21//14 22//14
f 19//15 24//15 25//15
f 19//16 25//16 26//16
f 19//17 26//17 27//17
f 21//18 27//18 28//18 30//18
f 26//19 31//19 28//19 27//19
f 29//20 28//20 31//20
f 41//21 30//21 28//21 29//21
f 33//22 29//22 31//22 32//22
f 32//23 31//23 26//23 25//23
f 33//24 32//24 34//24
f 32//25 25//25 36//25 34//25
f 33//26 34//26 35//26
f 35//27 34//27 36//27 37//27
f 37//28 36//28 24//28
f 36//29 25//29 24//29
f 7//30 37//30 38//30
f 37//31 24//31 9//31
f 37//32 9//32 38//32
f 7//33 38//33 9//33
f 39//34 33//34 35//34
f 4//35 44//35 42//35 41//35 29//35 33//35 39//35
f 40//36 30//36 41//36
f 40//37 48//37 21//37 30//37
f 42//38 40//38 41//38
f 43//39 42//39 44//39
f 43//40 45//40 42//40
f 45//41 40//41 42//41
f 43//42 46//42 22//42 45//42
f 45//43 22//43 48//43 40//43
f 3//44 43//44 44//44 4//44
f 3//45 47//45 46//45 43//45
f 47//46 20//46 22//46 46//46
f 3//47 15//47 47//47
f 15//48 16//48 47//48
f 47//46 16//46 20//46
f 22//49 21//49 48//49
f 9//9 23//9 10//9
f 16//9 17//9 20//9
f 10//9 18//9 11//9
f 3//50 13//50 15//50
f 3//51 6//51 13//51
f 2//52 6//52 3//52
