# Blender 4.3.2
# www.blender.org
o link_3_collision
v 0.044802 0.031799 0.037799
v 0.052805 0.029793 0.025801
v 0.051803 0.029793 0.026799
v 0.043801 0.030792 0.037799
v 0.030801 0.029793 0.052793
v 0.037802 0.029793 0.052793
v 0.135788 0.021796 0.075799
v 0.136790 0.021796 0.071793
v 0.136790 0.021796 0.068798
v 0.052805 0.026794 0.022799
v 0.139795 0.014798 0.038804
v 0.049800 0.023795 0.022799
v 0.049800 0.026794 0.025801
v 0.037802 0.027793 0.041799
v 0.034808 0.029793 0.047795
v 0.026806 0.022795 0.049798
v 0.024802 0.022795 0.052793
v 0.045804 0.021796 0.075799
v 0.136790 0.013792 0.075799
v 0.136790 0.020796 0.072797
v 0.139795 0.014798 0.045799
v 0.059293 -0.025653 0.025245
v 0.053294 -0.025653 0.025245
v 0.140797 0.010793 0.038804
v 0.048809 0.022795 0.022799
v 0.047808 0.022795 0.023804
v 0.039805 0.023795 0.034804
v 0.037301 -0.025653 0.040245
v 0.028982 -0.017656 0.055245
v 0.028982 -0.017656 0.062240
v 0.045804 -0.022201 0.075799
v 0.137791 -0.008199 0.075799
v 0.137791 -0.003201 0.073796
v 0.137791 0.003796 0.070795
v 0.137791 0.012792 0.066795
v 0.140797 0.008794 0.039802
v 0.064065 -0.038624 0.025245
v 0.141787 -0.011198 0.038804
v 0.058066 -0.038624 0.025245
v 0.045292 -0.025653 0.032246
v 0.042072 -0.038624 0.040245
v 0.028982 -0.024653 0.062240
v 0.042072 -0.038624 0.054247
v 0.137791 -0.022201 0.075799
v 0.138793 -0.020201 0.071793
v 0.140797 -0.009199 0.047795
v 0.140797 -0.000202 0.043802
v 0.141787 -0.013197 0.039802
v 0.064065 -0.038624 0.039247
v 0.141787 -0.014197 0.038804
v 0.138793 -0.022201 0.068798
v 0.050063 -0.038624 0.032246
v 0.049061 -0.038624 0.054247
v 0.138793 -0.022201 0.071793
v 0.057064 -0.038624 0.047246
v 0.141787 -0.014197 0.039802
vn -0.4064 0.8177 -0.4077
vn -0.6132 0.6104 -0.5015
vn -0.6164 0.6136 -0.4935
vn -0.0000 0.9912 0.1326
vn 0.0447 0.9872 0.1529
vn 0.0990 0.9948 0.0248
vn 0.1081 0.9941 -0.0000
vn 0.1332 0.9881 -0.0764
vn -0.5759 0.5783 -0.5778
vn 0.1958 0.9592 -0.2041
vn 0.2219 0.6897 -0.6892
vn -0.5766 0.5778 -0.5777
vn -0.5771 0.5777 -0.5773
vn -0.6272 0.5888 -0.5098
vn -0.6318 0.5837 -0.5100
vn -0.6201 0.6070 -0.4971
vn -0.6319 0.5834 -0.5103
vn -0.6352 0.5807 -0.5092
vn -0.6769 0.5803 -0.4528
vn -0.6157 0.5279 0.5850
vn -0.0000 0.9446 0.3283
vn 0.9530 0.1193 0.2784
vn 0.9425 0.2368 0.2357
vn -0.0000 -0.0000 1.0000
vn 0.9918 0.0907 0.0903
vn 0.9188 0.3946 -0.0000
vn -0.0000 -0.0466 -0.9989
vn 0.0460 -0.0461 -0.9979
vn 0.1777 -0.0239 -0.9838
vn 0.9701 0.2426 -0.0000
vn 0.1479 0.0370 -0.9883
vn -0.5797 0.5742 -0.5782
vn -0.5797 0.5764 -0.5760
vn 0.0465 -0.0461 -0.9979
vn -0.6363 0.5742 -0.5151
vn -0.6350 0.5781 -0.5124
vn -0.6353 0.5779 -0.5123
vn -0.6349 0.5800 -0.5103
vn -0.8291 -0.0703 -0.5546
vn -0.6406 0.5673 -0.5175
vn -0.7771 -0.0445 -0.6278
vn -0.8938 -0.1186 -0.4325
vn -0.9947 -0.1028 -0.0000
vn -0.7343 0.0815 0.6739
vn -0.6275 -0.0000 0.7786
vn 0.9926 0.0452 0.1128
vn 0.9932 0.0459 0.1072
vn 0.9932 0.0459 0.1070
vn 0.9935 0.0463 0.1041
vn 0.9935 0.0466 0.1037
vn 0.9935 0.0510 0.1021
vn 0.9918 0.0903 0.0903
vn -0.0000 -0.0000 -1.0000
vn 0.1609 0.0072 -0.9869
vn 0.1557 0.0465 -0.9867
vn -0.6399 -0.2354 -0.7315
vn -0.6552 -0.0985 -0.7490
vn 0.9950 0.0448 0.0897
vn -0.7049 -0.0861 -0.7041
vn -0.7054 -0.0858 -0.7036
vn -0.6847 -0.2519 -0.6840
vn -0.8750 -0.4388 -0.2044
vn -0.3821 -0.7019 0.6011
vn -0.0000 -0.7954 0.6061
vn 0.9701 -0.0000 0.2426
vn 0.9935 0.0458 0.1039
vn 0.9935 0.0461 0.1038
vn 0.9939 0.0447 0.1007
vn -0.0000 -1.0000 -0.0000
vn 0.3266 -0.9208 -0.2131
vn 0.2147 -0.9767 -0.0000
vn 1.0000 -0.0000 -0.0000
vn 0.1415 -0.9766 0.1617
vn 0.1521 -0.9793 0.1332
vn 0.1942 -0.9798 0.0486
vn 0.9957 -0.0000 0.0932
vn 0.9939 0.0419 0.1022
vn 0.9366 -0.3503 -0.0000
s 0
f 1//1 2//1 3//1
f 1//2 3//2 4//2
f 1//3 4//3 5//3
f 1//4 5//4 6//4
f 1//5 6//5 7//5
f 1//6 7//6 8//6
f 1//7 8//7 9//7
f 1//8 9//8 2//8
f 2//9 10//9 3//9
f 2//10 9//10 11//10
f 2//11 11//11 10//11
f 3//12 10//12 12//12
f 3//13 12//13 13//13
f 3//14 13//14 4//14
f 4//15 14//15 15//15
f 4//16 15//16 5//16
f 4//17 13//17 14//17
f 5//18 15//18 16//18
f 5//19 16//19 17//19
f 5//20 17//20 18//20
f 5//21 18//21 7//21 6//21
f 7//22 19//22 20//22
f 7//23 20//23 8//23
f 7//24 18//24 31//24 44//24 32//24 19//24
f 8//25 20//25 21//25
f 8//26 21//26 11//26 9//26
f 10//27 22//27 23//27
f 10//28 23//28 12//28
f 10//29 11//29 22//29
f 11//30 21//30 24//30
f 11//31 24//31 22//31
f 12//32 25//32 26//32
f 12//33 26//33 13//33
f 12//34 23//34 25//34
f 13//35 26//35 27//35
f 13//36 27//36 14//36
f 14//37 27//37 16//37
f 14//38 16//38 15//38
f 16//39 28//39 17//39
f 16//40 27//40 26//40
f 16//41 26//41 28//41
f 17//42 28//42 29//42
f 17//43 29//43 30//43
f 17//44 30//44 18//44
f 18//45 30//45 42//45 31//45
f 19//46 32//46 33//46
f 19//47 33//47 20//47
f 20//48 33//48 45//48 34//48
f 20//49 34//49 35//49
f 20//50 35//50 36//50
f 20//51 36//51 24//51
f 20//52 24//52 21//52
f 22//53 37//53 39//53 23//53
f 22//54 24//54 38//54
f 22//55 38//55 50//55 37//55
f 23//56 39//56 52//56 40//56
f 23//57 40//57 25//57
f 24//58 36//58 48//58 38//58
f 25//59 40//59 28//59
f 25//60 28//60 26//60
f 28//61 40//61 52//61 41//61
f 28//62 41//62 43//62 42//62 30//62 29//62
f 31//63 42//63 43//63
f 31//64 43//64 53//64 44//64
f 32//46 45//46 33//46
f 32//65 44//65 54//65 45//65
f 34//66 45//66 46//66
f 34//67 46//67 47//67
f 34//67 47//67 36//67 35//67
f 36//68 47//68 48//68
f 37//69 49//69 55//69 53//69 43//69 41//69 52//69 39//69
f 37//70 50//70 51//70
f 37//71 51//71 54//71 49//71
f 38//72 48//72 56//72 50//72
f 44//73 53//73 55//73
f 44//74 55//74 49//74
f 44//75 49//75 54//75
f 45//76 54//76 56//76 48//76
f 45//77 48//77 46//77
f 46//68 48//68 47//68
f 50//78 56//78 54//78 51//78
