# Blender 4.3.2
# www.blender.org
o link_5_collision
v 0.029516 0.008514 -0.030489
v 0.026514 0.017515 -0.021486
v 0.026514 0.011513 -0.018491
v 0.029516 -0.008481 -0.030489
v 0.029516 0.011513 -0.033485
v 0.014513 0.011513 -0.000484
v 0.017515 0.005516 -0.000484
v 0.026514 0.023513 -0.027485
v 0.026514 -0.011480 -0.018491
v 0.026514 -0.017483 -0.021486
v 0.029516 -0.011480 -0.033485
v 0.029516 0.014511 -0.036489
v 0.011511 0.014511 -0.000484
v 0.017515 -0.005483 -0.000484
v 0.005514 0.017515 -0.000484
v 0.026514 0.026516 -0.033485
v 0.014513 -0.011480 -0.000484
v 0.026514 -0.023480 -0.027485
v 0.029516 -0.014479 -0.036489
v 0.029516 0.014511 -0.054478
v -0.005482 0.017515 -0.000484
v -0.017483 0.026516 -0.033485
v 0.026514 0.026516 -0.057482
v 0.011511 -0.014479 -0.000484
v 0.005514 -0.017483 -0.000484
v 0.026514 -0.026484 -0.033485
v 0.029516 -0.014479 -0.054478
v 0.029516 0.011513 -0.057482
v 0.026514 0.023513 -0.063482
v -0.020479 0.014511 -0.006492
v -0.017483 0.011513 -0.003488
v -0.014481 0.008514 -0.000484
v -0.020479 0.026516 -0.042488
v -0.023480 0.023513 -0.039484
v -0.018482 0.017515 -0.090484
v -0.020479 0.026516 -0.057482
v -0.005482 -0.017483 -0.000484
v -0.017483 -0.026484 -0.033485
v 0.026514 -0.026484 -0.057482
v 0.026514 -0.023480 -0.063482
v 0.029516 -0.011480 -0.057482
v 0.029516 0.008514 -0.060478
v 0.026514 0.017515 -0.069481
v -0.020479 0.002512 -0.003488
v -0.017483 0.002512 -0.000484
v -0.026482 0.020514 -0.039484
v -0.032480 0.008514 -0.039484
v -0.038484 0.011513 -0.076476
v -0.018482 -0.017483 -0.090484
v -0.023480 0.017515 -0.090484
v 0.026514 0.011513 -0.072477
v -0.026482 0.017515 -0.087480
v -0.038484 0.011513 -0.078476
v -0.014481 -0.008481 -0.000484
v -0.017483 -0.011480 -0.003488
v -0.020479 -0.014479 -0.006492
v -0.023480 -0.023480 -0.039484
v -0.020479 -0.026484 -0.042488
v -0.020479 -0.026484 -0.057482
v 0.026514 -0.017483 -0.069481
v 0.029516 -0.008481 -0.060478
v -0.020479 -0.002479 -0.003488
v -0.017483 -0.002479 -0.000484
v -0.032480 -0.008481 -0.039484
v -0.038484 0.008514 -0.073481
v -0.023480 -0.017483 -0.090484
v 0.026514 -0.011480 -0.072477
v -0.035482 0.008514 -0.081480
v -0.038484 -0.011480 -0.078476
v -0.026482 -0.020481 -0.039484
v -0.038484 -0.011480 -0.076476
v -0.026482 -0.017483 -0.087480
v -0.038484 -0.008481 -0.073481
v -0.035482 -0.008481 -0.081480
vn 0.9705 0.1077 0.2159
vn 0.9701 -0.0000 0.2427
vn 1.0000 -0.0000 -0.0000
vn 0.9733 0.1622 0.1624
vn 0.7536 0.3772 0.5384
vn 0.8308 0.2485 0.4980
vn 0.9733 0.1623 0.1623
vn 0.6621 0.5300 0.5298
vn 0.8945 -0.0000 0.4470
vn 0.9705 -0.1077 0.2159
vn 0.9733 -0.1622 0.1624
vn 0.9733 0.1624 0.1621
vn -0.0000 -0.0000 1.0000
vn 0.5983 0.5990 0.5321
vn 0.3929 0.7845 0.4798
vn 0.9705 0.2157 0.1080
vn 0.3050 0.8516 0.4264
vn 0.8308 -0.2485 0.4980
vn 0.7536 -0.3772 0.5384
vn 0.6621 -0.5300 0.5298
vn 0.9733 -0.1623 0.1623
vn 0.9733 -0.1624 0.1621
vn 0.9701 0.2426 -0.0000
vn -0.0000 0.9648 0.2631
vn -0.0000 1.0000 -0.0000
vn 0.5983 -0.5990 0.5321
vn 0.3929 -0.7845 0.4798
vn 0.3050 -0.8516 0.4264
vn 0.9705 -0.2157 0.1080
vn 0.9701 -0.2426 -0.0000
vn 0.9733 0.1624 -0.1621
vn 0.9705 0.2157 -0.1080
vn -0.4088 0.4090 0.8158
vn -0.4086 0.4086 0.8162
vn -0.3184 0.8788 0.3555
vn -0.5887 0.7842 0.1959
vn -0.6263 0.7357 0.2577
vn 0.1478 0.8844 -0.4428
vn -0.0000 0.9648 -0.2631
vn -0.0000 -0.9648 0.2631
vn -0.0000 -1.0000 -0.0000
vn 0.9705 -0.2157 -0.1080
vn 0.9733 -0.1624 -0.1621
vn 0.9733 0.1622 -0.1624
vn 0.9733 0.1623 -0.1623
vn 0.3134 0.6716 -0.6714
vn -0.6973 0.1741 0.6953
vn -0.5357 0.2673 0.8010
vn -0.6844 0.6852 0.2492
vn -0.8690 0.4343 0.2372
vn -0.9413 0.0820 0.3275
vn -0.5349 0.2675 0.8015
vn -0.6402 0.7682 -0.0000
vn -0.6853 0.7270 0.0421
vn -0.7056 0.7063 0.0570
vn -0.0000 -0.0000 -1.0000
vn 0.3854 0.4120 -0.8257
vn 0.3715 -0.0000 -0.9284
vn -0.2359 0.9428 -0.2357
vn -0.5277 0.8369 -0.1455
vn -0.4086 -0.4086 0.8162
vn -0.4088 -0.4090 0.8158
vn -0.3184 -0.8788 0.3555
vn -0.5887 -0.7842 0.1959
vn -0.6263 -0.7357 0.2577
vn -0.0000 -0.9648 -0.2631
vn 0.1478 -0.8844 -0.4428
vn 0.3134 -0.6716 -0.6714
vn 0.9733 -0.1623 -0.1623
vn 0.9733 -0.1622 -0.1624
vn 0.9701 -0.0000 -0.2427
vn 0.9705 0.1077 -0.2159
vn -0.7081 -0.0000 0.7061
vn -0.9487 -0.0000 0.3163
vn -0.8801 0.4399 0.1785
vn -0.9702 0.1712 0.1713
vn -0.9848 -0.0000 0.1739
vn -1.0000 -0.0000 -0.0000
vn 0.3854 -0.4120 -0.8257
vn -0.6001 -0.0000 -0.7999
vn -0.6472 0.1081 -0.7546
vn -0.6668 0.3337 -0.6663
vn -0.7074 -0.0000 -0.7069
vn -0.5349 -0.2675 0.8015
vn -0.5357 -0.2673 0.8010
vn -0.6973 -0.1741 0.6953
vn -0.9413 -0.0820 0.3275
vn -0.8690 -0.4343 0.2372
vn -0.6844 -0.6852 0.2492
vn -0.7056 -0.7063 0.0570
vn -0.6853 -0.7270 0.0421
vn -0.6402 -0.7682 -0.0000
vn -0.5277 -0.8369 -0.1455
vn -0.2359 -0.9428 -0.2357
vn 0.9705 -0.1077 -0.2159
vn -0.9702 -0.1712 0.1713
vn -0.8801 -0.4399 0.1785
vn -0.6668 -0.3337 -0.6663
vn -0.6472 -0.1081 -0.7546
s 0
f 1//1 2//1 3//1
f 1//2 3//2 9//2 4//2
f 1//3 4//3 11//3 19//3 27//3 41//3 61//3 42//3 28//3 20//3 12//3 5//3
f 1//4 5//4 2//4
f 2//5 6//5 7//5
f 2//6 7//6 3//6
f 2//7 5//7 8//7
f 2//8 8//8 6//8
f 3//9 7//9 14//9 9//9
f 4//10 9//10 10//10
f 4//11 10//11 11//11
f 5//12 12//12 8//12
f 6//13 13//13 15//13 21//13 32//13 45//13 63//13 54//13 37//13 25//13 24//13 17//13 14//13 7//13
f 6//14 8//14 13//14
f 8//15 15//15 13//15
f 8//16 12//16 16//16
f 8//17 16//17 15//17
f 9//18 14//18 10//18
f 10//19 14//19 17//19
f 10//20 17//20 18//20
f 10//21 18//21 11//21
f 11//22 18//22 19//22
f 12//23 20//23 23//23 16//23
f 15//24 16//24 22//24 21//24
f 16//25 23//25 36//25 33//25 22//25
f 17//26 24//26 18//26
f 18//27 24//27 25//27
f 18//28 25//28 26//28
f 18//29 26//29 19//29
f 19//30 26//30 39//30 27//30
f 20//31 28//31 29//31
f 20//32 29//32 23//32
f 21//33 30//33 31//33
f 21//34 31//34 32//34
f 21//35 22//35 30//35
f 22//36 33//36 34//36
f 22//37 34//37 30//37
f 23//38 29//38 35//38
f 23//39 35//39 50//39 36//39
f 25//40 37//40 38//40 26//40
f 26//41 38//41 58//41 59//41 39//41
f 27//42 39//42 40//42
f 27//43 40//43 41//43
f 28//44 42//44 43//44
f 28//45 43//45 29//45
f 29//46 43//46 35//46
f 30//47 44//47 45//47
f 30//48 45//48 31//48
f 30//49 34//49 46//49
f 30//50 46//50 47//50
f 30//51 47//51 44//51
f 31//52 45//52 32//52
f 33//53 36//53 53//53 48//53
f 33//54 48//54 34//54
f 34//55 48//55 46//55
f 35//56 49//56 66//56 50//56
f 35//57 43//57 51//57
f 35//58 51//58 67//58 49//58
f 36//59 50//59 52//59
f 36//60 52//60 53//60
f 37//61 54//61 55//61
f 37//62 55//62 56//62
f 37//63 56//63 38//63
f 38//64 57//64 58//64
f 38//65 56//65 57//65
f 39//66 59//66 66//66 49//66
f 39//67 49//67 40//67
f 40//68 49//68 60//68
f 40//69 60//69 41//69
f 41//70 60//70 61//70
f 42//71 61//71 67//71 51//71
f 42//72 51//72 43//72
f 44//73 62//73 63//73 45//73
f 44//74 47//74 64//74 62//74
f 46//75 48//75 47//75
f 47//76 48//76 65//76
f 47//77 65//77 73//77 64//77
f 48//78 53//78 69//78 71//78 73//78 65//78
f 49//79 67//79 60//79
f 50//80 66//80 74//80 68//80
f 50//81 68//81 53//81
f 50//82 53//82 52//82
f 53//83 68//83 74//83 69//83
f 54//84 63//84 55//84
f 55//85 63//85 56//85
f 56//86 63//86 62//86
f 56//87 62//87 64//87
f 56//88 64//88 70//88
f 56//89 70//89 57//89
f 57//90 70//90 71//90
f 57//91 71//91 58//91
f 58//92 71//92 69//92 59//92
f 59//93 69//93 72//93
f 59//94 72//94 66//94
f 60//95 67//95 61//95
f 64//96 73//96 71//96
f 64//97 71//97 70//97
f 66//98 72//98 69//98
f 66//99 69//99 74//99
