# Blender 4.3.2
# www.blender.org
o link_4_collision
v 0.097229 -0.008765 0.070220
v 0.097229 -0.005765 0.067225
v 0.096227 -0.008765 0.072229
v 0.093221 -0.016769 0.073227
v 0.093221 -0.017767 0.072229
v 0.097229 -0.008765 0.045224
v 0.097229 -0.003770 0.065228
v 0.092219 -0.008765 0.077221
v 0.093221 -0.009771 0.076222
v 0.093221 -0.010768 0.076222
v 0.093221 -0.012771 0.075224
v 0.087221 -0.021764 0.072229
v 0.084227 -0.025770 0.070220
v 0.092219 -0.013769 0.075224
v 0.093221 -0.017767 0.049218
v 0.084227 -0.025770 0.040232
v 0.008232 -0.034771 -0.017771
v 0.097229 0.008224 0.045224
v 0.097229 0.002231 0.058227
v 0.095225 0.005224 0.057229
v 0.095225 -0.000769 0.064218
v 0.087221 -0.001767 0.075224
v 0.053226 0.015222 0.097225
v 0.063222 0.007226 0.094218
v 0.070223 0.003236 0.090224
v 0.084227 -0.004767 0.082225
v 0.091218 -0.008765 0.078219
v 0.092219 -0.009771 0.077221
v 0.083225 -0.023767 0.072229
v 0.082223 -0.025770 0.071218
v 0.084227 -0.024765 0.071218
v 0.039233 -0.034771 0.044226
v 0.089225 -0.009771 0.078219
v 0.090227 -0.014766 0.075224
v 0.039233 -0.034771 0.023235
v 0.022236 -0.034771 -0.003770
v -0.008766 -0.034771 -0.017771
v 0.008232 0.035228 -0.017771
v 0.013230 0.039225 -0.012767
v 0.084227 0.026226 0.040232
v 0.088223 0.022228 0.045224
v 0.097229 0.008224 0.051226
v 0.093221 0.014225 0.049218
v 0.088223 0.021223 0.047221
v 0.082223 0.005224 0.073227
v 0.064224 0.024223 0.073227
v 0.056220 0.023226 0.084222
v 0.053226 0.021223 0.090224
v 0.047226 0.017225 0.102229
v 0.054228 0.012222 0.099222
v 0.050220 0.013227 0.101218
v 0.067218 0.003236 0.091222
v 0.079218 -0.025770 0.072229
v 0.027234 -0.034771 0.044226
v 0.064224 -0.025770 0.076222
v 0.060227 -0.025770 0.077221
v 0.056220 -0.025770 0.078219
v 0.085218 -0.011766 0.078219
v -0.008766 0.035228 -0.017771
v -0.012762 -0.034771 -0.012767
v 0.004236 0.044229 -0.008762
v 0.013230 0.044229 0.000236
v 0.084227 0.026226 0.046222
v 0.030239 0.044229 0.023235
v 0.080220 0.026226 0.051226
v 0.058224 0.026226 0.078219
v 0.049218 0.020226 0.096226
v 0.049218 0.022228 0.093219
v 0.040224 0.017225 0.102229
v 0.048228 0.015222 0.102229
v 0.052224 0.022228 0.090224
v 0.054228 0.025221 0.084222
v 0.048228 0.014225 0.102229
v 0.048228 0.012222 0.101218
v 0.064224 -0.003770 0.088227
v 0.042228 -0.001767 0.095228
v 0.058224 -0.017767 0.082225
v 0.055218 -0.024765 0.079218
v -0.008766 -0.034771 0.017233
v 0.054228 -0.025770 0.078219
v 0.031230 -0.012771 0.091222
v 0.034235 -0.012771 0.091222
v -0.012762 0.035228 -0.012767
v -0.012762 0.039225 -0.008762
v -0.008766 0.039225 -0.012767
v -0.003768 0.044229 -0.008762
v -0.017771 -0.034771 -0.003770
v 0.030239 0.044229 0.026230
v 0.056220 0.026226 0.080228
v 0.054228 0.026226 0.082225
v 0.023237 0.044229 0.030236
v 0.031230 0.013227 0.097225
v 0.031230 0.008224 0.102229
v 0.009234 0.044229 0.022237
v -0.008766 0.039225 0.013239
v 0.036239 0.008224 0.102229
v 0.032232 0.006221 0.102229
v 0.045222 0.005224 0.098223
v 0.039233 -0.008765 0.092221
v 0.040224 -0.013769 0.089226
v 0.031230 -0.010768 0.093219
v -0.012762 -0.034771 0.013239
v -0.017771 0.035228 -0.003770
v -0.012762 0.039225 0.008235
v -0.003768 0.044229 0.008235
v -0.017771 -0.034771 0.004229
v 0.026232 0.044229 0.030236
v -0.012762 0.035228 0.013239
v 0.031230 0.006221 0.102229
v -0.017771 0.035228 0.004229
v 0.031230 0.000236 0.099222
vn 0.8174 0.4070 0.4077
vn 0.8616 -0.2700 0.4298
vn 0.8892 -0.3237 0.3234
vn 0.9136 -0.4067 -0.0000
vn 1.0000 -0.0000 -0.0000
vn 0.8160 0.4089 0.4086
vn 0.7706 0.1536 0.6186
vn 0.7990 -0.0000 0.6013
vn 0.8297 -0.2490 0.4995
vn 0.8298 -0.2493 0.4992
vn 0.6326 0.5848 0.5078
vn 0.4258 -0.6393 0.6403
vn 0.4266 -0.6398 0.6393
vn 0.4065 -0.4083 0.8174
vn 0.2554 -0.4751 0.8420
vn 0.6648 -0.7470 -0.0000
vn 0.7921 -0.5049 -0.3431
vn 0.6067 -0.2415 -0.7574
vn 0.5777 -0.0000 -0.8162
vn 0.6293 0.5901 0.5058
vn 0.6287 0.5903 0.5062
vn 0.6275 0.5901 0.5079
vn 0.6251 0.5917 0.5090
vn 0.6251 0.5887 0.5125
vn 0.6266 0.5069 0.5920
vn 0.6253 0.4758 0.6186
vn 0.6251 0.4646 0.6272
vn 0.7059 -0.0000 0.7083
vn 0.6255 0.5918 0.5085
vn 0.4086 -0.4072 0.8168
vn 0.2334 -0.4657 0.8536
vn 0.2695 -0.5377 0.7989
vn 0.2701 -0.5383 0.7983
vn 0.4229 -0.6386 0.6429
vn 0.3333 -0.6644 0.6689
vn 0.0907 -0.9791 0.1820
vn 0.1962 -0.9806 -0.0000
vn 0.4052 -0.4085 0.8179
vn 0.2343 -0.4644 0.8541
vn 0.2330 -0.4653 0.8539
vn 0.2330 -0.4654 0.8539
vn 0.2507 -0.9551 -0.1578
vn 0.4085 -0.8162 -0.4086
vn -0.0000 -0.0000 -1.0000
vn -0.0000 -1.0000 -0.0000
vn 0.6061 0.2044 -0.7687
vn 0.6089 0.2291 -0.7594
vn 0.8179 0.5259 -0.2335
vn 0.8411 0.5409 -0.0000
vn 0.6302 0.5899 0.5049
vn 0.6294 0.5901 0.5056
vn 0.6283 0.5906 0.5064
vn 0.6258 0.5919 0.5081
vn 0.6253 0.5920 0.5084
vn 0.6251 0.5922 0.5085
vn 0.6251 0.5922 0.5086
vn 0.6231 0.5938 0.5090
vn 0.6229 0.5940 0.5091
vn 0.6248 0.5878 0.5139
vn 0.6248 0.5925 0.5086
vn 0.6156 0.4912 0.6162
vn 0.4046 -0.1712 0.8983
vn 0.3601 -0.2638 0.8948
vn 0.3578 -0.2680 0.8945
vn 0.3384 -0.3015 0.8914
vn 0.2387 -0.4531 0.8589
vn 0.2329 -0.4616 0.8560
vn 0.2686 -0.5375 0.7993
vn 0.2329 -0.4653 0.8540
vn 0.2325 -0.4652 0.8541
vn 0.0712 -0.9747 0.2117
vn 0.0603 -0.9722 0.2264
vn 0.0572 -0.9718 0.2287
vn 0.0570 -0.9718 0.2288
vn -0.0000 -0.9667 0.2560
vn 0.2314 -0.4647 0.8547
vn 0.2310 -0.4640 0.8552
vn -0.7814 -0.0000 -0.6240
vn -0.0000 0.7074 -0.7068
vn 0.1007 0.7258 -0.6805
vn 0.3381 0.8783 -0.3380
vn 0.4019 0.8546 -0.3288
vn 0.7073 0.7070 -0.0000
vn 0.3824 0.8797 -0.2828
vn 0.3163 0.9486 -0.0000
vn 0.7092 0.6297 0.3170
vn 0.7309 0.6096 0.3069
vn 0.7805 0.5902 0.2060
vn 0.6250 0.5991 0.5005
vn 0.6248 0.5927 0.5083
vn 0.6210 0.5983 0.5064
vn 0.6208 0.5989 0.5059
vn 0.6114 0.6071 0.5076
vn 0.6103 0.6082 0.5076
vn 0.3846 0.7683 0.5117
vn -0.0000 0.8742 0.4855
vn -0.0000 -0.0000 1.0000
vn 0.5354 0.2678 0.8010
vn 0.6066 0.6119 0.5076
vn 0.6034 0.6149 0.5077
vn 0.4481 -0.0000 0.8940
vn 0.4395 -0.0313 0.8977
vn 0.2216 -0.4391 0.8707
vn 0.2326 -0.4610 0.8564
vn 0.2305 -0.4642 0.8552
vn 0.2308 -0.4642 0.8551
vn 0.2306 -0.4645 0.8550
vn 0.2298 -0.4651 0.8549
vn 0.2297 -0.4651 0.8549
vn 0.2294 -0.4657 0.8547
vn 0.2233 -0.4975 0.8382
vn -0.2491 -0.8688 0.4279
vn -0.3179 -0.8480 0.4240
vn 0.1968 -0.5839 0.7876
vn 0.1959 -0.5858 0.7864
vn 0.0073 -0.7010 0.7131
vn -0.0000 -0.7072 0.7070
vn -0.6626 0.5301 -0.5291
vn -0.5304 0.6623 -0.5292
vn -0.2713 0.7520 -0.6008
vn -0.8737 -0.0000 -0.4864
vn -0.0000 1.0000 -0.0000
vn 0.2443 0.9498 0.1956
vn 0.2430 0.9496 0.1980
vn 0.4110 0.8142 0.4100
vn 0.6086 0.6101 0.5073
vn 0.2148 0.9528 0.2143
vn 0.4461 0.7449 0.4961
vn 0.2643 0.8614 0.4337
vn -0.0155 0.9419 0.3354
vn -0.1339 0.9171 0.3756
vn -0.5777 0.5772 0.5771
vn -0.2216 0.8947 0.3879
vn -0.4364 0.7877 0.4349
vn -0.5648 0.6732 0.4773
vn 0.4109 0.8143 0.4100
vn 0.2199 -0.4393 0.8710
vn 0.2203 -0.4409 0.8701
vn 0.2282 -0.4643 0.8558
vn 0.2299 -0.4647 0.8551
vn 0.2298 -0.4648 0.8551
vn 0.2282 -0.4644 0.8557
vn 0.2276 -0.4650 0.8556
vn 0.2294 -0.4654 0.8548
vn 0.2292 -0.4657 0.8548
vn 0.2283 -0.4664 0.8546
vn 0.2194 -0.4760 0.8517
vn 0.0112 -0.6975 0.7165
vn -0.4770 -0.7380 0.4773
vn -0.0000 -0.7060 0.7082
vn -0.6699 -0.5242 0.5258
vn -0.7854 0.4381 -0.4373
vn -0.4374 0.7863 -0.4364
vn -0.6238 0.7816 -0.0000
vn -0.4861 0.8739 -0.0000
vn -1.0000 -0.0000 -0.0000
vn 0.2144 0.9529 0.2145
vn 0.2148 0.9529 0.2143
vn -0.0000 0.9450 0.3272
vn -0.6061 0.6312 0.4840
vn -0.6252 0.6098 0.4872
vn -0.7058 0.5010 0.5009
vn -0.8605 0.1749 0.4785
vn -0.8944 -0.0000 0.4472
vn -0.4234 0.8162 0.3932
vn -0.4532 0.8147 0.3619
vn -0.0000 -0.4489 0.8936
vn 0.2203 -0.4671 0.8563
vn 0.2236 -0.4669 0.8556
vn 0.2237 -0.4677 0.8551
vn -0.8003 -0.2871 0.5264
vn -0.8116 -0.2623 0.5220
vn -0.8681 -0.1162 0.4827
vn -0.7467 0.5197 0.4152
s 0
f 1//1 2//1 3//1
f 1//2 3//2 4//2
f 1//3 4//3 5//3
f 1//4 5//4 15//4 6//4
f 1//5 6//5 18//5 42//5 19//5 7//5 2//5
f 2//6 7//6 3//6
f 3//7 8//7 9//7
f 3//8 9//8 10//8
f 3//9 10//9 11//9
f 3//10 11//10 4//10
f 3//11 7//11 8//11
f 4//12 12//12 13//12
f 4//13 13//13 5//13
f 4//14 11//14 28//14 14//14
f 4//15 14//15 12//15
f 5//16 13//16 16//16 15//16
f 6//17 15//17 16//17
f 6//18 16//18 17//18
f 6//19 17//19 38//19 18//19
f 7//20 19//20 20//20
f 7//21 20//21 21//21
f 7//22 21//22 8//22
f 8//23 22//23 23//23
f 8//24 23//24 24//24
f 8//25 24//25 25//25
f 8//26 25//26 26//26
f 8//27 26//27 27//27
f 8//28 27//28 28//28 10//28 9//28
f 8//29 21//29 22//29
f 10//30 28//30 11//30
f 12//31 14//31 29//31
f 12//32 29//32 30//32
f 12//33 30//33 31//33
f 12//34 31//34 13//34
f 13//35 31//35 30//35
f 13//36 30//36 32//36
f 13//37 32//37 35//37 16//37
f 14//38 28//38 27//38
f 14//39 27//39 33//39
f 14//40 33//40 34//40
f 14//41 34//41 29//41
f 16//42 35//42 36//42
f 16//43 36//43 17//43
f 17//44 37//44 59//44 38//44
f 17//45 36//45 35//45 32//45 54//45 79//45 102//45 106//45 87//45 60//45 37//45
f 18//46 38//46 39//46
f 18//47 39//47 40//47
f 18//48 40//48 41//48
f 18//49 41//49 42//49
f 19//50 42//50 43//50
f 19//51 43//51 20//51
f 20//52 43//52 21//52
f 21//53 43//53 44//53
f 21//54 44//54 22//54
f 22//55 45//55 46//55
f 22//56 46//56 23//56
f 22//55 44//55 45//55
f 23//57 47//57 48//57
f 23//58 48//58 49//58
f 23//59 49//59 24//59
f 23//60 46//60 47//60
f 24//61 49//61 50//61
f 24//62 50//62 51//62
f 24//63 51//63 25//63
f 25//64 51//64 26//64
f 26//65 51//65 27//65
f 27//66 51//66 52//66
f 27//67 52//67 33//67
f 29//68 53//68 30//68
f 29//69 34//69 33//69
f 29//70 33//70 53//70
f 30//71 53//71 32//71
f 32//72 53//72 55//72
f 32//73 55//73 56//73
f 32//74 56//74 57//74
f 32//75 57//75 80//75 54//75
f 33//76 58//76 53//76
f 33//77 52//77 58//77
f 37//78 60//78 83//78 59//78
f 38//79 59//79 86//79 61//79
f 38//80 61//80 39//80
f 39//81 61//81 62//81
f 39//82 62//82 40//82
f 40//83 63//83 41//83
f 40//84 62//84 64//84
f 40//85 64//85 88//85 63//85
f 41//86 63//86 44//86
f 41//87 44//87 43//87
f 41//88 43//88 42//88
f 44//89 63//89 65//89
f 44//90 65//90 46//90
f 44//55 46//55 45//55
f 46//91 66//91 47//91
f 46//92 65//92 66//92
f 47//93 66//93 48//93
f 48//94 66//94 71//94 49//94
f 49//95 67//95 68//95
f 49//96 68//96 69//96
f 49//97 69//97 93//97 109//97 97//97 96//97 73//97 70//97
f 49//98 70//98 50//98
f 49//99 71//99 72//99
f 49//100 72//100 67//100
f 50//101 70//101 73//101
f 50//102 73//102 51//102
f 51//103 73//103 74//103
f 51//104 74//104 52//104
f 52//105 74//105 75//105
f 52//106 75//106 58//106
f 53//107 58//107 75//107
f 53//108 75//108 76//108
f 53//109 76//109 77//109
f 53//110 77//110 78//110
f 53//111 78//111 55//111
f 54//112 80//112 81//112
f 54//113 81//113 79//113
f 55//114 78//114 56//114
f 56//115 78//115 57//115
f 57//116 78//116 82//116
f 57//117 82//117 81//117 80//117
f 59//118 83//118 84//118
f 59//119 84//119 85//119
f 59//120 85//120 86//120
f 60//121 87//121 103//121 83//121
f 61//122 86//122 105//122 94//122 91//122 107//122 88//122 64//122 62//122
f 63//123 88//123 65//123
f 65//124 88//124 66//124
f 66//125 89//125 72//125
f 66//126 72//126 71//126
f 66//127 88//127 89//127
f 67//128 72//128 68//128
f 68//129 72//129 90//129
f 68//130 90//130 91//130
f 68//131 91//131 69//131
f 69//132 92//132 93//132
f 69//133 91//133 94//133
f 69//134 94//134 95//134
f 69//135 95//135 92//135
f 72//136 89//136 90//136
f 73//137 96//137 74//137
f 74//138 96//138 97//138
f 74//139 97//139 98//139
f 74//140 98//140 75//140
f 75//141 98//141 76//141
f 76//142 98//142 97//142
f 76//143 97//143 99//143
f 76//144 99//144 77//144
f 77//145 99//145 78//145
f 78//146 99//146 100//146
f 78//147 100//147 101//147
f 78//148 101//148 82//148
f 79//149 81//149 102//149
f 81//150 82//150 101//150
f 81//151 101//151 102//151
f 83//152 103//152 84//152
f 84//153 86//153 85//153
f 84//154 103//154 110//154 104//154
f 84//155 104//155 105//155 86//155
f 87//156 106//156 110//156 103//156
f 88//157 107//157 90//157
f 88//158 90//158 89//158
f 90//159 107//159 91//159
f 92//160 95//160 104//160
f 92//161 104//161 108//161
f 92//162 108//162 93//162
f 93//163 108//163 110//163
f 93//164 110//164 106//164 109//164
f 94//165 105//165 95//165
f 95//166 105//166 104//166
f 97//167 109//167 111//167
f 97//168 111//168 101//168
f 97//169 101//169 99//169
f 99//170 101//170 100//170
f 101//171 111//171 102//171
f 102//172 111//172 109//172
f 102//173 109//173 106//173
f 104//174 110//174 108//174
