# Blender 4.3.2
# www.blender.org
o link_4_collision.001
v 0.050236 0.014229 0.102229
v 0.054229 0.012228 0.100226
v 0.093227 -0.009769 0.077231
v 0.049230 0.014229 0.102229
v 0.095224 -0.007768 0.102229
v 0.101222 -0.010767 0.102229
v 0.106229 -0.014769 0.089226
v 0.104224 -0.013771 0.089226
v 0.096222 -0.010767 0.081230
v 0.069228 0.004229 0.095228
v 0.105223 -0.013771 0.094227
v 0.106229 -0.014769 0.097228
v 0.106229 -0.015767 0.085230
v 0.105223 -0.014769 0.085230
v 0.106229 -0.017768 0.085230
v 0.093227 -0.017768 0.073231
v 0.093227 -0.015767 0.074230
v 0.093227 -0.011770 0.076229
v 0.092229 -0.015767 0.074230
v 0.092229 -0.017768 0.073231
v 0.083228 -0.025771 0.071229
v 0.080225 -0.019769 0.075231
v 0.083228 -0.012768 0.078229
v 0.084226 -0.006770 0.081230
v 0.046235 0.011226 0.101227
v 0.037234 -0.009769 0.092227
v 0.043232 0.004229 0.098226
v 0.065234 0.002228 0.091226
v 0.062232 0.006226 0.094227
v 0.052232 0.012228 0.100226
v 0.044230 0.010227 0.101227
v 0.042233 0.009229 0.101227
v 0.035230 -0.010767 0.092227
v 0.033233 -0.000771 0.098226
v 0.032234 0.004229 0.101227
v 0.031229 -0.012768 0.092227
v 0.031229 -0.001774 0.098226
v 0.031229 0.005227 0.102229
v 0.039231 0.009229 0.102229
v 0.031229 -0.008771 0.102229
v 0.031229 -0.012768 0.097228
v 0.040229 -0.017768 0.102229
v 0.054229 -0.025771 0.102229
v 0.097228 -0.025771 0.102229
v 0.054229 -0.025771 0.079231
v 0.057232 -0.025771 0.078229
v 0.068229 -0.025771 0.075231
v 0.050236 -0.021770 0.082232
v 0.070226 -0.024769 0.075231
v 0.054229 -0.019769 0.082232
v 0.074227 -0.022768 0.075231
v 0.056234 -0.018771 0.082232
v 0.102228 -0.021770 0.102229
v 0.097228 -0.025771 0.085230
v 0.102228 -0.021770 0.085230
v 0.084226 -0.025771 0.071229
v 0.102228 -0.011770 0.102229
v 0.106229 -0.017768 0.097228
v 0.105223 -0.013771 0.097228
vn 0.4392 0.8982 -0.0216
vn 0.1150 0.8079 -0.5779
vn -0.0000 0.7214 -0.6925
vn -0.0000 -0.0000 1.0000
vn 0.4401 0.8916 -0.1063
vn 0.4449 0.8897 -0.1025
vn 0.4435 0.8902 -0.1040
vn 0.4408 0.8913 -0.1063
vn 0.4401 0.8916 -0.1064
vn 0.4400 0.8916 -0.1068
vn 0.4399 0.8917 -0.1069
vn 0.4438 0.8893 -0.1104
vn 0.4432 0.8897 -0.1094
vn 0.4450 0.8885 -0.1120
vn 0.5054 0.8600 -0.0701
vn 0.7045 0.7097 -0.0000
vn 1.0000 -0.0000 -0.0000
vn 0.6937 0.6988 -0.1746
vn 0.6007 0.6051 -0.5226
vn 0.6034 0.3569 -0.7131
vn 0.6782 -0.0000 -0.7349
vn 0.6036 0.3560 -0.7134
vn 0.6034 0.3568 -0.7132
vn -0.0010 0.4476 -0.8943
vn -0.0000 0.4474 -0.8943
vn -0.2251 0.4657 -0.8558
vn -0.0000 0.4465 -0.8948
vn -0.1941 0.4380 -0.8778
vn -0.2250 0.4601 -0.8589
vn -0.2261 0.4638 -0.8566
vn -0.2292 0.4658 -0.8547
vn -0.2297 0.4652 -0.8549
vn -0.2296 0.4653 -0.8548
vn -0.2299 0.4648 -0.8551
vn -0.2299 0.4649 -0.8550
vn -0.2259 0.4706 -0.8529
vn -0.2262 0.4704 -0.8530
vn -0.1942 0.5125 -0.8364
vn -0.2162 0.4827 -0.8486
vn -0.2219 0.4792 -0.8492
vn -0.0943 0.6300 -0.7708
vn -0.2234 0.5015 -0.8358
vn -0.2321 0.4658 -0.8539
vn -0.2329 0.4659 -0.8536
vn -0.2330 0.4659 -0.8536
vn -0.2319 0.4654 -0.8542
vn -0.2329 0.4658 -0.8537
vn -0.2330 0.4658 -0.8536
vn -0.2330 0.4658 -0.8537
vn -0.3483 0.4652 -0.8138
vn -1.0000 -0.0000 -0.0000
vn -0.2674 0.5347 -0.8016
vn -0.6154 -0.6156 0.4921
vn -0.4961 -0.8679 0.0252
vn -0.4921 -0.8705 -0.0000
vn -0.0000 -1.0000 -0.0000
vn -0.2949 0.3622 -0.8842
vn -0.2348 0.4509 -0.8612
vn -0.2649 0.4099 -0.8728
vn -0.2311 0.4604 -0.8571
vn -0.2309 0.4609 -0.8569
vn -0.2314 0.4620 -0.8562
vn -0.2305 0.4627 -0.8560
vn -0.2307 0.4614 -0.8567
vn -0.2312 0.4624 -0.8560
vn -0.2307 0.4632 -0.8557
vn -0.2303 0.4638 -0.8555
vn -0.2291 0.4581 -0.8589
vn -0.2293 0.4569 -0.8594
vn 0.6249 -0.7807 -0.0000
vn 0.5405 -0.6753 -0.5019
vn 0.5870 -0.5009 -0.6360
vn 0.5774 -0.5773 -0.5774
vn -0.0000 0.2428 -0.9701
vn 0.7072 -0.7071 -0.0000
vn 0.7808 -0.0000 0.6247
vn 0.6991 0.7015 0.1386
vn -0.2674 0.5347 -0.8017
vn -0.2673 0.5346 -0.8017
vn -0.2653 0.5326 -0.8037
vn 0.6979 0.7031 0.1362
vn 0.6003 0.7998 -0.0000
s 0
f 1//1 5//1 2//1
f 1//2 2//2 3//2
f 1//3 3//3 4//3
f 1//4 4//4 39//4 38//4 40//4 42//4 43//4 44//4 53//4 57//4 6//4 5//4
f 2//5 5//5 10//5
f 5//6 6//6 7//6
f 5//7 7//7 8//7
f 5//8 8//8 9//8
f 5//9 9//9 10//9
f 2//10 10//10 9//10
f 2//11 9//11 3//11
f 3//12 9//12 7//12
f 9//13 8//13 7//13
f 3//14 7//14 14//14
f 7//15 6//15 11//15
f 7//16 11//16 59//16 12//16
f 7//17 12//17 58//17 15//17 13//17
f 7//18 13//18 14//18
f 3//19 14//19 13//19
f 3//20 13//20 18//20
f 13//21 15//21 16//21
f 13//22 16//22 17//22
f 13//23 17//23 18//23
f 3//24 18//24 19//24
f 18//25 17//25 19//25
f 3//26 19//26 23//26 24//26
f 19//27 17//27 16//27 20//27
f 19//28 20//28 21//28
f 19//29 21//29 22//29
f 19//30 22//30 23//30
f 24//31 23//31 28//31
f 25//32 23//32 27//32
f 25//33 28//33 23//33
f 22//34 26//34 23//34
f 23//35 26//35 27//35
f 24//36 28//36 29//36
f 29//37 28//37 25//37
f 3//38 29//38 30//38
f 3//39 24//39 29//39
f 29//40 25//40 30//40
f 3//41 30//41 4//41
f 4//42 30//42 25//42
f 25//43 27//43 31//43
f 31//44 27//44 32//44
f 32//45 27//45 34//45 35//45
f 27//46 26//46 33//46
f 27//47 33//47 34//47
f 35//48 34//48 37//48
f 33//47 36//47 34//47
f 34//49 36//49 37//49
f 35//50 37//50 38//50
f 38//51 37//51 36//51 41//51 40//51
f 39//52 35//52 38//52
f 40//53 41//53 42//53
f 41//54 43//54 42//54
f 36//55 45//55 43//55 41//55
f 21//56 56//56 54//56 44//56 43//56 45//56 46//56 47//56
f 46//57 45//57 36//57
f 47//58 46//58 48//58
f 46//59 36//59 48//59
f 47//60 48//60 49//60
f 49//61 48//61 50//61
f 50//62 48//62 36//62
f 22//63 50//63 52//63
f 22//64 51//64 50//64
f 51//64 49//64 50//64
f 50//65 36//65 33//65
f 50//66 33//66 26//66 52//66
f 22//67 52//67 26//67
f 21//68 49//68 51//68
f 21//68 51//68 22//68
f 21//69 47//69 49//69
f 55//70 53//70 44//70 54//70
f 55//71 54//71 56//71
f 15//72 56//72 16//72
f 15//73 55//73 56//73
f 16//74 56//74 21//74 20//74
f 15//75 58//75 53//75 55//75
f 12//76 57//76 53//76 58//76
f 6//77 57//77 12//77
f 4//78 32//78 35//78 39//78
f 4//79 31//79 32//79
f 4//80 25//80 31//80
f 6//81 12//81 59//81
f 6//82 59//82 11//82
