# Blender 4.3.2
# www.blender.org
o link_2_collision
v 0.014802 0.037808 0.014808
v 0.014802 0.037808 -0.015192
v 0.011806 0.037808 0.014808
v 0.006804 0.024806 0.028804
v 0.022799 0.029806 0.022807
v 0.029808 0.029806 0.006803
v 0.029808 0.029806 -0.007187
v 0.022799 0.029806 -0.022187
v 0.006804 0.037808 -0.022187
v 0.009799 0.037808 0.011807
v 0.008801 0.035804 0.013804
v 0.002800 0.021804 0.027805
v -0.000195 0.017803 0.029808
v 0.006804 0.023808 0.029808
v 0.022799 -0.030188 0.022807
v 0.029808 -0.030188 0.006803
v 0.029808 -0.030188 -0.007187
v 0.022799 -0.030188 -0.022187
v 0.006804 0.029806 -0.030192
v -0.012196 0.037808 -0.022187
v -0.000195 0.037808 -0.003187
v 0.006804 0.035804 0.010803
v 0.000804 0.024806 0.019806
v -0.038185 -0.013185 0.022807
v -0.028191 -0.008186 0.029808
v 0.006804 -0.030188 0.029808
v 0.014802 -0.037192 0.014808
v 0.006804 -0.037192 0.022807
v 0.014802 -0.037192 -0.015192
v 0.006804 -0.037192 -0.022187
v 0.006804 -0.030188 -0.030192
v -0.015201 0.029806 -0.030192
v -0.021192 0.029806 -0.022187
v -0.015201 0.034805 -0.021188
v -0.011198 0.037808 -0.020190
v -0.016200 0.024806 -0.006188
v -0.055189 -0.013185 -0.003187
v -0.049188 -0.022186 0.020805
v -0.030188 -0.010190 0.029808
v -0.030188 -0.030188 0.029808
v -0.015201 -0.037192 0.022807
v -0.015201 -0.037192 -0.022187
v -0.015201 -0.030188 -0.030192
v -0.060191 -0.007188 -0.022187
v -0.053192 -0.000191 -0.022187
v -0.048190 0.004801 -0.022187
v -0.034192 0.017803 -0.022187
v -0.057185 -0.010190 -0.011186
v -0.063186 -0.018185 -0.007187
v -0.066191 -0.022186 -0.005190
v -0.045184 -0.030188 0.022807
v -0.047191 -0.022186 0.022807
v -0.030188 -0.037192 0.014808
v -0.030188 -0.037192 -0.015192
v -0.045184 -0.030188 -0.022187
v -0.053192 -0.022186 -0.022187
v -0.060191 -0.015190 -0.022187
v -0.072192 -0.022186 -0.015192
v -0.060191 -0.007188 -0.021188
v -0.057185 -0.004185 -0.021188
v -0.065183 -0.015190 -0.015192
v -0.069187 -0.020189 -0.013189
v -0.071184 -0.022186 -0.013189
v -0.060191 -0.008186 -0.019192
vn -0.0000 1.0000 -0.0000
vn -0.0000 0.7326 0.6806
vn 0.0328 0.7228 0.6903
vn 0.5541 0.7963 0.2427
vn 0.4705 0.8824 -0.0000
vn 0.5590 0.7870 -0.2612
vn 0.3983 0.7962 -0.4554
vn -0.5973 0.6955 0.3994
vn -0.5964 0.6831 0.4214
vn -0.6083 0.6691 0.4270
vn -0.5198 0.6058 0.6023
vn 0.0426 0.7085 0.7044
vn -0.6100 0.6756 0.4141
vn 0.9160 -0.0000 0.4012
vn 0.4010 -0.0000 0.9161
vn 1.0000 -0.0000 -0.0000
vn 0.9060 -0.0000 -0.4233
vn 0.4476 -0.0000 -0.8943
vn 0.3336 0.6667 -0.6665
vn -0.0000 0.7072 -0.7070
vn -0.5981 0.6952 0.3987
vn -0.6008 0.6923 0.3998
vn -0.6155 0.6734 0.4095
vn -0.6198 0.6711 0.4067
vn -0.6214 0.6698 0.4065
vn -0.6210 0.6692 0.4081
vn -0.6209 0.6689 0.4087
vn -0.0000 -0.0000 1.0000
vn 0.5071 -0.8328 0.2221
vn 0.2957 -0.6753 0.6756
vn 0.3723 -0.8502 0.3722
vn 0.4229 -0.9062 -0.0000
vn 0.5126 -0.8245 -0.2395
vn 0.3646 -0.8327 -0.4168
vn 0.3130 -0.7148 -0.6254
vn -0.0000 -0.0000 -1.0000
vn -0.5951 0.6690 -0.4453
vn -0.6453 0.7255 0.2393
vn -0.6187 0.7221 0.3094
vn -0.6201 0.6711 0.4064
vn -0.6121 0.6844 0.3961
vn -0.6209 0.6707 0.4058
vn -0.6209 0.6705 0.4061
vn -0.6217 0.6695 0.4066
vn -0.6211 0.6682 0.4096
vn -0.6195 0.6172 0.4850
vn -0.0000 -0.7070 0.7073
vn -0.0000 -1.0000 -0.0000
vn -0.0000 -0.7526 -0.6585
vn -0.1752 -0.0000 -0.9845
vn -0.5778 0.5781 -0.5762
vn -0.5787 0.5798 -0.5735
vn -0.6048 0.6512 -0.4584
vn -0.6049 0.6551 -0.4527
vn -0.6317 0.6842 0.3645
vn -0.6215 0.6703 0.4055
vn -0.6216 0.6701 0.4057
vn -0.6216 0.6699 0.4060
vn -0.6217 0.6698 0.4060
vn -0.6218 0.6697 0.4061
vn -0.8055 -0.2712 0.5269
vn -0.6972 -0.1749 0.6952
vn -0.6095 0.5092 0.6077
vn -0.3807 -0.0000 0.9247
vn -0.4206 -0.1055 0.9011
vn -0.2045 -0.8754 0.4380
vn -0.2093 -0.8958 0.3920
vn -0.2045 -0.8754 -0.4381
vn -0.1731 -0.7412 -0.6485
vn -0.2498 -0.2499 -0.9355
vn -0.2498 -0.2498 -0.9355
vn -0.5036 -0.0000 -0.8640
vn -0.7808 0.6248 -0.0000
vn -0.7070 0.7072 -0.0000
vn -0.7068 0.7074 0.0025
vn -0.7064 0.7078 0.0056
vn -0.6265 0.6712 0.3963
vn -0.6228 0.6705 0.4033
vn -0.6219 0.6701 0.4053
vn -0.6219 0.6698 0.4057
vn -0.6220 0.6697 0.4057
vn -0.6295 0.6651 0.4017
vn -0.6469 0.6469 0.4037
vn -0.7944 -0.3509 0.4958
vn -0.6709 -0.6602 0.3378
vn -0.3860 -0.9189 0.0809
vn -0.3364 -0.9417 -0.0000
vn -0.3285 -0.9194 -0.2164
vn -0.3265 -0.3267 -0.8869
vn -0.6661 0.6661 0.3354
vn -0.6660 0.6666 0.3348
vn -0.6666 0.6667 0.3333
vn -0.6663 0.6669 0.3335
vn -0.6569 0.6680 0.3498
vn -0.6620 0.6670 0.3418
s 0
f 1//1 2//1 9//1 20//1 35//1 21//1 10//1 3//1
f 1//2 3//2 4//2
f 1//3 4//3 5//3
f 1//4 5//4 6//4
f 1//5 6//5 7//5 2//5
f 2//6 7//6 8//6
f 2//7 8//7 9//7
f 3//8 10//8 11//8
f 3//9 11//9 4//9
f 4//10 12//10 13//10
f 4//11 13//11 14//11
f 4//12 14//12 5//12
f 4//13 11//13 12//13
f 5//14 15//14 16//14 6//14
f 5//15 14//15 26//15 15//15
f 6//16 16//16 17//16 7//16
f 7//17 17//17 18//17 8//17
f 8//18 18//18 31//18 19//18
f 8//19 19//19 9//19
f 9//20 19//20 32//20 20//20
f 10//21 21//21 11//21
f 11//22 21//22 22//22
f 11//23 22//23 12//23
f 12//24 22//24 23//24
f 12//25 23//25 24//25
f 12//26 24//26 13//26
f 13//27 24//27 25//27
f 13//28 25//28 39//28 40//28 26//28 14//28
f 15//29 27//29 16//29
f 15//30 26//30 28//30
f 15//31 28//31 27//31
f 16//32 27//32 29//32 17//32
f 17//33 29//33 18//33
f 18//34 29//34 30//34
f 18//35 30//35 31//35
f 19//36 31//36 43//36 32//36
f 20//37 32//37 33//37
f 20//38 33//38 34//38
f 20//39 34//39 35//39
f 21//40 23//40 22//40
f 21//41 35//41 34//41
f 21//42 34//42 36//42
f 21//43 36//43 23//43
f 23//25 36//25 37//25 24//25
f 24//44 37//44 50//44 38//44
f 24//45 38//45 25//45
f 25//46 38//46 39//46
f 26//47 40//47 41//47 28//47
f 27//48 28//48 41//48 53//48 54//48 42//48 30//48 29//48
f 30//49 42//49 43//49 31//49
f 32//50 43//50 57//50 44//50
f 32//51 44//51 45//51
f 32//52 45//52 46//52
f 32//53 46//53 47//53
f 32//54 47//54 33//54
f 33//55 47//55 34//55
f 34//56 47//56 36//56
f 36//57 47//57 48//57
f 36//58 48//58 37//58
f 37//59 48//59 49//59
f 37//60 49//60 50//60
f 38//61 50//61 51//61
f 38//62 51//62 52//62
f 38//63 52//63 39//63
f 39//64 52//64 40//64
f 40//65 52//65 51//65
f 40//66 51//66 41//66
f 41//67 51//67 53//67
f 42//68 54//68 55//68
f 42//69 55//69 43//69
f 43//70 55//70 56//70
f 43//71 56//71 57//71
f 44//72 57//72 58//72
f 44//73 58//73 59//73
f 44//74 59//74 45//74
f 45//75 59//75 60//75
f 45//76 60//76 46//76
f 46//77 60//77 61//77
f 46//78 61//78 47//78
f 47//79 61//79 48//79
f 48//80 61//80 49//80
f 49//81 61//81 50//81
f 50//82 61//82 62//82
f 50//83 62//83 63//83
f 50//84 63//84 51//84
f 51//85 63//85 58//85
f 51//86 58//86 53//86
f 53//87 58//87 54//87
f 54//88 58//88 55//88
f 55//89 58//89 56//89
f 56//89 58//89 57//89
f 58//90 63//90 62//90
f 58//91 62//91 64//91
f 58//92 64//92 59//92
f 59//93 64//93 60//93
f 60//94 64//94 61//94
f 61//95 64//95 62//95
