# Blender 4.3.2
# www.blender.org
o link_6_collision
v 0.000422 -0.028578 -0.009574
v 0.000422 -0.028578 0.009418
v 0.000422 -0.023562 -0.018574
v 0.058421 -0.086562 -0.023573
v 0.063418 -0.091560 -0.023573
v 0.000422 -0.023562 0.018418
v 0.063418 -0.091560 0.023417
v 0.058421 -0.086562 0.023417
v 0.000422 -0.018564 -0.023573
v 0.063418 -0.086562 -0.028578
v 0.077422 -0.091560 -0.023573
v 0.000422 -0.018564 0.023417
v 0.077422 -0.091560 0.023417
v 0.063418 -0.086562 0.028422
v 0.010424 -0.023562 -0.028578
v 0.000422 -0.009572 -0.028578
v 0.077422 -0.086562 -0.028578
v 0.010424 -0.023562 0.028422
v 0.000422 -0.009572 0.028422
v 0.077422 -0.086562 0.028422
v 0.000422 0.009416 -0.028578
v 0.077422 0.086406 -0.028578
v 0.000422 0.009416 0.028422
v 0.077422 0.086406 0.028422
v 0.000422 0.018408 -0.023573
v 0.010424 0.023406 -0.028578
v 0.063418 0.086406 -0.028578
v 0.077422 0.091404 -0.023573
v 0.010424 0.023406 0.028422
v 0.000422 0.018408 0.023417
v 0.077422 0.091404 0.023417
v 0.063418 0.086406 0.028422
v 0.000422 0.023406 -0.018574
v 0.058421 0.086406 -0.023573
v 0.063418 0.091404 -0.023573
v 0.058421 0.086406 0.023417
v 0.000422 0.023406 0.018418
v 0.063418 0.091404 0.023417
v 0.000422 0.028422 -0.009574
v 0.000422 0.028422 0.009418
vn -1.0000 -0.0000 -0.0000
vn -0.7038 -0.6205 -0.3458
vn -0.7071 -0.7071 -0.0011
vn -0.7070 -0.7072 -0.0000
vn -0.7071 -0.7071 0.0011
vn -0.7038 -0.6205 0.3458
vn -0.6383 -0.5444 -0.5443
vn -0.5777 -0.5776 -0.5768
vn -0.6058 -0.5168 -0.6049
vn -0.0000 -1.0000 -0.0000
vn -0.0000 -0.7076 -0.7066
vn -0.6383 -0.5444 0.5443
vn -0.0000 -0.7076 0.7066
vn -0.5777 -0.5776 0.5768
vn -0.6058 -0.5168 0.6049
vn -0.5726 -0.4817 -0.6634
vn -0.5624 -0.4021 -0.7225
vn -0.0000 -0.0000 -1.0000
vn 1.0000 -0.0000 -0.0000
vn -0.5726 -0.4817 0.6634
vn -0.5624 -0.4021 0.7225
vn -0.0000 -0.0000 1.0000
vn -0.5624 0.4021 -0.7225
vn -0.0000 0.7076 -0.7066
vn -0.5624 0.4021 0.7225
vn -0.0000 0.7076 0.7066
vn -0.6383 0.5444 -0.5443
vn -0.6058 0.5168 -0.6049
vn -0.5726 0.4817 -0.6634
vn -0.5777 0.5776 -0.5768
vn -0.0000 1.0000 -0.0000
vn -0.5726 0.4817 0.6634
vn -0.6058 0.5168 0.6049
vn -0.6383 0.5444 0.5443
vn -0.5777 0.5776 0.5768
vn -0.7038 0.6205 -0.3458
vn -0.7071 0.7071 -0.0011
vn -0.7070 0.7072 -0.0000
vn -0.7071 0.7071 0.0011
vn -0.7038 0.6205 0.3458
s 0
f 1//1 2//1 6//1 12//1 19//1 23//1 30//1 37//1 40//1 39//1 33//1 25//1 21//1 16//1 9//1 3//1
f 1//2 3//2 4//2
f 1//3 4//3 5//3
f 1//4 5//4 7//4 2//4
f 2//5 7//5 8//5
f 2//6 8//6 6//6
f 3//7 9//7 4//7
f 4//8 10//8 5//8
f 4//9 9//9 10//9
f 5//10 11//10 13//10 7//10
f 5//11 10//11 17//11 11//11
f 6//12 8//12 12//12
f 7//13 13//13 20//13 14//13
f 7//14 14//14 8//14
f 8//15 14//15 12//15
f 9//16 15//16 10//16
f 9//17 16//17 15//17
f 10//18 15//18 16//18 21//18 26//18 27//18 22//18 17//18
f 11//19 17//19 22//19 28//19 31//19 24//19 20//19 13//19
f 12//20 14//20 18//20
f 12//21 18//21 19//21
f 14//22 20//22 24//22 32//22 29//22 23//22 19//22 18//22
f 21//23 25//23 26//23
f 22//24 27//24 35//24 28//24
f 23//25 29//25 30//25
f 24//26 31//26 38//26 32//26
f 25//27 33//27 34//27
f 25//28 34//28 27//28
f 25//29 27//29 26//29
f 27//30 34//30 35//30
f 28//31 35//31 38//31 31//31
f 29//32 32//32 30//32
f 30//33 32//33 36//33
f 30//34 36//34 37//34
f 32//35 38//35 36//35
f 33//36 39//36 34//36
f 34//37 39//37 35//37
f 35//38 39//38 40//38 38//38
f 36//39 38//39 40//39
f 36//40 40//40 37//40
