mtllib material.mtl
usemtl material_0
v -0.28900000 -0.08600000 0.03750000
v -0.28900000 -0.08600000 0.03750000
v -0.28900000 -0.08300000 0.03750000
v -0.28900000 -0.08300000 0.03750000
v -0.28900000 0.08300000 0.03750000
v -0.28900000 0.08300000 0.03750000
v -0.28900000 0.08600000 0.03750000
v -0.28900000 0.08600000 0.03750000
v -0.28739200 -0.08600000 0.03150000
v -0.28739200 -0.08600000 0.04350000
v -0.28739200 -0.08300000 0.03150000
v -0.28739200 -0.08300000 0.04350000
v -0.28739200 0.08300000 0.03150000
v -0.28739200 0.08300000 0.04350000
v -0.28739200 0.08600000 0.03150000
v -0.28739200 0.08600000 0.04350000
v -0.28300000 -0.08600000 0.02710800
v -0.28300000 -0.08600000 0.04789200
v -0.28300000 -0.08300000 0.02710800
v -0.28300000 -0.08300000 0.04789200
v -0.28300000 0.08300000 0.02710800
v -0.28300000 0.08300000 0.04789200
v -0.28300000 0.08600000 0.02710800
v -0.28300000 0.08600000 0.04789200
v -0.27700000 -0.08600000 0.02550000
v -0.27700000 -0.08600000 0.04950000
v -0.27700000 -0.08300000 0.02550000
v -0.27700000 -0.08300000 0.04950000
v -0.27700000 0.08300000 0.02550000
v -0.27700000 0.08300000 0.04950000
v -0.27700000 0.08600000 0.02550000
v -0.27700000 0.08600000 0.04950000
v -0.27100000 -0.08600000 0.02710800
v -0.27100000 -0.08600000 0.04789200
v -0.27100000 -0.08300000 0.02710800
v -0.27100000 -0.08300000 0.04789200
v -0.27100000 0.08300000 0.02710800
v -0.27100000 0.08300000 0.04789200
v -0.27100000 0.08600000 0.02710800
v -0.27100000 0.08600000 0.04789200
v -0.26660800 -0.08600000 0.03150000
v -0.26660800 -0.08600000 0.04350000
v -0.26660800 -0.08300000 0.03150000
v -0.26660800 -0.08300000 0.04350000
v -0.26660800 0.08300000 0.03150000
v -0.26660800 0.08300000 0.04350000
v -0.26660800 0.08600000 0.03150000
v -0.26660800 0.08600000 0.04350000
v -0.26500000 -0.08600000 0.03750000
v -0.26500000 -0.08300000 0.03750000
v -0.26500000 0.08300000 0.03750000
v -0.26500000 0.08600000 0.03750000
vn -100.00000000 0.00000000 0.00000000
vn -100.00000000 0.00000000 0.00000000
vn -100.00000000 0.00000000 0.00000000
vn -100.00000000 0.00000000 0.00000000
vn -100.00000000 0.00000000 0.00000000
vn -100.00000000 0.00000000 0.00000000
vn -100.00000000 0.00000000 0.00000000
vn -100.00000000 0.00000000 0.00000000
vn -86.60253900 0.00000000 -50.00000000
vn -86.60253900 0.00000000 50.00000000
vn -86.60253900 0.00000000 -50.00000000
vn -86.60253900 0.00000000 50.00000000
vn -86.60253900 0.00000000 -50.00000000
vn -86.60253900 0.00000000 50.00000000
vn -86.60253900 0.00000000 -50.00000000
vn -86.60253900 0.00000000 50.00000000
vn -50.00000000 0.00000000 -86.60253900
vn -50.00000000 0.00000000 86.60253900
vn -50.00000000 0.00000000 -86.60253900
vn -50.00000000 0.00000000 86.60253900
vn -50.00000000 0.00000000 -86.60253900
vn -50.00000000 0.00000000 86.60253900
vn -50.00000000 0.00000000 -86.60253900
vn -50.00000000 0.00000000 86.60253900
vn 0.00000000 0.00000000 -100.00000000
vn 0.00000000 0.00000000 100.00000000
vn 0.00000000 0.00000000 -100.00000000
vn 0.00000000 0.00000000 100.00000000
vn 0.00000000 0.00000000 -100.00000000
vn 0.00000000 0.00000000 100.00000000
vn 0.00000000 0.00000000 -100.00000000
vn 0.00000000 0.00000000 100.00000000
vn 50.00000000 0.00000000 -86.60253900
vn 50.00000000 0.00000000 86.60253900
vn 50.00000000 0.00000000 -86.60253900
vn 50.00000000 0.00000000 86.60253900
vn 50.00000000 0.00000000 -86.60253900
vn 50.00000000 0.00000000 86.60253900
vn 50.00000000 0.00000000 -86.60253900
vn 50.00000000 0.00000000 86.60253900
vn 86.60253900 0.00000000 -50.00000000
vn 86.60253900 0.00000000 50.00000000
vn 86.60253900 0.00000000 -50.00000000
vn 86.60253900 0.00000000 50.00000000
vn 86.60253900 0.00000000 -50.00000000
vn 86.60253900 0.00000000 50.00000000
vn 86.60253900 0.00000000 -50.00000000
vn 86.60253900 0.00000000 50.00000000
vn 100.00000000 0.00000000 0.00000000
vn 100.00000000 0.00000000 0.00000000
vn 100.00000000 0.00000000 0.00000000
vn 100.00000000 0.00000000 0.00000000
vt -3.55000000 -3.76991200
vt -3.55000000 3.76991200
vt -3.25000000 -3.76991200
vt -3.25000000 3.76991200
vt -3.55000000 3.76991200
vt -3.55000000 -3.76991200
vt -3.25000000 3.76991200
vt -3.25000000 -3.76991200
vt -3.55000000 -3.14159300
vt -3.55000000 3.14159300
vt -3.25000000 -3.14159300
vt -3.25000000 3.14159300
vt -3.55000000 -3.14159300
vt -3.55000000 3.14159300
vt -3.25000000 -3.14159300
vt -3.25000000 3.14159300
vt -3.55000000 -2.51327400
vt -3.55000000 2.51327400
vt -3.25000000 -2.51327400
vt -3.25000000 2.51327400
vt -3.55000000 -2.51327400
vt -3.55000000 2.51327400
vt -3.25000000 -2.51327400
vt -3.25000000 2.51327400
vt -3.55000000 -1.88495600
vt -3.55000000 1.88495600
vt -3.25000000 -1.88495600
vt -3.25000000 1.88495600
vt -3.55000000 -1.88495600
vt -3.55000000 1.88495600
vt -3.25000000 -1.88495600
vt -3.25000000 1.88495600
vt -3.55000000 -1.25663700
vt -3.55000000 1.25663700
vt -3.25000000 -1.25663700
vt -3.25000000 1.25663700
vt -3.55000000 -1.25663700
vt -3.55000000 1.25663700
vt -3.25000000 -1.25663700
vt -3.25000000 1.25663700
vt -3.55000000 -0.62831900
vt -3.55000000 0.62831900
vt -3.25000000 -0.62831900
vt -3.25000000 0.62831900
vt -3.55000000 -0.62831900
vt -3.55000000 0.62831900
vt -3.25000000 -0.62831900
vt -3.25000000 0.62831900
vt -3.55000000 0.00000000
vt -3.25000000 0.00000000
vt -3.55000000 0.00000000
vt -3.25000000 0.00000000
f 11/11/11 9/9/9 3/3/3
f 3/3/3 9/9/9 1/1/1
f 4/4/4 2/2/2 12/12/12
f 12/12/12 2/2/2 10/10/10
f 12/12/12 10/10/10 20/20/20
f 20/20/20 10/10/10 18/18/18
f 20/20/20 18/18/18 28/28/28
f 28/28/28 18/18/18 26/26/26
f 28/28/28 26/26/26 36/36/36
f 36/36/36 26/26/26 34/34/34
f 36/36/36 34/34/34 44/44/44
f 44/44/44 34/34/34 42/42/42
f 44/44/44 42/42/42 50/50/50
f 50/50/50 42/42/42 49/49/49
f 50/50/50 49/49/49 43/43/43
f 43/43/43 49/49/49 41/41/41
f 43/43/43 41/41/41 35/35/35
f 35/35/35 41/41/41 33/33/33
f 35/35/35 33/33/33 27/27/27
f 27/27/27 33/33/33 25/25/25
f 27/27/27 25/25/25 19/19/19
f 19/19/19 25/25/25 17/17/17
f 19/19/19 17/17/17 11/11/11
f 11/11/11 17/17/17 9/9/9
f 15/15/15 13/13/13 8/8/8
f 8/8/8 13/13/13 6/6/6
f 7/7/7 5/5/5 16/16/16
f 16/16/16 5/5/5 14/14/14
f 16/16/16 14/14/14 24/24/24
f 24/24/24 14/14/14 22/22/22
f 24/24/24 22/22/22 32/32/32
f 32/32/32 22/22/22 30/30/30
f 32/32/32 30/30/30 40/40/40
f 40/40/40 30/30/30 38/38/38
f 40/40/40 38/38/38 48/48/48
f 48/48/48 38/38/38 46/46/46
f 48/48/48 46/46/46 52/52/52
f 52/52/52 46/46/46 51/51/51
f 52/52/52 51/51/51 47/47/47
f 47/47/47 51/51/51 45/45/45
f 47/47/47 45/45/45 39/39/39
f 39/39/39 45/45/45 37/37/37
f 39/39/39 37/37/37 31/31/31
f 31/31/31 37/37/37 29/29/29
f 31/31/31 29/29/29 23/23/23
f 23/23/23 29/29/29 21/21/21
f 23/23/23 21/21/21 15/15/15
f 15/15/15 21/21/21 13/13/13

