mtllib material.mtl
usemtl material_0
v -0.07300000 -0.10900000 -0.04992700
v -0.07300000 -0.10900000 -0.04992700
v -0.07300000 -0.10890600 -0.05078600
v -0.07300000 -0.10890600 -0.05078600
v -0.07300000 -0.10890600 -0.05078600
v -0.07300000 -0.10890600 -0.04906700
v -0.07300000 -0.10890600 -0.04906700
v -0.07300000 -0.10890600 -0.04906700
v -0.07300000 -0.10890600 -0.04906700
v -0.07300000 -0.10879100 -0.05120400
v -0.07300000 -0.10879100 -0.05120400
v -0.07300000 -0.10879100 -0.04864900
v -0.07300000 -0.10879100 -0.04864900
v -0.07300000 -0.10842700 -0.05198900
v -0.07300000 -0.10842700 -0.05198900
v -0.07300000 -0.10842700 -0.04786400
v -0.07300000 -0.10842700 -0.04786400
v -0.07300000 -0.10842700 -0.04786400
v -0.07300000 -0.10790400 -0.05267700
v -0.07300000 -0.10790400 -0.05267700
v -0.07300000 -0.10790400 -0.04717600
v -0.07300000 -0.10790400 -0.04717600
v -0.07300000 -0.10790400 -0.04717600
v -0.07300000 -0.10759000 -0.05297500
v -0.07300000 -0.10759000 -0.05297500
v -0.07300000 -0.10724500 -0.04661600
v -0.07300000 -0.10724500 -0.04661600
v -0.07300000 -0.10687400 -0.05346100
v -0.07300000 -0.10687400 -0.05346100
v -0.07300000 -0.10687400 -0.04639200
v -0.07300000 -0.10687400 -0.04639200
v -0.07300000 -0.10607000 -0.05378100
v -0.07300000 -0.10607000 -0.05378100
v -0.07300000 -0.10607000 -0.04607200
v -0.07300000 -0.10607000 -0.04607200
v -0.07300000 -0.10521700 -0.05392100
v -0.07300000 -0.10521700 -0.05392100
v -0.07300000 -0.10521700 -0.04593200
v -0.07300000 -0.10521700 -0.04593200
v -0.07300000 -0.10478300 -0.05392100
v -0.07300000 -0.10478300 -0.05392100
v -0.07300000 -0.10478300 -0.04593200
v -0.07300000 -0.10478300 -0.04593200
v -0.07300000 -0.10393000 -0.05378100
v -0.07300000 -0.10393000 -0.05378100
v -0.07300000 -0.10393000 -0.04607200
v -0.07300000 -0.10393000 -0.04607200
v -0.07300000 -0.10312600 -0.05346100
v -0.07300000 -0.10312600 -0.05346100
v -0.07300000 -0.10312600 -0.05346100
v -0.07300000 -0.10312600 -0.04639200
v -0.07300000 -0.10312600 -0.04639200
v -0.07300000 -0.10275500 -0.04661600
v -0.07300000 -0.10275500 -0.04661600
v -0.07300000 -0.10241000 -0.05297500
v -0.07300000 -0.10241000 -0.05297500
v -0.07300000 -0.10209600 -0.05267700
v -0.07300000 -0.10209600 -0.05267700
v -0.07300000 -0.10209600 -0.05267700
v -0.07300000 -0.10209600 -0.04717600
v -0.07300000 -0.10209600 -0.04717600
v -0.07300000 -0.10157300 -0.05198900
v -0.07300000 -0.10157300 -0.05198900
v -0.07300000 -0.10157300 -0.04786400
v -0.07300000 -0.10157300 -0.04786400
v -0.07300000 -0.10120900 -0.05120400
v -0.07300000 -0.10120900 -0.05120400
v -0.07300000 -0.10120900 -0.04864900
v -0.07300000 -0.10120900 -0.04864900
v -0.07300000 -0.10109400 -0.05078600
v -0.07300000 -0.10109400 -0.05078600
v -0.07300000 -0.10109400 -0.04906700
v -0.07300000 -0.10109400 -0.04906700
v -0.07300000 -0.10100000 -0.04992700
v -0.07300000 -0.10100000 -0.04992700
v -0.07300000 -0.10100000 -0.04992700
v -0.07100000 -0.10301200 -0.04971000
v -0.07100000 -0.10301200 -0.04971000
v -0.07100000 -0.10300000 -0.04992700
v -0.07100000 -0.10300000 -0.04992700
v -0.07000000 -0.10400600 -0.04981800
v -0.07000000 -0.10400600 -0.04981800
v -0.07000000 -0.10400000 -0.04992700
v -0.07000000 -0.10400000 -0.04992700
v -0.06900000 -0.10500000 -0.04992700
v -0.06900000 -0.10500000 -0.04992700
v -0.06900000 -0.10500000 -0.04992700
v -0.06900000 -0.10500000 -0.04992700
v -0.06900000 -0.10500000 -0.04992700
v -0.06900000 -0.10500000 -0.04992700
v -0.06900000 -0.10500000 -0.04992700
v -0.06900000 -0.10500000 -0.04992700
v -0.06900000 -0.10500000 -0.04992700
v -0.06900000 -0.10500000 -0.04992700
v -0.06900000 -0.10500000 -0.04992700
v -0.06900000 -0.10500000 -0.04992700
v -0.06900000 -0.10500000 -0.04992700
v -0.06900000 -0.10500000 -0.04992700
v -0.06900000 -0.10500000 -0.04992700
v -0.06900000 -0.10500000 -0.04992700
v -0.06900000 -0.10500000 -0.04992700
v -0.06900000 -0.10500000 -0.04992700
v -0.06900000 -0.10500000 -0.04992700
v -0.06900000 -0.10500000 -0.04992700
v -0.06900000 -0.10500000 -0.04992700
v -0.06900000 -0.10500000 -0.04992700
v -0.06900000 -0.10500000 -0.04992700
v -0.06900000 -0.10500000 -0.04992700
v -0.06900000 -0.10500000 -0.04992700
v -0.06900000 -0.10500000 -0.04992700
v -0.06900000 -0.10500000 -0.04992700
v -0.06900000 -0.10500000 -0.04992700
v -0.06900000 -0.10500000 -0.04992700
v -0.06900000 -0.10500000 -0.04992700
v -0.06900000 -0.10500000 -0.04992700
v -0.06900000 -0.10500000 -0.04992700
v -0.06900000 -0.10500000 -0.04992700
v -0.06900000 -0.10500000 -0.04992700
v -0.06900000 -0.10500000 -0.04992700
v -0.08400000 -0.09600000 -0.08252500
v -0.08400000 -0.09300000 -0.08252500
v -0.08381900 -0.09600000 -0.08149900
v -0.08381900 -0.09300000 -0.08149900
v -0.08329800 -0.09600000 -0.08059600
v -0.08329800 -0.09300000 -0.08059600
v -0.08250000 -0.09600000 -0.07992700
v -0.08250000 -0.09600000 -0.07992700
v -0.08250000 -0.09300000 -0.07992700
v -0.08250000 -0.09300000 -0.07992700
v -0.07300000 -0.11000000 -0.05692700
v -0.07300000 -0.09700000 -0.06992700
v -0.07300000 -0.09700000 -0.06992700
v -0.07300000 -0.09300000 -0.07992700
v -0.07300000 -0.09000000 -0.07992700
v -0.07300000 -0.09000000 -0.07992700
v -0.07300000 -0.09000000 -0.06992700
v -0.07300000 -0.09000000 -0.06992700
v -0.07000000 -0.11000000 -0.05692700
v -0.07000000 -0.09700000 -0.06992700
v -0.07000000 -0.09700000 -0.06992700
v -0.07000000 -0.09600000 -0.07992700
v -0.07000000 -0.09000000 -0.07992700
v -0.07000000 -0.09000000 -0.07992700
v -0.07000000 -0.09000000 -0.06992700
v -0.07000000 -0.09000000 -0.06992700
vn -1.00000000 0.00010000 0.00000000
vn -0.36180000 -0.93220000 -0.00000000
vn -1.00000000 0.00010000 0.00000000
vn -1.00000000 -0.00000000 0.00000000
vn -0.36720000 -0.91340000 -0.17540000
vn -1.00000000 -0.00010000 0.00000000
vn -1.00000000 0.00010000 0.00000000
vn -1.00000000 -0.00000000 0.00000000
vn -0.36710000 -0.91350000 0.17530000
vn -0.36650000 -0.87390000 -0.31930000
vn -1.00000000 -0.00000000 0.00000000
vn -0.36650000 -0.87390000 0.31940000
vn -1.00000000 -0.00000000 0.00000000
vn -1.00000000 -0.00000000 0.00000000
vn -0.36200000 -0.79850000 -0.48090000
vn -1.00000000 -0.00000000 0.00000000
vn -1.00000000 -0.00010000 0.00000000
vn -0.36190000 -0.79860000 0.48090000
vn -0.36700000 -0.69210000 -0.62150000
vn -1.00000000 -0.00000000 0.00000000
vn -1.00000000 -0.00010000 0.00000000
vn -1.00000000 -0.00000000 0.00000000
vn -0.36190000 -0.67680000 0.64100000
vn -0.36680000 -0.58400000 -0.72410000
vn -1.00000000 -0.00000000 0.00000000
vn -0.36690000 -0.54260000 0.75560000
vn -1.00000000 -0.00000000 0.00000000
vn -1.00000000 -0.00000000 0.00000000
vn -0.36180000 -0.43670000 -0.82360000
vn -1.00000000 -0.00000000 0.00000000
vn -0.36660000 -0.41460000 0.83290000
vn -1.00000000 -0.00000000 0.00000000
vn -0.36190000 -0.24930000 -0.89820000
vn -0.36190000 -0.24930000 0.89830000
vn -1.00000000 -0.00000000 0.00000000
vn -0.36680000 -0.07470000 -0.92730000
vn -1.00000000 -0.00000000 0.00000000
vn -1.00000000 -0.00000000 0.00000000
vn -0.36680000 -0.07460000 0.92730000
vn -1.00000000 -0.00000000 0.00000000
vn -0.36680000 0.07470000 -0.92730000
vn -0.36680000 0.07460000 0.92730000
vn -1.00000000 -0.00000000 0.00000000
vn -1.00000000 -0.00000000 0.00000000
vn -0.36190000 0.24940000 -0.89820000
vn -0.36190000 0.24930000 0.89830000
vn -1.00000000 -0.00000000 0.00000000
vn -1.00000000 -0.00010000 0.00000000
vn -0.36180000 0.43680000 -0.82360000
vn -1.00000000 -0.00000000 0.00000000
vn -1.00000000 -0.00000000 0.00000000
vn -0.36660000 0.41460000 0.83290000
vn -0.36690000 0.54260000 0.75560000
vn -1.00000000 -0.00000000 0.00000000
vn -1.00000000 -0.00010000 0.00000000
vn -0.36680000 0.58390000 -0.72420000
vn -0.36700000 0.69210000 -0.62150000
vn -1.00000000 -0.00000000 0.00000000
vn -1.00000000 -0.00010000 0.00000000
vn -1.00000000 -0.00000000 0.00000000
vn -0.36190000 0.67690000 0.64100000
vn -1.00000000 -0.00000000 0.00000000
vn -0.36200000 0.79850000 -0.48090000
vn -0.36190000 0.79850000 0.48090000
vn -1.00000000 -0.00000000 0.00000000
vn -1.00000000 -0.00000000 0.00000000
vn -0.36650000 0.87390000 -0.31940000
vn -1.00000000 -0.00000000 0.00000000
vn -0.36650000 0.87390000 0.31940000
vn -0.36710000 0.91340000 -0.17540000
vn -1.00000000 -0.00000000 0.00000000
vn -1.00000000 -0.00000000 0.00000000
vn -0.36770000 0.91300000 0.17640000
vn -1.00000000 -0.00000000 0.00000000
vn -0.36240000 0.93200000 -0.00120000
vn -0.36240000 0.93200000 -0.00120000
vn 0.70690000 0.70310000 0.07680000
vn 0.70690000 0.70310000 0.07680000
vn 0.70700000 0.70700000 -0.01900000
vn 0.70700000 0.70700000 -0.01900000
vn 0.70710000 0.70290000 0.07710000
vn 0.70710000 0.70290000 0.07710000
vn 0.70700000 0.70700000 -0.01920000
vn 0.70700000 0.70700000 -0.01920000
vn 1.00000000 -0.00010000 -0.00010000
vn 1.00000000 -0.00010000 -0.00010000
vn 1.00000000 -0.00010000 -0.00010000
vn 1.00000000 -0.00010000 -0.00010000
vn 1.00000000 -0.00010000 -0.00010000
vn 1.00000000 -0.00010000 -0.00010000
vn 1.00000000 -0.00010000 -0.00010000
vn 1.00000000 -0.00010000 -0.00010000
vn 1.00000000 -0.00010000 -0.00010000
vn 1.00000000 -0.00010000 -0.00010000
vn 1.00000000 -0.00010000 -0.00010000
vn 1.00000000 -0.00010000 -0.00010000
vn 1.00000000 -0.00010000 -0.00010000
vn 1.00000000 -0.00010000 -0.00010000
vn 1.00000000 -0.00010000 -0.00010000
vn 1.00000000 -0.00010000 -0.00010000
vn 1.00000000 -0.00010000 -0.00010000
vn 1.00000000 -0.00010000 -0.00010000
vn 1.00000000 -0.00010000 -0.00010000
vn 1.00000000 -0.00010000 -0.00010000
vn 1.00000000 -0.00010000 -0.00010000
vn 1.00000000 -0.00010000 -0.00010000
vn 1.00000000 -0.00010000 -0.00010000
vn 1.00000000 -0.00010000 -0.00010000
vn 1.00000000 -0.00010000 -0.00010000
vn 1.00000000 -0.00010000 -0.00010000
vn 1.00000000 -0.00010000 -0.00010000
vn 1.00000000 -0.00010000 -0.00010000
vn 1.00000000 -0.00010000 -0.00010000
vn 1.00000000 -0.00010000 -0.00010000
vn 1.00000000 -0.00010000 -0.00010000
vn 1.00000000 -0.00010000 -0.00010000
vn 1.00000000 -0.00010000 -0.00010000
vn 1.00000000 -0.00010000 -0.00010000
vn 1.00000000 -0.00010000 -0.00010000
vn -0.72290000 -0.68800000 0.06330000
vn -0.72290000 0.68800000 0.06330000
vn -0.69750000 -0.67010000 0.25380000
vn -0.69750000 0.67010000 0.25380000
vn -0.56870000 -0.66990000 0.47720000
vn -0.56870000 0.66990000 0.47720000
vn -0.26330000 -0.63760000 0.72390000
vn 0.00000000 0.00000000 1.00000000
vn 0.00000000 0.00000000 1.00000000
vn -0.26330000 0.63770000 0.72390000
vn 0.00000000 -0.70710000 -0.70710000
vn 0.00000000 -0.70710000 -0.70710000
vn 0.00000000 0.00000000 -1.00000000
vn 0.00000000 0.00000000 1.00000000
vn 0.00000000 0.00000000 1.00000000
vn 0.00000000 -1.00000000 0.00000000
vn 0.00000000 0.00000000 -1.00000000
vn 0.00000000 -1.00000000 0.00000000
vn 0.00000000 -0.70710000 -0.70710000
vn 0.00000000 -0.70710000 -0.70710000
vn 0.00000000 0.00000000 -1.00000000
vn 0.00000000 0.00000000 1.00000000
vn 0.00000000 0.00000000 1.00000000
vn 0.00000000 -1.00000000 0.00000000
vn 0.00000000 -1.00000000 0.00000000
vn 0.00000000 0.00000000 -1.00000000
vt -0.40000000 0.00000000
vt -0.25455800 0.00000000
vt -0.39064800 0.08598800
vt -0.39064800 0.08598800
vt -0.25455800 -0.04333200
vt -0.39064800 -0.08598800
vt -0.39064800 -0.08598800
vt -0.39064800 -0.08598800
vt -0.25455800 0.04333200
vt -0.25455800 -0.06499800
vt -0.37906100 0.12772100
vt -0.25455800 0.06499800
vt -0.37906100 -0.12772100
vt -0.34274300 0.20622200
vt -0.25455800 -0.10833100
vt -0.34274300 -0.20622200
vt -0.34274300 -0.20622200
vt -0.25455800 0.10833100
vt -0.25455800 -0.15166300
vt -0.29039800 0.27508000
vt -0.29039800 -0.27508000
vt -0.29039800 -0.27508000
vt -0.25455800 0.15166300
vt -0.25455800 -0.17332900
vt -0.25895500 0.30486500
vt -0.25455800 0.19499500
vt -0.22447500 -0.33107600
vt -0.18736300 0.35340500
vt -0.25455800 -0.21666200
vt -0.18736300 -0.35340500
vt -0.25455800 0.21666200
vt -0.10701100 0.38542000
vt -0.25455800 -0.25999400
vt -0.25455800 0.25999400
vt -0.10701100 -0.38542000
vt -0.25455800 -0.30332600
vt -0.02165600 0.39941300
vt -0.02165600 -0.39941300
vt -0.25455800 0.30332600
vt 0.02165600 0.39941300
vt -0.25455800 -0.32499200
vt -0.25455800 0.32499200
vt 0.02165600 -0.39941300
vt 0.10701100 0.38542000
vt -0.25455800 -0.36832500
vt -0.25455800 0.36832500
vt 0.10701100 -0.38542000
vt 0.18736300 0.35340500
vt -0.25455800 -0.41165700
vt 0.18736300 0.35340500
vt 0.18736300 -0.35340500
vt -0.25455800 0.41165700
vt -0.25455800 0.43332300
vt 0.22447500 -0.33107600
vt 0.25895500 0.30486500
vt -0.25455800 -0.45498900
vt -0.25455800 -0.47665500
vt 0.29039800 0.27508000
vt 0.29039800 0.27508000
vt 0.29039800 -0.27508000
vt -0.25455800 0.47665500
vt 0.34274300 0.20622200
vt -0.25455800 -0.51998800
vt -0.25455800 0.51998800
vt 0.34274300 -0.20622200
vt 0.37906100 0.12772100
vt -0.25455800 -0.56332000
vt 0.37906100 -0.12772100
vt -0.25455800 0.56332000
vt -0.25455800 -0.58498600
vt 0.39064800 0.08598800
vt 0.39064800 -0.08598800
vt -0.25455800 0.58498600
vt 0.40000000 0.00000000
vt -0.25455800 -0.62831900
vt -0.25455800 0.62831900
vt 0.02828400 0.60665200
vt 0.02828400 -0.64998500
vt 0.02828400 0.62831900
vt 0.02828400 -0.62831900
vt 0.16970600 -0.64998500
vt 0.16970600 0.60665200
vt 0.16970600 0.62831900
vt 0.16970600 -0.62831900
vt 0.31112700 0.49832200
vt 0.31112700 0.54165400
vt 0.31112700 0.12999700
vt 0.31112700 -0.19499500
vt 0.31112700 -0.60665200
vt 0.31112700 0.58498600
vt 0.31112700 0.60665200
vt 0.31112700 -0.32499200
vt 0.31112700 -0.12999700
vt 0.31112700 0.38999100
vt 0.31112700 0.28166000
vt 0.31112700 -0.49832200
vt 0.31112700 0.30332600
vt 0.31112700 -0.54165400
vt 0.31112700 -0.02166600
vt 0.31112700 0.04333200
vt 0.31112700 0.23832800
vt 0.31112700 0.08666500
vt 0.31112700 -0.23832800
vt 0.31112700 0.34665800
vt 0.31112700 0.17332900
vt 0.31112700 -0.43332300
vt 0.31112700 -0.34665800
vt 0.31112700 -0.47665500
vt 0.31112700 -0.38999100
vt 0.31112700 0.02166600
vt 0.31112700 0.41165700
vt 0.31112700 -0.17332900
vt 0.31112700 -0.06499800
vt 0.31112700 0.20944000
vt 0.31112700 -0.08666500
vt 0.31112700 -0.28166000
vt 0.31112700 0.45498900
vt 0.31112700 0.56332000
vt 0.31112700 -0.58498600
vt -0.40500000 0.31415900
vt -0.10500000 0.31415900
vt -0.40500000 0.20944000
vt -0.10500000 0.20944000
vt -0.40500000 0.10472000
vt -0.10500000 0.10472000
vt -0.40500000 0.00000000
vt -0.10000000 -2.96910000
vt 0.20000000 -2.96910000
vt -0.10500000 0.00000000
vt 0.14142100 0.00000000
vt -1.69705600 0.00000000
vt 2.10000000 0.15000000
vt 0.20000000 -3.91910000
vt 0.50000000 -3.91910000
vt -0.15000000 2.65000000
vt 1.40000000 0.15000000
vt -0.15000000 3.65000000
vt 0.14142100 -0.30000000
vt -1.69705600 -0.30000000
vt 2.10000000 -0.15000000
vt -0.10000000 -4.21910000
vt 0.50000000 -4.21910000
vt 0.15000000 2.65000000
vt 0.15000000 3.65000000
vt 1.40000000 -0.15000000
f 135/135/135 144/144/144 137/137/137
f 139/139/139 130/130/130 131/131/131
f 142/142/142 134/134/134 133/133/133
f 132/132/132 145/145/145 140/140/140
f 14/14/14 27/27/27 60/60/60
f 135/135/135 143/143/143 144/144/144
f 139/139/139 138/138/138 130/130/130
f 128/128/128 127/127/127 133/133/133
f 127/127/127 141/141/141 133/133/133
f 141/141/141 142/142/142 133/133/133
f 132/132/132 136/136/136 145/145/145
f 66/66/66 62/62/62 50/50/50
f 62/62/62 58/58/58 50/50/50
f 59/59/59 55/55/55 48/48/48
f 50/50/50 44/44/44 32/32/32
f 44/44/44 40/40/40 32/32/32
f 40/40/40 37/37/37 32/32/32
f 32/32/32 28/28/28 25/25/25
f 25/25/25 20/20/20 32/32/32
f 20/20/20 14/14/14 32/32/32
f 14/14/14 11/11/11 4/4/4
f 3/3/3 1/1/1 7/7/7
f 8/8/8 13/13/13 16/16/16
f 17/17/17 21/21/21 6/6/6
f 22/22/22 27/27/27 8/8/8
f 27/27/27 30/30/30 35/35/35
f 35/35/35 38/38/38 27/27/27
f 38/38/38 43/43/43 27/27/27
f 43/43/43 47/47/47 51/51/51
f 51/51/51 54/54/54 43/43/43
f 54/54/54 60/60/60 43/43/43
f 60/60/60 65/65/65 68/68/68
f 68/68/68 72/72/72 60/60/60
f 72/72/72 74/74/74 60/60/60
f 74/74/74 71/71/71 50/50/50
f 71/71/71 66/66/66 50/50/50
f 14/14/14 4/4/4 27/27/27
f 4/4/4 8/8/8 27/27/27
f 50/50/50 32/32/32 14/14/14
f 27/27/27 43/43/43 60/60/60
f 60/60/60 74/74/74 50/50/50
f 50/50/50 14/14/14 60/60/60
f 87/87/87 23/23/23 18/18/18
f 53/53/53 117/117/117 61/61/61
f 29/29/29 88/88/88 24/24/24
f 119/119/119 67/67/67 70/70/70
f 118/118/118 73/73/73 69/69/69
f 24/24/24 112/112/112 19/19/19
f 105/105/105 26/26/26 23/23/23
f 63/63/63 67/67/67 98/98/98
f 97/97/97 42/42/42 39/39/39
f 106/106/106 49/49/49 56/56/56
f 107/107/107 41/41/41 45/45/45
f 64/64/64 86/86/86 69/69/69
f 85/85/85 64/64/64 61/61/61
f 46/46/46 42/42/42 104/104/104
f 125/125/125 126/126/126 129/129/129
f 122/122/122 121/121/121 120/120/120
f 29/29/29 33/33/33 103/103/103
f 80/80/80 84/84/84 70/70/70
f 18/18/18 12/12/12 102/102/102
f 101/101/101 34/34/34 31/31/31
f 122/122/122 125/125/125 123/123/123
f 100/100/100 12/12/12 9/9/9
f 99/99/99 2/2/2 5/5/5
f 111/111/111 53/53/53 52/52/52
f 96/96/96 57/57/57 63/63/63
f 110/110/110 9/9/9 2/2/2
f 45/45/45 49/49/49 109/109/109
f 26/26/26 114/114/114 31/31/31
f 113/113/113 5/5/5 10/10/10
f 108/108/108 56/56/56 57/57/57
f 15/15/15 115/115/115 10/10/10
f 34/34/34 95/95/95 39/39/39
f 36/36/36 116/116/116 33/33/33
f 46/46/46 94/94/94 52/52/52
f 19/19/19 93/93/93 15/15/15
f 82/82/82 91/91/91 83/83/83
f 92/92/92 36/36/36 41/41/41
f 82/82/82 77/77/77 73/73/73
f 125/125/125 124/124/124 126/126/126
f 122/122/122 123/123/123 121/121/121
f 80/80/80 81/81/81 84/84/84
f 84/84/84 89/89/89 70/70/70
f 70/70/70 75/75/75 80/80/80
f 75/75/75 78/78/78 80/80/80
f 122/122/122 124/124/124 125/125/125
f 73/73/73 90/90/90 82/82/82
f 82/82/82 79/79/79 77/77/77
f 77/77/77 76/76/76 73/73/73

