mtllib material.mtl
usemtl material_0
v -0.28109900 0.02272000 0.27470100
v -0.28109900 0.02278600 0.27488200
v -0.28109900 0.02278600 0.27488200
v -0.28109900 0.02278600 0.27452000
v -0.28109900 0.02278600 0.27452000
v -0.28109900 0.02295200 0.27497800
v -0.28109900 0.02295200 0.27497800
v -0.28109900 0.02295200 0.27442400
v -0.28109900 0.02295200 0.27442400
v -0.28109900 0.02314200 0.27494500
v -0.28109900 0.02314200 0.27494500
v -0.28109900 0.02314200 0.27494500
v -0.28109900 0.02314200 0.27445800
v -0.28109900 0.02314200 0.27445800
v -0.28109900 0.02314200 0.27445800
v -0.28109900 0.02326500 0.27479700
v -0.28109900 0.02326500 0.27479700
v -0.28109900 0.02326500 0.27460500
v -0.28109900 -0.00148000 0.27470000
v -0.28109900 -0.00141400 0.27488100
v -0.28109900 -0.00141400 0.27488100
v -0.28109900 -0.00141400 0.27451900
v -0.28109900 -0.00141400 0.27451900
v -0.28109900 -0.00141400 0.27451900
v -0.28109900 -0.00124800 0.27497700
v -0.28109900 -0.00124800 0.27497700
v -0.28109900 -0.00124800 0.27497700
v -0.28109900 -0.00124800 0.27442300
v -0.28109900 -0.00124800 0.27442300
v -0.28109900 -0.00124800 0.27442300
v -0.28109900 -0.00105800 0.27494400
v -0.28109900 -0.00105800 0.27494400
v -0.28109900 -0.00105800 0.27445600
v -0.28109900 -0.00105800 0.27445600
v -0.28109900 -0.00093500 0.27479600
v -0.28109900 -0.00093500 0.27479600
v -0.28109900 -0.00093500 0.27460400
v -0.28109900 -0.02628000 0.27469900
v -0.28109900 -0.02621400 0.27487900
v -0.28109900 -0.02621400 0.27487900
v -0.28109900 -0.02621400 0.27451800
v -0.28109900 -0.02621400 0.27451800
v -0.28109900 -0.02621400 0.27451800
v -0.28109900 -0.02604800 0.27497600
v -0.28109900 -0.02604800 0.27497600
v -0.28109900 -0.02604800 0.27497600
v -0.28109900 -0.02604800 0.27442200
v -0.28109900 -0.02604800 0.27442200
v -0.28109900 -0.02585800 0.27494200
v -0.28109900 -0.02585800 0.27494200
v -0.28109900 -0.02585800 0.27494200
v -0.28109900 -0.02585800 0.27445500
v -0.28109900 -0.02585800 0.27445500
v -0.28109900 -0.02585800 0.27445500
v -0.28109900 -0.02573500 0.27479500
v -0.28109900 -0.02573500 0.27479500
v -0.28109900 -0.02573500 0.27460200
vn -1.00000000 -0.00060000 0.00000000
vn -1.00000000 0.00000000 0.00000000
vn -1.00000000 -0.00060000 0.00000000
vn -1.00000000 0.00000000 0.00000000
vn -1.00000000 -0.00060000 0.00000000
vn -1.00000000 0.00020000 0.00000000
vn -1.00000000 0.00000000 0.00000000
vn -1.00000000 0.00000000 0.00000000
vn -1.00000000 0.00020000 0.00000000
vn -1.00000000 0.00000000 0.00000000
vn -1.00000000 0.00020000 0.00000000
vn -1.00000000 -0.00010000 0.00000000
vn -1.00000000 0.00000000 0.00000000
vn -1.00000000 -0.00010000 0.00000000
vn -1.00000000 -0.00030000 0.00000000
vn -1.00000000 -0.00010000 0.00000000
vn -1.00000000 -0.00030000 0.00000000
vn -1.00000000 -0.00030000 0.00000000
vn -1.00000000 -0.00060000 0.00000000
vn -1.00000000 -0.00060000 0.00000000
vn -1.00000000 0.00020000 0.00000000
vn -1.00000000 0.00020000 0.00000000
vn -1.00000000 0.00000000 0.00000000
vn -1.00000000 -0.00060000 0.00000000
vn -1.00000000 0.00020000 0.00000000
vn -1.00000000 0.00000000 0.00000000
vn -1.00000000 0.00010000 0.00000000
vn -1.00000000 -0.00030000 0.00000000
vn -1.00000000 0.00000000 0.00000000
vn -1.00000000 0.00010000 0.00000000
vn -1.00000000 -0.00030000 0.00000000
vn -1.00000000 0.00010000 0.00000000
vn -1.00000000 0.00010000 0.00000000
vn -1.00000000 -0.00030000 0.00000000
vn -1.00000000 0.00010000 0.00000000
vn -1.00000000 -0.00030000 0.00000000
vn -1.00000000 -0.00030000 0.00000000
vn -1.00000000 0.00000000 0.00000000
vn -1.00000000 -0.00020000 0.00000000
vn -1.00000000 0.00000000 0.00000000
vn -1.00000000 0.00030000 0.00000000
vn -1.00000000 -0.00020000 0.00000000
vn -1.00000000 0.00000000 0.00000000
vn -1.00000000 -0.00020000 0.00000000
vn -1.00000000 0.00030000 0.00000000
vn -1.00000000 -0.00010000 0.00000000
vn -1.00000000 -0.00010000 0.00000000
vn -1.00000000 0.00030000 0.00000000
vn -1.00000000 -0.00020000 0.00000000
vn -1.00000000 0.00030000 0.00000000
vn -1.00000000 -0.00010000 0.00000000
vn -1.00000000 0.00000000 0.00000000
vn -1.00000000 -0.00020000 0.00000000
vn -1.00000000 0.00030000 0.00000000
vn -1.00000000 -0.00020000 0.00000000
vn -1.00000000 0.00000000 0.00000000
vn -1.00000000 0.00000000 0.00000000
vt 0.00000000 0.00000000
vt 0.00658000 -0.01807800
vt 0.00658000 -0.01807800
vt 0.00658000 0.01807800
vt 0.00658000 0.01807800
vt 0.02324100 -0.02769800
vt 0.02324100 -0.02769800
vt 0.02324100 0.02769800
vt 0.02324100 0.02769800
vt 0.04218800 -0.02435700
vt 0.04218800 -0.02435700
vt 0.04218800 -0.02435700
vt 0.04218800 0.02435700
vt 0.04218800 0.02435700
vt 0.04218800 0.02435700
vt 0.05455400 -0.00961900
vt 0.05455400 -0.00961900
vt 0.05455400 0.00961900
vt 0.00000000 0.00000000
vt 0.00658000 -0.01807800
vt 0.00658000 -0.01807800
vt 0.00658000 0.01807800
vt 0.00658000 0.01807800
vt 0.00658000 0.01807800
vt 0.02324100 -0.02769800
vt 0.02324100 -0.02769800
vt 0.02324100 -0.02769800
vt 0.02324100 0.02769800
vt 0.02324100 0.02769800
vt 0.02324100 0.02769800
vt 0.04218800 -0.02435700
vt 0.04218800 -0.02435700
vt 0.04218800 0.02435700
vt 0.04218800 0.02435700
vt 0.05455400 -0.00961900
vt 0.05455400 -0.00961900
vt 0.05455400 0.00961900
vt 0.00000000 0.00000000
vt 0.00658000 -0.01807800
vt 0.00658000 -0.01807800
vt 0.00658000 0.01807800
vt 0.00658000 0.01807800
vt 0.00658000 0.01807800
vt 0.02324100 -0.02769800
vt 0.02324100 -0.02769800
vt 0.02324100 -0.02769800
vt 0.02324100 0.02769800
vt 0.02324100 0.02769800
vt 0.04218800 -0.02435700
vt 0.04218800 -0.02435700
vt 0.04218800 -0.02435700
vt 0.04218800 0.02435700
vt 0.04218800 0.02435700
vt 0.04218800 0.02435700
vt 0.05455400 -0.00961900
vt 0.05455400 -0.00961900
vt 0.05455400 0.00961900
f 1/1/1 3/3/3 5/5/5
f 4/4/4 2/2/2 7/7/7
f 4/4/4 7/7/7 8/8/8
f 9/9/9 6/6/6 11/11/11
f 8/8/8 10/10/10 13/13/13
f 14/14/14 12/12/12 16/16/16
f 15/15/15 17/17/17 18/18/18
f 19/19/19 20/20/20 24/24/24
f 22/22/22 21/21/21 25/25/25
f 23/23/23 26/26/26 29/29/29
f 30/30/30 27/27/27 32/32/32
f 28/28/28 31/31/31 34/34/34
f 33/33/33 32/32/32 35/35/35
f 34/34/34 36/36/36 37/37/37
f 38/38/38 40/40/40 43/43/43
f 42/42/42 39/39/39 44/44/44
f 41/41/41 45/45/45 48/48/48
f 47/47/47 46/46/46 51/51/51
f 48/48/48 50/50/50 54/54/54
f 53/53/53 49/49/49 55/55/55
f 52/52/52 56/56/56 57/57/57

