mtllib material.mtl
usemtl material_0
v -0.15600000 -0.01423500 0.24337400
v -0.15600000 0.00000000 0.24150000
v -0.15600000 -0.02750000 0.24886900
v -0.15600000 -0.03889100 0.25760900
v -0.15600000 -0.04763100 0.26900000
v -0.15600000 -0.05312600 0.28226500
v -0.15600000 -0.05500000 0.29650000
v -0.15600000 -0.05312600 0.31073500
v -0.15600000 -0.04763100 0.32400000
v -0.15600000 -0.03889100 0.33539100
v -0.15600000 -0.02750000 0.34413100
v -0.15600000 -0.01423500 0.34962600
v -0.15600000 0.00000000 0.35150000
v -0.15600000 0.01423500 0.34962600
v -0.15600000 0.02750000 0.34413100
v -0.15600000 0.03889100 0.33539100
v -0.15600000 0.04763100 0.32400000
v -0.15600000 0.04763100 0.32400000
v -0.15600000 0.05312600 0.31073500
v -0.15600000 0.05500000 0.29650000
v -0.15600000 0.05312600 0.28226500
v -0.15600000 0.04763100 0.26900000
v -0.15600000 0.03889100 0.25760900
v -0.15600000 0.02750000 0.24886900
v -0.15600000 0.01423500 0.24337400
v -0.14800000 0.05274000 0.31063200
v -0.14800000 0.04728500 0.32380000
v -0.14800000 0.04728500 0.32380000
v -0.14800000 0.03860800 0.33510800
v -0.14800000 0.02730000 0.34378500
v -0.14800000 0.01413200 0.34924000
v -0.14800000 0.00000000 0.35110000
v -0.14800000 -0.01413200 0.34924000
v -0.14800000 -0.02730000 0.34378500
v -0.14800000 -0.03860800 0.33510800
v -0.14800000 -0.04728500 0.32380000
v -0.14800000 -0.05274000 0.31063200
v -0.14800000 -0.05460000 0.29650000
v -0.14800000 -0.05274000 0.28236800
v -0.14800000 -0.04728500 0.26920000
v -0.14800000 -0.03860800 0.25789200
v -0.14800000 -0.02730000 0.24921500
v -0.14800000 -0.01413200 0.24376000
v -0.14800000 0.00000000 0.24190000
v -0.14800000 0.01413200 0.24376000
v -0.14800000 0.02730000 0.24921500
v -0.14800000 0.03860800 0.25789200
v -0.14800000 0.04728500 0.26920000
v -0.14800000 0.05274000 0.28236800
v -0.14800000 0.05460000 0.29650000
v -0.14840000 0.04763100 0.32400000
v -0.14840000 0.04763100 0.32400000
v -0.14840000 0.04763100 0.32400000
v -0.14840000 0.04763100 0.32400000
v -0.14840000 0.03889100 0.33539100
v -0.14840000 0.03889100 0.33539100
v -0.14840000 0.02750000 0.34413100
v -0.14840000 0.02750000 0.34413100
v -0.14840000 0.01423500 0.34962600
v -0.14840000 0.01423500 0.34962600
v -0.14840000 0.00000000 0.35150000
v -0.14840000 0.00000000 0.35150000
v -0.14840000 -0.01423500 0.34962600
v -0.14840000 -0.01423500 0.34962600
v -0.14840000 -0.02750000 0.34413100
v -0.14840000 -0.02750000 0.34413100
v -0.14840000 -0.03889100 0.33539100
v -0.14840000 -0.03889100 0.33539100
v -0.14840000 -0.04763100 0.32400000
v -0.14840000 -0.04763100 0.32400000
v -0.14840000 -0.05312600 0.31073500
v -0.14840000 -0.05312600 0.31073500
v -0.14840000 -0.05500000 0.29650000
v -0.14840000 -0.05500000 0.29650000
v -0.14840000 -0.05312600 0.28226500
v -0.14840000 -0.05312600 0.28226500
v -0.14840000 -0.04763100 0.26900000
v -0.14840000 -0.04763100 0.26900000
v -0.14840000 -0.03889100 0.25760900
v -0.14840000 -0.03889100 0.25760900
v -0.14840000 -0.02750000 0.24886900
v -0.14840000 -0.02750000 0.24886900
v -0.14840000 -0.01423500 0.24337400
v -0.14840000 -0.01423500 0.24337400
v -0.14840000 0.00000000 0.24150000
v -0.14840000 0.00000000 0.24150000
v -0.14840000 0.01423500 0.24337400
v -0.14840000 0.01423500 0.24337400
v -0.14840000 0.02750000 0.24886900
v -0.14840000 0.02750000 0.24886900
v -0.14840000 0.03889100 0.25760900
v -0.14840000 0.03889100 0.25760900
v -0.14840000 0.04763100 0.26900000
v -0.14840000 0.04763100 0.26900000
v -0.14840000 0.05312600 0.28226500
v -0.14840000 0.05312600 0.28226500
v -0.14840000 0.05500000 0.29650000
v -0.14840000 0.05500000 0.29650000
v -0.14840000 0.05312600 0.31073500
v -0.14840000 0.05312600 0.31073500
vn 0.73770000 -0.17470000 -0.65210000
vn 0.73770000 0.00000000 -0.67510000
vn 0.73770000 -0.33760000 -0.58470000
vn 0.73770000 -0.47740000 -0.47740000
vn 0.73770000 -0.58470000 -0.33760000
vn 0.73770000 -0.65210000 -0.17470000
vn 0.73770000 -0.67510000 0.00000000
vn 0.73770000 -0.65210000 0.17470000
vn 0.73770000 -0.58470000 0.33760000
vn 0.73770000 -0.47740000 0.47740000
vn 0.73770000 -0.33760000 0.58470000
vn 0.73770000 -0.17470000 0.65210000
vn 0.73770000 0.00000000 0.67510000
vn 0.73770000 0.17470000 0.65210000
vn 0.73770000 0.33760000 0.58470000
vn 0.73770000 0.47740000 0.47740000
vn 0.73770000 0.58470000 0.33760000
vn 0.73770000 0.58470000 0.33760000
vn 0.73770000 0.65210000 0.17470000
vn 0.73770000 0.67510000 0.00000000
vn 0.73770000 0.65210000 -0.17470000
vn 0.73770000 0.58470000 -0.33760000
vn 0.73770000 0.47740000 -0.47740000
vn 0.73770000 0.33760000 -0.58470000
vn 0.73770000 0.17470000 -0.65210000
vn 0.91230000 0.39560000 0.10600000
vn 0.91230000 0.35460000 0.20470000
vn 0.91230000 0.35460000 0.20470000
vn 0.91250000 0.28930000 0.28930000
vn 0.91230000 0.20470000 0.35460000
vn 0.91230000 0.10600000 0.39560000
vn 0.91240000 0.00000000 0.40920000
vn 0.91230000 -0.10600000 0.39560000
vn 0.91230000 -0.20470000 0.35460000
vn 0.91250000 -0.28930000 0.28930000
vn 0.91230000 -0.35460000 0.20470000
vn 0.91230000 -0.39560000 0.10600000
vn 0.91240000 -0.40930000 0.00000000
vn 0.91230000 -0.39560000 -0.10600000
vn 0.91230000 -0.35460000 -0.20470000
vn 0.91250000 -0.28930000 -0.28930000
vn 0.91230000 -0.20470000 -0.35460000
vn 0.91230000 -0.10600000 -0.39560000
vn 0.91240000 0.00000000 -0.40920000
vn 0.91230000 0.10600000 -0.39560000
vn 0.91230000 0.20470000 -0.35460000
vn 0.91250000 0.28930000 -0.28930000
vn 0.91230000 0.35460000 -0.20470000
vn 0.91230000 0.39560000 -0.10600000
vn 0.91240000 0.40930000 0.00000000
vn 0.37170000 0.80400000 0.46420000
vn 0.37170000 0.80400000 0.46420000
vn 0.37170000 0.80400000 0.46420000
vn 0.37170000 0.80400000 0.46420000
vn 0.37200000 0.65640000 0.65640000
vn 0.37200000 0.65640000 0.65640000
vn 0.37170000 0.46420000 0.80390000
vn 0.37170000 0.46420000 0.80390000
vn 0.37160000 0.24030000 0.89680000
vn 0.37160000 0.24030000 0.89680000
vn 0.37180000 0.00000000 0.92830000
vn 0.37180000 0.00000000 0.92830000
vn 0.37160000 -0.24020000 0.89670000
vn 0.37160000 -0.24020000 0.89670000
vn 0.37170000 -0.46420000 0.80400000
vn 0.37170000 -0.46420000 0.80400000
vn 0.37200000 -0.65640000 0.65630000
vn 0.37200000 -0.65640000 0.65630000
vn 0.37170000 -0.80390000 0.46420000
vn 0.37170000 -0.80390000 0.46420000
vn 0.37160000 -0.89680000 0.24030000
vn 0.37160000 -0.89680000 0.24030000
vn 0.37180000 -0.92830000 0.00000000
vn 0.37180000 -0.92830000 0.00000000
vn 0.37160000 -0.89680000 -0.24020000
vn 0.37160000 -0.89680000 -0.24020000
vn 0.37170000 -0.80400000 -0.46420000
vn 0.37170000 -0.80400000 -0.46420000
vn 0.37200000 -0.65640000 -0.65640000
vn 0.37200000 -0.65640000 -0.65640000
vn 0.37170000 -0.46420000 -0.80390000
vn 0.37170000 -0.46420000 -0.80390000
vn 0.37150000 -0.24030000 -0.89680000
vn 0.37150000 -0.24030000 -0.89680000
vn 0.37190000 0.00000000 -0.92830000
vn 0.37190000 0.00000000 -0.92830000
vn 0.37150000 0.24020000 -0.89680000
vn 0.37150000 0.24020000 -0.89680000
vn 0.37170000 0.46420000 -0.80400000
vn 0.37170000 0.46420000 -0.80400000
vn 0.37200000 0.65640000 -0.65640000
vn 0.37200000 0.65640000 -0.65640000
vn 0.37170000 0.80390000 -0.46420000
vn 0.37170000 0.80390000 -0.46420000
vn 0.37160000 0.89680000 -0.24030000
vn 0.37160000 0.89680000 -0.24030000
vn 0.37180000 0.92830000 0.00000000
vn 0.37180000 0.92830000 0.00000000
vn 0.37160000 0.89680000 0.24020000
vn 0.37160000 0.89680000 0.24020000
vt 0.90000000 -4.31969000
vt 0.90000000 -5.75958600
vt 0.90000000 -2.87979300
vt 0.90000000 -1.43989600
vt 0.90000000 0.00000000
vt 0.90000000 1.43989700
vt 0.90000000 2.87979400
vt 0.90000000 4.31969000
vt 0.90000000 5.75958700
vt 0.90000000 7.19948400
vt 0.90000000 8.63938200
vt 0.90000000 10.07928000
vt 0.90000000 11.51917000
vt 0.90000000 12.95906900
vt 0.90000000 14.39897000
vt 0.90000000 15.83886000
vt 0.90000000 -17.27875900
vt 0.90000000 17.27875900
vt 0.90000000 -15.83886000
vt 0.90000000 -14.39897000
vt 0.90000000 -12.95906900
vt 0.90000000 -11.51917000
vt 0.90000000 -10.07928000
vt 0.90000000 -8.63938200
vt 0.90000000 -7.19948300
vt 0.05656900 -15.78127000
vt 0.05656900 17.21592900
vt 0.05656900 -17.21592900
vt 0.05656900 15.78127000
vt 0.05656900 14.34661000
vt 0.05656900 12.91195000
vt 0.05656900 11.47729000
vt 0.05656900 10.04262000
vt 0.05656900 8.60796700
vt 0.05656900 7.17330300
vt 0.05656900 5.73864300
vt 0.05656900 4.30398200
vt 0.05656900 2.86932100
vt 0.05656900 1.43466100
vt 0.05656900 0.00000000
vt 0.05656900 -1.43466100
vt 0.05656900 -2.86932100
vt 0.05656900 -4.30398200
vt 0.05656900 -5.73864300
vt 0.05656900 -7.17330300
vt 0.05656900 -8.60796700
vt 0.05656900 -10.04262000
vt 0.05656900 -11.47729000
vt 0.05656900 -12.91195000
vt 0.05656900 -14.34661000
vt 0.00000000 17.21592900
vt 1.66000000 17.27875900
vt 0.00000000 -17.21592900
vt 1.66000000 -17.27875900
vt 1.66000000 15.83886000
vt 0.00000000 15.78127000
vt 0.00000000 14.34661000
vt 1.66000000 14.39897000
vt 1.66000000 12.95906900
vt 0.00000000 12.91195000
vt 1.66000000 11.51917000
vt 0.00000000 11.47729000
vt 0.00000000 10.04262000
vt 1.66000000 10.07928000
vt 1.66000000 8.63938200
vt 0.00000000 8.60796700
vt 1.66000000 7.19948300
vt 0.00000000 7.17330300
vt 1.66000000 5.75958700
vt 0.00000000 5.73864300
vt 1.66000000 4.31969000
vt 0.00000000 4.30398200
vt 0.00000000 2.86932100
vt 1.66000000 2.87979300
vt 0.00000000 1.43466100
vt 1.66000000 1.43989700
vt 1.66000000 0.00000000
vt 0.00000000 0.00000000
vt 0.00000000 -1.43466100
vt 1.66000000 -1.43989700
vt 0.00000000 -2.86932100
vt 1.66000000 -2.87979300
vt 0.00000000 -4.30398200
vt 1.66000000 -4.31969000
vt 1.66000000 -5.75958700
vt 0.00000000 -5.73864300
vt 1.66000000 -7.19948300
vt 0.00000000 -7.17330300
vt 0.00000000 -8.60796700
vt 1.66000000 -8.63938200
vt 1.66000000 -10.07928000
vt 0.00000000 -10.04262000
vt 1.66000000 -11.51917000
vt 0.00000000 -11.47729000
vt 0.00000000 -12.91195000
vt 1.66000000 -12.95906900
vt 1.66000000 -14.39897000
vt 0.00000000 -14.34661000
vt 1.66000000 -15.83886000
vt 0.00000000 -15.78127000
f 26/26/26 53/53/53 28/28/28
f 27/27/27 51/51/51 56/56/56
f 27/27/27 56/56/56 29/29/29
f 29/29/29 56/56/56 57/57/57
f 29/29/29 57/57/57 30/30/30
f 30/30/30 57/57/57 60/60/60
f 30/30/30 60/60/60 31/31/31
f 31/31/31 60/60/60 62/62/62
f 31/31/31 62/62/62 32/32/32
f 32/32/32 62/62/62 63/63/63
f 32/32/32 63/63/63 33/33/33
f 33/33/33 63/63/63 66/66/66
f 33/33/33 66/66/66 34/34/34
f 34/34/34 66/66/66 68/68/68
f 34/34/34 68/68/68 35/35/35
f 35/35/35 68/68/68 70/70/70
f 35/35/35 70/70/70 36/36/36
f 36/36/36 70/70/70 72/72/72
f 36/36/36 72/72/72 37/37/37
f 37/37/37 72/72/72 73/73/73
f 37/37/37 73/73/73 38/38/38
f 38/38/38 73/73/73 75/75/75
f 38/38/38 75/75/75 39/39/39
f 39/39/39 75/75/75 78/78/78
f 39/39/39 78/78/78 40/40/40
f 40/40/40 78/78/78 79/79/79
f 40/40/40 79/79/79 41/41/41
f 41/41/41 79/79/79 81/81/81
f 41/41/41 81/81/81 42/42/42
f 42/42/42 81/81/81 83/83/83
f 42/42/42 83/83/83 43/43/43
f 43/43/43 83/83/83 86/86/86
f 43/43/43 86/86/86 44/44/44
f 44/44/44 86/86/86 88/88/88
f 44/44/44 88/88/88 45/45/45
f 45/45/45 88/88/88 89/89/89
f 45/45/45 89/89/89 46/46/46
f 46/46/46 89/89/89 92/92/92
f 46/46/46 92/92/92 47/47/47
f 47/47/47 92/92/92 94/94/94
f 47/47/47 94/94/94 48/48/48
f 48/48/48 94/94/94 95/95/95
f 48/48/48 95/95/95 49/49/49
f 49/49/49 95/95/95 98/98/98
f 49/49/49 98/98/98 50/50/50
f 50/50/50 98/98/98 100/100/100
f 50/50/50 100/100/100 26/26/26
f 26/26/26 100/100/100 53/53/53
f 25/25/25 85/85/85 2/2/2
f 2/2/2 85/85/85 84/84/84
f 2/2/2 84/84/84 1/1/1
f 1/1/1 84/84/84 82/82/82
f 1/1/1 82/82/82 3/3/3
f 3/3/3 82/82/82 80/80/80
f 3/3/3 80/80/80 4/4/4
f 4/4/4 80/80/80 77/77/77
f 4/4/4 77/77/77 5/5/5
f 5/5/5 77/77/77 76/76/76
f 5/5/5 76/76/76 6/6/6
f 6/6/6 76/76/76 74/74/74
f 6/6/6 74/74/74 7/7/7
f 7/7/7 74/74/74 71/71/71
f 7/7/7 71/71/71 8/8/8
f 8/8/8 71/71/71 69/69/69
f 8/8/8 69/69/69 9/9/9
f 9/9/9 69/69/69 67/67/67
f 9/9/9 67/67/67 10/10/10
f 10/10/10 67/67/67 65/65/65
f 10/10/10 65/65/65 11/11/11
f 11/11/11 65/65/65 64/64/64
f 11/11/11 64/64/64 12/12/12
f 12/12/12 64/64/64 61/61/61
f 12/12/12 61/61/61 13/13/13
f 13/13/13 61/61/61 59/59/59
f 13/13/13 59/59/59 14/14/14
f 14/14/14 59/59/59 58/58/58
f 14/14/14 58/58/58 15/15/15
f 15/15/15 58/58/58 55/55/55
f 15/15/15 55/55/55 16/16/16
f 16/16/16 55/55/55 52/52/52
f 16/16/16 52/52/52 18/18/18
f 17/17/17 54/54/54 99/99/99
f 17/17/17 99/99/99 19/19/19
f 19/19/19 99/99/99 97/97/97
f 19/19/19 97/97/97 20/20/20
f 20/20/20 97/97/97 96/96/96
f 20/20/20 96/96/96 21/21/21
f 21/21/21 96/96/96 93/93/93
f 21/21/21 93/93/93 22/22/22
f 22/22/22 93/93/93 91/91/91
f 22/22/22 91/91/91 23/23/23
f 23/23/23 91/91/91 90/90/90
f 23/23/23 90/90/90 24/24/24
f 24/24/24 90/90/90 87/87/87
f 24/24/24 87/87/87 25/25/25
f 25/25/25 87/87/87 85/85/85

