mtllib material.mtl
usemtl material_0
v -0.14800000 0.00614800 0.30079600
v -0.14800000 0.00614800 0.30079600
v -0.14800000 0.00194800 0.30374300
v -0.14800000 -0.00316400 0.30330000
v -0.14800000 -0.00679400 0.29967600
v -0.14800000 -0.00724600 0.29456500
v -0.14800000 -0.00430700 0.29036000
v -0.14800000 0.00064700 0.28902800
v -0.14800000 0.00529900 0.29119200
v -0.14800000 0.00747100 0.29584000
v -0.14600000 -0.00747100 0.29716000
v -0.14600000 -0.00747100 0.29716000
v -0.14600000 -0.00614800 0.29220400
v -0.14600000 -0.00614800 0.29220400
v -0.14600000 -0.00194800 0.28925700
v -0.14600000 -0.00194800 0.28925700
v -0.14600000 0.00316400 0.28970000
v -0.14600000 0.00316400 0.28970000
v -0.14600000 0.00679400 0.29332400
v -0.14600000 0.00679400 0.29332400
v -0.14600000 0.00724600 0.29843500
v -0.14600000 0.00724600 0.29843500
v -0.14600000 0.00724600 0.29843500
v -0.14600000 0.00430700 0.30264000
v -0.14600000 0.00430700 0.30264000
v -0.14600000 0.00430700 0.30264000
v -0.14600000 -0.00064700 0.30397200
v -0.14600000 -0.00064700 0.30397200
v -0.14600000 -0.00529900 0.30180800
v -0.14600000 -0.00529900 0.30180800
v -0.14100000 -0.00607600 0.29225400
v -0.14100000 -0.00607600 0.29225400
v -0.14100000 -0.00192500 0.28934200
v -0.14100000 -0.00192500 0.28934200
v -0.14100000 -0.00738400 0.29715300
v -0.14100000 -0.00738400 0.29715300
v -0.14100000 -0.00523700 0.30174600
v -0.14100000 -0.00523700 0.30174600
v -0.14100000 0.00312700 0.28977900
v -0.14100000 0.00312700 0.28977900
v -0.14100000 -0.00063900 0.30388500
v -0.14100000 -0.00063900 0.30388500
v -0.14100000 0.00671500 0.29336100
v -0.14100000 0.00671500 0.29336100
v -0.14100000 0.00425700 0.30256800
v -0.14100000 0.00425700 0.30256800
v -0.14100000 0.00716200 0.29841200
v -0.14100000 0.00716200 0.29841200
v -0.14100000 0.00716200 0.29841200
vn 0.79690000 0.49510000 0.34600000
vn 0.79690000 0.49510000 0.34600000
vn 0.79700000 0.15680000 0.58330000
vn 0.79690000 -0.25480000 0.54770000
vn 0.79680000 -0.54730000 0.25580000
vn 0.79680000 -0.58370000 -0.15580000
vn 0.79690000 -0.34700000 -0.49460000
vn 0.79690000 0.05210000 -0.60190000
vn 0.79700000 0.42670000 -0.42740000
vn 0.79700000 0.60160000 -0.05320000
vn -0.00800000 -0.99610000 0.08800000
vn -0.00800000 -0.99610000 0.08800000
vn -0.00790000 -0.81970000 -0.57280000
vn -0.00790000 -0.81970000 -0.57280000
vn -0.00790000 -0.25970000 -0.96560000
vn -0.00790000 -0.25970000 -0.96560000
vn -0.00780000 0.42180000 -0.90660000
vn -0.00780000 0.42180000 -0.90660000
vn -0.00780000 0.90590000 -0.42340000
vn -0.00780000 0.90590000 -0.42340000
vn -0.00780000 0.96610000 0.25790000
vn -0.00780000 0.96610000 0.25790000
vn -0.00780000 0.96610000 0.25790000
vn -0.00780000 0.57430000 0.81860000
vn -0.00780000 0.57430000 0.81860000
vn -0.00780000 0.57430000 0.81860000
vn -0.00780000 -0.08630000 0.99620000
vn -0.00780000 -0.08630000 0.99620000
vn -0.00790000 -0.70650000 0.70770000
vn -0.00790000 -0.70650000 0.70770000
vn 0.64420000 -0.62690000 -0.43810000
vn 1.00000000 0.00000000 0.00000000
vn 0.64420000 -0.19860000 -0.73860000
vn 1.00000000 0.00000000 0.00000000
vn 1.00000000 0.00000000 0.00000000
vn 0.64410000 -0.76190000 0.06740000
vn 0.64420000 -0.54040000 0.54130000
vn 1.00000000 0.00000000 0.00000000
vn 1.00000000 0.00000000 0.00000000
vn 0.64410000 0.32260000 -0.69350000
vn 0.64410000 -0.06590000 0.76200000
vn 1.00000000 0.00000000 0.00000000
vn 1.00000000 0.00000000 0.00000000
vn 0.64410000 0.69290000 -0.32390000
vn 0.64420000 0.43930000 0.62610000
vn 1.00000000 0.00000000 0.00000000
vn 1.00000000 0.00000000 0.00000000
vn 0.64410000 0.73900000 0.19730000
vn 0.64410000 0.73900000 0.19730000
vt 6.24750000 -2.35619400
vt 6.24750000 2.35619400
vt 6.24750000 1.83259600
vt 6.24750000 1.30899700
vt 6.24750000 0.78539800
vt 6.24750000 0.26179900
vt 6.24750000 -0.26179900
vt 6.24750000 -0.78539800
vt 6.24750000 -1.30899700
vt 6.24750000 -1.83259600
vt -0.25003800 0.52055200
vt 6.44750000 0.52359900
vt -0.25003800 0.00000000
vt 6.44750000 0.00000000
vt 6.44750000 -0.52359900
vt -0.25003800 -0.52055200
vt 6.44750000 -1.04719800
vt -0.25003800 -1.04110500
vt 6.44750000 -1.57079600
vt -0.25003800 -1.56165700
vt -0.25003800 -2.08220900
vt -0.25003800 2.60276200
vt 6.44750000 -2.09439500
vt 6.44750000 2.09439500
vt -0.25003800 2.08220900
vt 6.44750000 -2.61799400
vt 6.44750000 1.57079600
vt -0.25003800 1.56165700
vt 6.44750000 1.04719800
vt -0.25003800 1.04110500
vt 0.25003800 0.00000000
vt 0.00000000 0.00000000
vt 0.25003800 -0.52055200
vt -0.47648100 -0.17342500
vt 0.47648100 -0.17342500
vt 0.25003800 0.52055200
vt 0.25003800 1.04110500
vt 0.73001100 -0.61255200
vt -0.73001100 -0.61255200
vt 0.25003800 -1.04110500
vt 0.25003800 1.56165700
vt 0.64196100 -1.11190900
vt -0.64196100 -1.11190900
vt 0.25003800 -1.56165700
vt 0.25003800 2.08220900
vt 0.25353000 -1.43784100
vt -0.25353000 -1.43784100
vt 0.25003800 2.60276200
vt 0.25003800 -2.08220900
f 32/32/32 34/34/34 35/35/35
f 35/35/35 34/34/34 38/38/38
f 38/38/38 34/34/34 39/39/39
f 38/38/38 39/39/39 42/42/42
f 42/42/42 39/39/39 43/43/43
f 42/42/42 43/43/43 46/46/46
f 46/46/46 43/43/43 47/47/47
f 12/12/12 6/6/6 14/14/14
f 14/14/14 6/6/6 7/7/7
f 14/14/14 7/7/7 15/15/15
f 15/15/15 7/7/7 8/8/8
f 15/15/15 8/8/8 17/17/17
f 17/17/17 8/8/8 9/9/9
f 17/17/17 9/9/9 19/19/19
f 19/19/19 9/9/9 10/10/10
f 19/19/19 10/10/10 23/23/23
f 23/23/23 10/10/10 1/1/1
f 23/23/23 1/1/1 26/26/26
f 24/24/24 2/2/2 3/3/3
f 24/24/24 3/3/3 27/27/27
f 27/27/27 3/3/3 4/4/4
f 27/27/27 4/4/4 29/29/29
f 29/29/29 4/4/4 5/5/5
f 29/29/29 5/5/5 12/12/12
f 12/12/12 5/5/5 6/6/6
f 36/36/36 13/13/13 31/31/31
f 31/31/31 13/13/13 16/16/16
f 31/31/31 16/16/16 33/33/33
f 33/33/33 16/16/16 18/18/18
f 33/33/33 18/18/18 40/40/40
f 40/40/40 18/18/18 20/20/20
f 40/40/40 20/20/20 44/44/44
f 44/44/44 20/20/20 21/21/21
f 44/44/44 21/21/21 49/49/49
f 48/48/48 22/22/22 25/25/25
f 48/48/48 25/25/25 45/45/45
f 45/45/45 25/25/25 28/28/28
f 45/45/45 28/28/28 41/41/41
f 41/41/41 28/28/28 30/30/30
f 41/41/41 30/30/30 37/37/37
f 37/37/37 30/30/30 11/11/11
f 37/37/37 11/11/11 36/36/36
f 36/36/36 11/11/11 13/13/13

