mtllib material.mtl
usemtl Axis_Number
v 0.05450000 0.00175000 0.01170000
v 0.05450000 0.00125000 0.01170000
v 0.05450000 0.00100000 0.01145000
v 0.05450000 0.00119400 0.01169400
v 0.05450000 0.00185800 0.00877500
v 0.05450000 0.00200000 0.00900000
v 0.05450000 0.00180600 0.00875600
v 0.05450000 0.00175000 0.00875000
v 0.05450000 0.00175000 0.00875000
v 0.05450000 0.00200000 0.00900000
v 0.05450000 0.00100000 0.01039700
v 0.05450000 0.00200000 0.01145000
v 0.05450000 0.00100000 0.01145000
v 0.05450000 0.00185800 0.00877500
v 0.05450000 0.00190600 0.00880500
v 0.05450000 0.00190600 0.00880500
v 0.05450000 0.00200000 0.00900000
v 0.05450000 0.00200000 0.00900000
v 0.05450000 0.00194500 0.00884400
v 0.05450000 0.00199400 0.00894400
v 0.05450000 0.00197500 0.00889200
v 0.05450000 0.00100000 0.01145000
v 0.05450000 0.00200000 0.01145000
v 0.05450000 0.00175000 0.01170000
v 0.05450000 0.00199400 0.01150600
v 0.05450000 0.00197500 0.01155800
v 0.05450000 0.00197500 0.01155800
v 0.05450000 0.00194500 0.01160600
v 0.05450000 0.00190600 0.01164500
v 0.05450000 0.00119400 0.01169400
v 0.05450000 0.00114200 0.01167500
v 0.05450000 0.00100000 0.01145000
v 0.05450000 0.00100000 0.01145000
v 0.05450000 0.00109400 0.01164500
v 0.05450000 0.00109400 0.01164500
v 0.05450000 0.00100600 0.01150600
v 0.05450000 0.00100600 0.01150600
v 0.05450000 0.00105500 0.01160600
v 0.05450000 0.00102500 0.01155800
v 0.05450000 -0.00099700 0.00994000
v 0.05450000 -0.00200000 0.00998800
v 0.05450000 -0.00095900 0.00975200
v 0.05450000 -0.00194500 0.00950100
v 0.05450000 -0.00087400 0.00956700
v 0.05450000 -0.00099700 0.00994000
v 0.05450000 -0.00100000 0.00998800
v 0.05450000 -0.00200000 0.00998800
v 0.05450000 -0.00099500 0.01008000
v 0.05450000 -0.00195900 0.01046500
v 0.05450000 -0.00097200 0.01017600
v 0.05450000 -0.00184000 0.01083700
v 0.05450000 -0.00093300 0.01025200
v 0.05450000 -0.00168900 0.01109200
v 0.05450000 -0.00088100 0.01031200
v 0.05450000 -0.00150400 0.01128500
v 0.05450000 -0.00081900 0.01035600
v 0.05450000 -0.00129400 0.01141900
v 0.05450000 0.00190600 0.01164500
v 0.05450000 0.00185800 0.01167500
v 0.05450000 0.00197500 0.01155800
v 0.05450000 0.00180600 0.01169400
v 0.05450000 0.00175000 0.01170000
v 0.05450000 -0.00058600 0.00914200
v 0.05450000 -0.00060400 0.00920000
v 0.05450000 -0.00060400 0.00920000
v 0.05450000 -0.00065500 0.00891900
v 0.05450000 -0.00065500 0.00891900
v 0.05450000 -0.00063600 0.00925200
v 0.05450000 -0.00063600 0.00925200
v 0.05450000 -0.00100000 0.00857300
v 0.05450000 -0.00105200 0.00853400
v 0.05450000 -0.00100000 0.00857300
v 0.05450000 -0.00135300 0.00857300
v 0.05450000 -0.00063600 0.00925200
v 0.05450000 -0.00164300 0.00888200
v 0.05450000 -0.00087400 0.00956700
v 0.05450000 -0.00182400 0.00915900
v 0.05450000 -0.00194500 0.00950100
v 0.05450000 -0.00130100 0.00853300
v 0.05450000 -0.00124100 0.00850800
v 0.05450000 -0.00117600 0.00850000
v 0.05450000 0.00127900 0.00878100
v 0.05450000 0.00133700 0.00875800
v 0.05450000 0.00100000 0.01039700
v 0.05450000 0.00139900 0.00875000
v 0.05450000 0.00175000 0.00875000
v 0.05450000 -0.00130100 0.00853300
v 0.05450000 -0.00117600 0.00850000
v 0.05450000 -0.00135300 0.00857300
v 0.05450000 -0.00111200 0.00850900
v 0.05450000 -0.00105200 0.00853400
v 0.05450000 -0.00061700 0.00896600
v 0.05450000 -0.00059200 0.00902200
v 0.05450000 -0.00065500 0.00891900
v 0.05450000 -0.00058200 0.00908200
v 0.05450000 -0.00058600 0.00914200
v 0.05450000 -0.00129400 0.01141900
v 0.05450000 -0.00081900 0.01035600
v 0.05450000 -0.00104000 0.01150500
v 0.05450000 -0.00074400 0.01038600
v 0.05450000 -0.00081200 0.01152900
v 0.05450000 -0.00065100 0.01039900
v 0.05450000 -0.00048900 0.01150200
v 0.05450000 -0.00058600 0.01039300
v 0.05450000 -0.00020500 0.01140600
v 0.05450000 -0.00050800 0.01036600
v 0.05450000 -0.00050800 0.01036600
v 0.05450000 0.00011700 0.01120500
v 0.05450000 0.00011700 0.01120500
v 0.05450000 -0.00040100 0.01030600
v 0.05450000 -0.00040100 0.01030600
v 0.05450000 0.00032500 0.01102700
v 0.05450000 -0.00011400 0.01006800
v 0.05450000 0.00100000 0.01039700
v 0.05450000 0.00100000 0.01039700
v 0.05450000 0.00122800 0.00881700
v 0.05450000 0.00122800 0.00881700
v 0.05450000 0.00127900 0.00878100
vn 1.00000000 -0.00000000 -0.00000000
vn 1.00000000 -0.00000000 -0.00000000
vn 1.00000000 -0.00000000 -0.00000000
vn 1.00000000 -0.00000000 -0.00000000
vn 1.00000000 -0.00000000 -0.00000000
vn 1.00000000 -0.00000000 -0.00000000
vn 1.00000000 -0.00000000 -0.00000000
vn 1.00000000 -0.00000000 -0.00000000
vn 1.00000000 -0.00000000 -0.00000000
vn 1.00000000 -0.00000000 -0.00000000
vn 1.00000000 -0.00000000 -0.00000000
vn 1.00000000 -0.00000000 -0.00000000
vn 1.00000000 -0.00000000 -0.00000000
vn 1.00000000 -0.00020000 -0.00000000
vn 1.00000000 -0.00000000 -0.00000000
vn 1.00000000 -0.00020000 -0.00000000
vn 1.00000000 -0.00020000 -0.00000000
vn 1.00000000 -0.00000000 -0.00000000
vn 1.00000000 -0.00000000 -0.00000000
vn 1.00000000 -0.00000000 -0.00000000
vn 1.00000000 -0.00000000 -0.00000000
vn 1.00000000 -0.00000000 -0.00000000
vn 1.00000000 -0.00000000 -0.00000000
vn 1.00000000 -0.00000000 -0.00000000
vn 1.00000000 -0.00000000 -0.00000000
vn 1.00000000 -0.00000000 -0.00000000
vn 1.00000000 -0.00000000 -0.00000000
vn 1.00000000 -0.00000000 -0.00000000
vn 1.00000000 -0.00000000 -0.00000000
vn 1.00000000 -0.00000000 -0.00000000
vn 1.00000000 -0.00000000 -0.00000000
vn 1.00000000 -0.00020000 -0.00000000
vn 1.00000000 -0.00000000 -0.00000000
vn 1.00000000 -0.00020000 -0.00000000
vn 1.00000000 -0.00000000 -0.00000000
vn 1.00000000 -0.00000000 -0.00000000
vn 1.00000000 -0.00020000 -0.00000000
vn 1.00000000 -0.00000000 -0.00000000
vn 1.00000000 -0.00000000 -0.00000000
vn 1.00000000 -0.00000000 -0.00000000
vn 1.00000000 -0.00000000 -0.00000000
vn 1.00000000 -0.00000000 -0.00000000
vn 1.00000000 -0.00000000 -0.00000000
vn 1.00000000 -0.00000000 -0.00000000
vn 1.00000000 -0.00000000 -0.00000000
vn 1.00000000 -0.00000000 -0.00000000
vn 1.00000000 -0.00000000 -0.00000000
vn 1.00000000 -0.00000000 -0.00000000
vn 1.00000000 -0.00000000 -0.00000000
vn 1.00000000 -0.00000000 -0.00000000
vn 1.00000000 -0.00000000 -0.00000000
vn 1.00000000 -0.00000000 -0.00000000
vn 1.00000000 -0.00000000 -0.00000000
vn 1.00000000 -0.00000000 -0.00000000
vn 1.00000000 -0.00000000 -0.00000000
vn 1.00000000 -0.00000000 -0.00000000
vn 1.00000000 -0.00000000 -0.00000000
vn 1.00000000 -0.00000000 -0.00000000
vn 1.00000000 -0.00000000 -0.00000000
vn 1.00000000 -0.00000000 -0.00000000
vn 1.00000000 -0.00000000 -0.00000000
vn 1.00000000 -0.00000000 -0.00000000
vn 1.00000000 -0.00010000 -0.00000000
vn 1.00000000 -0.00010000 -0.00000000
vn 1.00000000 -0.00030000 -0.00000000
vn 1.00000000 -0.00000000 -0.00000000
vn 1.00000000 0.00020000 -0.00000000
vn 1.00000000 -0.00000000 -0.00000000
vn 1.00000000 -0.00030000 -0.00000000
vn 1.00000000 -0.00000000 -0.00000000
vn 1.00000000 -0.00000000 -0.00000000
vn 1.00000000 -0.00000000 -0.00000000
vn 1.00000000 -0.00000000 -0.00000000
vn 1.00000000 -0.00000000 -0.00000000
vn 1.00000000 -0.00000000 -0.00000000
vn 1.00000000 -0.00000000 -0.00000000
vn 1.00000000 -0.00000000 -0.00000000
vn 1.00000000 -0.00000000 -0.00000000
vn 1.00000000 -0.00000000 -0.00000000
vn 1.00000000 -0.00000000 -0.00000000
vn 1.00000000 -0.00000000 -0.00000000
vn 1.00000000 -0.00000000 -0.00000000
vn 1.00000000 -0.00000000 -0.00000000
vn 1.00000000 -0.00000000 -0.00000000
vn 1.00000000 -0.00000000 -0.00000000
vn 1.00000000 -0.00000000 -0.00000000
vn 1.00000000 -0.00000000 -0.00000000
vn 1.00000000 -0.00000000 -0.00000000
vn 1.00000000 -0.00000000 -0.00000000
vn 1.00000000 -0.00000000 -0.00000000
vn 1.00000000 -0.00000000 -0.00000000
vn 1.00000000 -0.00000000 -0.00000000
vn 1.00000000 -0.00000000 -0.00000000
vn 1.00000000 -0.00000000 -0.00000000
vn 1.00000000 -0.00000000 -0.00000000
vn 1.00000000 -0.00000000 -0.00000000
vn 1.00000000 -0.00000000 -0.00000000
vn 1.00000000 -0.00000000 -0.00000000
vn 1.00000000 -0.00000000 -0.00000000
vn 1.00000000 -0.00000000 -0.00000000
vn 1.00000000 -0.00000000 -0.00000000
vn 1.00000000 -0.00000000 -0.00000000
vn 1.00000000 -0.00000000 -0.00000000
vn 1.00000000 -0.00000000 -0.00000000
vn 1.00000000 -0.00000000 -0.00000000
vn 1.00000000 -0.00010000 -0.00000000
vn 1.00000000 -0.00000000 -0.00000000
vn 1.00000000 -0.00010000 -0.00000000
vn 1.00000000 -0.00000000 -0.00000000
vn 1.00000000 -0.00000000 -0.00000000
vn 1.00000000 -0.00010000 -0.00000000
vn 1.00000000 -0.00000000 -0.00000000
vn 1.00000000 -0.00000000 -0.00000000
vn 1.00000000 -0.00000000 -0.00000000
vn 1.00000000 0.00010000 -0.00000000
vn 1.00000000 0.00010000 -0.00000000
vn 1.00000000 -0.00000000 -0.00000000
vn 1.00000000 0.00010000 -0.00000000
f 1//1 2//2 3//3
f 2//2 4//4 3//3
f 5//5 6//6 7//7
f 6//6 8//8 7//7
f 9//9 10//10 11//11
f 10//10 12//12 11//11
f 11//11 12//12 13//13
f 14//14 16//16 17//17
f 15//15 19//19 18//18
f 18//18 19//19 20//20
f 19//19 21//21 20//20
f 22//22 23//23 24//24
f 23//23 25//25 24//24
f 24//24 25//25 26//26
f 27//27 28//28 29//29
f 30//30 31//31 33//33
f 31//31 35//35 33//33
f 32//32 34//34 37//37
f 35//35 38//38 36//36
f 36//36 38//38 39//39
f 40//40 41//41 42//42
f 41//41 43//43 42//42
f 42//42 43//43 44//44
f 45//45 46//46 47//47
f 46//46 48//48 47//47
f 47//47 48//48 49//49
f 48//48 50//50 49//49
f 49//49 50//50 51//51
f 50//50 52//52 51//51
f 51//51 52//52 53//53
f 52//52 54//54 53//53
f 53//53 54//54 55//55
f 54//54 56//56 55//55
f 55//55 56//56 57//57
f 58//58 59//59 60//60
f 59//59 61//61 60//60
f 60//60 61//61 62//62
f 63//63 64//64 67//67
f 65//65 69//69 66//66
f 66//66 68//68 70//70
f 71//71 72//72 73//73
f 72//72 74//74 73//73
f 73//73 74//74 75//75
f 74//74 76//76 75//75
f 75//75 76//76 77//77
f 76//76 78//78 77//77
f 79//79 80//80 81//81
f 82//82 83//83 84//84
f 83//83 85//85 84//84
f 84//84 85//85 86//86
f 87//87 88//88 89//89
f 88//88 90//90 89//89
f 89//89 90//90 91//91
f 92//92 93//93 94//94
f 93//93 95//95 94//94
f 94//94 95//95 96//96
f 97//97 98//98 99//99
f 98//98 100//100 99//99
f 99//99 100//100 101//101
f 100//100 102//102 101//101
f 101//101 102//102 103//103
f 102//102 104//104 103//103
f 103//103 104//104 105//105
f 104//104 107//107 105//105
f 105//105 107//107 109//109
f 106//106 111//111 108//108
f 109//109 110//110 112//112
f 110//110 113//113 112//112
f 112//112 113//113 114//114
f 113//113 117//117 114//114
f 115//115 116//116 118//118

