mtllib material.mtl
usemtl Rotation_Direction.002
v -0.03150100 0.03585500 -0.01219500
v -0.03147000 0.03588200 -0.01215600
v -0.03144500 0.03590400 -0.01222600
v -0.03150100 0.03585500 -0.01320700
v -0.03152500 0.03583400 -0.01315900
v -0.03152500 0.03583400 -0.01315900
v -0.03144500 0.03590400 -0.01317600
v -0.03144500 0.03590400 -0.01317600
v -0.03154000 0.03582100 -0.01310700
v -0.03154500 0.03581700 -0.01305100
v -0.03144500 0.03590400 -0.01317600
v -0.03134600 0.03599000 -0.01330100
v -0.03139000 0.03595200 -0.01329500
v -0.03139000 0.03595200 -0.01329500
v -0.03143200 0.03591500 -0.01327600
v -0.03144500 0.03590400 -0.01317600
v -0.03144500 0.03590400 -0.01317600
v -0.03144500 0.03590400 -0.01317600
v -0.03147000 0.03588200 -0.01324600
v -0.03147000 0.03588200 -0.01324600
v -0.03150100 0.03585500 -0.01320700
v -0.03147000 0.03588200 -0.01215600
v -0.03143200 0.03591500 -0.01212600
v -0.03143200 0.03591500 -0.01212600
v -0.03144500 0.03590400 -0.01222600
v -0.03144500 0.03590400 -0.01222600
v -0.03144500 0.03590400 -0.01222600
v -0.03139000 0.03595200 -0.01210700
v -0.03139000 0.03595200 -0.01210700
v -0.03134600 0.03599000 -0.01210100
v -0.03154500 0.03581700 -0.01235100
v -0.03154000 0.03582100 -0.01229500
v -0.03154000 0.03582100 -0.01229500
v -0.03144500 0.03590400 -0.01222600
v -0.03144500 0.03590400 -0.01222600
v -0.03152500 0.03583400 -0.01224300
v -0.03152500 0.03583400 -0.01224300
v -0.03150100 0.03585500 -0.01219500
v -0.03042400 0.03677100 -0.01210100
v -0.03042400 0.03677100 -0.01330100
v -0.03134600 0.03599000 -0.01210100
v -0.03134600 0.03599000 -0.01330100
v -0.03134600 0.03599000 -0.01330100
v -0.03144500 0.03590400 -0.01222600
v -0.03144500 0.03590400 -0.01222600
v -0.03144500 0.03590400 -0.01222600
v -0.03144500 0.03590400 -0.01317600
v -0.03154500 0.03581700 -0.01235100
v -0.03154500 0.03581700 -0.01305100
v -0.03042400 0.03677100 -0.01210100
v -0.03042400 0.03677100 -0.01095100
v -0.03032400 0.03685400 -0.01082600
v -0.03038000 0.03680700 -0.01079500
v -0.03034800 0.03683300 -0.01075600
v -0.03034800 0.03683300 -0.01075600
v -0.03032400 0.03685400 -0.01082600
v -0.03032400 0.03685400 -0.01082600
v -0.03031000 0.03686500 -0.01072600
v -0.03042400 0.03677100 -0.01095100
v -0.03041900 0.03677500 -0.01089500
v -0.03041900 0.03677500 -0.01089500
v -0.03032400 0.03685400 -0.01082600
v -0.03032400 0.03685400 -0.01082600
v -0.03040400 0.03678700 -0.01084300
v -0.03040400 0.03678700 -0.01084300
v -0.03038000 0.03680700 -0.01079500
v -0.02949400 0.03751900 -0.01079500
v -0.02947000 0.03753800 -0.01084300
v -0.02947000 0.03753800 -0.01084300
v -0.02955200 0.03747300 -0.01082600
v -0.02945500 0.03755000 -0.01089500
v -0.02955200 0.03747300 -0.01082600
v -0.02965400 0.03739300 -0.01070100
v -0.02960900 0.03742900 -0.01070700
v -0.02960900 0.03742900 -0.01070700
v -0.02956600 0.03746300 -0.01072600
v -0.02955200 0.03747300 -0.01082600
v -0.02955200 0.03747300 -0.01082600
v -0.02955200 0.03747300 -0.01082600
v -0.02952700 0.03749300 -0.01075600
v -0.02952700 0.03749300 -0.01075600
v -0.02949400 0.03751900 -0.01079500
v -0.03022200 0.03693600 -0.01070100
v -0.02965400 0.03739300 -0.01070100
v -0.02945000 0.03755400 -0.01210100
v -0.02945000 0.03755400 -0.01210100
v -0.02955200 0.03747300 -0.01082600
v -0.02955200 0.03747300 -0.01082600
v -0.02945000 0.03755400 -0.01095100
v -0.02945000 0.03755400 -0.01095100
v -0.02945500 0.03755000 -0.01089500
v -0.03031000 0.03686500 -0.01072600
v -0.03026700 0.03689900 -0.01070700
v -0.03032400 0.03685400 -0.01082600
v -0.03032400 0.03685400 -0.01082600
v -0.03022200 0.03693600 -0.01070100
v -0.03022200 0.03693600 -0.01070100
v -0.03022200 0.03693600 -0.01070100
v -0.03042400 0.03677100 -0.01210100
v -0.02945000 0.03755400 -0.01210100
v -0.03042400 0.03677100 -0.01330100
v -0.02945000 0.03755400 -0.01330100
v -0.02841400 0.03834100 -0.01212600
v -0.02837500 0.03837000 -0.01215600
v -0.02840000 0.03835100 -0.01222600
v -0.02837500 0.03837000 -0.01215600
v -0.02834200 0.03839400 -0.01219500
v -0.02834200 0.03839400 -0.01219500
v -0.02840000 0.03835100 -0.01222600
v -0.02840000 0.03835100 -0.01222600
v -0.02831700 0.03841300 -0.01224300
v -0.02831700 0.03841300 -0.01224300
v -0.02830200 0.03842400 -0.01229500
v -0.02841400 0.03834100 -0.01327600
v -0.02845800 0.03830900 -0.01329500
v -0.02840000 0.03835100 -0.01317600
v -0.02840000 0.03835100 -0.01317600
v -0.02850400 0.03827500 -0.01330100
v -0.02840000 0.03835100 -0.01222600
v -0.02831700 0.03841300 -0.01315900
v -0.02834200 0.03839400 -0.01320700
v -0.02834200 0.03839400 -0.01320700
v -0.02840000 0.03835100 -0.01317600
v -0.02840000 0.03835100 -0.01317600
v -0.02837500 0.03837000 -0.01324600
v -0.02837500 0.03837000 -0.01324600
v -0.02841400 0.03834100 -0.01327600
v -0.02830200 0.03842400 -0.01229500
v -0.02829700 0.03842800 -0.01235100
v -0.02829700 0.03842800 -0.01235100
v -0.02840000 0.03835100 -0.01222600
v -0.02840000 0.03835100 -0.01222600
v -0.02829700 0.03842800 -0.01305100
v -0.02829700 0.03842800 -0.01305100
v -0.02829700 0.03842800 -0.01305100
v -0.02840000 0.03835100 -0.01317600
v -0.02840000 0.03835100 -0.01317600
v -0.02830200 0.03842400 -0.01310700
v -0.02831700 0.03841300 -0.01315900
v -0.02945000 0.03755400 -0.01330100
v -0.02945000 0.03755400 -0.01210100
v -0.02850400 0.03827500 -0.01330100
v -0.02850400 0.03827500 -0.01210100
v -0.02850400 0.03827500 -0.01210100
v -0.02850400 0.03827500 -0.01210100
v -0.02840000 0.03835100 -0.01222600
v -0.02840000 0.03835100 -0.01222600
v -0.02845800 0.03830900 -0.01210700
v -0.02841400 0.03834100 -0.01212600
v -0.02952700 0.03749300 -0.01464600
v -0.02956600 0.03746300 -0.01467600
v -0.02956600 0.03746300 -0.01467600
v -0.02955200 0.03747300 -0.01457600
v -0.02955200 0.03747300 -0.01457600
v -0.02955200 0.03747300 -0.01457600
v -0.02960900 0.03742900 -0.01469500
v -0.02960900 0.03742900 -0.01469500
v -0.02965400 0.03739300 -0.01470100
v -0.02945500 0.03755000 -0.01450700
v -0.02947000 0.03753800 -0.01455900
v -0.02955200 0.03747300 -0.01457600
v -0.02955200 0.03747300 -0.01457600
v -0.02949400 0.03751900 -0.01460700
v -0.02949400 0.03751900 -0.01460700
v -0.02952700 0.03749300 -0.01464600
v -0.03032400 0.03685400 -0.01457600
v -0.03038000 0.03680700 -0.01460700
v -0.03040400 0.03678700 -0.01455900
v -0.03040400 0.03678700 -0.01455900
v -0.03041900 0.03677500 -0.01450700
v -0.03032400 0.03685400 -0.01457600
v -0.03042400 0.03677100 -0.01445100
v -0.03042400 0.03677100 -0.01330100
v -0.03026700 0.03689900 -0.01469500
v -0.03031000 0.03686500 -0.01467600
v -0.03032400 0.03685400 -0.01457600
v -0.03032400 0.03685400 -0.01457600
v -0.03032400 0.03685400 -0.01457600
v -0.03034800 0.03683300 -0.01464600
v -0.03034800 0.03683300 -0.01464600
v -0.03038000 0.03680700 -0.01460700
v -0.03026700 0.03689900 -0.01469500
v -0.03032400 0.03685400 -0.01457600
v -0.03032400 0.03685400 -0.01457600
v -0.03022200 0.03693600 -0.01470100
v -0.03022200 0.03693600 -0.01470100
v -0.03042400 0.03677100 -0.01330100
v -0.02965400 0.03739300 -0.01470100
v -0.02945000 0.03755400 -0.01330100
v -0.02955200 0.03747300 -0.01457600
v -0.02955200 0.03747300 -0.01457600
v -0.02945000 0.03755400 -0.01445100
v -0.02945500 0.03755000 -0.01450700
v -0.00461000 0.04748000 -0.01460300
v -0.00463200 0.04747800 -0.01462800
v -0.00463200 0.04747800 -0.01462800
v -0.00468600 0.04747300 -0.01457600
v -0.00468600 0.04747300 -0.01457600
v -0.00468600 0.04747300 -0.01457600
v -0.00468600 0.04747300 -0.01466800
v -0.00468600 0.04747300 -0.01466800
v -0.00474900 0.04746700 -0.01469200
v -0.00456500 0.04748500 -0.01451600
v -0.00457600 0.04748400 -0.01454700
v -0.00457600 0.04748400 -0.01454700
v -0.00468600 0.04747300 -0.01457600
v -0.00459100 0.04748200 -0.01457600
v -0.00461000 0.04748000 -0.01460300
v -0.00567000 0.04736600 -0.01457600
v -0.00455600 0.04748600 -0.01445100
v -0.00468600 0.04747300 -0.01457600
v -0.00455800 0.04748500 -0.01448400
v -0.00455800 0.04748500 -0.01448400
v -0.00456500 0.04748500 -0.01451600
v -0.00565300 0.04736800 -0.01467600
v -0.00570200 0.04736200 -0.01464600
v -0.00570200 0.04736200 -0.01464600
v -0.00567000 0.04736600 -0.01457600
v -0.00567000 0.04736600 -0.01457600
v -0.00567000 0.04736600 -0.01457600
v -0.00574200 0.04735700 -0.01460700
v -0.00574200 0.04735700 -0.01460700
v -0.00577300 0.04735300 -0.01455900
v -0.00455600 0.04748600 -0.01095100
v -0.00455600 0.04748600 -0.01445100
v -0.00579900 0.04735000 -0.01445100
v -0.00567000 0.04736600 -0.01457600
v -0.00567000 0.04736600 -0.01457600
v -0.00579200 0.04735100 -0.01450700
v -0.00579200 0.04735100 -0.01450700
v -0.00577300 0.04735300 -0.01455900
v -0.00474900 0.04746700 -0.01469200
v -0.00481600 0.04746000 -0.01470100
v -0.00468600 0.04747300 -0.01457600
v -0.00554100 0.04738100 -0.01470100
v -0.00567000 0.04736600 -0.01457600
v -0.00559800 0.04737400 -0.01469500
v -0.00559800 0.04737400 -0.01469500
v -0.00565300 0.04736800 -0.01467600
v -0.00574500 0.04735700 -0.01079900
v -0.00572300 0.04735900 -0.01077400
v -0.00572300 0.04735900 -0.01077400
v -0.00567000 0.04736600 -0.01082600
v -0.00567000 0.04736600 -0.01082600
v -0.00567000 0.04736600 -0.01073400
v -0.00567000 0.04736600 -0.01073400
v -0.00560800 0.04737300 -0.01071000
v -0.00579000 0.04735100 -0.01088600
v -0.00577900 0.04735300 -0.01085500
v -0.00567000 0.04736600 -0.01082600
v -0.00567000 0.04736600 -0.01082600
v -0.00576400 0.04735400 -0.01082600
v -0.00574500 0.04735700 -0.01079900
v -0.00468600 0.04747300 -0.01082600
v -0.00579900 0.04735000 -0.01095100
v -0.00567000 0.04736600 -0.01082600
v -0.00567000 0.04736600 -0.01082600
v -0.00567000 0.04736600 -0.01082600
v -0.00579600 0.04735000 -0.01091800
v -0.00579000 0.04735100 -0.01088600
v -0.00470300 0.04747100 -0.01072600
v -0.00465400 0.04747600 -0.01075600
v -0.00465400 0.04747600 -0.01075600
v -0.00468600 0.04747300 -0.01082600
v -0.00468600 0.04747300 -0.01082600
v -0.00468600 0.04747300 -0.01082600
v -0.00461300 0.04748000 -0.01079500
v -0.00461300 0.04748000 -0.01079500
v -0.00458200 0.04748300 -0.01084300
v -0.00579900 0.04735000 -0.01445100
v -0.00579900 0.04735000 -0.01095100
v -0.00455600 0.04748600 -0.01095100
v -0.00455600 0.04748600 -0.01095100
v -0.00468600 0.04747300 -0.01082600
v -0.00468600 0.04747300 -0.01082600
v -0.00456200 0.04748500 -0.01089500
v -0.00456200 0.04748500 -0.01089500
v -0.00458200 0.04748300 -0.01084300
v -0.00560800 0.04737300 -0.01071000
v -0.00554100 0.04738100 -0.01070100
v -0.00554100 0.04738100 -0.01070100
v -0.00567000 0.04736600 -0.01082600
v -0.00481600 0.04746000 -0.01070100
v -0.00481600 0.04746000 -0.01070100
v -0.00468600 0.04747300 -0.01082600
v -0.00468600 0.04747300 -0.01082600
v -0.00475800 0.04746600 -0.01070700
v -0.00470300 0.04747100 -0.01072600
vn -0.65890000 0.75220000 -0.00000000
vn -0.65860000 0.75250000 -0.00010000
vn -0.65800000 0.75300000 -0.00010000
vn -0.65900000 0.75220000 0.00010000
vn -0.65940000 0.75180000 -0.00000000
vn -0.65950000 0.75170000 -0.00000000
vn -0.65790000 0.75310000 -0.00000000
vn -0.65780000 0.75320000 -0.00000000
vn -0.65980000 0.75140000 -0.00000000
vn -0.65990000 0.75130000 -0.00000000
vn -0.65790000 0.75310000 -0.00000000
vn -0.65570000 0.75500000 -0.00010000
vn -0.65670000 0.75410000 -0.00000000
vn -0.65690000 0.75390000 0.00020000
vn -0.65760000 0.75340000 -0.00000000
vn -0.65780000 0.75320000 -0.00000000
vn -0.65770000 0.75320000 -0.00000000
vn -0.65770000 0.75330000 -0.00010000
vn -0.65840000 0.75260000 0.00030000
vn -0.65810000 0.75300000 -0.00000000
vn -0.65900000 0.75220000 -0.00000000
vn -0.65840000 0.75270000 -0.00000000
vn -0.65750000 0.75340000 -0.00000000
vn -0.65760000 0.75340000 -0.00000000
vn -0.65800000 0.75300000 0.00010000
vn -0.65800000 0.75300000 -0.00000000
vn -0.65790000 0.75310000 -0.00000000
vn -0.65670000 0.75420000 0.00010000
vn -0.65670000 0.75410000 -0.00000000
vn -0.65580000 0.75500000 -0.00000000
vn -0.66000000 0.75130000 -0.00000000
vn -0.65980000 0.75140000 -0.00000000
vn -0.65990000 0.75130000 -0.00000000
vn -0.65790000 0.75310000 -0.00000000
vn -0.65790000 0.75310000 -0.00010000
vn -0.65940000 0.75180000 -0.00000000
vn -0.65950000 0.75170000 -0.00000000
vn -0.65890000 0.75220000 -0.00010000
vn -0.63650000 0.77130000 -0.00000000
vn -0.63650000 0.77130000 -0.00000000
vn -0.65580000 0.75500000 -0.00000000
vn -0.65570000 0.75500000 -0.00000000
vn -0.65580000 0.75500000 -0.00000000
vn -0.65800000 0.75310000 -0.00000000
vn -0.65780000 0.75320000 -0.00000000
vn -0.65790000 0.75310000 -0.00000000
vn -0.65790000 0.75310000 -0.00000000
vn -0.66000000 0.75130000 -0.00000000
vn -0.65990000 0.75130000 -0.00000000
vn -0.63650000 0.77130000 -0.00000000
vn -0.63650000 0.77130000 -0.00000000
vn -0.63440000 0.77300000 -0.00000000
vn -0.63540000 0.77220000 -0.00000000
vn -0.63510000 0.77240000 0.00010000
vn -0.63500000 0.77250000 -0.00010000
vn -0.63440000 0.77300000 -0.00000000
vn -0.63430000 0.77310000 -0.00010000
vn -0.63410000 0.77320000 -0.00000000
vn -0.63650000 0.77120000 -0.00000000
vn -0.63640000 0.77140000 -0.00000000
vn -0.63640000 0.77130000 -0.00000000
vn -0.63430000 0.77310000 -0.00000000
vn -0.63440000 0.77300000 -0.00000000
vn -0.63610000 0.77160000 -0.00000000
vn -0.63600000 0.77160000 -0.00000000
vn -0.63560000 0.77200000 0.00010000
vn -0.61730000 0.78680000 -0.00020000
vn -0.61650000 0.78730000 -0.00000000
vn -0.61650000 0.78740000 -0.00000000
vn -0.61830000 0.78600000 -0.00000000
vn -0.61620000 0.78760000 -0.00000000
vn -0.61830000 0.78600000 -0.00000000
vn -0.62030000 0.78440000 -0.00010000
vn -0.61950000 0.78500000 -0.00010000
vn -0.61930000 0.78520000 -0.00010000
vn -0.61860000 0.78570000 -0.00000000
vn -0.61810000 0.78610000 -0.00010000
vn -0.61810000 0.78610000 -0.00030000
vn -0.61800000 0.78620000 -0.00010000
vn -0.61770000 0.78640000 -0.00020000
vn -0.61780000 0.78630000 -0.00010000
vn -0.61710000 0.78690000 -0.00010000
vn -0.63230000 0.77480000 -0.00000000
vn -0.62040000 0.78430000 -0.00000000
vn -0.61610000 0.78760000 -0.00000000
vn -0.61610000 0.78770000 -0.00000000
vn -0.61820000 0.78600000 -0.00000000
vn -0.61830000 0.78600000 -0.00000000
vn -0.61620000 0.78760000 -0.00000000
vn -0.61610000 0.78770000 -0.00000000
vn -0.61620000 0.78760000 -0.00000000
vn -0.63410000 0.77330000 -0.00000000
vn -0.63320000 0.77400000 -0.00000000
vn -0.63440000 0.77300000 -0.00000000
vn -0.63430000 0.77310000 -0.00000000
vn -0.63240000 0.77460000 -0.00010000
vn -0.63220000 0.77480000 -0.00000000
vn -0.63230000 0.77480000 -0.00010000
vn -0.63650000 0.77130000 -0.00000000
vn -0.61610000 0.78770000 -0.00000000
vn -0.63650000 0.77130000 -0.00000000
vn -0.61610000 0.78770000 -0.00000000
vn -0.59410000 0.80440000 -0.00010000
vn -0.59380000 0.80460000 0.00010000
vn -0.59410000 0.80440000 -0.00010000
vn -0.59350000 0.80490000 -0.00010000
vn -0.59290000 0.80530000 -0.00000000
vn -0.59290000 0.80520000 -0.00000000
vn -0.59420000 0.80430000 -0.00000000
vn -0.59410000 0.80440000 -0.00000000
vn -0.59240000 0.80570000 -0.00000000
vn -0.59240000 0.80560000 -0.00000000
vn -0.59210000 0.80590000 -0.00000000
vn -0.59470000 0.80390000 -0.00010000
vn -0.59530000 0.80350000 -0.00000000
vn -0.59410000 0.80440000 -0.00000000
vn -0.59420000 0.80430000 -0.00000000
vn -0.59640000 0.80270000 -0.00000000
vn -0.59410000 0.80440000 -0.00000000
vn -0.59250000 0.80560000 -0.00000000
vn -0.59310000 0.80510000 0.00030000
vn -0.59310000 0.80510000 0.00010000
vn -0.59420000 0.80430000 -0.00000000
vn -0.59410000 0.80440000 -0.00030000
vn -0.59380000 0.80460000 -0.00000000
vn -0.59410000 0.80440000 -0.00030000
vn -0.59410000 0.80440000 -0.00030000
vn -0.59210000 0.80590000 -0.00000000
vn -0.59200000 0.80600000 -0.00000000
vn -0.59200000 0.80590000 -0.00000000
vn -0.59420000 0.80430000 -0.00000000
vn -0.59410000 0.80440000 -0.00000000
vn -0.59200000 0.80600000 -0.00000000
vn -0.59190000 0.80600000 -0.00000000
vn -0.59200000 0.80590000 -0.00000000
vn -0.59420000 0.80440000 -0.00000000
vn -0.59410000 0.80440000 -0.00000000
vn -0.59210000 0.80590000 -0.00000000
vn -0.59230000 0.80570000 -0.00000000
vn -0.61610000 0.78770000 -0.00000000
vn -0.61610000 0.78770000 -0.00000000
vn -0.59630000 0.80280000 -0.00000000
vn -0.59630000 0.80280000 -0.00010000
vn -0.59620000 0.80280000 -0.00000000
vn -0.59630000 0.80270000 -0.00000000
vn -0.59420000 0.80430000 -0.00000000
vn -0.59410000 0.80440000 -0.00000000
vn -0.59540000 0.80340000 -0.00010000
vn -0.59430000 0.80420000 -0.00000000
vn -0.61760000 0.78650000 -0.00000000
vn -0.61840000 0.78580000 -0.00010000
vn -0.61850000 0.78580000 -0.00010000
vn -0.61830000 0.78590000 -0.00000000
vn -0.61810000 0.78610000 -0.00010000
vn -0.61830000 0.78600000 -0.00000000
vn -0.61950000 0.78500000 0.00010000
vn -0.61900000 0.78540000 0.00010000
vn -0.62040000 0.78430000 -0.00010000
vn -0.61620000 0.78760000 -0.00000000
vn -0.61660000 0.78730000 -0.00000000
vn -0.61820000 0.78600000 -0.00000000
vn -0.61830000 0.78600000 -0.00000000
vn -0.61710000 0.78690000 -0.00000000
vn -0.61700000 0.78690000 -0.00000000
vn -0.61750000 0.78650000 0.00030000
vn -0.63450000 0.77300000 0.00010000
vn -0.63560000 0.77200000 -0.00000000
vn -0.63600000 0.77170000 -0.00000000
vn -0.63600000 0.77170000 -0.00000000
vn -0.63640000 0.77140000 -0.00000000
vn -0.63440000 0.77300000 -0.00000000
vn -0.63650000 0.77130000 -0.00000000
vn -0.63650000 0.77130000 -0.00000000
vn -0.63330000 0.77390000 -0.00000000
vn -0.63390000 0.77340000 0.00010000
vn -0.63460000 0.77290000 0.00010000
vn -0.63460000 0.77290000 -0.00020000
vn -0.63460000 0.77280000 0.00010000
vn -0.63470000 0.77280000 -0.00000000
vn -0.63460000 0.77290000 -0.00020000
vn -0.63510000 0.77250000 0.00010000
vn -0.63320000 0.77400000 -0.00010000
vn -0.63440000 0.77300000 -0.00000000
vn -0.63430000 0.77310000 -0.00000000
vn -0.63230000 0.77470000 -0.00000000
vn -0.63220000 0.77480000 -0.00000000
vn -0.63650000 0.77130000 -0.00000000
vn -0.62040000 0.78430000 -0.00000000
vn -0.61610000 0.78770000 -0.00000000
vn -0.61820000 0.78600000 -0.00000000
vn -0.61830000 0.78600000 -0.00000000
vn -0.61610000 0.78770000 -0.00000000
vn -0.61620000 0.78760000 -0.00000000
vn -0.09660000 0.99530000 -0.00000000
vn -0.09730000 0.99530000 0.00030000
vn -0.09720000 0.99530000 0.00030000
vn -0.09760000 0.99520000 0.00010000
vn -0.09780000 0.99520000 0.00010000
vn -0.09770000 0.99520000 0.00010000
vn -0.09790000 0.99520000 -0.00000000
vn -0.09800000 0.99520000 -0.00000000
vn -0.09930000 0.99510000 -0.00000000
vn -0.09550000 0.99540000 -0.00000000
vn -0.09570000 0.99540000 -0.00000000
vn -0.09560000 0.99540000 -0.00000000
vn -0.09800000 0.99520000 -0.00000000
vn -0.09600000 0.99540000 -0.00000000
vn -0.09650000 0.99530000 0.00010000
vn -0.11860000 0.99290000 -0.00000000
vn -0.09530000 0.99540000 -0.00000000
vn -0.09800000 0.99520000 -0.00000000
vn -0.09540000 0.99540000 -0.00000000
vn -0.09530000 0.99540000 -0.00000000
vn -0.09540000 0.99540000 -0.00000000
vn -0.11830000 0.99300000 -0.00000000
vn -0.11910000 0.99290000 -0.00000000
vn -0.11890000 0.99290000 -0.00010000
vn -0.11890000 0.99290000 -0.00010000
vn -0.11860000 0.99290000 -0.00000000
vn -0.11870000 0.99290000 -0.00000000
vn -0.12010000 0.99280000 -0.00000000
vn -0.12000000 0.99280000 0.00020000
vn -0.12070000 0.99270000 0.00010000
vn -0.09530000 0.99540000 -0.00000000
vn -0.09530000 0.99540000 -0.00000000
vn -0.12130000 0.99260000 -0.00000000
vn -0.11860000 0.99290000 -0.00000000
vn -0.11850000 0.99300000 -0.00000000
vn -0.12130000 0.99260000 -0.00000000
vn -0.12120000 0.99260000 -0.00000000
vn -0.12080000 0.99270000 -0.00000000
vn -0.09930000 0.99510000 -0.00000000
vn -0.10070000 0.99490000 -0.00000000
vn -0.09800000 0.99520000 -0.00000000
vn -0.11590000 0.99330000 -0.00000000
vn -0.11860000 0.99290000 -0.00000000
vn -0.11720000 0.99310000 -0.00010000
vn -0.11710000 0.99310000 -0.00000000
vn -0.11800000 0.99300000 -0.00000000
vn -0.12020000 0.99270000 -0.00000000
vn -0.11970000 0.99280000 -0.00000000
vn -0.11950000 0.99280000 -0.00000000
vn -0.11870000 0.99290000 -0.00000000
vn -0.11850000 0.99290000 -0.00000000
vn -0.11860000 0.99290000 -0.00000000
vn -0.11920000 0.99290000 0.00010000
vn -0.11740000 0.99310000 -0.00000000
vn -0.12110000 0.99260000 -0.00000000
vn -0.12090000 0.99270000 -0.00000000
vn -0.11870000 0.99290000 -0.00000000
vn -0.11860000 0.99290000 -0.00000000
vn -0.12060000 0.99270000 -0.00000000
vn -0.12020000 0.99280000 -0.00000000
vn -0.09800000 0.99520000 -0.00000000
vn -0.12130000 0.99260000 -0.00000000
vn -0.11860000 0.99290000 -0.00000000
vn -0.11870000 0.99290000 -0.00000000
vn -0.11850000 0.99290000 -0.00000000
vn -0.12120000 0.99260000 -0.00000000
vn -0.12110000 0.99260000 -0.00000000
vn -0.09840000 0.99520000 -0.00000000
vn -0.09750000 0.99520000 -0.00000000
vn -0.09760000 0.99520000 -0.00000000
vn -0.09780000 0.99520000 0.00010000
vn -0.09790000 0.99520000 -0.00000000
vn -0.09780000 0.99520000 -0.00000000
vn -0.09670000 0.99530000 -0.00010000
vn -0.09650000 0.99530000 -0.00000000
vn -0.09580000 0.99540000 -0.00000000
vn -0.12130000 0.99260000 -0.00000000
vn -0.12130000 0.99260000 -0.00000000
vn -0.09530000 0.99540000 -0.00000000
vn -0.09540000 0.99540000 -0.00000000
vn -0.09800000 0.99520000 -0.00000000
vn -0.09800000 0.99520000 -0.00010000
vn -0.09550000 0.99540000 -0.00000000
vn -0.09540000 0.99540000 -0.00000000
vn -0.09580000 0.99540000 -0.00000000
vn -0.11720000 0.99310000 -0.00010000
vn -0.11600000 0.99320000 -0.00010000
vn -0.11590000 0.99330000 -0.00000000
vn -0.11860000 0.99290000 -0.00000000
vn -0.10070000 0.99490000 -0.00000000
vn -0.10070000 0.99490000 -0.00010000
vn -0.09800000 0.99520000 -0.00000000
vn -0.09810000 0.99520000 -0.00000000
vn -0.09950000 0.99500000 0.00010000
vn -0.09860000 0.99510000 -0.00000000
f 1//1 2//2 3//3
f 4//4 5//5 7//7
f 6//6 9//9 8//8
f 8//8 9//9 10//10
f 11//11 12//12 13//13
f 14//14 15//15 17//17
f 15//15 20//20 18//18
f 16//16 19//19 21//21
f 22//22 23//23 26//26
f 24//24 28//28 25//25
f 27//27 29//29 30//30
f 31//31 33//33 34//34
f 32//32 36//36 35//35
f 35//35 37//37 38//38
f 39//39 40//40 41//41
f 40//40 43//43 41//41
f 41//41 42//42 44//44
f 42//42 47//47 46//46
f 45//45 47//47 48//48
f 47//47 49//49 48//48
f 50//50 51//51 52//52
f 53//53 55//55 56//56
f 54//54 58//58 57//57
f 59//59 61//61 62//62
f 60//60 65//65 63//63
f 63//63 64//64 66//66
f 67//67 68//68 70//70
f 69//69 71//71 70//70
f 72//72 73//73 74//74
f 75//75 76//76 77//77
f 76//76 80//80 78//78
f 79//79 81//81 82//82
f 83//83 84//84 86//86
f 84//84 88//88 86//86
f 85//85 87//87 89//89
f 88//88 91//91 90//90
f 92//92 93//93 94//94
f 93//93 98//98 94//94
f 95//95 96//96 99//99
f 97//97 100//100 99//99
f 99//99 100//100 101//101
f 100//100 102//102 101//101
f 103//103 104//104 105//105
f 106//106 107//107 109//109
f 108//108 112//112 109//109
f 110//110 111//111 113//113
f 114//114 115//115 117//117
f 115//115 118//118 116//116
f 116//116 118//118 119//119
f 120//120 121//121 123//123
f 122//122 125//125 123//123
f 124//124 126//126 127//127
f 128//128 130//130 131//131
f 129//129 134//134 131//131
f 132//132 135//135 137//137
f 133//133 138//138 136//136
f 137//137 138//138 139//139
f 140//140 141//141 142//142
f 141//141 145//145 142//142
f 142//142 144//144 146//146
f 143//143 148//148 147//147
f 147//147 148//148 149//149
f 150//150 152//152 154//154
f 151//151 157//157 153//153
f 155//155 156//156 158//158
f 159//159 160//160 161//161
f 160//160 164//164 161//161
f 162//162 163//163 165//165
f 166//166 167//167 168//168
f 169//169 170//170 171//171
f 170//170 172//172 171//171
f 171//171 172//172 173//173
f 174//174 175//175 176//176
f 175//175 180//180 177//177
f 178//178 179//179 181//181
f 182//182 183//183 186//186
f 184//184 187//187 185//185
f 186//186 187//187 188//188
f 187//187 189//189 188//188
f 188//188 189//189 190//190
f 189//189 192//192 190//190
f 191//191 192//192 193//193
f 194//194 195//195 197//197
f 196//196 201//201 199//199
f 198//198 200//200 202//202
f 203//203 205//205 206//206
f 204//204 207//207 206//206
f 206//206 207//207 208//208
f 209//209 210//210 211//211
f 210//210 212//212 211//211
f 211//211 213//213 214//214
f 215//215 217//217 218//218
f 216//216 221//221 219//219
f 220//220 222//222 223//223
f 224//224 225//225 226//226
f 225//225 227//227 226//226
f 226//226 228//228 230//230
f 228//228 231//231 229//229
f 232//232 233//233 234//234
f 233//233 235//235 234//234
f 234//234 235//235 236//236
f 235//235 238//238 236//236
f 236//236 237//237 239//239
f 240//240 241//241 244//244
f 242//242 246//246 243//243
f 244//244 245//245 247//247
f 248//248 249//249 250//250
f 249//249 252//252 250//250
f 251//251 252//252 253//253
f 254//254 255//255 256//256
f 255//255 259//259 258//258
f 257//257 259//259 260//260
f 261//261 262//262 264//264
f 263//263 268//268 265//265
f 266//266 267//267 269//269
f 270//270 271//271 272//272
f 271//271 274//274 272//272
f 273//273 274//274 276//276
f 275//275 278//278 277//277
f 279//279 280//280 282//282
f 281//281 283//283 282//282
f 282//282 283//283 285//285
f 284//284 287//287 286//286
f 285//285 287//287 288//288

