mtllib material.mtl
usemtl Disc_Lights_Red
v 0.08693300 0.07782900 0.02377700
v 0.08657300 0.07782300 0.02413000
v 0.08699400 0.07766200 0.02457300
v 0.08741200 0.07749200 0.02501400
v 0.08813400 0.07751400 0.02430700
v 0.08699400 0.07766200 0.02457300
v 0.08771400 0.07767600 0.02386500
v 0.08693300 0.07782900 0.02377700
v 0.08729200 0.07782900 0.02342300
v 0.08683700 0.07728400 0.02625200
v 0.08716800 0.07712800 0.02660500
v 0.08762400 0.07716900 0.02616400
v 0.08683700 0.07728400 0.02625200
v 0.08762400 0.07716900 0.02616400
v 0.08650400 0.07743400 0.02589800
v 0.08880300 0.07723600 0.02501400
v 0.08807900 0.07720200 0.02572100
v 0.08849400 0.07700800 0.02616400
v 0.08849400 0.07700800 0.02616400
v 0.08890600 0.07680500 0.02660500
v 0.08927000 0.07683300 0.02625200
v 0.08880300 0.07723600 0.02501400
v 0.08849400 0.07700800 0.02616400
v 0.08922000 0.07705000 0.02545700
v 0.08927000 0.07683300 0.02625200
v 0.08963300 0.07685500 0.02589800
v 0.08925300 0.07724700 0.02457200
v 0.08858300 0.07751700 0.02386500
v 0.08880300 0.07723600 0.02501400
v 0.08813400 0.07751400 0.02430700
v 0.08807900 0.07720200 0.02572100
v 0.08741200 0.07749200 0.02501400
v 0.08762400 0.07716900 0.02616400
v 0.08695800 0.07746800 0.02545700
v 0.08650400 0.07743400 0.02589800
v 0.08925300 0.07724700 0.02457200
v 0.08970300 0.07725100 0.02413000
v 0.08858300 0.07751700 0.02386500
v 0.08936800 0.07738400 0.02377700
v 0.08903100 0.07751200 0.02342300
vn 0.16610000 0.97010000 0.17710000
vn 0.16240000 0.96850000 0.18890000
vn 0.16590000 0.96490000 0.20340000
vn 0.16980000 0.96110000 0.21800000
vn 0.17730000 0.96460000 0.19510000
vn 0.16590000 0.96490000 0.20330000
vn 0.17330000 0.96830000 0.18010000
vn 0.16620000 0.97010000 0.17710000
vn 0.16970000 0.97150000 0.16530000
vn 0.16260000 0.95210000 0.25890000
vn 0.16610000 0.94820000 0.27060000
vn 0.17160000 0.95130000 0.25620000
vn 0.16250000 0.95210000 0.25890000
vn 0.17160000 0.95130000 0.25620000
vn 0.15920000 0.95580000 0.24730000
vn 0.18300000 0.95830000 0.21940000
vn 0.17680000 0.95410000 0.24190000
vn 0.18080000 0.94930000 0.25700000
vn 0.18080000 0.94930000 0.25700000
vn 0.18510000 0.94430000 0.27230000
vn 0.18840000 0.94670000 0.26130000
vn 0.18300000 0.95830000 0.21940000
vn 0.18080000 0.94930000 0.25700000
vn 0.18710000 0.95380000 0.23490000
vn 0.18840000 0.94670000 0.26130000
vn 0.19150000 0.94900000 0.25050000
vn 0.18630000 0.96070000 0.20570000
vn 0.18040000 0.96680000 0.18100000
vn 0.18300000 0.95830000 0.21940000
vn 0.17730000 0.96460000 0.19500000
vn 0.17690000 0.95410000 0.24190000
vn 0.16980000 0.96110000 0.21800000
vn 0.17160000 0.95130000 0.25620000
vn 0.16470000 0.95850000 0.23260000
vn 0.15920000 0.95580000 0.24730000
vn 0.18630000 0.96070000 0.20570000
vn 0.18910000 0.96290000 0.19230000
vn 0.18040000 0.96680000 0.18100000
vn 0.18600000 0.96600000 0.17970000
vn 0.18310000 0.96880000 0.16720000
f 1//1 2//2 3//3
f 4//4 5//5 6//6
f 5//5 7//7 6//6
f 6//6 7//7 8//8
f 7//7 9//9 8//8
f 10//10 11//11 12//12
f 13//13 14//14 15//15
f 16//16 17//17 18//18
f 19//19 20//20 21//21
f 22//22 23//23 24//24
f 23//23 25//25 24//24
f 24//24 25//25 26//26
f 27//27 28//28 29//29
f 28//28 30//30 29//29
f 29//29 30//30 31//31
f 30//30 32//32 31//31
f 31//31 32//32 33//33
f 32//32 34//34 33//33
f 33//33 34//34 35//35
f 36//36 37//37 38//38
f 37//37 39//39 38//38
f 38//38 39//39 40//40

