mtllib material.mtl
usemtl Axis_Number.002
v 0.05450000 -0.00096700 -0.24812500
v 0.05450000 -0.00101600 -0.24815800
v 0.05450000 -0.00019900 -0.24909700
v 0.05450000 -0.00105600 -0.24820200
v 0.05450000 0.00110000 -0.24809700
v 0.05450000 -0.00085200 -0.24809700
v 0.05450000 0.00135000 -0.24834700
v 0.05450000 -0.00019900 -0.24909700
v 0.05450000 0.00110000 -0.24909700
v 0.05450000 0.00135000 -0.24884700
v 0.05450000 0.00115600 -0.24909100
v 0.05450000 -0.00134900 -0.25016200
v 0.05450000 -0.00133500 -0.25022100
v 0.05450000 -0.00026000 -0.24953500
v 0.05450000 0.00135000 -0.24834700
v 0.05450000 -0.00085200 -0.24809700
v 0.05450000 0.00135000 -0.24884700
v 0.05450000 0.00135000 -0.24884700
v 0.05450000 -0.00085200 -0.24809700
v 0.05450000 -0.00019900 -0.24909700
v 0.05450000 -0.00091100 -0.24810400
v 0.05450000 -0.00096700 -0.24812500
v 0.05450000 -0.00026000 -0.24953500
v 0.05450000 -0.00004000 -0.25038500
v 0.05450000 0.00021900 -0.24955000
v 0.05450000 0.00001200 -0.25038600
v 0.05450000 0.00055100 -0.24959500
v 0.05450000 -0.00105600 -0.24820200
v 0.05450000 -0.00108500 -0.24825500
v 0.05450000 -0.00019900 -0.24909700
v 0.05450000 -0.00110000 -0.24831200
v 0.05450000 -0.00026000 -0.24953500
v 0.05450000 -0.00134800 -0.25010100
v 0.05450000 -0.00134900 -0.25016200
v 0.05450000 -0.00133500 -0.25022100
v 0.05450000 -0.00130700 -0.25027500
v 0.05450000 -0.00026000 -0.24953500
v 0.05450000 -0.00126700 -0.25032100
v 0.05450000 -0.00121700 -0.25035600
v 0.05450000 0.00125600 -0.24904200
v 0.05450000 0.00129500 -0.24900300
v 0.05450000 0.00132500 -0.24895500
v 0.05450000 -0.00121700 -0.25035600
v 0.05450000 -0.00116000 -0.25037800
v 0.05450000 -0.00026000 -0.24953500
v 0.05450000 -0.00110000 -0.25038500
v 0.05450000 -0.00004000 -0.25038500
v 0.05450000 -0.00140100 -0.25101800
v 0.05450000 -0.00158300 -0.25147800
v 0.05450000 -0.00137700 -0.25184900
v 0.05450000 0.00115600 -0.24909100
v 0.05450000 0.00120800 -0.24907200
v 0.05450000 0.00135000 -0.24884700
v 0.05450000 0.00125600 -0.24904200
v 0.05450000 0.00134400 -0.24890200
v 0.05450000 0.00132500 -0.24895500
v 0.05450000 0.00131700 -0.24822200
v 0.05450000 0.00127700 -0.24817000
v 0.05450000 0.00122500 -0.24813000
v 0.05450000 0.00135000 -0.24834700
v 0.05450000 0.00134100 -0.24828200
v 0.05450000 0.00110000 -0.24809700
v 0.05450000 0.00131700 -0.24822200
v 0.05450000 0.00116500 -0.24810500
v 0.05450000 0.00122500 -0.24813000
v 0.05450000 0.00001200 -0.25038600
v 0.05450000 0.00021700 -0.25041400
v 0.05450000 0.00055100 -0.24959500
v 0.05450000 0.00032100 -0.25045600
v 0.05450000 0.00093400 -0.24973000
v 0.05450000 0.00035600 -0.25047900
v 0.05450000 0.00119400 -0.24989800
v 0.05450000 0.00040400 -0.25052300
v 0.05450000 0.00138600 -0.25010200
v 0.05450000 0.00043700 -0.25057300
v 0.05450000 0.00151800 -0.25034200
v 0.05450000 0.00045800 -0.25063200
v 0.05450000 0.00158700 -0.25060700
v 0.05450000 0.00046600 -0.25071000
v 0.05450000 0.00160000 -0.25082200
v 0.05450000 0.00046200 -0.25076700
v 0.05450000 0.00156100 -0.25110900
v 0.05450000 0.00044100 -0.25084400
v 0.05450000 -0.00137700 -0.25184900
v 0.05450000 -0.00158300 -0.25147800
v 0.05450000 -0.00149200 -0.25177600
v 0.05450000 -0.00159700 -0.25153200
v 0.05450000 -0.00159900 -0.25158800
v 0.05450000 -0.00114300 -0.25086100
v 0.05450000 -0.00120800 -0.25086300
v 0.05450000 -0.00108000 -0.25087600
v 0.05450000 -0.00127000 -0.25088100
v 0.05450000 -0.00132500 -0.25091500
v 0.05450000 -0.00132500 -0.25091500
v 0.05450000 -0.00137000 -0.25096200
v 0.05450000 -0.00108000 -0.25087600
v 0.05450000 -0.00140100 -0.25101800
v 0.05450000 -0.00102300 -0.25089800
v 0.05450000 -0.00137700 -0.25184900
v 0.05450000 -0.00060100 -0.25104100
v 0.05450000 -0.00102100 -0.25199500
v 0.05450000 -0.00011500 -0.25109700
v 0.05450000 -0.00011500 -0.25209700
v 0.05450000 0.00011500 -0.25107400
v 0.05450000 0.00031200 -0.25207300
v 0.05450000 0.00025200 -0.25102700
v 0.05450000 0.00073600 -0.25197000
v 0.05450000 0.00035000 -0.25096600
v 0.05450000 0.00105000 -0.25181200
v 0.05450000 0.00040400 -0.25090700
v 0.05450000 0.00128800 -0.25161100
v 0.05450000 0.00044100 -0.25084400
v 0.05450000 0.00146200 -0.25136600
v 0.05450000 0.00156100 -0.25110900
v 0.05450000 -0.00159900 -0.25158800
v 0.05450000 -0.00158900 -0.25164300
v 0.05450000 -0.00149200 -0.25177600
v 0.05450000 -0.00156700 -0.25169400
v 0.05450000 -0.00153400 -0.25173900
vn 1.00000000 -0.00000000 -0.00000000
vn 1.00000000 -0.00000000 -0.00000000
vn 1.00000000 -0.00000000 -0.00000000
vn 1.00000000 -0.00000000 -0.00000000
vn 1.00000000 -0.00000000 -0.00000000
vn 1.00000000 -0.00000000 -0.00000000
vn 1.00000000 -0.00000000 -0.00000000
vn 1.00000000 -0.00000000 -0.00000000
vn 1.00000000 -0.00000000 -0.00000000
vn 1.00000000 -0.00000000 -0.00000000
vn 1.00000000 -0.00000000 -0.00000000
vn 1.00000000 -0.00000000 -0.00000000
vn 1.00000000 -0.00000000 -0.00000000
vn 1.00000000 -0.00000000 -0.00000000
vn 1.00000000 -0.00000000 -0.00000000
vn 1.00000000 -0.00000000 -0.00000000
vn 1.00000000 -0.00000000 -0.00000000
vn 1.00000000 -0.00000000 -0.00000000
vn 1.00000000 -0.00000000 -0.00000000
vn 1.00000000 -0.00000000 -0.00000000
vn 1.00000000 -0.00000000 -0.00000000
vn 1.00000000 -0.00000000 -0.00000000
vn 1.00000000 -0.00000000 -0.00000000
vn 1.00000000 -0.00000000 -0.00000000
vn 1.00000000 -0.00000000 -0.00000000
vn 1.00000000 -0.00000000 -0.00000000
vn 1.00000000 -0.00000000 -0.00000000
vn 1.00000000 -0.00000000 -0.00000000
vn 1.00000000 -0.00000000 -0.00000000
vn 1.00000000 -0.00000000 -0.00000000
vn 1.00000000 -0.00000000 -0.00000000
vn 1.00000000 -0.00000000 -0.00000000
vn 1.00000000 -0.00000000 -0.00000000
vn 1.00000000 -0.00000000 -0.00000000
vn 1.00000000 -0.00000000 -0.00000000
vn 1.00000000 -0.00000000 -0.00000000
vn 1.00000000 -0.00000000 -0.00000000
vn 1.00000000 -0.00000000 -0.00000000
vn 1.00000000 -0.00000000 -0.00000000
vn 1.00000000 -0.00000000 -0.00000000
vn 1.00000000 -0.00000000 -0.00000000
vn 1.00000000 -0.00000000 -0.00000000
vn 1.00000000 -0.00000000 -0.00000000
vn 1.00000000 -0.00000000 -0.00000000
vn 1.00000000 -0.00000000 -0.00000000
vn 1.00000000 -0.00000000 -0.00000000
vn 1.00000000 -0.00000000 -0.00000000
vn 1.00000000 -0.00000000 -0.00000000
vn 1.00000000 -0.00000000 -0.00000000
vn 1.00000000 -0.00000000 -0.00000000
vn 1.00000000 -0.00000000 -0.00000000
vn 1.00000000 -0.00000000 -0.00000000
vn 1.00000000 -0.00000000 -0.00000000
vn 1.00000000 -0.00000000 -0.00000000
vn 1.00000000 -0.00000000 -0.00000000
vn 1.00000000 -0.00000000 -0.00000000
vn 1.00000000 -0.00000000 -0.00000000
vn 1.00000000 -0.00000000 -0.00000000
vn 1.00000000 -0.00000000 -0.00000000
vn 1.00000000 -0.00000000 -0.00000000
vn 1.00000000 -0.00000000 -0.00000000
vn 1.00000000 -0.00000000 -0.00000000
vn 1.00000000 -0.00000000 -0.00000000
vn 1.00000000 -0.00000000 -0.00000000
vn 1.00000000 -0.00000000 -0.00000000
vn 1.00000000 -0.00000000 -0.00000000
vn 1.00000000 -0.00000000 -0.00000000
vn 1.00000000 -0.00000000 -0.00000000
vn 1.00000000 -0.00000000 -0.00000000
vn 1.00000000 -0.00000000 -0.00000000
vn 1.00000000 -0.00000000 -0.00000000
vn 1.00000000 -0.00000000 -0.00000000
vn 1.00000000 -0.00000000 -0.00000000
vn 1.00000000 -0.00000000 -0.00000000
vn 1.00000000 -0.00000000 -0.00000000
vn 1.00000000 -0.00000000 -0.00000000
vn 1.00000000 -0.00000000 -0.00000000
vn 1.00000000 -0.00000000 -0.00000000
vn 1.00000000 -0.00000000 -0.00000000
vn 1.00000000 -0.00000000 -0.00000000
vn 1.00000000 -0.00000000 -0.00000000
vn 1.00000000 -0.00000000 -0.00000000
vn 1.00000000 -0.00000000 -0.00000000
vn 1.00000000 -0.00000000 -0.00000000
vn 1.00000000 -0.00000000 -0.00000000
vn 1.00000000 -0.00000000 -0.00000000
vn 1.00000000 -0.00000000 -0.00000000
vn 1.00000000 -0.00000000 -0.00000000
vn 1.00000000 -0.00000000 -0.00000000
vn 1.00000000 -0.00000000 -0.00000000
vn 1.00000000 -0.00000000 -0.00000000
vn 1.00000000 -0.00000000 -0.00000000
vn 1.00000000 -0.00000000 -0.00000000
vn 1.00000000 -0.00000000 -0.00000000
vn 1.00000000 -0.00000000 -0.00000000
vn 1.00000000 -0.00000000 -0.00000000
vn 1.00000000 -0.00000000 -0.00000000
vn 1.00000000 -0.00000000 -0.00000000
vn 1.00000000 -0.00000000 -0.00000000
vn 1.00000000 -0.00000000 -0.00000000
vn 1.00000000 -0.00000000 -0.00000000
vn 1.00000000 -0.00000000 -0.00000000
vn 1.00000000 -0.00000000 -0.00000000
vn 1.00000000 -0.00000000 -0.00000000
vn 1.00000000 -0.00000000 -0.00000000
vn 1.00000000 -0.00000000 -0.00000000
vn 1.00000000 -0.00000000 -0.00000000
vn 1.00000000 -0.00000000 -0.00000000
vn 1.00000000 -0.00000000 -0.00000000
vn 1.00000000 -0.00000000 -0.00000000
vn 1.00000000 -0.00000000 -0.00000000
vn 1.00000000 -0.00000000 -0.00000000
vn 1.00000000 -0.00000000 -0.00000000
vn 1.00000000 -0.00000000 -0.00000000
vn 1.00000000 -0.00000000 -0.00000000
vn 1.00000000 -0.00000000 -0.00000000
vn 1.00000000 -0.00000000 -0.00000000
vn 1.00000000 -0.00000000 -0.00000000
vn 1.00000000 -0.00000000 -0.00000000
f 1//1 2//2 3//3
f 2//2 4//4 3//3
f 5//5 6//6 7//7
f 8//8 9//9 10//10
f 9//9 11//11 10//10
f 12//12 13//13 14//14
f 15//15 16//16 17//17
f 18//18 19//19 20//20
f 19//19 21//21 20//20
f 20//20 21//21 22//22
f 23//23 24//24 25//25
f 24//24 26//26 25//25
f 25//25 26//26 27//27
f 28//28 29//29 30//30
f 29//29 31//31 30//30
f 30//30 31//31 32//32
f 31//31 33//33 32//32
f 32//32 33//33 34//34
f 35//35 36//36 37//37
f 36//36 38//38 37//37
f 37//37 38//38 39//39
f 40//40 41//41 42//42
f 43//43 44//44 45//45
f 44//44 46//46 45//45
f 45//45 46//46 47//47
f 48//48 49//49 50//50
f 51//51 52//52 53//53
f 52//52 54//54 53//53
f 53//53 54//54 55//55
f 54//54 56//56 55//55
f 57//57 58//58 59//59
f 60//60 61//61 62//62
f 61//61 63//63 62//62
f 62//62 63//63 64//64
f 63//63 65//65 64//64
f 66//66 67//67 68//68
f 67//67 69//69 68//68
f 68//68 69//69 70//70
f 69//69 71//71 70//70
f 70//70 71//71 72//72
f 71//71 73//73 72//72
f 72//72 73//73 74//74
f 73//73 75//75 74//74
f 74//74 75//75 76//76
f 75//75 77//77 76//76
f 76//76 77//77 78//78
f 77//77 79//79 78//78
f 78//78 79//79 80//80
f 79//79 81//81 80//80
f 80//80 81//81 82//82
f 81//81 83//83 82//82
f 84//84 85//85 86//86
f 85//85 87//87 86//86
f 86//86 87//87 88//88
f 89//89 90//90 91//91
f 90//90 92//92 91//91
f 91//91 92//92 93//93
f 94//94 95//95 96//96
f 95//95 97//97 96//96
f 96//96 97//97 98//98
f 97//97 99//99 98//98
f 98//98 99//99 100//100
f 99//99 101//101 100//100
f 100//100 101//101 102//102
f 101//101 103//103 102//102
f 102//102 103//103 104//104
f 103//103 105//105 104//104
f 104//104 105//105 106//106
f 105//105 107//107 106//106
f 106//106 107//107 108//108
f 107//107 109//109 108//108
f 108//108 109//109 110//110
f 109//109 111//111 110//110
f 110//110 111//111 112//112
f 111//111 113//113 112//112
f 112//112 113//113 114//114
f 115//115 116//116 117//117
f 116//116 118//118 117//117
f 117//117 118//118 119//119

