mtllib material.mtl
usemtl Disc_Lights_Blue
v 0.06449700 0.08152700 0.00026400
v 0.06426800 0.08152300 0.00026400
v 0.06401900 0.08151800 0.00050800
v 0.06253000 0.08146400 0.00001400
v 0.06191500 0.08142800 0.00001400
v 0.06191500 0.08142800 0.00026400
v 0.06191500 0.08142800 0.00026400
v 0.06314500 0.08149200 0.00013900
v 0.06253000 0.08146400 0.00001400
v 0.06314500 0.08149200 0.00007600
v 0.06314500 0.08149200 0.00001400
v 0.06472600 0.08152900 0.00026400
v 0.06449700 0.08152700 0.00026400
v 0.06416500 0.08151900 0.00081400
v 0.06401900 0.08151800 0.00050800
v 0.06360400 0.08150100 0.00136400
v 0.06377000 0.08151000 0.00075200
v 0.06317000 0.08148900 0.00093900
v 0.06345800 0.08150200 0.00044500
v 0.06273600 0.08147300 0.00051400
v 0.06314500 0.08149200 0.00013900
v 0.06232500 0.08145100 0.00051400
v 0.06191500 0.08142800 0.00026400
v 0.06191500 0.08142700 0.00051400
v 0.06191500 0.08142800 -0.00023600
v 0.06191500 0.08142800 0.00001400
v 0.06253000 0.08146400 0.00001400
v 0.06232500 0.08145100 -0.00048600
v 0.06191500 0.08142700 -0.00048600
v 0.06314500 0.08149200 -0.00011100
v 0.06191500 0.08142800 -0.00023600
v 0.06314500 0.08149200 -0.00004800
v 0.06253000 0.08146400 0.00001400
v 0.06314500 0.08149200 0.00001400
v 0.06401900 0.08151800 -0.00048000
v 0.06416500 0.08151900 -0.00078600
v 0.06377000 0.08151000 -0.00072300
v 0.06360400 0.08150100 -0.00133600
v 0.06345800 0.08150200 -0.00041700
v 0.06317000 0.08148900 -0.00091100
v 0.06314500 0.08149200 -0.00011100
v 0.06273600 0.08147300 -0.00048600
v 0.06232500 0.08145100 -0.00048600
v 0.06401900 0.08151800 -0.00048000
v 0.06426800 0.08152300 -0.00023600
v 0.06416500 0.08151900 -0.00078600
v 0.06449700 0.08152700 -0.00023600
v 0.06472600 0.08152900 -0.00023600
v 0.11323400 0.07156700 0.00001400
v 0.11359900 0.07134200 0.00001400
v 0.11361300 0.07133300 -0.00014800
v 0.11286500 0.07178800 0.00001400
v 0.11323400 0.07156700 0.00001400
v 0.11289600 0.07176900 -0.00031800
v 0.11361300 0.07133300 -0.00014800
v 0.11292300 0.07175200 -0.00041100
v 0.11363000 0.07132300 -0.00020400
v 0.11298900 0.07171200 -0.00064000
v 0.11367200 0.07129600 -0.00034400
v 0.11307700 0.07165800 -0.00080500
v 0.11370700 0.07127400 -0.00040800
v 0.11317000 0.07160000 -0.00098000
v 0.11376300 0.07123800 -0.00050900
v 0.11331500 0.07151000 -0.00114500
v 0.11383100 0.07119500 -0.00058200
v 0.11341600 0.07144800 -0.00126000
v 0.11390000 0.07115100 -0.00065800
v 0.11362600 0.07131600 -0.00140600
v 0.11399100 0.07109300 -0.00071500
v 0.11372700 0.07125200 -0.00147600
v 0.11408100 0.07103500 -0.00077200
v 0.11398600 0.07108600 -0.00157200
v 0.11417600 0.07097300 -0.00079900
v 0.11406100 0.07103800 -0.00160000
v 0.11428400 0.07090300 -0.00083000
v 0.11437400 0.07083500 -0.00162700
v 0.11437400 0.07084400 -0.00082800
v 0.11445300 0.07078300 -0.00163400
v 0.11506600 0.07038400 -0.00036400
v 0.11566800 0.06996100 -0.00081000
v 0.11504000 0.07040100 -0.00040900
v 0.11546300 0.07010300 -0.00111800
v 0.11497100 0.07044800 -0.00052600
v 0.11542900 0.07012600 -0.00114800
v 0.11491800 0.07048400 -0.00058300
v 0.11516100 0.07031000 -0.00139000
v 0.11484500 0.07053300 -0.00066100
v 0.11512100 0.07033700 -0.00141000
v 0.11475800 0.07059100 -0.00071700
v 0.11481800 0.07054100 -0.00156200
v 0.11468100 0.07064200 -0.00076600
v 0.11476000 0.07057900 -0.00157300
v 0.11457300 0.07071300 -0.00080000
v 0.11445300 0.07078300 -0.00163400
v 0.11449100 0.07076800 -0.00082600
v 0.11437400 0.07084400 -0.00082800
v 0.11512600 0.07034300 -0.00018400
v 0.11581500 0.06985800 -0.00041200
v 0.11511900 0.07034800 -0.00020500
v 0.11580600 0.06986400 -0.00046000
v 0.11506600 0.07038400 -0.00036400
v 0.11567600 0.06995500 -0.00079800
v 0.11566800 0.06996100 -0.00081000
v 0.11512600 0.07034300 -0.00018400
v 0.11514700 0.07032900 0.00001400
v 0.11581500 0.06985800 -0.00041200
v 0.11551000 0.07007700 0.00001400
v 0.11586200 0.06982500 -0.00015200
v 0.11586900 0.06982000 0.00001400
v 0.11586900 0.06982000 0.00001400
v 0.11586900 0.06982000 0.00001400
v 0.11551000 0.07007700 0.00001400
v 0.11514500 0.07033000 0.00007500
v 0.11551000 0.07007700 0.00001400
v 0.11514700 0.07032900 0.00001400
v 0.11514700 0.07032900 0.00001400
v 0.11586900 0.06982000 0.00001400
v 0.11551000 0.07007700 0.00001400
v 0.11583900 0.06984100 0.00034500
v 0.11514500 0.07033000 0.00007500
v 0.11581200 0.06986000 0.00043900
v 0.11511700 0.07034900 0.00023300
v 0.11574700 0.06990600 0.00066900
v 0.11511700 0.07034900 0.00023300
v 0.11511000 0.07035400 0.00027300
v 0.11574700 0.06990600 0.00066900
v 0.11504300 0.07039900 0.00043900
v 0.11566000 0.06996600 0.00083300
v 0.11504100 0.07040100 0.00044500
v 0.11556900 0.07003000 0.00100700
v 0.11493400 0.07047300 0.00060100
v 0.11542500 0.07012900 0.00117300
v 0.11542500 0.07012900 0.00117300
v 0.11493400 0.07047300 0.00060100
v 0.11532900 0.07019500 0.00128400
v 0.11491900 0.07048300 0.00061300
v 0.11511700 0.07033900 0.00143300
v 0.11478100 0.07057500 0.00073700
v 0.11501500 0.07040900 0.00150500
v 0.11476000 0.07058900 0.00074700
v 0.11475800 0.07058100 0.00159800
v 0.11458900 0.07070300 0.00083100
v 0.11465600 0.07064900 0.00163400
v 0.11457400 0.07071300 0.00083300
v 0.11437300 0.07083600 0.00166400
v 0.11437500 0.07084400 0.00086400
v 0.11398400 0.07108800 0.00160600
v 0.11437500 0.07084400 0.00086400
v 0.11425000 0.07092500 0.00085300
v 0.11398400 0.07108800 0.00160600
v 0.11417600 0.07097300 0.00082900
v 0.11397500 0.07109400 0.00160500
v 0.11406200 0.07104700 0.00079200
v 0.11362200 0.07131900 0.00144000
v 0.11399000 0.07109300 0.00074500
v 0.11389900 0.07115200 0.00068500
v 0.11362100 0.07132800 0.00021400
v 0.11292200 0.07175300 0.00044000
v 0.11362700 0.07132400 0.00023300
v 0.11293300 0.07174700 0.00050100
v 0.11368200 0.07129000 0.00039700
v 0.11307200 0.07166100 0.00083700
v 0.11370600 0.07127400 0.00043700
v 0.11308700 0.07165200 0.00087400
v 0.11378100 0.07122700 0.00056000
v 0.11331100 0.07151400 0.00117800
v 0.11383000 0.07119600 0.00061200
v 0.11332900 0.07150200 0.00120300
v 0.11389900 0.07115200 0.00068500
v 0.11360000 0.07133300 0.00142900
v 0.11362200 0.07131900 0.00144000
v 0.11362100 0.07132800 0.00021400
v 0.11359900 0.07134200 0.00001400
v 0.11292200 0.07175300 0.00044000
v 0.11323400 0.07156700 0.00001400
v 0.11287000 0.07178500 0.00014300
v 0.11286500 0.07178800 0.00001400
vn -0.01250000 0.99990000 0.00170000
vn -0.01710000 0.99990000 0.00170000
vn -0.02210000 0.99980000 0.00350000
vn -0.05180000 0.99870000 -0.00000000
vn -0.06410000 0.99790000 -0.00000000
vn -0.06410000 0.99790000 0.00200000
vn -0.06410000 0.99790000 0.00200000
vn -0.03950000 0.99920000 0.00090000
vn -0.05180000 0.99870000 -0.00000000
vn -0.03950000 0.99920000 0.00050000
vn -0.03950000 0.99920000 -0.00000000
vn -0.00790000 1.00000000 0.00170000
vn -0.01250000 0.99990000 0.00170000
vn -0.01930000 0.99980000 0.00560000
vn -0.02200000 0.99980000 0.00350000
vn -0.03080000 0.99950000 0.00980000
vn -0.02710000 0.99960000 0.00530000
vn -0.03920000 0.99920000 0.00690000
vn -0.03330000 0.99940000 0.00320000
vn -0.04770000 0.99890000 0.00390000
vn -0.03960000 0.99920000 0.00100000
vn -0.05590000 0.99840000 0.00400000
vn -0.06410000 0.99790000 0.00210000
vn -0.06420000 0.99790000 0.00410000
vn -0.06410000 0.99790000 -0.00200000
vn -0.06410000 0.99790000 -0.00000000
vn -0.05180000 0.99870000 -0.00000000
vn -0.05600000 0.99840000 -0.00400000
vn -0.06420000 0.99790000 -0.00410000
vn -0.03950000 0.99920000 -0.00090000
vn -0.06410000 0.99790000 -0.00200000
vn -0.03950000 0.99920000 -0.00050000
vn -0.05180000 0.99870000 -0.00000000
vn -0.03950000 0.99920000 -0.00000000
vn -0.02210000 0.99980000 -0.00350000
vn -0.01930000 0.99980000 -0.00560000
vn -0.02710000 0.99960000 -0.00530000
vn -0.03080000 0.99950000 -0.00980000
vn -0.03330000 0.99940000 -0.00310000
vn -0.03920000 0.99920000 -0.00690000
vn -0.03950000 0.99920000 -0.00100000
vn -0.04770000 0.99890000 -0.00380000
vn -0.05590000 0.99840000 -0.00400000
vn -0.02200000 0.99980000 -0.00350000
vn -0.01710000 0.99990000 -0.00170000
vn -0.01920000 0.99980000 -0.00550000
vn -0.01250000 0.99990000 -0.00160000
vn -0.00790000 1.00000000 -0.00170000
vn 0.51900000 0.85480000 -0.00000000
vn 0.52820000 0.84910000 -0.00000000
vn 0.52860000 0.84890000 -0.00130000
vn 0.50980000 0.86030000 -0.00000000
vn 0.51900000 0.85480000 -0.00000000
vn 0.51060000 0.85980000 -0.00260000
vn 0.52850000 0.84890000 -0.00130000
vn 0.51130000 0.85940000 -0.00340000
vn 0.52900000 0.84860000 -0.00170000
vn 0.51300000 0.85840000 -0.00510000
vn 0.53000000 0.84800000 -0.00280000
vn 0.51520000 0.85710000 -0.00640000
vn 0.53090000 0.84750000 -0.00340000
vn 0.51750000 0.85560000 -0.00770000
vn 0.53230000 0.84660000 -0.00410000
vn 0.52120000 0.85340000 -0.00900000
vn 0.53400000 0.84550000 -0.00470000
vn 0.52370000 0.85190000 -0.00980000
vn 0.53570000 0.84440000 -0.00530000
vn 0.52890000 0.84860000 -0.01100000
vn 0.53800000 0.84300000 -0.00580000
vn 0.53150000 0.84700000 -0.01150000
vn 0.54020000 0.84150000 -0.00620000
vn 0.53800000 0.84290000 -0.01210000
vn 0.54260000 0.83990000 -0.00640000
vn 0.53990000 0.84170000 -0.01230000
vn 0.54530000 0.83820000 -0.00670000
vn 0.54770000 0.83660000 -0.01260000
vn 0.54760000 0.83670000 -0.00660000
vn 0.54970000 0.83530000 -0.01270000
vn 0.56490000 0.82520000 -0.00300000
vn 0.58000000 0.81460000 -0.00650000
vn 0.56420000 0.82560000 -0.00340000
vn 0.57490000 0.81820000 -0.00890000
vn 0.56250000 0.82680000 -0.00430000
vn 0.57400000 0.81880000 -0.00910000
vn 0.56120000 0.82770000 -0.00480000
vn 0.56730000 0.82340000 -0.01090000
vn 0.55940000 0.82890000 -0.00540000
vn 0.56630000 0.82410000 -0.01110000
vn 0.55720000 0.83040000 -0.00580000
vn 0.55880000 0.82920000 -0.01220000
vn 0.55530000 0.83160000 -0.00620000
vn 0.55730000 0.83020000 -0.01230000
vn 0.55260000 0.83340000 -0.00640000
vn 0.54970000 0.83530000 -0.01270000
vn 0.55050000 0.83480000 -0.00660000
vn 0.54760000 0.83670000 -0.00660000
vn 0.56640000 0.82410000 -0.00160000
vn 0.58360000 0.81200000 -0.00340000
vn 0.56620000 0.82430000 -0.00180000
vn 0.58340000 0.81220000 -0.00380000
vn 0.56490000 0.82520000 -0.00300000
vn 0.58010000 0.81450000 -0.00640000
vn 0.58000000 0.81460000 -0.00650000
vn 0.56630000 0.82420000 -0.00160000
vn 0.56690000 0.82380000 -0.00000000
vn 0.58360000 0.81210000 -0.00340000
vn 0.57590000 0.81750000 -0.00000000
vn 0.58470000 0.81120000 -0.00130000
vn 0.58490000 0.81110000 -0.00000000
vn 0.58490000 0.81110000 -0.00000000
vn 0.58490000 0.81110000 -0.00000000
vn 0.57590000 0.81750000 -0.00000000
vn 0.56690000 0.82380000 0.00050000
vn 0.57600000 0.81750000 -0.00000000
vn 0.56690000 0.82380000 -0.00000000
vn 0.56690000 0.82380000 -0.00000000
vn 0.58490000 0.81110000 -0.00000000
vn 0.57590000 0.81750000 -0.00000000
vn 0.58420000 0.81160000 0.00260000
vn 0.56680000 0.82380000 0.00050000
vn 0.58350000 0.81210000 0.00340000
vn 0.56610000 0.82430000 0.00170000
vn 0.58190000 0.81330000 0.00520000
vn 0.56620000 0.82430000 0.00170000
vn 0.56600000 0.82440000 0.00210000
vn 0.58190000 0.81320000 0.00520000
vn 0.56430000 0.82560000 0.00340000
vn 0.57970000 0.81480000 0.00640000
vn 0.56420000 0.82560000 0.00340000
vn 0.57750000 0.81640000 0.00780000
vn 0.56160000 0.82740000 0.00460000
vn 0.57390000 0.81890000 0.00910000
vn 0.57390000 0.81890000 0.00900000
vn 0.56160000 0.82740000 0.00460000
vn 0.57150000 0.82050000 0.00990000
vn 0.56120000 0.82770000 0.00470000
vn 0.56630000 0.82410000 0.01100000
vn 0.55780000 0.83000000 0.00570000
vn 0.56370000 0.82590000 0.01150000
vn 0.55720000 0.83030000 0.00580000
vn 0.55730000 0.83020000 0.01220000
vn 0.55300000 0.83320000 0.00640000
vn 0.55480000 0.83190000 0.01250000
vn 0.55260000 0.83340000 0.00640000
vn 0.54770000 0.83660000 0.01270000
vn 0.54760000 0.83670000 0.00660000
vn 0.53790000 0.84290000 0.01220000
vn 0.54760000 0.83670000 0.00660000
vn 0.54450000 0.83870000 0.00650000
vn 0.53790000 0.84290000 0.01220000
vn 0.54260000 0.83990000 0.00630000
vn 0.53770000 0.84300000 0.01210000
vn 0.53980000 0.84180000 0.00610000
vn 0.52880000 0.84870000 0.01090000
vn 0.53800000 0.84290000 0.00570000
vn 0.53570000 0.84440000 0.00530000
vn 0.52870000 0.84880000 0.00160000
vn 0.51130000 0.85940000 0.00330000
vn 0.52890000 0.84870000 0.00170000
vn 0.51150000 0.85930000 0.00380000
vn 0.53030000 0.84780000 0.00300000
vn 0.51500000 0.85720000 0.00640000
vn 0.53080000 0.84750000 0.00330000
vn 0.51540000 0.85690000 0.00670000
vn 0.53270000 0.84630000 0.00430000
vn 0.52100000 0.85350000 0.00900000
vn 0.53390000 0.84550000 0.00470000
vn 0.52150000 0.85320000 0.00920000
vn 0.53570000 0.84440000 0.00530000
vn 0.52830000 0.84900000 0.01090000
vn 0.52880000 0.84870000 0.01090000
vn 0.52870000 0.84880000 0.00160000
vn 0.52820000 0.84910000 -0.00000000
vn 0.51130000 0.85940000 0.00330000
vn 0.51900000 0.85480000 -0.00000000
vn 0.50990000 0.86020000 0.00100000
vn 0.50980000 0.86030000 -0.00000000
f 1//1 2//2 3//3
f 4//4 5//5 6//6
f 7//7 8//8 9//9
f 8//8 10//10 9//9
f 9//9 10//10 11//11
f 12//12 13//13 14//14
f 13//13 15//15 14//14
f 14//14 15//15 16//16
f 15//15 17//17 16//16
f 16//16 17//17 18//18
f 17//17 19//19 18//18
f 18//18 19//19 20//20
f 19//19 21//21 20//20
f 20//20 21//21 22//22
f 21//21 23//23 22//22
f 22//22 23//23 24//24
f 25//25 26//26 27//27
f 28//28 29//29 30//30
f 29//29 31//31 30//30
f 30//30 31//31 32//32
f 31//31 33//33 32//32
f 32//32 33//33 34//34
f 35//35 36//36 37//37
f 36//36 38//38 37//37
f 37//37 38//38 39//39
f 38//38 40//40 39//39
f 39//39 40//40 41//41
f 40//40 42//42 41//41
f 41//41 42//42 43//43
f 44//44 45//45 46//46
f 45//45 47//47 46//46
f 46//46 47//47 48//48
f 49//49 50//50 51//51
f 52//52 53//53 54//54
f 53//53 55//55 54//54
f 54//54 55//55 56//56
f 55//55 57//57 56//56
f 56//56 57//57 58//58
f 57//57 59//59 58//58
f 58//58 59//59 60//60
f 59//59 61//61 60//60
f 60//60 61//61 62//62
f 61//61 63//63 62//62
f 62//62 63//63 64//64
f 63//63 65//65 64//64
f 64//64 65//65 66//66
f 65//65 67//67 66//66
f 66//66 67//67 68//68
f 67//67 69//69 68//68
f 68//68 69//69 70//70
f 69//69 71//71 70//70
f 70//70 71//71 72//72
f 71//71 73//73 72//72
f 72//72 73//73 74//74
f 73//73 75//75 74//74
f 74//74 75//75 76//76
f 75//75 77//77 76//76
f 76//76 77//77 78//78
f 79//79 80//80 81//81
f 80//80 82//82 81//81
f 81//81 82//82 83//83
f 82//82 84//84 83//83
f 83//83 84//84 85//85
f 84//84 86//86 85//85
f 85//85 86//86 87//87
f 86//86 88//88 87//87
f 87//87 88//88 89//89
f 88//88 90//90 89//89
f 89//89 90//90 91//91
f 90//90 92//92 91//91
f 91//91 92//92 93//93
f 92//92 94//94 93//93
f 93//93 94//94 95//95
f 94//94 96//96 95//95
f 97//97 98//98 99//99
f 98//98 100//100 99//99
f 99//99 100//100 101//101
f 100//100 102//102 101//101
f 101//101 102//102 103//103
f 104//104 105//105 106//106
f 105//105 107//107 106//106
f 106//106 107//107 108//108
f 107//107 109//109 108//108
f 110//110 111//111 112//112
f 113//113 114//114 115//115
f 114//114 116//116 115//115
f 117//117 118//118 119//119
f 118//118 120//120 119//119
f 119//119 120//120 121//121
f 120//120 122//122 121//121
f 121//121 122//122 123//123
f 124//124 125//125 126//126
f 125//125 127//127 126//126
f 126//126 127//127 128//128
f 127//127 129//129 128//128
f 128//128 129//129 130//130
f 129//129 131//131 130//130
f 130//130 131//131 132//132
f 133//133 134//134 135//135
f 134//134 136//136 135//135
f 135//135 136//136 137//137
f 136//136 138//138 137//137
f 137//137 138//138 139//139
f 138//138 140//140 139//139
f 139//139 140//140 141//141
f 140//140 142//142 141//141
f 141//141 142//142 143//143
f 142//142 144//144 143//143
f 143//143 144//144 145//145
f 144//144 146//146 145//145
f 145//145 146//146 147//147
f 148//148 149//149 150//150
f 149//149 151//151 150//150
f 150//150 151//151 152//152
f 151//151 153//153 152//152
f 152//152 153//153 154//154
f 153//153 155//155 154//154
f 154//154 155//155 156//156
f 157//157 158//158 159//159
f 158//158 160//160 159//159
f 159//159 160//160 161//161
f 160//160 162//162 161//161
f 161//161 162//162 163//163
f 162//162 164//164 163//163
f 163//163 164//164 165//165
f 164//164 166//166 165//165
f 165//165 166//166 167//167
f 166//166 168//168 167//167
f 167//167 168//168 169//169
f 168//168 170//170 169//169
f 169//169 170//170 171//171
f 172//172 173//173 174//174
f 173//173 175//175 174//174
f 174//174 175//175 176//176
f 175//175 177//177 176//176

