mtllib material.mtl
usemtl Axis_Number
v 0.05450000 0.00059100 -0.18381500
v 0.05450000 0.00060000 -0.18375000
v 0.05450000 0.00035000 -0.18400000
v 0.05450000 -0.00045800 -0.18397500
v 0.05450000 -0.00040600 -0.18399400
v 0.05450000 -0.00060000 -0.18375000
v 0.05450000 -0.00140000 -0.18025000
v 0.05450000 -0.00140000 -0.18075000
v 0.05450000 -0.00115000 -0.18100000
v 0.05450000 -0.00139400 -0.18080600
v 0.05450000 -0.00120600 -0.18099400
v 0.05450000 0.00059400 -0.18019400
v 0.05450000 0.00057500 -0.18014200
v 0.05450000 -0.00060000 -0.18100000
v 0.05450000 -0.00057500 -0.18385800
v 0.05450000 -0.00054500 -0.18390600
v 0.05450000 -0.00050600 -0.18394600
v 0.05450000 0.00035000 -0.18400000
v 0.05450000 0.00060000 -0.18375000
v 0.05450000 -0.00035000 -0.18400000
v 0.05450000 0.00047500 -0.18396700
v 0.05450000 0.00052700 -0.18392700
v 0.05450000 0.00056700 -0.18387500
v 0.05450000 -0.00134500 -0.18090600
v 0.05450000 -0.00130600 -0.18094500
v 0.05450000 -0.00125800 -0.18097500
v 0.05450000 -0.00040600 -0.18399400
v 0.05450000 -0.00035000 -0.18400000
v 0.05450000 -0.00060000 -0.18375000
v 0.05450000 0.00060000 -0.18375000
v 0.05450000 -0.00060000 -0.18100000
v 0.05450000 0.00060000 -0.18025000
v 0.05450000 0.00059400 -0.18019400
v 0.05450000 0.00057500 -0.18014200
v 0.05450000 0.00054500 -0.18009400
v 0.05450000 -0.00060000 -0.18100000
v 0.05450000 0.00050600 -0.18005500
v 0.05450000 0.00045800 -0.18002500
v 0.05450000 0.00045800 -0.18002500
v 0.05450000 0.00040600 -0.18000600
v 0.05450000 -0.00060000 -0.18100000
v 0.05450000 0.00035000 -0.18000000
v 0.05450000 -0.00115000 -0.18100000
v 0.05450000 -0.00115000 -0.18000000
v 0.05450000 -0.00140000 -0.18025000
v 0.05450000 -0.00121500 -0.18000900
v 0.05450000 -0.00127500 -0.18003400
v 0.05450000 -0.00045800 -0.18397500
v 0.05450000 -0.00060000 -0.18375000
v 0.05450000 -0.00050600 -0.18394600
v 0.05450000 -0.00059400 -0.18380600
v 0.05450000 -0.00057500 -0.18385800
v 0.05450000 0.00059100 -0.18381500
v 0.05450000 0.00035000 -0.18400000
v 0.05450000 0.00056700 -0.18387500
v 0.05450000 0.00041500 -0.18399200
v 0.05450000 0.00047500 -0.18396700
v 0.05450000 -0.00127500 -0.18003400
v 0.05450000 -0.00132700 -0.18007300
v 0.05450000 -0.00140000 -0.18025000
v 0.05450000 -0.00136700 -0.18012500
v 0.05450000 -0.00139100 -0.18018500
v 0.05450000 -0.00120600 -0.18099400
v 0.05450000 -0.00139400 -0.18080600
v 0.05450000 -0.00125800 -0.18097500
v 0.05450000 -0.00137500 -0.18085800
v 0.05450000 -0.00134500 -0.18090600
vn 1.00000000 -0.00000000 -0.00000000
vn 1.00000000 -0.00000000 -0.00000000
vn 1.00000000 -0.00000000 -0.00000000
vn 1.00000000 -0.00000000 -0.00000000
vn 1.00000000 -0.00000000 -0.00000000
vn 1.00000000 -0.00000000 -0.00000000
vn 1.00000000 -0.00000000 -0.00000000
vn 1.00000000 -0.00000000 -0.00000000
vn 1.00000000 -0.00000000 -0.00000000
vn 1.00000000 -0.00000000 -0.00000000
vn 1.00000000 -0.00000000 -0.00000000
vn 1.00000000 -0.00000000 -0.00000000
vn 1.00000000 -0.00000000 -0.00000000
vn 1.00000000 -0.00000000 -0.00000000
vn 1.00000000 -0.00000000 -0.00000000
vn 1.00000000 -0.00000000 -0.00000000
vn 1.00000000 -0.00000000 -0.00000000
vn 1.00000000 -0.00000000 -0.00000000
vn 1.00000000 -0.00000000 -0.00000000
vn 1.00000000 -0.00000000 -0.00000000
vn 1.00000000 -0.00000000 -0.00000000
vn 1.00000000 -0.00000000 -0.00000000
vn 1.00000000 -0.00000000 -0.00000000
vn 1.00000000 -0.00000000 -0.00000000
vn 1.00000000 -0.00000000 -0.00000000
vn 1.00000000 -0.00000000 -0.00000000
vn 1.00000000 -0.00000000 -0.00000000
vn 1.00000000 -0.00000000 -0.00000000
vn 1.00000000 -0.00000000 -0.00000000
vn 1.00000000 -0.00000000 -0.00000000
vn 1.00000000 -0.00000000 -0.00000000
vn 1.00000000 -0.00000000 -0.00000000
vn 1.00000000 -0.00000000 -0.00000000
vn 1.00000000 -0.00000000 -0.00000000
vn 1.00000000 -0.00000000 -0.00000000
vn 1.00000000 -0.00000000 -0.00000000
vn 1.00000000 -0.00000000 -0.00000000
vn 1.00000000 -0.00000000 -0.00000000
vn 1.00000000 -0.00000000 -0.00000000
vn 1.00000000 -0.00000000 -0.00000000
vn 1.00000000 -0.00000000 -0.00000000
vn 1.00000000 -0.00000000 -0.00000000
vn 1.00000000 -0.00000000 -0.00000000
vn 1.00000000 -0.00000000 -0.00000000
vn 1.00000000 -0.00000000 -0.00000000
vn 1.00000000 -0.00000000 -0.00000000
vn 1.00000000 -0.00000000 -0.00000000
vn 1.00000000 -0.00000000 -0.00000000
vn 1.00000000 -0.00000000 -0.00000000
vn 1.00000000 -0.00000000 -0.00000000
vn 1.00000000 -0.00000000 -0.00000000
vn 1.00000000 -0.00000000 -0.00000000
vn 1.00000000 -0.00000000 -0.00000000
vn 1.00000000 -0.00000000 -0.00000000
vn 1.00000000 -0.00000000 -0.00000000
vn 1.00000000 -0.00000000 -0.00000000
vn 1.00000000 -0.00000000 -0.00000000
vn 1.00000000 -0.00000000 -0.00000000
vn 1.00000000 -0.00000000 -0.00000000
vn 1.00000000 -0.00000000 -0.00000000
vn 1.00000000 -0.00000000 -0.00000000
vn 1.00000000 -0.00000000 -0.00000000
vn 1.00000000 -0.00000000 -0.00000000
vn 1.00000000 -0.00000000 -0.00000000
vn 1.00000000 -0.00000000 -0.00000000
vn 1.00000000 -0.00000000 -0.00000000
vn 1.00000000 -0.00000000 -0.00000000
f 1//1 2//2 3//3
f 4//4 5//5 6//6
f 7//7 8//8 9//9
f 8//8 10//10 9//9
f 9//9 10//10 11//11
f 12//12 13//13 14//14
f 15//15 16//16 17//17
f 18//18 19//19 20//20
f 21//21 22//22 23//23
f 24//24 25//25 26//26
f 27//27 28//28 29//29
f 28//28 30//30 29//29
f 29//29 30//30 31//31
f 30//30 32//32 31//31
f 31//31 32//32 33//33
f 34//34 35//35 36//36
f 35//35 37//37 36//36
f 36//36 37//37 38//38
f 39//39 40//40 41//41
f 40//40 42//42 41//41
f 41//41 42//42 43//43
f 42//42 44//44 43//43
f 43//43 44//44 45//45
f 44//44 46//46 45//45
f 45//45 46//46 47//47
f 48//48 49//49 50//50
f 49//49 51//51 50//50
f 50//50 51//51 52//52
f 53//53 54//54 55//55
f 54//54 56//56 55//55
f 55//55 56//56 57//57
f 58//58 59//59 60//60
f 59//59 61//61 60//60
f 60//60 61//61 62//62
f 63//63 64//64 65//65
f 64//64 66//66 65//65
f 65//65 66//66 67//67

