mtllib material.mtl
usemtl Rotation_direction
v 0.05267100 0.01400000 -0.18740000
v 0.05267100 0.01400000 -0.18860000
v 0.05235200 0.01515000 -0.18740000
v 0.05235200 0.01515000 -0.18860000
v 0.05229500 0.01534500 -0.18850600
v 0.05228600 0.01537500 -0.18845900
v 0.05231600 0.01527500 -0.18847500
v 0.05231600 0.01527500 -0.18847500
v 0.05228100 0.01539400 -0.18840600
v 0.05233600 0.01520600 -0.18859400
v 0.05232000 0.01525800 -0.18857500
v 0.05232000 0.01525800 -0.18857500
v 0.05231600 0.01527500 -0.18847500
v 0.05231600 0.01527500 -0.18847500
v 0.05231600 0.01527500 -0.18847500
v 0.05230700 0.01530600 -0.18854600
v 0.05230700 0.01530600 -0.18854600
v 0.05229500 0.01534500 -0.18850600
v 0.05232000 0.01525800 -0.18742500
v 0.05233600 0.01520600 -0.18740600
v 0.05233600 0.01520600 -0.18740600
v 0.05231600 0.01527500 -0.18752500
v 0.05231600 0.01527500 -0.18752500
v 0.05235200 0.01515000 -0.18740000
v 0.05235200 0.01515000 -0.18740000
v 0.05231600 0.01527500 -0.18847500
v 0.05231600 0.01527500 -0.18847500
v 0.05235200 0.01515000 -0.18860000
v 0.05235200 0.01515000 -0.18860000
v 0.05233600 0.01520600 -0.18859400
v 0.05228600 0.01537500 -0.18754100
v 0.05229500 0.01534500 -0.18749400
v 0.05231600 0.01527500 -0.18752500
v 0.05231600 0.01527500 -0.18752500
v 0.05231600 0.01527500 -0.18752500
v 0.05230700 0.01530600 -0.18745500
v 0.05230700 0.01530600 -0.18745500
v 0.05232000 0.01525800 -0.18742500
v 0.05228100 0.01539400 -0.18840600
v 0.05227900 0.01540000 -0.18835000
v 0.05227900 0.01540000 -0.18835000
v 0.05231600 0.01527500 -0.18847500
v 0.05227900 0.01540000 -0.18765000
v 0.05227900 0.01540000 -0.18765000
v 0.05231600 0.01527500 -0.18752500
v 0.05231600 0.01527500 -0.18752500
v 0.05228100 0.01539400 -0.18759400
v 0.05228100 0.01539400 -0.18759400
v 0.05228600 0.01537500 -0.18754100
v 0.05270900 0.01385800 -0.18602500
v 0.05272200 0.01380600 -0.18600600
v 0.05270400 0.01387500 -0.18612500
v 0.05267800 0.01397500 -0.18614200
v 0.05268600 0.01394500 -0.18609400
v 0.05268600 0.01394500 -0.18609400
v 0.05270400 0.01387500 -0.18612500
v 0.05270400 0.01387500 -0.18612500
v 0.05269600 0.01390600 -0.18605400
v 0.05269600 0.01390600 -0.18605400
v 0.05270900 0.01385800 -0.18602500
v 0.05294500 0.01292500 -0.18603400
v 0.05295800 0.01287300 -0.18607300
v 0.05295800 0.01287300 -0.18607300
v 0.05294500 0.01292500 -0.18612500
v 0.05294500 0.01292500 -0.18612500
v 0.05296300 0.01285200 -0.18609800
v 0.05296300 0.01285200 -0.18609800
v 0.05296700 0.01283300 -0.18612500
v 0.05296700 0.01283300 -0.18612500
v 0.05294500 0.01292500 -0.18612500
v 0.05294500 0.01292500 -0.18612500
v 0.05297100 0.01281900 -0.18615400
v 0.05297400 0.01280900 -0.18618500
v 0.05297400 0.01280900 -0.18618500
v 0.05297500 0.01280200 -0.18621700
v 0.05294500 0.01292500 -0.18612500
v 0.05294500 0.01292500 -0.18612500
v 0.05297600 0.01280000 -0.18625000
v 0.05270400 0.01387500 -0.18612500
v 0.05272200 0.01380600 -0.18600600
v 0.05273700 0.01375000 -0.18600000
v 0.05273700 0.01375000 -0.18600000
v 0.05270400 0.01387500 -0.18612500
v 0.05270400 0.01387500 -0.18612500
v 0.05291500 0.01305000 -0.18600000
v 0.05291500 0.01305000 -0.18600000
v 0.05294500 0.01292500 -0.18612500
v 0.05293000 0.01298500 -0.18600900
v 0.05293000 0.01298500 -0.18600900
v 0.05294500 0.01292500 -0.18603400
v 0.05297600 0.01280000 -0.18860000
v 0.05297600 0.01280000 -0.18740000
v 0.05324000 0.01165000 -0.18860000
v 0.05324000 0.01165000 -0.18740000
v 0.05328300 0.01145500 -0.18749400
v 0.05328900 0.01142500 -0.18754100
v 0.05326700 0.01152500 -0.18752500
v 0.05326700 0.01152500 -0.18752500
v 0.05329300 0.01140600 -0.18759400
v 0.05325200 0.01159400 -0.18740600
v 0.05326400 0.01154200 -0.18742500
v 0.05326400 0.01154200 -0.18742500
v 0.05326700 0.01152500 -0.18752500
v 0.05326700 0.01152500 -0.18752500
v 0.05326700 0.01152500 -0.18752500
v 0.05327400 0.01149400 -0.18745500
v 0.05327400 0.01149400 -0.18745500
v 0.05328300 0.01145500 -0.18749400
v 0.05326400 0.01154200 -0.18857500
v 0.05325200 0.01159400 -0.18859400
v 0.05325200 0.01159400 -0.18859400
v 0.05326700 0.01152500 -0.18847500
v 0.05326700 0.01152500 -0.18847500
v 0.05326700 0.01152500 -0.18847500
v 0.05324000 0.01165000 -0.18860000
v 0.05326700 0.01152500 -0.18752500
v 0.05324000 0.01165000 -0.18740000
v 0.05325200 0.01159400 -0.18740600
v 0.05328900 0.01142500 -0.18845900
v 0.05328300 0.01145500 -0.18850600
v 0.05328300 0.01145500 -0.18850600
v 0.05326700 0.01152500 -0.18847500
v 0.05326700 0.01152500 -0.18847500
v 0.05327400 0.01149400 -0.18854600
v 0.05327400 0.01149400 -0.18854600
v 0.05326400 0.01154200 -0.18857500
v 0.05329300 0.01140600 -0.18759400
v 0.05329400 0.01140000 -0.18765000
v 0.05329400 0.01140000 -0.18765000
v 0.05326700 0.01152500 -0.18752500
v 0.05326700 0.01152500 -0.18752500
v 0.05329400 0.01140000 -0.18835000
v 0.05326700 0.01152500 -0.18847500
v 0.05329300 0.01140600 -0.18840600
v 0.05329300 0.01140600 -0.18840600
v 0.05328900 0.01142500 -0.18845900
v 0.05297600 0.01280000 -0.18860000
v 0.05267100 0.01400000 -0.18860000
v 0.05297600 0.01280000 -0.18740000
v 0.05267100 0.01400000 -0.18740000
v 0.05297600 0.01280000 -0.18625000
v 0.05267100 0.01400000 -0.18625000
v 0.05270400 0.01387500 -0.18612500
v 0.05270400 0.01387500 -0.18612500
v 0.05267300 0.01399400 -0.18619400
v 0.05267800 0.01397500 -0.18614200
v 0.05295300 0.01289400 -0.18994600
v 0.05294100 0.01294200 -0.18997500
v 0.05294100 0.01294200 -0.18997500
v 0.05294500 0.01292500 -0.18987500
v 0.05294500 0.01292500 -0.18987500
v 0.05294500 0.01292500 -0.18987500
v 0.05292800 0.01299400 -0.18999400
v 0.05292800 0.01299400 -0.18999400
v 0.05291500 0.01305000 -0.19000000
v 0.05297400 0.01280600 -0.18980600
v 0.05297000 0.01282500 -0.18985800
v 0.05297000 0.01282500 -0.18985800
v 0.05294500 0.01292500 -0.18987500
v 0.05294500 0.01292500 -0.18987500
v 0.05296200 0.01285500 -0.18990600
v 0.05296200 0.01285500 -0.18990600
v 0.05295300 0.01289400 -0.18994600
v 0.05270400 0.01387500 -0.18987500
v 0.05268600 0.01394500 -0.18990600
v 0.05267800 0.01397500 -0.18985800
v 0.05267800 0.01397500 -0.18985800
v 0.05267300 0.01399400 -0.18980600
v 0.05270400 0.01387500 -0.18987500
v 0.05270400 0.01387500 -0.18987500
v 0.05270400 0.01387500 -0.18987500
v 0.05267100 0.01400000 -0.18975000
v 0.05267100 0.01400000 -0.18860000
v 0.05272200 0.01380600 -0.18999400
v 0.05270900 0.01385800 -0.18997500
v 0.05270900 0.01385800 -0.18997500
v 0.05270400 0.01387500 -0.18987500
v 0.05270400 0.01387500 -0.18987500
v 0.05270400 0.01387500 -0.18987500
v 0.05269600 0.01390600 -0.18994600
v 0.05268600 0.01394500 -0.18990600
v 0.05272200 0.01380600 -0.18999400
v 0.05270400 0.01387500 -0.18987500
v 0.05270400 0.01387500 -0.18987500
v 0.05273700 0.01375000 -0.19000000
v 0.05273700 0.01375000 -0.19000000
v 0.05267100 0.01400000 -0.18860000
v 0.05267100 0.01400000 -0.18860000
v 0.05291500 0.01305000 -0.19000000
v 0.05297600 0.01280000 -0.18860000
v 0.05294500 0.01292500 -0.18987500
v 0.05294500 0.01292500 -0.18987500
v 0.05297600 0.01280000 -0.18975000
v 0.05297400 0.01280600 -0.18980600
v 0.05233600 -0.01520600 -0.18859400
v 0.05231600 -0.01527500 -0.18847500
v 0.05231600 -0.01527500 -0.18847500
v 0.05232000 -0.01525800 -0.18857500
v 0.05232000 -0.01525800 -0.18857500
v 0.05230700 -0.01530600 -0.18854600
v 0.05228100 -0.01539400 -0.18840600
v 0.05228600 -0.01537500 -0.18845900
v 0.05231600 -0.01527500 -0.18847500
v 0.05231600 -0.01527500 -0.18847500
v 0.05229500 -0.01534500 -0.18850600
v 0.05230700 -0.01530600 -0.18854600
v 0.05326700 -0.01152500 -0.18856700
v 0.05327900 -0.01147300 -0.18852700
v 0.05326700 -0.01152500 -0.18847500
v 0.05326700 -0.01152500 -0.18847500
v 0.05328300 -0.01145200 -0.18850200
v 0.05328300 -0.01145200 -0.18850200
v 0.05328700 -0.01143300 -0.18847500
v 0.05326700 -0.01152500 -0.18847500
v 0.05326700 -0.01152500 -0.18847500
v 0.05329000 -0.01141900 -0.18844600
v 0.05329300 -0.01140900 -0.18841500
v 0.05329300 -0.01140900 -0.18841500
v 0.05329400 -0.01140200 -0.18838300
v 0.05326700 -0.01152500 -0.18847500
v 0.05329400 -0.01140000 -0.18835000
v 0.05231600 -0.01527500 -0.18847500
v 0.05231600 -0.01527500 -0.18847500
v 0.05227900 -0.01540000 -0.18835000
v 0.05227900 -0.01540000 -0.18835000
v 0.05228100 -0.01539400 -0.18840600
v 0.05233600 -0.01520600 -0.18859400
v 0.05235200 -0.01515000 -0.18860000
v 0.05231600 -0.01527500 -0.18847500
v 0.05324000 -0.01165000 -0.18860000
v 0.05326700 -0.01152500 -0.18847500
v 0.05326700 -0.01152500 -0.18847500
v 0.05326700 -0.01152500 -0.18847500
v 0.05325400 -0.01158500 -0.18859100
v 0.05326700 -0.01152500 -0.18856700
v 0.05327400 -0.01149400 -0.18745500
v 0.05326400 -0.01154200 -0.18742500
v 0.05326400 -0.01154200 -0.18742500
v 0.05326700 -0.01152500 -0.18752500
v 0.05326700 -0.01152500 -0.18752500
v 0.05325200 -0.01159400 -0.18740600
v 0.05325200 -0.01159400 -0.18740600
v 0.05324000 -0.01165000 -0.18740000
v 0.05329300 -0.01140600 -0.18759400
v 0.05328900 -0.01142500 -0.18754100
v 0.05328900 -0.01142500 -0.18754100
v 0.05326700 -0.01152500 -0.18752500
v 0.05326700 -0.01152500 -0.18752500
v 0.05326700 -0.01152500 -0.18752500
v 0.05328300 -0.01145500 -0.18749400
v 0.05328300 -0.01145500 -0.18749400
v 0.05327400 -0.01149400 -0.18745500
v 0.05231600 -0.01527500 -0.18752500
v 0.05229500 -0.01534500 -0.18749400
v 0.05228600 -0.01537500 -0.18754100
v 0.05228600 -0.01537500 -0.18754100
v 0.05228100 -0.01539400 -0.18759400
v 0.05231600 -0.01527500 -0.18752500
v 0.05231600 -0.01527500 -0.18752500
v 0.05227900 -0.01540000 -0.18765000
v 0.05227900 -0.01540000 -0.18765000
v 0.05227900 -0.01540000 -0.18835000
v 0.05233600 -0.01520600 -0.18740600
v 0.05232000 -0.01525800 -0.18742500
v 0.05232000 -0.01525800 -0.18742500
v 0.05231600 -0.01527500 -0.18752500
v 0.05231600 -0.01527500 -0.18752500
v 0.05231600 -0.01527500 -0.18752500
v 0.05230700 -0.01530600 -0.18745500
v 0.05230700 -0.01530600 -0.18745500
v 0.05229500 -0.01534500 -0.18749400
v 0.05233600 -0.01520600 -0.18740600
v 0.05231600 -0.01527500 -0.18752500
v 0.05235200 -0.01515000 -0.18740000
v 0.05235200 -0.01515000 -0.18740000
v 0.05235200 -0.01515000 -0.18740000
v 0.05227900 -0.01540000 -0.18835000
v 0.05227900 -0.01540000 -0.18835000
v 0.05324000 -0.01165000 -0.18740000
v 0.05329400 -0.01140000 -0.18835000
v 0.05326700 -0.01152500 -0.18752500
v 0.05326700 -0.01152500 -0.18752500
v 0.05329400 -0.01140000 -0.18765000
v 0.05329300 -0.01140600 -0.18759400
vn 0.96640000 0.25690000 -0.00000000
vn 0.96640000 0.25690000 -0.00000000
vn 0.96060000 0.27800000 -0.00000000
vn 0.96060000 0.27800000 -0.00000000
vn 0.95960000 0.28150000 0.00010000
vn 0.95940000 0.28210000 -0.00000000
vn 0.95990000 0.28020000 -0.00000000
vn 0.95990000 0.28030000 -0.00000000
vn 0.95930000 0.28250000 -0.00000000
vn 0.96010000 0.27960000 -0.00000000
vn 0.96010000 0.27960000 -0.00000000
vn 0.96000000 0.27990000 -0.00000000
vn 0.95990000 0.28040000 -0.00010000
vn 0.96000000 0.28010000 -0.00000000
vn 0.95990000 0.28020000 -0.00000000
vn 0.95970000 0.28090000 0.00020000
vn 0.95970000 0.28100000 -0.00010000
vn 0.95960000 0.28140000 0.00010000
vn 0.96010000 0.27980000 -0.00000000
vn 0.96020000 0.27920000 -0.00000000
vn 0.96030000 0.27890000 -0.00010000
vn 0.96000000 0.28020000 -0.00000000
vn 0.96010000 0.27980000 -0.00000000
vn 0.96060000 0.27800000 -0.00000000
vn 0.96060000 0.27810000 -0.00000000
vn 0.96000000 0.28020000 -0.00000000
vn 0.95990000 0.28020000 -0.00000000
vn 0.96060000 0.27790000 -0.00000000
vn 0.96060000 0.27790000 -0.00010000
vn 0.96030000 0.27890000 0.00010000
vn 0.95940000 0.28210000 -0.00000000
vn 0.95950000 0.28160000 -0.00000000
vn 0.95990000 0.28030000 -0.00010000
vn 0.95990000 0.28030000 0.00010000
vn 0.95990000 0.28040000 -0.00000000
vn 0.95990000 0.28030000 0.00010000
vn 0.95970000 0.28090000 -0.00020000
vn 0.95990000 0.28030000 0.00010000
vn 0.95930000 0.28240000 -0.00000000
vn 0.95930000 0.28250000 -0.00000000
vn 0.95920000 0.28260000 -0.00000000
vn 0.95990000 0.28030000 -0.00000000
vn 0.95930000 0.28240000 -0.00000000
vn 0.95930000 0.28250000 -0.00000000
vn 0.95990000 0.28040000 -0.00000000
vn 0.95990000 0.28030000 -0.00000000
vn 0.95930000 0.28250000 -0.00000000
vn 0.95930000 0.28240000 -0.00000000
vn 0.95940000 0.28210000 -0.00000000
vn 0.96720000 0.25410000 -0.00010000
vn 0.96740000 0.25340000 -0.00000000
vn 0.96720000 0.25410000 -0.00010000
vn 0.96660000 0.25640000 -0.00000000
vn 0.96670000 0.25590000 -0.00000000
vn 0.96670000 0.25580000 -0.00000000
vn 0.96700000 0.25470000 -0.00010000
vn 0.96700000 0.25460000 -0.00000000
vn 0.96690000 0.25520000 -0.00030000
vn 0.96710000 0.25440000 -0.00000000
vn 0.96710000 0.25440000 -0.00000000
vn 0.97150000 0.23690000 -0.00000000
vn 0.97160000 0.23660000 -0.00000000
vn 0.97170000 0.23630000 -0.00030000
vn 0.97150000 0.23690000 -0.00010000
vn 0.97160000 0.23660000 -0.00000000
vn 0.97170000 0.23600000 -0.00010000
vn 0.97180000 0.23580000 -0.00000000
vn 0.97190000 0.23550000 -0.00000000
vn 0.97190000 0.23560000 -0.00000000
vn 0.97150000 0.23710000 -0.00000000
vn 0.97150000 0.23720000 -0.00000000
vn 0.97190000 0.23530000 -0.00000000
vn 0.97200000 0.23490000 -0.00000000
vn 0.97200000 0.23500000 -0.00000000
vn 0.97200000 0.23500000 -0.00000000
vn 0.97150000 0.23710000 -0.00000000
vn 0.97150000 0.23720000 -0.00000000
vn 0.97200000 0.23490000 -0.00000000
vn 0.96700000 0.25460000 -0.00000000
vn 0.96740000 0.25320000 -0.00020000
vn 0.96760000 0.25230000 -0.00000000
vn 0.96770000 0.25230000 -0.00000000
vn 0.96710000 0.25450000 -0.00000000
vn 0.96710000 0.25460000 -0.00000000
vn 0.97090000 0.23940000 -0.00000000
vn 0.97090000 0.23940000 -0.00010000
vn 0.97150000 0.23720000 -0.00000000
vn 0.97130000 0.23800000 -0.00000000
vn 0.97120000 0.23840000 -0.00010000
vn 0.97150000 0.23720000 -0.00000000
vn 0.97200000 0.23490000 -0.00000000
vn 0.97200000 0.23490000 -0.00000000
vn 0.97690000 0.21380000 -0.00000000
vn 0.97690000 0.21380000 -0.00000000
vn 0.97760000 0.21030000 -0.00010000
vn 0.97780000 0.20970000 -0.00000000
vn 0.97740000 0.21140000 -0.00000000
vn 0.97740000 0.21150000 -0.00000000
vn 0.97780000 0.20930000 -0.00000000
vn 0.97720000 0.21230000 -0.00010000
vn 0.97740000 0.21160000 -0.00000000
vn 0.97730000 0.21180000 -0.00000000
vn 0.97740000 0.21130000 -0.00000000
vn 0.97730000 0.21180000 0.00010000
vn 0.97730000 0.21160000 0.00010000
vn 0.97750000 0.21120000 0.00010000
vn 0.97740000 0.21130000 -0.00000000
vn 0.97770000 0.21010000 -0.00000000
vn 0.97730000 0.21180000 -0.00000000
vn 0.97720000 0.21240000 0.00010000
vn 0.97710000 0.21270000 -0.00000000
vn 0.97740000 0.21150000 -0.00000000
vn 0.97740000 0.21160000 -0.00000000
vn 0.97730000 0.21170000 -0.00000000
vn 0.97690000 0.21370000 -0.00000000
vn 0.97740000 0.21150000 -0.00000000
vn 0.97690000 0.21370000 -0.00000000
vn 0.97710000 0.21280000 -0.00000000
vn 0.97780000 0.20970000 -0.00000000
vn 0.97770000 0.21020000 -0.00000000
vn 0.97770000 0.21010000 -0.00010000
vn 0.97740000 0.21130000 -0.00000000
vn 0.97740000 0.21130000 0.00010000
vn 0.97750000 0.21100000 0.00010000
vn 0.97750000 0.21120000 -0.00010000
vn 0.97740000 0.21130000 -0.00000000
vn 0.97780000 0.20930000 -0.00000000
vn 0.97790000 0.20920000 -0.00000000
vn 0.97790000 0.20930000 -0.00000000
vn 0.97740000 0.21140000 -0.00000000
vn 0.97740000 0.21150000 -0.00000000
vn 0.97790000 0.20920000 -0.00000000
vn 0.97740000 0.21150000 -0.00000000
vn 0.97790000 0.20930000 -0.00000000
vn 0.97780000 0.20930000 -0.00000000
vn 0.97780000 0.20970000 -0.00000000
vn 0.97200000 0.23490000 -0.00000000
vn 0.96640000 0.25690000 -0.00000000
vn 0.97200000 0.23490000 -0.00000000
vn 0.96640000 0.25690000 -0.00000000
vn 0.97200000 0.23490000 -0.00000000
vn 0.96640000 0.25690000 -0.00000000
vn 0.96710000 0.25460000 -0.00000000
vn 0.96710000 0.25450000 -0.00000000
vn 0.96650000 0.25670000 -0.00000000
vn 0.96660000 0.25630000 -0.00000000
vn 0.97160000 0.23660000 -0.00000000
vn 0.97140000 0.23740000 -0.00000000
vn 0.97150000 0.23710000 -0.00010000
vn 0.97140000 0.23740000 -0.00000000
vn 0.97150000 0.23710000 -0.00010000
vn 0.97140000 0.23730000 -0.00000000
vn 0.97120000 0.23850000 0.00010000
vn 0.97110000 0.23860000 0.00020000
vn 0.97090000 0.23940000 0.00010000
vn 0.97200000 0.23510000 -0.00000000
vn 0.97190000 0.23530000 -0.00000000
vn 0.97190000 0.23540000 -0.00000000
vn 0.97150000 0.23690000 0.00010000
vn 0.97150000 0.23700000 0.00010000
vn 0.97180000 0.23590000 0.00010000
vn 0.97180000 0.23580000 -0.00000000
vn 0.97160000 0.23680000 0.00010000
vn 0.96700000 0.25470000 0.00010000
vn 0.96670000 0.25590000 -0.00000000
vn 0.96660000 0.25640000 -0.00000000
vn 0.96660000 0.25640000 -0.00000000
vn 0.96650000 0.25660000 -0.00000000
vn 0.96700000 0.25480000 -0.00000000
vn 0.96700000 0.25470000 0.00010000
vn 0.96700000 0.25470000 -0.00000000
vn 0.96650000 0.25680000 -0.00000000
vn 0.96640000 0.25690000 -0.00000000
vn 0.96730000 0.25350000 -0.00000000
vn 0.96710000 0.25440000 -0.00000000
vn 0.96720000 0.25390000 0.00010000
vn 0.96700000 0.25480000 0.00010000
vn 0.96710000 0.25440000 -0.00000000
vn 0.96700000 0.25470000 0.00010000
vn 0.96690000 0.25530000 -0.00000000
vn 0.96670000 0.25570000 0.00010000
vn 0.96740000 0.25320000 0.00010000
vn 0.96710000 0.25460000 -0.00000000
vn 0.96710000 0.25450000 -0.00000000
vn 0.96760000 0.25240000 -0.00000000
vn 0.96770000 0.25230000 -0.00000000
vn 0.96650000 0.25680000 -0.00000000
vn 0.96640000 0.25690000 -0.00000000
vn 0.97090000 0.23940000 -0.00000000
vn 0.97200000 0.23490000 -0.00000000
vn 0.97140000 0.23740000 0.00010000
vn 0.97140000 0.23730000 -0.00000000
vn 0.97200000 0.23480000 -0.00000000
vn 0.97200000 0.23490000 -0.00000000
vn 0.96010000 -0.27960000 -0.00000000
vn 0.96000000 -0.28000000 -0.00000000
vn 0.95990000 -0.28040000 -0.00010000
vn 0.96010000 -0.27960000 -0.00000000
vn 0.96000000 -0.27990000 -0.00000000
vn 0.95980000 -0.28080000 -0.00000000
vn 0.95930000 -0.28250000 -0.00000000
vn 0.95940000 -0.28210000 -0.00000000
vn 0.95990000 -0.28020000 -0.00000000
vn 0.96000000 -0.28010000 -0.00000000
vn 0.95950000 -0.28160000 -0.00000000
vn 0.95970000 -0.28090000 0.00020000
vn 0.97740000 -0.21150000 -0.00000000
vn 0.97760000 -0.21040000 -0.00010000
vn 0.97740000 -0.21130000 -0.00000000
vn 0.97740000 -0.21130000 0.00010000
vn 0.97770000 -0.21010000 -0.00000000
vn 0.97770000 -0.21020000 0.00010000
vn 0.97770000 -0.20980000 -0.00000000
vn 0.97740000 -0.21150000 -0.00000000
vn 0.97740000 -0.21140000 -0.00000000
vn 0.97780000 -0.20950000 -0.00000000
vn 0.97790000 -0.20930000 -0.00000000
vn 0.97780000 -0.20930000 -0.00000000
vn 0.97790000 -0.20920000 -0.00000000
vn 0.97740000 -0.21150000 -0.00000000
vn 0.97790000 -0.20920000 -0.00000000
vn 0.95990000 -0.28020000 -0.00000000
vn 0.95990000 -0.28030000 -0.00000000
vn 0.95920000 -0.28260000 -0.00000000
vn 0.95920000 -0.28270000 -0.00000000
vn 0.95920000 -0.28260000 -0.00000000
vn 0.96030000 -0.27880000 0.00020000
vn 0.96060000 -0.27800000 -0.00000000
vn 0.95990000 -0.28020000 -0.00000000
vn 0.97690000 -0.21380000 -0.00000000
vn 0.97740000 -0.21140000 -0.00000000
vn 0.97740000 -0.21160000 -0.00000000
vn 0.97740000 -0.21150000 -0.00000000
vn 0.97710000 -0.21260000 -0.00000000
vn 0.97740000 -0.21160000 -0.00000000
vn 0.97740000 -0.21130000 -0.00000000
vn 0.97730000 -0.21170000 -0.00000000
vn 0.97730000 -0.21180000 -0.00000000
vn 0.97740000 -0.21130000 -0.00000000
vn 0.97740000 -0.21150000 -0.00000000
vn 0.97710000 -0.21270000 -0.00000000
vn 0.97710000 -0.21280000 0.00010000
vn 0.97690000 -0.21370000 -0.00020000
vn 0.97780000 -0.20930000 -0.00000000
vn 0.97780000 -0.20960000 -0.00000000
vn 0.97780000 -0.20950000 -0.00000000
vn 0.97740000 -0.21150000 -0.00000000
vn 0.97740000 -0.21140000 -0.00000000
vn 0.97740000 -0.21160000 -0.00000000
vn 0.97770000 -0.21000000 0.00010000
vn 0.97770000 -0.21010000 0.00010000
vn 0.97760000 -0.21040000 -0.00020000
vn 0.95990000 -0.28040000 -0.00010000
vn 0.95960000 -0.28140000 -0.00020000
vn 0.95940000 -0.28210000 -0.00000000
vn 0.95940000 -0.28210000 -0.00000000
vn 0.95930000 -0.28250000 -0.00000000
vn 0.95990000 -0.28030000 -0.00000000
vn 0.95990000 -0.28040000 -0.00000000
vn 0.95930000 -0.28250000 -0.00000000
vn 0.95920000 -0.28260000 -0.00000000
vn 0.95930000 -0.28250000 -0.00000000
vn 0.96010000 -0.27970000 -0.00000000
vn 0.95990000 -0.28030000 0.00010000
vn 0.96010000 -0.27970000 -0.00000000
vn 0.96000000 -0.28000000 -0.00000000
vn 0.95990000 -0.28020000 -0.00000000
vn 0.95990000 -0.28030000 0.00010000
vn 0.95970000 -0.28090000 -0.00020000
vn 0.95980000 -0.28080000 0.00010000
vn 0.95960000 -0.28140000 -0.00010000
vn 0.96030000 -0.27890000 -0.00020000
vn 0.95990000 -0.28030000 -0.00000000
vn 0.96050000 -0.27810000 -0.00020000
vn 0.96060000 -0.27800000 -0.00000000
vn 0.96060000 -0.27810000 -0.00010000
vn 0.95930000 -0.28250000 -0.00000000
vn 0.95930000 -0.28260000 -0.00000000
vn 0.97690000 -0.21380000 -0.00000000
vn 0.97790000 -0.20920000 -0.00000000
vn 0.97740000 -0.21150000 -0.00000000
vn 0.97740000 -0.21140000 -0.00000000
vn 0.97790000 -0.20920000 -0.00000000
vn 0.97780000 -0.20930000 -0.00000000
f 1//1 2//2 3//3
f 2//2 4//4 3//3
f 5//5 6//6 8//8
f 6//6 9//9 7//7
f 10//10 11//11 14//14
f 12//12 17//17 13//13
f 15//15 16//16 18//18
f 19//19 20//20 23//23
f 21//21 24//24 22//22
f 22//22 25//25 26//26
f 25//25 28//28 26//26
f 27//27 29//29 30//30
f 31//31 32//32 33//33
f 32//32 37//37 35//35
f 34//34 36//36 38//38
f 39//39 41//41 42//42
f 40//40 44//44 42//42
f 42//42 43//43 46//46
f 43//43 48//48 45//45
f 46//46 47//47 49//49
f 50//50 51//51 52//52
f 53//53 54//54 57//57
f 55//55 58//58 56//56
f 56//56 59//59 60//60
f 61//61 62//62 65//65
f 63//63 66//66 64//64
f 67//67 69//69 70//70
f 68//68 72//72 70//70
f 71//71 72//72 73//73
f 74//74 75//75 77//77
f 75//75 78//78 76//76
f 76//76 78//78 79//79
f 80//80 81//81 83//83
f 82//82 85//85 84//84
f 84//84 85//85 87//87
f 86//86 89//89 87//87
f 87//87 88//88 90//90
f 91//91 92//92 93//93
f 92//92 94//94 93//93
f 95//95 96//96 98//98
f 96//96 99//99 97//97
f 100//100 102//102 104//104
f 101//101 107//107 103//103
f 105//105 106//106 108//108
f 109//109 110//110 114//114
f 111//111 115//115 113//113
f 112//112 115//115 116//116
f 115//115 117//117 116//116
f 116//116 117//117 118//118
f 119//119 120//120 123//123
f 121//121 125//125 123//123
f 122//122 124//124 126//126
f 127//127 129//129 130//130
f 128//128 132//132 131//131
f 131//131 132//132 133//133
f 132//132 134//134 133//133
f 133//133 135//135 136//136
f 137//137 138//138 139//139
f 138//138 140//140 139//139
f 139//139 140//140 141//141
f 140//140 142//142 141//141
f 141//141 142//142 143//143
f 142//142 145//145 144//144
f 143//143 145//145 146//146
f 147//147 149//149 151//151
f 148//148 153//153 150//150
f 152//152 154//154 155//155
f 156//156 158//158 159//159
f 157//157 161//161 159//159
f 160//160 162//162 163//163
f 164//164 165//165 166//166
f 167//167 168//168 170//170
f 168//168 172//172 169//169
f 171//171 172//172 173//173
f 174//174 176//176 179//179
f 175//175 180//180 178//178
f 177//177 180//180 181//181
f 182//182 184//184 186//186
f 183//183 187//187 185//185
f 186//186 188//188 189//189
f 188//188 190//190 189//189
f 189//189 190//190 191//191
f 190//190 193//193 192//192
f 192//192 193//193 194//194
f 195//195 196//196 198//198
f 197//197 200//200 199//199
f 201//201 202//202 203//203
f 202//202 205//205 203//203
f 204//204 205//205 206//206
f 207//207 208//208 209//209
f 208//208 211//211 210//210
f 212//212 213//213 214//214
f 213//213 216//216 215//215
f 214//214 216//216 217//217
f 218//218 219//219 220//220
f 219//219 221//221 220//220
f 220//220 221//221 223//223
f 221//221 224//224 223//223
f 222//222 225//225 226//226
f 227//227 228//228 229//229
f 228//228 230//230 229//229
f 229//229 230//230 231//231
f 230//230 234//234 233//233
f 232//232 234//234 235//235
f 236//236 237//237 239//239
f 238//238 242//242 240//240
f 240//240 241//241 243//243
f 244//244 245//245 247//247
f 246//246 250//250 249//249
f 248//248 251//251 252//252
f 253//253 254//254 255//255
f 256//256 257//257 258//258
f 257//257 261//261 259//259
f 259//259 260//260 262//262
f 263//263 265//265 266//266
f 264//264 270//270 268//268
f 267//267 269//269 271//271
f 272//272 273//273 274//274
f 273//273 277//277 276//276
f 275//275 278//278 279//279
f 278//278 280//280 279//279
f 279//279 280//280 281//281
f 280//280 283//283 282//282
f 281//281 283//283 284//284

