mtllib material.mtl
usemtl Reference_Traingle
v -0.02800300 0.11690300 0.00115000
v -0.02800300 0.11690300 -0.00115000
v -0.02800300 0.11723100 0.00138800
v -0.02800300 0.11690300 -0.00115000
v -0.02800300 0.11691000 -0.00120800
v -0.02800300 0.11691000 -0.00120800
v -0.02800300 0.11723100 0.00138800
v -0.02800300 0.11723100 0.00138800
v -0.02800300 0.11723100 0.00138800
v -0.02800300 0.11693100 -0.00126400
v -0.02800300 0.11693100 -0.00126400
v -0.02800300 0.11696300 -0.00131300
v -0.02800300 0.11696300 -0.00131300
v -0.02800300 0.11700700 -0.00135200
v -0.02800300 0.11700700 -0.00135200
v -0.02800300 0.11723100 0.00138800
v -0.02800300 0.11723100 0.00138800
v -0.02800300 0.11705800 -0.00138100
v -0.02800300 0.11711500 -0.00139700
v -0.02800300 0.12083600 -0.00017100
v -0.02800300 0.12087300 -0.00012000
v -0.02800300 0.12073100 0.00023800
v -0.02800300 0.11723100 0.00138800
v -0.02800300 0.11717400 0.00139900
v -0.02800300 0.11711500 0.00139700
v -0.02800300 0.12083600 -0.00017100
v -0.02800300 0.12073100 0.00023800
v -0.02800300 0.12078800 -0.00021100
v -0.02800300 0.12087300 -0.00012000
v -0.02800300 0.12089500 -0.00006200
v -0.02800300 0.12089500 -0.00006200
v -0.02800300 0.12073100 0.00023800
v -0.02800300 0.12073100 0.00023800
v -0.02800300 0.12090300 0.00000000
v -0.02800300 0.12090300 0.00000000
v -0.02800300 0.12089500 0.00006200
v -0.02800300 0.12089500 0.00006200
v -0.02800300 0.12087300 0.00012000
v -0.02800300 0.12073100 0.00023800
v -0.02800300 0.12073100 0.00023800
v -0.02800300 0.12083600 0.00017100
v -0.02800300 0.12083600 0.00017100
v -0.02800300 0.12078800 0.00021100
v -0.02800300 0.11711500 0.00139700
v -0.02800300 0.11705800 0.00138100
v -0.02800300 0.11723100 0.00138800
v -0.02800300 0.11700700 0.00135200
v -0.02800300 0.11696300 0.00131300
v -0.02800300 0.11696300 0.00131300
v -0.02800300 0.11693100 0.00126400
v -0.02800300 0.11723100 0.00138800
v -0.02800300 0.11691000 0.00120800
v -0.02800300 0.11690300 0.00115000
v -0.02800300 0.11711500 -0.00139700
v -0.02800300 0.11717400 -0.00139900
v -0.02800300 0.11723100 0.00138800
v -0.02800300 0.11723100 -0.00138800
v -0.02800300 0.12073100 0.00023800
v -0.02800300 0.12073100 -0.00023800
v -0.02800300 0.12078800 -0.00021100
v 0.03868600 0.03833700 0.00261800
v 0.03868400 0.03833800 0.00261600
v 0.03861000 0.03841300 0.00255800
v 0.03868600 0.03833700 0.00261800
v 0.03861000 0.03841300 0.00255800
v 0.03870300 0.03831900 0.00267200
v 0.03868400 0.03833800 0.00261600
v 0.03867600 0.03834700 0.00259800
v 0.03861000 0.03841300 0.00255800
v 0.03865600 0.03836700 0.00256800
v 0.03864700 0.03837600 0.00255500
v 0.03864700 0.03837600 0.00255500
v 0.03863200 0.03839100 0.00254100
v 0.03863200 0.03839100 0.00254100
v 0.03861000 0.03841300 0.00255800
v 0.03861000 0.03841300 0.00255800
v 0.03861000 0.03841300 0.00255800
v 0.03862000 0.03840300 0.00253200
v 0.03862000 0.03840300 0.00253200
v 0.03859500 0.03842800 0.00251400
v 0.03859500 0.03842800 0.00251400
v 0.03858000 0.03844400 0.00250800
v 0.03861000 0.03841300 0.00255800
v 0.03861000 0.03841300 0.00255800
v 0.03857800 0.03844500 0.00250700
v 0.03857800 0.03844500 0.00250700
v 0.03853700 0.03848700 0.00250000
v 0.03853600 0.03848700 0.00250000
v 0.03851900 0.03850400 0.00250100
v 0.03937200 0.03761400 0.00649300
v 0.03849200 0.03853100 0.00250900
v 0.03847800 0.03854500 0.00251400
v 0.03847800 0.03854500 0.00251400
v 0.03846100 0.03856200 0.00252300
v 0.03937200 0.03761400 0.00649300
v 0.03845100 0.03857200 0.00253200
v 0.03842600 0.03859700 0.00255400
v 0.03842600 0.03859700 0.00255400
v 0.03841500 0.03860800 0.00256800
v 0.03937200 0.03761400 0.00649300
v 0.03841200 0.03861000 0.00257100
v 0.03838600 0.03863600 0.00261600
v 0.03838600 0.03863600 0.00261600
v 0.03838600 0.03863600 0.00261700
v 0.03937200 0.03761400 0.00649300
v 0.03836700 0.03865500 0.00267200
v 0.03933100 0.03765600 0.00650000
v 0.03753400 0.03944800 0.00617200
v 0.03752500 0.03945600 0.00623000
v 0.03853700 0.03848700 0.00250000
v 0.03853600 0.03848700 0.00250000
v 0.03861000 0.03841300 0.00255800
v 0.03937200 0.03761400 0.00649300
v 0.03870300 0.03831900 0.00267200
v 0.03937200 0.03761400 0.00649300
v 0.03937200 0.03761400 0.00649300
v 0.03938800 0.03759700 0.00648600
v 0.03870300 0.03831900 0.00267200
v 0.03940900 0.03757500 0.00647100
v 0.03942500 0.03755800 0.00646000
v 0.03942500 0.03755800 0.00646000
v 0.03943900 0.03754400 0.00644500
v 0.03870300 0.03831900 0.00267200
v 0.03944300 0.03754000 0.00643900
v 0.03946800 0.03751400 0.00640300
v 0.03946800 0.03751400 0.00640300
v 0.03947100 0.03751000 0.00639600
v 0.03870300 0.03831900 0.00267200
v 0.03947800 0.03750300 0.00638200
v 0.03949000 0.03749100 0.00634500
v 0.03949000 0.03749100 0.00634500
v 0.03949600 0.03748500 0.00632900
v 0.03870300 0.03831900 0.00267200
v 0.03950000 0.03748100 0.00630500
v 0.03950100 0.03747900 0.00628800
v 0.03950100 0.03747900 0.00628800
v 0.03950500 0.03747600 0.00624600
v 0.03870300 0.03831900 0.00267200
v 0.03950400 0.03747700 0.00623000
v 0.03949600 0.03748600 0.00617200
v 0.03949600 0.03748600 0.00617200
v 0.03950400 0.03747800 0.00622100
v 0.03752500 0.03945600 0.00623000
v 0.03752500 0.03945600 0.00623000
v 0.03933100 0.03765600 0.00650000
v 0.03752500 0.03945600 0.00625500
v 0.03752800 0.03945300 0.00628800
v 0.03752800 0.03945300 0.00628800
v 0.03753000 0.03945000 0.00631400
v 0.03933100 0.03765600 0.00650000
v 0.03753600 0.03944500 0.00633700
v 0.03753900 0.03944200 0.00634500
v 0.03758800 0.03939500 0.00643900
v 0.03759700 0.03938600 0.00645100
v 0.03759700 0.03938600 0.00645100
v 0.03761100 0.03937300 0.00644500
v 0.03761100 0.03937300 0.00644500
v 0.03761200 0.03937200 0.00646500
v 0.03761200 0.03937200 0.00646500
v 0.03762300 0.03936100 0.00647100
v 0.03762300 0.03936100 0.00647100
v 0.03761100 0.03937300 0.00644500
v 0.03761100 0.03937300 0.00644500
v 0.03765100 0.03933400 0.00648900
v 0.03765100 0.03933400 0.00648900
v 0.03766300 0.03932300 0.00649300
v 0.03753900 0.03944200 0.00634500
v 0.03755500 0.03942600 0.00639000
v 0.03933100 0.03765600 0.00650000
v 0.03755900 0.03942300 0.00639600
v 0.03755900 0.03942300 0.00639600
v 0.03761100 0.03937300 0.00644500
v 0.03761100 0.03937300 0.00644500
v 0.03761100 0.03937300 0.00644500
v 0.03756600 0.03941600 0.00641000
v 0.03756600 0.03941600 0.00641000
v 0.03758800 0.03939500 0.00643900
v 0.03766300 0.03932300 0.00649300
v 0.03766900 0.03931700 0.00649500
v 0.03761100 0.03937300 0.00644500
v 0.03761100 0.03937300 0.00644500
v 0.03770500 0.03928300 0.00650000
v 0.03933100 0.03765600 0.00650000
vn 1.00000000 -0.00000000 -0.00000000
vn 1.00000000 -0.00000000 -0.00000000
vn 1.00000000 -0.00000000 -0.00000000
vn 1.00000000 -0.00010000 -0.00000000
vn 1.00000000 -0.00000000 -0.00000000
vn 1.00000000 -0.00020000 -0.00000000
vn 1.00000000 -0.00000000 -0.00000000
vn 1.00000000 -0.00020000 -0.00000000
vn 1.00000000 -0.00030000 -0.00000000
vn 1.00000000 -0.00000000 -0.00000000
vn 1.00000000 -0.00030000 -0.00000000
vn 1.00000000 -0.00030000 -0.00000000
vn 1.00000000 -0.00010000 -0.00000000
vn 1.00000000 -0.00010000 -0.00000000
vn 1.00000000 -0.00000000 -0.00000000
vn 1.00000000 -0.00000000 -0.00000000
vn 1.00000000 -0.00010000 -0.00000000
vn 1.00000000 -0.00000000 -0.00000000
vn 1.00000000 -0.00000000 -0.00000000
vn 1.00000000 0.00010000 -0.00000000
vn 1.00000000 0.00010000 -0.00000000
vn 1.00000000 0.00010000 -0.00000000
vn 1.00000000 -0.00000000 -0.00000000
vn 1.00000000 -0.00000000 -0.00000000
vn 1.00000000 -0.00000000 -0.00000000
vn 1.00000000 -0.00000000 -0.00000000
vn 1.00000000 -0.00000000 -0.00000000
vn 1.00000000 -0.00000000 -0.00000000
vn 1.00000000 -0.00000000 -0.00000000
vn 1.00000000 -0.00010000 -0.00000000
vn 1.00000000 -0.00000000 -0.00000000
vn 1.00000000 -0.00010000 -0.00000000
vn 1.00000000 -0.00000000 -0.00000000
vn 1.00000000 -0.00010000 -0.00000000
vn 1.00000000 -0.00000000 -0.00000000
vn 1.00000000 -0.00000000 -0.00000000
vn 1.00000000 0.00010000 -0.00000000
vn 1.00000000 0.00010000 -0.00000000
vn 1.00000000 0.00010000 -0.00000000
vn 1.00000000 -0.00010000 -0.00000000
vn 1.00000000 -0.00010000 -0.00000000
vn 1.00000000 0.00010000 -0.00000000
vn 1.00000000 -0.00010000 -0.00000000
vn 1.00000000 -0.00000000 -0.00000000
vn 1.00000000 -0.00000000 -0.00000000
vn 1.00000000 -0.00000000 -0.00000000
vn 1.00000000 -0.00000000 -0.00000000
vn 1.00000000 -0.00000000 -0.00000000
vn 1.00000000 -0.00000000 -0.00000000
vn 1.00000000 -0.00000000 -0.00000000
vn 1.00000000 -0.00000000 -0.00000000
vn 1.00000000 -0.00000000 -0.00000000
vn 1.00000000 -0.00000000 -0.00000000
vn 1.00000000 -0.00000000 -0.00000000
vn 1.00000000 -0.00000000 -0.00000000
vn 1.00000000 -0.00000000 -0.00000000
vn 1.00000000 -0.00000000 -0.00000000
vn 1.00000000 -0.00000000 -0.00000000
vn 1.00000000 -0.00000000 -0.00000000
vn 1.00000000 -0.00000000 -0.00000000
vn 0.70980000 0.70440000 0.00190000
vn 0.70980000 0.70440000 0.00190000
vn 0.70850000 0.70570000 0.00180000
vn 0.70980000 0.70440000 0.00190000
vn 0.70850000 0.70570000 0.00180000
vn 0.71010000 0.70400000 0.00190000
vn 0.70980000 0.70440000 0.00190000
vn 0.70960000 0.70460000 0.00190000
vn 0.70850000 0.70570000 0.00190000
vn 0.70930000 0.70490000 0.00190000
vn 0.70910000 0.70510000 0.00190000
vn 0.70920000 0.70500000 0.00190000
vn 0.70880000 0.70540000 0.00220000
vn 0.70900000 0.70520000 0.00180000
vn 0.70870000 0.70550000 0.00180000
vn 0.70870000 0.70550000 0.00190000
vn 0.70870000 0.70560000 0.00180000
vn 0.70850000 0.70570000 0.00200000
vn 0.70870000 0.70560000 0.00180000
vn 0.70820000 0.70600000 0.00180000
vn 0.70820000 0.70600000 0.00180000
vn 0.70790000 0.70630000 0.00180000
vn 0.70840000 0.70580000 0.00180000
vn 0.70850000 0.70570000 0.00180000
vn 0.70790000 0.70630000 0.00180000
vn 0.70780000 0.70640000 0.00180000
vn 0.70710000 0.70710000 0.00170000
vn 0.70710000 0.70710000 0.00180000
vn 0.70680000 0.70740000 0.00180000
vn 0.72260000 0.69120000 0.00480000
vn 0.70630000 0.70790000 0.00180000
vn 0.70600000 0.70820000 0.00180000
vn 0.70600000 0.70820000 0.00170000
vn 0.70570000 0.70850000 0.00180000
vn 0.72260000 0.69120000 0.00480000
vn 0.70550000 0.70870000 0.00180000
vn 0.70510000 0.70910000 0.00180000
vn 0.70510000 0.70910000 0.00180000
vn 0.70490000 0.70930000 0.00180000
vn 0.72260000 0.69120000 0.00480000
vn 0.70480000 0.70940000 0.00180000
vn 0.70440000 0.70980000 0.00180000
vn 0.70440000 0.70980000 0.00180000
vn 0.70440000 0.70980000 0.00180000
vn 0.72260000 0.69130000 0.00470000
vn 0.70400000 0.71020000 0.00190000
vn 0.72190000 0.69200000 0.00480000
vn 0.68890000 0.72490000 0.00450000
vn 0.68870000 0.72500000 0.00460000
vn 0.70710000 0.70710000 0.00180000
vn 0.70710000 0.70710000 0.00180000
vn 0.70850000 0.70570000 0.00180000
vn 0.72260000 0.69120000 0.00480000
vn 0.71020000 0.70400000 0.00190000
vn 0.72260000 0.69120000 0.00480000
vn 0.72260000 0.69120000 0.00480000
vn 0.72290000 0.69090000 0.00480000
vn 0.71020000 0.70400000 0.00190000
vn 0.72330000 0.69050000 0.00480000
vn 0.72360000 0.69020000 0.00470000
vn 0.72360000 0.69020000 0.00480000
vn 0.72380000 0.69000000 0.00470000
vn 0.71020000 0.70400000 0.00190000
vn 0.72390000 0.68990000 0.00470000
vn 0.72440000 0.68940000 0.00470000
vn 0.72440000 0.68940000 0.00470000
vn 0.72440000 0.68930000 0.00470000
vn 0.71020000 0.70400000 0.00190000
vn 0.72460000 0.68920000 0.00470000
vn 0.72480000 0.68900000 0.00470000
vn 0.72480000 0.68900000 0.00460000
vn 0.72490000 0.68890000 0.00460000
vn 0.71020000 0.70400000 0.00190000
vn 0.72500000 0.68880000 0.00460000
vn 0.72500000 0.68880000 0.00460000
vn 0.72500000 0.68880000 0.00460000
vn 0.72500000 0.68870000 0.00460000
vn 0.71020000 0.70400000 0.00190000
vn 0.72500000 0.68870000 0.00460000
vn 0.72490000 0.68880000 0.00450000
vn 0.72490000 0.68890000 0.00450000
vn 0.72500000 0.68870000 0.00460000
vn 0.68870000 0.72500000 0.00460000
vn 0.68870000 0.72500000 0.00460000
vn 0.72180000 0.69200000 0.00480000
vn 0.68870000 0.72500000 0.00460000
vn 0.68870000 0.72500000 0.00460000
vn 0.68880000 0.72500000 0.00460000
vn 0.68880000 0.72490000 0.00460000
vn 0.72190000 0.69200000 0.00480000
vn 0.68890000 0.72480000 0.00460000
vn 0.68890000 0.72480000 0.00470000
vn 0.69000000 0.72380000 0.00430000
vn 0.69010000 0.72370000 0.00430000
vn 0.69010000 0.72370000 0.00440000
vn 0.69030000 0.72350000 0.00470000
vn 0.69040000 0.72340000 0.00460000
vn 0.69020000 0.72360000 0.00460000
vn 0.69030000 0.72350000 0.00480000
vn 0.69050000 0.72330000 0.00460000
vn 0.69080000 0.72300000 0.00490000
vn 0.69010000 0.72370000 0.00480000
vn 0.69020000 0.72360000 0.00480000
vn 0.69080000 0.72300000 0.00490000
vn 0.69100000 0.72280000 0.00470000
vn 0.69120000 0.72260000 0.00470000
vn 0.68900000 0.72480000 0.00460000
vn 0.68930000 0.72450000 0.00470000
vn 0.72190000 0.69200000 0.00480000
vn 0.68930000 0.72440000 0.00470000
vn 0.68940000 0.72440000 0.00470000
vn 0.69030000 0.72350000 0.00470000
vn 0.69030000 0.72350000 0.00450000
vn 0.69030000 0.72360000 0.00460000
vn 0.68950000 0.72420000 0.00460000
vn 0.68950000 0.72430000 0.00470000
vn 0.69000000 0.72380000 0.00460000
vn 0.69120000 0.72260000 0.00470000
vn 0.69140000 0.72250000 0.00470000
vn 0.69030000 0.72350000 0.00480000
vn 0.69030000 0.72350000 0.00470000
vn 0.69200000 0.72190000 0.00480000
vn 0.72190000 0.69200000 0.00480000
f 1//1 2//2 3//3
f 4//4 6//6 8//8
f 5//5 10//10 7//7
f 9//9 11//11 12//12
f 13//13 14//14 17//17
f 15//15 18//18 16//16
f 16//16 18//18 19//19
f 20//20 21//21 22//22
f 23//23 24//24 25//25
f 26//26 27//27 28//28
f 29//29 31//31 33//33
f 30//30 34//34 32//32
f 33//33 35//35 36//36
f 37//37 38//38 39//39
f 38//38 42//42 39//39
f 40//40 41//41 43//43
f 44//44 45//45 46//46
f 45//45 47//47 46//46
f 46//46 47//47 48//48
f 49//49 50//50 51//51
f 50//50 52//52 51//51
f 51//51 52//52 53//53
f 54//54 55//55 56//56
f 55//55 57//57 56//56
f 56//56 57//57 58//58
f 57//57 59//59 58//58
f 58//58 59//59 60//60
f 61//61 62//62 63//63
f 64//64 65//65 66//66
f 67//67 68//68 69//69
f 68//68 70//70 69//69
f 69//69 70//70 71//71
f 72//72 73//73 76//76
f 74//74 78//78 75//75
f 77//77 79//79 80//80
f 81//81 82//82 83//83
f 82//82 85//85 84//84
f 84//84 86//86 87//87
f 88//88 89//89 90//90
f 89//89 91//91 90//90
f 90//90 91//91 92//92
f 93//93 94//94 95//95
f 94//94 96//96 95//95
f 95//95 96//96 97//97
f 98//98 99//99 100//100
f 99//99 101//101 100//100
f 100//100 101//101 102//102
f 103//103 104//104 105//105
f 104//104 106//106 105//105
f 105//105 106//106 107//107
f 106//106 108//108 107//107
f 107//107 108//108 109//109
f 110//110 111//111 112//112
f 111//111 113//113 112//112
f 112//112 113//113 114//114
f 113//113 115//115 114//114
f 116//116 117//117 118//118
f 117//117 119//119 118//118
f 118//118 119//119 120//120
f 121//121 122//122 123//123
f 122//122 124//124 123//123
f 123//123 124//124 125//125
f 126//126 127//127 128//128
f 127//127 129//129 128//128
f 128//128 129//129 130//130
f 131//131 132//132 133//133
f 132//132 134//134 133//133
f 133//133 134//134 135//135
f 136//136 137//137 138//138
f 137//137 139//139 138//138
f 138//138 139//139 141//141
f 139//139 142//142 140//140
f 143//143 144//144 145//145
f 144//144 146//146 145//145
f 145//145 146//146 147//147
f 148//148 149//149 150//150
f 149//149 151//151 150//150
f 150//150 151//151 152//152
f 153//153 154//154 156//156
f 155//155 158//158 157//157
f 159//159 160//160 162//162
f 161//161 164//164 163//163
f 163//163 165//165 166//166
f 167//167 168//168 169//169
f 168//168 170//170 169//169
f 169//169 170//170 172//172
f 171//171 175//175 173//173
f 174//174 176//176 177//177
f 178//178 179//179 181//181
f 179//179 182//182 181//181
f 180//180 182//182 183//183

