mtllib material.mtl
usemtl Reference_Triangles.004
v 0.07042800 -0.04355400 -0.03926500
v 0.07026300 -0.04387500 -0.03919700
v 0.07025200 -0.04381700 -0.03919200
v 0.07271200 -0.04357400 -0.04021100
v 0.07275700 -0.04360700 -0.04023000
v 0.07279400 -0.04365000 -0.04024500
v 0.07048200 -0.04354700 -0.03928800
v 0.07260700 -0.04354700 -0.04016800
v 0.07260700 -0.04354700 -0.04016800
v 0.07282700 -0.04387500 -0.04025900
v 0.07282700 -0.04387500 -0.04025900
v 0.07282700 -0.04387500 -0.04025900
v 0.07266100 -0.04355400 -0.04019000
v 0.07266100 -0.04355400 -0.04019000
v 0.07266100 -0.04355400 -0.04019000
v 0.07283700 -0.04381700 -0.04026300
v 0.07283700 -0.04381700 -0.04026300
v 0.07283500 -0.04375800 -0.04026200
v 0.07271200 -0.04357400 -0.04021100
v 0.07279400 -0.04365000 -0.04024500
v 0.07279400 -0.04365000 -0.04024500
v 0.07266100 -0.04355400 -0.04019000
v 0.07266100 -0.04355400 -0.04019000
v 0.07266100 -0.04355400 -0.04019000
v 0.07282100 -0.04370200 -0.04025600
v 0.07282100 -0.04370200 -0.04025600
v 0.07283500 -0.04375800 -0.04026200
v 0.07026900 -0.04370200 -0.03919900
v 0.07029500 -0.04365000 -0.03921000
v 0.07033200 -0.04360700 -0.03922600
v 0.07042800 -0.04355400 -0.03926500
v 0.07048200 -0.04354700 -0.03928800
v 0.07048200 -0.04354700 -0.03928800
v 0.07026300 -0.04387500 -0.03919700
v 0.07026300 -0.04387500 -0.03919700
v 0.07282700 -0.04387500 -0.04025900
v 0.07132500 -0.04737500 -0.03963700
v 0.07132500 -0.04737500 -0.03963700
v 0.07176400 -0.04737500 -0.03981900
v 0.07176400 -0.04737500 -0.03981900
v 0.07176400 -0.04737500 -0.03981900
v 0.07135000 -0.04743100 -0.03964700
v 0.07135000 -0.04743100 -0.03964700
v 0.07135000 -0.04743100 -0.03964700
v 0.07173900 -0.04743100 -0.03980800
v 0.07173900 -0.04743100 -0.03980800
v 0.07170200 -0.04747900 -0.03979300
v 0.07143400 -0.04751600 -0.03968200
v 0.07160200 -0.04753900 -0.03975200
v 0.07160200 -0.04753900 -0.03975200
v 0.07148700 -0.04753900 -0.03970400
v 0.07148700 -0.04753900 -0.03970400
v 0.07154500 -0.04754700 -0.03972800
v 0.07170200 -0.04747900 -0.03979300
v 0.07165600 -0.04751600 -0.03977400
v 0.07165600 -0.04751600 -0.03977400
v 0.07135000 -0.04743100 -0.03964700
v 0.07135000 -0.04743100 -0.03964700
v 0.07135000 -0.04743100 -0.03964700
v 0.07160200 -0.04753900 -0.03975200
v 0.07160200 -0.04753900 -0.03975200
v 0.07160200 -0.04753900 -0.03975200
v 0.07138700 -0.04747900 -0.03966200
v 0.07138700 -0.04747900 -0.03966200
v 0.07143400 -0.04751600 -0.03968200
v 0.07025200 -0.04381700 -0.03919200
v 0.07025400 -0.04375800 -0.03919300
v 0.07025400 -0.04375800 -0.03919300
v 0.07042800 -0.04355400 -0.03926500
v 0.07042800 -0.04355400 -0.03926500
v 0.07042800 -0.04355400 -0.03926500
v 0.07026900 -0.04370200 -0.03919900
v 0.07026900 -0.04370200 -0.03919900
v 0.07026900 -0.04370200 -0.03919900
v 0.07037700 -0.04357400 -0.03924400
v 0.07037700 -0.04357400 -0.03924400
v 0.07033200 -0.04360700 -0.03922600
v -0.01704700 0.04466700 -0.01085600
v -0.01703200 0.04467300 -0.01091300
v -0.01703200 0.04467300 -0.01091300
v -0.01712500 0.04463800 -0.01086800
v -0.01712500 0.04463800 -0.01086800
v -0.01703000 0.04467400 -0.01097100
v -0.01726300 0.04458400 -0.01070100
v -0.01720800 0.04460500 -0.01070800
v -0.01720800 0.04460500 -0.01070800
v -0.01712500 0.04463800 -0.01086800
v -0.01715700 0.04462500 -0.01072800
v -0.01715700 0.04462500 -0.01072800
v -0.01711100 0.04464300 -0.01076100
v -0.01711100 0.04464300 -0.01076100
v -0.01712500 0.04463800 -0.01086800
v -0.01712500 0.04463800 -0.01086800
v -0.01712500 0.04463800 -0.01086800
v -0.01707400 0.04465700 -0.01080400
v -0.01707400 0.04465700 -0.01080400
v -0.01704700 0.04466700 -0.01085600
v -0.01811100 0.04424700 -0.01452900
v -0.01833100 0.04415700 -0.01452900
v -0.01704100 0.04466900 -0.01102900
v -0.01960500 0.04360800 -0.01102900
v -0.01838800 0.04413300 -0.01469300
v -0.01844100 0.04411100 -0.01467000
v -0.01844100 0.04411100 -0.01467000
v -0.01833100 0.04415700 -0.01452900
v -0.01833100 0.04415700 -0.01452900
v -0.01848800 0.04409100 -0.01463400
v -0.01848800 0.04409100 -0.01463400
v -0.01852500 0.04407600 -0.01458600
v -0.01833100 0.04415700 -0.01452900
v -0.01855000 0.04406600 -0.01452900
v -0.01855000 0.04406600 -0.01452900
v -0.01960500 0.04360800 -0.01102900
v -0.01811100 0.04424700 -0.01452900
v -0.01813600 0.04423700 -0.01458600
v -0.01813600 0.04423700 -0.01458600
v -0.01833100 0.04415700 -0.01452900
v -0.01817300 0.04422200 -0.01463400
v -0.01821900 0.04420300 -0.01467000
v -0.01821900 0.04420300 -0.01467000
v -0.01827300 0.04418100 -0.01469300
v -0.01827300 0.04418100 -0.01469300
v -0.01833100 0.04415700 -0.01452900
v -0.01833100 0.04415700 -0.01452900
v -0.01833100 0.04415700 -0.01470100
v -0.01833100 0.04415700 -0.01470100
v -0.01838800 0.04413300 -0.01469300
v -0.01959900 0.04361000 -0.01085600
v -0.01957300 0.04362200 -0.01080400
v -0.01949600 0.04365600 -0.01086500
v -0.01957300 0.04362200 -0.01080400
v -0.01953600 0.04363800 -0.01076100
v -0.01953600 0.04363800 -0.01076100
v -0.01949600 0.04365600 -0.01086500
v -0.01949600 0.04365600 -0.01086500
v -0.01949200 0.04365800 -0.01072800
v -0.01949200 0.04365800 -0.01072800
v -0.01944100 0.04368100 -0.01070800
v -0.01960500 0.04360800 -0.01102900
v -0.01961500 0.04360300 -0.01097100
v -0.01949600 0.04365600 -0.01086500
v -0.01961300 0.04360400 -0.01091300
v -0.01959900 0.04361000 -0.01085600
v -0.01703000 0.04467400 -0.01097100
v -0.01704100 0.04466900 -0.01102900
v -0.01712500 0.04463800 -0.01086800
v -0.01960500 0.04360800 -0.01102900
v -0.01726300 0.04458400 -0.01070100
v -0.01949600 0.04365600 -0.01086500
v -0.01938800 0.04370400 -0.01070100
v -0.01938800 0.04370400 -0.01070100
v -0.01944100 0.04368100 -0.01070800
vn -0.38270000 -0.00000000 -0.92390000
vn -0.38270000 -0.00000000 -0.92390000
vn -0.38270000 -0.00000000 -0.92390000
vn -0.38270000 -0.00000000 -0.92390000
vn -0.38270000 -0.00000000 -0.92390000
vn -0.38270000 -0.00000000 -0.92390000
vn -0.38270000 -0.00000000 -0.92390000
vn -0.38270000 -0.00000000 -0.92390000
vn -0.38290000 -0.00000000 -0.92380000
vn -0.38250000 -0.00000000 -0.92400000
vn -0.38240000 -0.00000000 -0.92400000
vn -0.38260000 -0.00000000 -0.92390000
vn -0.38240000 -0.00000000 -0.92400000
vn -0.38250000 -0.00010000 -0.92400000
vn -0.38230000 -0.00000000 -0.92400000
vn -0.38280000 -0.00010000 -0.92380000
vn -0.38280000 -0.00000000 -0.92380000
vn -0.38250000 -0.00010000 -0.92400000
vn -0.38280000 -0.00010000 -0.92380000
vn -0.38270000 -0.00010000 -0.92390000
vn -0.38300000 -0.00000000 -0.92380000
vn -0.38280000 -0.00010000 -0.92380000
vn -0.38300000 -0.00000000 -0.92380000
vn -0.38290000 -0.00020000 -0.92380000
vn -0.38300000 -0.00000000 -0.92380000
vn -0.38290000 -0.00020000 -0.92380000
vn -0.38290000 -0.00020000 -0.92380000
vn -0.38250000 0.00030000 -0.92390000
vn -0.38260000 -0.00000000 -0.92390000
vn -0.38260000 -0.00000000 -0.92390000
vn -0.38260000 -0.00010000 -0.92390000
vn -0.38270000 -0.00000000 -0.92390000
vn -0.38260000 -0.00010000 -0.92390000
vn -0.38270000 -0.00000000 -0.92390000
vn -0.38260000 -0.00010000 -0.92390000
vn -0.38270000 -0.00000000 -0.92390000
vn -0.38270000 -0.00010000 -0.92390000
vn -0.38270000 -0.00000000 -0.92390000
vn -0.38260000 0.00010000 -0.92390000
vn -0.38270000 -0.00010000 -0.92390000
vn -0.38270000 -0.00000000 -0.92390000
vn -0.38270000 -0.00010000 -0.92390000
vn -0.38260000 0.00010000 -0.92390000
vn -0.38260000 -0.00020000 -0.92390000
vn -0.38260000 -0.00020000 -0.92390000
vn -0.38260000 0.00010000 -0.92390000
vn -0.38260000 -0.00020000 -0.92390000
vn -0.38260000 0.00020000 -0.92390000
vn -0.38290000 0.00050000 -0.92380000
vn -0.38270000 0.00050000 -0.92390000
vn -0.38280000 0.00010000 -0.92380000
vn -0.38300000 -0.00010000 -0.92380000
vn -0.38280000 -0.00020000 -0.92380000
vn -0.38270000 0.00020000 -0.92390000
vn -0.38270000 0.00020000 -0.92390000
vn -0.38270000 -0.00000000 -0.92390000
vn -0.38280000 -0.00000000 -0.92380000
vn -0.38270000 0.00020000 -0.92390000
vn -0.38270000 -0.00000000 -0.92390000
vn -0.38280000 -0.00000000 -0.92380000
vn -0.38260000 -0.00010000 -0.92390000
vn -0.38270000 -0.00000000 -0.92390000
vn -0.38260000 -0.00010000 -0.92390000
vn -0.38280000 -0.00000000 -0.92380000
vn -0.38260000 -0.00010000 -0.92390000
vn -0.38270000 -0.00000000 -0.92390000
vn -0.38280000 0.00010000 -0.92380000
vn -0.38300000 0.00010000 -0.92380000
vn -0.38260000 -0.00000000 -0.92390000
vn -0.38240000 -0.00020000 -0.92400000
vn -0.38300000 0.00010000 -0.92380000
vn -0.38280000 -0.00000000 -0.92380000
vn -0.38290000 -0.00000000 -0.92380000
vn -0.38280000 -0.00010000 -0.92380000
vn -0.38280000 -0.00000000 -0.92380000
vn -0.38260000 -0.00000000 -0.92390000
vn -0.38280000 -0.00000000 -0.92380000
vn -0.35580000 0.93450000 -0.00000000
vn -0.35560000 0.93460000 -0.00000000
vn -0.35550000 0.93470000 -0.00000000
vn -0.35740000 0.93390000 -0.00000000
vn -0.35750000 0.93390000 -0.00000000
vn -0.35550000 0.93470000 -0.00000000
vn -0.36030000 0.93280000 -0.00010000
vn -0.35920000 0.93330000 -0.00010000
vn -0.35930000 0.93320000 -0.00010000
vn -0.35760000 0.93390000 -0.00000000
vn -0.35820000 0.93360000 -0.00000000
vn -0.35810000 0.93370000 -0.00000000
vn -0.35750000 0.93390000 0.00010000
vn -0.35730000 0.93400000 -0.00000000
vn -0.35720000 0.93400000 -0.00000000
vn -0.35690000 0.93420000 -0.00010000
vn -0.35700000 0.93410000 -0.00010000
vn -0.35640000 0.93430000 -0.00000000
vn -0.35630000 0.93440000 0.00010000
vn -0.35590000 0.93450000 -0.00000000
vn -0.37810000 0.92580000 -0.00000000
vn -0.38270000 0.92390000 -0.00000000
vn -0.35580000 0.93460000 -0.00000000
vn -0.40930000 0.91240000 -0.00000000
vn -0.38390000 0.92340000 -0.00000000
vn -0.38500000 0.92290000 -0.00000000
vn -0.38500000 0.92290000 -0.00010000
vn -0.38270000 0.92390000 -0.00000000
vn -0.38260000 0.92390000 -0.00000000
vn -0.38590000 0.92250000 -0.00000000
vn -0.38590000 0.92250000 0.00010000
vn -0.38670000 0.92220000 -0.00000000
vn -0.38270000 0.92390000 -0.00000000
vn -0.38730000 0.92200000 -0.00000000
vn -0.38720000 0.92200000 -0.00000000
vn -0.40930000 0.91240000 -0.00000000
vn -0.37810000 0.92580000 -0.00000000
vn -0.37870000 0.92550000 -0.00000000
vn -0.37860000 0.92550000 -0.00000000
vn -0.38270000 0.92390000 -0.00000000
vn -0.37940000 0.92520000 -0.00000000
vn -0.38040000 0.92480000 -0.00000000
vn -0.38030000 0.92490000 -0.00000000
vn -0.38140000 0.92440000 -0.00000000
vn -0.38160000 0.92430000 -0.00010000
vn -0.38260000 0.92390000 -0.00000000
vn -0.38240000 0.92400000 -0.00000000
vn -0.38270000 0.92390000 -0.00000000
vn -0.38260000 0.92390000 -0.00000000
vn -0.38390000 0.92340000 -0.00000000
vn -0.40920000 0.91240000 -0.00000000
vn -0.40860000 0.91270000 -0.00000000
vn -0.40700000 0.91340000 -0.00000000
vn -0.40860000 0.91270000 -0.00000000
vn -0.40790000 0.91300000 -0.00000000
vn -0.40800000 0.91300000 -0.00010000
vn -0.40740000 0.91330000 -0.00010000
vn -0.40750000 0.91320000 -0.00000000
vn -0.40670000 0.91360000 -0.00000000
vn -0.40640000 0.91370000 -0.00000000
vn -0.40580000 0.91400000 -0.00000000
vn -0.40920000 0.91240000 -0.00000000
vn -0.40950000 0.91230000 -0.00000000
vn -0.40710000 0.91340000 -0.00000000
vn -0.40950000 0.91230000 -0.00000000
vn -0.40920000 0.91250000 -0.00000000
vn -0.35560000 0.93460000 -0.00000000
vn -0.35580000 0.93460000 -0.00000000
vn -0.35750000 0.93390000 -0.00000000
vn -0.40930000 0.91240000 -0.00000000
vn -0.36040000 0.93280000 -0.00000000
vn -0.40700000 0.91340000 -0.00000000
vn -0.40470000 0.91440000 -0.00000000
vn -0.40490000 0.91440000 -0.00010000
vn -0.40580000 0.91400000 -0.00000000
f 1//1 2//2 3//3
f 4//4 5//5 6//6
f 7//7 8//8 11//11
f 9//9 15//15 10//10
f 12//12 14//14 17//17
f 13//13 18//18 16//16
f 19//19 20//20 22//22
f 21//21 25//25 23//23
f 24//24 26//26 27//27
f 28//28 29//29 30//30
f 31//31 33//33 35//35
f 32//32 36//36 34//34
f 34//34 36//36 38//38
f 36//36 41//41 38//38
f 37//37 40//40 42//42
f 39//39 46//46 43//43
f 44//44 45//45 47//47
f 48//48 50//50 51//51
f 49//49 53//53 52//52
f 54//54 55//55 58//58
f 56//56 62//62 59//59
f 57//57 60//60 64//64
f 61//61 65//65 63//63
f 66//66 67//67 70//70
f 68//68 74//74 71//71
f 69//69 73//73 76//76
f 72//72 77//77 75//75
f 78//78 79//79 81//81
f 80//80 83//83 82//82
f 84//84 86//86 87//87
f 85//85 88//88 87//87
f 89//89 90//90 92//92
f 91//91 95//95 93//93
f 94//94 96//96 97//97
f 98//98 99//99 100//100
f 99//99 101//101 100//100
f 102//102 104//104 106//106
f 103//103 107//107 105//105
f 108//108 109//109 110//110
f 109//109 112//112 110//110
f 110//110 111//111 113//113
f 114//114 116//116 117//117
f 115//115 118//118 117//117
f 117//117 118//118 119//119
f 120//120 121//121 123//123
f 122//122 125//125 124//124
f 123//123 126//126 127//127
f 128//128 129//129 130//130
f 131//131 133//133 134//134
f 132//132 136//136 135//135
f 134//134 137//137 138//138
f 139//139 140//140 141//141
f 140//140 142//142 141//141
f 141//141 142//142 143//143
f 144//144 145//145 146//146
f 145//145 147//147 146//146
f 146//146 147//147 148//148
f 147//147 149//149 148//148
f 148//148 149//149 150//150
f 149//149 152//152 151//151

