mtllib material.mtl
usemtl Axis_Number.001
v 0.05450000 0.00135000 -0.11159700
v 0.05450000 0.00135000 -0.11125000
v 0.05450000 -0.00015200 -0.11200000
v 0.05450000 -0.00015200 -0.11200000
v 0.05450000 0.00135000 -0.11125000
v 0.05450000 -0.00110000 -0.11200000
v 0.05450000 0.00116500 -0.11100900
v 0.05450000 0.00110000 -0.11100000
v 0.05450000 0.00135000 -0.11125000
v 0.05450000 0.00131700 -0.11112500
v 0.05450000 0.00127700 -0.11107300
v 0.05450000 0.00122500 -0.11103400
v 0.05450000 -0.00131700 -0.11187500
v 0.05450000 -0.00127700 -0.11192700
v 0.05450000 -0.00122500 -0.11196700
v 0.05450000 -0.00116500 -0.11199200
v 0.05450000 -0.00110000 -0.11200000
v 0.05450000 -0.00135000 -0.11175000
v 0.05450000 0.00135000 -0.11125000
v 0.05450000 -0.00135000 -0.11125000
v 0.05450000 0.00110000 -0.11100000
v 0.05450000 -0.00110000 -0.11100000
v 0.05450000 -0.00015200 -0.11200000
v 0.05450000 0.00127700 -0.11177300
v 0.05450000 0.00130800 -0.11173500
v 0.05450000 0.00116500 -0.11100900
v 0.05450000 0.00135000 -0.11125000
v 0.05450000 0.00122500 -0.11103400
v 0.05450000 0.00134100 -0.11118500
v 0.05450000 0.00131700 -0.11112500
v 0.05450000 -0.00122500 -0.11103400
v 0.05450000 -0.00127700 -0.11107300
v 0.05450000 -0.00131700 -0.11112500
v 0.05450000 -0.00004000 -0.11328800
v 0.05450000 0.00001200 -0.11328900
v 0.05450000 0.00055100 -0.11249900
v 0.05450000 -0.00110000 -0.11100000
v 0.05450000 -0.00116500 -0.11100900
v 0.05450000 -0.00135000 -0.11125000
v 0.05450000 -0.00122500 -0.11103400
v 0.05450000 -0.00134100 -0.11118500
v 0.05450000 -0.00131700 -0.11112500
v 0.05450000 -0.00116500 -0.11199200
v 0.05450000 -0.00135000 -0.11175000
v 0.05450000 -0.00122500 -0.11196700
v 0.05450000 -0.00134100 -0.11181500
v 0.05450000 -0.00131700 -0.11187500
v 0.05450000 -0.00004000 -0.11328800
v 0.05450000 0.00055100 -0.11249900
v 0.05450000 -0.00049000 -0.11328800
v 0.05450000 0.00127700 -0.11177300
v 0.05450000 -0.00015200 -0.11200000
v 0.05450000 0.00055100 -0.11249900
v 0.05450000 -0.00066700 -0.11251500
v 0.05450000 -0.00070700 -0.11256700
v 0.05450000 0.00130800 -0.11173500
v 0.05450000 0.00133100 -0.11169200
v 0.05450000 -0.00015200 -0.11200000
v 0.05450000 0.00134500 -0.11164500
v 0.05450000 0.00135000 -0.11159700
v 0.05450000 -0.00103200 -0.11379800
v 0.05450000 -0.00137700 -0.11475200
v 0.05450000 -0.00061100 -0.11394200
v 0.05450000 -0.00102100 -0.11489800
v 0.05450000 -0.00011500 -0.11400000
v 0.05450000 -0.00011500 -0.11500000
v 0.05450000 0.00011500 -0.11397700
v 0.05450000 0.00031200 -0.11497600
v 0.05450000 0.00025200 -0.11393100
v 0.05450000 0.00073600 -0.11487300
v 0.05450000 0.00035000 -0.11386900
v 0.05450000 0.00105000 -0.11471500
v 0.05450000 0.00040400 -0.11381100
v 0.05450000 0.00128800 -0.11451400
v 0.05450000 0.00044100 -0.11374700
v 0.05450000 -0.00064600 -0.11323400
v 0.05450000 -0.00059900 -0.11326400
v 0.05450000 -0.00074000 -0.11303800
v 0.05450000 -0.00070700 -0.11256700
v 0.05450000 -0.00073200 -0.11262700
v 0.05450000 0.00055100 -0.11249900
v 0.05450000 -0.00074000 -0.11269200
v 0.05450000 -0.00049000 -0.11328800
v 0.05450000 -0.00074000 -0.11303800
v 0.05450000 -0.00054600 -0.11328200
v 0.05450000 -0.00059900 -0.11326400
v 0.05450000 0.00001200 -0.11328900
v 0.05450000 0.00021700 -0.11331800
v 0.05450000 0.00055100 -0.11249900
v 0.05450000 0.00032100 -0.11335900
v 0.05450000 0.00093800 -0.11263500
v 0.05450000 0.00035600 -0.11338200
v 0.05450000 0.00119700 -0.11280300
v 0.05450000 0.00040400 -0.11342600
v 0.05450000 0.00138800 -0.11300800
v 0.05450000 0.00043700 -0.11347600
v 0.05450000 0.00151900 -0.11324700
v 0.05450000 0.00045800 -0.11353500
v 0.05450000 0.00158800 -0.11351300
v 0.05450000 0.00046600 -0.11361400
v 0.05450000 0.00160000 -0.11372600
v 0.05450000 0.00046200 -0.11367100
v 0.05450000 0.00156100 -0.11401200
v 0.05450000 0.00044100 -0.11374700
v 0.05450000 0.00146200 -0.11426900
v 0.05450000 0.00128800 -0.11451400
v 0.05450000 -0.00103200 -0.11379800
v 0.05450000 -0.00108000 -0.11377900
v 0.05450000 -0.00140100 -0.11392100
v 0.05450000 -0.00114300 -0.11376400
v 0.05450000 -0.00137000 -0.11386500
v 0.05450000 -0.00064600 -0.11323400
v 0.05450000 -0.00074000 -0.11303800
v 0.05450000 -0.00068600 -0.11319400
v 0.05450000 -0.00073400 -0.11309400
v 0.05450000 -0.00071600 -0.11314700
v 0.05450000 -0.00103200 -0.11379800
v 0.05450000 -0.00140100 -0.11392100
v 0.05450000 -0.00137700 -0.11475200
v 0.05450000 -0.00158300 -0.11438200
v 0.05450000 -0.00149200 -0.11467900
v 0.05450000 -0.00159700 -0.11443500
v 0.05450000 -0.00159900 -0.11449100
v 0.05450000 -0.00159900 -0.11449100
v 0.05450000 -0.00158900 -0.11454600
v 0.05450000 -0.00149200 -0.11467900
v 0.05450000 -0.00156700 -0.11459700
v 0.05450000 -0.00153400 -0.11464300
v 0.05450000 -0.00120800 -0.11376600
v 0.05450000 -0.00127000 -0.11378500
v 0.05450000 -0.00114300 -0.11376400
v 0.05450000 -0.00132500 -0.11381800
v 0.05450000 -0.00137000 -0.11386500
vn 1.00000000 -0.00000000 -0.00000000
vn 1.00000000 -0.00000000 -0.00000000
vn 1.00000000 -0.00000000 -0.00000000
vn 1.00000000 -0.00000000 -0.00000000
vn 1.00000000 -0.00000000 -0.00000000
vn 1.00000000 -0.00000000 -0.00000000
vn 1.00000000 -0.00000000 -0.00000000
vn 1.00000000 -0.00000000 -0.00000000
vn 1.00000000 -0.00000000 -0.00000000
vn 1.00000000 -0.00000000 -0.00000000
vn 1.00000000 -0.00000000 -0.00000000
vn 1.00000000 -0.00000000 -0.00000000
vn 1.00000000 -0.00000000 -0.00000000
vn 1.00000000 -0.00000000 -0.00000000
vn 1.00000000 -0.00000000 -0.00000000
vn 1.00000000 -0.00000000 -0.00000000
vn 1.00000000 -0.00000000 -0.00000000
vn 1.00000000 -0.00000000 -0.00000000
vn 1.00000000 -0.00000000 -0.00000000
vn 1.00000000 -0.00000000 -0.00000000
vn 1.00000000 -0.00000000 -0.00000000
vn 1.00000000 -0.00000000 -0.00000000
vn 1.00000000 -0.00000000 -0.00000000
vn 1.00000000 -0.00000000 -0.00000000
vn 1.00000000 -0.00000000 -0.00000000
vn 1.00000000 -0.00000000 -0.00000000
vn 1.00000000 -0.00000000 -0.00000000
vn 1.00000000 -0.00000000 -0.00000000
vn 1.00000000 -0.00000000 -0.00000000
vn 1.00000000 -0.00000000 -0.00000000
vn 1.00000000 -0.00000000 -0.00000000
vn 1.00000000 -0.00000000 -0.00000000
vn 1.00000000 -0.00000000 -0.00000000
vn 1.00000000 -0.00000000 -0.00000000
vn 1.00000000 -0.00000000 -0.00000000
vn 1.00000000 -0.00000000 -0.00000000
vn 1.00000000 -0.00000000 -0.00000000
vn 1.00000000 -0.00000000 -0.00000000
vn 1.00000000 -0.00000000 -0.00000000
vn 1.00000000 -0.00000000 -0.00000000
vn 1.00000000 -0.00000000 -0.00000000
vn 1.00000000 -0.00000000 -0.00000000
vn 1.00000000 -0.00000000 -0.00000000
vn 1.00000000 -0.00000000 -0.00000000
vn 1.00000000 -0.00000000 -0.00000000
vn 1.00000000 -0.00000000 -0.00000000
vn 1.00000000 -0.00000000 -0.00000000
vn 1.00000000 -0.00000000 -0.00000000
vn 1.00000000 -0.00000000 -0.00000000
vn 1.00000000 -0.00000000 -0.00000000
vn 1.00000000 -0.00000000 -0.00000000
vn 1.00000000 -0.00000000 -0.00000000
vn 1.00000000 -0.00000000 -0.00000000
vn 1.00000000 -0.00000000 -0.00000000
vn 1.00000000 -0.00000000 -0.00000000
vn 1.00000000 -0.00000000 -0.00000000
vn 1.00000000 -0.00000000 -0.00000000
vn 1.00000000 -0.00000000 -0.00000000
vn 1.00000000 -0.00000000 -0.00000000
vn 1.00000000 -0.00000000 -0.00000000
vn 1.00000000 -0.00000000 -0.00000000
vn 1.00000000 -0.00000000 -0.00000000
vn 1.00000000 -0.00000000 -0.00000000
vn 1.00000000 -0.00000000 -0.00000000
vn 1.00000000 -0.00000000 -0.00000000
vn 1.00000000 -0.00000000 -0.00000000
vn 1.00000000 -0.00000000 -0.00000000
vn 1.00000000 -0.00000000 -0.00000000
vn 1.00000000 -0.00000000 -0.00000000
vn 1.00000000 -0.00000000 -0.00000000
vn 1.00000000 -0.00000000 -0.00000000
vn 1.00000000 -0.00000000 -0.00000000
vn 1.00000000 -0.00000000 -0.00000000
vn 1.00000000 -0.00000000 -0.00000000
vn 1.00000000 -0.00000000 -0.00000000
vn 1.00000000 -0.00000000 -0.00000000
vn 1.00000000 -0.00000000 -0.00000000
vn 1.00000000 -0.00000000 -0.00000000
vn 1.00000000 -0.00000000 -0.00000000
vn 1.00000000 -0.00000000 -0.00000000
vn 1.00000000 -0.00000000 -0.00000000
vn 1.00000000 -0.00000000 -0.00000000
vn 1.00000000 -0.00000000 -0.00000000
vn 1.00000000 -0.00000000 -0.00000000
vn 1.00000000 -0.00000000 -0.00000000
vn 1.00000000 -0.00000000 -0.00000000
vn 1.00000000 -0.00000000 -0.00000000
vn 1.00000000 -0.00000000 -0.00000000
vn 1.00000000 -0.00000000 -0.00000000
vn 1.00000000 -0.00000000 -0.00000000
vn 1.00000000 -0.00000000 -0.00000000
vn 1.00000000 -0.00000000 -0.00000000
vn 1.00000000 -0.00000000 -0.00000000
vn 1.00000000 -0.00000000 -0.00000000
vn 1.00000000 -0.00000000 -0.00000000
vn 1.00000000 -0.00000000 -0.00000000
vn 1.00000000 -0.00000000 -0.00000000
vn 1.00000000 -0.00000000 -0.00000000
vn 1.00000000 -0.00000000 -0.00000000
vn 1.00000000 -0.00000000 -0.00000000
vn 1.00000000 -0.00000000 -0.00000000
vn 1.00000000 -0.00000000 -0.00000000
vn 1.00000000 -0.00000000 -0.00000000
vn 1.00000000 -0.00000000 -0.00000000
vn 1.00000000 -0.00000000 -0.00000000
vn 1.00000000 -0.00000000 -0.00000000
vn 1.00000000 -0.00000000 -0.00000000
vn 1.00000000 -0.00000000 -0.00000000
vn 1.00000000 -0.00000000 -0.00000000
vn 1.00000000 -0.00000000 -0.00000000
vn 1.00000000 -0.00000000 -0.00000000
vn 1.00000000 -0.00000000 -0.00000000
vn 1.00000000 -0.00000000 -0.00000000
vn 1.00000000 -0.00000000 -0.00000000
vn 1.00000000 -0.00000000 -0.00000000
vn 1.00000000 -0.00000000 -0.00000000
vn 1.00000000 -0.00000000 -0.00000000
vn 1.00000000 -0.00000000 -0.00000000
vn 1.00000000 -0.00000000 -0.00000000
vn 1.00000000 -0.00000000 -0.00000000
vn 1.00000000 -0.00000000 -0.00000000
vn 1.00000000 -0.00000000 -0.00000000
vn 1.00000000 -0.00000000 -0.00000000
vn 1.00000000 -0.00000000 -0.00000000
vn 1.00000000 -0.00000000 -0.00000000
vn 1.00000000 -0.00000000 -0.00000000
vn 1.00000000 -0.00000000 -0.00000000
vn 1.00000000 -0.00000000 -0.00000000
vn 1.00000000 -0.00000000 -0.00000000
vn 1.00000000 -0.00000000 -0.00000000
vn 1.00000000 -0.00000000 -0.00000000
vn 1.00000000 -0.00000000 -0.00000000
vn 1.00000000 -0.00000000 -0.00000000
f 1//1 2//2 3//3
f 4//4 5//5 6//6
f 7//7 8//8 9//9
f 10//10 11//11 12//12
f 13//13 14//14 15//15
f 16//16 17//17 18//18
f 17//17 19//19 18//18
f 18//18 19//19 20//20
f 19//19 21//21 20//20
f 20//20 21//21 22//22
f 23//23 24//24 25//25
f 26//26 27//27 28//28
f 27//27 29//29 28//28
f 28//28 29//29 30//30
f 31//31 32//32 33//33
f 34//34 35//35 36//36
f 37//37 38//38 39//39
f 38//38 40//40 39//39
f 39//39 40//40 41//41
f 40//40 42//42 41//41
f 43//43 44//44 45//45
f 44//44 46//46 45//45
f 45//45 46//46 47//47
f 48//48 49//49 50//50
f 51//51 52//52 53//53
f 52//52 54//54 53//53
f 53//53 54//54 55//55
f 56//56 57//57 58//58
f 57//57 59//59 58//58
f 58//58 59//59 60//60
f 61//61 62//62 63//63
f 62//62 64//64 63//63
f 63//63 64//64 65//65
f 64//64 66//66 65//65
f 65//65 66//66 67//67
f 66//66 68//68 67//67
f 67//67 68//68 69//69
f 68//68 70//70 69//69
f 69//69 70//70 71//71
f 70//70 72//72 71//71
f 71//71 72//72 73//73
f 72//72 74//74 73//73
f 73//73 74//74 75//75
f 76//76 77//77 78//78
f 79//79 80//80 81//81
f 80//80 82//82 81//81
f 81//81 82//82 83//83
f 82//82 84//84 83//83
f 83//83 84//84 85//85
f 84//84 86//86 85//85
f 87//87 88//88 89//89
f 88//88 90//90 89//89
f 89//89 90//90 91//91
f 90//90 92//92 91//91
f 91//91 92//92 93//93
f 92//92 94//94 93//93
f 93//93 94//94 95//95
f 94//94 96//96 95//95
f 95//95 96//96 97//97
f 96//96 98//98 97//97
f 97//97 98//98 99//99
f 98//98 100//100 99//99
f 99//99 100//100 101//101
f 100//100 102//102 101//101
f 101//101 102//102 103//103
f 102//102 104//104 103//103
f 103//103 104//104 105//105
f 104//104 106//106 105//105
f 107//107 108//108 109//109
f 108//108 110//110 109//109
f 109//109 110//110 111//111
f 112//112 113//113 114//114
f 113//113 115//115 114//114
f 114//114 115//115 116//116
f 117//117 118//118 119//119
f 118//118 120//120 119//119
f 119//119 120//120 121//121
f 120//120 122//122 121//121
f 121//121 122//122 123//123
f 124//124 125//125 126//126
f 125//125 127//127 126//126
f 126//126 127//127 128//128
f 129//129 130//130 131//131
f 130//130 132//132 131//131
f 131//131 132//132 133//133

