mtllib material_0.mtl
usemtl material_0
v -0.19196800 0.01517200 0.16000000
v -0.19196800 0.01517200 0.16000000
v -0.19182400 0.01589900 0.16000000
v -0.19141200 0.01651500 0.16000000
v -0.19141200 0.01651500 0.16000000
v -0.19079500 0.01692700 0.16000000
v -0.19006800 0.01707200 0.16000000
v -0.18934100 0.01692700 0.16000000
v -0.18872500 0.01651500 0.16000000
v -0.18831300 0.01589900 0.16000000
v -0.18816800 0.01517200 0.16000000
v -0.18816800 -0.01582800 0.16000000
v -0.18831300 -0.01655500 0.16000000
v -0.18872500 -0.01717200 0.16000000
v -0.18934100 -0.01758300 0.16000000
v -0.19006800 -0.01772800 0.16000000
v -0.19079500 -0.01758300 0.16000000
v -0.19141200 -0.01717200 0.16000000
v -0.19182400 -0.01655500 0.16000000
v -0.19196800 -0.01582800 0.16000000
vn 0.00000000 0.00000000 1.00000000
vn -0.00010000 0.00000000 1.00000000
vn -0.00010000 0.00000000 1.00000000
vn -0.00010000 0.00000000 1.00000000
vn 0.00000000 0.00000000 1.00000000
vn 0.00000000 0.00000000 1.00000000
vn 0.00000000 0.00000000 1.00000000
vn 0.00000000 0.00000000 1.00000000
vn 0.00000000 0.00000000 1.00000000
vn 0.00000000 0.00000000 1.00000000
vn 0.00000000 0.00000000 1.00000000
vn 0.00000000 0.00000000 1.00000000
vn 0.00000000 0.00000000 1.00000000
vn 0.00000000 0.00000000 1.00000000
vn 0.00000000 0.00000000 1.00000000
vn 0.00000000 0.00000000 1.00000000
vn 0.00000000 0.00000000 1.00000000
vn 0.00000000 0.00000000 1.00000000
vn 0.00000000 0.00000000 1.00000000
vn 0.00000000 0.00000000 1.00000000
vt 0.00000000 0.00000000
vt 0.00000000 0.00000000
vt 0.00000000 0.00000000
vt 0.00000000 0.00000000
vt 0.00000000 0.00000000
vt 0.00000000 0.00000000
vt 0.00000000 0.00000000
vt 0.00000000 0.00000000
vt 0.00000000 0.00000000
vt 0.00000000 0.00000000
vt 0.00000000 0.00000000
vt 0.00000000 0.00000000
vt 0.00000000 0.00000000
vt 0.00000000 0.00000000
vt 0.00000000 0.00000000
vt 0.00000000 0.00000000
vt 0.00000000 0.00000000
vt 0.00000000 0.00000000
vt 0.00000000 0.00000000
vt 0.00000000 0.00000000
f 4/4/4 3/3/3 2/2/2
f 18/18/18 17/17/17 19/19/19
f 19/19/19 17/17/17 12/12/12
f 19/19/19 12/12/12 20/20/20
f 13/13/13 12/12/12 14/14/14
f 14/14/14 12/12/12 17/17/17
f 14/14/14 17/17/17 15/15/15
f 15/15/15 17/17/17 16/16/16
f 20/20/20 12/12/12 1/1/1
f 1/1/1 12/12/12 11/11/11
f 1/1/1 11/11/11 5/5/5
f 9/9/9 8/8/8 7/7/7
f 11/11/11 10/10/10 5/5/5
f 5/5/5 10/10/10 9/9/9
f 5/5/5 9/9/9 6/6/6
f 6/6/6 9/9/9 7/7/7
