mtllib material_0.mtl
usemtl material_0
v -0.01309400 0.06500000 -0.01906300
v -0.01309400 0.06500000 -0.01906300
v -0.01309400 0.06500000 -0.01906300
v -0.01309400 1.35000000 -0.01906300
v -0.01309400 1.35000000 -0.01906300
v -0.01309400 1.35000000 -0.01906300
v 0.01309400 0.06500000 -0.01906300
v 0.01309400 0.06500000 -0.01906300
v 0.01309400 0.06500000 -0.01906300
v 0.01309400 1.35000000 -0.01906300
v 0.01309400 1.35000000 -0.01906300
v 0.01309400 1.35000000 -0.01906300
v 0.01607800 1.35000000 -0.01826300
v 0.01607800 1.35000000 -0.01826300
v 0.01607800 1.35000000 -0.01826300
v 0.01607800 0.06500000 -0.01826300
v 0.01607800 0.06500000 -0.01826300
v 0.01607800 0.06500000 -0.01826300
v 0.01826300 1.35000000 -0.01607800
v 0.01826300 1.35000000 -0.01607800
v 0.01826300 1.35000000 -0.01607800
v 0.01826300 0.06500000 -0.01607800
v 0.01826300 0.06500000 -0.01607800
v 0.01826300 0.06500000 -0.01607800
v 0.01906300 1.35000000 -0.01309400
v 0.01906300 1.35000000 -0.01309400
v 0.01906300 1.35000000 -0.01309400
v 0.01906300 0.06500000 -0.01309400
v 0.01906300 0.06500000 -0.01309400
v 0.01906300 0.06500000 -0.01309400
v 0.01906300 1.35000000 0.01309400
v 0.01906300 1.35000000 0.01309400
v 0.01906300 1.35000000 0.01309400
v 0.01906300 0.06500000 0.01309400
v 0.01906300 0.06500000 0.01309400
v 0.01906300 0.06500000 0.01309400
v 0.01826300 1.35000000 0.01607800
v 0.01826300 1.35000000 0.01607800
v 0.01826300 1.35000000 0.01607800
v 0.01826300 0.06500000 0.01607800
v 0.01826300 0.06500000 0.01607800
v 0.01826300 0.06500000 0.01607800
v 0.01607800 1.35000000 0.01826300
v 0.01607800 1.35000000 0.01826300
v 0.01607800 1.35000000 0.01826300
v 0.01607800 0.06500000 0.01826300
v 0.01607800 0.06500000 0.01826300
v 0.01607800 0.06500000 0.01826300
v 0.01309400 1.35000000 0.01906300
v 0.01309400 1.35000000 0.01906300
v 0.01309400 1.35000000 0.01906300
v 0.01309400 0.06500000 0.01906300
v 0.01309400 0.06500000 0.01906300
v 0.01309400 0.06500000 0.01906300
v -0.01309400 1.35000000 0.01906300
v -0.01309400 1.35000000 0.01906300
v -0.01309400 1.35000000 0.01906300
v -0.01309400 0.06500000 0.01906300
v -0.01309400 0.06500000 0.01906300
v -0.01309400 0.06500000 0.01906300
v -0.01607800 1.35000000 0.01826300
v -0.01607800 1.35000000 0.01826300
v -0.01607800 1.35000000 0.01826300
v -0.01607800 0.06500000 0.01826300
v -0.01607800 0.06500000 0.01826300
v -0.01607800 0.06500000 0.01826300
v -0.01826300 1.35000000 0.01607800
v -0.01826300 1.35000000 0.01607800
v -0.01826300 1.35000000 0.01607800
v -0.01826300 0.06500000 0.01607800
v -0.01826300 0.06500000 0.01607800
v -0.01826300 0.06500000 0.01607800
v -0.01906300 1.35000000 0.01309400
v -0.01906300 1.35000000 0.01309400
v -0.01906300 1.35000000 0.01309400
v -0.01906300 0.06500000 0.01309400
v -0.01906300 0.06500000 0.01309400
v -0.01906300 0.06500000 0.01309400
v -0.01906300 1.35000000 -0.01309400
v -0.01906300 1.35000000 -0.01309400
v -0.01906300 1.35000000 -0.01309400
v -0.01906300 0.06500000 -0.01309400
v -0.01906300 0.06500000 -0.01309400
v -0.01906300 0.06500000 -0.01309400
v -0.01826300 1.35000000 -0.01607800
v -0.01826300 1.35000000 -0.01607800
v -0.01826300 1.35000000 -0.01607800
v -0.01826300 0.06500000 -0.01607800
v -0.01826300 0.06500000 -0.01607800
v -0.01826300 0.06500000 -0.01607800
v -0.01607800 1.35000000 -0.01826300
v -0.01607800 1.35000000 -0.01826300
v -0.01607800 1.35000000 -0.01826300
v -0.01607800 0.06500000 -0.01826300
v -0.01607800 0.06500000 -0.01826300
v -0.01607800 0.06500000 -0.01826300
vn 0.00000000 0.00000000 -1.00000000
vn 0.00000000 -1.00000000 0.00000000
vn -0.25880000 0.00000000 -0.96590000
vn 0.00000000 0.00000000 -1.00000000
vn 0.00000000 1.00000000 0.00000000
vn -0.25880000 0.00000000 -0.96590000
vn 0.00000000 0.00000000 -1.00000000
vn 0.25880000 0.00000000 -0.96590000
vn 0.00000000 -1.00000000 0.00000000
vn 0.00000000 0.00000000 -1.00000000
vn 0.25880000 0.00000000 -0.96590000
vn 0.00000000 1.00000000 0.00000000
vn 0.70710000 0.00000000 -0.70710000
vn 0.25880000 0.00000000 -0.96590000
vn 0.00000000 1.00000000 0.00000000
vn 0.70710000 0.00000000 -0.70710000
vn 0.25880000 0.00000000 -0.96590000
vn 0.00000000 -1.00000000 0.00000000
vn 0.00000000 1.00000000 0.00000000
vn 0.70710000 0.00000000 -0.70710000
vn 0.96590000 0.00000000 -0.25880000
vn 0.96590000 0.00000000 -0.25880000
vn 0.70710000 0.00000000 -0.70710000
vn 0.00000000 -1.00000000 0.00000000
vn 0.00000000 1.00000000 0.00000000
vn 1.00000000 0.00000000 0.00000000
vn 0.96590000 0.00000000 -0.25880000
vn 1.00000000 0.00000000 0.00000000
vn 0.00000000 -1.00000000 0.00000000
vn 0.96590000 0.00000000 -0.25880000
vn 0.96590000 0.00000000 0.25880000
vn 0.00000000 1.00000000 0.00000000
vn 1.00000000 0.00000000 0.00000000
vn 0.00000000 -1.00000000 0.00000000
vn 1.00000000 0.00000000 0.00000000
vn 0.96590000 0.00000000 0.25880000
vn 0.96590000 0.00000000 0.25880000
vn 0.00000000 1.00000000 0.00000000
vn 0.70710000 0.00000000 0.70710000
vn 0.00000000 -1.00000000 0.00000000
vn 0.70710000 0.00000000 0.70710000
vn 0.96590000 0.00000000 0.25880000
vn 0.00000000 1.00000000 0.00000000
vn 0.25880000 0.00000000 0.96590000
vn 0.70710000 0.00000000 0.70710000
vn 0.25880000 0.00000000 0.96590000
vn 0.70710000 0.00000000 0.70710000
vn 0.00000000 -1.00000000 0.00000000
vn 0.00000000 0.00000000 1.00000000
vn 0.25880000 0.00000000 0.96590000
vn 0.00000000 1.00000000 0.00000000
vn 0.00000000 0.00000000 1.00000000
vn 0.25880000 0.00000000 0.96590000
vn 0.00000000 -1.00000000 0.00000000
vn -0.25880000 0.00000000 0.96590000
vn 0.00000000 0.00000000 1.00000000
vn 0.00000000 1.00000000 0.00000000
vn 0.00000000 -1.00000000 0.00000000
vn -0.25880000 0.00000000 0.96590000
vn 0.00000000 0.00000000 1.00000000
vn -0.25880000 0.00000000 0.96590000
vn -0.70710000 0.00000000 0.70710000
vn 0.00000000 1.00000000 0.00000000
vn 0.00000000 -1.00000000 0.00000000
vn -0.25880000 0.00000000 0.96590000
vn -0.70710000 0.00000000 0.70710000
vn 0.00000000 1.00000000 0.00000000
vn -0.70710000 0.00000000 0.70710000
vn -0.96590000 0.00000000 0.25880000
vn -0.96590000 0.00000000 0.25880000
vn -0.70710000 0.00000000 0.70710000
vn 0.00000000 -1.00000000 0.00000000
vn -0.96590000 0.00000000 0.25880000
vn 0.00000000 1.00000000 0.00000000
vn -1.00000000 0.00000000 0.00000000
vn 0.00000000 -1.00000000 0.00000000
vn -0.96590000 0.00000000 0.25880000
vn -1.00000000 0.00000000 0.00000000
vn 0.00000000 1.00000000 0.00000000
vn -1.00000000 0.00000000 0.00000000
vn -0.96590000 0.00000000 -0.25880000
vn 0.00000000 -1.00000000 0.00000000
vn -1.00000000 0.00000000 0.00000000
vn -0.96590000 0.00000000 -0.25880000
vn 0.00000000 1.00000000 0.00000000
vn -0.96590000 0.00000000 -0.25880000
vn -0.70710000 0.00000000 -0.70710000
vn -0.70710000 0.00000000 -0.70710000
vn 0.00000000 -1.00000000 0.00000000
vn -0.96590000 0.00000000 -0.25880000
vn -0.70710000 0.00000000 -0.70710000
vn -0.25880000 0.00000000 -0.96590000
vn 0.00000000 1.00000000 0.00000000
vn -0.25880000 0.00000000 -0.96590000
vn -0.70710000 0.00000000 -0.70710000
vn 0.00000000 -1.00000000 0.00000000
f 1//1 4//4 7//7
f 7//7 4//4 10//10
f 8//8 11//11 14//14
f 8//8 14//14 17//17
f 16//16 13//13 20//20
f 16//16 20//20 23//23
f 22//22 21//21 27//27
f 22//22 27//27 30//30
f 33//33 35//35 26//26
f 26//26 35//35 28//28
f 36//36 31//31 37//37
f 36//36 37//37 42//42
f 41//41 39//39 45//45
f 41//41 45//45 47//47
f 46//46 44//44 50//50
f 46//46 50//50 53//53
f 56//56 60//60 49//49
f 49//49 60//60 52//52
f 59//59 55//55 61//61
f 59//59 61//61 65//65
f 66//66 62//62 68//68
f 66//66 68//68 71//71
f 70//70 69//69 73//73
f 70//70 73//73 77//77
f 80//80 83//83 75//75
f 75//75 83//83 78//78
f 84//84 81//81 86//86
f 84//84 86//86 90//90
f 88//88 87//87 91//91
f 88//88 91//91 95//95
f 94//94 92//92 6//6
f 94//94 6//6 3//3
f 34//34 76//76 29//29
f 29//29 76//76 82//82
f 64//64 72//72 58//58
f 58//58 72//72 76//76
f 58//58 76//76 54//54
f 54//54 76//76 34//34
f 54//54 34//34 48//48
f 48//48 34//34 40//40
f 18//18 24//24 9//9
f 9//9 24//24 29//29
f 9//9 29//29 2//2
f 2//2 29//29 82//82
f 2//2 82//82 96//96
f 96//96 82//82 89//89
f 25//25 79//79 32//32
f 32//32 79//79 74//74
f 93//93 85//85 5//5
f 5//5 85//85 79//79
f 5//5 79//79 12//12
f 12//12 79//79 25//25
f 12//12 25//25 15//15
f 15//15 25//25 19//19
f 43//43 38//38 51//51
f 51//51 38//38 32//32
f 51//51 32//32 57//57
f 57//57 32//32 74//74
f 57//57 74//74 63//63
f 63//63 74//74 67//67
