mtllib material.mtl
usemtl material_0
v -0.07000000 -0.11000000 -0.05892700
v -0.07000000 -0.09900000 -0.06992700
v -0.07000000 -0.09900000 -0.06992700
v -0.07000000 -0.09300000 -0.06992700
v -0.06500000 -0.11000000 -0.05892700
v -0.06500000 -0.09900000 -0.06992700
v -0.06500000 -0.09900000 -0.06992700
v -0.06500000 -0.09300000 -0.06992700
v -0.07300000 -0.11010000 -0.05696800
v -0.07300000 -0.09610000 -0.07096800
v -0.06500000 -0.11010000 -0.05696800
v -0.06500000 -0.09610000 -0.07096800
vn -0.00000000 -70.71067700 -70.71067700
vn -0.00000000 -70.71067700 -70.71067700
vn -0.00000000 0.00000000 -100.00000000
vn -0.00000000 0.00000000 -100.00000000
vn -0.00000000 -70.71067700 -70.71067700
vn -0.00000000 -70.71067700 -70.71067700
vn -0.00000000 0.00000000 -100.00000000
vn -0.00000000 0.00000000 -100.00000000
vn 0.00000000 70.71067700 70.71067700
vn 0.00000000 70.71067700 70.71067700
vn 0.00000000 70.71067700 70.71067700
vn 0.00000000 70.71067700 70.71067700
vt -0.30000000 -3.97032800
vt -0.30000000 -5.52596300
vt -0.50000000 0.25000000
vt -1.10000000 0.25000000
vt 0.20000000 -3.97032800
vt 0.20000000 -5.52596300
vt -0.50000000 -0.25000000
vt -1.10000000 -0.25000000
vt -2.12546300 0.00000000
vt -0.14556300 0.00000000
vt -2.12546300 -0.80000000
vt -0.14556300 -0.80000000
f 2/2/2 6/6/6 1/1/1
f 1/1/1 6/6/6 5/5/5
f 3/3/3 4/4/4 7/7/7
f 7/7/7 4/4/4 8/8/8
f 11/11/11 12/12/12 9/9/9
f 9/9/9 12/12/12 10/10/10

