mtllib Material_003.002.mtl
usemtl Material_003.002
v 0.04082500 -0.09350000 0.12470200
v 0.04082500 -0.09350000 0.12470200
v 0.04082500 0.09350000 0.12470200
v 0.04151700 0.09350000 0.12141000
v 0.04151700 -0.09350000 0.12141000
v 0.04151700 -0.09350000 0.12141000
v 0.04347700 0.09350000 0.11867500
v 0.04347700 -0.09350000 0.11867500
v 0.04347700 -0.09350000 0.11867500
v 0.04347700 -0.09350000 0.11867500
v 0.04637200 0.09350000 0.11696100
v 0.04637200 -0.09350000 0.11696100
v 0.04971200 -0.09350000 0.11655900
v 0.05469300 0.09350000 0.11699400
v 0.05469300 -0.09350000 0.11699400
v 0.05469300 -0.09350000 0.11699400
v 0.03812000 0.02950000 0.18353600
v 0.03812000 0.04500000 0.18353600
v 0.04400000 -0.02950000 0.17473600
v 0.04400000 -0.02869600 0.17173600
v 0.04082500 -0.02869600 0.17173600
v 0.04400000 -0.02650000 0.16953900
v 0.04082500 -0.02650000 0.16953900
v 0.04400000 -0.02350000 0.16873600
v 0.04082500 -0.02350000 0.16873600
v 0.04400000 0.02350000 0.16873600
v 0.04082500 0.02350000 0.16873600
v 0.04400000 0.02650000 0.16953900
v 0.04082500 0.02650000 0.16953900
v 0.04400000 0.02869600 0.17173600
v 0.04082500 0.02869600 0.17173600
v 0.04400000 0.02950000 0.17473600
v 0.04327500 0.02950000 0.17838100
v 0.04121000 0.02950000 0.18147100
v 0.04121000 0.02950000 0.18147100
v 0.04400000 0.04500000 0.17473600
v 0.04327500 0.04500000 0.17838100
v 0.04121000 0.04500000 0.18147100
v 0.04121000 0.04500000 0.18147100
v 0.04400000 0.04558600 0.17214900
v 0.04400000 0.04723000 0.17006800
v 0.04400000 0.04723000 0.17006800
v 0.04082500 0.04723000 0.17006800
v 0.04082500 0.04723000 0.17006800
v 0.04082500 0.09127000 0.13450400
v 0.04082500 0.09127000 0.13450400
v 0.04400000 0.09127000 0.13450400
v 0.04400000 0.09127000 0.13450400
v 0.04400000 0.09350000 0.12983600
v 0.04082500 0.09350000 0.12983600
v 0.05441700 0.09350000 0.12015700
v 0.05441700 0.09350000 0.12015700
v 0.04943600 0.09350000 0.11972200
v 0.04400000 0.09350000 0.12470200
v 0.04082500 -0.04723000 0.17006800
v 0.04082500 -0.04723000 0.17006800
v 0.04400000 -0.04723000 0.17006800
v 0.04400000 -0.04723000 0.17006800
v 0.04400000 -0.04558600 0.17214900
v 0.04400000 -0.04500000 0.17473600
v 0.04400000 -0.09127000 0.13450400
v 0.04400000 -0.09127000 0.13450400
v 0.04400000 -0.09127000 0.13450400
v 0.04400000 -0.09291400 0.13242200
v 0.04400000 -0.09350000 0.12983600
v 0.04400000 -0.09350000 0.12983600
v 0.04082500 -0.09350000 0.12983600
v 0.04082500 -0.09350000 0.12983600
v 0.04400000 -0.09350000 0.12470200
v 0.04400000 -0.09350000 0.12470200
v 0.04562200 -0.09350000 0.12101600
v 0.04943600 -0.09350000 0.11972200
v 0.05441700 -0.09350000 0.12015700
v 0.05441700 -0.09350000 0.12015700
v 0.05441700 -0.09350000 0.12015700
v 0.03812000 -0.04500000 0.18353600
v 0.04121000 -0.04500000 0.18147100
v 0.04121000 -0.04500000 0.18147100
v 0.04327500 -0.04500000 0.17838100
v 0.03812000 -0.02950000 0.18353600
v 0.04327500 -0.02950000 0.17838100
v 0.04121000 -0.02950000 0.18147100
v 0.04121000 -0.02950000 0.18147100
v 0.04439000 -0.09350000 0.12276700
v 0.04439000 -0.09350000 0.12276700
v 0.04439000 -0.13500000 0.12276700
v 0.04404000 -0.13500000 0.12533200
v 0.04404000 -0.09350000 0.12533200
v 0.04404000 -0.09350000 0.12533200
v 0.04501900 -0.13500000 0.12772800
v 0.04501900 -0.09350000 0.12772800
v 0.04501900 -0.09350000 0.12772800
v 0.04706500 -0.13500000 0.12931300
v 0.04706500 -0.09350000 0.12931300
v 0.04706500 -0.09350000 0.12931300
v 0.04962900 -0.13500000 0.12966300
v 0.04962900 -0.09350000 0.12966300
v 0.05202500 -0.09350000 0.12868400
v 0.05361000 -0.09350000 0.12663800
v 0.05396000 -0.09350000 0.12407300
v 0.05298100 -0.09350000 0.12167800
v 0.05298100 -0.09350000 0.12167800
v 0.05093500 -0.09350000 0.12009200
v 0.04837100 -0.09350000 0.11974200
v 0.04597500 -0.13500000 0.12072100
v 0.04597500 -0.09350000 0.12072100
v 0.04597500 -0.09350000 0.12072100
v 0.04706500 0.09350000 0.12931300
v 0.04962900 0.09350000 0.12966300
v 0.05202500 0.09350000 0.12868400
v 0.05361000 0.09350000 0.12663800
v 0.05396000 0.09350000 0.12407300
v 0.05298100 0.09350000 0.12167800
v 0.05298100 0.09350000 0.12167800
v 0.05093500 0.09350000 0.12009200
v 0.04082500 -0.09127000 0.13450400
v 0.04082500 -0.09127000 0.13450400
v 0.04082500 -0.09127000 0.13450400
v 0.04082500 -0.09291400 0.13242200
v 0.04082500 -0.09291400 0.13242200
v 0.04442300 -0.09350000 0.12268900
vn -0.72310000 -0.68660000 -0.07470000
vn -0.72310000 -0.68660000 -0.07470000
vn -1.00000000 0.00000000 0.00000000
vn -0.97860000 0.00000000 -0.20570000
vn -0.68340000 -0.66570000 -0.29970000
vn -0.68340000 -0.66570000 -0.29970000
vn -0.81280000 0.00000000 -0.58250000
vn -0.61380000 -0.65550000 -0.43990000
vn -0.61380000 -0.65550000 -0.43990000
vn -0.50950000 0.00000000 -0.86050000
vn -0.50950000 0.00000000 -0.86050000
vn -0.50950000 0.00000000 -0.86050000
vn 0.00000000 -1.00000000 0.00000000
vn 0.99620000 0.00000000 0.08690000
vn 0.70470000 -0.70680000 0.06190000
vn 0.70470000 -0.70680000 0.06190000
vn 0.55560000 0.00000000 0.83140000
vn 0.55560000 0.00000000 0.83140000
vn 0.99590000 0.00000000 0.09050000
vn 1.00000000 -0.00000000 0.00000000
vn -1.00000000 0.00000000 0.00000000
vn 1.00000000 -0.00000000 0.00000000
vn -1.00000000 0.00000000 0.00000000
vn 1.00000000 -0.00000000 0.00000000
vn -1.00000000 0.00000000 0.00000000
vn 1.00000000 -0.00000000 0.00000000
vn -1.00000000 0.00000000 0.00000000
vn 1.00000000 -0.00000000 0.00000000
vn -1.00000000 0.00000000 0.00000000
vn 1.00000000 -0.00000000 0.00000000
vn -1.00000000 0.00000000 0.00000000
vn 0.99590000 0.00000000 0.09050000
vn 0.92390000 0.00000000 0.38270000
vn 0.70710000 0.00000000 0.70710000
vn 0.70710000 0.00000000 0.70710000
vn 0.99580000 0.00000000 0.09150000
vn 0.92390000 0.00000000 0.38270000
vn 0.70710000 0.00000000 0.70710000
vn 0.70710000 0.00000000 0.70710000
vn 1.00000000 -0.00000000 0.00000000
vn 0.90610000 0.26580000 0.32910000
vn 0.90610000 0.26580000 0.32910000
vn -0.85160000 0.32930000 0.40780000
vn -0.85160000 0.32930000 0.40780000
vn -0.86400000 0.31630000 0.39170000
vn -0.86400000 0.31630000 0.39170000
vn 0.86400000 0.31630000 0.39170000
vn 0.86400000 0.31630000 0.39170000
vn 1.00000000 -0.00000000 0.00000000
vn -1.00000000 0.00000000 0.00000000
vn 0.64290000 0.00000000 0.76590000
vn 0.64290000 0.00000000 0.76590000
vn -0.08700000 0.00000000 0.99620000
vn 1.00000000 -0.00000000 0.00000000
vn -0.85160000 -0.32930000 0.40780000
vn -0.85160000 -0.32930000 0.40780000
vn 0.90610000 -0.26580000 0.32910000
vn 0.90610000 -0.26580000 0.32910000
vn 1.00000000 -0.00000000 0.00000000
vn 0.99580000 0.00000000 0.09150000
vn 0.65350000 -0.53810000 0.53230000
vn 0.65350000 -0.53810000 0.53230000
vn 0.65350000 -0.53810000 0.53230000
vn 0.00000000 -0.90230000 0.43100000
vn 1.00000000 -0.00000000 0.00000000
vn 0.00000000 -0.97530000 0.22100000
vn -0.80980000 -0.57870000 0.09630000
vn -0.80980000 -0.57870000 0.09630000
vn 0.00000000 -1.00000000 0.00000000
vn 1.00000000 -0.00000000 0.00000000
vn 0.00000000 -1.00000000 0.00000000
vn -0.08700000 0.00000000 0.99620000
vn 0.58550000 -0.41210000 0.69810000
vn 0.58550000 -0.41210000 0.69810000
vn 0.58550000 -0.41210000 0.69810000
vn 0.55560000 0.00000000 0.83140000
vn 0.70710000 0.00000000 0.70710000
vn 0.70710000 0.00000000 0.70710000
vn 0.92390000 0.00000000 0.38270000
vn 0.55560000 0.00000000 0.83140000
vn 0.92390000 0.00000000 0.38270000
vn 0.70710000 0.00000000 0.70710000
vn 0.70710000 0.00000000 0.70710000
vn -0.79050000 0.00000000 -0.61240000
vn -0.99080000 0.00000000 -0.13520000
vn -0.79050000 0.00000000 -0.61240000
vn -0.99080000 0.00000000 -0.13520000
vn -0.99080000 0.00000000 -0.13520000
vn -0.92570000 0.00000000 0.37820000
vn -0.92570000 0.00000000 0.37820000
vn -0.92570000 0.00000000 0.37820000
vn -0.61240000 0.00000000 0.79050000
vn -0.61240000 0.00000000 0.79050000
vn -0.61240000 0.00000000 0.79050000
vn -0.13530000 0.00000000 0.99080000
vn -0.13530000 0.00000000 0.99080000
vn 0.03700000 0.00000000 0.99930000
vn 0.60500000 0.00000000 0.79620000
vn 0.92210000 0.00000000 0.38700000
vn 0.99200000 0.00000000 -0.12590000
vn 0.79630000 0.00000000 -0.60500000
vn 0.79630000 0.00000000 -0.60500000
vn 0.61270000 0.00000000 -0.79040000
vn -0.37820000 0.00000000 -0.92570000
vn -0.37820000 0.00000000 -0.92570000
vn -0.37820000 0.00000000 -0.92570000
vn -0.79050000 0.00000000 -0.61240000
vn -0.13530000 0.00000000 0.99080000
vn 0.12580000 0.00000000 0.99210000
vn 0.60500000 0.00000000 0.79620000
vn 0.92210000 0.00000000 0.38700000
vn 0.99200000 0.00000000 -0.12590000
vn 0.79630000 0.00000000 -0.60500000
vn 0.79630000 0.00000000 -0.60500000
vn 0.61270000 0.00000000 -0.79040000
vn -0.68290000 -0.51940000 0.51370000
vn -0.68290000 -0.51940000 0.51370000
vn -0.68290000 -0.51940000 0.51370000
vn -0.66060000 -0.67740000 0.32360000
vn -0.66060000 -0.67740000 0.32360000
vn 0.00000000 -1.00000000 0.00000000
vt 0.86555500 0.75197300
vt 0.82133100 0.95794100
vt 0.86555500 0.55315200
vt 0.86893400 0.55314200
vt 0.86893400 0.75196300
vt 0.81987600 0.95467300
vt 0.87155300 0.55312200
vt 0.87155300 0.75194400
vt 0.81986100 0.95109700
vt 0.98184000 0.08014100
vt 0.97855800 0.27887700
vt 0.97855800 0.08019600
vt 0.82391500 0.94538800
vt 0.99257100 0.08014300
vt 0.99257100 0.27897000
vt 0.82847700 0.94266000
vt 0.95300800 0.65020200
vt 0.93652800 0.65020000
vt 0.85343900 0.35770700
vt 0.85662100 0.35856100
vt 0.81595300 0.68312400
vt 0.85895000 0.36089600
vt 0.81826900 0.68078700
vt 0.85980300 0.36408500
vt 0.81911700 0.67759700
vt 0.85980300 0.41405800
vt 0.81911700 0.62762500
vt 0.85895000 0.41724800
vt 0.81826900 0.62443700
vt 0.85662100 0.41958300
vt 0.81595300 0.62210400
vt 0.85343900 0.42043900
vt 0.84962600 0.42044200
vt 0.84649900 0.42045100
vt 0.95301800 0.65377100
vt 0.85343900 0.43691900
vt 0.84962600 0.43692200
vt 0.93653800 0.65376900
vt 0.84649900 0.43693100
vt 0.85618300 0.43754200
vt 0.86635200 0.98966900
vt 0.85839000 0.43928900
vt 0.86966900 0.99006300
vt 0.81771200 0.60239600
vt 0.86966900 0.94314300
vt 0.85521800 0.55553400
vt 0.86635200 0.94274900
vt 0.89611400 0.48610500
vt 0.90106500 0.48847500
vt 0.86014100 0.55315800
vt 0.99590600 0.08014100
vt 0.59839700 0.57950400
vt 0.60357000 0.57951100
vt 0.90651000 0.48847400
vt 0.81771200 0.70282900
vt 0.18964100 0.94196000
vt 0.18632300 0.94234400
vt 0.85839000 0.33885400
vt 0.85618300 0.34060300
vt 0.85343900 0.34122700
vt 0.18632300 0.98971400
vt 0.83020900 0.96444500
vt 0.89611400 0.29202100
vt 0.82888500 0.96262200
vt 0.90106500 0.28964800
vt 0.82726400 0.96038400
vt 0.86014100 0.75197900
vt 0.82452800 0.96236200
vt 0.82406600 0.95596200
vt 0.90651000 0.28964700
vt 0.82316700 0.95177600
vt 0.60357000 0.77833500
vt 0.59839700 0.77832800
vt 0.83020900 0.94555600
vt 0.99590600 0.27896800
vt 0.67160100 0.28464600
vt 0.67161100 0.28821600
vt 0.84649900 0.34123900
vt 0.84962600 0.34123100
vt 0.65512100 0.28464400
vt 0.84962600 0.35771100
vt 0.65513100 0.28821400
vt 0.84649900 0.35771900
vt 0.10279900 0.49538300
vt 0.98184000 0.12427000
vt 0.10279900 0.45129100
vt 0.98449700 0.08014100
vt 0.98449700 0.12426500
vt 0.98449700 0.12426500
vt 0.98715700 0.08014700
vt 0.98715700 0.12427000
vt 0.98715700 0.12427000
vt 0.98910500 0.08016300
vt 0.98910500 0.12428600
vt 0.99069300 0.90135600
vt 0.98804900 0.94547500
vt 0.98804900 0.90135100
vt 0.98537700 0.90135500
vt 0.98332300 0.90136100
vt 0.98062900 0.90136300
vt 0.97801600 0.90135900
vt 0.09359200 0.49538300
vt 0.09553800 0.49545800
vt 0.09819700 0.49548500
vt 0.10085400 0.45136600
vt 0.10085400 0.49545800
vt 0.10085400 0.49545800
vt 0.99069300 0.70253200
vt 0.98804900 0.70252700
vt 0.98537700 0.70253100
vt 0.98332300 0.70253400
vt 0.98062900 0.70253600
vt 0.97801600 0.70253300
vt 0.09359100 0.69406400
vt 0.09553800 0.69413900
vt 0.85521800 0.74961200
vt 0.18964100 0.98933000
vt 0.82747400 0.96642300
vt 0.85741300 0.75135800
vt 0.82614900 0.96460100
vt 0.82317700 0.95396400
f 1/1/1 4/4/4 5/5/5
f 5/5/5 7/7/7 8/8/8
f 10/10/10 11/11/11 12/12/12
f 51/51/51 75/75/75 14/14/14
f 14/14/14 75/75/75 15/15/15
f 53/53/53 72/72/72 52/52/52
f 52/52/52 72/72/72 73/73/73
f 32/32/32 36/36/36 37/37/37
f 32/32/32 37/37/37 33/33/33
f 33/33/33 37/37/37 39/39/39
f 33/33/33 39/39/39 34/34/34
f 35/35/35 38/38/38 18/18/18
f 35/35/35 18/18/18 17/17/17
f 45/45/45 43/43/43 47/47/47
f 47/47/47 43/43/43 41/41/41
f 62/62/62 118/118/118 120/120/120
f 62/62/62 120/120/120 64/64/64
f 64/64/64 120/120/120 68/68/68
f 64/64/64 68/68/68 66/66/66
f 61/61/61 57/57/57 117/117/117
f 117/117/117 57/57/57 56/56/56
f 48/48/48 30/30/30 28/28/28
f 36/36/36 32/32/32 40/40/40
f 40/40/40 32/32/32 30/30/30
f 40/40/40 30/30/30 42/42/42
f 42/42/42 30/30/30 48/48/48
f 19/19/19 60/60/60 20/20/20
f 20/20/20 60/60/60 59/59/59
f 20/20/20 59/59/59 58/58/58
f 49/49/49 48/48/48 28/28/28
f 49/49/49 28/28/28 54/54/54
f 54/54/54 28/28/28 26/26/26
f 54/54/54 26/26/26 70/70/70
f 58/58/58 63/63/63 20/20/20
f 20/20/20 63/63/63 65/65/65
f 20/20/20 65/65/65 22/22/22
f 22/22/22 65/65/65 70/70/70
f 22/22/22 70/70/70 24/24/24
f 24/24/24 70/70/70 26/26/26
f 69/69/69 68/68/68 2/2/2
f 69/69/69 2/2/2 121/121/121
f 121/121/121 2/2/2 6/6/6
f 121/121/121 6/6/6 71/71/71
f 71/71/71 6/6/6 9/9/9
f 74/74/74 13/13/13 16/16/16
f 116/116/116 21/21/21 23/23/23
f 55/55/55 21/21/21 116/116/116
f 119/119/119 116/116/116 67/67/67
f 67/67/67 116/116/116 23/23/23
f 67/67/67 23/23/23 1/1/1
f 1/1/1 23/23/23 25/25/25
f 1/1/1 25/25/25 3/3/3
f 44/44/44 46/46/46 31/31/31
f 31/31/31 46/46/46 50/50/50
f 31/31/31 50/50/50 29/29/29
f 29/29/29 50/50/50 3/3/3
f 29/29/29 3/3/3 27/27/27
f 27/27/27 3/3/3 25/25/25
f 60/60/60 19/19/19 81/81/81
f 60/60/60 81/81/81 79/79/79
f 79/79/79 81/81/81 83/83/83
f 79/79/79 83/83/83 78/78/78
f 77/77/77 82/82/82 80/80/80
f 77/77/77 80/80/80 76/76/76
f 107/107/107 86/86/86 84/84/84
f 85/85/85 87/87/87 88/88/88
f 89/89/89 90/90/90 91/91/91
f 92/92/92 93/93/93 94/94/94
f 95/95/95 96/96/96 97/97/97
f 104/104/104 105/105/105 106/106/106
f 108/108/108 95/95/95 97/97/97
f 108/108/108 97/97/97 109/109/109
f 109/109/109 97/97/97 98/98/98
f 109/109/109 98/98/98 110/110/110
f 110/110/110 98/98/98 99/99/99
f 110/110/110 99/99/99 111/111/111
f 111/111/111 99/99/99 100/100/100
f 111/111/111 100/100/100 112/112/112
f 112/112/112 100/100/100 101/101/101
f 112/112/112 101/101/101 113/113/113
f 114/114/114 102/102/102 103/103/103
f 114/114/114 103/103/103 115/115/115